<?xml version="1.0" encoding="UTF-8" standalone="no"?>
<!-- Created with Inkscape (http://www.inkscape.org/) -->

<svg
   xmlns:dc="http://purl.org/dc/elements/1.1/"
   xmlns:cc="http://creativecommons.org/ns#"
   xmlns:rdf="http://www.w3.org/1999/02/22-rdf-syntax-ns#"
   xmlns:svg="http://www.w3.org/2000/svg"
   xmlns="http://www.w3.org/2000/svg"
   xmlns:sodipodi="http://sodipodi.sourceforge.net/DTD/sodipodi-0.dtd"
   xmlns:inkscape="http://www.inkscape.org/namespaces/inkscape"
   width="343.5625"
   height="343.5625"
   id="svg2"
   version="1.1"
   inkscape:version="0.48.5 r10040"
   sodipodi:docname="drawing.svg"
   inkscape:export-filename="/home/bd/src/doering-site/assets/images/favicon.png"
   inkscape:export-xdpi="16.765509"
   inkscape:export-ydpi="16.765509">
  <defs
     id="defs4" />
  <sodipodi:namedview
     id="base"
     pagecolor="#ffffff"
     bordercolor="#666666"
     borderopacity="1.0"
     inkscape:pageopacity="0.0"
     inkscape:pageshadow="2"
     inkscape:zoom="0.35"
     inkscape:cx="247.96141"
     inkscape:cy="8.7968172"
     inkscape:document-units="px"
     inkscape:current-layer="layer1"
     showgrid="false"
     fit-margin-top="0"
     fit-margin-left="0"
     fit-margin-right="0"
     fit-margin-bottom="0"
     inkscape:window-width="878"
     inkscape:window-height="1030"
     inkscape:window-x="1782"
     inkscape:window-y="90"
     inkscape:window-maximized="0" />
  <metadata
     id="metadata7">
    <rdf:RDF>
      <cc:Work
         rdf:about="">
        <dc:format>image/svg+xml</dc:format>
        <dc:type
           rdf:resource="http://purl.org/dc/dcmitype/StillImage" />
        <dc:title></dc:title>
      </cc:Work>
    </rdf:RDF>
  </metadata>
  <g
     inkscape:label="Layer 1"
     inkscape:groupmode="layer"
     id="layer1"
     transform="translate(-78.21875,-293.4375)">
    <path
       style="fill:#428bca;fill-opacity:1;stroke:none;stroke-width:3.54299997999999983;stroke-miterlimit:4;stroke-opacity:1;stroke-dasharray:none"
       d="M 48.25 1.78125 C 22.507272 1.78125 1.78125 22.507272 1.78125 48.25 L 1.78125 295.3125 C 1.78125 321.05523 22.507272 341.78125 48.25 341.78125 L 295.3125 341.78125 C 321.05523 341.78125 341.78125 321.05523 341.78125 295.3125 L 341.78125 48.25 C 341.78125 22.507272 321.05523 1.78125 295.3125 1.78125 L 48.25 1.78125 z M 35.9375 69 L 58.71875 69 L 58.71875 149.03125 C 63.317137 146.04241 68.584528 143.0516 74.5625 140.0625 C 80.540395 137.07367 87.318814 135.56264 94.90625 135.5625 C 103.87309 135.56264 112.27637 137.52898 120.09375 141.4375 C 128.14088 145.11636 135.03313 150.15609 140.78125 156.59375 C 146.75908 163.03164 151.48857 170.63812 154.9375 179.375 C 158.38619 187.88215 160.09363 196.96841 160.09375 206.625 C 160.09363 216.05181 158.27236 224.87915 154.59375 233.15625 C 151.14482 241.43343 146.3015 248.69842 140.09375 254.90625 C 133.88579 260.8842 126.65206 265.69628 118.375 269.375 C 110.09778 272.82381 101.23918 274.5625 91.8125 274.5625 C 79.396737 274.5625 68.375388 270.06066 58.71875 261.09375 L 56.28125 273.1875 L 35.9375 273.1875 L 35.9375 69 z M 284.84375 69 L 307.625 69 L 307.625 273.1875 L 287.28125 273.1875 L 284.84375 261.09375 C 275.18699 270.06066 264.16564 274.5625 251.75 274.5625 C 242.32319 274.5625 233.4646 272.82381 225.1875 269.375 C 216.91032 265.69628 209.67658 260.8842 203.46875 254.90625 C 197.26088 248.69842 192.30372 241.43343 188.625 233.15625 C 185.17619 224.87915 183.46875 216.05181 183.46875 206.625 C 183.46875 196.96841 185.17619 187.88215 188.625 179.375 C 192.0738 170.63812 196.68947 163.03164 202.4375 156.59375 C 208.41541 150.15609 215.30766 145.11636 223.125 141.4375 C 231.17218 137.52898 239.68929 135.56264 248.65625 135.5625 C 256.24356 135.56264 263.02198 137.07367 269 140.0625 C 274.97785 143.0516 280.24524 146.04241 284.84375 149.03125 L 284.84375 69 z M 94.90625 158.34375 C 88.928258 158.34387 83.774696 159.02684 79.40625 160.40625 C 75.037717 161.55597 71.250105 162.80809 68.03125 164.1875 C 64.35249 165.79705 61.247853 167.64957 58.71875 169.71875 L 58.71875 177.3125 L 58.71875 200.0625 L 58.71875 233.15625 C 61.247853 238.44446 65.035465 242.9463 70.09375 246.625 C 75.381887 250.07383 82.615624 251.78127 91.8125 251.78125 C 98.020298 251.78127 103.88808 250.64298 109.40625 248.34375 C 114.92427 245.81465 119.73634 242.59618 123.875 238.6875 C 128.01348 234.54897 131.23195 229.73689 133.53125 224.21875 C 136.06028 218.70071 137.34365 212.83292 137.34375 206.625 C 137.34365 199.95737 136.17411 193.7481 133.875 188 C 131.80562 182.02215 128.84606 176.83734 124.9375 172.46875 C 121.02876 168.10036 116.4131 164.65424 111.125 162.125 C 106.06667 159.59599 100.6542 158.34387 94.90625 158.34375 z M 248.65625 158.34375 C 242.67825 158.34387 237.15195 159.59599 232.09375 162.125 C 227.03545 164.65424 222.53361 168.10036 218.625 172.46875 C 214.71632 176.83734 211.61168 182.02215 209.3125 188 C 207.24319 193.7481 206.21873 199.95737 206.21875 206.625 C 206.21873 212.83292 207.38827 218.70071 209.6875 224.21875 C 212.2166 229.73689 215.54889 234.54897 219.6875 238.6875 C 223.82603 242.59618 228.63811 245.81465 234.15625 248.34375 C 239.67429 250.64298 245.54208 251.78127 251.75 251.78125 C 260.94675 251.78127 268.06666 250.07383 273.125 246.625 C 278.41308 242.9463 282.31452 238.44446 284.84375 233.15625 L 284.84375 200.0625 L 284.84375 177.3125 L 284.84375 169.71875 C 282.31452 167.64957 279.20989 165.79705 275.53125 164.1875 C 272.31227 162.80809 268.41083 161.55597 263.8125 160.40625 C 259.44393 159.02684 254.4042 158.34387 248.65625 158.34375 z "
       transform="translate(78.21875,293.4375)"
       id="rect2985" />
  </g>
</svg>
