<?xml version="1.0" encoding="UTF-8"?>
<!DOCTYPE svg PUBLIC "-//W3C//DTD SVG 1.1//EN"
    "http://www.w3.org/Graphics/SVG/1.1/DTD/svg11.dtd">
<svg xmlns="http://www.w3.org/2000/svg" xmlns:xlink="http://www.w3.org/1999/xlink" version="1.1" width="800.0" height="657.1006443511461" font-size="1" viewBox="0 0 800 657" stroke="rgb(0,0,0)" stroke-opacity="1"><g><g fill="rgb(0,0,0)" fill-opacity="0.0"><g stroke="rgb(0,0,0)" stroke-opacity="1.0" stroke-width="2.900153142110718" stroke-linecap="butt" stroke-linejoin="miter" font-size="1.0em" stroke-miterlimit="10.0"><g fill="rgb(240,162,188)" fill-opacity="1.0" stroke-width="0.0"><g fill="rgb(240,162,188)" fill-opacity="1.0"><g fill="rgb(240,162,188)" fill-opacity="1.0"><path d="M 498.64476297115175,344.41317735830614 c 0.0,-6.150272095623157 -4.985780633530507,-11.136052729153665 -11.136052729153663 -11.136052729153665c -6.150272095623157,-3.7659555178950913e-16 -11.136052729153665,4.985780633530506 -11.136052729153665 11.136052729153661c -7.531911035790183e-16,6.150272095623157 4.9857806335305055,11.136052729153665 11.13605272915366 11.136052729153665c 6.150272095623157,1.1297866553685274e-15 11.136052729153665,-4.9857806335305055 11.13605272915367 -11.136052729153661Z" /></g></g></g><g fill="rgb(97,91,91)" fill-opacity="1.0" stroke-width="0.0"><g fill="rgb(97,91,91)" fill-opacity="1.0"><g fill="rgb(97,91,91)" fill-opacity="1.0"><path d="M 470.9774591020777,337.40346980838166 c 0.0,-13.180263323474408 -10.684714529911037,-23.864977853385447 -23.864977853385444 -23.864977853385447c -13.180263323474408,-8.070583645506095e-16 -23.864977853385447,10.684714529911036 -23.864977853385447 23.86497785338544c -1.614116729101219e-15,13.180263323474408 10.684714529911034,23.864977853385447 23.864977853385437 23.864977853385447c 13.180263323474408,2.421175093651828e-15 23.864977853385447,-10.684714529911032 23.864977853385458 -23.86497785338544Z" /></g></g></g><g fill="rgb(240,162,188)" fill-opacity="1.0" stroke-width="0.0"><g fill="rgb(240,162,188)" fill-opacity="1.0"><g fill="rgb(240,162,188)" fill-opacity="1.0"><path d="M 550.2217393689066,301.70050389486016 c 0.0,-16.59712923181092 -13.454631634111728,-30.051760865922652 -30.051760865922645 -30.051760865922652c -16.59712923181092,-1.0162810594386107e-15 -30.051760865922652,13.454631634111726 -30.051760865922652 30.051760865922642c -2.0325621188772214e-15,16.59712923181092 13.454631634111724,30.051760865922652 30.05176086592264 30.051760865922652c 16.59712923181092,3.048843178315832e-15 30.051760865922652,-13.454631634111724 30.05176086592266 -30.051760865922642Z" /></g></g></g><g fill="rgb(173,210,116)" fill-opacity="1.0" stroke-width="0.0"><g fill="rgb(173,210,116)" fill-opacity="1.0"><g fill="rgb(173,210,116)" fill-opacity="1.0"><path d="M 489.50583184855407,408.3779171579723 c 0.0,-20.085969233109832 -16.282895268877013,-36.36886450198685 -36.36886450198684 -36.36886450198685c -20.085969233109832,-1.2299108964550085e-15 -36.36886450198685,16.282895268877013 -36.36886450198685 36.368864501986835c -2.459821792910017e-15,20.085969233109832 16.28289526887701,36.36886450198685 36.368864501986835 36.36886450198685c 20.085969233109832,3.689732689365026e-15 36.36886450198685,-16.282895268877006 36.36886450198686 -36.368864501986835Z" /></g></g></g><g fill="rgb(209,95,105)" fill-opacity="1.0" stroke-width="0.0"><g fill="rgb(209,95,105)" fill-opacity="1.0"><g fill="rgb(209,95,105)" fill-opacity="1.0"><path d="M 493.48846359695415,262.23016790402545 c 0.0,-21.68415635034699 -17.57848191187278,-39.262638262219774 -39.26263826221977 -39.262638262219774c -21.68415635034699,-1.3277716333331594e-15 -39.262638262219774,17.57848191187278 -39.262638262219774 39.26263826221976c -2.6555432666663187e-15,21.68415635034699 17.578481911872778,39.262638262219774 39.26263826221976 39.262638262219774c 21.68415635034699,3.983314899999478e-15 39.262638262219774,-17.578481911872775 39.262638262219774 -39.26263826221976Z" /></g></g></g><g fill="rgb(97,91,91)" fill-opacity="1.0" stroke-width="0.0"><g fill="rgb(97,91,91)" fill-opacity="1.0"><g fill="rgb(97,91,91)" fill-opacity="1.0"><path d="M 489.0700198205129,329.13165352918605 c 0.0,-1.3160778268412092 -1.066891877182708,-2.3829697040239175 -2.382969704023917 -2.3829697040239175c -1.3160778268412092,-8.058652490349457e-17 -2.3829697040239175,1.0668918771827078 -2.3829697040239175 2.3829697040239166c -1.6117304980698914e-16,1.3160778268412092 1.0668918771827078,2.3829697040239175 2.3829697040239166 2.3829697040239175c 1.3160778268412092,2.417595747104837e-16 2.3829697040239175,-1.0668918771827076 2.3829697040239184 -2.3829697040239166Z" /></g></g></g><g fill="rgb(241,237,226)" fill-opacity="1.0" stroke-width="0.0"><g fill="rgb(241,237,226)" fill-opacity="1.0"><g fill="rgb(241,237,226)" fill-opacity="1.0"><path d="M 552.6064160423741,368.4378133408243 c 0.0,-15.104078442237926 -12.244274824560486,-27.348353266798416 -27.34835326679841 -27.348353266798416c -15.104078442237926,-9.248580659178607e-16 -27.348353266798416,12.244274824560485 -27.348353266798416 27.348353266798405c -1.8497161318357214e-15,15.104078442237926 12.244274824560483,27.348353266798416 27.348353266798405 27.348353266798416c 15.104078442237926,2.7745741977535826e-15 27.348353266798416,-12.244274824560483 27.34835326679842 -27.348353266798405Z" /></g></g></g><g fill="rgb(185,161,185)" fill-opacity="1.0" stroke-width="0.0"><g fill="rgb(185,161,185)" fill-opacity="1.0"><g fill="rgb(185,161,185)" fill-opacity="1.0"><path d="M 415.7168328422903,371.27940487406295 c 0.0,-7.169920195674404 -5.81236873747302,-12.982288933147425 -12.982288933147421 -12.982288933147425c -7.169920195674404,-4.3903099088873117e-16 -12.982288933147425,5.812368737473019 -12.982288933147425 12.982288933147421c -8.780619817774623e-16,7.169920195674404 5.812368737473018,12.982288933147425 12.98228893314742 12.982288933147425c 7.169920195674404,1.3170929726661934e-15 12.982288933147425,-5.812368737473017 12.982288933147426 -12.982288933147421Z" /></g></g></g><g fill="rgb(240,162,188)" fill-opacity="1.0" stroke-width="0.0"><g fill="rgb(240,162,188)" fill-opacity="1.0"><g fill="rgb(240,162,188)" fill-opacity="1.0"><path d="M 418.15703713612265,335.69981271846723 c 0.0,-4.612628839742695 -3.739274487582369,-8.351903327325065 -8.351903327325063 -8.351903327325065c -4.612628839742695,-2.8244205721228304e-16 -8.351903327325065,3.7392744875823687 -8.351903327325065 8.351903327325061c -5.648841144245661e-16,4.612628839742695 3.7392744875823682,8.351903327325065 8.351903327325061 8.351903327325065c 4.612628839742695,8.473261716368491e-16 8.351903327325065,-3.739274487582368 8.351903327325068 -8.351903327325061Z" /></g></g></g><g fill="rgb(72,189,190)" fill-opacity="1.0" stroke-width="0.0"><g fill="rgb(72,189,190)" fill-opacity="1.0"><g fill="rgb(72,189,190)" fill-opacity="1.0"><path d="M 481.6804000950898,369.63504645654496 c 0.0,-1.6513968668298338 -1.338721667740931,-2.9901185345707653 -2.990118534570765 -2.9901185345707653c -1.6513968668298338,-1.0111889435425619e-16 -2.9901185345707653,1.338721667740931 -2.9901185345707653 2.9901185345707644c -2.0223778870851239e-16,1.6513968668298338 1.3387216677409308,2.9901185345707653 2.990118534570764 2.9901185345707653c 1.6513968668298338,3.0335668306276856e-16 2.9901185345707653,-1.3387216677409306 2.9901185345707666 -2.9901185345707644Z" /></g></g></g><g fill="rgb(241,237,226)" fill-opacity="1.0" stroke-width="0.0"><g fill="rgb(241,237,226)" fill-opacity="1.0"><g fill="rgb(241,237,226)" fill-opacity="1.0"><path d="M 477.74808164001007,312.00185093372534 c 0.0,-1.8827297862565409 -1.526254051941713,-3.408983838198254 -3.408983838198253 -3.408983838198254c -1.8827297862565409,-1.1528395031992266e-16 -3.408983838198254,1.5262540519417127 -3.408983838198254 3.4089838381982527c -2.3056790063984533e-16,1.8827297862565409 1.5262540519417125,3.408983838198254 3.4089838381982527 3.408983838198254c 1.8827297862565409,3.4585185095976797e-16 3.408983838198254,-1.5262540519417123 3.4089838381982545 -3.4089838381982527Z" /></g></g></g><g fill="rgb(72,189,190)" fill-opacity="1.0" stroke-width="0.0"><g fill="rgb(72,189,190)" fill-opacity="1.0"><g fill="rgb(72,189,190)" fill-opacity="1.0"><path d="M 472.6877945432546,488.17867533474316 c 0.0,-7.008206794334207 -5.681274123763476,-12.689480918097685 -12.689480918097681 -12.689480918097685c -7.008206794334207,-4.29128900922206e-16 -12.689480918097685,5.681274123763475 -12.689480918097685 12.689480918097681c -8.58257801844412e-16,7.008206794334207 5.681274123763475,12.689480918097685 12.68948091809768 12.689480918097685c 7.008206794334207,1.2873867027666178e-15 12.689480918097685,-5.681274123763474 12.689480918097686 -12.689480918097681Z" /></g></g></g><g fill="rgb(168,145,120)" fill-opacity="1.0" stroke-width="0.0"><g fill="rgb(168,145,120)" fill-opacity="1.0"><g fill="rgb(168,145,120)" fill-opacity="1.0"><path d="M 488.71505848700417,362.45085884353 c 0.0,-2.1190637747719974 -1.717840603669063,-3.836904378441061 -3.83690437844106 -3.836904378441061c -2.1190637747719974,-1.297552334481817e-16 -3.836904378441061,1.7178406036690628 -3.836904378441061 3.8369043784410595c -2.595104668963634e-16,2.1190637747719974 1.7178406036690625,3.836904378441061 3.836904378441059 3.836904378441061c 2.1190637747719974,3.8926570034454515e-16 3.836904378441061,-1.7178406036690623 3.8369043784410617 -3.8369043784410595Z" /></g></g></g><g fill="rgb(97,91,91)" fill-opacity="1.0" stroke-width="0.0"><g fill="rgb(97,91,91)" fill-opacity="1.0"><g fill="rgb(97,91,91)" fill-opacity="1.0"><path d="M 407.3280224169719,281.1787467455627 c 0.0,-8.219345760245014 -6.6630962459179655,-14.88244200616298 -14.882442006162977 -14.88244200616298c -8.219345760245014,-5.032897738184712e-16 -14.88244200616298,6.663096245917965 -14.88244200616298 14.882442006162975c -1.0065795476369425e-15,8.219345760245014 6.663096245917964,14.88244200616298 14.882442006162973 14.88244200616298c 8.219345760245014,1.5098693214554136e-15 14.88244200616298,-6.663096245917963 14.882442006162984 -14.882442006162975Z" /></g></g></g><g fill="rgb(191,49,49)" fill-opacity="1.0" stroke-width="0.0"><g fill="rgb(191,49,49)" fill-opacity="1.0"><g fill="rgb(191,49,49)" fill-opacity="1.0"><path d="M 480.853087190019,327.7947304908738 c 0.0,-0.19716913861956276 -0.15983716778301407,-0.35700630640257686 -0.3570063064025768 -0.35700630640257686c -0.19716913861956276,-1.2073127725054415e-17 -0.35700630640257686,0.15983716778301404 -0.35700630640257686 0.35700630640257675c -2.414625545010883e-17,0.19716913861956276 0.15983716778301402,0.35700630640257686 0.3570063064025767 0.35700630640257686c 0.19716913861956276,3.6219383175163246e-17 0.35700630640257686,-0.159837167783014 0.3570063064025769 -0.35700630640257675Z" /></g></g></g><g fill="rgb(241,237,226)" fill-opacity="1.0" stroke-width="0.0"><g fill="rgb(241,237,226)" fill-opacity="1.0"><g fill="rgb(241,237,226)" fill-opacity="1.0"><path d="M 415.5484557979008,316.34483008041906 c 0.0,-0.4320199926488236 -0.35022140145301234,-0.782241394101836 -0.7822413941018358 -0.782241394101836c -0.4320199926488236,-2.6453595058252244e-17 -0.782241394101836,0.3502214014530123 -0.782241394101836 0.7822413941018358c -5.290719011650449e-17,0.4320199926488236 0.3502214014530122,0.782241394101836 0.7822413941018357 0.782241394101836c 0.4320199926488236,7.936078517475673e-17 0.782241394101836,-0.35022140145301217 0.7822413941018361 -0.7822413941018358Z" /></g></g></g><g fill="rgb(209,95,105)" fill-opacity="1.0" stroke-width="0.0"><g fill="rgb(209,95,105)" fill-opacity="1.0"><g fill="rgb(209,95,105)" fill-opacity="1.0"><path d="M 421.867751606899,318.3647327175668 c 0.0,-0.6778303377206684 -0.549490058014211,-1.2273203957348795 -1.2273203957348793 -1.2273203957348795c -0.6778303377206684,-4.1505137672729294e-17 -1.2273203957348795,0.5494900580142109 -1.2273203957348795 1.227320395734879c -8.301027534545859e-17,0.6778303377206684 0.5494900580142109,1.2273203957348795 1.227320395734879 1.2273203957348795c 0.6778303377206684,1.2451541301818788e-16 1.2273203957348795,-0.5494900580142108 1.2273203957348795 -1.227320395734879Z" /></g></g></g><g fill="rgb(241,237,226)" fill-opacity="1.0" stroke-width="0.0"><g fill="rgb(241,237,226)" fill-opacity="1.0"><g fill="rgb(241,237,226)" fill-opacity="1.0"><path d="M 398.40726252846633,354.7053689098846 c 0.0,-1.4004761352963007 -1.1353102244128388,-2.5357863597091397 -2.5357863597091392 -2.5357863597091397c -1.4004761352963007,-8.57544308186435e-17 -2.5357863597091397,1.1353102244128386 -2.5357863597091397 2.535786359709139c -1.71508861637287e-16,1.4004761352963007 1.1353102244128386,2.5357863597091397 2.5357863597091383 2.5357863597091397c 1.4004761352963007,2.572632924559305e-16 2.5357863597091397,-1.1353102244128384 2.535786359709141 -2.535786359709139Z" /></g></g></g><g fill="rgb(191,49,49)" fill-opacity="1.0" stroke-width="0.0"><g fill="rgb(191,49,49)" fill-opacity="1.0"><g fill="rgb(191,49,49)" fill-opacity="1.0"><path d="M 594.1734943679219,388.86275203437395 c 0.0,-7.3952761361612245 -5.995055822899668,-13.390331959060894 -13.390331959060891 -13.390331959060894c -7.3952761361612245,-4.528300624480325e-16 -13.390331959060894,5.995055822899667 -13.390331959060894 13.39033195906089c -9.05660124896065e-16,7.3952761361612245 5.995055822899667,13.390331959060894 13.39033195906089 13.390331959060894c 7.3952761361612245,1.3584901873440973e-15 13.390331959060894,-5.995055822899666 13.390331959060896 -13.39033195906089Z" /></g></g></g><g fill="rgb(97,91,91)" fill-opacity="1.0" stroke-width="0.0"><g fill="rgb(97,91,91)" fill-opacity="1.0"><g fill="rgb(97,91,91)" fill-opacity="1.0"><path d="M 397.6905516273078,331.30707523808786 c 0.0,-9.43773167485474 -7.650793180749601,-17.088524855604344 -17.08852485560434 -17.088524855604344c -9.43773167485474,-5.778943943411224e-16 -17.088524855604344,7.6507931807496 -17.088524855604344 17.088524855604337c -1.1557887886822447e-15,9.43773167485474 7.6507931807495995,17.088524855604344 17.088524855604337 17.088524855604344c 9.43773167485474,1.733683183023367e-15 17.088524855604344,-7.650793180749599 17.088524855604344 -17.088524855604337Z" /></g></g></g><g fill="rgb(173,210,116)" fill-opacity="1.0" stroke-width="0.0"><g fill="rgb(173,210,116)" fill-opacity="1.0"><g fill="rgb(173,210,116)" fill-opacity="1.0"><path d="M 568.6835575556776,335.39769561367297 c 0.0,-6.538133122903293 -5.30020412053212,-11.838337243435415 -11.838337243435413 -11.838337243435415c -6.538133122903293,-4.003451900681403e-16 -11.838337243435415,5.30020412053212 -11.838337243435415 11.838337243435411c -8.006903801362806e-16,6.538133122903293 5.300204120532119,11.838337243435415 11.83833724343541 11.838337243435415c 6.538133122903293,1.201035570204421e-15 11.838337243435415,-5.300204120532118 11.83833724343542 -11.838337243435411Z" /></g></g></g><g fill="rgb(240,162,188)" fill-opacity="1.0" stroke-width="0.0"><g fill="rgb(240,162,188)" fill-opacity="1.0"><g fill="rgb(240,162,188)" fill-opacity="1.0"><path d="M 382.85608999426137,365.1813571691454 c 0.0,-6.485436749481048 -5.25748526940147,-11.742922018882519 -11.742922018882517 -11.742922018882519c -6.485436749481048,-3.97118467816229e-16 -11.742922018882519,5.257485269401469 -11.742922018882519 11.742922018882515c -7.94236935632458e-16,6.485436749481048 5.257485269401468,11.742922018882519 11.742922018882513 11.742922018882519c 6.485436749481048,1.191355403448687e-15 11.742922018882519,-5.257485269401467 11.74292201888252 -11.742922018882515Z" /></g></g></g><g fill="rgb(209,95,105)" fill-opacity="1.0" stroke-width="0.0"><g fill="rgb(209,95,105)" fill-opacity="1.0"><g fill="rgb(209,95,105)" fill-opacity="1.0"><path d="M 410.225846837101,420.5154348016854 c 0.0,-11.296273465496567 -9.157438988011279,-20.453712453507848 -20.453712453507844 -20.453712453507848c -11.296273465496567,-6.916972570906774e-16 -20.453712453507848,9.157438988011277 -20.453712453507848 20.45371245350784c -1.3833945141813548e-15,11.296273465496567 9.157438988011277,20.453712453507848 20.453712453507837 20.453712453507848c 11.296273465496567,2.0750917712720323e-15 20.453712453507848,-9.157438988011275 20.45371245350786 -20.45371245350784Z" /></g></g></g><g fill="rgb(97,91,91)" fill-opacity="1.0" stroke-width="0.0"><g fill="rgb(97,91,91)" fill-opacity="1.0"><g fill="rgb(97,91,91)" fill-opacity="1.0"><path d="M 525.1952672320306,251.92255804434853 c 0.0,-7.177916092122562 -5.818850692261217,-12.99676678438378 -12.996766784383777 -12.99676678438378c -7.177916092122562,-4.3952059833830866e-16 -12.99676678438378,5.818850692261216 -12.99676678438378 12.996766784383777c -8.790411966766173e-16,7.177916092122562 5.818850692261216,12.99676678438378 12.996766784383775 12.99676678438378c 7.177916092122562,1.318561795014926e-15 12.99676678438378,-5.818850692261215 12.996766784383782 -12.996766784383777Z" /></g></g></g><g fill="rgb(168,145,120)" fill-opacity="1.0" stroke-width="0.0"><g fill="rgb(168,145,120)" fill-opacity="1.0"><g fill="rgb(168,145,120)" fill-opacity="1.0"><path d="M 481.75759365116477,317.3819211229646 c 0.0,-1.4631567823162426 -1.1861229284932953,-2.6492797108095383 -2.649279710809538 -2.6492797108095383c -1.4631567823162426,-8.959251350571636e-17 -2.6492797108095383,1.1861229284932953 -2.6492797108095383 2.6492797108095374c -1.7918502701143272e-16,1.4631567823162426 1.186122928493295,2.6492797108095383 2.649279710809537 2.6492797108095383c 1.4631567823162426,2.6877754051714906e-16 2.6492797108095383,-1.1861229284932948 2.6492797108095396 -2.6492797108095374Z" /></g></g></g><g fill="rgb(168,145,120)" fill-opacity="1.0" stroke-width="0.0"><g fill="rgb(168,145,120)" fill-opacity="1.0"><g fill="rgb(168,145,120)" fill-opacity="1.0"><path d="M 549.193795622158,234.49737091788427 c 0.0,-5.378777437511352 -4.360360641458378,-9.73913807896973 -9.739138078969729 -9.73913807896973c -5.378777437511352,-3.29355128608714e-16 -9.73913807896973,4.360360641458377 -9.73913807896973 9.739138078969727c -6.58710257217428e-16,5.378777437511352 4.360360641458376,9.73913807896973 9.739138078969727 9.73913807896973c 5.378777437511352,9.88065385826142e-16 9.73913807896973,-4.360360641458376 9.739138078969734 -9.739138078969727Z" /></g></g></g><g fill="rgb(209,95,105)" fill-opacity="1.0" stroke-width="0.0"><g fill="rgb(209,95,105)" fill-opacity="1.0"><g fill="rgb(209,95,105)" fill-opacity="1.0"><path d="M 558.0654577709574,421.3365188674679 c 0.0,-7.071705851386996 -5.732750280261747,-12.804456131648745 -12.804456131648742 -12.804456131648745c -7.071705851386996,-4.3301709677063465e-16 -12.804456131648745,5.7327502802617465 -12.804456131648745 12.804456131648742c -8.660341935412693e-16,7.071705851386996 5.732750280261746,12.804456131648745 12.80445613164874 12.804456131648745c 7.071705851386996,1.299051290311904e-15 12.804456131648745,-5.732750280261746 12.804456131648747 -12.804456131648742Z" /></g></g></g><g fill="rgb(97,91,91)" fill-opacity="1.0" stroke-width="0.0"><g fill="rgb(97,91,91)" fill-opacity="1.0"><g fill="rgb(97,91,91)" fill-opacity="1.0"><path d="M 449.4289885651136,206.12558451316116 c 0.0,-5.126374143031734 -4.155747343397738,-9.282121486429473 -9.282121486429471 -9.282121486429473c -5.126374143031734,-3.1389988427477843e-16 -9.282121486429473,4.155747343397737 -9.282121486429473 9.28212148642947c -6.277997685495569e-16,5.126374143031734 4.155747343397737,9.282121486429473 9.28212148642947 9.282121486429473c 5.126374143031734,9.416996528243354e-16 9.282121486429473,-4.155747343397736 9.282121486429473 -9.28212148642947Z" /></g></g></g><g fill="rgb(72,189,190)" fill-opacity="1.0" stroke-width="0.0"><g fill="rgb(72,189,190)" fill-opacity="1.0"><g fill="rgb(72,189,190)" fill-opacity="1.0"><path d="M 544.0547052969935,446.5427172633332 c 0.0,-6.3370747168747785 -5.137214078563268,-11.474288795438047 -11.474288795438046 -11.474288795438047c -6.3370747168747785,-3.8803391339891583e-16 -11.474288795438047,5.137214078563267 -11.474288795438047 11.474288795438044c -7.760678267978317e-16,6.3370747168747785 5.137214078563266,11.474288795438047 11.474288795438042 11.474288795438047c 6.3370747168747785,1.1641017401967474e-15 11.474288795438047,-5.137214078563266 11.47428879543805 -11.474288795438044Z" /></g></g></g><g fill="rgb(235,86,92)" fill-opacity="1.0" stroke-width="0.0"><g fill="rgb(235,86,92)" fill-opacity="1.0"><g fill="rgb(235,86,92)" fill-opacity="1.0"><path d="M 595.9013137234837,351.93384451493137 c 0.0,-8.046727645340015 -6.523161615236771,-14.569889260576788 -14.569889260576785 -14.569889260576788c -8.046727645340015,-4.927199627238085e-16 -14.569889260576788,6.52316161523677 -14.569889260576788 14.569889260576783c -9.85439925447617e-16,8.046727645340015 6.523161615236769,14.569889260576788 14.569889260576781 14.569889260576788c 8.046727645340015,1.4781598881714253e-15 14.569889260576788,-6.523161615236768 14.569889260576792 -14.569889260576783Z" /></g></g></g><g fill="rgb(185,161,185)" fill-opacity="1.0" stroke-width="0.0"><g fill="rgb(185,161,185)" fill-opacity="1.0"><g fill="rgb(185,161,185)" fill-opacity="1.0"><path d="M 506.75944130631524,443.7000104570707 c 0.0,-6.070631520060907 -4.92121919086457,-10.991850710925478 -10.991850710925476 -10.991850710925478c -6.070631520060907,-3.7171897299228105e-16 -10.991850710925478,4.921219190864569 -10.991850710925478 10.991850710925474c -7.434379459845621e-16,6.070631520060907 4.921219190864568,10.991850710925478 10.991850710925473 10.991850710925478c 6.070631520060907,1.115156918976843e-15 10.991850710925478,-4.921219190864568 10.99185071092548 -10.991850710925474Z" /></g></g></g><g fill="rgb(240,162,188)" fill-opacity="1.0" stroke-width="0.0"><g fill="rgb(240,162,188)" fill-opacity="1.0"><g fill="rgb(240,162,188)" fill-opacity="1.0"><path d="M 562.4593371293746,277.887797208363 c 0.0,-0.7755573006064712 -0.6287134145347362,-1.4042707151412075 -1.4042707151412073 -1.4042707151412075c -0.7755573006064712,-4.748918828715383e-17 -1.4042707151412075,0.6287134145347361 -1.4042707151412075 1.404270715141207c -9.497837657430766e-17,0.7755573006064712 0.628713414534736,1.4042707151412075 1.4042707151412068 1.4042707151412075c 0.7755573006064712,1.4246756486146148e-16 1.4042707151412075,-0.628713414534736 1.4042707151412082 -1.404270715141207Z" /></g></g></g><g fill="rgb(168,145,120)" fill-opacity="1.0" stroke-width="0.0"><g fill="rgb(168,145,120)" fill-opacity="1.0"><g fill="rgb(168,145,120)" fill-opacity="1.0"><path d="M 530.4688884788161,419.31474637681015 c 0.0,-1.4190199584342658 -1.1503429632633162,-2.569362921697582 -2.5693629216975817 -2.569362921697582c -1.4190199584342658,-8.688991250113668e-17 -2.569362921697582,1.150342963263316 -2.569362921697582 2.5693629216975813c -1.7377982500227337e-16,1.4190199584342658 1.150342963263316,2.569362921697582 2.569362921697581 2.569362921697582c 1.4190199584342658,2.6066973750341005e-16 2.569362921697582,-1.1503429632633158 2.5693629216975835 -2.5693629216975813Z" /></g></g></g><g fill="rgb(240,162,188)" fill-opacity="1.0" stroke-width="0.0"><g fill="rgb(240,162,188)" fill-opacity="1.0"><g fill="rgb(240,162,188)" fill-opacity="1.0"><path d="M 583.7881129139657,292.4663827387897 c 0.0,-7.263712938126947 -5.888402778181298,-13.152115716308247 -13.152115716308243 -13.152115716308247c -7.263712938126947,-4.447741399801191e-16 -13.152115716308247,5.888402778181297 -13.152115716308247 13.152115716308243c -8.895482799602382e-16,7.263712938126947 5.888402778181297,13.152115716308247 13.152115716308241 13.152115716308247c 7.263712938126947,1.3343224199403573e-15 13.152115716308247,-5.888402778181296 13.152115716308248 -13.152115716308243Z" /></g></g></g><g fill="rgb(72,189,190)" fill-opacity="1.0" stroke-width="0.0"><g fill="rgb(72,189,190)" fill-opacity="1.0"><g fill="rgb(72,189,190)" fill-opacity="1.0"><path d="M 609.3822854135785,261.3838777378208 c 0.0,-9.246584759957063 -7.495837989883467,-16.742422749840532 -16.74242274984053 -16.742422749840532c -9.246584759957063,-5.661900214663057e-16 -16.742422749840532,7.495837989883466 -16.742422749840532 16.742422749840525c -1.1323800429326114e-15,9.246584759957063 7.495837989883465,16.742422749840532 16.742422749840525 16.742422749840532c 9.246584759957063,1.6985700643989173e-15 16.742422749840532,-7.495837989883464 16.742422749840532 -16.742422749840525Z" /></g></g></g><g fill="rgb(235,86,92)" fill-opacity="1.0" stroke-width="0.0"><g fill="rgb(235,86,92)" fill-opacity="1.0"><g fill="rgb(235,86,92)" fill-opacity="1.0"><path d="M 616.1341391179003,339.4371049995384 c 0.0,-4.843058844826541 -3.926074915086865,-8.769133759913407 -8.769133759913405 -8.769133759913407c -4.843058844826541,-2.9655182561995506e-16 -8.769133759913407,3.9260749150868643 -8.769133759913407 8.769133759913403c -5.931036512399101e-16,4.843058844826541 3.926074915086864,8.769133759913407 8.769133759913403 8.769133759913407c 4.843058844826541,8.896554768598652e-16 8.769133759913407,-3.9260749150868635 8.769133759913407 -8.769133759913403Z" /></g></g></g><g fill="rgb(245,180,86)" fill-opacity="1.0" stroke-width="0.0"><g fill="rgb(245,180,86)" fill-opacity="1.0"><g fill="rgb(245,180,86)" fill-opacity="1.0"><path d="M 395.93518591867434,197.7322463293102 c 0.0,-2.254160485726807 -1.8273581265785777,-4.081518612305385 -4.081518612305384 -4.081518612305385c -2.254160485726807,-1.3802752118048885e-16 -4.081518612305385,1.8273581265785774 -4.081518612305385 4.081518612305383c -2.760550423609777e-16,2.254160485726807 1.8273581265785772,4.081518612305385 4.081518612305383 4.081518612305385c 2.254160485726807,4.1408256354146654e-16 4.081518612305385,-1.827358126578577 4.081518612305385 -4.081518612305383Z" /></g></g></g><g fill="rgb(173,210,116)" fill-opacity="1.0" stroke-width="0.0"><g fill="rgb(173,210,116)" fill-opacity="1.0"><g fill="rgb(173,210,116)" fill-opacity="1.0"><path d="M 487.26295627201006,308.4434845164189 c 0.0,-2.4664590009885767 -1.999460077429285,-4.465919078417862 -4.465919078417861 -4.465919078417862c -2.4664590009885767,-1.5102705603944193e-16 -4.465919078417862,1.9994600774292848 -4.465919078417862 4.46591907841786c -3.0205411207888386e-16,2.4664590009885767 1.9994600774292843,4.465919078417862 4.46591907841786 4.465919078417862c 2.4664590009885767,4.530811681183258e-16 4.465919078417862,-1.999460077429284 4.465919078417864 -4.46591907841786Z" /></g></g></g><g fill="rgb(97,91,91)" fill-opacity="1.0" stroke-width="0.0"><g fill="rgb(97,91,91)" fill-opacity="1.0"><g fill="rgb(97,91,91)" fill-opacity="1.0"><path d="M 510.49028090115905,406.51416046271345 c 0.0,-3.2836648448762293 -2.661936307214723,-5.945601152090953 -5.945601152090952 -5.945601152090953c -3.2836648448762293,-2.0106648208751821e-16 -5.945601152090953,2.661936307214723 -5.945601152090953 5.945601152090951c -4.0213296417503643e-16,3.2836648448762293 2.6619363072147224,5.945601152090953 5.94560115209095 5.945601152090953c 3.2836648448762293,6.031994462625546e-16 5.945601152090953,-2.661936307214722 5.945601152090956 -5.945601152090951Z" /></g></g></g><g fill="rgb(191,49,49)" fill-opacity="1.0" stroke-width="0.0"><g fill="rgb(191,49,49)" fill-opacity="1.0"><g fill="rgb(191,49,49)" fill-opacity="1.0"><path d="M 477.75730948104604,354.53309362311006 c 0.0,-2.492437232297058 -2.020519594884354,-4.512956827181412 -4.512956827181411 -4.512956827181412c -2.492437232297058,-1.5261776393041398e-16 -4.512956827181412,2.020519594884354 -4.512956827181412 4.5129568271814104c -3.0523552786082796e-16,2.492437232297058 2.0205195948843535,4.512956827181412 4.5129568271814104 4.512956827181412c 2.492437232297058,4.578532917912419e-16 4.512956827181412,-2.0205195948843535 4.512956827181414 -4.5129568271814104Z" /></g></g></g><g fill="rgb(241,237,226)" fill-opacity="1.0" stroke-width="0.0"><g fill="rgb(241,237,226)" fill-opacity="1.0"><g fill="rgb(241,237,226)" fill-opacity="1.0"><path d="M 499.8431226414181,466.2410639278027 c 0.0,-3.968851734559217 -3.217390028906415,-7.186241763465633 -7.186241763465631 -7.186241763465633c -3.968851734559217,-2.430220786509183e-16 -7.186241763465633,3.2173900289064146 -7.186241763465633 7.18624176346563c -4.860441573018366e-16,3.968851734559217 3.217390028906414,7.186241763465633 7.186241763465629 7.186241763465633c 3.968851734559217,7.290662359527549e-16 7.186241763465633,-3.2173900289064137 7.186241763465635 -7.18624176346563Z" /></g></g></g><g fill="rgb(240,162,188)" fill-opacity="1.0" stroke-width="0.0"><g fill="rgb(240,162,188)" fill-opacity="1.0"><g fill="rgb(240,162,188)" fill-opacity="1.0"><path d="M 354.63064970170336,318.9198354132573 c 0.0,-5.407370900092999 -4.3835402227465945,-9.790911122839594 -9.790911122839592 -9.790911122839594c -5.407370900092999,-3.311059732300716e-16 -9.790911122839594,4.3835402227465945 -9.790911122839594 9.79091112283959c -6.622119464601432e-16,5.407370900092999 4.383540222746594,9.790911122839594 9.79091112283959 9.790911122839594c 5.407370900092999,9.933179196902148e-16 9.790911122839594,-4.383540222746593 9.790911122839594 -9.79091112283959Z" /></g></g></g><g fill="rgb(209,95,105)" fill-opacity="1.0" stroke-width="0.0"><g fill="rgb(209,95,105)" fill-opacity="1.0"><g fill="rgb(209,95,105)" fill-opacity="1.0"><path d="M 390.4143066216782,305.13504772293186 c 0.0,-3.0205229327518164 -2.448617639529476,-5.469140572281293 -5.469140572281292 -5.469140572281293c -3.0205229327518164,-1.8495368706728438e-16 -5.469140572281293,2.4486176395294756 -5.469140572281293 5.469140572281291c -3.6990737413456876e-16,3.0205229327518164 2.448617639529475,5.469140572281293 5.46914057228129 5.469140572281293c 3.0205229327518164,5.548610612018532e-16 5.469140572281293,-2.448617639529475 5.469140572281294 -5.469140572281291Z" /></g></g></g><g fill="rgb(173,210,116)" fill-opacity="1.0" stroke-width="0.0"><g fill="rgb(173,210,116)" fill-opacity="1.0"><g fill="rgb(173,210,116)" fill-opacity="1.0"><path d="M 420.54405418475585,301.9846227422642 c 0.0,-4.274224708687931 -3.464943736570513,-7.739168445258445 -7.739168445258443 -7.739168445258445c -4.274224708687931,-2.617207804165601e-16 -7.739168445258445,3.4649437365705125 -7.739168445258445 7.739168445258442c -5.234415608331202e-16,4.274224708687931 3.464943736570512,7.739168445258445 7.739168445258441 7.739168445258445c 4.274224708687931,7.851623412496804e-16 7.739168445258445,-3.4649437365705116 7.739168445258446 -7.739168445258442Z" /></g></g></g><g fill="rgb(168,145,120)" fill-opacity="1.0" stroke-width="0.0"><g fill="rgb(168,145,120)" fill-opacity="1.0"><g fill="rgb(168,145,120)" fill-opacity="1.0"><path d="M 330.59804886465986,379.5929212953759 c 0.0,-2.444510328828786 -1.9816671630858904,-4.426177491914677 -4.426177491914676 -4.426177491914677c -2.444510328828786,-1.4968308748414085e-16 -4.426177491914677,1.98166716308589 -4.426177491914677 4.426177491914675c -2.993661749682817e-16,2.444510328828786 1.9816671630858897,4.426177491914677 4.426177491914675 4.426177491914677c 2.444510328828786,4.490492624524225e-16 4.426177491914677,-1.9816671630858895 4.426177491914679 -4.426177491914675Z" /></g></g></g><g fill="rgb(241,237,226)" fill-opacity="1.0" stroke-width="0.0"><g fill="rgb(241,237,226)" fill-opacity="1.0"><g fill="rgb(241,237,226)" fill-opacity="1.0"><path d="M 640.3122764773093,200.34800952651403 c 0.0,-3.292968002558108 -2.6694780066192094,-5.962446009177318 -5.9624460091773175 -5.962446009177318c -3.292968002558108,-2.0163613620137201e-16 -5.962446009177318,2.6694780066192094 -5.962446009177318 5.962446009177317c -4.0327227240274403e-16,3.292968002558108 2.669478006619209,5.962446009177318 5.962446009177316 5.962446009177318c 3.292968002558108,6.04908408604116e-16 5.962446009177318,-2.6694780066192085 5.962446009177321 -5.962446009177317Z" /></g></g></g><g fill="rgb(72,189,190)" fill-opacity="1.0" stroke-width="0.0"><g fill="rgb(72,189,190)" fill-opacity="1.0"><g fill="rgb(72,189,190)" fill-opacity="1.0"><path d="M 360.3244794681253,292.7125551044936 c 0.0,-4.190871471115559 -3.3973725866816897,-7.588244057797249 -7.588244057797247 -7.588244057797249c -4.190871471115559,-2.5661686663698143e-16 -7.588244057797249,3.3973725866816893 -7.588244057797249 7.5882440577972465c -5.132337332739629e-16,4.190871471115559 3.397372586681689,7.588244057797249 7.588244057797246 7.588244057797249c 4.190871471115559,7.698505999109442e-16 7.588244057797249,-3.3973725866816884 7.588244057797251 -7.5882440577972465Z" /></g></g></g><g fill="rgb(185,161,185)" fill-opacity="1.0" stroke-width="0.0"><g fill="rgb(185,161,185)" fill-opacity="1.0"><g fill="rgb(185,161,185)" fill-opacity="1.0"><path d="M 559.9505143293379,473.61864977114885 c 0.0,-3.328279610652277 -2.69810372090265,-6.026383331554928 -6.026383331554926 -6.026383331554928c -3.328279610652277,-2.0379834859263547e-16 -6.026383331554928,2.6981037209026497 -6.026383331554928 6.026383331554926c -4.0759669718527094e-16,3.328279610652277 2.6981037209026493,6.026383331554928 6.026383331554925 6.026383331554928c 3.328279610652277,6.113950457779064e-16 6.026383331554928,-2.6981037209026493 6.0263833315549284 -6.026383331554926Z" /></g></g></g><g fill="rgb(191,49,49)" fill-opacity="1.0" stroke-width="0.0"><g fill="rgb(191,49,49)" fill-opacity="1.0"><g fill="rgb(191,49,49)" fill-opacity="1.0"><path d="M 341.9739024253007,466.9073834276144 c 0.0,-2.7020559012655383 -2.1904491010786002,-4.892505002344139 -4.892505002344138 -4.892505002344139c -2.7020559012655383,-1.6545320553010291e-16 -4.892505002344139,2.1904491010786 -4.892505002344139 4.892505002344137c -3.3090641106020583e-16,2.7020559012655383 2.1904491010785994,4.892505002344139 4.892505002344137 4.892505002344139c 2.7020559012655383,4.963596165903087e-16 4.892505002344139,-2.1904491010785994 4.892505002344141 -4.892505002344137Z" /></g></g></g><g fill="rgb(72,189,190)" fill-opacity="1.0" stroke-width="0.0"><g fill="rgb(72,189,190)" fill-opacity="1.0"><g fill="rgb(72,189,190)" fill-opacity="1.0"><path d="M 599.9115145536416,322.90019747407746 c 0.0,-3.402107062617147 -2.7579526957945584,-6.160059758411706 -6.1600597584117045 -6.160059758411706c -3.402107062617147,-2.0831897622953464e-16 -6.160059758411706,2.757952695794558 -6.160059758411706 6.1600597584117045c -4.166379524590693e-16,3.402107062617147 2.757952695794558,6.160059758411706 6.160059758411704 6.160059758411706c 3.402107062617147,6.24956928688604e-16 6.160059758411706,-2.7579526957945575 6.160059758411707 -6.1600597584117045Z" /></g></g></g><g fill="rgb(173,210,116)" fill-opacity="1.0" stroke-width="0.0"><g fill="rgb(173,210,116)" fill-opacity="1.0"><g fill="rgb(173,210,116)" fill-opacity="1.0"><path d="M 533.0155312837909,221.84616682457073 c 0.0,-3.48477121058226 -2.824965228183989,-6.30973643876625 -6.309736438766248 -6.30973643876625c -3.48477121058226,-2.1338069544002057e-16 -6.30973643876625,2.8249652281839888 -6.30973643876625 6.309736438766248c -4.2676139088004115e-16,3.48477121058226 2.8249652281839888,6.30973643876625 6.309736438766247 6.30973643876625c 3.48477121058226,6.401420863200618e-16 6.30973643876625,-2.8249652281839883 6.309736438766251 -6.309736438766248Z" /></g></g></g><g fill="rgb(168,145,120)" fill-opacity="1.0" stroke-width="0.0"><g fill="rgb(168,145,120)" fill-opacity="1.0"><g fill="rgb(168,145,120)" fill-opacity="1.0"><path d="M 606.4548705214022,381.6715142988718 c 0.0,-2.6013459909274843 -2.108807587864023,-4.710153578791508 -4.710153578791507 -4.710153578791508c -2.6013459909274843,-1.5928650206320718e-16 -4.710153578791508,2.108807587864023 -4.710153578791508 4.710153578791506c -3.1857300412641437e-16,2.6013459909274843 2.1088075878640224,4.710153578791508 4.710153578791506 4.710153578791508c 2.6013459909274843,4.778595061896215e-16 4.710153578791508,-2.1088075878640224 4.710153578791508 -4.710153578791506Z" /></g></g></g><g fill="rgb(173,210,116)" fill-opacity="1.0" stroke-width="0.0"><g fill="rgb(173,210,116)" fill-opacity="1.0"><g fill="rgb(173,210,116)" fill-opacity="1.0"><path d="M 566.1534131704701,453.9538339749006 c 0.0,-4.114718879703354 -3.335638713845993,-7.450357593549347 -7.450357593549345 -7.450357593549347c -4.114718879703354,-2.5195386527099475e-16 -7.450357593549347,3.3356387138459924 -7.450357593549347 7.450357593549344c -5.039077305419895e-16,4.114718879703354 3.335638713845992,7.450357593549347 7.450357593549343 7.450357593549347c 4.114718879703354,7.558615958129842e-16 7.450357593549347,-3.3356387138459915 7.450357593549349 -7.450357593549344Z" /></g></g></g><g fill="rgb(97,91,91)" fill-opacity="1.0" stroke-width="0.0"><g fill="rgb(97,91,91)" fill-opacity="1.0"><g fill="rgb(97,91,91)" fill-opacity="1.0"><path d="M 614.3110617348378,355.31860024562684 c 0.0,-2.5388947856510775 -2.058180883066794,-4.597075668717872 -4.5970756687178715 -4.597075668717872c -2.5388947856510775,-1.5546246863097488e-16 -4.597075668717872,2.058180883066794 -4.597075668717872 4.597075668717871c -3.1092493726194976e-16,2.5388947856510775 2.0581808830667936,4.597075668717872 4.597075668717871 4.597075668717872c 2.5388947856510775,4.663874058929246e-16 4.597075668717872,-2.0581808830667936 4.597075668717874 -4.597075668717871Z" /></g></g></g><g fill="rgb(235,86,92)" fill-opacity="1.0" stroke-width="0.0"><g fill="rgb(235,86,92)" fill-opacity="1.0"><g fill="rgb(235,86,92)" fill-opacity="1.0"><path d="M 354.39732064619636,245.90286916023115 c 0.0,-2.4724097545699446 -2.004284116349776,-4.476693870919721 -4.47669387091972 -4.476693870919721c -2.4724097545699446,-1.5139143460573878e-16 -4.476693870919721,2.0042841163497758 -4.476693870919721 4.4766938709197195c -3.0278286921147755e-16,2.4724097545699446 2.0042841163497758,4.476693870919721 4.4766938709197195 4.476693870919721c 2.4724097545699446,4.541743038172163e-16 4.476693870919721,-2.0042841163497753 4.476693870919723 -4.4766938709197195Z" /></g></g></g><g fill="rgb(241,237,226)" fill-opacity="1.0" stroke-width="0.0"><g fill="rgb(241,237,226)" fill-opacity="1.0"><g fill="rgb(241,237,226)" fill-opacity="1.0"><path d="M 475.70576450245017,461.9259321941372 c 0.0,-1.3057422912808947 -1.058513270149947,-2.364255561430842 -2.3642555614308414 -2.364255561430842c -1.3057422912808947,-7.995365587642392e-17 -2.364255561430842,1.058513270149947 -2.364255561430842 2.364255561430841c -1.5990731175284783e-16,1.3057422912808947 1.0585132701499467,2.364255561430842 2.364255561430841 2.364255561430842c 1.3057422912808947,2.3986096762927176e-16 2.364255561430842,-1.0585132701499467 2.364255561430842 -2.364255561430841Z" /></g></g></g><g fill="rgb(240,162,188)" fill-opacity="1.0" stroke-width="0.0"><g fill="rgb(240,162,188)" fill-opacity="1.0"><g fill="rgb(240,162,188)" fill-opacity="1.0"><path d="M 467.2535353328103,157.28465266175797 c 0.0,-1.8647858152448191 -1.5117075893189384,-3.376493404563758 -3.376493404563757 -3.376493404563758c -1.8647858152448191,-1.1418519898674777e-16 -3.376493404563758,1.5117075893189382 -3.376493404563758 3.3764934045637567c -2.2837039797349554e-16,1.8647858152448191 1.511707589318938,3.376493404563758 3.3764934045637567 3.376493404563758c 1.8647858152448191,3.425555969602433e-16 3.376493404563758,-1.511707589318938 3.3764934045637585 -3.3764934045637567Z" /></g></g></g><g fill="rgb(185,161,185)" fill-opacity="1.0" stroke-width="0.0"><g fill="rgb(185,161,185)" fill-opacity="1.0"><g fill="rgb(185,161,185)" fill-opacity="1.0"><path d="M 300.1682496975215,347.778985295873 c 0.0,-2.010602562877656 -1.6299154190033487,-3.640517981881005 -3.640517981881004 -3.640517981881005c -2.010602562877656,-1.231138996492793e-16 -3.640517981881005,1.6299154190033485 -3.640517981881005 3.6405179818810036c -2.462277992985586e-16,2.010602562877656 1.6299154190033482,3.640517981881005 3.640517981881003 3.640517981881005c 2.010602562877656,3.6934169894783793e-16 3.640517981881005,-1.629915419003348 3.640517981881006 -3.6405179818810036Z" /></g></g></g><g fill="rgb(191,49,49)" fill-opacity="1.0" stroke-width="0.0"><g fill="rgb(191,49,49)" fill-opacity="1.0"><g fill="rgb(191,49,49)" fill-opacity="1.0"><path d="M 436.6768519159208,466.5350015020935 c 0.0,-0.5994282495490174 -0.48593260774908376,-1.0853608572981013 -1.085360857298101 -1.0853608572981013c -0.5994282495490174,-3.670439435643525e-17 -1.0853608572981013,0.4859326077490837 -1.0853608572981013 1.0853608572981008c -7.34087887128705e-17,0.5994282495490174 0.48593260774908364,1.0853608572981013 1.0853608572981008 1.0853608572981013c 0.5994282495490174,1.1011318306930575e-16 1.0853608572981013,-0.4859326077490836 1.0853608572981013 -1.0853608572981008Z" /></g></g></g><g fill="rgb(245,180,86)" fill-opacity="1.0" stroke-width="0.0"><g fill="rgb(245,180,86)" fill-opacity="1.0"><g fill="rgb(245,180,86)" fill-opacity="1.0"><path d="M 238.42154575538564,258.174103918304 c 0.0,-1.8754073256832748 -1.5203180247955381,-3.395725350478813 -3.3957253504788123 -3.395725350478813c -1.8754073256832748,-1.14835578924776e-16 -3.395725350478813,1.520318024795538 -3.395725350478813 3.395725350478812c -2.29671157849552e-16,1.8754073256832748 1.5203180247955377,3.395725350478813 3.395725350478812 3.395725350478813c 1.8754073256832748,3.4450673677432803e-16 3.395725350478813,-1.5203180247955375 3.3957253504788136 -3.395725350478812Z" /></g></g></g><g fill="rgb(209,95,105)" fill-opacity="1.0" stroke-width="0.0"><g fill="rgb(209,95,105)" fill-opacity="1.0"><g fill="rgb(209,95,105)" fill-opacity="1.0"><path d="M 324.3824943032957,339.6107781867884 c 0.0,-1.4659468424130866 -1.1883847190906789,-2.6543315615037657 -2.6543315615037653 -2.6543315615037657c -1.4659468424130866,-8.976335541406779e-17 -2.6543315615037657,1.1883847190906787 -2.6543315615037657 2.654331561503765c -1.7952671082813558e-16,1.4659468424130866 1.1883847190906784,2.6543315615037657 2.6543315615037644 2.6543315615037657c 1.4659468424130866,2.6929006624220336e-16 2.6543315615037657,-1.1883847190906784 2.654331561503766 -2.654331561503765Z" /></g></g></g><g fill="rgb(191,49,49)" fill-opacity="1.0" stroke-width="0.0"><g fill="rgb(191,49,49)" fill-opacity="1.0"><g fill="rgb(191,49,49)" fill-opacity="1.0"><path d="M 658.6464202774624,518.6296243831339 c 0.0,-1.4953431874741459 -1.212215165227576,-2.707558352701722 -2.7075583527017217 -2.707558352701722c -1.4953431874741459,-9.156336240835066e-17 -2.707558352701722,1.2122151652275759 -2.707558352701722 2.7075583527017213c -1.8312672481670132e-16,1.4953431874741459 1.2122151652275757,2.707558352701722 2.707558352701721 2.707558352701722c 1.4953431874741459,2.7469008722505196e-16 2.707558352701722,-1.2122151652275757 2.7075583527017226 -2.7075583527017213Z" /></g></g></g><g fill="rgb(173,210,116)" fill-opacity="1.0" stroke-width="0.0"><g fill="rgb(173,210,116)" fill-opacity="1.0"><g fill="rgb(173,210,116)" fill-opacity="1.0"><path d="M 673.1038801303878,176.36919957172455 c 0.0,-1.6440507981789088 -1.3327665024664659,-2.976817300645375 -2.9768173006453744 -2.976817300645375c -1.6440507981789088,-1.0066907738127259e-16 -2.976817300645375,1.3327665024664657 -2.976817300645375 2.976817300645374c -2.0133815476254517e-16,1.6440507981789088 1.3327665024664654,2.976817300645375 2.9768173006453735 2.976817300645375c 1.6440507981789088,3.0200723214381777e-16 2.976817300645375,-1.3327665024664652 2.976817300645376 -2.976817300645374Z" /></g></g></g><g fill="rgb(173,210,116)" fill-opacity="1.0" stroke-width="0.0"><g fill="rgb(173,210,116)" fill-opacity="1.0"><g fill="rgb(173,210,116)" fill-opacity="1.0"><path d="M 634.0050552214659,315.7456442847761 c 0.0,-0.9541863343506815 -0.773520857714681,-1.7277071920653626 -1.7277071920653622 -1.7277071920653626c -0.9541863343506815,-5.84270620076354e-17 -1.7277071920653626,0.7735208577146809 -1.7277071920653626 1.727707192065362c -1.168541240152708e-16,0.9541863343506815 0.7735208577146808,1.7277071920653626 1.727707192065362 1.7277071920653626c 0.9541863343506815,1.7528118602290622e-16 1.7277071920653626,-0.7735208577146807 1.7277071920653628 -1.727707192065362Z" /></g></g></g><g fill="rgb(241,237,226)" fill-opacity="1.0" stroke-width="0.0"><g fill="rgb(241,237,226)" fill-opacity="1.0"><g fill="rgb(241,237,226)" fill-opacity="1.0"><path d="M 618.9798865331609,283.7270256372493 c 0.0,-2.1676437666943076 -1.7572224682658653,-3.9248662349601733 -3.9248662349601724 -3.9248662349601733c -2.1676437666943076,-1.3272990002869477e-16 -3.9248662349601733,1.757222468265865 -3.9248662349601733 3.924866234960172c -2.6545980005738955e-16,2.1676437666943076 1.7572224682658648,3.9248662349601733 3.9248662349601715 3.9248662349601733c 2.1676437666943076,3.9818970008608437e-16 3.9248662349601733,-1.7572224682658646 3.924866234960174 -3.924866234960172Z" /></g></g></g><g fill="rgb(241,237,226)" fill-opacity="1.0" stroke-width="0.0"><g fill="rgb(241,237,226)" fill-opacity="1.0"><g fill="rgb(241,237,226)" fill-opacity="1.0"><path d="M 518.6455463813276,208.32535509259748 c 0.0,-1.7569587400401927 -1.4242964740110402,-3.1812552140512333 -3.1812552140512325 -3.1812552140512333c -1.7569587400401927,-1.0758269486120942e-16 -3.1812552140512333,1.4242964740110402 -3.1812552140512333 3.1812552140512325c -2.1516538972241885e-16,1.7569587400401927 1.42429647401104,3.1812552140512333 3.181255214051232 3.1812552140512333c 1.7569587400401927,3.227480845836283e-16 3.1812552140512333,-1.4242964740110398 3.181255214051234 -3.1812552140512325Z" /></g></g></g><g fill="rgb(240,162,188)" fill-opacity="1.0" stroke-width="0.0"><g fill="rgb(240,162,188)" fill-opacity="1.0"><g fill="rgb(240,162,188)" fill-opacity="1.0"><path d="M 603.2512181174607,239.3954063742295 c 0.0,-1.7826798913286361 -1.4451475869329047,-3.227827478261541 -3.22782747826154 -3.227827478261541c -1.7826798913286361,-1.0915766114099828e-16 -3.227827478261541,1.4451475869329045 -3.227827478261541 3.22782747826154c -2.1831532228199656e-16,1.7826798913286361 1.4451475869329042,3.227827478261541 3.2278274782615397 3.227827478261541c 1.7826798913286361,3.2747298342299485e-16 3.227827478261541,-1.445147586932904 3.2278274782615415 -3.22782747826154Z" /></g></g></g><g fill="rgb(209,95,105)" fill-opacity="1.0" stroke-width="0.0"><g fill="rgb(209,95,105)" fill-opacity="1.0"><g fill="rgb(209,95,105)" fill-opacity="1.0"><path d="M 386.7749105026705,222.94069947314074 c 0.0,-2.0634002127302087 -1.6727163709023898,-3.7361165836325987 -3.736116583632598 -3.7361165836325987c -2.0634002127302087,-1.2634682329400088e-16 -3.7361165836325987,1.6727163709023896 -3.7361165836325987 3.7361165836325974c -2.5269364658800176e-16,2.0634002127302087 1.6727163709023893,3.7361165836325987 3.736116583632597 3.7361165836325987c 2.0634002127302087,3.7904046988200264e-16 3.7361165836325987,-1.6727163709023891 3.7361165836325996 -3.7361165836325974Z" /></g></g></g><g fill="rgb(168,145,120)" fill-opacity="1.0" stroke-width="0.0"><g fill="rgb(168,145,120)" fill-opacity="1.0"><g fill="rgb(168,145,120)" fill-opacity="1.0"><path d="M 416.7856550414962,131.49252164058683 c 0.0,-1.1898809589888397 -0.9645891026114309,-2.154470061600271 -2.1544700616002705 -2.154470061600271c -1.1898809589888397,-7.285919538960329e-17 -2.154470061600271,0.9645891026114308 -2.154470061600271 2.15447006160027c -1.4571839077920658e-16,1.1898809589888397 0.9645891026114307,2.154470061600271 2.15447006160027 2.154470061600271c 1.1898809589888397,2.1857758616880985e-16 2.154470061600271,-0.9645891026114306 2.154470061600271 -2.15447006160027Z" /></g></g></g><g fill="rgb(209,95,105)" fill-opacity="1.0" stroke-width="0.0"><g fill="rgb(209,95,105)" fill-opacity="1.0"><g fill="rgb(209,95,105)" fill-opacity="1.0"><path d="M 569.8958475102413,252.9447000821421 c 0.0,-1.5999855202820599 -1.2970445367170809,-2.897030056999141 -2.8970300569991405 -2.897030056999141c -1.5999855202820599,-9.797085730477686e-17 -2.897030056999141,1.2970445367170806 -2.897030056999141 2.89703005699914c -1.959417146095537e-16,1.5999855202820599 1.2970445367170804,2.897030056999141 2.8970300569991396 2.897030056999141c 1.5999855202820599,2.939125719143306e-16 2.897030056999141,-1.2970445367170802 2.8970300569991414 -2.89703005699914Z" /></g></g></g><g fill="rgb(245,180,86)" fill-opacity="1.0" stroke-width="0.0"><g fill="rgb(245,180,86)" fill-opacity="1.0"><g fill="rgb(245,180,86)" fill-opacity="1.0"><path d="M 511.6374875623527,38.10639398637301 c 0.0,-1.2837852625003465 -1.0407135814269335,-2.3244988439272802 -2.32449884392728 -2.3244988439272802c -1.2837852625003465,-7.86091756256797e-17 -2.3244988439272802,1.0407135814269333 -2.3244988439272802 2.3244988439272793c -1.572183512513594e-16,1.2837852625003465 1.0407135814269333,2.3244988439272802 2.3244988439272793 2.3244988439272802c 1.2837852625003465,2.358275268770391e-16 2.3244988439272802,-1.040713581426933 2.324498843927281 -2.3244988439272793Z" /></g></g></g><g fill="rgb(241,237,226)" fill-opacity="1.0" stroke-width="0.0"><g fill="rgb(241,237,226)" fill-opacity="1.0"><g fill="rgb(241,237,226)" fill-opacity="1.0"><path d="M 521.938254540579,201.91319343544944 c 0.0,-0.7160183221054872 -0.5804475359955333,-1.2964658581010207 -1.2964658581010204 -1.2964658581010207c -0.7160183221054872,-4.384347731486717e-17 -1.2964658581010207,0.5804475359955333 -1.2964658581010207 1.2964658581010202c -8.768695462973434e-17,0.7160183221054872 0.5804475359955332,1.2964658581010207 1.29646585810102 1.2964658581010207c 0.7160183221054872,1.315304319446015e-16 1.2964658581010207,-0.5804475359955331 1.2964658581010209 -1.2964658581010202Z" /></g></g></g><g fill="rgb(245,180,86)" fill-opacity="1.0" stroke-width="0.0"><g fill="rgb(245,180,86)" fill-opacity="1.0"><g fill="rgb(245,180,86)" fill-opacity="1.0"><path d="M 728.2416421120063,357.4543663846801 c 0.0,-2.1253723843386574 -1.7229547421840636,-3.8483271265227215 -3.8483271265227206 -3.8483271265227215c -2.1253723843386574,-1.3014152437382576e-16 -3.8483271265227215,1.7229547421840634 -3.8483271265227215 3.84832712652272c -2.602830487476515e-16,2.1253723843386574 1.7229547421840632,3.8483271265227215 3.8483271265227197 3.8483271265227215c 2.1253723843386574,3.9042457312147725e-16 3.8483271265227215,-1.722954742184063 3.8483271265227224 -3.84832712652272Z" /></g></g></g><g fill="rgb(209,95,105)" fill-opacity="1.0" stroke-width="0.0"><g fill="rgb(209,95,105)" fill-opacity="1.0"><g fill="rgb(209,95,105)" fill-opacity="1.0"><path d="M 569.9708835080143,492.6852648689309 c 0.0,-0.9528222192568444 -0.7724150239383837,-1.7252372431952283 -1.7252372431952279 -1.7252372431952283c -0.9528222192568444,-5.83435340484686e-17 -1.7252372431952283,0.7724150239383836 -1.7252372431952283 1.7252372431952276c -1.166870680969372e-16,0.9528222192568444 0.7724150239383835,1.7252372431952283 1.7252372431952276 1.7252372431952283c 0.9528222192568444,1.750306021454058e-16 1.7252372431952283,-0.7724150239383833 1.7252372431952285 -1.7252372431952276Z" /></g></g></g><g fill="rgb(235,86,92)" fill-opacity="1.0" stroke-width="0.0"><g fill="rgb(235,86,92)" fill-opacity="1.0"><g fill="rgb(235,86,92)" fill-opacity="1.0"><path d="M 539.0058250808629,168.1026649278884 c 0.0,-1.3531542627425222 -1.09694826707945,-2.4501025298219723 -2.450102529821972 -2.4501025298219723c -1.3531542627425222,-8.285680183101132e-17 -2.4501025298219723,1.0969482670794497 -2.4501025298219723 2.4501025298219714c -1.6571360366202263e-16,1.3531542627425222 1.0969482670794497,2.4501025298219723 2.4501025298219714 2.4501025298219723c 1.3531542627425222,2.485704054930339e-16 2.4501025298219723,-1.0969482670794495 2.450102529821973 -2.4501025298219714Z" /></g></g></g><g fill="rgb(191,49,49)" fill-opacity="1.0" stroke-width="0.0"><g fill="rgb(191,49,49)" fill-opacity="1.0"><g fill="rgb(191,49,49)" fill-opacity="1.0"><path d="M 481.174409764525,324.27290524978514 c 0.0,-1.230114702124051 -0.9972049957327664,-2.2273196978568177 -2.2273196978568173 -2.2273196978568177c -1.230114702124051,-7.532280162701594e-17 -2.2273196978568177,0.9972049957327663 -2.2273196978568177 2.227319697856817c -1.5064560325403188e-16,1.230114702124051 0.9972049957327662,2.2273196978568177 2.227319697856817 2.2273196978568177c 1.230114702124051,2.2596840488104785e-16 2.2273196978568177,-0.9972049957327661 2.2273196978568177 -2.227319697856817Z" /></g></g></g><g fill="rgb(240,162,188)" fill-opacity="1.0" stroke-width="0.0"><g fill="rgb(240,162,188)" fill-opacity="1.0"><g fill="rgb(240,162,188)" fill-opacity="1.0"><path d="M 375.6135373203707,633.9888400595942 c 0.0,-0.879434261735215 -0.7129223296873294,-1.5923565914225446 -1.5923565914225442 -1.5923565914225446c -0.879434261735215,-5.3849817684727335e-17 -1.5923565914225446,0.7129223296873293 -1.5923565914225446 1.5923565914225442c -1.0769963536945467e-16,0.879434261735215 0.7129223296873293,1.5923565914225446 1.592356591422544 1.5923565914225446c 0.879434261735215,1.6154945305418202e-16 1.5923565914225446,-0.7129223296873292 1.5923565914225448 -1.5923565914225442Z" /></g></g></g><g fill="rgb(185,161,185)" fill-opacity="1.0" stroke-width="0.0"><g fill="rgb(185,161,185)" fill-opacity="1.0"><g fill="rgb(185,161,185)" fill-opacity="1.0"><path d="M 416.18684176190413,619.9061003220095 c 0.0,-1.418986439246665 -1.1503157905929378,-2.569302229839603 -2.5693022298396024 -2.569302229839603c -1.418986439246665,-8.688786004284641e-17 -2.569302229839603,1.1503157905929375 -2.569302229839603 2.569302229839602c -1.7377572008569282e-16,1.418986439246665 1.1503157905929375,2.569302229839603 2.5693022298396015 2.569302229839603c 1.418986439246665,2.6066358012853924e-16 2.569302229839603,-1.1503157905929373 2.569302229839604 -2.569302229839602Z" /></g></g></g><g fill="rgb(72,189,190)" fill-opacity="1.0" stroke-width="0.0"><g fill="rgb(72,189,190)" fill-opacity="1.0"><g fill="rgb(72,189,190)" fill-opacity="1.0"><path d="M 361.37045683603645,234.25530415386334 c 0.0,-0.9313642957421749 -0.7550199399759435,-1.6863842357181187 -1.6863842357181182 -1.6863842357181187c -0.9313642957421749,-5.702961518103917e-17 -1.6863842357181187,0.7550199399759434 -1.6863842357181187 1.686384235718118c -1.1405923036207834e-16,0.9313642957421749 0.7550199399759433,1.6863842357181187 1.686384235718118 1.6863842357181187c 0.9313642957421749,1.7108884554311752e-16 1.6863842357181187,-0.7550199399759432 1.686384235718119 -1.686384235718118Z" /></g></g></g><g fill="rgb(97,91,91)" fill-opacity="1.0" stroke-width="0.0"><g fill="rgb(97,91,91)" fill-opacity="1.0"><g fill="rgb(97,91,91)" fill-opacity="1.0"><path d="M 416.7383626233481,81.32193908642381 c 0.0,-0.824326766451196 -0.6682488780940308,-1.492575644545227 -1.4925756445452267 -1.492575644545227c -0.824326766451196,-5.047545679929724e-17 -1.492575644545227,0.6682488780940308 -1.492575644545227 1.4925756445452265c -1.0095091359859448e-16,0.824326766451196 0.6682488780940307,1.492575644545227 1.4925756445452263 1.492575644545227c 0.824326766451196,1.5142637039789174e-16 1.492575644545227,-0.6682488780940306 1.4925756445452276 -1.4925756445452265Z" /></g></g></g><g fill="rgb(72,189,190)" fill-opacity="1.0" stroke-width="0.0"><g fill="rgb(72,189,190)" fill-opacity="1.0"><g fill="rgb(72,189,190)" fill-opacity="1.0"><path d="M 426.8640196661987,85.17866528657143 c 0.0,-0.8833245201016044 -0.7160760072028945,-1.599400527304499 -1.5994005273044987 -1.599400527304499c -0.8833245201016044,-5.408802730754008e-17 -1.599400527304499,0.7160760072028944 -1.599400527304499 1.5994005273044987c -1.0817605461508016e-16,0.8833245201016044 0.7160760072028943,1.599400527304499 1.5994005273044984 1.599400527304499c 0.8833245201016044,1.6226408192262026e-16 1.599400527304499,-0.7160760072028942 1.5994005273044993 -1.5994005273044987Z" /></g></g></g><g fill="rgb(209,95,105)" fill-opacity="1.0" stroke-width="0.0"><g fill="rgb(209,95,105)" fill-opacity="1.0"><g fill="rgb(209,95,105)" fill-opacity="1.0"><path d="M 701.0083475408971,53.88065154691253 c 0.0,-0.6054804078846326 -0.49083885146507233,-1.096319259349705 -1.0963192593497049 -1.096319259349705c -0.6054804078846326,-3.707498217311746e-17 -1.096319259349705,0.4908388514650723 -1.096319259349705 1.0963192593497046c -7.414996434623492e-17,0.6054804078846326 0.4908388514650722,1.096319259349705 1.0963192593497046 1.096319259349705c 0.6054804078846326,1.1122494651935237e-16 1.096319259349705,-0.49083885146507217 1.0963192593497055 -1.0963192593497046Z" /></g></g></g><g fill="rgb(173,210,116)" fill-opacity="1.0" stroke-width="0.0"><g fill="rgb(173,210,116)" fill-opacity="1.0"><g fill="rgb(173,210,116)" fill-opacity="1.0"><path d="M 415.4874846464353,546.82896038941 c 0.0,-0.6727492654968198 -0.5453710351324003,-1.2181203006292203 -1.21812030062922 -1.2181203006292203c -0.6727492654968198,-4.1194011730970666e-17 -1.2181203006292203,0.5453710351324003 -1.2181203006292203 1.2181203006292198c -8.238802346194133e-17,0.6727492654968198 0.5453710351324002,1.2181203006292203 1.2181203006292198 1.2181203006292203c 0.6727492654968198,1.23582035192912e-16 1.2181203006292203,-0.5453710351324002 1.2181203006292203 -1.2181203006292198Z" /></g></g></g><g fill="rgb(168,145,120)" fill-opacity="1.0" stroke-width="0.0"><g fill="rgb(168,145,120)" fill-opacity="1.0"><g fill="rgb(168,145,120)" fill-opacity="1.0"><path d="M 753.4105998904607,158.45485672019763 c 0.0,-0.9563718982357727 -0.7752926073092049,-1.7316645055449778 -1.7316645055449773 -1.7316645055449778c -0.9563718982357727,-5.856088919844586e-17 -1.7316645055449778,0.7752926073092048 -1.7316645055449778 1.731664505544977c -1.1712177839689173e-16,0.9563718982357727 0.7752926073092047,1.7316645055449778 1.731664505544977 1.7316645055449778c 0.9563718982357727,1.7568266759533758e-16 1.7316645055449778,-0.7752926073092046 1.731664505544978 -1.731664505544977Z" /></g></g></g><g fill="rgb(209,95,105)" fill-opacity="1.0" stroke-width="0.0"><g fill="rgb(209,95,105)" fill-opacity="1.0"><g fill="rgb(209,95,105)" fill-opacity="1.0"><path d="M 174.8097715024177,0.6758234461282768 c 0.0,-0.37324698287478303 -0.30257646325357146,-0.6758234461283545 -0.6758234461283544 -0.6758234461283545c -0.37324698287478303,-2.2854786143450498e-17 -0.6758234461283545,0.3025764632535714 -0.6758234461283545 0.6758234461283543c -4.5709572286900996e-17,0.37324698287478303 0.3025764632535714,0.6758234461283545 0.6758234461283542 0.6758234461283545c 0.37324698287478303,6.856435843035149e-17 0.6758234461283545,-0.30257646325357135 0.6758234461283549 -0.6758234461283543Z" /></g></g></g><g fill="rgb(185,161,185)" fill-opacity="1.0" stroke-width="0.0"><g fill="rgb(185,161,185)" fill-opacity="1.0"><g fill="rgb(185,161,185)" fill-opacity="1.0"><path d="M 312.0085599249337,373.6200611339001 c 0.0,-0.43702982787363537 -0.3542826753369468,-0.7913125032105822 -0.791312503210582 -0.7913125032105822c -0.43702982787363537,-2.6760358991868312e-17 -0.7913125032105822,0.35428267533694674 -0.7913125032105822 0.791312503210582c -5.3520717983736624e-17,0.43702982787363537 0.3542826753369467,0.7913125032105822 0.7913125032105819 0.7913125032105822c 0.43702982787363537,8.028107697560493e-17 0.7913125032105822,-0.3542826753369467 0.7913125032105823 -0.791312503210582Z" /></g></g></g><g fill="rgb(173,210,116)" fill-opacity="1.0" stroke-width="0.0"><g fill="rgb(173,210,116)" fill-opacity="1.0"><g fill="rgb(173,210,116)" fill-opacity="1.0"><path d="M 124.6436295077632,400.18984533531614 c 0.0,-0.6360461613897084 -0.5156172904520767,-1.1516634518417852 -1.151663451841785 -1.1516634518417852c -0.6360461613897084,-3.894659478279336e-17 -1.1516634518417852,0.5156172904520766 -1.1516634518417852 1.1516634518417848c -7.789318956558672e-17,0.6360461613897084 0.5156172904520766,1.1516634518417852 1.1516634518417848 1.1516634518417852c 0.6360461613897084,1.1683978434838007e-16 1.1516634518417852,-0.5156172904520765 1.1516634518417852 -1.1516634518417848Z" /></g></g></g><g fill="rgb(191,49,49)" fill-opacity="1.0" stroke-width="0.0"><g fill="rgb(191,49,49)" fill-opacity="1.0"><g fill="rgb(191,49,49)" fill-opacity="1.0"><path d="M 586.7718023516871,325.461433323571 c 0.0,-0.4991090019479291 -0.4046077892559632,-0.9037167912038924 -0.9037167912038921 -0.9037167912038924c -0.4991090019479291,-3.0561612083058073e-17 -0.9037167912038924,0.40460778925596314 -0.9037167912038924 0.903716791203892c -6.112322416611615e-17,0.4991090019479291 0.4046077892559631,0.9037167912038924 0.9037167912038919 0.9037167912038924c 0.4991090019479291,9.168483624917421e-17 0.9037167912038924,-0.404607789255963 0.9037167912038926 -0.903716791203892Z" /></g></g></g><g fill="rgb(168,145,120)" fill-opacity="1.0" stroke-width="0.0"><g fill="rgb(168,145,120)" fill-opacity="1.0"><g fill="rgb(168,145,120)" fill-opacity="1.0"><path d="M 494.04851548620275,81.44887551085662 c 0.0,-0.26192331073318864 -0.21233079607210611,-0.4742541068052948 -0.4742541068052947 -0.4742541068052948c -0.26192331073318864,-1.603817720557385e-17 -0.4742541068052948,0.2123307960721061 -0.4742541068052948 0.4742541068052946c -3.20763544111477e-17,0.26192331073318864 0.21233079607210606,0.4742541068052948 0.47425410680529456 0.4742541068052948c 0.26192331073318864,4.811453161672155e-17 0.4742541068052948,-0.21233079607210603 0.4742541068052949 -0.4742541068052946Z" /></g></g></g><g fill="rgb(173,210,116)" fill-opacity="1.0" stroke-width="0.0"><g fill="rgb(173,210,116)" fill-opacity="1.0"><g fill="rgb(173,210,116)" fill-opacity="1.0"><path d="M 727.333557470186,404.9988560775865 c 0.0,-0.751879092547697 -0.609518434322372,-1.361397526870069 -1.3613975268700689 -1.361397526870069c -0.751879092547697,-4.6039316201717686e-17 -1.361397526870069,0.6095184343223718 -1.361397526870069 1.3613975268700687c -9.207863240343537e-17,0.751879092547697 0.6095184343223717,1.361397526870069 1.3613975268700684 1.361397526870069c 0.751879092547697,1.3811794860515305e-16 1.361397526870069,-0.6095184343223717 1.3613975268700698 -1.3613975268700687Z" /></g></g></g><g fill="rgb(173,210,116)" fill-opacity="1.0" stroke-width="0.0"><g fill="rgb(173,210,116)" fill-opacity="1.0"><g fill="rgb(173,210,116)" fill-opacity="1.0"><path d="M 590.4938200489673,466.246612001788 c 0.0,-0.40346752661008456 -0.3270750544293106,-0.7305425810393953 -0.7305425810393952 -0.7305425810393953c -0.40346752661008456,-2.470526075114698e-17 -0.7305425810393953,0.32707505442931056 -0.7305425810393953 0.7305425810393951c -4.941052150229396e-17,0.40346752661008456 0.32707505442931056,0.7305425810393953 0.730542581039395 0.7305425810393953c 0.40346752661008456,7.411578225344095e-17 0.7305425810393953,-0.3270750544293105 0.7305425810393956 -0.7305425810393951Z" /></g></g></g><g fill="rgb(209,95,105)" fill-opacity="1.0" stroke-width="0.0"><g fill="rgb(209,95,105)" fill-opacity="1.0"><g fill="rgb(209,95,105)" fill-opacity="1.0"><path d="M 148.12488103959024,273.53172386564313 c 0.0,-0.4710573439374831 -0.38186742735450624,-0.8529247712919894 -0.8529247712919892 -0.8529247712919894c -0.4710573439374831,-2.884394342339463e-17 -0.8529247712919894,0.3818674273545062 -0.8529247712919894 0.8529247712919891c -5.768788684678925e-17,0.4710573439374831 0.38186742735450613,0.8529247712919894 0.8529247712919891 0.8529247712919894c 0.4710573439374831,8.653183027018388e-17 0.8529247712919894,-0.3818674273545061 0.8529247712919895 -0.8529247712919891Z" /></g></g></g><g fill="rgb(209,95,105)" fill-opacity="1.0" stroke-width="0.0"><g fill="rgb(209,95,105)" fill-opacity="1.0"><g fill="rgb(209,95,105)" fill-opacity="1.0"><path d="M 2.086781193590639,6.0197604580602615 c 0.0,-0.5762487147269211 -0.4671418820684269,-1.043390596795348 -1.0433905967953478 -1.043390596795348c -0.5762487147269211,-3.528505720015501e-17 -1.043390596795348,0.46714188206842683 -1.043390596795348 1.0433905967953476c -7.057011440031002e-17,0.5762487147269211 0.4671418820684268,1.043390596795348 1.0433905967953476 1.043390596795348c 0.5762487147269211,1.0585517160046502e-16 1.043390596795348,-0.4671418820684267 1.043390596795348 -1.0433905967953476Z" /></g></g></g><g fill="rgb(97,91,91)" fill-opacity="1.0" stroke-width="0.0"><g fill="rgb(97,91,91)" fill-opacity="1.0"><g fill="rgb(97,91,91)" fill-opacity="1.0"><path d="M 280.9990952724835,605.2812079459411 c 0.0,-0.4298647392003344 -0.348474223322231,-0.7783389625225655 -0.7783389625225653 -0.7783389625225655c -0.4298647392003344,-2.6321623846400065e-17 -0.7783389625225655,0.348474223322231 -0.7783389625225655 0.7783389625225653c -5.264324769280013e-17,0.4298647392003344 0.34847422332223094,0.7783389625225655 0.7783389625225652 0.7783389625225655c 0.4298647392003344,7.89648715392002e-17 0.7783389625225655,-0.3484742233222309 0.7783389625225656 -0.7783389625225653Z" /></g></g></g><g fill="rgb(168,145,120)" fill-opacity="1.0" stroke-width="0.0"><g fill="rgb(168,145,120)" fill-opacity="1.0"><g fill="rgb(168,145,120)" fill-opacity="1.0"><path d="M 616.5255178506238,477.4581895989822 c 0.0,-0.5580601941690534 -0.452397172868565,-1.0104573670376185 -1.0104573670376182 -1.0104573670376185c -0.5580601941690534,-3.417133152603408e-17 -1.0104573670376185,0.45239717286856496 -1.0104573670376185 1.010457367037618c -6.834266305206816e-17,0.5580601941690534 0.4523971728685649,1.0104573670376185 1.010457367037618 1.0104573670376185c 0.5580601941690534,1.0251399457810223e-16 1.0104573670376185,-0.45239717286856485 1.0104573670376185 -1.010457367037618Z" /></g></g></g><g fill="rgb(173,210,116)" fill-opacity="1.0" stroke-width="0.0"><g fill="rgb(173,210,116)" fill-opacity="1.0"><g fill="rgb(173,210,116)" fill-opacity="1.0"><path d="M 779.890540591755,356.7562181162738 c 0.0,-0.3516642073207702 -0.28508016671547015,-0.6367443740362404 -0.6367443740362403 -0.6367443740362404c -0.3516642073207702,-2.1533222293503623e-17 -0.6367443740362404,0.2850801667154701 -0.6367443740362404 0.6367443740362402c -4.3066444587007245e-17,0.3516642073207702 0.28508016671547004,0.6367443740362404 0.6367443740362401 0.6367443740362404c 0.3516642073207702,6.459966688051086e-17 0.6367443740362404,-0.28508016671547004 0.6367443740362407 -0.6367443740362402Z" /></g></g></g><g fill="rgb(245,180,86)" fill-opacity="1.0" stroke-width="0.0"><g fill="rgb(245,180,86)" fill-opacity="1.0"><g fill="rgb(245,180,86)" fill-opacity="1.0"><path d="M 219.56538145800982,644.8125214924265 c 0.0,-0.4739709431336542 -0.3842293661793718,-0.858200309313026 -0.8582003093130258 -0.858200309313026c -0.4739709431336542,-2.902234991987408e-17 -0.858200309313026,0.38422936617937176 -0.858200309313026 0.8582003093130257c -5.804469983974816e-17,0.4739709431336542 0.3842293661793717,0.858200309313026 0.8582003093130257 0.858200309313026c 0.4739709431336542,8.706704975962225e-17 0.858200309313026,-0.38422936617937165 0.8582003093130262 -0.8582003093130257Z" /></g></g></g><g fill="rgb(209,95,105)" fill-opacity="1.0" stroke-width="0.0"><g fill="rgb(209,95,105)" fill-opacity="1.0"><g fill="rgb(209,95,105)" fill-opacity="1.0"><path d="M 441.17241360310396,656.4460944416355 c 0.0,-0.3614979330258007 -0.2930519764847458,-0.6545499095105466 -0.6545499095105465 -0.6545499095105466c -0.3614979330258007,-2.2135364328921556e-17 -0.6545499095105466,0.2930519764847458 -0.6545499095105466 0.6545499095105464c -4.427072865784311e-17,0.3614979330258007 0.29305197648474574,0.6545499095105466 0.6545499095105463 0.6545499095105466c 0.3614979330258007,6.640609298676467e-17 0.6545499095105466,-0.2930519764847457 0.6545499095105467 -0.6545499095105464Z" /></g></g></g><g fill="rgb(191,49,49)" fill-opacity="1.0" stroke-width="0.0"><g fill="rgb(191,49,49)" fill-opacity="1.0"><g fill="rgb(191,49,49)" fill-opacity="1.0"><path d="M 206.53313257601502,8.68473717622959 c 0.0,-0.3529666348872234 -0.28613599287022184,-0.6391026277574453 -0.6391026277574452 -0.6391026277574453c -0.3529666348872234,-2.161297298102253e-17 -0.6391026277574453,0.2861359928702218 -0.6391026277574453 0.6391026277574451c -4.322594596204506e-17,0.3529666348872234 0.2861359928702218,0.6391026277574453 0.639102627757445 0.6391026277574453c 0.3529666348872234,6.483891894306759e-17 0.6391026277574453,-0.28613599287022173 0.6391026277574454 -0.6391026277574451Z" /></g></g></g><g fill="rgb(168,145,120)" fill-opacity="1.0" stroke-width="0.0"><g fill="rgb(168,145,120)" fill-opacity="1.0"><g fill="rgb(168,145,120)" fill-opacity="1.0"><path d="M 800.0,455.2829251063371 c 0.0,-0.6133980216596125 -0.49725734560798385,-1.1106553672675965 -1.1106553672675963 -1.1106553672675965c -0.6133980216596125,-3.7559796191438165e-17 -1.1106553672675965,0.49725734560798374 -1.1106553672675965 1.110655367267596c -7.511959238287633e-17,0.6133980216596125 0.4972573456079837,1.1106553672675965 1.110655367267596 1.1106553672675965c 0.6133980216596125,1.126793885743145e-16 1.1106553672675965,-0.4972573456079836 1.1106553672675965 -1.110655367267596Z" /></g></g></g></g></g></g></svg>