<?xml version="1.0" encoding="UTF-8"?>
<!DOCTYPE svg PUBLIC "-//W3C//DTD SVG 1.1//EN"
    "http://www.w3.org/Graphics/SVG/1.1/DTD/svg11.dtd">
<svg xmlns="http://www.w3.org/2000/svg" xmlns:xlink="http://www.w3.org/1999/xlink" version="1.1" width="800.0" height="816.6743762978144" font-size="1" viewBox="0 0 800 817" stroke="rgb(0,0,0)" stroke-opacity="1"><g><g fill="rgb(0,0,0)" fill-opacity="0.0"><g stroke="rgb(0,0,0)" stroke-opacity="1.0" stroke-width="3.2331767685377217" stroke-linecap="butt" stroke-linejoin="miter" font-size="1.0em" stroke-miterlimit="10.0"><g fill="rgb(209,95,105)" fill-opacity="1.0" stroke-width="0.0"><g fill="rgb(209,95,105)" fill-opacity="1.0"><g fill="rgb(209,95,105)" fill-opacity="1.0"><path d="M 423.1296856407196,626.5091495462667 c 0.0,-19.327256748274273 -15.667837275588726,-34.995094023863004 -34.995094023863 -34.995094023863004c -19.327256748274273,-1.1834531556536586e-15 -34.995094023863004,15.667837275588724 -34.995094023863004 34.99509402386299c -2.366906311307317e-15,19.327256748274273 15.667837275588722,34.995094023863004 34.99509402386299 34.995094023863004c 19.327256748274273,3.5503594669609757e-15 34.995094023863004,-15.66783727558872 34.99509402386302 -34.99509402386299Z" /></g></g></g><g fill="rgb(240,162,188)" fill-opacity="1.0" stroke-width="0.0"><g fill="rgb(240,162,188)" fill-opacity="1.0"><g fill="rgb(240,162,188)" fill-opacity="1.0"><path d="M 336.8437779816385,648.8937986407738 c 0.0,-24.331440330311214 -19.72452959782055,-44.055969928131766 -44.05596992813176 -44.055969928131766c -24.331440330311214,-1.4898710259580222e-15 -44.055969928131766,19.724529597820545 -44.055969928131766 44.05596992813175c -2.9797420519160443e-15,24.331440330311214 19.724529597820545,44.055969928131766 44.055969928131745 44.055969928131766c 24.331440330311214,4.469613077874066e-15 44.055969928131766,-19.724529597820542 44.05596992813177 -44.05596992813175Z" /></g></g></g><g fill="rgb(173,210,116)" fill-opacity="1.0" stroke-width="0.0"><g fill="rgb(173,210,116)" fill-opacity="1.0"><g fill="rgb(173,210,116)" fill-opacity="1.0"><path d="M 389.7846925337309,557.6737765856552 c 0.0,-11.043381062950443 -8.952429189521428,-19.995810252471873 -19.99581025247187 -19.995810252471873c -11.043381062950443,-6.762120635253378e-16 -19.995810252471873,8.952429189521427 -19.995810252471873 19.995810252471866c -1.3524241270506755e-15,11.043381062950443 8.952429189521425,19.995810252471873 19.995810252471866 19.995810252471873c 11.043381062950443,2.0286361905760133e-15 19.995810252471873,-8.952429189521425 19.995810252471873 -19.995810252471866Z" /></g></g></g><g fill="rgb(240,162,188)" fill-opacity="1.0" stroke-width="0.0"><g fill="rgb(240,162,188)" fill-opacity="1.0"><g fill="rgb(240,162,188)" fill-opacity="1.0"><path d="M 460.8614791308485,554.9932988298197 c 0.0,-15.679506065722947 -12.710751080661709,-28.39025714638466 -28.390257146384652 -28.39025714638466c -15.679506065722947,-9.600928457799557e-16 -28.39025714638466,12.710751080661707 -28.39025714638466 28.39025714638465c -1.9201856915599114e-15,15.679506065722947 12.710751080661705,28.39025714638466 28.390257146384645 28.39025714638466c 15.679506065722947,2.8802785373398674e-15 28.39025714638466,-12.710751080661703 28.390257146384666 -28.39025714638465Z" /></g></g></g><g fill="rgb(173,210,116)" fill-opacity="1.0" stroke-width="0.0"><g fill="rgb(173,210,116)" fill-opacity="1.0"><g fill="rgb(173,210,116)" fill-opacity="1.0"><path d="M 461.15096563034854,692.9121917085228 c 0.0,-18.538648116513347 -15.028543666698361,-33.56719178321171 -33.567191783211705 -33.56719178321171c -18.538648116513347,-1.135164803820359e-15 -33.56719178321171,15.02854366669836 -33.56719178321171 33.5671917832117c -2.270329607640718e-15,18.538648116513347 15.028543666698358,33.56719178321171 33.5671917832117 33.56719178321171c 18.538648116513347,3.4054944114610765e-15 33.56719178321171,-15.028543666698356 33.567191783211726 -33.5671917832117Z" /></g></g></g><g fill="rgb(235,86,92)" fill-opacity="1.0" stroke-width="0.0"><g fill="rgb(235,86,92)" fill-opacity="1.0"><g fill="rgb(235,86,92)" fill-opacity="1.0"><path d="M 474.44484128097537,619.4911466110024 c 0.0,-12.078177902499299 -9.791297773227319,-21.86947567572662 -21.869475675726616 -21.86947567572662c -12.078177902499299,-7.395750953914029e-16 -21.86947567572662,9.791297773227317 -21.86947567572662 21.869475675726612c -1.4791501907828058e-15,12.078177902499299 9.791297773227315,21.86947567572662 21.86947567572661 21.86947567572662c 12.078177902499299,2.2187252861742085e-15 21.86947567572662,-9.791297773227315 21.86947567572663 -21.869475675726612Z" /></g></g></g><g fill="rgb(241,237,226)" fill-opacity="1.0" stroke-width="0.0"><g fill="rgb(241,237,226)" fill-opacity="1.0"><g fill="rgb(241,237,226)" fill-opacity="1.0"><path d="M 348.6798572370422,626.1448408433642 c 0.0,-1.162621651717677 -0.9424910678963911,-2.1051127196140684 -2.105112719614068 -2.1051127196140684c -1.162621651717677,-7.11900442197731e-17 -2.1051127196140684,0.942491067896391 -2.1051127196140684 2.1051127196140675c -1.423800884395462e-16,1.162621651717677 0.9424910678963909,2.1051127196140684 2.1051127196140675 2.1051127196140684c 1.162621651717677,2.135701326593193e-16 2.1051127196140684,-0.9424910678963908 2.1051127196140684 -2.1051127196140675Z" /></g></g></g><g fill="rgb(97,91,91)" fill-opacity="1.0" stroke-width="0.0"><g fill="rgb(97,91,91)" fill-opacity="1.0"><g fill="rgb(97,91,91)" fill-opacity="1.0"><path d="M 357.2548243435533,684.7065491203496 c 0.0,-4.18596123707206 -3.3933920555085075,-7.579353292580568 -7.579353292580566 -7.579353292580568c -4.18596123707206,-2.563162015167596e-16 -7.579353292580568,3.393392055508507 -7.579353292580568 7.579353292580565c -5.126324030335192e-16,4.18596123707206 3.3933920555085066,7.579353292580568 7.5793532925805644 7.579353292580568c 4.18596123707206,7.689486045502789e-16 7.579353292580568,-3.393392055508506 7.57935329258057 -7.579353292580565Z" /></g></g></g><g fill="rgb(185,161,185)" fill-opacity="1.0" stroke-width="0.0"><g fill="rgb(185,161,185)" fill-opacity="1.0"><g fill="rgb(185,161,185)" fill-opacity="1.0"><path d="M 386.50088650334965,719.0172434024701 c 0.0,-10.190712958232167 -8.261205117279335,-18.451918075511504 -18.4519180755115 -18.451918075511504c -10.190712958232167,-6.240012002664238e-16 -18.451918075511504,8.261205117279333 -18.451918075511504 18.451918075511497c -1.2480024005328477e-15,10.190712958232167 8.261205117279333,18.451918075511504 18.451918075511497 18.451918075511504c 10.190712958232167,1.8720036007992717e-15 18.451918075511504,-8.261205117279331 18.451918075511504 -18.451918075511497Z" /></g></g></g><g fill="rgb(235,86,92)" fill-opacity="1.0" stroke-width="0.0"><g fill="rgb(235,86,92)" fill-opacity="1.0"><g fill="rgb(235,86,92)" fill-opacity="1.0"><path d="M 355.12012979425924,598.692066173531 c 0.0,-4.126122726927481 -3.344883358595655,-7.471006085523138 -7.471006085523136 -7.471006085523138c -4.126122726927481,-2.5265214952104446e-16 -7.471006085523138,3.3448833585956548 -7.471006085523138 7.471006085523135c -5.053042990420889e-16,4.126122726927481 3.3448833585956548,7.471006085523138 7.471006085523134 7.471006085523138c 4.126122726927481,7.579564485631333e-16 7.471006085523138,-3.3448833585956543 7.47100608552314 -7.471006085523135Z" /></g></g></g><g fill="rgb(240,162,188)" fill-opacity="1.0" stroke-width="0.0"><g fill="rgb(240,162,188)" fill-opacity="1.0"><g fill="rgb(240,162,188)" fill-opacity="1.0"><path d="M 390.0935256710672,675.6928145980103 c 0.0,-4.388025597065563 -3.5571975842914205,-7.945223181356985 -7.945223181356983 -7.945223181356985c -4.388025597065563,-2.6868907510114977e-16 -7.945223181356985,3.55719758429142 -7.945223181356985 7.945223181356982c -5.373781502022995e-16,4.388025597065563 3.5571975842914196,7.945223181356985 7.945223181356981 7.945223181356985c 4.388025597065563,8.060672253034493e-16 7.945223181356985,-3.557197584291419 7.945223181356987 -7.945223181356982Z" /></g></g></g><g fill="rgb(209,95,105)" fill-opacity="1.0" stroke-width="0.0"><g fill="rgb(209,95,105)" fill-opacity="1.0"><g fill="rgb(209,95,105)" fill-opacity="1.0"><path d="M 347.35642495798277,707.1535490501037 c 0.0,-9.415700907109263 -7.632933714784611,-17.048634621893875 -17.04863462189387 -17.048634621893875c -9.415700907109263,-5.765453988810094e-16 -17.048634621893875,7.63293371478461 -17.048634621893875 17.048634621893868c -1.1530907977620188e-15,9.415700907109263 7.632933714784609,17.048634621893875 17.048634621893868 17.048634621893875c 9.415700907109263,1.7296361966430282e-15 17.048634621893875,-7.632933714784608 17.048634621893882 -17.048634621893868Z" /></g></g></g><g fill="rgb(209,95,105)" fill-opacity="1.0" stroke-width="0.0"><g fill="rgb(209,95,105)" fill-opacity="1.0"><g fill="rgb(209,95,105)" fill-opacity="1.0"><path d="M 284.0852549425984,558.760492009959 c 0.0,-7.702101817701774 -6.243787182603791,-13.945889000305566 -13.945889000305563 -13.945889000305566c -7.702101817701774,-4.716177168877744e-16 -13.945889000305566,6.24378718260379 -13.945889000305566 13.945889000305561c -9.432354337755488e-16,7.702101817701774 6.243787182603789,13.945889000305566 13.945889000305561 13.945889000305566c 7.702101817701774,1.4148531506633233e-15 13.945889000305566,-6.243787182603788 13.945889000305568 -13.945889000305561Z" /></g></g></g><g fill="rgb(72,189,190)" fill-opacity="1.0" stroke-width="0.0"><g fill="rgb(72,189,190)" fill-opacity="1.0"><g fill="rgb(72,189,190)" fill-opacity="1.0"><path d="M 342.605446295571,572.0116296058007 c 0.0,-2.6922950322735435 -2.182536353344829,-4.874831385618373 -4.874831385618372 -4.874831385618373c -2.6922950322735435,-1.6485552468170574e-16 -4.874831385618373,2.1825363533448288 -4.874831385618373 4.874831385618371c -3.297110493634115e-16,2.6922950322735435 2.1825363533448288,4.874831385618373 4.874831385618371 4.874831385618373c 2.6922950322735435,4.945665740451172e-16 4.874831385618373,-2.1825363533448283 4.874831385618375 -4.874831385618371Z" /></g></g></g><g fill="rgb(168,145,120)" fill-opacity="1.0" stroke-width="0.0"><g fill="rgb(168,145,120)" fill-opacity="1.0"><g fill="rgb(168,145,120)" fill-opacity="1.0"><path d="M 357.828873966787,582.5630669653311 c 0.0,-3.5629507105943468 -2.888342235093448,-6.451292945687795 -6.451292945687793 -6.451292945687795c -3.5629507105943468,-2.181678091624577e-16 -6.451292945687795,2.8883422350934476 -6.451292945687795 6.451292945687793c -4.363356183249154e-16,3.5629507105943468 2.888342235093447,6.451292945687795 6.4512929456877925 6.451292945687795c 3.5629507105943468,6.545034274873731e-16 6.451292945687795,-2.8883422350934467 6.451292945687796 -6.451292945687793Z" /></g></g></g><g fill="rgb(173,210,116)" fill-opacity="1.0" stroke-width="0.0"><g fill="rgb(173,210,116)" fill-opacity="1.0"><g fill="rgb(173,210,116)" fill-opacity="1.0"><path d="M 507.0508221299731,649.7787697895976 c 0.0,-6.950556727775195 -5.63453951090363,-12.585096238678826 -12.585096238678823 -12.585096238678826c -6.950556727775195,-4.2559885244809967e-16 -12.585096238678826,5.634539510903629 -12.585096238678826 12.585096238678823c -8.511977048961993e-16,6.950556727775195 5.634539510903628,12.585096238678826 12.58509623867882 12.585096238678826c 6.950556727775195,1.276796557344299e-15 12.585096238678826,-5.634539510903627 12.585096238678828 -12.585096238678823Z" /></g></g></g><g fill="rgb(241,237,226)" fill-opacity="1.0" stroke-width="0.0"><g fill="rgb(241,237,226)" fill-opacity="1.0"><g fill="rgb(241,237,226)" fill-opacity="1.0"><path d="M 419.480658149479,503.4937122866338 c 0.0,-9.255241501246564 -7.502855665264267,-16.758097166510833 -16.75809716651083 -16.758097166510833c -9.255241501246564,-5.667200939918674e-16 -16.758097166510833,7.502855665264266 -16.758097166510833 16.758097166510826c -1.1334401879837347e-15,9.255241501246564 7.502855665264265,16.758097166510833 16.758097166510826 16.758097166510833c 9.255241501246564,1.7001602819756023e-15 16.758097166510833,-7.502855665264264 16.758097166510833 -16.758097166510826Z" /></g></g></g><g fill="rgb(241,237,226)" fill-opacity="1.0" stroke-width="0.0"><g fill="rgb(241,237,226)" fill-opacity="1.0"><g fill="rgb(241,237,226)" fill-opacity="1.0"><path d="M 300.1247968505979,579.9727480935799 c 0.0,-2.460434089404075 -1.9945759215692345,-4.45501001097331 -4.455010010973309 -4.45501001097331c -2.460434089404075,-1.5065813660508664e-16 -4.45501001097331,1.9945759215692342 -4.45501001097331 4.455010010973308c -3.013162732101733e-16,2.460434089404075 1.994575921569234,4.45501001097331 4.455010010973308 4.45501001097331c 2.460434089404075,4.519744098152599e-16 4.45501001097331,-1.9945759215692338 4.45501001097331 -4.455010010973308Z" /></g></g></g><g fill="rgb(209,95,105)" fill-opacity="1.0" stroke-width="0.0"><g fill="rgb(209,95,105)" fill-opacity="1.0"><g fill="rgb(209,95,105)" fill-opacity="1.0"><path d="M 335.93008068895574,558.8734567716838 c 0.0,-5.570030031605627 -4.515401502240179,-10.085431533845806 -10.085431533845805 -10.085431533845806c -5.570030031605627,-3.4106597246802305e-16 -10.085431533845806,4.515401502240178 -10.085431533845806 10.085431533845803c -6.821319449360461e-16,5.570030031605627 4.515401502240177,10.085431533845806 10.085431533845801 10.085431533845806c 5.570030031605627,1.0231979174040691e-15 10.085431533845806,-4.515401502240177 10.085431533845812 -10.085431533845803Z" /></g></g></g><g fill="rgb(245,180,86)" fill-opacity="1.0" stroke-width="0.0"><g fill="rgb(245,180,86)" fill-opacity="1.0"><g fill="rgb(245,180,86)" fill-opacity="1.0"><path d="M 509.8127913491283,590.9591515649679 c 0.0,-10.217054635831019 -8.282559266166588,-18.49961390199761 -18.499613901997606 -18.49961390199761c -10.217054635831019,-6.256141628242041e-16 -18.49961390199761,8.282559266166588 -18.49961390199761 18.499613901997602c -1.2512283256484083e-15,10.217054635831019 8.282559266166587,18.49961390199761 18.499613901997602 18.49961390199761c 10.217054635831019,1.8768424884726125e-15 18.49961390199761,-8.282559266166587 18.49961390199761 -18.499613901997602Z" /></g></g></g><g fill="rgb(240,162,188)" fill-opacity="1.0" stroke-width="0.0"><g fill="rgb(240,162,188)" fill-opacity="1.0"><g fill="rgb(240,162,188)" fill-opacity="1.0"><path d="M 406.4600384455991,577.7888866491569 c 0.0,-5.059000499835879 -4.101130214231153,-9.160130714067034 -9.160130714067032 -9.160130714067034c -5.059000499835879,-3.0977443845044347e-16 -9.160130714067034,4.101130214231153 -9.160130714067034 9.16013071406703c -6.195488769008869e-16,5.059000499835879 4.101130214231152,9.160130714067034 9.16013071406703 9.160130714067034c 5.059000499835879,9.293233153513303e-16 9.160130714067034,-4.101130214231152 9.160130714067037 -9.16013071406703Z" /></g></g></g><g fill="rgb(72,189,190)" fill-opacity="1.0" stroke-width="0.0"><g fill="rgb(72,189,190)" fill-opacity="1.0"><g fill="rgb(72,189,190)" fill-opacity="1.0"><path d="M 401.50718597415255,541.5215726968136 c 0.0,-2.952830194204196 -2.3937418324702153,-5.346572026674412 -5.346572026674411 -5.346572026674412c -2.952830194204196,-1.8080870228789129e-16 -5.346572026674412,2.3937418324702153 -5.346572026674412 5.34657202667441c -3.6161740457578257e-16,2.952830194204196 2.393741832470215,5.346572026674412 5.3465720266744095 5.346572026674412c 2.952830194204196,5.424261068636739e-16 5.346572026674412,-2.3937418324702144 5.346572026674415 -5.34657202667441Z" /></g></g></g><g fill="rgb(235,86,92)" fill-opacity="1.0" stroke-width="0.0"><g fill="rgb(235,86,92)" fill-opacity="1.0"><g fill="rgb(235,86,92)" fill-opacity="1.0"><path d="M 313.22464498952405,721.9437278735683 c 0.0,-5.317936913657943 -4.311039651940199,-9.628976565598142 -9.62897656559814 -9.628976565598142c -5.317936913657943,-3.256297209689377e-16 -9.628976565598142,4.311039651940198 -9.628976565598142 9.628976565598139c -6.512594419378754e-16,5.317936913657943 4.311039651940197,9.628976565598142 9.628976565598139 9.628976565598142c 5.317936913657943,9.768891629068131e-16 9.628976565598142,-4.311039651940197 9.628976565598142 -9.628976565598139Z" /></g></g></g><g fill="rgb(235,86,92)" fill-opacity="1.0" stroke-width="0.0"><g fill="rgb(235,86,92)" fill-opacity="1.0"><g fill="rgb(235,86,92)" fill-opacity="1.0"><path d="M 333.6420774164405,583.6570260142138 c 0.0,-5.207582721952559 -4.221579903935688,-9.429162625888248 -9.429162625888246 -9.429162625888248c -5.207582721952559,-3.1887247558671307e-16 -9.429162625888248,4.221579903935687 -9.429162625888248 9.429162625888244c -6.377449511734261e-16,5.207582721952559 4.221579903935687,9.429162625888248 9.429162625888244 9.429162625888248c 5.207582721952559,9.566174267601392e-16 9.429162625888248,-4.2215799039356865 9.429162625888248 -9.429162625888244Z" /></g></g></g><g fill="rgb(235,86,92)" fill-opacity="1.0" stroke-width="0.0"><g fill="rgb(235,86,92)" fill-opacity="1.0"><g fill="rgb(235,86,92)" fill-opacity="1.0"><path d="M 340.0163021497183,606.9452242669466 c 0.0,-1.4029364903077859 -1.137304736229089,-2.540241226536875 -2.5402412265368746 -2.540241226536875c -1.4029364903077859,-8.590508411312258e-17 -2.540241226536875,1.1373047362290887 -2.540241226536875 2.540241226536874c -1.7181016822624516e-16,1.4029364903077859 1.1373047362290885,2.540241226536875 2.5402412265368737 2.540241226536875c 1.4029364903077859,2.5771525233936775e-16 2.540241226536875,-1.1373047362290885 2.5402412265368755 -2.540241226536874Z" /></g></g></g><g fill="rgb(245,180,86)" fill-opacity="1.0" stroke-width="0.0"><g fill="rgb(245,180,86)" fill-opacity="1.0"><g fill="rgb(245,180,86)" fill-opacity="1.0"><path d="M 368.5173393739577,686.6503980118321 c 0.0,-1.6157950798748892 -1.309860717012367,-2.9256557968872565 -2.925655796887256 -2.9256557968872565c -1.6157950798748892,-9.893891363234125e-17 -2.9256557968872565,1.3098607170123668 -2.9256557968872565 2.9256557968872556c -1.978778272646825e-16,1.6157950798748892 1.3098607170123668,2.9256557968872565 2.925655796887255 2.9256557968872565c 1.6157950798748892,2.968167408970237e-16 2.9256557968872565,-1.3098607170123666 2.925655796887258 -2.9256557968872556Z" /></g></g></g><g fill="rgb(240,162,188)" fill-opacity="1.0" stroke-width="0.0"><g fill="rgb(240,162,188)" fill-opacity="1.0"><g fill="rgb(240,162,188)" fill-opacity="1.0"><path d="M 499.2582096524703,687.9721912270294 c 0.0,-4.8365732513276765 -3.9208173027469813,-8.757390554074659 -8.757390554074657 -8.757390554074659c -4.8365732513276765,-2.961546975540073e-16 -8.757390554074659,3.920817302746981 -8.757390554074659 8.757390554074655c -5.923093951080146e-16,4.8365732513276765 3.9208173027469804,8.757390554074659 8.757390554074655 8.757390554074659c 4.8365732513276765,8.884640926620219e-16 8.757390554074659,-3.92081730274698 8.757390554074659 -8.757390554074655Z" /></g></g></g><g fill="rgb(241,237,226)" fill-opacity="1.0" stroke-width="0.0"><g fill="rgb(241,237,226)" fill-opacity="1.0"><g fill="rgb(241,237,226)" fill-opacity="1.0"><path d="M 468.1153161173126,487.9533079584222 c 0.0,-10.26188533945855 -8.318901732070294,-18.580787071528846 -18.580787071528842 -18.580787071528846c -10.26188533945855,-6.283592517092532e-16 -18.580787071528846,8.318901732070293 -18.580787071528846 18.58078707152884c -1.2567185034185064e-15,10.26188533945855 8.318901732070291,18.580787071528846 18.58078707152884 18.580787071528846c 10.26188533945855,1.8850777551277594e-15 18.580787071528846,-8.318901732070291 18.580787071528853 -18.58078707152884Z" /></g></g></g><g fill="rgb(245,180,86)" fill-opacity="1.0" stroke-width="0.0"><g fill="rgb(245,180,86)" fill-opacity="1.0"><g fill="rgb(245,180,86)" fill-opacity="1.0"><path d="M 341.9082902114589,528.7177642626775 c 0.0,-8.615477349178041 -6.9842243478498265,-15.59970169702787 -15.599701697027866 -15.59970169702787c -8.615477349178041,-5.275458379398705e-16 -15.59970169702787,6.984224347849826 -15.59970169702787 15.599701697027864c -1.055091675879741e-15,8.615477349178041 6.984224347849825,15.59970169702787 15.599701697027863 15.59970169702787c 8.615477349178041,1.5826375138196117e-15 15.59970169702787,-6.984224347849824 15.599701697027873 -15.599701697027864Z" /></g></g></g><g fill="rgb(240,162,188)" fill-opacity="1.0" stroke-width="0.0"><g fill="rgb(240,162,188)" fill-opacity="1.0"><g fill="rgb(240,162,188)" fill-opacity="1.0"><path d="M 437.7522308808912,516.4350424459119 c 0.0,-3.4086946186010016 -2.7632929650600393,-6.171987583661042 -6.17198758366104 -6.171987583661042c -3.4086946186010016,-2.0872234769702623e-16 -6.171987583661042,2.763292965060039 -6.171987583661042 6.17198758366104c -4.1744469539405247e-16,3.4086946186010016 2.7632929650600384,6.171987583661042 6.171987583661039 6.171987583661042c 3.4086946186010016,6.261670430910787e-16 6.171987583661042,-2.7632929650600384 6.171987583661043 -6.17198758366104Z" /></g></g></g><g fill="rgb(72,189,190)" fill-opacity="1.0" stroke-width="0.0"><g fill="rgb(72,189,190)" fill-opacity="1.0"><g fill="rgb(72,189,190)" fill-opacity="1.0"><path d="M 309.8579870819457,538.8811652999246 c 0.0,-3.071943693798525 -2.4903024025126497,-5.562246096311175 -5.562246096311174 -5.562246096311175c -3.071943693798525,-1.88102300588563e-16 -5.562246096311175,2.4903024025126492 -5.562246096311175 5.562246096311173c -3.76204601177126e-16,3.071943693798525 2.4903024025126492,5.562246096311175 5.562246096311172 5.562246096311175c 3.071943693798525,5.64306901765689e-16 5.562246096311175,-2.490302402512649 5.562246096311176 -5.562246096311173Z" /></g></g></g><g fill="rgb(168,145,120)" fill-opacity="1.0" stroke-width="0.0"><g fill="rgb(168,145,120)" fill-opacity="1.0"><g fill="rgb(168,145,120)" fill-opacity="1.0"><path d="M 461.62497385205404,589.4550717454647 c 0.0,-2.252518200625228 -1.8260267914560202,-4.078544992081248 -4.078544992081247 -4.078544992081248c -2.252518200625228,-1.3792696022084201e-16 -4.078544992081248,1.82602679145602 -4.078544992081248 4.078544992081246c -2.7585392044168403e-16,2.252518200625228 1.8260267914560198,4.078544992081248 4.078544992081246 4.078544992081248c 2.252518200625228,4.137808806625261e-16 4.078544992081248,-1.8260267914560195 4.07854499208125 -4.078544992081246Z" /></g></g></g><g fill="rgb(173,210,116)" fill-opacity="1.0" stroke-width="0.0"><g fill="rgb(173,210,116)" fill-opacity="1.0"><g fill="rgb(173,210,116)" fill-opacity="1.0"><path d="M 470.38306900291474,734.3408376604425 c 0.0,-5.614027102606147 -4.551068175375269,-10.165095277981417 -10.165095277981415 -10.165095277981417c -5.614027102606147,-3.4376001607665535e-16 -10.165095277981417,4.551068175375268 -10.165095277981417 10.165095277981413c -6.875200321533107e-16,5.614027102606147 4.551068175375268,10.165095277981417 10.165095277981411 10.165095277981417c 5.614027102606147,1.031280048229966e-15 10.165095277981417,-4.551068175375267 10.165095277981418 -10.165095277981413Z" /></g></g></g><g fill="rgb(245,180,86)" fill-opacity="1.0" stroke-width="0.0"><g fill="rgb(245,180,86)" fill-opacity="1.0"><g fill="rgb(245,180,86)" fill-opacity="1.0"><path d="M 438.0454427662071,647.3891382531954 c 0.0,-3.571666483118273 -2.895407764744888,-6.467074247863161 -6.4670742478631595 -6.467074247863161c -3.571666483118273,-2.1870149630863382e-16 -6.467074247863161,2.8954077647448875 -6.467074247863161 6.4670742478631595c -4.3740299261726765e-16,3.571666483118273 2.895407764744887,6.467074247863161 6.467074247863159 6.467074247863161c 3.571666483118273,6.561044889259015e-16 6.467074247863161,-2.8954077647448866 6.467074247863162 -6.4670742478631595Z" /></g></g></g><g fill="rgb(235,86,92)" fill-opacity="1.0" stroke-width="0.0"><g fill="rgb(235,86,92)" fill-opacity="1.0"><g fill="rgb(235,86,92)" fill-opacity="1.0"><path d="M 355.187162472563,652.2455413206261 c 0.0,-3.1386289594130203 -2.5443614913908794,-5.6829904508039 -5.682990450803899 -5.6829904508039c -3.1386289594130203,-1.9218559544281714e-16 -5.6829904508039,2.544361491390879 -5.6829904508039 5.682990450803898c -3.8437119088563427e-16,3.1386289594130203 2.544361491390879,5.6829904508039 5.6829904508038975 5.6829904508039c 3.1386289594130203,5.765567863284515e-16 5.6829904508039,-2.5443614913908785 5.682990450803901 -5.682990450803898Z" /></g></g></g><g fill="rgb(185,161,185)" fill-opacity="1.0" stroke-width="0.0"><g fill="rgb(185,161,185)" fill-opacity="1.0"><g fill="rgb(185,161,185)" fill-opacity="1.0"><path d="M 389.98225870303827,761.7614192508605 c 0.0,-6.36257051499937 -5.157882506650613,-11.520453021649985 -11.520453021649983 -11.520453021649985c -6.36257051499937,-3.8959508077716526e-16 -11.520453021649985,5.157882506650613 -11.520453021649985 11.520453021649981c -7.791901615543305e-16,6.36257051499937 5.157882506650612,11.520453021649985 11.52045302164998 11.520453021649985c 6.36257051499937,1.1687852423314958e-15 11.520453021649985,-5.157882506650611 11.52045302164999 -11.520453021649981Z" /></g></g></g><g fill="rgb(241,237,226)" fill-opacity="1.0" stroke-width="0.0"><g fill="rgb(241,237,226)" fill-opacity="1.0"><g fill="rgb(241,237,226)" fill-opacity="1.0"><path d="M 327.9254017418197,755.6823705730326 c 0.0,-6.379328553160542 -5.171467580745042,-11.550796133905585 -11.550796133905584 -11.550796133905585c -6.379328553160542,-3.906212146668687e-16 -11.550796133905585,5.171467580745041 -11.550796133905585 11.550796133905582c -7.812424293337374e-16,6.379328553160542 5.17146758074504,11.550796133905585 11.55079613390558 11.550796133905585c 6.379328553160542,1.1718636440006061e-15 11.550796133905585,-5.171467580745039 11.55079613390559 -11.550796133905582Z" /></g></g></g><g fill="rgb(72,189,190)" fill-opacity="1.0" stroke-width="0.0"><g fill="rgb(72,189,190)" fill-opacity="1.0"><g fill="rgb(72,189,190)" fill-opacity="1.0"><path d="M 527.812885970574,554.5759745014125 c 0.0,-4.0208485870261415 -3.259541806259262,-7.280390393285405 -7.280390393285403 -7.280390393285405c -4.0208485870261415,-2.462059675978861e-16 -7.280390393285405,3.259541806259262 -7.280390393285405 7.280390393285402c -4.924119351957722e-16,4.0208485870261415 3.2595418062592616,7.280390393285405 7.280390393285401 7.280390393285405c 4.0208485870261415,7.386179027936583e-16 7.280390393285405,-3.259541806259261 7.280390393285407 -7.280390393285402Z" /></g></g></g><g fill="rgb(97,91,91)" fill-opacity="1.0" stroke-width="0.0"><g fill="rgb(97,91,91)" fill-opacity="1.0"><g fill="rgb(97,91,91)" fill-opacity="1.0"><path d="M 479.3006444761155,690.9802766202337 c 0.0,-3.853705015975677 -3.1240451702395995,-6.977750186215277 -6.9777501862152755 -6.977750186215277c -3.853705015975677,-2.3597137563363563e-16 -6.977750186215277,3.1240451702395995 -6.977750186215277 6.977750186215275c -4.719427512672713e-16,3.853705015975677 3.124045170239599,6.977750186215277 6.977750186215275 6.977750186215277c 3.853705015975677,7.079141269009068e-16 6.977750186215277,-3.1240451702395986 6.977750186215278 -6.977750186215275Z" /></g></g></g><g fill="rgb(241,237,226)" fill-opacity="1.0" stroke-width="0.0"><g fill="rgb(241,237,226)" fill-opacity="1.0"><g fill="rgb(241,237,226)" fill-opacity="1.0"><path d="M 473.74620440509597,756.1668754802549 c 0.0,-4.170107187890476 -3.3805398092755596,-7.550646997166037 -7.5506469971660355 -7.550646997166037c -4.170107187890476,-2.5534542098757214e-16 -7.550646997166037,3.380539809275559 -7.550646997166037 7.550646997166035c -5.106908419751443e-16,4.170107187890476 3.3805398092755587,7.550646997166037 7.550646997166034 7.550646997166037c 4.170107187890476,7.660362629627163e-16 7.550646997166037,-3.3805398092755583 7.550646997166039 -7.550646997166035Z" /></g></g></g><g fill="rgb(173,210,116)" fill-opacity="1.0" stroke-width="0.0"><g fill="rgb(173,210,116)" fill-opacity="1.0"><g fill="rgb(173,210,116)" fill-opacity="1.0"><path d="M 494.4447575345503,626.7656443140672 c 0.0,-3.8251101030378574 -3.100864413205398,-6.925974516243256 -6.925974516243254 -6.925974516243256c -3.8251101030378574,-2.342204422035757e-16 -6.925974516243256,3.1008644132053975 -6.925974516243256 6.9259745162432536c -4.684408844071514e-16,3.8251101030378574 3.100864413205397,6.925974516243256 6.9259745162432536 6.925974516243256c 3.8251101030378574,7.026613266107272e-16 6.925974516243256,-3.1008644132053966 6.925974516243257 -6.9259745162432536Z" /></g></g></g><g fill="rgb(209,95,105)" fill-opacity="1.0" stroke-width="0.0"><g fill="rgb(209,95,105)" fill-opacity="1.0"><g fill="rgb(209,95,105)" fill-opacity="1.0"><path d="M 325.10006843891136,472.6968657721974 c 0.0,-4.560755848188733 -3.697223119338501,-8.257978967527235 -8.257978967527233 -8.257978967527235c -4.560755848188733,-2.7926575255884515e-16 -8.257978967527235,3.6972231193385006 -8.257978967527235 8.257978967527231c -5.585315051176903e-16,4.560755848188733 3.6972231193385,8.257978967527235 8.257978967527231 8.257978967527235c 4.560755848188733,8.377972576765356e-16 8.257978967527235,-3.6972231193384997 8.257978967527235 -8.257978967527231Z" /></g></g></g><g fill="rgb(168,145,120)" fill-opacity="1.0" stroke-width="0.0"><g fill="rgb(168,145,120)" fill-opacity="1.0"><g fill="rgb(168,145,120)" fill-opacity="1.0"><path d="M 352.3250082462507,741.4649652780687 c 0.0,-2.3248865236125433 -1.884692908600335,-4.209579432212879 -4.209579432212878 -4.209579432212879c -2.3248865236125433,-1.4235824197614593e-16 -4.209579432212879,1.8846929086003348 -4.209579432212879 4.209579432212877c -2.8471648395229185e-16,2.3248865236125433 1.8846929086003343,4.209579432212879 4.209579432212877 4.209579432212879c 2.3248865236125433,4.2707472592843776e-16 4.209579432212879,-1.8846929086003341 4.20957943221288 -4.209579432212877Z" /></g></g></g><g fill="rgb(72,189,190)" fill-opacity="1.0" stroke-width="0.0"><g fill="rgb(72,189,190)" fill-opacity="1.0"><g fill="rgb(72,189,190)" fill-opacity="1.0"><path d="M 483.1679003485125,547.801125395329 c 0.0,-5.22672569116149 -4.237098346642977,-9.463824037804468 -9.463824037804466 -9.463824037804468c -5.22672569116149,-3.200446443851078e-16 -9.463824037804468,4.237098346642976 -9.463824037804468 9.463824037804464c -6.400892887702156e-16,5.22672569116149 4.237098346642975,9.463824037804468 9.463824037804464 9.463824037804468c 5.22672569116149,9.601339331553235e-16 9.463824037804468,-4.237098346642975 9.463824037804471 -9.463824037804464Z" /></g></g></g><g fill="rgb(173,210,116)" fill-opacity="1.0" stroke-width="0.0"><g fill="rgb(173,210,116)" fill-opacity="1.0"><g fill="rgb(173,210,116)" fill-opacity="1.0"><path d="M 533.9281868306007,785.4082720264092 c 0.0,-4.673598717027543 -3.788700338775499,-8.462299055803044 -8.462299055803042 -8.462299055803044c -4.673598717027543,-2.861753854653479e-16 -8.462299055803044,3.7887003387754987 -8.462299055803044 8.46229905580304c -5.723507709306958e-16,4.673598717027543 3.7887003387754983,8.462299055803044 8.46229905580304 8.462299055803044c 4.673598717027543,8.585261563960437e-16 8.462299055803044,-3.788700338775498 8.462299055803047 -8.46229905580304Z" /></g></g></g><g fill="rgb(245,180,86)" fill-opacity="1.0" stroke-width="0.0"><g fill="rgb(245,180,86)" fill-opacity="1.0"><g fill="rgb(245,180,86)" fill-opacity="1.0"><path d="M 341.83056829397145,555.8653649104571 c 0.0,-1.2401231462953337 -1.005318442803907,-2.245441589099241 -2.2454415890992405 -2.245441589099241c -1.2401231462953337,-7.593564208295625e-17 -2.245441589099241,1.005318442803907 -2.245441589099241 2.24544158909924c -1.518712841659125e-16,1.2401231462953337 1.0053184428039068,2.245441589099241 2.24544158909924 2.245441589099241c 1.2401231462953337,2.278069262488688e-16 2.245441589099241,-1.0053184428039068 2.245441589099242 -2.24544158909924Z" /></g></g></g><g fill="rgb(245,180,86)" fill-opacity="1.0" stroke-width="0.0"><g fill="rgb(245,180,86)" fill-opacity="1.0"><g fill="rgb(245,180,86)" fill-opacity="1.0"><path d="M 436.74634930466425,765.2154390432318 c 0.0,-6.132813371917735 -4.971627541572414,-11.104440913490151 -11.10444091349015 -11.104440913490151c -6.132813371917735,-3.7552651328435705e-16 -11.104440913490151,4.971627541572413 -11.104440913490151 11.104440913490148c -7.510530265687141e-16,6.132813371917735 4.971627541572413,11.104440913490151 11.104440913490146 11.104440913490151c 6.132813371917735,1.1265795398530712e-15 11.104440913490151,-4.9716275415724125 11.104440913490157 -11.104440913490148Z" /></g></g></g><g fill="rgb(235,86,92)" fill-opacity="1.0" stroke-width="0.0"><g fill="rgb(235,86,92)" fill-opacity="1.0"><g fill="rgb(235,86,92)" fill-opacity="1.0"><path d="M 272.27862157241054,509.0744593806187 c 0.0,-4.01339609095778 -3.2535003645162957,-7.266896455474076 -7.2668964554740745 -7.266896455474076c -4.01339609095778,-2.457496338250972e-16 -7.266896455474076,3.253500364516295 -7.266896455474076 7.266896455474074c -4.914992676501944e-16,4.01339609095778 3.2535003645162948,7.266896455474076 7.266896455474073 7.266896455474076c 4.01339609095778,7.372489014752917e-16 7.266896455474076,-3.2535003645162943 7.266896455474078 -7.266896455474074Z" /></g></g></g><g fill="rgb(245,180,86)" fill-opacity="1.0" stroke-width="0.0"><g fill="rgb(245,180,86)" fill-opacity="1.0"><g fill="rgb(245,180,86)" fill-opacity="1.0"><path d="M 218.86253780735242,636.5208450061623 c 0.0,-3.016958288581797 -2.445727924474274,-5.462686213056071 -5.46268621305607 -5.462686213056071c -3.016958288581797,-1.847354155636387e-16 -5.462686213056071,2.4457279244742733 -5.462686213056071 5.462686213056069c -3.694708311272774e-16,3.016958288581797 2.4457279244742733,5.462686213056071 5.4626862130560685 5.462686213056071c 3.016958288581797,5.542062466909161e-16 5.462686213056071,-2.445727924474273 5.462686213056072 -5.462686213056069Z" /></g></g></g><g fill="rgb(209,95,105)" fill-opacity="1.0" stroke-width="0.0"><g fill="rgb(209,95,105)" fill-opacity="1.0"><g fill="rgb(209,95,105)" fill-opacity="1.0"><path d="M 547.4137863702297,647.879259016589 c 0.0,-3.69436626284872 -2.9948755892585184,-6.689241852107239 -6.689241852107237 -6.689241852107239c -3.69436626284872,-2.262146909337827e-16 -6.689241852107239,2.994875589258518 -6.689241852107239 6.689241852107236c -4.524293818675654e-16,3.69436626284872 2.9948755892585175,6.689241852107239 6.689241852107236 6.689241852107239c 3.69436626284872,6.786440728013481e-16 6.689241852107239,-2.994875589258517 6.68924185210724 -6.689241852107236Z" /></g></g></g><g fill="rgb(97,91,91)" fill-opacity="1.0" stroke-width="0.0"><g fill="rgb(97,91,91)" fill-opacity="1.0"><g fill="rgb(97,91,91)" fill-opacity="1.0"><path d="M 495.3320818945618,496.91455387954534 c 0.0,-3.420482027021875 -2.7728485475953435,-6.193330574617219 -6.193330574617217 -6.193330574617219c -3.420482027021875,-2.094441182966695e-16 -6.193330574617219,2.772848547595343 -6.193330574617219 6.193330574617217c -4.18888236593339e-16,3.420482027021875 2.7728485475953426,6.193330574617219 6.1933305746172165 6.193330574617219c 3.420482027021875,6.283323548900085e-16 6.193330574617219,-2.772848547595342 6.19333057461722 -6.193330574617217Z" /></g></g></g><g fill="rgb(191,49,49)" fill-opacity="1.0" stroke-width="0.0"><g fill="rgb(191,49,49)" fill-opacity="1.0"><g fill="rgb(191,49,49)" fill-opacity="1.0"><path d="M 491.1035699001704,561.6022501465981 c 0.0,-3.046390257902957 -2.469587249779984,-5.515977507682941 -5.5159775076829405 -5.515977507682941c -3.046390257902957,-1.8653760391472679e-16 -5.515977507682941,2.4695872497799836 -5.515977507682941 5.51597750768294c -3.7307520782945357e-16,3.046390257902957 2.469587249779983,5.515977507682941 5.515977507682939 5.515977507682941c 3.046390257902957,5.596128117441804e-16 5.515977507682941,-2.469587249779983 5.515977507682942 -5.51597750768294Z" /></g></g></g><g fill="rgb(241,237,226)" fill-opacity="1.0" stroke-width="0.0"><g fill="rgb(241,237,226)" fill-opacity="1.0"><g fill="rgb(241,237,226)" fill-opacity="1.0"><path d="M 560.5087772173027,716.0477473777868 c 0.0,-2.5726485188061785 -2.0855436901845184,-4.658192208990697 -4.658192208990696 -4.658192208990697c -2.5726485188061785,-1.5752928869435829e-16 -4.658192208990697,2.0855436901845184 -4.658192208990697 4.6581922089906955c -3.1505857738871657e-16,2.5726485188061785 2.085543690184518,4.658192208990697 4.6581922089906955 4.658192208990697c 2.5726485188061785,4.725878660830748e-16 4.658192208990697,-2.0855436901845175 4.658192208990697 -4.6581922089906955Z" /></g></g></g><g fill="rgb(245,180,86)" fill-opacity="1.0" stroke-width="0.0"><g fill="rgb(245,180,86)" fill-opacity="1.0"><g fill="rgb(245,180,86)" fill-opacity="1.0"><path d="M 532.4238152649609,702.415003069524 c 0.0,-2.9033787926198595 -2.3536535507671044,-5.257032343386965 -5.257032343386964 -5.257032343386965c -2.9033787926198595,-1.777806772547109e-16 -5.257032343386965,2.3536535507671044 -5.257032343386965 5.257032343386963c -3.555613545094218e-16,2.9033787926198595 2.353653550767104,5.257032343386965 5.257032343386962 5.257032343386965c 2.9033787926198595,5.333420317641327e-16 5.257032343386965,-2.3536535507671035 5.257032343386966 -5.257032343386963Z" /></g></g></g><g fill="rgb(209,95,105)" fill-opacity="1.0" stroke-width="0.0"><g fill="rgb(209,95,105)" fill-opacity="1.0"><g fill="rgb(209,95,105)" fill-opacity="1.0"><path d="M 398.90373240632226,735.3066923392715 c 0.0,-2.7283921358609744 -2.21179883753977,-4.940190973400745 -4.940190973400744 -4.940190973400745c -2.7283921358609744,-1.6706583480004763e-16 -4.940190973400745,2.21179883753977 -4.940190973400745 4.940190973400743c -3.3413166960009526e-16,2.7283921358609744 2.2117988375397695,4.940190973400745 4.940190973400743 4.940190973400745c 2.7283921358609744,5.01197504400143e-16 4.940190973400745,-2.2117988375397695 4.940190973400745 -4.940190973400743Z" /></g></g></g><g fill="rgb(240,162,188)" fill-opacity="1.0" stroke-width="0.0"><g fill="rgb(240,162,188)" fill-opacity="1.0"><g fill="rgb(240,162,188)" fill-opacity="1.0"><path d="M 170.7945886839364,543.273050223972 c 0.0,-2.4760736054338692 -2.007254254320501,-4.483327859754371 -4.48332785975437 -4.483327859754371c -2.4760736054338692,-1.5161578076739172e-16 -4.483327859754371,2.0072542543205008 -4.483327859754371 4.483327859754369c -3.0323156153478343e-16,2.4760736054338692 2.0072542543205003,4.483327859754371 4.483327859754369 4.483327859754371c 2.4760736054338692,4.548473423021752e-16 4.483327859754371,-2.0072542543205003 4.483327859754371 -4.483327859754369Z" /></g></g></g><g fill="rgb(191,49,49)" fill-opacity="1.0" stroke-width="0.0"><g fill="rgb(191,49,49)" fill-opacity="1.0"><g fill="rgb(191,49,49)" fill-opacity="1.0"><path d="M 235.94317417557508,545.0677587163356 c 0.0,-1.9512320065315787 -1.5817860735971743,-3.533018080128753 -3.5330180801287523 -3.533018080128753c -1.9512320065315787,-1.1947850155963825e-16 -3.533018080128753,1.581786073597174 -3.533018080128753 3.533018080128752c -2.389570031192765e-16,1.9512320065315787 1.5817860735971738,3.533018080128753 3.5330180801287514 3.533018080128753c 1.9512320065315787,3.5843550467891476e-16 3.533018080128753,-1.5817860735971736 3.533018080128754 -3.533018080128752Z" /></g></g></g><g fill="rgb(191,49,49)" fill-opacity="1.0" stroke-width="0.0"><g fill="rgb(191,49,49)" fill-opacity="1.0"><g fill="rgb(191,49,49)" fill-opacity="1.0"><path d="M 451.7122105472573,520.244219054303 c 0.0,-2.8831742536064295 -2.3372745356997453,-5.220448789306175 -5.220448789306174 -5.220448789306175c -2.8831742536064295,-1.7654350605315866e-16 -5.220448789306175,2.337274535699745 -5.220448789306175 5.2204487893061735c -3.530870121063173e-16,2.8831742536064295 2.3372745356997444,5.220448789306175 5.220448789306173 5.220448789306175c 2.8831742536064295,5.29630518159476e-16 5.220448789306175,-2.3372745356997444 5.220448789306178 -5.2204487893061735Z" /></g></g></g><g fill="rgb(72,189,190)" fill-opacity="1.0" stroke-width="0.0"><g fill="rgb(72,189,190)" fill-opacity="1.0"><g fill="rgb(72,189,190)" fill-opacity="1.0"><path d="M 578.4432860256159,577.1606348149458 c 0.0,-2.9020057449146703 -2.3525404756785537,-5.254546220593225 -5.254546220593224 -5.254546220593225c -2.9020057449146703,-1.7769660233084907e-16 -5.254546220593225,2.3525404756785537 -5.254546220593225 5.254546220593223c -3.5539320466169814e-16,2.9020057449146703 2.3525404756785533,5.254546220593225 5.254546220593222 5.254546220593225c 2.9020057449146703,5.330898069925473e-16 5.254546220593225,-2.352540475678553 5.254546220593228 -5.254546220593223Z" /></g></g></g><g fill="rgb(97,91,91)" fill-opacity="1.0" stroke-width="0.0"><g fill="rgb(97,91,91)" fill-opacity="1.0"><g fill="rgb(97,91,91)" fill-opacity="1.0"><path d="M 258.3210755863463,783.2378041524887 c 0.0,-3.284456204148342 -2.6625778306581935,-5.947034034806536 -5.947034034806535 -5.947034034806536c -3.284456204148342,-2.0111493886749662e-16 -5.947034034806536,2.662577830658193 -5.947034034806536 5.947034034806534c -4.0222987773499324e-16,3.284456204148342 2.6625778306581926,5.947034034806536 5.947034034806533 5.947034034806536c 3.284456204148342,6.033448166024899e-16 5.947034034806536,-2.662577830658192 5.947034034806537 -5.947034034806534Z" /></g></g></g><g fill="rgb(245,180,86)" fill-opacity="1.0" stroke-width="0.0"><g fill="rgb(245,180,86)" fill-opacity="1.0"><g fill="rgb(245,180,86)" fill-opacity="1.0"><path d="M 283.86307756283855,717.586779137529 c 0.0,-2.1105132555689643 -1.7109090383031256,-3.8214222938720903 -3.8214222938720894 -3.8214222938720903c -2.1105132555689643,-1.292316651495296e-16 -3.8214222938720903,1.7109090383031254 -3.8214222938720903 3.821422293872089c -2.584633302990592e-16,2.1105132555689643 1.7109090383031251,3.8214222938720903 3.8214222938720885 3.8214222938720903c 2.1105132555689643,3.876949954485888e-16 3.8214222938720903,-1.710909038303125 3.821422293872091 -3.821422293872089Z" /></g></g></g><g fill="rgb(245,180,86)" fill-opacity="1.0" stroke-width="0.0"><g fill="rgb(245,180,86)" fill-opacity="1.0"><g fill="rgb(245,180,86)" fill-opacity="1.0"><path d="M 333.46811061284313,355.97896573665486 c 0.0,-0.8730617565493363 -0.7077563935386771,-1.5808181500880136 -1.5808181500880132 -1.5808181500880136c -0.8730617565493363,-5.345961428080552e-17 -1.5808181500880136,0.707756393538677 -1.5808181500880136 1.5808181500880132c -1.0691922856161104e-16,0.8730617565493363 0.7077563935386769,1.5808181500880136 1.580818150088013 1.5808181500880136c 0.8730617565493363,1.6037884284241656e-16 1.5808181500880136,-0.7077563935386769 1.5808181500880139 -1.5808181500880132Z" /></g></g></g><g fill="rgb(72,189,190)" fill-opacity="1.0" stroke-width="0.0"><g fill="rgb(72,189,190)" fill-opacity="1.0"><g fill="rgb(72,189,190)" fill-opacity="1.0"><path d="M 370.1019281466043,514.7136052125257 c 0.0,-1.208675499097274 -0.9798250877242568,-2.188500586821531 -2.1885005868215304 -2.188500586821531c -1.208675499097274,-7.40100290588653e-17 -2.188500586821531,0.9798250877242566 -2.188500586821531 2.18850058682153c -1.480200581177306e-16,1.208675499097274 0.9798250877242565,2.188500586821531 2.18850058682153 2.188500586821531c 1.208675499097274,2.2203008717659589e-16 2.188500586821531,-0.9798250877242564 2.188500586821531 -2.18850058682153Z" /></g></g></g><g fill="rgb(72,189,190)" fill-opacity="1.0" stroke-width="0.0"><g fill="rgb(72,189,190)" fill-opacity="1.0"><g fill="rgb(72,189,190)" fill-opacity="1.0"><path d="M 416.34443237933044,733.1297248141559 c 0.0,-0.6767453521039742 -0.5486105033878032,-1.2253558554917776 -1.2253558554917774 -1.2253558554917776c -0.6767453521039742,-4.143870146459903e-17 -1.2253558554917776,0.5486105033878032 -1.2253558554917776 1.2253558554917772c -8.287740292919806e-17,0.6767453521039742 0.548610503387803,1.2253558554917776 1.2253558554917772 1.2253558554917776c 0.6767453521039742,1.2431610439379708e-16 1.2253558554917776,-0.5486105033878029 1.2253558554917776 -1.2253558554917772Z" /></g></g></g><g fill="rgb(209,95,105)" fill-opacity="1.0" stroke-width="0.0"><g fill="rgb(209,95,105)" fill-opacity="1.0"><g fill="rgb(209,95,105)" fill-opacity="1.0"><path d="M 383.1748816466179,400.79685147158284 c 0.0,-1.2066915104506941 -0.9782167471472113,-2.1849082575979057 -2.1849082575979053 -2.1849082575979057c -1.2066915104506941,-7.388854479158637e-17 -2.1849082575979057,0.9782167471472112 -2.1849082575979057 2.184908257597905c -1.4777708958317274e-16,1.2066915104506941 0.9782167471472111,2.1849082575979057 2.184908257597905 2.1849082575979057c 1.2066915104506941,2.2166563437475913e-16 2.1849082575979057,-0.978216747147211 2.1849082575979066 -2.184908257597905Z" /></g></g></g><g fill="rgb(72,189,190)" fill-opacity="1.0" stroke-width="0.0"><g fill="rgb(72,189,190)" fill-opacity="1.0"><g fill="rgb(72,189,190)" fill-opacity="1.0"><path d="M 228.78027474121956,492.46995042107574 c 0.0,-0.9696313119901813 -0.7860414859410535,-1.755672797931235 -1.7556727979312345 -1.755672797931235c -0.9696313119901813,-5.937279412909121e-17 -1.755672797931235,0.7860414859410534 -1.755672797931235 1.7556727979312343c -1.1874558825818241e-16,0.9696313119901813 0.7860414859410533,1.755672797931235 1.755672797931234 1.755672797931235c 0.9696313119901813,1.7811838238727362e-16 1.755672797931235,-0.7860414859410532 1.7556727979312354 -1.7556727979312343Z" /></g></g></g><g fill="rgb(209,95,105)" fill-opacity="1.0" stroke-width="0.0"><g fill="rgb(209,95,105)" fill-opacity="1.0"><g fill="rgb(209,95,105)" fill-opacity="1.0"><path d="M 360.4015490945881,746.2267272816629 c 0.0,-0.5970601401039065 -0.4840128757395168,-1.0810730158434234 -1.0810730158434232 -1.0810730158434234c -0.5970601401039065,-3.6559389473835965e-17 -1.0810730158434234,0.48401287573951673 -1.0810730158434234 1.081073015843423c -7.311877894767193e-17,0.5970601401039065 0.4840128757395167,1.0810730158434234 1.081073015843423 1.0810730158434234c 0.5970601401039065,1.096781684215079e-16 1.0810730158434234,-0.4840128757395166 1.0810730158434239 -1.081073015843423Z" /></g></g></g><g fill="rgb(173,210,116)" fill-opacity="1.0" stroke-width="0.0"><g fill="rgb(173,210,116)" fill-opacity="1.0"><g fill="rgb(173,210,116)" fill-opacity="1.0"><path d="M 155.8025184201987,736.8959109841417 c 0.0,-0.8632041675693299 -0.6997652387628103,-1.5629694063321404 -1.56296940633214 -1.5629694063321404c -0.8632041675693299,-5.285601104122177e-17 -1.5629694063321404,0.6997652387628103 -1.5629694063321404 1.56296940633214c -1.0571202208244354e-16,0.8632041675693299 0.6997652387628102,1.5629694063321404 1.5629694063321398 1.5629694063321404c 0.8632041675693299,1.585680331236653e-16 1.5629694063321404,-0.69976523876281 1.5629694063321407 -1.56296940633214Z" /></g></g></g><g fill="rgb(168,145,120)" fill-opacity="1.0" stroke-width="0.0"><g fill="rgb(168,145,120)" fill-opacity="1.0"><g fill="rgb(168,145,120)" fill-opacity="1.0"><path d="M 299.8371561885198,486.9240641097499 c 0.0,-1.963435522538312 -1.5916789779795104,-3.555114500517823 -3.555114500517822 -3.555114500517823c -1.963435522538312,-1.2022575140043773e-16 -3.555114500517823,1.5916789779795102 -3.555114500517823 3.5551145005178215c -2.4045150280087546e-16,1.963435522538312 1.59167897797951,3.555114500517823 3.555114500517821 3.555114500517823c 1.963435522538312,3.6067725420131317e-16 3.555114500517823,-1.5916789779795097 3.5551145005178237 -3.5551145005178215Z" /></g></g></g><g fill="rgb(185,161,185)" fill-opacity="1.0" stroke-width="0.0"><g fill="rgb(185,161,185)" fill-opacity="1.0"><g fill="rgb(185,161,185)" fill-opacity="1.0"><path d="M 564.3773504848034,675.4176033662002 c 0.0,-1.607289057399705 -1.3029652233714712,-2.9102542807711766 -2.910254280771176 -2.9102542807711766c -1.607289057399705,-9.841806997245576e-17 -2.9102542807711766,1.3029652233714712 -2.9102542807711766 2.9102542807711758c -1.9683613994491152e-16,1.607289057399705 1.302965223371471,2.9102542807711766 2.9102542807711753 2.9102542807711766c 1.607289057399705,2.9525420991736726e-16 2.9102542807711766,-1.3029652233714708 2.910254280771177 -2.9102542807711758Z" /></g></g></g><g fill="rgb(240,162,188)" fill-opacity="1.0" stroke-width="0.0"><g fill="rgb(240,162,188)" fill-opacity="1.0"><g fill="rgb(240,162,188)" fill-opacity="1.0"><path d="M 236.36518011127126,510.4383915263969 c 0.0,-1.7747113892719695 -1.4386878396868195,-3.213399228958789 -3.2133992289587883 -3.213399228958789c -1.7747113892719695,-1.0866973111411348e-16 -3.213399228958789,1.4386878396868192 -3.213399228958789 3.2133992289587883c -2.1733946222822696e-16,1.7747113892719695 1.438687839686819,3.213399228958789 3.213399228958788 3.213399228958789c 1.7747113892719695,3.2600919334234044e-16 3.213399228958789,-1.4386878396868188 3.2133992289587896 -3.2133992289587883Z" /></g></g></g><g fill="rgb(191,49,49)" fill-opacity="1.0" stroke-width="0.0"><g fill="rgb(191,49,49)" fill-opacity="1.0"><g fill="rgb(191,49,49)" fill-opacity="1.0"><path d="M 238.4035254024108,703.4417944316256 c 0.0,-0.8749701931440707 -0.7093034870763953,-1.5842736802204662 -1.5842736802204658 -1.5842736802204662c -0.8749701931440707,-5.357647231916137e-17 -1.5842736802204662,0.7093034870763953 -1.5842736802204662 1.5842736802204658c -1.0715294463832274e-16,0.8749701931440707 0.7093034870763952,1.5842736802204662 1.5842736802204656 1.5842736802204662c 0.8749701931440707,1.6072941695748412e-16 1.5842736802204662,-0.7093034870763951 1.5842736802204664 -1.5842736802204658Z" /></g></g></g><g fill="rgb(168,145,120)" fill-opacity="1.0" stroke-width="0.0"><g fill="rgb(168,145,120)" fill-opacity="1.0"><g fill="rgb(168,145,120)" fill-opacity="1.0"><path d="M 228.28179148910212,730.5886144207872 c 0.0,-0.9710420494697048 -0.7871851146285403,-1.7582271640982454 -1.758227164098245 -1.7582271640982454c -0.9710420494697048,-5.945917688602799e-17 -1.7582271640982454,0.7871851146285402 -1.7582271640982454 1.7582271640982448c -1.1891835377205598e-16,0.9710420494697048 0.7871851146285401,1.7582271640982454 1.7582271640982445 1.7582271640982454c 0.9710420494697048,1.78377530658084e-16 1.7582271640982454,-0.78718511462854 1.7582271640982459 -1.7582271640982448Z" /></g></g></g><g fill="rgb(168,145,120)" fill-opacity="1.0" stroke-width="0.0"><g fill="rgb(168,145,120)" fill-opacity="1.0"><g fill="rgb(168,145,120)" fill-opacity="1.0"><path d="M 401.19622758248556,814.2196052815984 c 0.0,-1.3557325965827707 -1.0990384196332914,-2.4547710162160623 -2.454771016216062 -2.4547710162160623c -1.3557325965827707,-8.3014679245241e-17 -2.4547710162160623,1.0990384196332914 -2.4547710162160623 2.4547710162160614c -1.66029358490482e-16,1.3557325965827707 1.0990384196332912,2.4547710162160623 2.4547710162160614 2.4547710162160623c 1.3557325965827707,2.49044037735723e-16 2.4547710162160623,-1.099038419633291 2.454771016216063 -2.4547710162160614Z" /></g></g></g><g fill="rgb(97,91,91)" fill-opacity="1.0" stroke-width="0.0"><g fill="rgb(97,91,91)" fill-opacity="1.0"><g fill="rgb(97,91,91)" fill-opacity="1.0"><path d="M 528.231301803049,679.0444345356402 c 0.0,-0.8674065905680558 -0.7031719757128488,-1.5705785662809049 -1.5705785662809044 -1.5705785662809049c -0.8674065905680558,-5.311333523492441e-17 -1.5705785662809049,0.7031719757128488 -1.5705785662809049 1.5705785662809044c -1.0622667046984882e-16,0.8674065905680558 0.7031719757128487,1.5705785662809049 1.5705785662809042 1.5705785662809049c 0.8674065905680558,1.5934000570477323e-16 1.5705785662809049,-0.7031719757128486 1.570578566280905 -1.5705785662809044Z" /></g></g></g><g fill="rgb(235,86,92)" fill-opacity="1.0" stroke-width="0.0"><g fill="rgb(235,86,92)" fill-opacity="1.0"><g fill="rgb(235,86,92)" fill-opacity="1.0"><path d="M 576.2104641563684,587.1252541776794 c 0.0,-1.1893213238668152 -0.9641354287072764,-2.1534567525740917 -2.1534567525740913 -2.1534567525740917c -1.1893213238668152,-7.282492762155939e-17 -2.1534567525740917,0.9641354287072762 -2.1534567525740917 2.153456752574091c -1.4564985524311878e-16,1.1893213238668152 0.9641354287072761,2.1534567525740917 2.153456752574091 2.1534567525740917c 1.1893213238668152,2.1847478286467815e-16 2.1534567525740917,-0.964135428707276 2.1534567525740917 -2.153456752574091Z" /></g></g></g><g fill="rgb(97,91,91)" fill-opacity="1.0" stroke-width="0.0"><g fill="rgb(97,91,91)" fill-opacity="1.0"><g fill="rgb(97,91,91)" fill-opacity="1.0"><path d="M 249.18065630279855,542.4326180820009 c 0.0,-0.7872484967223128 -0.6381910015863158,-1.4254394983086287 -1.4254394983086285 -1.4254394983086287c -0.7872484967223128,-4.820506758222729e-17 -1.4254394983086287,0.6381910015863157 -1.4254394983086287 1.4254394983086283c -9.641013516445458e-17,0.7872484967223128 0.6381910015863157,1.4254394983086287 1.425439498308628 1.4254394983086287c 0.7872484967223128,1.4461520274668188e-16 1.4254394983086287,-0.6381910015863156 1.425439498308629 -1.4254394983086283Z" /></g></g></g><g fill="rgb(245,180,86)" fill-opacity="1.0" stroke-width="0.0"><g fill="rgb(245,180,86)" fill-opacity="1.0"><g fill="rgb(245,180,86)" fill-opacity="1.0"><path d="M 261.02183716664445,802.26030170852 c 0.0,-1.2776721808760216 -1.0357579496272542,-2.313430130503276 -2.3134301305032756 -2.313430130503276c -1.2776721808760216,-7.82348573334719e-17 -2.313430130503276,1.035757949627254 -2.313430130503276 2.313430130503275c -1.564697146669438e-16,1.2776721808760216 1.035757949627254,2.313430130503276 2.313430130503275 2.313430130503276c 1.2776721808760216,2.347045720004157e-16 2.313430130503276,-1.0357579496272538 2.313430130503277 -2.313430130503275Z" /></g></g></g><g fill="rgb(191,49,49)" fill-opacity="1.0" stroke-width="0.0"><g fill="rgb(191,49,49)" fill-opacity="1.0"><g fill="rgb(191,49,49)" fill-opacity="1.0"><path d="M 103.84494813649448,794.9266674102653 c 0.0,-0.9822762439018248 -0.7962922286166906,-1.7785684725185156 -1.7785684725185151 -1.7785684725185156c -0.9822762439018248,-6.014707289864272e-17 -1.7785684725185156,0.7962922286166905 -1.7785684725185156 1.778568472518515c -1.2029414579728544e-16,0.9822762439018248 0.7962922286166904,1.7785684725185156 1.7785684725185147 1.7785684725185156c 0.9822762439018248,1.8044121869592818e-16 1.7785684725185156,-0.7962922286166902 1.778568472518516 -1.778568472518515Z" /></g></g></g><g fill="rgb(209,95,105)" fill-opacity="1.0" stroke-width="0.0"><g fill="rgb(209,95,105)" fill-opacity="1.0"><g fill="rgb(209,95,105)" fill-opacity="1.0"><path d="M 335.9734208361709,494.5047506600232 c 0.0,-1.1326520218038898 -0.9181958825623027,-2.0508479043661927 -2.0508479043661922 -2.0508479043661927c -1.1326520218038898,-6.935493365249558e-17 -2.0508479043661927,0.9181958825623026 -2.0508479043661927 2.050847904366192c -1.3870986730499116e-16,1.1326520218038898 0.9181958825623024,2.0508479043661927 2.050847904366192 2.0508479043661927c 1.1326520218038898,2.0806480095748675e-16 2.0508479043661927,-0.9181958825623023 2.0508479043661936 -2.050847904366192Z" /></g></g></g><g fill="rgb(245,180,86)" fill-opacity="1.0" stroke-width="0.0"><g fill="rgb(245,180,86)" fill-opacity="1.0"><g fill="rgb(245,180,86)" fill-opacity="1.0"><path d="M 236.85958383961457,468.9321279628567 c 0.0,-0.5473853030289593 -0.4437434637832054,-0.9911287668121648 -0.9911287668121646 -0.9911287668121648c -0.5473853030289593,-3.3517682962735945e-17 -0.9911287668121648,0.44374346378320534 -0.9911287668121648 0.9911287668121644c -6.703536592547189e-17,0.5473853030289593 0.44374346378320534,0.9911287668121648 0.9911287668121643 0.9911287668121648c 0.5473853030289593,1.0055304888820783e-16 0.9911287668121648,-0.4437434637832053 0.991128766812165 -0.9911287668121644Z" /></g></g></g><g fill="rgb(72,189,190)" fill-opacity="1.0" stroke-width="0.0"><g fill="rgb(72,189,190)" fill-opacity="1.0"><g fill="rgb(72,189,190)" fill-opacity="1.0"><path d="M 4.549642864851158,674.4489277890519 c 0.0,-1.2563491857169098 -1.0184722467087082,-2.274821432425618 -2.2748214324256177 -2.274821432425618c -1.2563491857169098,-7.692920044497985e-17 -2.274821432425618,1.018472246708708 -2.274821432425618 2.2748214324256173c -1.538584008899597e-16,1.2563491857169098 1.018472246708708,2.274821432425618 2.2748214324256173 2.274821432425618c 1.2563491857169098,2.3078760133493955e-16 2.274821432425618,-1.0184722467087077 2.274821432425619 -2.2748214324256173Z" /></g></g></g><g fill="rgb(168,145,120)" fill-opacity="1.0" stroke-width="0.0"><g fill="rgb(168,145,120)" fill-opacity="1.0"><g fill="rgb(168,145,120)" fill-opacity="1.0"><path d="M 323.46523180716065,795.9431969032256 c 0.0,-1.04506979801657 -0.8471964619820154,-1.8922662599985856 -1.892266259998585 -1.8922662599985856c -1.04506979801657,-6.399206915132817e-17 -1.8922662599985856,0.8471964619820153 -1.8922662599985856 1.8922662599985849c -1.2798413830265634e-16,1.04506979801657 0.8471964619820151,1.8922662599985856 1.8922662599985847 1.8922662599985856c 1.04506979801657,1.919762074539845e-16 1.8922662599985856,-0.847196461982015 1.892266259998586 -1.8922662599985849Z" /></g></g></g><g fill="rgb(185,161,185)" fill-opacity="1.0" stroke-width="0.0"><g fill="rgb(185,161,185)" fill-opacity="1.0"><g fill="rgb(185,161,185)" fill-opacity="1.0"><path d="M 429.16491671165267,497.02213311905126 c 0.0,-0.9386733218662111 -0.7609450763491978,-1.6996183982154092 -1.6996183982154087 -1.6996183982154092c -0.9386733218662111,-5.747716395342343e-17 -1.6996183982154092,0.7609450763491977 -1.6996183982154092 1.6996183982154085c -1.1495432790684686e-16,0.9386733218662111 0.7609450763491976,1.6996183982154092 1.6996183982154085 1.6996183982154092c 0.9386733218662111,1.724314918602703e-16 1.6996183982154092,-0.7609450763491975 1.6996183982154094 -1.6996183982154085Z" /></g></g></g><g fill="rgb(191,49,49)" fill-opacity="1.0" stroke-width="0.0"><g fill="rgb(191,49,49)" fill-opacity="1.0"><g fill="rgb(191,49,49)" fill-opacity="1.0"><path d="M 245.56878153309145,578.7387958861509 c 0.0,-0.6029253544043942 -0.4887675713718756,-1.09169292577627 -1.0916929257762698 -1.09169292577627c -0.6029253544043942,-3.691853026980625e-17 -1.09169292577627,0.48876757137187554 -1.09169292577627 1.0916929257762695c -7.38370605396125e-17,0.6029253544043942 0.4887675713718755,1.09169292577627 1.0916929257762695 1.09169292577627c 0.6029253544043942,1.1075559080941874e-16 1.09169292577627,-0.48876757137187543 1.0916929257762704 -1.0916929257762695Z" /></g></g></g><g fill="rgb(72,189,190)" fill-opacity="1.0" stroke-width="0.0"><g fill="rgb(72,189,190)" fill-opacity="1.0"><g fill="rgb(72,189,190)" fill-opacity="1.0"><path d="M 476.6293993426359,733.8963850699245 c 0.0,-0.9145362447691618 -0.7413781092834411,-1.6559143540526031 -1.6559143540526027 -1.6559143540526031c -0.9145362447691618,-5.599919424303971e-17 -1.6559143540526031,0.741378109283441 -1.6559143540526031 1.6559143540526027c -1.1199838848607943e-16,0.9145362447691618 0.741378109283441,1.6559143540526031 1.6559143540526025 1.6559143540526031c 0.9145362447691618,1.6799758272911916e-16 1.6559143540526031,-0.7413781092834408 1.6559143540526033 -1.6559143540526027Z" /></g></g></g><g fill="rgb(209,95,105)" fill-opacity="1.0" stroke-width="0.0"><g fill="rgb(209,95,105)" fill-opacity="1.0"><g fill="rgb(209,95,105)" fill-opacity="1.0"><path d="M 535.9360950214897,691.7645953055367 c 0.0,-0.765760352658167 -0.6207714190280459,-1.386531771686213 -1.3865317716862129 -1.386531771686213c -0.765760352658167,-4.688929823983863e-17 -1.386531771686213,0.6207714190280459 -1.386531771686213 1.3865317716862127c -9.377859647967726e-17,0.765760352658167 0.6207714190280458,1.386531771686213 1.3865317716862124 1.386531771686213c 0.765760352658167,1.4066789471951588e-16 1.386531771686213,-0.6207714190280457 1.3865317716862133 -1.3865317716862127Z" /></g></g></g><g fill="rgb(72,189,190)" fill-opacity="1.0" stroke-width="0.0"><g fill="rgb(72,189,190)" fill-opacity="1.0"><g fill="rgb(72,189,190)" fill-opacity="1.0"><path d="M 800.0,687.3372997217788 c 0.0,-0.6005677740011929 -0.48685637483723165,-1.0874241488384246 -1.0874241488384244 -1.0874241488384246c -0.6005677740011929,-3.677417010508059e-17 -1.0874241488384246,0.4868563748372316 -1.0874241488384246 1.0874241488384242c -7.354834021016118e-17,0.6005677740011929 0.48685637483723154,1.0874241488384246 1.0874241488384242 1.0874241488384246c 0.6005677740011929,1.1032251031524177e-16 1.0874241488384246,-0.4868563748372315 1.087424148838425 -1.0874241488384242Z" /></g></g></g><g fill="rgb(185,161,185)" fill-opacity="1.0" stroke-width="0.0"><g fill="rgb(185,161,185)" fill-opacity="1.0"><g fill="rgb(185,161,185)" fill-opacity="1.0"><path d="M 698.4365337155864,182.372407367327 c 0.0,-0.9508142442716668 -0.77078723859197,-1.721601482863637 -1.7216014828636366 -1.721601482863637c -0.9508142442716668,-5.822058104155032e-17 -1.721601482863637,0.77078723859197 -1.721601482863637 1.7216014828636363c -1.1644116208310063e-16,0.9508142442716668 0.7707872385919698,1.721601482863637 1.7216014828636363 1.721601482863637c 0.9508142442716668,1.7466174312465095e-16 1.721601482863637,-0.7707872385919697 1.7216014828636372 -1.7216014828636363Z" /></g></g></g><g fill="rgb(245,180,86)" fill-opacity="1.0" stroke-width="0.0"><g fill="rgb(245,180,86)" fill-opacity="1.0"><g fill="rgb(245,180,86)" fill-opacity="1.0"><path d="M 579.3566337615933,586.3250385980363 c 0.0,-0.3260297467895481 -0.26429933053774657,-0.5903290773272948 -0.5903290773272947 -0.5903290773272948c -0.3260297467895481,-1.9963564291632108e-17 -0.5903290773272948,0.26429933053774657 -0.5903290773272948 0.5903290773272946c -3.9927128583264216e-17,0.3260297467895481 0.2642993305377465,0.5903290773272948 0.5903290773272946 0.5903290773272948c 0.3260297467895481,5.989069287489632e-17 0.5903290773272948,-0.2642993305377465 0.5903290773272948 -0.5903290773272946Z" /></g></g></g><g fill="rgb(168,145,120)" fill-opacity="1.0" stroke-width="0.0"><g fill="rgb(168,145,120)" fill-opacity="1.0"><g fill="rgb(168,145,120)" fill-opacity="1.0"><path d="M 565.9324049850653,512.8977136345218 c 0.0,-0.5610183415570942 -0.45479522513830417,-1.0158135666953985 -1.0158135666953982 -1.0158135666953985c -0.5610183415570942,-3.4352465812542596e-17 -1.0158135666953985,0.4547952251383041 -1.0158135666953985 1.015813566695398c -6.870493162508519e-17,0.5610183415570942 0.45479522513830406,1.0158135666953985 1.015813566695398 1.0158135666953985c 0.5610183415570942,1.0305739743762778e-16 1.0158135666953985,-0.454795225138304 1.0158135666953985 -1.015813566695398Z" /></g></g></g><g fill="rgb(235,86,92)" fill-opacity="1.0" stroke-width="0.0"><g fill="rgb(235,86,92)" fill-opacity="1.0"><g fill="rgb(235,86,92)" fill-opacity="1.0"><path d="M 243.45288464618423,536.7646186975766 c 0.0,-0.5723445588289875 -0.4639769383775528,-1.0363214972065404 -1.0363214972065402 -1.0363214972065404c -0.5723445588289875,-3.504599659896618e-17 -1.0363214972065404,0.46397693837755277 -1.0363214972065404 1.03632149720654c -7.009199319793235e-17,0.5723445588289875 0.4639769383775527,1.0363214972065404 1.03632149720654 1.0363214972065404c 0.5723445588289875,1.0513798979689853e-16 1.0363214972065404,-0.46397693837755266 1.0363214972065409 -1.03632149720654Z" /></g></g></g><g fill="rgb(173,210,116)" fill-opacity="1.0" stroke-width="0.0"><g fill="rgb(173,210,116)" fill-opacity="1.0"><g fill="rgb(173,210,116)" fill-opacity="1.0"><path d="M 503.79315024700503,737.9473473569174 c 0.0,-0.6462351640281487 -0.5238771090812199,-1.1701122731093687 -1.1701122731093685 -1.1701122731093687c -0.6462351640281487,-3.9570491256176854e-17 -1.1701122731093687,0.5238771090812198 -1.1701122731093687 1.1701122731093683c -7.914098251235371e-17,0.6462351640281487 0.5238771090812196,1.1701122731093687 1.1701122731093683 1.1701122731093687c 0.6462351640281487,1.1871147376853058e-16 1.1701122731093687,-0.5238771090812196 1.1701122731093687 -1.1701122731093683Z" /></g></g></g><g fill="rgb(191,49,49)" fill-opacity="1.0" stroke-width="0.0"><g fill="rgb(191,49,49)" fill-opacity="1.0"><g fill="rgb(191,49,49)" fill-opacity="1.0"><path d="M 434.80485104557147,735.5852135587438 c 0.0,-0.6754568504565913 -0.5475659664209971,-1.2230228168775885 -1.2230228168775883 -1.2230228168775885c -0.6754568504565913,-4.1359803493690846e-17 -1.2230228168775885,0.547565966420997 -1.2230228168775885 1.223022816877588c -8.271960698738169e-17,0.6754568504565913 0.547565966420997,1.2230228168775885 1.223022816877588 1.2230228168775885c 0.6754568504565913,1.2407941048107254e-16 1.2230228168775885,-0.5475659664209969 1.223022816877589 -1.223022816877588Z" /></g></g></g><g fill="rgb(241,237,226)" fill-opacity="1.0" stroke-width="0.0"><g fill="rgb(241,237,226)" fill-opacity="1.0"><g fill="rgb(241,237,226)" fill-opacity="1.0"><path d="M 354.9708961272535,1.4144621592328122 c 0.0,-0.7811858797569854 -0.6332762794757683,-1.4144621592327538 -1.4144621592327535 -1.4144621592327538c -0.7811858797569854,-4.783383935917506e-17 -1.4144621592327538,0.6332762794757681 -1.4144621592327538 1.4144621592327533c -9.566767871835012e-17,0.7811858797569854 0.6332762794757681,1.4144621592327538 1.414462159232753 1.4144621592327538c 0.7811858797569854,1.4350151807752518e-16 1.4144621592327538,-0.633276279475768 1.414462159232754 -1.4144621592327533Z" /></g></g></g><g fill="rgb(173,210,116)" fill-opacity="1.0" stroke-width="0.0"><g fill="rgb(173,210,116)" fill-opacity="1.0"><g fill="rgb(173,210,116)" fill-opacity="1.0"><path d="M 225.46117822956674,612.5649943786957 c 0.0,-0.4384837035907493 -0.3554612744755289,-0.7939449780662783 -0.7939449780662781 -0.7939449780662783c -0.4384837035907493,-2.6849383204034395e-17 -0.7939449780662783,0.35546127447552883 -0.7939449780662783 0.7939449780662781c -5.369876640806879e-17,0.4384837035907493 0.35546127447552883,0.7939449780662783 0.793944978066278 0.7939449780662783c 0.4384837035907493,8.054814961210319e-17 0.7939449780662783,-0.3554612744755288 0.7939449780662784 -0.7939449780662781Z" /></g></g></g><g fill="rgb(185,161,185)" fill-opacity="1.0" stroke-width="0.0"><g fill="rgb(185,161,185)" fill-opacity="1.0"><g fill="rgb(185,161,185)" fill-opacity="1.0"><path d="M 694.8790084133146,271.1459823504299 c 0.0,-0.35345178396708843 -0.28652928390664406,-0.6399810678737325 -0.6399810678737324 -0.6399810678737325c -0.35345178396708843,-2.164267979441083e-17 -0.6399810678737325,0.286529283906644 -0.6399810678737325 0.6399810678737323c -4.328535958882166e-17,0.35345178396708843 0.286529283906644,0.6399810678737325 0.6399810678737322 0.6399810678737325c 0.35345178396708843,6.492803938323249e-17 0.6399810678737325,-0.28652928390664395 0.6399810678737329 -0.6399810678737323Z" /></g></g></g><g fill="rgb(168,145,120)" fill-opacity="1.0" stroke-width="0.0"><g fill="rgb(168,145,120)" fill-opacity="1.0"><g fill="rgb(168,145,120)" fill-opacity="1.0"><path d="M 496.3080694844127,462.4708108164265 c 0.0,-0.1960957041425055 -0.15896697720544845,-0.355062681347954 -0.35506268134795393 -0.355062681347954c -0.1960957041425055,-1.2007398820233286e-17 -0.355062681347954,0.15896697720544842 -0.355062681347954 0.3550626813479539c -2.4014797640466573e-17,0.1960957041425055 0.15896697720544842,0.355062681347954 0.3550626813479538 0.355062681347954c 0.1960957041425055,3.602219646069986e-17 0.355062681347954,-0.1589669772054484 0.35506268134795405 -0.3550626813479539Z" /></g></g></g><g fill="rgb(168,145,120)" fill-opacity="1.0" stroke-width="0.0"><g fill="rgb(168,145,120)" fill-opacity="1.0"><g fill="rgb(168,145,120)" fill-opacity="1.0"><path d="M 36.028148576248434,173.80558954582762 c 0.0,-0.4111020961721067 -0.33326409590192446,-0.7443661920740312 -0.7443661920740311 -0.7443661920740312c -0.4111020961721067,-2.517274330999689e-17 -0.7443661920740312,0.3332640959019244 -0.7443661920740312 0.744366192074031c -5.034548661999378e-17,0.4111020961721067 0.33326409590192435,0.7443661920740312 0.7443661920740309 0.7443661920740312c 0.4111020961721067,7.551822992999067e-17 0.7443661920740312,-0.33326409590192435 0.7443661920740315 -0.744366192074031Z" /></g></g></g><g fill="rgb(235,86,92)" fill-opacity="1.0" stroke-width="0.0"><g fill="rgb(235,86,92)" fill-opacity="1.0"><g fill="rgb(235,86,92)" fill-opacity="1.0"><path d="M 223.66168463346102,673.1282768972252 c 0.0,-0.5066137534495752 -0.41069159239745245,-0.9173053458470277 -0.9173053458470275 -0.9173053458470277c -0.5066137534495752,-3.102114557830243e-17 -0.9173053458470277,0.4106915923974524 -0.9173053458470277 0.9173053458470274c -6.204229115660486e-17,0.5066137534495752 0.41069159239745234,0.9173053458470277 0.9173053458470273 0.9173053458470277c 0.5066137534495752,9.306343673490729e-17 0.9173053458470277,-0.4106915923974523 0.9173053458470279 -0.9173053458470274Z" /></g></g></g></g></g></g></svg>