<?xml version="1.0" encoding="UTF-8"?>
<!DOCTYPE svg PUBLIC "-//W3C//DTD SVG 1.1//EN"
    "http://www.w3.org/Graphics/SVG/1.1/DTD/svg11.dtd">
<svg xmlns="http://www.w3.org/2000/svg" xmlns:xlink="http://www.w3.org/1999/xlink" version="1.1" width="800.0" height="773.6101353368242" font-size="1" viewBox="0 0 800 774" stroke="rgb(0,0,0)" stroke-opacity="1"><g><g fill="rgb(0,0,0)" fill-opacity="0.0"><g stroke="rgb(0,0,0)" stroke-opacity="1.0" stroke-width="3.1467776744332205" stroke-linecap="butt" stroke-linejoin="miter" font-size="1.0em" stroke-miterlimit="10.0"><g fill="rgb(173,210,116)" fill-opacity="1.0" stroke-width="0.0"><g fill="rgb(173,210,116)" fill-opacity="1.0"><g fill="rgb(173,210,116)" fill-opacity="1.0"><path d="M 540.696778371783,412.5277463560212 c 0.0,-21.406770398128078 -17.353616168197693,-38.76038656632578 -38.76038656632577 -38.76038656632578c -21.406770398128078,-1.3107866424074932e-15 -38.76038656632578,17.353616168197693 -38.76038656632578 38.760386566325764c -2.6215732848149864e-15,21.406770398128078 17.35361616819769,38.76038656632578 38.760386566325764 38.76038656632578c 21.406770398128078,3.93235992722248e-15 38.76038656632578,-17.35361616819769 38.76038656632579 -38.760386566325764Z" /></g></g></g><g fill="rgb(191,49,49)" fill-opacity="1.0" stroke-width="0.0"><g fill="rgb(191,49,49)" fill-opacity="1.0"><g fill="rgb(191,49,49)" fill-opacity="1.0"><path d="M 455.6589120973593,390.8403917206437 c 0.0,-20.28829056898336 -16.44690911777097,-36.735199686754335 -36.73519968675433 -36.735199686754335c -20.28829056898336,-1.2422995052738452e-15 -36.735199686754335,16.446909117770968 -36.735199686754335 36.73519968675432c -2.4845990105476903e-15,20.28829056898336 16.446909117770968,36.735199686754335 36.73519968675432 36.735199686754335c 20.28829056898336,3.726898515821536e-15 36.735199686754335,-16.446909117770964 36.735199686754335 -36.73519968675432Z" /></g></g></g><g fill="rgb(245,180,86)" fill-opacity="1.0" stroke-width="0.0"><g fill="rgb(245,180,86)" fill-opacity="1.0"><g fill="rgb(245,180,86)" fill-opacity="1.0"><path d="M 513.1044771616188,344.15823945290776 c 0.0,-10.04062102030901 -8.139531561099783,-18.180152581408795 -18.18015258140879 -18.180152581408795c -10.04062102030901,-6.148107196986531e-16 -18.180152581408795,8.139531561099782 -18.180152581408795 18.180152581408787c -1.2296214393973061e-15,10.04062102030901 8.13953156109978,18.180152581408795 18.180152581408787 18.180152581408795c 10.04062102030901,1.844432159095959e-15 18.180152581408795,-8.13953156109978 18.180152581408795 -18.180152581408787Z" /></g></g></g><g fill="rgb(241,237,226)" fill-opacity="1.0" stroke-width="0.0"><g fill="rgb(241,237,226)" fill-opacity="1.0"><g fill="rgb(241,237,226)" fill-opacity="1.0"><path d="M 543.403587228859,366.131043698209 c 0.0,-3.516524364795993 -2.8507062456334453,-6.367230610429439 -6.367230610429437 -6.367230610429439c -3.516524364795993,-2.153250153735546e-16 -6.367230610429439,2.850706245633445 -6.367230610429439 6.367230610429437c -4.306500307471092e-16,3.516524364795993 2.8507062456334444,6.367230610429439 6.367230610429436 6.367230610429439c 3.516524364795993,6.459750461206638e-16 6.367230610429439,-2.850706245633444 6.36723061042944 -6.367230610429437Z" /></g></g></g><g fill="rgb(240,162,188)" fill-opacity="1.0" stroke-width="0.0"><g fill="rgb(240,162,188)" fill-opacity="1.0"><g fill="rgb(240,162,188)" fill-opacity="1.0"><path d="M 476.7319721318502,466.739073284226 c 0.0,-4.959756592455638 -4.020677131226186,-8.980433723681825 -8.980433723681823 -8.980433723681825c -4.959756592455638,-3.03697501775039e-16 -8.980433723681825,4.020677131226186 -8.980433723681825 8.980433723681822c -6.07395003550078e-16,4.959756592455638 4.0206771312261855,8.980433723681825 8.980433723681822 8.980433723681825c 4.959756592455638,9.110925053251171e-16 8.980433723681825,-4.020677131226185 8.980433723681825 -8.980433723681822Z" /></g></g></g><g fill="rgb(191,49,49)" fill-opacity="1.0" stroke-width="0.0"><g fill="rgb(191,49,49)" fill-opacity="1.0"><g fill="rgb(191,49,49)" fill-opacity="1.0"><path d="M 468.05475156874763,365.19084139961893 c 0.0,-3.8355092390576653 -3.109294578597577,-6.944803817655243 -6.944803817655242 -6.944803817655243c -3.8355092390576653,-2.348572056356035e-16 -6.944803817655243,3.1092945785975767 -6.944803817655243 6.944803817655241c -4.69714411271207e-16,3.8355092390576653 3.1092945785975763,6.944803817655243 6.944803817655241 6.944803817655243c 3.8355092390576653,7.045716169068106e-16 6.944803817655243,-3.109294578597576 6.944803817655244 -6.944803817655241Z" /></g></g></g><g fill="rgb(72,189,190)" fill-opacity="1.0" stroke-width="0.0"><g fill="rgb(72,189,190)" fill-opacity="1.0"><g fill="rgb(72,189,190)" fill-opacity="1.0"><path d="M 455.91026651472754,463.79157004917454 c 0.0,-6.840252232954896 -5.5451200501845195,-12.385372283139416 -12.385372283139413 -12.385372283139416c -6.840252232954896,-4.188446501224374e-16 -12.385372283139416,5.545120050184519 -12.385372283139416 12.385372283139413c -8.376893002448748e-16,6.840252232954896 5.545120050184518,12.385372283139416 12.38537228313941 12.385372283139416c 6.840252232954896,1.2565339503673122e-15 12.385372283139416,-5.545120050184517 12.385372283139418 -12.385372283139413Z" /></g></g></g><g fill="rgb(209,95,105)" fill-opacity="1.0" stroke-width="0.0"><g fill="rgb(209,95,105)" fill-opacity="1.0"><g fill="rgb(209,95,105)" fill-opacity="1.0"><path d="M 585.6167325661976,368.7897379388249 c 0.0,-8.658416537153435 -7.019033437350046,-15.677449974503483 -15.67744997450348 -15.677449974503483c -8.658416537153435,-5.301751048954732e-16 -15.677449974503483,7.019033437350045 -15.677449974503483 15.677449974503478c -1.0603502097909465e-15,8.658416537153435 7.0190334373500445,15.677449974503483 15.677449974503476 15.677449974503483c 8.658416537153435,1.5905253146864196e-15 15.677449974503483,-7.019033437350044 15.677449974503487 -15.677449974503478Z" /></g></g></g><g fill="rgb(191,49,49)" fill-opacity="1.0" stroke-width="0.0"><g fill="rgb(191,49,49)" fill-opacity="1.0"><g fill="rgb(191,49,49)" fill-opacity="1.0"><path d="M 470.17796328735744,341.14220079046754 c 0.0,-7.487930585230241 -6.070167094498122,-13.558097679728364 -13.55809767972836 -13.558097679728364c -7.487930585230241,-4.585035111719891e-16 -13.558097679728364,6.070167094498121 -13.558097679728364 13.558097679728359c -9.170070223439781e-16,7.487930585230241 6.07016709449812,13.558097679728364 13.558097679728359 13.558097679728364c 7.487930585230241,1.3755105335159673e-15 13.558097679728364,-6.07016709449812 13.558097679728366 -13.558097679728359Z" /></g></g></g><g fill="rgb(168,145,120)" fill-opacity="1.0" stroke-width="0.0"><g fill="rgb(168,145,120)" fill-opacity="1.0"><g fill="rgb(168,145,120)" fill-opacity="1.0"><path d="M 465.39572334449684,442.6573537897434 c 0.0,-2.5652062956091917 -2.079510576249225,-4.644716871858417 -4.644716871858416 -4.644716871858417c -2.5652062956091917,-1.5707358395352178e-16 -4.644716871858417,2.079510576249225 -4.644716871858417 4.6447168718584155c -3.1414716790704355e-16,2.5652062956091917 2.0795105762492248,4.644716871858417 4.6447168718584155 4.644716871858417c 2.5652062956091917,4.712207518605653e-16 4.644716871858417,-2.0795105762492243 4.644716871858419 -4.6447168718584155Z" /></g></g></g><g fill="rgb(235,86,92)" fill-opacity="1.0" stroke-width="0.0"><g fill="rgb(235,86,92)" fill-opacity="1.0"><g fill="rgb(235,86,92)" fill-opacity="1.0"><path d="M 452.86005981998164,434.78301568303385 c 0.0,-3.28229160075947 -2.6608230729031352,-5.943114673662606 -5.943114673662605 -5.943114673662606c -3.28229160075947,-2.0098239513691635e-16 -5.943114673662606,2.6608230729031352 -5.943114673662606 5.943114673662604c -4.019647902738327e-16,3.28229160075947 2.660823072903135,5.943114673662606 5.9431146736626035 5.943114673662606c 3.28229160075947,6.029471854107491e-16 5.943114673662606,-2.6608230729031344 5.943114673662609 -5.943114673662604Z" /></g></g></g><g fill="rgb(235,86,92)" fill-opacity="1.0" stroke-width="0.0"><g fill="rgb(235,86,92)" fill-opacity="1.0"><g fill="rgb(235,86,92)" fill-opacity="1.0"><path d="M 527.2827092033805,496.6575430224059 c 0.0,-14.347638509742483 -11.631059098942615,-25.9786976086851 -25.978697608685092 -25.9786976086851c -14.347638509742483,-8.785394788139716e-16 -25.9786976086851,11.631059098942613 -25.9786976086851 25.978697608685092c -1.7570789576279431e-15,14.347638509742483 11.631059098942611,25.9786976086851 25.97869760868509 25.9786976086851c 14.347638509742483,2.6356184364419146e-15 25.9786976086851,-11.63105909894261 25.978697608685103 -25.978697608685092Z" /></g></g></g><g fill="rgb(240,162,188)" fill-opacity="1.0" stroke-width="0.0"><g fill="rgb(240,162,188)" fill-opacity="1.0"><g fill="rgb(240,162,188)" fill-opacity="1.0"><path d="M 558.183086667002,462.49761870964073 c 0.0,-9.698686405469386 -7.862338787496427,-17.561025192965815 -17.56102519296581 -17.561025192965815c -9.698686405469386,-5.938732631196017e-16 -17.561025192965815,7.862338787496426 -17.561025192965815 17.561025192965808c -1.1877465262392033e-15,9.698686405469386 7.862338787496425,17.561025192965815 17.561025192965808 17.561025192965815c 9.698686405469386,1.7816197893588048e-15 17.561025192965815,-7.862338787496424 17.561025192965822 -17.561025192965808Z" /></g></g></g><g fill="rgb(191,49,49)" fill-opacity="1.0" stroke-width="0.0"><g fill="rgb(191,49,49)" fill-opacity="1.0"><g fill="rgb(191,49,49)" fill-opacity="1.0"><path d="M 402.3502597512459,446.4142755048705 c 0.0,-5.418070744862116 -4.392214160745145,-9.810284905607263 -9.810284905607261 -9.810284905607263c -5.418070744862116,-3.3176114976246533e-16 -9.810284905607263,4.392214160745145 -9.810284905607263 9.81028490560726c -6.635222995249307e-16,5.418070744862116 4.392214160745144,9.810284905607263 9.81028490560726 9.810284905607263c 5.418070744862116,9.95283449287396e-16 9.810284905607263,-4.392214160745144 9.810284905607263 -9.81028490560726Z" /></g></g></g><g fill="rgb(245,180,86)" fill-opacity="1.0" stroke-width="0.0"><g fill="rgb(245,180,86)" fill-opacity="1.0"><g fill="rgb(245,180,86)" fill-opacity="1.0"><path d="M 538.876714715016,320.31825125306517 c 0.0,-8.195982329235136 -6.644156442922132,-14.84013877215727 -14.840138772157266 -14.84013877215727c -8.195982329235136,-5.018591762683038e-16 -14.84013877215727,6.644156442922131 -14.84013877215727 14.840138772157264c -1.0037183525366077e-15,8.195982329235136 6.64415644292213,14.84013877215727 14.840138772157262 14.84013877215727c 8.195982329235136,1.5055775288049116e-15 14.84013877215727,-6.64415644292213 14.840138772157273 -14.840138772157264Z" /></g></g></g><g fill="rgb(173,210,116)" fill-opacity="1.0" stroke-width="0.0"><g fill="rgb(173,210,116)" fill-opacity="1.0"><g fill="rgb(173,210,116)" fill-opacity="1.0"><path d="M 489.0637799708529,309.31770468626496 c 0.0,-9.161683786230519 -7.427012151938032,-16.588695938168552 -16.58869593816855 -16.588695938168552c -9.161683786230519,-5.609913361803704e-16 -16.588695938168552,7.427012151938031 -16.588695938168552 16.588695938168545c -1.1219826723607409e-15,9.161683786230519 7.4270121519380305,16.588695938168552 16.588695938168545 16.588695938168552c 9.161683786230519,1.682974008541111e-15 16.588695938168552,-7.427012151938029 16.588695938168552 -16.588695938168545Z" /></g></g></g><g fill="rgb(235,86,92)" fill-opacity="1.0" stroke-width="0.0"><g fill="rgb(235,86,92)" fill-opacity="1.0"><g fill="rgb(235,86,92)" fill-opacity="1.0"><path d="M 473.99095212188445,350.27783085281425 c 0.0,-0.5151733983119308 -0.4176305555719439,-0.9328039538838748 -0.9328039538838746 -0.9328039538838748c -0.5151733983119308,-3.154527266242852e-17 -0.9328039538838748,0.4176305555719439 -0.9328039538838748 0.9328039538838745c -6.309054532485704e-17,0.5151733983119308 0.41763055557194384,0.9328039538838748 0.9328039538838744 0.9328039538838748c 0.5151733983119308,9.463581798728558e-17 0.9328039538838748,-0.4176305555719438 0.932803953883875 -0.9328039538838745Z" /></g></g></g><g fill="rgb(72,189,190)" fill-opacity="1.0" stroke-width="0.0"><g fill="rgb(72,189,190)" fill-opacity="1.0"><g fill="rgb(72,189,190)" fill-opacity="1.0"><path d="M 464.86985347257865,391.0284956568692 c 0.0,-0.4679349817749626 -0.37933625270747856,-0.8472712344824412 -0.847271234482441 -0.8472712344824412c -0.4679349817749626,-2.865275388198915e-17 -0.8472712344824412,0.3793362527074785 -0.8472712344824412 0.8472712344824409c -5.73055077639783e-17,0.4679349817749626 0.37933625270747845,0.8472712344824412 0.8472712344824409 0.8472712344824412c 0.4679349817749626,8.595826164596745e-17 0.8472712344824412,-0.3793362527074784 0.8472712344824413 -0.8472712344824409Z" /></g></g></g><g fill="rgb(173,210,116)" fill-opacity="1.0" stroke-width="0.0"><g fill="rgb(173,210,116)" fill-opacity="1.0"><g fill="rgb(173,210,116)" fill-opacity="1.0"><path d="M 498.03642284711214,317.47776221229356 c 0.0,-1.3090057368926096 -1.061158815530134,-2.370164552422744 -2.3701645524227435 -2.370164552422744c -1.3090057368926096,-8.015348428755284e-17 -2.370164552422744,1.061158815530134 -2.370164552422744 2.370164552422743c -1.6030696857510568e-16,1.3090057368926096 1.0611588155301337,2.370164552422744 2.370164552422743 2.370164552422744c 1.3090057368926096,2.404604528626585e-16 2.370164552422744,-1.0611588155301337 2.370164552422745 -2.370164552422743Z" /></g></g></g><g fill="rgb(235,86,92)" fill-opacity="1.0" stroke-width="0.0"><g fill="rgb(235,86,92)" fill-opacity="1.0"><g fill="rgb(235,86,92)" fill-opacity="1.0"><path d="M 565.5032651075901,417.42652127609375 c 0.0,-4.26766934289034 -3.459629562606958,-7.727298905497299 -7.727298905497297 -7.727298905497299c -4.26766934289034,-2.613193800294971e-16 -7.727298905497299,3.4596295626069575 -7.727298905497299 7.727298905497296c -5.226387600589942e-16,4.26766934289034 3.459629562606957,7.727298905497299 7.727298905497295 7.727298905497299c 4.26766934289034,7.839581400884914e-16 7.727298905497299,-3.459629562606957 7.7272989054973005 -7.727298905497296Z" /></g></g></g><g fill="rgb(235,86,92)" fill-opacity="1.0" stroke-width="0.0"><g fill="rgb(235,86,92)" fill-opacity="1.0"><g fill="rgb(235,86,92)" fill-opacity="1.0"><path d="M 468.58847057020915,383.96638062403787 c 0.0,-1.0226966921063203 -0.8290594761015643,-1.851756168207885 -1.8517561682078845 -1.851756168207885c -1.0226966921063203,-6.262211152432957e-17 -1.851756168207885,0.8290594761015642 -1.851756168207885 1.8517561682078842c -1.2524422304865914e-16,1.0226966921063203 0.829059476101564,1.851756168207885 1.851756168207884 1.851756168207885c 1.0226966921063203,1.878663345729887e-16 1.851756168207885,-0.829059476101564 1.8517561682078854 -1.8517561682078842Z" /></g></g></g><g fill="rgb(209,95,105)" fill-opacity="1.0" stroke-width="0.0"><g fill="rgb(209,95,105)" fill-opacity="1.0"><g fill="rgb(209,95,105)" fill-opacity="1.0"><path d="M 572.352300638892,401.10470493377807 c 0.0,-2.4379904079568213 -1.9763817229118323,-4.414372130868654 -4.414372130868653 -4.414372130868654c -2.4379904079568213,-1.4928385747281354e-16 -4.414372130868654,1.9763817229118321 -4.414372130868654 4.414372130868652c -2.985677149456271e-16,2.4379904079568213 1.9763817229118317,4.414372130868654 4.414372130868652 4.414372130868654c 2.4379904079568213,4.478515724184406e-16 4.414372130868654,-1.9763817229118315 4.414372130868654 -4.414372130868652Z" /></g></g></g><g fill="rgb(245,180,86)" fill-opacity="1.0" stroke-width="0.0"><g fill="rgb(245,180,86)" fill-opacity="1.0"><g fill="rgb(245,180,86)" fill-opacity="1.0"><path d="M 437.5893740261381,321.1652536289898 c 0.0,-5.612019370049893 -4.5494405865563285,-10.161459956606222 -10.16145995660622 -10.161459956606222c -5.612019370049893,-3.4363707791422734e-16 -10.161459956606222,4.549440586556328 -10.161459956606222 10.161459956606219c -6.872741558284547e-16,5.612019370049893 4.549440586556328,10.161459956606222 10.161459956606217 10.161459956606222c 5.612019370049893,1.030911233742682e-15 10.161459956606222,-4.549440586556327 10.161459956606228 -10.161459956606219Z" /></g></g></g><g fill="rgb(240,162,188)" fill-opacity="1.0" stroke-width="0.0"><g fill="rgb(240,162,188)" fill-opacity="1.0"><g fill="rgb(240,162,188)" fill-opacity="1.0"><path d="M 547.9010592519752,344.49201395065376 c 0.0,-3.570630449324503 -2.8945678934116605,-6.465198342736164 -6.465198342736162 -6.465198342736164c -3.570630449324503,-2.1863805753516638e-16 -6.465198342736164,2.89456789341166 -6.465198342736164 6.465198342736162c -4.3727611507033275e-16,3.570630449324503 2.8945678934116597,6.465198342736164 6.465198342736161 6.465198342736164c 3.570630449324503,6.559141726054992e-16 6.465198342736164,-2.894567893411659 6.465198342736165 -6.465198342736162Z" /></g></g></g><g fill="rgb(185,161,185)" fill-opacity="1.0" stroke-width="0.0"><g fill="rgb(185,161,185)" fill-opacity="1.0"><g fill="rgb(185,161,185)" fill-opacity="1.0"><path d="M 439.0723723889421,486.2385817175112 c 0.0,-6.895127782284238 -5.589605472430356,-12.484733254714595 -12.484733254714591 -12.484733254714595c -6.895127782284238,-4.22204808414319e-16 -12.484733254714595,5.589605472430355 -12.484733254714595 12.484733254714591c -8.44409616828638e-16,6.895127782284238 5.589605472430354,12.484733254714595 12.48473325471459 12.484733254714595c 6.895127782284238,1.266614425242957e-15 12.484733254714595,-5.589605472430353 12.484733254714596 -12.484733254714591Z" /></g></g></g><g fill="rgb(72,189,190)" fill-opacity="1.0" stroke-width="0.0"><g fill="rgb(72,189,190)" fill-opacity="1.0"><g fill="rgb(72,189,190)" fill-opacity="1.0"><path d="M 515.9863472067137,274.9563127899909 c 0.0,-6.460786333173563 -5.2375021586832,-11.698288491856765 -11.698288491856763 -11.698288491856765c -6.460786333173563,-3.956090651447985e-16 -11.698288491856765,5.237502158683199 -11.698288491856765 11.698288491856761c -7.91218130289597e-16,6.460786333173563 5.237502158683199,11.698288491856765 11.69828849185676 11.698288491856765c 6.460786333173563,1.1868271954343954e-15 11.698288491856765,-5.237502158683198 11.69828849185677 -11.698288491856761Z" /></g></g></g><g fill="rgb(168,145,120)" fill-opacity="1.0" stroke-width="0.0"><g fill="rgb(168,145,120)" fill-opacity="1.0"><g fill="rgb(168,145,120)" fill-opacity="1.0"><path d="M 486.78808903267816,323.3250208456152 c 0.0,-0.36037214259456557 -0.29213934302037264,-0.6525114856149383 -0.6525114856149382 -0.6525114856149383c -0.36037214259456557,-2.2066429546515413e-17 -0.6525114856149383,0.29213934302037264 -0.6525114856149383 0.6525114856149381c -4.4132859093030826e-17,0.36037214259456557 0.2921393430203726,0.6525114856149383 0.652511485614938 0.6525114856149383c 0.36037214259456557,6.619928863954625e-17 0.6525114856149383,-0.29213934302037253 0.6525114856149387 -0.6525114856149381Z" /></g></g></g><g fill="rgb(191,49,49)" fill-opacity="1.0" stroke-width="0.0"><g fill="rgb(191,49,49)" fill-opacity="1.0"><g fill="rgb(191,49,49)" fill-opacity="1.0"><path d="M 493.33442059961465,463.32791947722035 c 0.0,-3.6361844367008005 -2.947709900078982,-6.5838943367797835 -6.583894336779782 -6.5838943367797835c -3.6361844367008005,-2.2265208157575286e-16 -6.5838943367797835,2.9477099000789817 -6.5838943367797835 6.583894336779782c -4.453041631515057e-16,3.6361844367008005 2.9477099000789817,6.5838943367797835 6.583894336779781 6.5838943367797835c 3.6361844367008005,6.679562447272585e-16 6.5838943367797835,-2.9477099000789813 6.583894336779784 -6.583894336779782Z" /></g></g></g><g fill="rgb(191,49,49)" fill-opacity="1.0" stroke-width="0.0"><g fill="rgb(191,49,49)" fill-opacity="1.0"><g fill="rgb(191,49,49)" fill-opacity="1.0"><path d="M 390.4859283650033,426.8810499721157 c 0.0,-3.6980656696360334 -2.9978745510002054,-6.695940220636239 -6.6959402206362375 -6.695940220636239c -3.6980656696360334,-2.264412142678241e-16 -6.695940220636239,2.997874551000205 -6.695940220636239 6.695940220636237c -4.528824285356482e-16,3.6980656696360334 2.9978745510002045,6.695940220636239 6.695940220636237 6.695940220636239c 3.6980656696360334,6.793236428034722e-16 6.695940220636239,-2.997874551000204 6.69594022063624 -6.695940220636237Z" /></g></g></g><g fill="rgb(241,237,226)" fill-opacity="1.0" stroke-width="0.0"><g fill="rgb(241,237,226)" fill-opacity="1.0"><g fill="rgb(241,237,226)" fill-opacity="1.0"><path d="M 593.3888847431201,480.39511109515604 c 0.0,-7.776164000699976 -6.303826444595502,-14.07999044529548 -14.079990445295476 -14.07999044529548c -7.776164000699976,-4.761527176551051e-16 -14.07999044529548,6.303826444595501 -14.07999044529548 14.079990445295474c -9.523054353102102e-16,7.776164000699976 6.3038264445955,14.07999044529548 14.079990445295472 14.07999044529548c 7.776164000699976,1.4284581529653152e-15 14.07999044529548,-6.303826444595499 14.079990445295483 -14.079990445295474Z" /></g></g></g><g fill="rgb(209,95,105)" fill-opacity="1.0" stroke-width="0.0"><g fill="rgb(209,95,105)" fill-opacity="1.0"><g fill="rgb(209,95,105)" fill-opacity="1.0"><path d="M 482.52409619616566,364.5755562280224 c 0.0,-3.463136933907388 -2.8074271817384053,-6.270564115645794 -6.270564115645792 -6.270564115645794c -3.463136933907388,-2.1205597805593306e-16 -6.270564115645794,2.807427181738405 -6.270564115645794 6.270564115645792c -4.241119561118661e-16,3.463136933907388 2.8074271817384044,6.270564115645794 6.270564115645791 6.270564115645794c 3.463136933907388,6.361679341677992e-16 6.270564115645794,-2.807427181738404 6.2705641156457945 -6.270564115645792Z" /></g></g></g><g fill="rgb(240,162,188)" fill-opacity="1.0" stroke-width="0.0"><g fill="rgb(240,162,188)" fill-opacity="1.0"><g fill="rgb(240,162,188)" fill-opacity="1.0"><path d="M 520.7532485997068,295.49332775336603 c 0.0,-4.19400833901279 -3.3999155205501097,-7.5939238595629 -7.593923859562898 -7.5939238595629c -4.19400833901279,-2.56808944398466e-16 -7.5939238595629,3.3999155205501093 -7.5939238595629 7.5939238595628975c -5.13617888796932e-16,4.19400833901279 3.399915520550109,7.5939238595629 7.593923859562897 7.5939238595629c 4.19400833901279,7.70426833195398e-16 7.5939238595629,-3.3999155205501084 7.593923859562902 -7.5939238595628975Z" /></g></g></g><g fill="rgb(209,95,105)" fill-opacity="1.0" stroke-width="0.0"><g fill="rgb(209,95,105)" fill-opacity="1.0"><g fill="rgb(209,95,105)" fill-opacity="1.0"><path d="M 583.6575837360242,318.65081202539295 c 0.0,-4.309122923420884 -3.493234329320738,-7.802357252741623 -7.802357252741621 -7.802357252741623c -4.309122923420884,-2.6385767976499354e-16 -7.802357252741623,3.4932343293207375 -7.802357252741623 7.80235725274162c -5.277153595299871e-16,4.309122923420884 3.493234329320737,7.802357252741623 7.802357252741619 7.802357252741623c 4.309122923420884,7.915730392949806e-16 7.802357252741623,-3.4932343293207366 7.802357252741625 -7.80235725274162Z" /></g></g></g><g fill="rgb(241,237,226)" fill-opacity="1.0" stroke-width="0.0"><g fill="rgb(241,237,226)" fill-opacity="1.0"><g fill="rgb(241,237,226)" fill-opacity="1.0"><path d="M 398.5583296923382,333.8391787841095 c 0.0,-4.865769578938565 -3.944485602703364,-8.81025518164193 -8.810255181641928 -8.81025518164193c -4.865769578938565,-2.979424570117839e-16 -8.81025518164193,3.9444856027033635 -8.81025518164193 8.810255181641926c -5.958849140235678e-16,4.865769578938565 3.944485602703363,8.81025518164193 8.810255181641926 8.81025518164193c 4.865769578938565,8.938273710353516e-16 8.81025518164193,-3.9444856027033626 8.81025518164193 -8.810255181641926Z" /></g></g></g><g fill="rgb(245,180,86)" fill-opacity="1.0" stroke-width="0.0"><g fill="rgb(245,180,86)" fill-opacity="1.0"><g fill="rgb(245,180,86)" fill-opacity="1.0"><path d="M 597.439005882246,412.8298167446888 c 0.0,-6.348387295207413 -5.146384735257674,-11.494772030465088 -11.494772030465086 -11.494772030465088c -6.348387295207413,-3.8872660904117406e-16 -11.494772030465088,5.146384735257673 -11.494772030465088 11.494772030465084c -7.774532180823481e-16,6.348387295207413 5.146384735257673,11.494772030465088 11.494772030465082 11.494772030465088c 6.348387295207413,1.166179827123522e-15 11.494772030465088,-5.146384735257672 11.49477203046509 -11.494772030465084Z" /></g></g></g><g fill="rgb(97,91,91)" fill-opacity="1.0" stroke-width="0.0"><g fill="rgb(97,91,91)" fill-opacity="1.0"><g fill="rgb(97,91,91)" fill-opacity="1.0"><path d="M 447.4757476025906,298.5361647233908 c 0.0,-1.8220808316261716 -1.4770883599627913,-3.2991691915889634 -3.2991691915889625 -3.2991691915889634c -1.8220808316261716,-1.1157027291193693e-16 -3.2991691915889634,1.477088359962791 -3.2991691915889634 3.2991691915889625c -2.2314054582387387e-16,1.8220808316261716 1.4770883599627909,3.2991691915889634 3.299169191588962 3.2991691915889634c 1.8220808316261716,3.347108187358108e-16 3.2991691915889634,-1.4770883599627906 3.299169191588964 -3.2991691915889625Z" /></g></g></g><g fill="rgb(240,162,188)" fill-opacity="1.0" stroke-width="0.0"><g fill="rgb(240,162,188)" fill-opacity="1.0"><g fill="rgb(240,162,188)" fill-opacity="1.0"><path d="M 353.5276849760313,380.0421679654888 c 0.0,-4.518587117575987 -3.6630386089362355,-8.181625726512223 -8.181625726512221 -8.181625726512223c -4.518587117575987,-2.7668366251039484e-16 -8.181625726512223,3.663038608936235 -8.181625726512223 8.18162572651222c -5.533673250207897e-16,4.518587117575987 3.6630386089362346,8.181625726512223 8.18162572651222 8.181625726512223c 4.518587117575987,8.300509875311845e-16 8.181625726512223,-3.663038608936234 8.181625726512227 -8.18162572651222Z" /></g></g></g><g fill="rgb(241,237,226)" fill-opacity="1.0" stroke-width="0.0"><g fill="rgb(241,237,226)" fill-opacity="1.0"><g fill="rgb(241,237,226)" fill-opacity="1.0"><path d="M 430.50875092098437,346.58799641861776 c 0.0,-2.2463509363255465 -1.821027235919429,-4.067378172244976 -4.067378172244975 -4.067378172244976c -2.2463509363255465,-1.3754932419663703e-16 -4.067378172244976,1.8210272359194288 -4.067378172244976 4.067378172244974c -2.7509864839327406e-16,2.2463509363255465 1.8210272359194286,4.067378172244976 4.067378172244974 4.067378172244976c 2.2463509363255465,4.1264797258991104e-16 4.067378172244976,-1.8210272359194284 4.067378172244976 -4.067378172244974Z" /></g></g></g><g fill="rgb(245,180,86)" fill-opacity="1.0" stroke-width="0.0"><g fill="rgb(245,180,86)" fill-opacity="1.0"><g fill="rgb(245,180,86)" fill-opacity="1.0"><path d="M 606.5860600769073,430.3747772120211 c 0.0,-3.222259054470276 -2.612157078615957,-5.834416133086234 -5.834416133086233 -5.834416133086234c -3.222259054470276,-1.9730646185403e-16 -5.834416133086234,2.6121570786159567 -5.834416133086234 5.834416133086232c -3.9461292370806e-16,3.222259054470276 2.6121570786159567,5.834416133086234 5.834416133086231 5.834416133086234c 3.222259054470276,5.9191938556209e-16 5.834416133086234,-2.6121570786159563 5.8344161330862345 -5.834416133086232Z" /></g></g></g><g fill="rgb(191,49,49)" fill-opacity="1.0" stroke-width="0.0"><g fill="rgb(191,49,49)" fill-opacity="1.0"><g fill="rgb(191,49,49)" fill-opacity="1.0"><path d="M 540.7879265360425,567.3272372154534 c 0.0,-3.6453290941886425 -2.955123109688944,-6.6004522038775875 -6.600452203877586 -6.6004522038775875c -3.6453290941886425,-2.232120303518421e-16 -6.6004522038775875,2.9551231096889437 -6.6004522038775875 6.600452203877586c -4.464240607036842e-16,3.6453290941886425 2.955123109688943,6.6004522038775875 6.600452203877585 6.6004522038775875c 3.6453290941886425,6.696360910555262e-16 6.6004522038775875,-2.9551231096889428 6.600452203877588 -6.600452203877586Z" /></g></g></g><g fill="rgb(173,210,116)" fill-opacity="1.0" stroke-width="0.0"><g fill="rgb(173,210,116)" fill-opacity="1.0"><g fill="rgb(173,210,116)" fill-opacity="1.0"><path d="M 559.7499876537781,389.0401227845424 c 0.0,-4.027225042504584 -3.2647109447527627,-7.2919359872573475 -7.291935987257346 -7.2919359872573475c -4.027225042504584,-2.465964128874651e-16 -7.2919359872573475,3.2647109447527622 -7.2919359872573475 7.291935987257345c -4.931928257749302e-16,4.027225042504584 3.264710944752762,7.2919359872573475 7.291935987257344 7.2919359872573475c 4.027225042504584,7.397892386623953e-16 7.2919359872573475,-3.2647109447527614 7.291935987257349 -7.291935987257345Z" /></g></g></g><g fill="rgb(185,161,185)" fill-opacity="1.0" stroke-width="0.0"><g fill="rgb(185,161,185)" fill-opacity="1.0"><g fill="rgb(185,161,185)" fill-opacity="1.0"><path d="M 329.4806883346024,354.5933612776453 c 0.0,-3.757358541487649 -3.045940920680755,-6.803299462168405 -6.803299462168403 -6.803299462168405c -3.757358541487649,-2.3007185555409084e-16 -6.803299462168405,3.0459409206807546 -6.803299462168405 6.803299462168402c -4.601437111081817e-16,3.757358541487649 3.045940920680754,6.803299462168405 6.803299462168402 6.803299462168405c 3.757358541487649,6.902155666622725e-16 6.803299462168405,-3.0459409206807537 6.803299462168406 -6.803299462168402Z" /></g></g></g><g fill="rgb(245,180,86)" fill-opacity="1.0" stroke-width="0.0"><g fill="rgb(245,180,86)" fill-opacity="1.0"><g fill="rgb(245,180,86)" fill-opacity="1.0"><path d="M 384.4349480904763,504.93780330235364 c 0.0,-2.9653758309599367 -2.4039120805177117,-5.369287911477649 -5.369287911477648 -5.369287911477649c -2.9653758309599367,-1.8157690098270045e-16 -5.369287911477649,2.403912080517711 -5.369287911477649 5.369287911477647c -3.631538019654009e-16,2.9653758309599367 2.4039120805177108,5.369287911477649 5.369287911477646 5.369287911477649c 2.9653758309599367,5.447307029481013e-16 5.369287911477649,-2.4039120805177108 5.3692879114776515 -5.369287911477647Z" /></g></g></g><g fill="rgb(72,189,190)" fill-opacity="1.0" stroke-width="0.0"><g fill="rgb(72,189,190)" fill-opacity="1.0"><g fill="rgb(72,189,190)" fill-opacity="1.0"><path d="M 600.656496910226,356.83614163621417 c 0.0,-3.04133506466265 -2.4654892059594165,-5.506824270622067 -5.506824270622066 -5.506824270622067c -3.04133506466265,-1.8622806260368613e-16 -5.506824270622067,2.465489205959416 -5.506824270622067 5.506824270622065c -3.7245612520737225e-16,3.04133506466265 2.465489205959416,5.506824270622067 5.506824270622064 5.506824270622067c 3.04133506466265,5.586841878110584e-16 5.506824270622067,-2.4654892059594156 5.50682427062207 -5.506824270622065Z" /></g></g></g><g fill="rgb(241,237,226)" fill-opacity="1.0" stroke-width="0.0"><g fill="rgb(241,237,226)" fill-opacity="1.0"><g fill="rgb(241,237,226)" fill-opacity="1.0"><path d="M 419.8576584576729,333.5832705664584 c 0.0,-1.1855531071285517 -0.9610806854789321,-2.146633792607484 -2.1466337926074837 -2.146633792607484c -1.1855531071285517,-7.2594190893209e-17 -2.146633792607484,0.961080685478932 -2.146633792607484 2.146633792607483c -1.45188381786418e-16,1.1855531071285517 0.9610806854789319,2.146633792607484 2.146633792607483 2.146633792607484c 1.1855531071285517,2.17782572679627e-16 2.146633792607484,-0.9610806854789318 2.146633792607485 -2.146633792607483Z" /></g></g></g><g fill="rgb(185,161,185)" fill-opacity="1.0" stroke-width="0.0"><g fill="rgb(185,161,185)" fill-opacity="1.0"><g fill="rgb(185,161,185)" fill-opacity="1.0"><path d="M 559.9843183919372,343.7938279063997 c 0.0,-2.721339017055005 -2.2060811550369395,-4.927420172091945 -4.927420172091944 -4.927420172091945c -2.721339017055005,-1.666339558315608e-16 -4.927420172091945,2.206081155036939 -4.927420172091945 4.927420172091943c -3.332679116631216e-16,2.721339017055005 2.2060811550369386,4.927420172091945 4.927420172091943 4.927420172091945c 2.721339017055005,4.999018674946824e-16 4.927420172091945,-2.2060811550369386 4.927420172091945 -4.927420172091943Z" /></g></g></g><g fill="rgb(241,237,226)" fill-opacity="1.0" stroke-width="0.0"><g fill="rgb(241,237,226)" fill-opacity="1.0"><g fill="rgb(241,237,226)" fill-opacity="1.0"><path d="M 398.5997369149793,517.4167308488288 c 0.0,-1.7503656094655204 -1.4189516856468096,-3.1693172951123305 -3.1693172951123296 -3.1693172951123305c -1.7503656094655204,-1.0717898204847778e-16 -3.1693172951123305,1.4189516856468096 -3.1693172951123305 3.1693172951123296c -2.1435796409695556e-16,1.7503656094655204 1.4189516856468094,3.1693172951123305 3.169317295112329 3.1693172951123305c 1.7503656094655204,3.2153694614543333e-16 3.1693172951123305,-1.4189516856468092 3.169317295112331 -3.1693172951123296Z" /></g></g></g><g fill="rgb(168,145,120)" fill-opacity="1.0" stroke-width="0.0"><g fill="rgb(168,145,120)" fill-opacity="1.0"><g fill="rgb(168,145,120)" fill-opacity="1.0"><path d="M 300.78255243927737,379.91877006344606 c 0.0,-2.9583245234336997 -2.39819586634722,-5.35652038978092 -5.356520389780919 -5.35652038978092c -2.9583245234336997,-1.8114513292310997e-16 -5.35652038978092,2.3981958663472196 -5.35652038978092 5.356520389780918c -3.6229026584621994e-16,2.9583245234336997 2.398195866347219,5.35652038978092 5.3565203897809175 5.35652038978092c 2.9583245234336997,5.434353987693299e-16 5.35652038978092,-2.398195866347219 5.356520389780923 -5.356520389780918Z" /></g></g></g><g fill="rgb(185,161,185)" fill-opacity="1.0" stroke-width="0.0"><g fill="rgb(185,161,185)" fill-opacity="1.0"><g fill="rgb(185,161,185)" fill-opacity="1.0"><path d="M 486.9327617380737,244.30257326343747 c 0.0,-2.8836287094233213 -2.337642944930333,-5.221271654353655 -5.221271654353654 -5.221271654353655c -2.8836287094233213,-1.7657133344623415e-16 -5.221271654353655,2.3376429449303324 -5.221271654353655 5.221271654353653c -3.531426668924683e-16,2.8836287094233213 2.3376429449303324,5.221271654353655 5.221271654353652 5.221271654353655c 2.8836287094233213,5.297140003387025e-16 5.221271654353655,-2.337642944930332 5.2212716543536555 -5.221271654353653Z" /></g></g></g><g fill="rgb(72,189,190)" fill-opacity="1.0" stroke-width="0.0"><g fill="rgb(72,189,190)" fill-opacity="1.0"><g fill="rgb(72,189,190)" fill-opacity="1.0"><path d="M 570.0202270691252,434.975160674631 c 0.0,-2.5125577086191457 -2.03683046367591,-4.549388172295056 -4.549388172295055 -4.549388172295056c -2.5125577086191457,-1.5384978777667224e-16 -4.549388172295056,2.0368304636759094 -4.549388172295056 4.549388172295054c -3.076995755533445e-16,2.5125577086191457 2.0368304636759094,4.549388172295056 4.549388172295054 4.549388172295056c 2.5125577086191457,4.615493633300168e-16 4.549388172295056,-2.036830463675909 4.549388172295056 -4.549388172295054Z" /></g></g></g><g fill="rgb(97,91,91)" fill-opacity="1.0" stroke-width="0.0"><g fill="rgb(97,91,91)" fill-opacity="1.0"><g fill="rgb(97,91,91)" fill-opacity="1.0"><path d="M 669.3589684970001,377.55742713672413 c 0.0,-3.782552071074581 -3.066364311703437,-6.848916382778018 -6.848916382778016 -6.848916382778018c -3.782552071074581,-2.316145143224838e-16 -6.848916382778018,3.0663643117034365 -6.848916382778018 6.8489163827780155c -4.632290286449676e-16,3.782552071074581 3.066364311703436,6.848916382778018 6.8489163827780155 6.848916382778018c 3.782552071074581,6.948435429674515e-16 6.848916382778018,-3.0663643117034356 6.848916382778019 -6.8489163827780155Z" /></g></g></g><g fill="rgb(240,162,188)" fill-opacity="1.0" stroke-width="0.0"><g fill="rgb(240,162,188)" fill-opacity="1.0"><g fill="rgb(240,162,188)" fill-opacity="1.0"><path d="M 562.1803437362332,299.67851013377526 c 0.0,-2.0922041499759083 -1.696066575617924,-3.788270725593833 -3.788270725593832 -3.788270725593833c -2.0922041499759083,-1.2811055577154025e-16 -3.788270725593833,1.6960665756179238 -3.788270725593833 3.7882707255938315c -2.562211115430805e-16,2.0922041499759083 1.6960665756179236,3.788270725593833 3.788270725593831 3.788270725593833c 2.0922041499759083,3.8433166731462076e-16 3.788270725593833,-1.6960665756179234 3.7882707255938337 -3.7882707255938315Z" /></g></g></g><g fill="rgb(241,237,226)" fill-opacity="1.0" stroke-width="0.0"><g fill="rgb(241,237,226)" fill-opacity="1.0"><g fill="rgb(241,237,226)" fill-opacity="1.0"><path d="M 419.65486873578953,290.90175861929583 c 0.0,-1.870929655655261 -1.5166881560414551,-3.3876178116967166 -3.3876178116967157 -3.3876178116967166c -1.870929655655261,-1.1456140071140376e-16 -3.3876178116967166,1.516688156041455 -3.3876178116967166 3.3876178116967153c -2.2912280142280753e-16,1.870929655655261 1.5166881560414547,3.3876178116967166 3.3876178116967153 3.3876178116967166c 1.870929655655261,3.436842021342113e-16 3.3876178116967166,-1.5166881560414545 3.387617811696717 -3.3876178116967153Z" /></g></g></g><g fill="rgb(168,145,120)" fill-opacity="1.0" stroke-width="0.0"><g fill="rgb(168,145,120)" fill-opacity="1.0"><g fill="rgb(168,145,120)" fill-opacity="1.0"><path d="M 434.4843845618721,431.25787930402976 c 0.0,-1.0289324305246679 -0.8341145408789559,-1.863046971403624 -1.8630469714036235 -1.863046971403624c -1.0289324305246679,-6.300394037904704e-17 -1.863046971403624,0.8341145408789558 -1.863046971403624 1.8630469714036233c -1.2600788075809409e-16,1.0289324305246679 0.8341145408789556,1.863046971403624 1.863046971403623 1.863046971403624c 1.0289324305246679,1.8901182113714113e-16 1.863046971403624,-0.8341145408789555 1.8630469714036244 -1.8630469714036233Z" /></g></g></g><g fill="rgb(191,49,49)" fill-opacity="1.0" stroke-width="0.0"><g fill="rgb(191,49,49)" fill-opacity="1.0"><g fill="rgb(191,49,49)" fill-opacity="1.0"><path d="M 585.4326038780812,293.2134101998477 c 0.0,-3.018856933951766 -2.4472670806560424,-5.466124014607809 -5.466124014607808 -5.466124014607809c -3.018856933951766,-1.8485167406239114e-16 -5.466124014607809,2.447267080656042 -5.466124014607809 5.466124014607807c -3.697033481247823e-16,3.018856933951766 2.4472670806560415,5.466124014607809 5.466124014607806 5.466124014607809c 3.018856933951766,5.545550221871735e-16 5.466124014607809,-2.4472670806560415 5.466124014607812 -5.466124014607807Z" /></g></g></g><g fill="rgb(241,237,226)" fill-opacity="1.0" stroke-width="0.0"><g fill="rgb(241,237,226)" fill-opacity="1.0"><g fill="rgb(241,237,226)" fill-opacity="1.0"><path d="M 579.3194404727088,232.57619369479966 c 0.0,-0.9502778471671873 -0.7703524028231105,-1.720630249990298 -1.7206302499902975 -1.720630249990298c -0.9502778471671873,-5.818773619169667e-17 -1.720630249990298,0.7703524028231103 -1.720630249990298 1.7206302499902972c -1.1637547238339335e-16,0.9502778471671873 0.7703524028231102,1.720630249990298 1.7206302499902972 1.720630249990298c 0.9502778471671873,1.7456320857509002e-16 1.720630249990298,-0.7703524028231101 1.7206302499902981 -1.7206302499902972Z" /></g></g></g><g fill="rgb(97,91,91)" fill-opacity="1.0" stroke-width="0.0"><g fill="rgb(97,91,91)" fill-opacity="1.0"><g fill="rgb(97,91,91)" fill-opacity="1.0"><path d="M 267.8670860655841,494.2940714290216 c 0.0,-1.7159334213791237 -1.3910388821379363,-3.10697230351706 -3.1069723035170593 -3.10697230351706c -1.7159334213791237,-1.0507061860209551e-16 -3.10697230351706,1.391038882137936 -3.10697230351706 3.1069723035170593c -2.1014123720419101e-16,1.7159334213791237 1.3910388821379358,3.10697230351706 3.106972303517059 3.10697230351706c 1.7159334213791237,3.152118558062865e-16 3.10697230351706,-1.3910388821379356 3.1069723035170607 -3.1069723035170593Z" /></g></g></g><g fill="rgb(241,237,226)" fill-opacity="1.0" stroke-width="0.0"><g fill="rgb(241,237,226)" fill-opacity="1.0"><g fill="rgb(241,237,226)" fill-opacity="1.0"><path d="M 548.1887453462027,485.5636269013631 c 0.0,-1.530024902594051 -1.2403302503642972,-2.7703551529583486 -2.770355152958348 -2.7703551529583486c -1.530024902594051,-9.368700497887727e-17 -2.7703551529583486,1.240330250364297 -2.7703551529583486 2.7703551529583477c -1.8737400995775454e-16,1.530024902594051 1.2403302503642968,2.7703551529583486 2.7703551529583472 2.7703551529583486c 1.530024902594051,2.8106101493663183e-16 2.7703551529583486,-1.2403302503642968 2.77035515295835 -2.7703551529583477Z" /></g></g></g><g fill="rgb(191,49,49)" fill-opacity="1.0" stroke-width="0.0"><g fill="rgb(191,49,49)" fill-opacity="1.0"><g fill="rgb(191,49,49)" fill-opacity="1.0"><path d="M 272.81746745833533,335.63773372317746 c 0.0,-1.522287561631948 -1.2340578962108397,-2.756345457842788 -2.7563454578427877 -2.756345457842788c -1.522287561631948,-9.321322948671971e-17 -2.756345457842788,1.2340578962108395 -2.756345457842788 2.7563454578427873c -1.8642645897343943e-16,1.522287561631948 1.2340578962108395,2.756345457842788 2.756345457842787 2.756345457842788c 1.522287561631948,2.7963968846015914e-16 2.756345457842788,-1.2340578962108393 2.7563454578427895 -2.7563454578427873Z" /></g></g></g><g fill="rgb(245,180,86)" fill-opacity="1.0" stroke-width="0.0"><g fill="rgb(245,180,86)" fill-opacity="1.0"><g fill="rgb(245,180,86)" fill-opacity="1.0"><path d="M 401.6624276278987,484.7855005655851 c 0.0,-2.502765997851047 -2.0288927137426245,-4.531658711593672 -4.531658711593671 -4.531658711593672c -2.502765997851047,-1.5325021841415582e-16 -4.531658711593672,2.0288927137426245 -4.531658711593672 4.53165871159367c -3.0650043682831163e-16,2.502765997851047 2.028892713742624,4.531658711593672 4.53165871159367 4.531658711593672c 2.502765997851047,4.5975065524246745e-16 4.531658711593672,-2.028892713742624 4.531658711593672 -4.53165871159367Z" /></g></g></g><g fill="rgb(241,237,226)" fill-opacity="1.0" stroke-width="0.0"><g fill="rgb(241,237,226)" fill-opacity="1.0"><g fill="rgb(241,237,226)" fill-opacity="1.0"><path d="M 502.6150937022431,253.8221621807187 c 0.0,-0.18100867187780068 -0.14673652103809512,-0.3277451929158958 -0.32774519291589577 -0.3277451929158958c -0.18100867187780068,-1.1083584531653105e-17 -0.3277451929158958,0.1467365210380951 -0.3277451929158958 0.3277451929158957c -2.216716906330621e-17,0.18100867187780068 0.1467365210380951,0.3277451929158958 0.32774519291589566 0.3277451929158958c 0.18100867187780068,3.3250753594959315e-17 0.3277451929158958,-0.14673652103809506 0.3277451929158959 -0.3277451929158957Z" /></g></g></g><g fill="rgb(72,189,190)" fill-opacity="1.0" stroke-width="0.0"><g fill="rgb(72,189,190)" fill-opacity="1.0"><g fill="rgb(72,189,190)" fill-opacity="1.0"><path d="M 427.32689739225754,455.58067590857434 c 0.0,-1.623479714021366 -1.316090343849615,-2.939570057870981 -2.9395700578709807 -2.939570057870981c -1.623479714021366,-9.94094617628463e-17 -2.939570057870981,1.3160903438496148 -2.939570057870981 2.9395700578709802c -1.988189235256926e-16,1.623479714021366 1.3160903438496145,2.939570057870981 2.93957005787098 2.939570057870981c 1.623479714021366,2.982283852885389e-16 2.939570057870981,-1.3160903438496145 2.9395700578709816 -2.9395700578709802Z" /></g></g></g><g fill="rgb(185,161,185)" fill-opacity="1.0" stroke-width="0.0"><g fill="rgb(185,161,185)" fill-opacity="1.0"><g fill="rgb(185,161,185)" fill-opacity="1.0"><path d="M 449.223393442176,276.3317553080258 c 0.0,-2.102272827906669 -1.7042288517988704,-3.80650167970554 -3.8065016797055393 -3.80650167970554c -2.102272827906669,-1.2872708448151785e-16 -3.80650167970554,1.7042288517988702 -3.80650167970554 3.806501679705539c -2.574541689630357e-16,2.102272827906669 1.70422885179887,3.80650167970554 3.8065016797055384 3.80650167970554c 2.102272827906669,3.8618125344455357e-16 3.80650167970554,-1.7042288517988697 3.806501679705541 -3.806501679705539Z" /></g></g></g><g fill="rgb(235,86,92)" fill-opacity="1.0" stroke-width="0.0"><g fill="rgb(235,86,92)" fill-opacity="1.0"><g fill="rgb(235,86,92)" fill-opacity="1.0"><path d="M 433.686815996662,335.22231286818163 c 0.0,-1.618043052108449 -1.311683058569381,-2.9297261106778305 -2.92972611067783 -2.9297261106778305c -1.618043052108449,-9.907656223236131e-17 -2.9297261106778305,1.3116830585693808 -2.9297261106778305 2.9297261106778296c -1.9815312446472263e-16,1.618043052108449 1.3116830585693808,2.9297261106778305 2.929726110677829 2.9297261106778305c 1.618043052108449,2.972296866970839e-16 2.9297261106778305,-1.3116830585693806 2.929726110677831 -2.9297261106778296Z" /></g></g></g><g fill="rgb(185,161,185)" fill-opacity="1.0" stroke-width="0.0"><g fill="rgb(185,161,185)" fill-opacity="1.0"><g fill="rgb(185,161,185)" fill-opacity="1.0"><path d="M 642.2552376524366,513.4529578992555 c 0.0,-1.9334204956468737 -1.567346991123721,-3.500767486770595 -3.5007674867705942 -3.500767486770595c -1.9334204956468737,-1.1838786106999166e-16 -3.500767486770595,1.5673469911237208 -3.500767486770595 3.500767486770594c -2.367757221399833e-16,1.9334204956468737 1.5673469911237208,3.500767486770595 3.5007674867705934 3.500767486770595c 1.9334204956468737,3.5516358320997495e-16 3.500767486770595,-1.5673469911237206 3.500767486770596 -3.500767486770594Z" /></g></g></g><g fill="rgb(97,91,91)" fill-opacity="1.0" stroke-width="0.0"><g fill="rgb(97,91,91)" fill-opacity="1.0"><g fill="rgb(97,91,91)" fill-opacity="1.0"><path d="M 322.7595236945322,138.94866448713645 c 0.0,-1.0268321151659343 -0.8324118988694531,-1.8592440140353876 -1.8592440140353872 -1.8592440140353876c -1.0268321151659343,-6.287533315498338e-17 -1.8592440140353876,0.832411898869453 -1.8592440140353876 1.859244014035387c -1.2575066630996677e-16,1.0268321151659343 0.8324118988694529,1.8592440140353876 1.8592440140353867 1.8592440140353876c 1.0268321151659343,1.8862599946495016e-16 1.8592440140353876,-0.8324118988694529 1.859244014035388 -1.859244014035387Z" /></g></g></g><g fill="rgb(185,161,185)" fill-opacity="1.0" stroke-width="0.0"><g fill="rgb(185,161,185)" fill-opacity="1.0"><g fill="rgb(185,161,185)" fill-opacity="1.0"><path d="M 707.8106866086911,450.8477682320683 c 0.0,-1.7047822120801153 -1.3819990408920493,-3.0867812529721648 -3.086781252972164 -3.0867812529721648c -1.7047822120801153,-1.0438780396336286e-16 -3.0867812529721648,1.381999040892049 -3.0867812529721648 3.086781252972164c -2.0877560792672572e-16,1.7047822120801153 1.3819990408920488,3.0867812529721648 3.0867812529721634 3.0867812529721648c 1.7047822120801153,3.1316341189008856e-16 3.0867812529721648,-1.3819990408920488 3.086781252972165 -3.086781252972164Z" /></g></g></g><g fill="rgb(185,161,185)" fill-opacity="1.0" stroke-width="0.0"><g fill="rgb(185,161,185)" fill-opacity="1.0"><g fill="rgb(185,161,185)" fill-opacity="1.0"><path d="M 260.749909989012,339.2248102534868 c 0.0,-0.9344846410223441 -0.7575494796167778,-1.692034120639122 -1.6920341206391216 -1.692034120639122c -0.9344846410223441,-5.722068122401885e-17 -1.692034120639122,0.7575494796167777 -1.692034120639122 1.6920341206391214c -1.144413624480377e-16,0.9344846410223441 0.7575494796167775,1.692034120639122 1.6920341206391214 1.692034120639122c 0.9344846410223441,1.7166204367205656e-16 1.692034120639122,-0.7575494796167774 1.6920341206391223 -1.6920341206391214Z" /></g></g></g><g fill="rgb(241,237,226)" fill-opacity="1.0" stroke-width="0.0"><g fill="rgb(241,237,226)" fill-opacity="1.0"><g fill="rgb(241,237,226)" fill-opacity="1.0"><path d="M 386.74866193180134,273.4959287953829 c 0.0,-1.257305550449724 -1.0192475335072955,-2.27655308395702 -2.2765530839570194 -2.27655308395702c -1.257305550449724,-7.698776089542278e-17 -2.27655308395702,1.0192475335072955 -2.27655308395702 2.276553083957019c -1.5397552179084556e-16,1.257305550449724 1.0192475335072952,2.27655308395702 2.276553083957019 2.27655308395702c 1.257305550449724,2.309632826862683e-16 2.27655308395702,-1.0192475335072952 2.2765530839570207 -2.276553083957019Z" /></g></g></g><g fill="rgb(97,91,91)" fill-opacity="1.0" stroke-width="0.0"><g fill="rgb(97,91,91)" fill-opacity="1.0"><g fill="rgb(97,91,91)" fill-opacity="1.0"><path d="M 465.31285261047026,520.7432213932217 c 0.0,-1.2611686218828038 -1.0223791716588337,-2.2835477935416377 -2.2835477935416373 -2.2835477935416377c -1.2611686218828038,-7.722430579869271e-17 -2.2835477935416377,1.0223791716588335 -2.2835477935416377 2.283547793541637c -1.5444861159738543e-16,1.2611686218828038 1.0223791716588335,2.2835477935416377 2.283547793541637 2.2835477935416377c 1.2611686218828038,2.316729173960781e-16 2.2835477935416377,-1.0223791716588333 2.2835477935416377 -2.283547793541637Z" /></g></g></g><g fill="rgb(209,95,105)" fill-opacity="1.0" stroke-width="0.0"><g fill="rgb(209,95,105)" fill-opacity="1.0"><g fill="rgb(209,95,105)" fill-opacity="1.0"><path d="M 582.0291978609425,345.09209918521987 c 0.0,-0.6414531425213043 -0.5200005147050264,-1.1614536572263308 -1.1614536572263305 -1.1614536572263308c -0.6414531425213043,-3.927767688958631e-17 -1.1614536572263308,0.5200005147050264 -1.1614536572263308 1.1614536572263303c -7.855535377917262e-17,0.6414531425213043 0.5200005147050263,1.1614536572263308 1.1614536572263303 1.1614536572263308c 0.6414531425213043,1.1783303066875893e-16 1.1614536572263308,-0.5200005147050262 1.1614536572263308 -1.1614536572263303Z" /></g></g></g><g fill="rgb(72,189,190)" fill-opacity="1.0" stroke-width="0.0"><g fill="rgb(72,189,190)" fill-opacity="1.0"><g fill="rgb(72,189,190)" fill-opacity="1.0"><path d="M 596.4920680324703,334.8312561023477 c 0.0,-1.311157927413502 -1.0629035106675033,-2.3740614380810054 -2.374061438081005 -2.3740614380810054c -1.311157927413502,-8.028526794918113e-17 -2.3740614380810054,1.0629035106675033 -2.3740614380810054 2.3740614380810046c -1.6057053589836226e-16,1.311157927413502 1.062903510667503,2.3740614380810054 2.3740614380810046 2.3740614380810054c 1.311157927413502,2.408558038475434e-16 2.3740614380810054,-1.0629035106675029 2.3740614380810063 -2.3740614380810046Z" /></g></g></g><g fill="rgb(191,49,49)" fill-opacity="1.0" stroke-width="0.0"><g fill="rgb(191,49,49)" fill-opacity="1.0"><g fill="rgb(191,49,49)" fill-opacity="1.0"><path d="M 647.8505103436509,522.109850876245 c 0.0,-1.199906303971374 -0.9727162504971241,-2.1726225544684983 -2.172622554468498 -2.1726225544684983c -1.199906303971374,-7.34730707217637e-17 -2.1726225544684983,0.972716250497124 -2.1726225544684983 2.1726225544684974c -1.469461414435274e-16,1.199906303971374 0.9727162504971238,2.1726225544684983 2.1726225544684974 2.1726225544684983c 1.199906303971374,2.2041921216529113e-16 2.1726225544684983,-0.9727162504971237 2.172622554468499 -2.1726225544684974Z" /></g></g></g><g fill="rgb(240,162,188)" fill-opacity="1.0" stroke-width="0.0"><g fill="rgb(240,162,188)" fill-opacity="1.0"><g fill="rgb(240,162,188)" fill-opacity="1.0"><path d="M 417.5834241109703,544.519014308274 c 0.0,-1.000031706790398 -0.8106858752119717,-1.81071758200237 -1.8107175820023695 -1.81071758200237c -1.000031706790398,-6.123428143833627e-17 -1.81071758200237,0.8106858752119716 -1.81071758200237 1.8107175820023693c -1.2246856287667254e-16,1.000031706790398 0.8106858752119714,1.81071758200237 1.810717582002369 1.81071758200237c 1.000031706790398,1.8370284431500882e-16 1.81071758200237,-0.8106858752119713 1.8107175820023704 -1.8107175820023693Z" /></g></g></g><g fill="rgb(191,49,49)" fill-opacity="1.0" stroke-width="0.0"><g fill="rgb(191,49,49)" fill-opacity="1.0"><g fill="rgb(191,49,49)" fill-opacity="1.0"><path d="M 387.45332912166276,484.55937454633533 c 0.0,-0.8364026497668032 -0.6780383157370541,-1.5144409655038575 -1.514440965503857 -1.5144409655038575c -0.8364026497668032,-5.1214891391764016e-17 -1.5144409655038575,0.678038315737054 -1.5144409655038575 1.514440965503857c -1.0242978278352803e-16,0.8364026497668032 0.678038315737054,1.5144409655038575 1.5144409655038569 1.5144409655038575c 0.8364026497668032,1.5364467417529204e-16 1.5144409655038575,-0.6780383157370539 1.5144409655038578 -1.514440965503857Z" /></g></g></g><g fill="rgb(72,189,190)" fill-opacity="1.0" stroke-width="0.0"><g fill="rgb(72,189,190)" fill-opacity="1.0"><g fill="rgb(72,189,190)" fill-opacity="1.0"><path d="M 584.6222588403663,145.9721980516248 c 0.0,-1.196537347698572 -0.9699851718262955,-2.1665225195248676 -2.166522519524867 -2.1665225195248676c -1.196537347698572,-7.326678164596598e-17 -2.1665225195248676,0.9699851718262954 -2.1665225195248676 2.1665225195248667c -1.4653356329193195e-16,1.196537347698572 0.9699851718262953,2.1665225195248676 2.1665225195248667 2.1665225195248676c 1.196537347698572,2.1980034493789794e-16 2.1665225195248676,-0.9699851718262952 2.1665225195248676 -2.1665225195248667Z" /></g></g></g><g fill="rgb(168,145,120)" fill-opacity="1.0" stroke-width="0.0"><g fill="rgb(168,145,120)" fill-opacity="1.0"><g fill="rgb(168,145,120)" fill-opacity="1.0"><path d="M 620.5661536056341,414.82689377478255 c 0.0,-0.5580882097893171 -0.45241988401610045,-1.0105080938054176 -1.0105080938054174 -1.0105080938054176c -0.5580882097893171,-3.417304698801818e-17 -1.0105080938054176,0.4524198840161004 -1.0105080938054176 1.0105080938054172c -6.834609397603636e-17,0.5580882097893171 0.45241988401610034,1.0105080938054176 1.0105080938054172 1.0105080938054176c 0.5580882097893171,1.0251914096405454e-16 1.0105080938054176,-0.4524198840161003 1.0105080938054176 -1.0105080938054172Z" /></g></g></g><g fill="rgb(241,237,226)" fill-opacity="1.0" stroke-width="0.0"><g fill="rgb(241,237,226)" fill-opacity="1.0"><g fill="rgb(241,237,226)" fill-opacity="1.0"><path d="M 495.81486131900925,191.78697457857274 c 0.0,-1.0648121233529775 -0.8632007788305607,-1.9280129021835384 -1.928012902183538 -1.9280129021835384c -1.0648121233529775,-6.520093792787603e-17 -1.9280129021835384,0.8632007788305606 -1.9280129021835384 1.9280129021835377c -1.3040187585575206e-16,1.0648121233529775 0.8632007788305605,1.9280129021835384 1.9280129021835375 1.9280129021835384c 1.0648121233529775,1.9560281378362808e-16 1.9280129021835384,-0.8632007788305603 1.9280129021835388 -1.9280129021835377Z" /></g></g></g><g fill="rgb(173,210,116)" fill-opacity="1.0" stroke-width="0.0"><g fill="rgb(173,210,116)" fill-opacity="1.0"><g fill="rgb(173,210,116)" fill-opacity="1.0"><path d="M 705.1450170534188,181.8674883039529 c 0.0,-0.7451228951601971 -0.6040414541876429,-1.3491643493478402 -1.34916434934784 -1.3491643493478402c -0.7451228951601971,-4.5625618426467215e-17 -1.3491643493478402,0.6040414541876429 -1.3491643493478402 1.3491643493478398c -9.125123685293443e-17,0.7451228951601971 0.6040414541876428,1.3491643493478402 1.3491643493478396 1.3491643493478402c 0.7451228951601971,1.3687685527940163e-16 1.3491643493478402,-0.6040414541876427 1.3491643493478405 -1.3491643493478398Z" /></g></g></g><g fill="rgb(245,180,86)" fill-opacity="1.0" stroke-width="0.0"><g fill="rgb(245,180,86)" fill-opacity="1.0"><g fill="rgb(245,180,86)" fill-opacity="1.0"><path d="M 412.82583218972115,308.80954577561397 c 0.0,-0.8330143399649155 -0.6752915479310125,-1.5083058878959281 -1.5083058878959277 -1.5083058878959281c -0.8330143399649155,-5.100741725409394e-17 -1.5083058878959281,0.6752915479310124 -1.5083058878959281 1.5083058878959277c -1.0201483450818788e-16,0.8330143399649155 0.6752915479310123,1.5083058878959281 1.5083058878959275 1.5083058878959281c 0.8330143399649155,1.5302225176228182e-16 1.5083058878959281,-0.6752915479310122 1.5083058878959283 -1.5083058878959277Z" /></g></g></g><g fill="rgb(209,95,105)" fill-opacity="1.0" stroke-width="0.0"><g fill="rgb(209,95,105)" fill-opacity="1.0"><g fill="rgb(209,95,105)" fill-opacity="1.0"><path d="M 466.8465827761981,619.3001880049637 c 0.0,-0.553120192743265 -0.4483925104641428,-1.0015127032074078 -1.0015127032074076 -1.0015127032074078c -0.553120192743265,-3.386884367934032e-17 -1.0015127032074078,0.44839251046414275 -1.0015127032074078 1.0015127032074074c -6.773768735868064e-17,0.553120192743265 0.4483925104641427,1.0015127032074078 1.0015127032074074 1.0015127032074078c 0.553120192743265,1.0160653103802097e-16 1.0015127032074078,-0.44839251046414264 1.0015127032074083 -1.0015127032074074Z" /></g></g></g><g fill="rgb(245,180,86)" fill-opacity="1.0" stroke-width="0.0"><g fill="rgb(245,180,86)" fill-opacity="1.0"><g fill="rgb(245,180,86)" fill-opacity="1.0"><path d="M 446.921262463451,244.87303340300477 c 0.0,-0.8681657099373861 -0.7037873635511915,-1.5719530734885778 -1.5719530734885774 -1.5719530734885778c -0.8681657099373861,-5.3159817890215464e-17 -1.5719530734885778,0.7037873635511915 -1.5719530734885778 1.5719530734885774c -1.0631963578043093e-16,0.8681657099373861 0.7037873635511914,1.5719530734885778 1.5719530734885772 1.5719530734885778c 0.8681657099373861,1.594794536706464e-16 1.5719530734885778,-0.7037873635511913 1.571953073488578 -1.5719530734885774Z" /></g></g></g><g fill="rgb(191,49,49)" fill-opacity="1.0" stroke-width="0.0"><g fill="rgb(191,49,49)" fill-opacity="1.0"><g fill="rgb(191,49,49)" fill-opacity="1.0"><path d="M 329.46090416060423,235.74953372660548 c 0.0,-0.26771019022104203 -0.21702198879179846,-0.48473217901284055 -0.48473217901284044 -0.48473217901284055c -0.26771019022104203,-1.639252137766641e-17 -0.48473217901284055,0.21702198879179843 -0.48473217901284055 0.4847321790128404c -3.278504275533282e-17,0.26771019022104203 0.2170219887917984,0.48473217901284055 0.4847321790128403 0.48473217901284055c 0.26771019022104203,4.917756413299922e-17 0.48473217901284055,-0.21702198879179838 0.48473217901284066 -0.4847321790128404Z" /></g></g></g><g fill="rgb(235,86,92)" fill-opacity="1.0" stroke-width="0.0"><g fill="rgb(235,86,92)" fill-opacity="1.0"><g fill="rgb(235,86,92)" fill-opacity="1.0"><path d="M 739.4014178565455,240.0136735791685 c 0.0,-0.5191848795216578 -0.42088250361851276,-0.9400673831401707 -0.9400673831401705 -0.9400673831401707c -0.5191848795216578,-3.179090504359512e-17 -0.9400673831401707,0.4208825036185127 -0.9400673831401707 0.9400673831401704c -6.358181008719024e-17,0.5191848795216578 0.42088250361851265,0.9400673831401707 0.9400673831401702 0.9400673831401707c 0.5191848795216578,9.537271513078536e-17 0.9400673831401707,-0.4208825036185126 0.9400673831401709 -0.9400673831401704Z" /></g></g></g><g fill="rgb(235,86,92)" fill-opacity="1.0" stroke-width="0.0"><g fill="rgb(235,86,92)" fill-opacity="1.0"><g fill="rgb(235,86,92)" fill-opacity="1.0"><path d="M 456.67673173392353,545.1998489660041 c 0.0,-0.7349850865816019 -0.5958231365438479,-1.3308082231254499 -1.3308082231254497 -1.3308082231254499c -0.7349850865816019,-4.5004856685159944e-17 -1.3308082231254499,0.5958231365438478 -1.3308082231254499 1.3308082231254494c -9.000971337031989e-17,0.7349850865816019 0.5958231365438478,1.3308082231254499 1.3308082231254492 1.3308082231254499c 0.7349850865816019,1.3501457005547984e-16 1.3308082231254499,-0.5958231365438477 1.3308082231254506 -1.3308082231254494Z" /></g></g></g><g fill="rgb(97,91,91)" fill-opacity="1.0" stroke-width="0.0"><g fill="rgb(97,91,91)" fill-opacity="1.0"><g fill="rgb(97,91,91)" fill-opacity="1.0"><path d="M 514.9338423898407,668.9778805779604 c 0.0,-0.7830074746935599 -0.6347529739399651,-1.4177604486335251 -1.417760448633525 -1.4177604486335251c -0.7830074746935599,-4.7945379879596013e-17 -1.4177604486335251,0.634752973939965 -1.4177604486335251 1.4177604486335247c -9.589075975919203e-17,0.7830074746935599 0.6347529739399649,1.4177604486335251 1.4177604486335245 1.4177604486335251c 0.7830074746935599,1.4383613963878805e-16 1.4177604486335251,-0.6347529739399648 1.4177604486335253 -1.4177604486335247Z" /></g></g></g><g fill="rgb(191,49,49)" fill-opacity="1.0" stroke-width="0.0"><g fill="rgb(191,49,49)" fill-opacity="1.0"><g fill="rgb(191,49,49)" fill-opacity="1.0"><path d="M 281.5955390687201,216.2242611854682 c 0.0,-0.9184324944878833 -0.744536643749717,-1.6629691382376004 -1.6629691382376 -1.6629691382376004c -0.9184324944878833,-5.623777073037527e-17 -1.6629691382376004,0.7445366437497168 -1.6629691382376004 1.6629691382376c -1.1247554146075055e-16,0.9184324944878833 0.7445366437497167,1.6629691382376004 1.6629691382375997 1.6629691382376004c 0.9184324944878833,1.687133121911258e-16 1.6629691382376004,-0.7445366437497166 1.6629691382376006 -1.6629691382376Z" /></g></g></g><g fill="rgb(241,237,226)" fill-opacity="1.0" stroke-width="0.0"><g fill="rgb(241,237,226)" fill-opacity="1.0"><g fill="rgb(241,237,226)" fill-opacity="1.0"><path d="M 333.0343461647599,287.61698896541014 c 0.0,-0.5481749834170447 -0.44438362622226196,-0.9925586096393069 -0.9925586096393066 -0.9925586096393069c -0.5481749834170447,-3.3566036940716866e-17 -0.9925586096393069,0.4443836262222619 -0.9925586096393069 0.9925586096393065c -6.713207388143373e-17,0.5481749834170447 0.44438362622226185,0.9925586096393069 0.9925586096393064 0.9925586096393069c 0.5481749834170447,1.0069811082215059e-16 0.9925586096393069,-0.4443836262222618 0.9925586096393071 -0.9925586096393065Z" /></g></g></g><g fill="rgb(241,237,226)" fill-opacity="1.0" stroke-width="0.0"><g fill="rgb(241,237,226)" fill-opacity="1.0"><g fill="rgb(241,237,226)" fill-opacity="1.0"><path d="M 720.0622617411116,526.2362105444017 c 0.0,-0.6706163008811071 -0.5436419256706264,-1.2142582265517337 -1.2142582265517334 -1.2142582265517337c -0.6706163008811071,-4.1063405316504306e-17 -1.2142582265517337,0.5436419256706263 -1.2142582265517337 1.2142582265517332c -8.212681063300861e-17,0.6706163008811071 0.5436419256706262,1.2142582265517337 1.2142582265517332 1.2142582265517337c 0.6706163008811071,1.2319021594951292e-16 1.2142582265517337,-0.5436419256706262 1.2142582265517337 -1.2142582265517332Z" /></g></g></g><g fill="rgb(185,161,185)" fill-opacity="1.0" stroke-width="0.0"><g fill="rgb(185,161,185)" fill-opacity="1.0"><g fill="rgb(185,161,185)" fill-opacity="1.0"><path d="M 678.898024520402,263.4153338166858 c 0.0,-0.7048973382175492 -0.5714321972865769,-1.2763295355041262 -1.276329535504126 -1.2763295355041262c -0.7048973382175492,-4.316251344878054e-17 -1.2763295355041262,0.5714321972865768 -1.2763295355041262 1.2763295355041258c -8.632502689756107e-17,0.7048973382175492 0.5714321972865768,1.2763295355041262 1.2763295355041255 1.2763295355041262c 0.7048973382175492,1.2948754034634162e-16 1.2763295355041262,-0.5714321972865767 1.2763295355041264 -1.2763295355041258Z" /></g></g></g><g fill="rgb(168,145,120)" fill-opacity="1.0" stroke-width="0.0"><g fill="rgb(168,145,120)" fill-opacity="1.0"><g fill="rgb(168,145,120)" fill-opacity="1.0"><path d="M 765.725886255743,632.0688450088105 c 0.0,-0.6290862580223425 -0.509975173992717,-1.1390614320150596 -1.1390614320150594 -1.1390614320150596c -0.6290862580223425,-3.852042361373239e-17 -1.1390614320150596,0.5099751739927169 -1.1390614320150596 1.1390614320150592c -7.704084722746478e-17,0.6290862580223425 0.5099751739927169,1.1390614320150596 1.1390614320150592 1.1390614320150596c 0.6290862580223425,1.1556127084119716e-16 1.1390614320150596,-0.5099751739927167 1.13906143201506 -1.1390614320150592Z" /></g></g></g><g fill="rgb(245,180,86)" fill-opacity="1.0" stroke-width="0.0"><g fill="rgb(245,180,86)" fill-opacity="1.0"><g fill="rgb(245,180,86)" fill-opacity="1.0"><path d="M 568.4484948613298,631.2809473030211 c 0.0,-0.5273659688246417 -0.4275145868782157,-0.9548805557028575 -0.9548805557028572 -0.9548805557028575c -0.5273659688246417,-3.2291852285017015e-17 -0.9548805557028575,0.42751458687821564 -0.9548805557028575 0.9548805557028571c -6.458370457003403e-17,0.5273659688246417 0.4275145868782156,0.9548805557028575 0.954880555702857 0.9548805557028575c 0.5273659688246417,9.687555685505103e-17 0.9548805557028575,-0.42751458687821553 0.9548805557028577 -0.9548805557028571Z" /></g></g></g><g fill="rgb(235,86,92)" fill-opacity="1.0" stroke-width="0.0"><g fill="rgb(235,86,92)" fill-opacity="1.0"><g fill="rgb(235,86,92)" fill-opacity="1.0"><path d="M 1.6224896888643716,330.50182561244634 c 0.0,-0.44803815595876095 -0.36320668847344334,-0.8112448444322043 -0.8112448444322041 -0.8112448444322043c -0.44803815595876095,-2.743442467953896e-17 -0.8112448444322043,0.3632066884734433 -0.8112448444322043 0.8112448444322041c -5.486884935907792e-17,0.44803815595876095 0.36320668847344323,0.8112448444322043 0.811244844432204 0.8112448444322043c 0.44803815595876095,8.230327403861688e-17 0.8112448444322043,-0.3632066884734432 0.8112448444322045 -0.8112448444322041Z" /></g></g></g><g fill="rgb(173,210,116)" fill-opacity="1.0" stroke-width="0.0"><g fill="rgb(173,210,116)" fill-opacity="1.0"><g fill="rgb(173,210,116)" fill-opacity="1.0"><path d="M 290.85536091738555,266.49934513198906 c 0.0,-0.5532413964439375 -0.44849076547695044,-1.001732161920888 -1.0017321619208879 -1.001732161920888c -0.5532413964439375,-3.3876265265544e-17 -1.001732161920888,0.4484907654769504 -1.001732161920888 1.0017321619208877c -6.7752530531088e-17,0.5532413964439375 0.4484907654769503,1.001732161920888 1.0017321619208877 1.001732161920888c 0.5532413964439375,1.0162879579663199e-16 1.001732161920888,-0.44849076547695027 1.001732161920888 -1.0017321619208877Z" /></g></g></g><g fill="rgb(245,180,86)" fill-opacity="1.0" stroke-width="0.0"><g fill="rgb(245,180,86)" fill-opacity="1.0"><g fill="rgb(245,180,86)" fill-opacity="1.0"><path d="M 799.9999999999999,208.54760076204795 c 0.0,-0.30167717660554216 -0.24455767180910018,-0.5462348484146424 -0.5462348484146423 -0.5462348484146424c -0.30167717660554216,-1.84723994352894e-17 -0.5462348484146424,0.24455767180910015 -0.5462348484146424 0.5462348484146422c -3.69447988705788e-17,0.30167717660554216 0.24455767180910012,0.5462348484146424 0.5462348484146422 0.5462348484146424c 0.30167717660554216,5.54171983058682e-17 0.5462348484146424,-0.2445576718091001 0.5462348484146426 -0.5462348484146422Z" /></g></g></g><g fill="rgb(245,180,86)" fill-opacity="1.0" stroke-width="0.0"><g fill="rgb(245,180,86)" fill-opacity="1.0"><g fill="rgb(245,180,86)" fill-opacity="1.0"><path d="M 205.15037448754092,0.4527181355175003 c 0.0,-0.2500293222181288 -0.2026888132993405,-0.45271813551746937 -0.45271813551746926 -0.45271813551746937c -0.2500293222181288,-1.5309880457370684e-17 -0.45271813551746937,0.20268881329934046 -0.45271813551746937 0.4527181355174692c -3.061976091474137e-17,0.2500293222181288 0.20268881329934044,0.45271813551746937 0.45271813551746914 0.45271813551746937c 0.2500293222181288,4.592964137211205e-17 0.45271813551746937,-0.20268881329934044 0.4527181355174695 -0.4527181355174692Z" /></g></g></g><g fill="rgb(185,161,185)" fill-opacity="1.0" stroke-width="0.0"><g fill="rgb(185,161,185)" fill-opacity="1.0"><g fill="rgb(185,161,185)" fill-opacity="1.0"><path d="M 443.4431244537382,168.61091283263502 c 0.0,-0.3683049270475972 -0.29857013542775956,-0.6668750624753569 -0.6668750624753568 -0.6668750624753569c -0.3683049270475972,-2.2552172500951968e-17 -0.6668750624753569,0.29857013542775956 -0.6668750624753569 0.6668750624753567c -4.5104345001903937e-17,0.3683049270475972 0.2985701354277595,0.6668750624753569 0.6668750624753566 0.6668750624753569c 0.3683049270475972,6.765651750285591e-17 0.6668750624753569,-0.29857013542775945 0.666875062475357 -0.6668750624753567Z" /></g></g></g><g fill="rgb(72,189,190)" fill-opacity="1.0" stroke-width="0.0"><g fill="rgb(72,189,190)" fill-opacity="1.0"><g fill="rgb(72,189,190)" fill-opacity="1.0"><path d="M 20.600787836895307,420.35877933432636 c 0.0,-0.26334596688366374 -0.21348408675143388,-0.4768300536350977 -0.47683005363509756 -0.4768300536350977c -0.26334596688366374,-1.6125289770622185e-17 -0.4768300536350977,0.21348408675143385 -0.4768300536350977 0.4768300536350975c -3.225057954124437e-17,0.26334596688366374 0.21348408675143382,0.4768300536350977 0.47683005363509745 0.4768300536350977c 0.26334596688366374,4.837586931186655e-17 0.4768300536350977,-0.2134840867514338 0.4768300536350978 -0.4768300536350975Z" /></g></g></g><g fill="rgb(240,162,188)" fill-opacity="1.0" stroke-width="0.0"><g fill="rgb(240,162,188)" fill-opacity="1.0"><g fill="rgb(240,162,188)" fill-opacity="1.0"><path d="M 439.32017424842263,772.8230591580534 c 0.0,-0.434690170490252 -0.3523860082806273,-0.7870761787708794 -0.7870761787708792 -0.7870761787708794c -0.434690170490252,-2.661709629558522e-17 -0.7870761787708794,0.35238600828062727 -0.7870761787708794 0.7870761787708792c -5.323419259117044e-17,0.434690170490252 0.35238600828062727,0.7870761787708794 0.7870761787708791 0.7870761787708794c 0.434690170490252,7.985128888675565e-17 0.7870761787708794,-0.3523860082806272 0.7870761787708795 -0.7870761787708792Z" /></g></g></g><g fill="rgb(191,49,49)" fill-opacity="1.0" stroke-width="0.0"><g fill="rgb(191,49,49)" fill-opacity="1.0"><g fill="rgb(191,49,49)" fill-opacity="1.0"><path d="M 369.87993268142617,184.03920107796839 c 0.0,-0.250949030881613 -0.20343438448246798,-0.45438341536408106 -0.45438341536408094 -0.45438341536408106c -0.250949030881613,-1.5366196370914885e-17 -0.45438341536408106,0.20343438448246795 -0.45438341536408106 0.4543834153640809c -3.073239274182977e-17,0.250949030881613 0.20343438448246795,0.45438341536408106 0.45438341536408083 0.45438341536408106c 0.250949030881613,4.609858911274465e-17 0.45438341536408106,-0.20343438448246792 0.45438341536408117 -0.4543834153640809Z" /></g></g></g></g></g></g></svg>