<?xml version="1.0" encoding="UTF-8"?>
<!DOCTYPE svg PUBLIC "-//W3C//DTD SVG 1.1//EN"
    "http://www.w3.org/Graphics/SVG/1.1/DTD/svg11.dtd">
<svg xmlns="http://www.w3.org/2000/svg" xmlns:xlink="http://www.w3.org/1999/xlink" version="1.1" width="800.0" height="664.2918461171666" font-size="1" viewBox="0 0 800 664" stroke="rgb(0,0,0)" stroke-opacity="1"><g><g fill="rgb(0,0,0)" fill-opacity="0.0"><g stroke="rgb(0,0,0)" stroke-opacity="1.0" stroke-width="2.9159793604035906" stroke-linecap="butt" stroke-linejoin="miter" font-size="1.0em" stroke-miterlimit="10.0"><g fill="rgb(235,86,92)" fill-opacity="1.0" stroke-width="0.0"><g fill="rgb(235,86,92)" fill-opacity="1.0"><g fill="rgb(235,86,92)" fill-opacity="1.0"><path d="M 434.25309514565754,342.66099959937014 c 0.0,-12.428557124266904 -10.075336253333525,-22.50389337760043 -22.503893377600427 -22.50389337760043c -12.428557124266904,-7.610296350126748e-16 -22.50389337760043,10.075336253333523 -22.50389337760043 22.503893377600424c -1.5220592700253495e-15,12.428557124266904 10.075336253333523,22.50389337760043 22.50389337760042 22.50389337760043c 12.428557124266904,2.2830889050380243e-15 22.50389337760043,-10.075336253333521 22.503893377600434 -22.503893377600424Z" /></g></g></g><g fill="rgb(168,145,120)" fill-opacity="1.0" stroke-width="0.0"><g fill="rgb(168,145,120)" fill-opacity="1.0"><g fill="rgb(168,145,120)" fill-opacity="1.0"><path d="M 512.2520611318455,378.97875992240034 c 0.0,-20.102381432478207 -16.296199985236264,-36.398581417714475 -36.39858141771447 -36.398581417714475c -20.102381432478207,-1.230915853826181e-15 -36.398581417714475,16.296199985236264 -36.398581417714475 36.39858141771446c -2.461831707652362e-15,20.102381432478207 16.29619998523626,36.398581417714475 36.39858141771446 36.398581417714475c 20.102381432478207,3.692747561478543e-15 36.398581417714475,-16.29619998523626 36.398581417714475 -36.39858141771446Z" /></g></g></g><g fill="rgb(235,86,92)" fill-opacity="1.0" stroke-width="0.0"><g fill="rgb(235,86,92)" fill-opacity="1.0"><g fill="rgb(235,86,92)" fill-opacity="1.0"><path d="M 439.61188517164584,417.37990090942526 c 0.0,-14.985483772076662 -12.148134848875387,-27.133618620952053 -27.133618620952046 -27.133618620952053c -14.985483772076662,-9.175962367574145e-16 -27.133618620952053,12.148134848875385 -27.133618620952053 27.133618620952042c -1.835192473514829e-15,14.985483772076662 12.148134848875383,27.133618620952053 27.133618620952042 27.133618620952053c 14.985483772076662,2.7527887102722435e-15 27.133618620952053,-12.148134848875381 27.133618620952056 -27.133618620952042Z" /></g></g></g><g fill="rgb(235,86,92)" fill-opacity="1.0" stroke-width="0.0"><g fill="rgb(235,86,92)" fill-opacity="1.0"><g fill="rgb(235,86,92)" fill-opacity="1.0"><path d="M 468.66450152816515,323.5312009219493 c 0.0,-8.944848234598899 -7.251232206404371,-16.19608044100327 -16.196080441003268 -16.19608044100327c -8.944848234598899,-5.477139879680197e-16 -16.19608044100327,7.25123220640437 -16.19608044100327 16.196080441003264c -1.0954279759360394e-15,8.944848234598899 7.251232206404369,16.19608044100327 16.196080441003264 16.19608044100327c 8.944848234598899,1.6431419639040592e-15 16.19608044100327,-7.251232206404368 16.19608044100327 -16.196080441003264Z" /></g></g></g><g fill="rgb(173,210,116)" fill-opacity="1.0" stroke-width="0.0"><g fill="rgb(173,210,116)" fill-opacity="1.0"><g fill="rgb(173,210,116)" fill-opacity="1.0"><path d="M 391.8927170610694,371.8239903944003 c 0.0,-4.87220329906457 -3.9497011633658943,-8.821904462430465 -8.821904462430464 -8.821904462430465c -4.87220329906457,-2.9833640874973e-16 -8.821904462430465,3.949701163365894 -8.821904462430465 8.821904462430462c -5.9667281749946e-16,4.87220329906457 3.9497011633658934,8.821904462430465 8.821904462430462 8.821904462430465c 4.87220329906457,8.9500922624919e-16 8.821904462430465,-3.949701163365893 8.821904462430465 -8.821904462430462Z" /></g></g></g><g fill="rgb(209,95,105)" fill-opacity="1.0" stroke-width="0.0"><g fill="rgb(209,95,105)" fill-opacity="1.0"><g fill="rgb(209,95,105)" fill-opacity="1.0"><path d="M 438.98120056905464,279.61924699257247 c 0.0,-14.279104001908355 -11.575500903048955,-25.854604904957313 -25.854604904957306 -25.854604904957313c -14.279104001908355,-8.743429505314614e-16 -25.854604904957313,11.575500903048953 -25.854604904957313 25.854604904957306c -1.7486859010629228e-15,14.279104001908355 11.575500903048953,25.854604904957313 25.854604904957302 25.854604904957313c 14.279104001908355,2.6230288515943843e-15 25.854604904957313,-11.575500903048951 25.854604904957316 -25.854604904957306Z" /></g></g></g><g fill="rgb(240,162,188)" fill-opacity="1.0" stroke-width="0.0"><g fill="rgb(240,162,188)" fill-opacity="1.0"><g fill="rgb(240,162,188)" fill-opacity="1.0"><path d="M 382.36398616875556,329.41867007059 c 0.0,-8.556219276865741 -6.936186188769797,-15.49240546563554 -15.492405465635537 -15.49240546563554c -8.556219276865741,-5.239173275108256e-16 -15.49240546563554,6.936186188769796 -15.49240546563554 15.492405465635535c -1.0478346550216511e-15,8.556219276865741 6.9361861887697955,15.49240546563554 15.492405465635533 15.49240546563554c 8.556219276865741,1.5717519825324766e-15 15.49240546563554,-6.936186188769795 15.492405465635544 -15.492405465635535Z" /></g></g></g><g fill="rgb(97,91,91)" fill-opacity="1.0" stroke-width="0.0"><g fill="rgb(97,91,91)" fill-opacity="1.0"><g fill="rgb(97,91,91)" fill-opacity="1.0"><path d="M 548.996553585281,347.70673278439824 c 0.0,-7.3984470571782435 -5.9976263622760255,-13.39607341945427 -13.396073419454266 -13.39607341945427c -7.3984470571782435,-4.530242253617245e-16 -13.39607341945427,5.997626362276025 -13.39607341945427 13.396073419454265c -9.06048450723449e-16,7.3984470571782435 5.997626362276024,13.39607341945427 13.396073419454265 13.39607341945427c 7.3984470571782435,1.3590726760851736e-15 13.39607341945427,-5.997626362276023 13.396073419454272 -13.396073419454265Z" /></g></g></g><g fill="rgb(185,161,185)" fill-opacity="1.0" stroke-width="0.0"><g fill="rgb(185,161,185)" fill-opacity="1.0"><g fill="rgb(185,161,185)" fill-opacity="1.0"><path d="M 416.52654577265935,380.3104954846811 c 0.0,-2.57259065066402 -2.085496778786456,-4.658087429450476 -4.658087429450475 -4.658087429450476c -2.57259065066402,-1.5752574529260492e-16 -4.658087429450476,2.0854967787864553 -4.658087429450476 4.658087429450474c -3.1505149058520985e-16,2.57259065066402 2.0854967787864553,4.658087429450476 4.658087429450474 4.658087429450476c 2.57259065066402,4.725772358778148e-16 4.658087429450476,-2.085496778786455 4.658087429450476 -4.658087429450474Z" /></g></g></g><g fill="rgb(191,49,49)" fill-opacity="1.0" stroke-width="0.0"><g fill="rgb(191,49,49)" fill-opacity="1.0"><g fill="rgb(191,49,49)" fill-opacity="1.0"><path d="M 364.2057465648012,393.46010902704876 c 0.0,-9.775149829812761 -7.9243246402095,-17.699474470022263 -17.69947447002226 -17.699474470022263c -9.775149829812761,-5.985552975132996e-16 -17.699474470022263,7.924324640209499 -17.699474470022263 17.699474470022256c -1.1971105950265991e-15,9.775149829812761 7.924324640209498,17.699474470022263 17.699474470022256 17.699474470022263c 9.775149829812761,1.795665892539899e-15 17.699474470022263,-7.924324640209497 17.699474470022263 -17.699474470022256Z" /></g></g></g><g fill="rgb(235,86,92)" fill-opacity="1.0" stroke-width="0.0"><g fill="rgb(235,86,92)" fill-opacity="1.0"><g fill="rgb(235,86,92)" fill-opacity="1.0"><path d="M 531.755641663374,309.3300482721123 c 0.0,-6.346331203657392 -5.144717943728539,-11.491049147385931 -11.49104914738593 -11.491049147385931c -6.346331203657392,-3.8860070974439966e-16 -11.491049147385931,5.144717943728538 -11.491049147385931 11.491049147385928c -7.772014194887993e-16,6.346331203657392 5.144717943728537,11.491049147385931 11.491049147385926 11.491049147385931c 6.346331203657392,1.165802129233199e-15 11.491049147385931,-5.144717943728537 11.491049147385933 -11.491049147385928Z" /></g></g></g><g fill="rgb(235,86,92)" fill-opacity="1.0" stroke-width="0.0"><g fill="rgb(235,86,92)" fill-opacity="1.0"><g fill="rgb(235,86,92)" fill-opacity="1.0"><path d="M 424.3017810786264,310.2516671775754 c 0.0,-0.7566334934963164 -0.6133726378120898,-1.3700061313084064 -1.3700061313084062 -1.3700061313084064c -0.7566334934963164,-4.6330439296897175e-17 -1.3700061313084064,0.6133726378120898 -1.3700061313084064 1.370006131308406c -9.266087859379435e-17,0.7566334934963164 0.6133726378120897,1.3700061313084064 1.3700061313084058 1.3700061313084064c 0.7566334934963164,1.3899131789069152e-16 1.3700061313084064,-0.6133726378120896 1.370006131308407 -1.370006131308406Z" /></g></g></g><g fill="rgb(191,49,49)" fill-opacity="1.0" stroke-width="0.0"><g fill="rgb(191,49,49)" fill-opacity="1.0"><g fill="rgb(191,49,49)" fill-opacity="1.0"><path d="M 481.57059760296164,331.9853850826538 c 0.0,-1.8805057045157203 -1.524451077455647,-3.4049567819713675 -3.4049567819713666 -3.4049567819713675c -1.8805057045157203,-1.1514776459067575e-16 -3.4049567819713675,1.5244510774556468 -3.4049567819713675 3.404956781971366c -2.302955291813515e-16,1.8805057045157203 1.5244510774556466,3.4049567819713675 3.404956781971366 3.4049567819713675c 1.8805057045157203,3.4544329377202726e-16 3.4049567819713675,-1.5244510774556463 3.404956781971368 -3.404956781971366Z" /></g></g></g><g fill="rgb(97,91,91)" fill-opacity="1.0" stroke-width="0.0"><g fill="rgb(97,91,91)" fill-opacity="1.0"><g fill="rgb(97,91,91)" fill-opacity="1.0"><path d="M 374.279096177605,280.0926206251537 c 0.0,-12.50113504424213 -10.134172282408064,-22.635307326650196 -22.635307326650192 -22.635307326650196c -12.50113504424213,-7.654737508819965e-16 -22.635307326650196,10.134172282408063 -22.635307326650196 22.63530732665019c -1.530947501763993e-15,12.50113504424213 10.134172282408061,22.635307326650196 22.635307326650185 22.635307326650196c 12.50113504424213,2.2964212526459895e-15 22.635307326650196,-10.13417228240806 22.6353073266502 -22.63530732665019Z" /></g></g></g><g fill="rgb(235,86,92)" fill-opacity="1.0" stroke-width="0.0"><g fill="rgb(235,86,92)" fill-opacity="1.0"><g fill="rgb(235,86,92)" fill-opacity="1.0"><path d="M 377.63579458951284,436.41616244951524 c 0.0,-5.90491075567507 -4.786875967540064,-10.691786723215136 -10.691786723215134 -10.691786723215136c -5.90491075567507,-3.6157150280941265e-16 -10.691786723215136,4.786875967540064 -10.691786723215136 10.691786723215133c -7.231430056188253e-16,5.90491075567507 4.786875967540063,10.691786723215136 10.691786723215131 10.691786723215136c 5.90491075567507,1.084714508428238e-15 10.691786723215136,-4.7868759675400625 10.691786723215138 -10.691786723215133Z" /></g></g></g><g fill="rgb(191,49,49)" fill-opacity="1.0" stroke-width="0.0"><g fill="rgb(191,49,49)" fill-opacity="1.0"><g fill="rgb(191,49,49)" fill-opacity="1.0"><path d="M 507.0760973047821,282.12549666758986 c 0.0,-8.904181157582553 -7.218265026764517,-16.122446184347073 -16.12244618434707 -16.122446184347073c -8.904181157582553,-5.452238476830824e-16 -16.122446184347073,7.2182650267645165 -16.122446184347073 16.122446184347066c -1.0904476953661648e-15,8.904181157582553 7.218265026764516,16.122446184347073 16.122446184347066 16.122446184347073c 8.904181157582553,1.6356715430492473e-15 16.122446184347073,-7.218265026764515 16.122446184347073 -16.122446184347066Z" /></g></g></g><g fill="rgb(173,210,116)" fill-opacity="1.0" stroke-width="0.0"><g fill="rgb(173,210,116)" fill-opacity="1.0"><g fill="rgb(173,210,116)" fill-opacity="1.0"><path d="M 493.6915106339031,453.7132386740765 c 0.0,-12.966296788090744 -10.511260381581783,-23.47755716967253 -23.477557169672526 -23.47755716967253c -12.966296788090744,-7.939566929164968e-16 -23.47755716967253,10.511260381581781 -23.47755716967253 23.477557169672522c -1.5879133858329935e-15,12.966296788090744 10.51126038158178,23.47755716967253 23.47755716967252 23.47755716967253c 12.966296788090744,2.3818700787494904e-15 23.47755716967253,-10.51126038158178 23.47755716967254 -23.477557169672522Z" /></g></g></g><g fill="rgb(72,189,190)" fill-opacity="1.0" stroke-width="0.0"><g fill="rgb(72,189,190)" fill-opacity="1.0"><g fill="rgb(72,189,190)" fill-opacity="1.0"><path d="M 473.0652551513128,297.49584819502286 c 0.0,-3.72493856185689 -3.0196593344241855,-6.744597896281077 -6.744597896281075 -6.744597896281077c -3.72493856185689,-2.280867043399293e-16 -6.744597896281077,3.019659334424185 -6.744597896281077 6.744597896281074c -4.561734086798586e-16,3.72493856185689 3.019659334424185,6.744597896281077 6.744597896281074 6.744597896281077c 3.72493856185689,6.842601130197878e-16 6.744597896281077,-3.0196593344241847 6.7445978962810775 -6.744597896281074Z" /></g></g></g><g fill="rgb(168,145,120)" fill-opacity="1.0" stroke-width="0.0"><g fill="rgb(168,145,120)" fill-opacity="1.0"><g fill="rgb(168,145,120)" fill-opacity="1.0"><path d="M 399.8645735276632,314.53879699269896 c 0.0,-4.946815983987034 -4.010186695342092,-8.957002679329127 -8.957002679329126 -8.957002679329127c -4.946815983987034,-3.0290511803803426e-16 -8.957002679329127,4.010186695342092 -8.957002679329127 8.957002679329124c -6.058102360760685e-16,4.946815983987034 4.0101866953420915,8.957002679329127 8.957002679329124 8.957002679329127c 4.946815983987034,9.087153541141028e-16 8.957002679329127,-4.0101866953420915 8.957002679329127 -8.957002679329124Z" /></g></g></g><g fill="rgb(209,95,105)" fill-opacity="1.0" stroke-width="0.0"><g fill="rgb(209,95,105)" fill-opacity="1.0"><g fill="rgb(209,95,105)" fill-opacity="1.0"><path d="M 502.66215767534777,318.6216552548488 c 0.0,-5.709133823127362 -4.628167405770413,-10.337301228897777 -10.337301228897775 -10.337301228897777c -5.709133823127362,-3.495836231198408e-16 -10.337301228897777,4.628167405770413 -10.337301228897777 10.337301228897774c -6.991672462396816e-16,5.709133823127362 4.628167405770412,10.337301228897777 10.337301228897772 10.337301228897777c 5.709133823127362,1.0487508693595224e-15 10.337301228897777,-4.628167405770411 10.337301228897779 -10.337301228897774Z" /></g></g></g><g fill="rgb(191,49,49)" fill-opacity="1.0" stroke-width="0.0"><g fill="rgb(191,49,49)" fill-opacity="1.0"><g fill="rgb(191,49,49)" fill-opacity="1.0"><path d="M 346.0964529753995,334.8058510708725 c 0.0,-11.181592886872684 -9.064472010444234,-20.24606489731692 -20.246064897316916 -20.24606489731692c -11.181592886872684,-6.846750969138722e-16 -20.24606489731692,9.064472010444232 -20.24606489731692 20.246064897316913c -1.3693501938277444e-15,11.181592886872684 9.06447201044423,20.24606489731692 20.24606489731691 20.24606489731692c 11.181592886872684,2.054025290741617e-15 20.24606489731692,-9.06447201044423 20.24606489731693 -20.246064897316913Z" /></g></g></g><g fill="rgb(97,91,91)" fill-opacity="1.0" stroke-width="0.0"><g fill="rgb(97,91,91)" fill-opacity="1.0"><g fill="rgb(97,91,91)" fill-opacity="1.0"><path d="M 369.8502920285975,362.21118752800584 c 0.0,-5.813686173934306 -4.712923832435554,-10.52661000636986 -10.526610006369859 -10.52661000636986c -5.813686173934306,-3.559856082077935e-16 -10.52661000636986,4.712923832435553 -10.52661000636986 10.526610006369857c -7.11971216415587e-16,5.813686173934306 4.7129238324355525,10.52661000636986 10.526610006369856 10.52661000636986c 5.813686173934306,1.0679568246233805e-15 10.52661000636986,-4.7129238324355525 10.526610006369866 -10.526610006369857Z" /></g></g></g><g fill="rgb(168,145,120)" fill-opacity="1.0" stroke-width="0.0"><g fill="rgb(168,145,120)" fill-opacity="1.0"><g fill="rgb(168,145,120)" fill-opacity="1.0"><path d="M 444.29257429085425,231.55591664067788 c 0.0,-8.431476221852881 -6.835061962364732,-15.266538184217616 -15.266538184217612 -15.266538184217616c -8.431476221852881,-5.162790183589575e-16 -15.266538184217616,6.8350619623647315 -15.266538184217616 15.26653818421761c -1.032558036717915e-15,8.431476221852881 6.835061962364731,15.266538184217616 15.266538184217609 15.266538184217616c 8.431476221852881,1.5488370550768726e-15 15.266538184217616,-6.83506196236473 15.26653818421762 -15.26653818421761Z" /></g></g></g><g fill="rgb(72,189,190)" fill-opacity="1.0" stroke-width="0.0"><g fill="rgb(72,189,190)" fill-opacity="1.0"><g fill="rgb(72,189,190)" fill-opacity="1.0"><path d="M 321.81974911542335,387.7429775033653 c 0.0,-6.800008559995208 -5.512496107349968,-12.312504667345177 -12.312504667345173 -12.312504667345177c -6.800008559995208,-4.163804358586367e-16 -12.312504667345177,5.512496107349967 -12.312504667345177 12.312504667345173c -8.327608717172734e-16,6.800008559995208 5.512496107349967,12.312504667345177 12.312504667345172 12.312504667345177c 6.800008559995208,1.24914130757591e-15 12.312504667345177,-5.512496107349966 12.312504667345179 -12.312504667345173Z" /></g></g></g><g fill="rgb(240,162,188)" fill-opacity="1.0" stroke-width="0.0"><g fill="rgb(240,162,188)" fill-opacity="1.0"><g fill="rgb(240,162,188)" fill-opacity="1.0"><path d="M 435.47365215237204,371.817297704043 c 0.0,-4.178519839539454 -3.387359610906443,-7.565879450445898 -7.565879450445896 -7.565879450445898c -4.178519839539454,-2.558605473332852e-16 -7.565879450445898,3.3873596109064428 -7.565879450445898 7.5658794504458955c -5.117210946665704e-16,4.178519839539454 3.3873596109064428,7.565879450445898 7.565879450445895 7.565879450445898c 4.178519839539454,7.675816419998556e-16 7.565879450445898,-3.3873596109064423 7.5658794504459 -7.5658794504458955Z" /></g></g></g><g fill="rgb(72,189,190)" fill-opacity="1.0" stroke-width="0.0"><g fill="rgb(72,189,190)" fill-opacity="1.0"><g fill="rgb(72,189,190)" fill-opacity="1.0"><path d="M 540.7229989784935,434.2128527156263 c 0.0,-9.56329375763692 -7.752581360346835,-17.315875117983758 -17.315875117983754 -17.315875117983758c -9.56329375763692,-5.85582854479796e-16 -17.315875117983758,7.752581360346834 -17.315875117983758 17.31587511798375c -1.171165708959592e-15,9.56329375763692 7.752581360346833,17.315875117983758 17.31587511798375 17.315875117983758c 9.56329375763692,1.7567485634393879e-15 17.315875117983758,-7.7525813603468325 17.315875117983765 -17.31587511798375Z" /></g></g></g><g fill="rgb(209,95,105)" fill-opacity="1.0" stroke-width="0.0"><g fill="rgb(209,95,105)" fill-opacity="1.0"><g fill="rgb(209,95,105)" fill-opacity="1.0"><path d="M 390.4297962584668,467.61819579895104 c 0.0,-8.505135182141744 -6.894774347765625,-15.399909529907372 -15.399909529907369 -15.399909529907372c -8.505135182141744,-5.207893288562714e-16 -15.399909529907372,6.894774347765624 -15.399909529907372 15.399909529907367c -1.0415786577125429e-15,8.505135182141744 6.894774347765623,15.399909529907372 15.399909529907365 15.399909529907372c 8.505135182141744,1.5623679865688143e-15 15.399909529907372,-6.8947743477656225 15.399909529907376 -15.399909529907367Z" /></g></g></g><g fill="rgb(168,145,120)" fill-opacity="1.0" stroke-width="0.0"><g fill="rgb(168,145,120)" fill-opacity="1.0"><g fill="rgb(168,145,120)" fill-opacity="1.0"><path d="M 476.2843262153468,264.9879500263107 c 0.0,-7.873020266991341 -6.382343962065212,-14.255364229056555 -14.255364229056552 -14.255364229056555c -7.873020266991341,-4.820834534796593e-16 -14.255364229056555,6.382343962065211 -14.255364229056555 14.25536422905655c -9.641669069593187e-16,7.873020266991341 6.38234396206521,14.255364229056555 14.255364229056548 14.255364229056555c 7.873020266991341,1.446250360438978e-15 14.255364229056555,-6.38234396206521 14.255364229056559 -14.25536422905655Z" /></g></g></g><g fill="rgb(97,91,91)" fill-opacity="1.0" stroke-width="0.0"><g fill="rgb(97,91,91)" fill-opacity="1.0"><g fill="rgb(97,91,91)" fill-opacity="1.0"><path d="M 400.09236808994063,367.3610211782281 c 0.0,-1.998929543739032 -1.6204525673032428,-3.6193821110422753 -3.6193821110422744 -3.6193821110422753c -1.998929543739032,-1.2239913337305424e-16 -3.6193821110422753,1.6204525673032426 -3.6193821110422753 3.619382111042274c -2.447982667461085e-16,1.998929543739032 1.6204525673032424,3.6193821110422753 3.6193821110422735 3.6193821110422753c 1.998929543739032,3.671974001191627e-16 3.6193821110422753,-1.6204525673032422 3.619382111042276 -3.619382111042274Z" /></g></g></g><g fill="rgb(245,180,86)" fill-opacity="1.0" stroke-width="0.0"><g fill="rgb(245,180,86)" fill-opacity="1.0"><g fill="rgb(245,180,86)" fill-opacity="1.0"><path d="M 552.5452225240981,256.375219030423 c 0.0,-8.469660736189859 -6.866016627316474,-15.335677363506335 -15.335677363506331 -15.335677363506335c -8.469660736189859,-5.186171455219462e-16 -15.335677363506335,6.866016627316474 -15.335677363506335 15.33567736350633c -1.0372342910438924e-15,8.469660736189859 6.8660166273164736,15.335677363506335 15.335677363506328 15.335677363506335c 8.469660736189859,1.5558514365658388e-15 15.335677363506335,-6.866016627316473 15.335677363506338 -15.33567736350633Z" /></g></g></g><g fill="rgb(185,161,185)" fill-opacity="1.0" stroke-width="0.0"><g fill="rgb(185,161,185)" fill-opacity="1.0"><g fill="rgb(185,161,185)" fill-opacity="1.0"><path d="M 378.710916560265,390.30048692650854 c 0.0,-2.186969127152356 -1.772888768294494,-3.959857895446851 -3.95985789544685 -3.959857895446851c -2.186969127152356,-1.339132370700607e-16 -3.959857895446851,1.7728887682944938 -3.959857895446851 3.9598578954468495c -2.678264741401214e-16,2.186969127152356 1.7728887682944936,3.959857895446851 3.959857895446849 3.959857895446851c 2.186969127152356,4.017397112101821e-16 3.959857895446851,-1.7728887682944934 3.9598578954468517 -3.9598578954468495Z" /></g></g></g><g fill="rgb(245,180,86)" fill-opacity="1.0" stroke-width="0.0"><g fill="rgb(245,180,86)" fill-opacity="1.0"><g fill="rgb(245,180,86)" fill-opacity="1.0"><path d="M 396.0435551243129,249.53650067399315 c 0.0,-5.063052579793659 -4.104415074065793,-9.167467653859454 -9.167467653859452 -9.167467653859454c -5.063052579793659,-3.100225567879527e-16 -9.167467653859454,4.104415074065793 -9.167467653859454 9.16746765385945c -6.200451135759054e-16,5.063052579793659 4.104415074065792,9.167467653859454 9.16746765385945 9.167467653859454c 5.063052579793659,9.300676703638581e-16 9.167467653859454,-4.104415074065792 9.167467653859457 -9.16746765385945Z" /></g></g></g><g fill="rgb(97,91,91)" fill-opacity="1.0" stroke-width="0.0"><g fill="rgb(97,91,91)" fill-opacity="1.0"><g fill="rgb(97,91,91)" fill-opacity="1.0"><path d="M 480.5805224072819,235.5082966579924 c 0.0,-7.090635033090719 -5.7480954139533385,-12.838730447044059 -12.838730447044055 -12.838730447044059c -7.090635033090719,-4.341761748598318e-16 -12.838730447044059,5.748095413953338 -12.838730447044059 12.838730447044055c -8.683523497196636e-16,7.090635033090719 5.748095413953337,12.838730447044059 12.838730447044053 12.838730447044059c 7.090635033090719,1.3025285245794953e-15 12.838730447044059,-5.748095413953336 12.83873044704406 -12.838730447044055Z" /></g></g></g><g fill="rgb(241,237,226)" fill-opacity="1.0" stroke-width="0.0"><g fill="rgb(241,237,226)" fill-opacity="1.0"><g fill="rgb(241,237,226)" fill-opacity="1.0"><path d="M 288.79571288522607,276.32454550667603 c 0.0,-7.200257204490422 -5.836961742251098,-13.037218946741522 -13.037218946741518 -13.037218946741522c -7.200257204490422,-4.4088859692584323e-16 -13.037218946741522,5.8369617422510975 -13.037218946741522 13.037218946741518c -8.817771938516865e-16,7.200257204490422 5.836961742251097,13.037218946741522 13.037218946741516 13.037218946741522c 7.200257204490422,1.3226657907775297e-15 13.037218946741522,-5.836961742251097 13.037218946741524 -13.037218946741518Z" /></g></g></g><g fill="rgb(168,145,120)" fill-opacity="1.0" stroke-width="0.0"><g fill="rgb(168,145,120)" fill-opacity="1.0"><g fill="rgb(168,145,120)" fill-opacity="1.0"><path d="M 326.2297583207423,477.0749255791401 c 0.0,-6.357169022255092 -5.153503731614669,-11.510672753869763 -11.51067275386976 -11.510672753869763c -6.357169022255092,-3.892643347371704e-16 -11.510672753869763,5.153503731614668 -11.510672753869763 11.510672753869759c -7.785286694743408e-16,6.357169022255092 5.153503731614668,11.510672753869763 11.510672753869757 11.510672753869763c 6.357169022255092,1.167793004211511e-15 11.510672753869763,-5.153503731614667 11.510672753869768 -11.510672753869759Z" /></g></g></g><g fill="rgb(240,162,188)" fill-opacity="1.0" stroke-width="0.0"><g fill="rgb(240,162,188)" fill-opacity="1.0"><g fill="rgb(240,162,188)" fill-opacity="1.0"><path d="M 347.1936639470394,425.8556083320243 c 0.0,-4.313917745196282 -3.4971213003648356,-7.8110390455611185 -7.811039045561117 -7.8110390455611185c -4.313917745196282,-2.6415127792197967e-16 -7.8110390455611185,3.497121300364835 -7.8110390455611185 7.811039045561116c -5.283025558439593e-16,4.313917745196282 3.4971213003648347,7.8110390455611185 7.811039045561115 7.8110390455611185c 4.313917745196282,7.924538337659391e-16 7.8110390455611185,-3.4971213003648343 7.81103904556112 -7.811039045561116Z" /></g></g></g><g fill="rgb(173,210,116)" fill-opacity="1.0" stroke-width="0.0"><g fill="rgb(173,210,116)" fill-opacity="1.0"><g fill="rgb(173,210,116)" fill-opacity="1.0"><path d="M 429.00665292823453,492.38347032840613 c 0.0,-5.292184890517355 -4.290163512437371,-9.582348402954727 -9.582348402954725 -9.582348402954727c -5.292184890517355,-3.240528643334032e-16 -9.582348402954727,4.2901635124373705 -9.582348402954727 9.582348402954723c -6.481057286668064e-16,5.292184890517355 4.2901635124373705,9.582348402954727 9.582348402954723 9.582348402954727c 5.292184890517355,9.721585930002097e-16 9.582348402954727,-4.29016351243737 9.582348402954727 -9.582348402954723Z" /></g></g></g><g fill="rgb(97,91,91)" fill-opacity="1.0" stroke-width="0.0"><g fill="rgb(97,91,91)" fill-opacity="1.0"><g fill="rgb(97,91,91)" fill-opacity="1.0"><path d="M 542.0583955257123,395.18572864541926 c 0.0,-5.259075397593078 -4.263322965215834,-9.522398362808913 -9.52239836280891 -9.522398362808913c -5.259075397593078,-3.220254926068478e-16 -9.522398362808913,4.263322965215834 -9.522398362808913 9.522398362808909c -6.440509852136956e-16,5.259075397593078 4.263322965215833,9.522398362808913 9.522398362808909 9.522398362808913c 5.259075397593078,9.660764778205433e-16 9.522398362808913,-4.263322965215832 9.522398362808913 -9.522398362808909Z" /></g></g></g><g fill="rgb(191,49,49)" fill-opacity="1.0" stroke-width="0.0"><g fill="rgb(191,49,49)" fill-opacity="1.0"><g fill="rgb(191,49,49)" fill-opacity="1.0"><path d="M 286.326432858652,367.4867736286051 c 0.0,-3.9532111445234834 -3.2047108255013095,-7.157921970024794 -7.157921970024792 -7.157921970024794c -3.9532111445234834,-2.4206436872471645e-16 -7.157921970024794,3.204710825501309 -7.157921970024794 7.157921970024791c -4.841287374494329e-16,3.9532111445234834 3.2047108255013086,7.157921970024794 7.15792197002479 7.157921970024794c 3.9532111445234834,7.261931061741493e-16 7.157921970024794,-3.204710825501308 7.157921970024796 -7.157921970024791Z" /></g></g></g><g fill="rgb(191,49,49)" fill-opacity="1.0" stroke-width="0.0"><g fill="rgb(191,49,49)" fill-opacity="1.0"><g fill="rgb(191,49,49)" fill-opacity="1.0"><path d="M 500.00118691928895,256.61929605262657 c 0.0,-2.9655797941300204 -2.4040774253362085,-5.369657219466229 -5.369657219466228 -5.369657219466229c -2.9655797941300204,-1.815893901248698e-16 -5.369657219466229,2.404077425336208 -5.369657219466229 5.3696572194662275c -3.631787802497396e-16,2.9655797941300204 2.4040774253362076,5.369657219466229 5.369657219466227 5.369657219466229c 2.9655797941300204,5.447681703746094e-16 5.369657219466229,-2.4040774253362076 5.36965721946623 -5.3696572194662275Z" /></g></g></g><g fill="rgb(235,86,92)" fill-opacity="1.0" stroke-width="0.0"><g fill="rgb(235,86,92)" fill-opacity="1.0"><g fill="rgb(235,86,92)" fill-opacity="1.0"><path d="M 504.64712665018055,443.89727989036976 c 0.0,-2.6689506635677334 -2.1636120033996855,-4.832562666967419 -4.832562666967418 -4.832562666967419c -2.6689506635677334,-1.6342609436102145e-16 -4.832562666967419,2.1636120033996855 -4.832562666967419 4.8325626669674175c -3.268521887220429e-16,2.6689506635677334 2.163612003399685,4.832562666967419 4.8325626669674175 4.832562666967419c 2.6689506635677334,4.902782830830643e-16 4.832562666967419,-2.1636120033996846 4.832562666967421 -4.8325626669674175Z" /></g></g></g><g fill="rgb(235,86,92)" fill-opacity="1.0" stroke-width="0.0"><g fill="rgb(235,86,92)" fill-opacity="1.0"><g fill="rgb(235,86,92)" fill-opacity="1.0"><path d="M 310.45522812301914,258.08357936521696 c 0.0,-4.630988134659811 -3.754157636753635,-8.385145771413447 -8.385145771413445 -8.385145771413447c -4.630988134659811,-2.8356623980002546e-16 -8.385145771413447,3.754157636753634 -8.385145771413447 8.385145771413443c -5.671324796000509e-16,4.630988134659811 3.7541576367536336,8.385145771413447 8.385145771413443 8.385145771413447c 4.630988134659811,8.506987194000763e-16 8.385145771413447,-3.754157636753633 8.385145771413447 -8.385145771413443Z" /></g></g></g><g fill="rgb(97,91,91)" fill-opacity="1.0" stroke-width="0.0"><g fill="rgb(97,91,91)" fill-opacity="1.0"><g fill="rgb(97,91,91)" fill-opacity="1.0"><path d="M 440.9078844566424,470.06029861132447 c 0.0,-4.8092885346445975 -3.8986986696337125,-8.70798720427831 -8.707987204278309 -8.70798720427831c -4.8092885346445975,-2.944839905064285e-16 -8.70798720427831,3.898698669633712 -8.70798720427831 8.707987204278307c -5.88967981012857e-16,4.8092885346445975 3.8986986696337116,8.70798720427831 8.707987204278307 8.70798720427831c 4.8092885346445975,8.834519715192856e-16 8.70798720427831,-3.898698669633711 8.707987204278314 -8.707987204278307Z" /></g></g></g><g fill="rgb(235,86,92)" fill-opacity="1.0" stroke-width="0.0"><g fill="rgb(235,86,92)" fill-opacity="1.0"><g fill="rgb(235,86,92)" fill-opacity="1.0"><path d="M 536.7353763597881,373.9497700869729 c 0.0,-4.946689959568836 -4.010084532365588,-8.956774491934425 -8.956774491934423 -8.956774491934425c -4.946689959568836,-3.0289740126801623e-16 -8.956774491934425,4.010084532365587 -8.956774491934425 8.956774491934421c -6.057948025360325e-16,4.946689959568836 4.010084532365587,8.956774491934425 8.956774491934421 8.956774491934425c 4.946689959568836,9.086922038040488e-16 8.956774491934425,-4.010084532365586 8.956774491934429 -8.956774491934421Z" /></g></g></g><g fill="rgb(185,161,185)" fill-opacity="1.0" stroke-width="0.0"><g fill="rgb(185,161,185)" fill-opacity="1.0"><g fill="rgb(185,161,185)" fill-opacity="1.0"><path d="M 570.7942457854328,316.95616025285256 c 0.0,-5.104961608483382 -4.13838905446253,-9.243350662945913 -9.243350662945911 -9.243350662945913c -5.104961608483382,-3.125887446799649e-16 -9.243350662945913,4.138389054462529 -9.243350662945913 9.24335066294591c -6.251774893599298e-16,5.104961608483382 4.138389054462529,9.243350662945913 9.24335066294591 9.243350662945913c 5.104961608483382,9.377662340398947e-16 9.243350662945913,-4.138389054462528 9.243350662945913 -9.24335066294591Z" /></g></g></g><g fill="rgb(235,86,92)" fill-opacity="1.0" stroke-width="0.0"><g fill="rgb(235,86,92)" fill-opacity="1.0"><g fill="rgb(235,86,92)" fill-opacity="1.0"><path d="M 507.09945783546493,230.34321920086546 c 0.0,-4.127335505420793 -3.345866509817374,-7.473202015238168 -7.473202015238166 -7.473202015238168c -4.127335505420793,-2.5272641078603986e-16 -7.473202015238168,3.3458665098173737 -7.473202015238168 7.473202015238165c -5.054528215720797e-16,4.127335505420793 3.345866509817373,7.473202015238168 7.473202015238164 7.473202015238168c 4.127335505420793,7.581792323581196e-16 7.473202015238168,-3.3458665098173728 7.4732020152381695 -7.473202015238165Z" /></g></g></g><g fill="rgb(185,161,185)" fill-opacity="1.0" stroke-width="0.0"><g fill="rgb(185,161,185)" fill-opacity="1.0"><g fill="rgb(185,161,185)" fill-opacity="1.0"><path d="M 300.14147369103415,295.3264421294892 c 0.0,-3.363236445994494 -2.726441835046051,-6.089678281040546 -6.089678281040544 -6.089678281040546c -3.363236445994494,-2.0593883741814386e-16 -6.089678281040546,2.7264418350460504 -6.089678281040546 6.089678281040544c -4.118776748362877e-16,3.363236445994494 2.7264418350460504,6.089678281040546 6.089678281040543 6.089678281040546c 3.363236445994494,6.178165122544315e-16 6.089678281040546,-2.72644183504605 6.0896782810405465 -6.089678281040544Z" /></g></g></g><g fill="rgb(173,210,116)" fill-opacity="1.0" stroke-width="0.0"><g fill="rgb(173,210,116)" fill-opacity="1.0"><g fill="rgb(173,210,116)" fill-opacity="1.0"><path d="M 509.6560286152215,331.7559079745777 c 0.0,-1.1705195518708393 -0.9488935809912535,-2.119413132862093 -2.1194131328620927 -2.119413132862093c -1.1705195518708393,-7.167365112690088e-17 -2.119413132862093,0.9488935809912534 -2.119413132862093 2.119413132862092c -1.4334730225380176e-16,1.1705195518708393 0.9488935809912533,2.119413132862093 2.119413132862092 2.119413132862093c 1.1705195518708393,2.1502095338070262e-16 2.119413132862093,-0.9488935809912532 2.119413132862093 -2.119413132862092Z" /></g></g></g><g fill="rgb(173,210,116)" fill-opacity="1.0" stroke-width="0.0"><g fill="rgb(173,210,116)" fill-opacity="1.0"><g fill="rgb(173,210,116)" fill-opacity="1.0"><path d="M 277.7745534475697,304.02709505689955 c 0.0,-3.716467941239011 -3.012792539659014,-6.729260480898025 -6.729260480898024 -6.729260480898025c -3.716467941239011,-2.275680284186054e-16 -6.729260480898025,3.0127925396590136 -6.729260480898025 6.729260480898023c -4.551360568372108e-16,3.716467941239011 3.012792539659013,6.729260480898025 6.729260480898023 6.729260480898025c 3.716467941239011,6.827040852558162e-16 6.729260480898025,-3.0127925396590127 6.729260480898026 -6.729260480898023Z" /></g></g></g><g fill="rgb(72,189,190)" fill-opacity="1.0" stroke-width="0.0"><g fill="rgb(72,189,190)" fill-opacity="1.0"><g fill="rgb(72,189,190)" fill-opacity="1.0"><path d="M 459.33253021002696,422.5431837580422 c 0.0,-2.610165899846583 -2.115957536743462,-4.726123436590045 -4.726123436590044 -4.726123436590045c -2.610165899846583,-1.5982656572453443e-16 -4.726123436590045,2.1159575367434615 -4.726123436590045 4.7261234365900435c -3.1965313144906886e-16,2.610165899846583 2.115957536743461,4.726123436590045 4.7261234365900435 4.726123436590045c 2.610165899846583,4.794796971736033e-16 4.726123436590045,-2.115957536743461 4.726123436590047 -4.7261234365900435Z" /></g></g></g><g fill="rgb(97,91,91)" fill-opacity="1.0" stroke-width="0.0"><g fill="rgb(97,91,91)" fill-opacity="1.0"><g fill="rgb(97,91,91)" fill-opacity="1.0"><path d="M 329.1388626934416,422.5869625131521 c 0.0,-2.4218538790478457 -1.9633004816145523,-4.385154360662399 -4.385154360662398 -4.385154360662399c -2.4218538790478457,-1.4829578004892726e-16 -4.385154360662399,1.963300481614552 -4.385154360662399 4.385154360662397c -2.965915600978545e-16,2.4218538790478457 1.9633004816145518,4.385154360662399 4.385154360662397 4.385154360662399c 2.4218538790478457,4.448873401467818e-16 4.385154360662399,-1.9633004816145516 4.385154360662399 -4.385154360662397Z" /></g></g></g><g fill="rgb(72,189,190)" fill-opacity="1.0" stroke-width="0.0"><g fill="rgb(72,189,190)" fill-opacity="1.0"><g fill="rgb(72,189,190)" fill-opacity="1.0"><path d="M 383.2833013021492,407.50970531852005 c 0.0,-3.6096598933119965 -2.926207509179033,-6.53586740249103 -6.535867402491029 -6.53586740249103c -3.6096598933119965,-2.2102792171775563e-16 -6.53586740249103,2.926207509179033 -6.53586740249103 6.535867402491029c -4.4205584343551127e-16,3.6096598933119965 2.9262075091790325,6.53586740249103 6.535867402491028 6.53586740249103c 3.6096598933119965,6.630837651532669e-16 6.53586740249103,-2.926207509179032 6.535867402491031 -6.535867402491029Z" /></g></g></g><g fill="rgb(209,95,105)" fill-opacity="1.0" stroke-width="0.0"><g fill="rgb(209,95,105)" fill-opacity="1.0"><g fill="rgb(209,95,105)" fill-opacity="1.0"><path d="M 463.5825690911425,170.14195862187867 c 0.0,-3.9154642217238176 -3.174110898580373,-7.0895751203041915 -7.08957512030419 -7.0895751203041915c -3.9154642217238176,-2.3975303631550277e-16 -7.0895751203041915,3.1741108985803725 -7.0895751203041915 7.089575120304189c -4.795060726310055e-16,3.9154642217238176 3.174110898580372,7.0895751203041915 7.089575120304188 7.0895751203041915c 3.9154642217238176,7.192591089465083e-16 7.0895751203041915,-3.1741108985803717 7.089575120304193 -7.089575120304189Z" /></g></g></g><g fill="rgb(97,91,91)" fill-opacity="1.0" stroke-width="0.0"><g fill="rgb(97,91,91)" fill-opacity="1.0"><g fill="rgb(97,91,91)" fill-opacity="1.0"><path d="M 227.7976643315094,419.3852407342288 c 0.0,-3.3386516181217507 -2.7065118942595556,-6.045163512381307 -6.045163512381305 -6.045163512381307c -3.3386516181217507,-2.0443345088004666e-16 -6.045163512381307,2.706511894259555 -6.045163512381307 6.045163512381305c -4.0886690176009333e-16,3.3386516181217507 2.7065118942595547,6.045163512381307 6.045163512381304 6.045163512381307c 3.3386516181217507,6.1330035264014e-16 6.045163512381307,-2.7065118942595543 6.045163512381308 -6.045163512381305Z" /></g></g></g><g fill="rgb(235,86,92)" fill-opacity="1.0" stroke-width="0.0"><g fill="rgb(235,86,92)" fill-opacity="1.0"><g fill="rgb(235,86,92)" fill-opacity="1.0"><path d="M 276.7726292105295,441.95081666989904 c 0.0,-3.5119087347257723 -2.846964538167848,-6.358873272893621 -6.358873272893619 -6.358873272893621c -3.5119087347257723,-2.1504238954397739e-16 -6.358873272893621,2.8469645381678474 -6.358873272893621 6.358873272893619c -4.3008477908795477e-16,3.5119087347257723 2.846964538167847,6.358873272893621 6.358873272893618 6.358873272893621c 3.5119087347257723,6.451271686319322e-16 6.358873272893621,-2.846964538167847 6.3588732728936215 -6.358873272893619Z" /></g></g></g><g fill="rgb(191,49,49)" fill-opacity="1.0" stroke-width="0.0"><g fill="rgb(191,49,49)" fill-opacity="1.0"><g fill="rgb(191,49,49)" fill-opacity="1.0"><path d="M 521.6804856559589,338.58198049378666 c 0.0,-2.647364350186508 -2.1461128388859687,-4.793477189072477 -4.793477189072476 -4.793477189072477c -2.647364350186508,-1.6210431388163599e-16 -4.793477189072477,2.1461128388859683 -4.793477189072477 4.793477189072475c -3.2420862776327197e-16,2.647364350186508 2.146112838885968,4.793477189072477 4.793477189072475 4.793477189072477c 2.647364350186508,4.86312941644908e-16 4.793477189072477,-2.146112838885968 4.793477189072477 -4.793477189072475Z" /></g></g></g><g fill="rgb(97,91,91)" fill-opacity="1.0" stroke-width="0.0"><g fill="rgb(97,91,91)" fill-opacity="1.0"><g fill="rgb(97,91,91)" fill-opacity="1.0"><path d="M 479.08563783090204,216.49032264199397 c 0.0,-1.5113064909194878 -1.2251559795407503,-2.7364624704602383 -2.736462470460238 -2.7364624704602383c -1.5113064909194878,-9.254083283175846e-17 -2.7364624704602383,1.22515597954075 -2.7364624704602383 2.7364624704602374c -1.850816656635169e-16,1.5113064909194878 1.2251559795407498,2.7364624704602383 2.736462470460237 2.7364624704602383c 1.5113064909194878,2.7762249849527534e-16 2.7364624704602383,-1.2251559795407498 2.7364624704602396 -2.7364624704602374Z" /></g></g></g><g fill="rgb(235,86,92)" fill-opacity="1.0" stroke-width="0.0"><g fill="rgb(235,86,92)" fill-opacity="1.0"><g fill="rgb(235,86,92)" fill-opacity="1.0"><path d="M 525.5311121446489,177.79479366977807 c 0.0,-2.4796433167463525 -2.010148077106283,-4.489791393852636 -4.489791393852635 -4.489791393852636c -2.4796433167463525,-1.5183436254402736e-16 -4.489791393852636,2.0101480771062827 -4.489791393852636 4.489791393852634c -3.036687250880547e-16,2.4796433167463525 2.0101480771062827,4.489791393852636 4.489791393852634 4.489791393852636c 2.4796433167463525,4.555030876320821e-16 4.489791393852636,-2.0101480771062823 4.489791393852638 -4.489791393852634Z" /></g></g></g><g fill="rgb(173,210,116)" fill-opacity="1.0" stroke-width="0.0"><g fill="rgb(173,210,116)" fill-opacity="1.0"><g fill="rgb(173,210,116)" fill-opacity="1.0"><path d="M 531.1271319810215,557.2327129436069 c 0.0,-2.4092194952029513 -1.9530582898365179,-4.36227778503947 -4.362277785039469 -4.36227778503947c -2.4092194952029513,-1.475221471621848e-16 -4.36227778503947,1.9530582898365176 -4.36227778503947 4.362277785039468c -2.950442943243696e-16,2.4092194952029513 1.9530582898365174,4.36227778503947 4.362277785039468 4.36227778503947c 2.4092194952029513,4.4256644148655445e-16 4.36227778503947,-1.9530582898365172 4.36227778503947 -4.362277785039468Z" /></g></g></g><g fill="rgb(209,95,105)" fill-opacity="1.0" stroke-width="0.0"><g fill="rgb(209,95,105)" fill-opacity="1.0"><g fill="rgb(209,95,105)" fill-opacity="1.0"><path d="M 367.4648021544791,232.7237851967532 c 0.0,-2.5748099755942686 -2.0872958971156463,-4.662105872709915 -4.6621058727099145 -4.662105872709915c -2.5748099755942686,-1.5766163975120977e-16 -4.662105872709915,2.087295897115646 -4.662105872709915 4.662105872709914c -3.1532327950241954e-16,2.5748099755942686 2.087295897115646,4.662105872709915 4.662105872709914 4.662105872709915c 2.5748099755942686,4.729849192536294e-16 4.662105872709915,-2.0872958971156454 4.662105872709917 -4.662105872709914Z" /></g></g></g><g fill="rgb(191,49,49)" fill-opacity="1.0" stroke-width="0.0"><g fill="rgb(191,49,49)" fill-opacity="1.0"><g fill="rgb(191,49,49)" fill-opacity="1.0"><path d="M 311.38001331469536,311.61425748088215 c 0.0,-1.8093452086609678 -1.4667640976620961,-3.276109306323064 -3.2761093063230633 -3.276109306323064c -1.8093452086609678,-1.107904409169627e-16 -3.276109306323064,1.466764097662096 -3.276109306323064 3.2761093063230633c -2.215808818339254e-16,1.8093452086609678 1.4667640976620957,3.276109306323064 3.276109306323063 3.276109306323064c 1.8093452086609678,3.323713227508881e-16 3.276109306323064,-1.4667640976620955 3.2761093063230646 -3.2761093063230633Z" /></g></g></g><g fill="rgb(240,162,188)" fill-opacity="1.0" stroke-width="0.0"><g fill="rgb(240,162,188)" fill-opacity="1.0"><g fill="rgb(240,162,188)" fill-opacity="1.0"><path d="M 456.2388016051808,86.58373427201633 c 0.0,-2.5621503682204714 -2.0770332576273387,-4.639183625847811 -4.63918362584781 -4.639183625847811c -2.5621503682204714,-1.5688646236877064e-16 -4.639183625847811,2.0770332576273387 -4.639183625847811 4.639183625847809c -3.137729247375413e-16,2.5621503682204714 2.0770332576273383,4.639183625847811 4.639183625847809 4.639183625847811c 2.5621503682204714,4.706593871063119e-16 4.639183625847811,-2.0770332576273383 4.639183625847811 -4.639183625847809Z" /></g></g></g><g fill="rgb(235,86,92)" fill-opacity="1.0" stroke-width="0.0"><g fill="rgb(235,86,92)" fill-opacity="1.0"><g fill="rgb(235,86,92)" fill-opacity="1.0"><path d="M 518.9966016505847,350.4863730776223 c 0.0,-1.2951560449813584 -1.0499314219062614,-2.34508746688762 -2.3450874668876196 -2.34508746688762c -1.2951560449813584,-7.93054352441383e-17 -2.34508746688762,1.0499314219062612 -2.34508746688762 2.345087466887619c -1.586108704882766e-16,1.2951560449813584 1.0499314219062612,2.34508746688762 2.345087466887619 2.34508746688762c 1.2951560449813584,2.379163057324149e-16 2.34508746688762,-1.049931421906261 2.34508746688762 -2.345087466887619Z" /></g></g></g><g fill="rgb(185,161,185)" fill-opacity="1.0" stroke-width="0.0"><g fill="rgb(185,161,185)" fill-opacity="1.0"><g fill="rgb(185,161,185)" fill-opacity="1.0"><path d="M 449.81681548436217,283.35699545957124 c 0.0,-2.175511252607146 -1.7636003257474422,-3.9391115783545887 -3.939111578354588 -3.9391115783545887c -2.175511252607146,-1.332116446007195e-16 -3.9391115783545887,1.7636003257474422 -3.9391115783545887 3.9391115783545874c -2.66423289201439e-16,2.175511252607146 1.763600325747442,3.9391115783545887 3.939111578354587 3.9391115783545887c 2.175511252607146,3.9963493380215854e-16 3.9391115783545887,-1.7636003257474417 3.9391115783545896 -3.9391115783545874Z" /></g></g></g><g fill="rgb(72,189,190)" fill-opacity="1.0" stroke-width="0.0"><g fill="rgb(72,189,190)" fill-opacity="1.0"><g fill="rgb(72,189,190)" fill-opacity="1.0"><path d="M 616.9946492893976,489.08217688622324 c 0.0,-1.685567987255997 -1.3664228340955136,-3.051990821351511 -3.05199082135151 -3.051990821351511c -1.685567987255997,-1.0321127201691516e-16 -3.051990821351511,1.3664228340955134 -3.051990821351511 3.05199082135151c -2.0642254403383032e-16,1.685567987255997 1.3664228340955131,3.051990821351511 3.0519908213515095 3.051990821351511c 1.685567987255997,3.096338160507455e-16 3.051990821351511,-1.366422834095513 3.0519908213515112 -3.05199082135151Z" /></g></g></g><g fill="rgb(240,162,188)" fill-opacity="1.0" stroke-width="0.0"><g fill="rgb(240,162,188)" fill-opacity="1.0"><g fill="rgb(240,162,188)" fill-opacity="1.0"><path d="M 575.6491996842637,295.07543928584346 c 0.0,-2.3712834087935457 -1.922305015511215,-4.293588424304761 -4.29358842430476 -4.293588424304761c -2.3712834087935457,-1.45199231822512e-16 -4.293588424304761,1.9223050155112147 -4.293588424304761 4.293588424304759c -2.90398463645024e-16,2.3712834087935457 1.9223050155112145,4.293588424304761 4.293588424304759 4.293588424304761c 2.3712834087935457,4.35597695467536e-16 4.293588424304761,-1.9223050155112142 4.293588424304761 -4.293588424304759Z" /></g></g></g><g fill="rgb(241,237,226)" fill-opacity="1.0" stroke-width="0.0"><g fill="rgb(241,237,226)" fill-opacity="1.0"><g fill="rgb(241,237,226)" fill-opacity="1.0"><path d="M 432.0655603523074,310.5438189426295 c 0.0,-0.6982743874488984 -0.5660632348787732,-1.2643376223276717 -1.2643376223276714 -1.2643376223276717c -0.6982743874488984,-4.2756974675793606e-17 -1.2643376223276717,0.5660632348787731 -1.2643376223276717 1.2643376223276712c -8.551394935158721e-17,0.6982743874488984 0.566063234878773,1.2643376223276717 1.264337622327671 1.2643376223276717c 0.6982743874488984,1.2827092402738082e-16 1.2643376223276717,-0.566063234878773 1.2643376223276719 -1.2643376223276712Z" /></g></g></g><g fill="rgb(245,180,86)" fill-opacity="1.0" stroke-width="0.0"><g fill="rgb(245,180,86)" fill-opacity="1.0"><g fill="rgb(245,180,86)" fill-opacity="1.0"><path d="M 348.1057758434281,600.6030366771595 c 0.0,-1.0245182377434918 -0.8305361306006985,-1.8550543683441907 -1.8550543683441902 -1.8550543683441907c -1.0245182377434918,-6.273364902603272e-17 -1.8550543683441907,0.8305361306006984 -1.8550543683441907 1.85505436834419c -1.2546729805206543e-16,1.0245182377434918 0.8305361306006983,1.8550543683441907 1.8550543683441898 1.8550543683441907c 1.0245182377434918,1.8820094707809816e-16 1.8550543683441907,-0.8305361306006982 1.8550543683441911 -1.85505436834419Z" /></g></g></g><g fill="rgb(245,180,86)" fill-opacity="1.0" stroke-width="0.0"><g fill="rgb(245,180,86)" fill-opacity="1.0"><g fill="rgb(245,180,86)" fill-opacity="1.0"><path d="M 346.60326497658974,311.0069256752148 c 0.0,-1.7538565347144002 -1.421781639708737,-3.1756381744231374 -3.1756381744231366 -3.1756381744231374c -1.7538565347144002,-1.0739273957008294e-16 -3.1756381744231374,1.4217816397087368 -3.1756381744231374 3.1756381744231366c -2.1478547914016588e-16,1.7538565347144002 1.4217816397087366,3.1756381744231374 3.175638174423136 3.1756381744231374c 1.7538565347144002,3.221782187102488e-16 3.1756381744231374,-1.4217816397087364 3.175638174423138 -3.1756381744231366Z" /></g></g></g><g fill="rgb(245,180,86)" fill-opacity="1.0" stroke-width="0.0"><g fill="rgb(245,180,86)" fill-opacity="1.0"><g fill="rgb(245,180,86)" fill-opacity="1.0"><path d="M 349.550218776872,460.02267168336243 c 0.0,-0.8735789464391116 -0.7081756587835651,-1.581754605222677 -1.5817546052226765 -1.581754605222677c -0.8735789464391116,-5.3491283027958755e-17 -1.581754605222677,0.7081756587835651 -1.581754605222677 1.5817546052226765c -1.0698256605591751e-16,0.8735789464391116 0.708175658783565,1.581754605222677 1.5817546052226763 1.581754605222677c 0.8735789464391116,1.6047384908387628e-16 1.581754605222677,-0.7081756587835649 1.5817546052226772 -1.5817546052226765Z" /></g></g></g><g fill="rgb(209,95,105)" fill-opacity="1.0" stroke-width="0.0"><g fill="rgb(209,95,105)" fill-opacity="1.0"><g fill="rgb(209,95,105)" fill-opacity="1.0"><path d="M 294.93235876386376,336.2733160562615 c 0.0,-1.6255986360012904 -1.3178080695058487,-2.9434067055071393 -2.943406705507139 -2.9434067055071393c -1.6255986360012904,-9.953920831386418e-17 -2.9434067055071393,1.3178080695058485 -2.9434067055071393 2.9434067055071385c -1.9907841662772836e-16,1.6255986360012904 1.3178080695058483,2.9434067055071393 2.943406705507138 2.9434067055071393c 1.6255986360012904,2.9861762494159253e-16 2.9434067055071393,-1.317808069505848 2.9434067055071407 -2.9434067055071385Z" /></g></g></g><g fill="rgb(97,91,91)" fill-opacity="1.0" stroke-width="0.0"><g fill="rgb(97,91,91)" fill-opacity="1.0"><g fill="rgb(97,91,91)" fill-opacity="1.0"><path d="M 382.96685994915987,119.67886233233631 c 0.0,-1.5210988855044194 -1.2330942838171068,-2.7541931693215265 -2.754193169321526 -2.7541931693215265c -1.5210988855044194,-9.314044406597967e-17 -2.7541931693215265,1.2330942838171066 -2.7541931693215265 2.7541931693215256c -1.8628088813195934e-16,1.5210988855044194 1.2330942838171064,2.7541931693215265 2.754193169321525 2.7541931693215265c 1.5210988855044194,2.79421332197939e-16 2.7541931693215265,-1.2330942838171064 2.754193169321528 -2.7541931693215256Z" /></g></g></g><g fill="rgb(235,86,92)" fill-opacity="1.0" stroke-width="0.0"><g fill="rgb(235,86,92)" fill-opacity="1.0"><g fill="rgb(235,86,92)" fill-opacity="1.0"><path d="M 328.66380316569337,255.9928430339798 c 0.0,-1.4334730281607813 -1.162059491250559,-2.5955325194113406 -2.59553251941134 -2.5955325194113406c -1.4334730281607813,-8.777490778005822e-17 -2.5955325194113406,1.1620594912505589 -2.5955325194113406 2.5955325194113397c -1.7554981556011643e-16,1.4334730281607813 1.1620594912505586,2.5955325194113406 2.5955325194113392 2.5955325194113406c 1.4334730281607813,2.6332472334017468e-16 2.5955325194113406,-1.1620594912505586 2.595532519411341 -2.5955325194113397Z" /></g></g></g><g fill="rgb(191,49,49)" fill-opacity="1.0" stroke-width="0.0"><g fill="rgb(191,49,49)" fill-opacity="1.0"><g fill="rgb(191,49,49)" fill-opacity="1.0"><path d="M 417.1008490081054,309.85927504935125 c 0.0,-0.5951481445619617 -0.4824628971050416,-1.0776110416670035 -1.0776110416670033 -1.0776110416670035c -0.5951481445619617,-3.6442313512814637e-17 -1.0776110416670035,0.48246289710504153 -1.0776110416670035 1.077611041667003c -7.288462702562927e-17,0.5951481445619617 0.4824628971050415,1.0776110416670035 1.077611041667003 1.0776110416670035c 0.5951481445619617,1.093269405384439e-16 1.0776110416670035,-0.4824628971050414 1.0776110416670035 -1.077611041667003Z" /></g></g></g><g fill="rgb(185,161,185)" fill-opacity="1.0" stroke-width="0.0"><g fill="rgb(185,161,185)" fill-opacity="1.0"><g fill="rgb(185,161,185)" fill-opacity="1.0"><path d="M 329.81453874788735,246.62845393320939 c 0.0,-0.8022734441169861 -0.6503711280222645,-1.4526445721392507 -1.4526445721392505 -1.4526445721392507c -0.8022734441169861,-4.9125080268939496e-17 -1.4526445721392507,0.6503711280222644 -1.4526445721392507 1.4526445721392502c -9.825016053787899e-17,0.8022734441169861 0.6503711280222643,1.4526445721392507 1.45264457213925 1.4526445721392507c 0.8022734441169861,1.473752408068185e-16 1.4526445721392507,-0.6503711280222643 1.452644572139251 -1.4526445721392502Z" /></g></g></g><g fill="rgb(173,210,116)" fill-opacity="1.0" stroke-width="0.0"><g fill="rgb(173,210,116)" fill-opacity="1.0"><g fill="rgb(173,210,116)" fill-opacity="1.0"><path d="M 432.44245634703003,547.3486254928721 c 0.0,-0.8758367063260726 -0.7100059348013665,-1.5858426411274393 -1.585842641127439 -1.5858426411274393c -0.8758367063260726,-5.3629530948899256e-17 -1.5858426411274393,0.7100059348013664 -1.5858426411274393 1.585842641127439c -1.0725906189779851e-16,0.8758367063260726 0.7100059348013664,1.5858426411274393 1.5858426411274387 1.5858426411274393c 0.8758367063260726,1.6088859284669778e-16 1.5858426411274393,-0.7100059348013663 1.5858426411274396 -1.585842641127439Z" /></g></g></g><g fill="rgb(191,49,49)" fill-opacity="1.0" stroke-width="0.0"><g fill="rgb(191,49,49)" fill-opacity="1.0"><g fill="rgb(191,49,49)" fill-opacity="1.0"><path d="M 292.17903881628627,349.75560267575554 c 0.0,-0.9245784340073997 -0.7495189121363565,-1.6740973461437563 -1.6740973461437558 -1.6740973461437563c -0.9245784340073997,-5.661410098839172e-17 -1.6740973461437563,0.7495189121363564 -1.6740973461437563 1.6740973461437556c -1.1322820197678344e-16,0.9245784340073997 0.7495189121363562,1.6740973461437563 1.6740973461437556 1.6740973461437563c 0.9245784340073997,1.6984230296517515e-16 1.6740973461437563,-0.7495189121363561 1.6740973461437565 -1.6740973461437556Z" /></g></g></g><g fill="rgb(185,161,185)" fill-opacity="1.0" stroke-width="0.0"><g fill="rgb(185,161,185)" fill-opacity="1.0"><g fill="rgb(185,161,185)" fill-opacity="1.0"><path d="M 743.405539115876,346.667358769415 c 0.0,-0.8949049903891726 -0.7254638332355057,-1.6203688236246785 -1.620368823624678 -1.6203688236246785c -0.8949049903891726,-5.4797126601054656e-17 -1.6203688236246785,0.7254638332355056 -1.6203688236246785 1.620368823624678c -1.0959425320210931e-16,0.8949049903891726 0.7254638332355055,1.6203688236246785 1.6203688236246778 1.6203688236246785c 0.8949049903891726,1.6439137980316396e-16 1.6203688236246785,-0.7254638332355055 1.6203688236246787 -1.620368823624678Z" /></g></g></g><g fill="rgb(168,145,120)" fill-opacity="1.0" stroke-width="0.0"><g fill="rgb(168,145,120)" fill-opacity="1.0"><g fill="rgb(168,145,120)" fill-opacity="1.0"><path d="M 217.48583027024947,126.48842007187687 c 0.0,-0.9479490647101725 -0.768464551636469,-1.7164136163466417 -1.7164136163466412 -1.7164136163466417c -0.9479490647101725,-5.804513939260199e-17 -1.7164136163466417,0.7684645516364689 -1.7164136163466417 1.716413616346641c -1.1609027878520398e-16,0.9479490647101725 0.7684645516364688,1.7164136163466417 1.716413616346641 1.7164136163466417c 0.9479490647101725,1.74135418177806e-16 1.7164136163466417,-0.7684645516364688 1.716413616346642 -1.716413616346641Z" /></g></g></g><g fill="rgb(173,210,116)" fill-opacity="1.0" stroke-width="0.0"><g fill="rgb(173,210,116)" fill-opacity="1.0"><g fill="rgb(173,210,116)" fill-opacity="1.0"><path d="M 571.110419330969,547.5724751597979 c 0.0,-1.338513004614293 -1.0850791822501469,-2.42359218686444 -2.4235921868644397 -2.42359218686444c -1.338513004614293,-8.19602833359e-17 -2.42359218686444,1.0850791822501469 -2.42359218686444 2.4235921868644392c -1.639205666718e-16,1.338513004614293 1.0850791822501467,2.42359218686444 2.4235921868644392 2.42359218686444c 1.338513004614293,2.4588085000770003e-16 2.42359218686444,-1.0850791822501464 2.42359218686444 -2.4235921868644392Z" /></g></g></g><g fill="rgb(240,162,188)" fill-opacity="1.0" stroke-width="0.0"><g fill="rgb(240,162,188)" fill-opacity="1.0"><g fill="rgb(240,162,188)" fill-opacity="1.0"><path d="M 484.7840262507393,243.73410796966016 c 0.0,-1.0514047819970416 -0.8523319811838468,-1.9037367631808886 -1.9037367631808881 -1.9037367631808886c -1.0514047819970416,-6.437997504404488e-17 -1.9037367631808886,0.8523319811838468 -1.9037367631808886 1.903736763180888c -1.2875995008808976e-16,1.0514047819970416 0.8523319811838467,1.9037367631808886 1.9037367631808877 1.9037367631808886c 1.0514047819970416,1.9313992513213463e-16 1.9037367631808886,-0.8523319811838466 1.903736763180889 -1.903736763180888Z" /></g></g></g><g fill="rgb(97,91,91)" fill-opacity="1.0" stroke-width="0.0"><g fill="rgb(97,91,91)" fill-opacity="1.0"><g fill="rgb(97,91,91)" fill-opacity="1.0"><path d="M 423.06802415746904,63.19125410348704 c 0.0,-0.9088159320037659 -0.7367408795544108,-1.645556811558177 -1.6455568115581765 -1.645556811558177c -0.9088159320037659,-5.564892610712652e-17 -1.645556811558177,0.7367408795544108 -1.645556811558177 1.6455568115581765c -1.1129785221425303e-16,0.9088159320037659 0.7367408795544107,1.645556811558177 1.6455568115581762 1.645556811558177c 0.9088159320037659,1.6694677832137957e-16 1.645556811558177,-0.7367408795544106 1.6455568115581771 -1.6455568115581765Z" /></g></g></g><g fill="rgb(185,161,185)" fill-opacity="1.0" stroke-width="0.0"><g fill="rgb(185,161,185)" fill-opacity="1.0"><g fill="rgb(185,161,185)" fill-opacity="1.0"><path d="M 352.36694442300694,425.7746413908643 c 0.0,-0.3395873655798433 -0.2752899521152126,-0.614877317695056 -0.6148773176950559 -0.614877317695056c -0.3395873655798433,-2.079372901441186e-17 -0.614877317695056,0.2752899521152126 -0.614877317695056 0.6148773176950558c -4.158745802882372e-17,0.3395873655798433 0.27528995211521257,0.614877317695056 0.6148773176950558 0.614877317695056c 0.3395873655798433,6.238118704323558e-17 0.614877317695056,-0.27528995211521257 0.614877317695056 -0.6148773176950558Z" /></g></g></g><g fill="rgb(240,162,188)" fill-opacity="1.0" stroke-width="0.0"><g fill="rgb(240,162,188)" fill-opacity="1.0"><g fill="rgb(240,162,188)" fill-opacity="1.0"><path d="M 575.4149198297857,43.6057401708843 c 0.0,-0.5267107543189911 -0.4269834305745124,-0.9536941848935035 -0.9536941848935033 -0.9536941848935035c -0.5267107543189911,-3.225173196766202e-17 -0.9536941848935035,0.4269834305745123 -0.9536941848935035 0.9536941848935032c -6.450346393532404e-17,0.5267107543189911 0.42698343057451227,0.9536941848935035 0.9536941848935031 0.9536941848935035c 0.5267107543189911,9.675519590298605e-17 0.9536941848935035,-0.4269834305745122 0.9536941848935038 -0.9536941848935032Z" /></g></g></g><g fill="rgb(191,49,49)" fill-opacity="1.0" stroke-width="0.0"><g fill="rgb(191,49,49)" fill-opacity="1.0"><g fill="rgb(191,49,49)" fill-opacity="1.0"><path d="M 346.7711630466665,1.3381472621060198 c 0.0,-0.7390383258890172 -0.599108936217062,-1.3381472621060793 -1.338147262106079 -1.3381472621060793c -0.7390383258890172,-4.5253046012360166e-17 -1.3381472621060793,0.5991089362170618 -1.3381472621060793 1.3381472621060788c -9.050609202472033e-17,0.7390383258890172 0.5991089362170617,1.3381472621060793 1.3381472621060786 1.3381472621060793c 0.7390383258890172,1.357591380370805e-16 1.3381472621060793,-0.5991089362170617 1.33814726210608 -1.3381472621060788Z" /></g></g></g><g fill="rgb(191,49,49)" fill-opacity="1.0" stroke-width="0.0"><g fill="rgb(191,49,49)" fill-opacity="1.0"><g fill="rgb(191,49,49)" fill-opacity="1.0"><path d="M 325.3894567553787,390.3437315775125 c 0.0,-0.5760906917282008 -0.46701377911713915,-1.04310447084534 -1.0431044708453399 -1.04310447084534c -0.5760906917282008,-3.5275381082176286e-17 -1.04310447084534,0.4670137791171391 -1.04310447084534 1.0431044708453396c -7.055076216435257e-17,0.5760906917282008 0.46701377911713904,1.04310447084534 1.0431044708453396 1.04310447084534c 0.5760906917282008,1.0582614324652886e-16 1.04310447084534,-0.467013779117139 1.0431044708453405 -1.0431044708453396Z" /></g></g></g><g fill="rgb(97,91,91)" fill-opacity="1.0" stroke-width="0.0"><g fill="rgb(97,91,91)" fill-opacity="1.0"><g fill="rgb(97,91,91)" fill-opacity="1.0"><path d="M 114.66449828695518,561.7825771162921 c 0.0,-0.6919109128793541 -0.5609046194911099,-1.2528155323704642 -1.252815532370464 -1.2528155323704642c -0.6919109128793541,-4.236732423764121e-17 -1.2528155323704642,0.5609046194911098 -1.2528155323704642 1.2528155323704637c -8.473464847528242e-17,0.6919109128793541 0.5609046194911098,1.2528155323704642 1.2528155323704635 1.2528155323704642c 0.6919109128793541,1.2710197271292362e-16 1.2528155323704642,-0.5609046194911097 1.2528155323704648 -1.2528155323704637Z" /></g></g></g><g fill="rgb(241,237,226)" fill-opacity="1.0" stroke-width="0.0"><g fill="rgb(241,237,226)" fill-opacity="1.0"><g fill="rgb(241,237,226)" fill-opacity="1.0"><path d="M 617.4451288573039,426.5406651107556 c 0.0,-0.5536019153421012 -0.44878302378886564,-1.002384939130967 -1.0023849391309667 -1.002384939130967c -0.5536019153421012,-3.3898340681277414e-17 -1.002384939130967,0.4487830237888656 -1.002384939130967 1.0023849391309665c -6.779668136255483e-17,0.5536019153421012 0.44878302378886553,1.002384939130967 1.0023849391309665 1.002384939130967c 0.5536019153421012,1.0169502204383224e-16 1.002384939130967,-0.4487830237888655 1.0023849391309674 -1.0023849391309665Z" /></g></g></g><g fill="rgb(235,86,92)" fill-opacity="1.0" stroke-width="0.0"><g fill="rgb(235,86,92)" fill-opacity="1.0"><g fill="rgb(235,86,92)" fill-opacity="1.0"><path d="M 304.5474147745759,401.31757853763634 c 0.0,-0.2891942522249709 -0.2344382621864318,-0.5236325144114028 -0.5236325144114027 -0.5236325144114028c -0.2891942522249709,-1.7708040765956148e-17 -0.5236325144114028,0.23443826218643177 -0.5236325144114028 0.5236325144114026c -3.5416081531912295e-17,0.2891942522249709 0.23443826218643174,0.5236325144114028 0.5236325144114026 0.5236325144114028c 0.2891942522249709,5.312412229786845e-17 0.5236325144114028,-0.2344382621864317 0.5236325144114028 -0.5236325144114026Z" /></g></g></g><g fill="rgb(241,237,226)" fill-opacity="1.0" stroke-width="0.0"><g fill="rgb(241,237,226)" fill-opacity="1.0"><g fill="rgb(241,237,226)" fill-opacity="1.0"><path d="M 524.1398048077367,407.6223234801565 c 0.0,-0.5271637511194852 -0.42735065703861663,-0.954514408158102 -0.9545144081581017 -0.954514408158102c -0.5271637511194852,-3.2279470021749475e-17 -0.954514408158102,0.4273506570386166 -0.954514408158102 0.9545144081581016c -6.455894004349895e-17,0.5271637511194852 0.4273506570386165,0.954514408158102 0.9545144081581015 0.954514408158102c 0.5271637511194852,9.683841006524843e-17 0.954514408158102,-0.42735065703861647 0.9545144081581022 -0.9545144081581016Z" /></g></g></g><g fill="rgb(209,95,105)" fill-opacity="1.0" stroke-width="0.0"><g fill="rgb(209,95,105)" fill-opacity="1.0"><g fill="rgb(209,95,105)" fill-opacity="1.0"><path d="M 452.6139671864834,219.9057700743366 c 0.0,-0.41185818382222333 -0.33387702604624864,-0.7457352098684721 -0.745735209868472 -0.7457352098684721c -0.41185818382222333,-2.52190403260264e-17 -0.7457352098684721,0.3338770260462486 -0.7457352098684721 0.7457352098684719c -5.04380806520528e-17,0.41185818382222333 0.3338770260462486,0.7457352098684721 0.7457352098684717 0.7457352098684721c 0.41185818382222333,7.565712097807921e-17 0.7457352098684721,-0.3338770260462485 0.7457352098684722 -0.7457352098684719Z" /></g></g></g><g fill="rgb(72,189,190)" fill-opacity="1.0" stroke-width="0.0"><g fill="rgb(72,189,190)" fill-opacity="1.0"><g fill="rgb(72,189,190)" fill-opacity="1.0"><path d="M 341.4761252781536,587.1004599026757 c 0.0,-0.4487422098308924 -0.36377743690636766,-0.8125196467372602 -0.81251964673726 -0.8125196467372602c -0.4487422098308924,-2.7477535545585615e-17 -0.8125196467372602,0.36377743690636766 -0.8125196467372602 0.81251964673726c -5.495507109117123e-17,0.4487422098308924 0.3637774369063676,0.8125196467372602 0.8125196467372598 0.8125196467372602c 0.4487422098308924,8.243260663675685e-17 0.8125196467372602,-0.36377743690636755 0.8125196467372603 -0.81251964673726Z" /></g></g></g><g fill="rgb(97,91,91)" fill-opacity="1.0" stroke-width="0.0"><g fill="rgb(97,91,91)" fill-opacity="1.0"><g fill="rgb(97,91,91)" fill-opacity="1.0"><path d="M 185.96949937496413,332.1706249270994 c 0.0,-0.5224181653958863 -0.42350359970072804,-0.9459217650966144 -0.9459217650966142 -0.9459217650966144c -0.5224181653958863,-3.198888670342523e-17 -0.9459217650966144,0.423503599700728 -0.9459217650966144 0.9459217650966141c -6.397777340685046e-17,0.5224181653958863 0.42350359970072793,0.9459217650966144 0.945921765096614 0.9459217650966144c 0.5224181653958863,9.59666601102757e-17 0.9459217650966144,-0.4235035997007279 0.9459217650966146 -0.9459217650966141Z" /></g></g></g><g fill="rgb(209,95,105)" fill-opacity="1.0" stroke-width="0.0"><g fill="rgb(209,95,105)" fill-opacity="1.0"><g fill="rgb(209,95,105)" fill-opacity="1.0"><path d="M 692.7617295053111,491.8437346070681 c 0.0,-0.25681593676213016 -0.20819045141138406,-0.4650063881735143 -0.4650063881735142 -0.4650063881735143c -0.25681593676213016,-1.572544074628859e-17 -0.4650063881735143,0.20819045141138404 -0.4650063881735143 0.46500638817351414c -3.145088149257718e-17,0.25681593676213016 0.20819045141138404,0.4650063881735143 0.4650063881735141 0.4650063881735143c 0.25681593676213016,4.717632223886577e-17 0.4650063881735143,-0.208190451411384 0.4650063881735144 -0.46500638817351414Z" /></g></g></g><g fill="rgb(72,189,190)" fill-opacity="1.0" stroke-width="0.0"><g fill="rgb(72,189,190)" fill-opacity="1.0"><g fill="rgb(72,189,190)" fill-opacity="1.0"><path d="M 799.9999999999999,396.2215743701028 c 0.0,-0.32768391450523304 -0.26564029842229636,-0.5933242129275295 -0.5933242129275293 -0.5933242129275295c -0.32768391450523304,-2.006485285154543e-17 -0.5933242129275295,0.2656402984222963 -0.5933242129275295 0.5933242129275292c -4.012970570309086e-17,0.32768391450523304 0.2656402984222963,0.5933242129275295 0.5933242129275292 0.5933242129275295c 0.32768391450523304,6.019455855463628e-17 0.5933242129275295,-0.26564029842229625 0.5933242129275295 -0.5933242129275292Z" /></g></g></g><g fill="rgb(209,95,105)" fill-opacity="1.0" stroke-width="0.0"><g fill="rgb(209,95,105)" fill-opacity="1.0"><g fill="rgb(209,95,105)" fill-opacity="1.0"><path d="M 551.8301439751607,209.3826447765745 c 0.0,-0.506000076109876 -0.41019410861983446,-0.9161941847297105 -0.9161941847297103 -0.9161941847297105c -0.506000076109876,-3.098356867881383e-17 -0.9161941847297105,0.4101941086198344 -0.9161941847297105 0.9161941847297101c -6.196713735762766e-17,0.506000076109876 0.41019410861983435,0.9161941847297105 0.91619418472971 0.9161941847297105c 0.506000076109876,9.29507060364415e-17 0.9161941847297105,-0.4101941086198343 0.9161941847297107 -0.9161941847297101Z" /></g></g></g><g fill="rgb(168,145,120)" fill-opacity="1.0" stroke-width="0.0"><g fill="rgb(168,145,120)" fill-opacity="1.0"><g fill="rgb(168,145,120)" fill-opacity="1.0"><path d="M 1.267731132930965,176.5760834188182 c 0.0,-0.3500742858017402 -0.2837912806637368,-0.6338655664654771 -0.633865566465477 -0.6338655664654771c -0.3500742858017402,-2.143586767854484e-17 -0.6338655664654771,0.28379128066373677 -0.6338655664654771 0.6338655664654769c -4.287173535708968e-17,0.3500742858017402 0.28379128066373677,0.6338655664654771 0.6338655664654768 0.6338655664654771c 0.3500742858017402,6.430760303563452e-17 0.6338655664654771,-0.2837912806637367 0.6338655664654774 -0.6338655664654769Z" /></g></g></g><g fill="rgb(168,145,120)" fill-opacity="1.0" stroke-width="0.0"><g fill="rgb(168,145,120)" fill-opacity="1.0"><g fill="rgb(168,145,120)" fill-opacity="1.0"><path d="M 88.59138695857861,374.93165303712925 c 0.0,-0.2286666531718587 -0.18537094834061568,-0.41403760151247443 -0.4140376015124743 -0.41403760151247443c -0.2286666531718587,-1.4001794243932736e-17 -0.41403760151247443,0.18537094834061568 -0.41403760151247443 0.4140376015124743c -2.800358848786547e-17,0.2286666531718587 0.18537094834061565,0.41403760151247443 0.41403760151247426 0.41403760151247443c 0.2286666531718587,4.200538273179821e-17 0.41403760151247443,-0.18537094834061563 0.4140376015124745 -0.4140376015124743Z" /></g></g></g><g fill="rgb(191,49,49)" fill-opacity="1.0" stroke-width="0.0"><g fill="rgb(191,49,49)" fill-opacity="1.0"><g fill="rgb(191,49,49)" fill-opacity="1.0"><path d="M 654.3845469332088,498.22699303545414 c 0.0,-0.2662518911919093 -0.21583980385033538,-0.48209169504224475 -0.48209169504224464 -0.48209169504224475c -0.2662518911919093,-1.6303226315755053e-17 -0.48209169504224475,0.21583980385033535 -0.48209169504224475 0.4820916950422446c -3.260645263151011e-17,0.2662518911919093 0.21583980385033533,0.48209169504224475 0.48209169504224453 0.48209169504224475c 0.2662518911919093,4.8909678947265164e-17 0.48209169504224475,-0.2158398038503353 0.48209169504224486 -0.4820916950422446Z" /></g></g></g><g fill="rgb(240,162,188)" fill-opacity="1.0" stroke-width="0.0"><g fill="rgb(240,162,188)" fill-opacity="1.0"><g fill="rgb(240,162,188)" fill-opacity="1.0"><path d="M 560.3149871662905,663.8357013547835 c 0.0,-0.2519217959794203 -0.2042229664037579,-0.4561447623831783 -0.4561447623831782 -0.4561447623831783c -0.2519217959794203,-1.5425761054082485e-17 -0.4561447623831783,0.20422296640375787 -0.4561447623831783 0.45614476238317814c -3.085152210816497e-17,0.2519217959794203 0.20422296640375784,0.4561447623831783 0.4561447623831781 0.4561447623831783c 0.2519217959794203,4.6277283162247454e-17 0.4561447623831783,-0.2042229664037578 0.4561447623831784 -0.45614476238317814Z" /></g></g></g></g></g></g></svg>