<?xml version="1.0" encoding="UTF-8"?>
<!DOCTYPE svg PUBLIC "-//W3C//DTD SVG 1.1//EN"
    "http://www.w3.org/Graphics/SVG/1.1/DTD/svg11.dtd">
<svg xmlns="http://www.w3.org/2000/svg" xmlns:xlink="http://www.w3.org/1999/xlink" version="1.1" width="800.0" height="1052.5177379856498" font-size="1" viewBox="0 0 800 1053" stroke="rgb(0,0,0)" stroke-opacity="1"><g><g fill="rgb(0,0,0)" fill-opacity="0.0"><g stroke="rgb(0,0,0)" stroke-opacity="1.0" stroke-width="3.6704532480630143" stroke-linecap="butt" stroke-linejoin="miter" font-size="1.0em" stroke-miterlimit="10.0"><g fill="rgb(173,210,116)" fill-opacity="1.0" stroke-width="0.0"><g fill="rgb(173,210,116)" fill-opacity="1.0"><g fill="rgb(173,210,116)" fill-opacity="1.0"><path d="M 356.33568718794993,517.8797736226933 c 0.0,-27.42953600272643 -22.23603236781099,-49.66556837053742 -49.66556837053741 -49.66556837053742c -27.42953600272643,-1.6795746733918003e-15 -49.66556837053742,22.236032367810985 -49.66556837053742 49.66556837053741c -3.3591493467836006e-15,27.42953600272643 22.23603236781098,49.66556837053742 49.6655683705374 49.66556837053742c 27.42953600272643,5.038724020175401e-15 49.66556837053742,-22.23603236781098 49.66556837053743 -49.66556837053741Z" /></g></g></g><g fill="rgb(245,180,86)" fill-opacity="1.0" stroke-width="0.0"><g fill="rgb(245,180,86)" fill-opacity="1.0"><g fill="rgb(245,180,86)" fill-opacity="1.0"><path d="M 368.8522038364557,571.0628605600915 c 0.0,-5.594275323697122 -4.535056194891922,-10.129331518589046 -10.129331518589044 -10.129331518589046c -5.594275323697122,-3.425505684357352e-16 -10.129331518589046,4.535056194891922 -10.129331518589046 10.129331518589042c -6.851011368714704e-16,5.594275323697122 4.535056194891921,10.129331518589046 10.12933151858904 10.129331518589046c 5.594275323697122,1.0276517053072056e-15 10.129331518589046,-4.53505619489192 10.129331518589048 -10.129331518589042Z" /></g></g></g><g fill="rgb(168,145,120)" fill-opacity="1.0" stroke-width="0.0"><g fill="rgb(168,145,120)" fill-opacity="1.0"><g fill="rgb(168,145,120)" fill-opacity="1.0"><path d="M 386.08717970645773,454.9011663834682 c 0.0,-13.964143477408715 -11.320174950154215,-25.284318427562933 -25.284318427562926 -25.284318427562933c -13.964143477408715,-8.550571806221486e-16 -25.284318427562933,11.320174950154213 -25.284318427562933 25.284318427562926c -1.7101143612442972e-15,13.964143477408715 11.320174950154213,25.284318427562933 25.284318427562923 25.284318427562933c 13.964143477408715,2.565171541866446e-15 25.284318427562933,-11.320174950154211 25.284318427562937 -25.284318427562926Z" /></g></g></g><g fill="rgb(173,210,116)" fill-opacity="1.0" stroke-width="0.0"><g fill="rgb(173,210,116)" fill-opacity="1.0"><g fill="rgb(173,210,116)" fill-opacity="1.0"><path d="M 421.97635778267295,521.1387333727638 c 0.0,-11.88703301903082 -9.636344229159928,-21.52337724819075 -21.523377248190748 -21.52337724819075c -11.88703301903082,-7.278708469057497e-16 -21.52337724819075,9.636344229159928 -21.52337724819075 21.523377248190744c -1.4557416938114994e-15,11.88703301903082 9.636344229159926,21.52337724819075 21.52337724819074 21.52337724819075c 11.88703301903082,2.183612540717249e-15 21.52337724819075,-9.636344229159924 21.523377248190755 -21.523377248190744Z" /></g></g></g><g fill="rgb(97,91,91)" fill-opacity="1.0" stroke-width="0.0"><g fill="rgb(97,91,91)" fill-opacity="1.0"><g fill="rgb(97,91,91)" fill-opacity="1.0"><path d="M 457.568825092055,466.9109935193203 c 0.0,-17.13476144478957 -13.890468656239365,-31.02523010102894 -31.02523010102893 -31.02523010102894c -17.13476144478957,-1.0492015378757511e-15 -31.02523010102894,13.890468656239364 -31.02523010102894 31.025230101028928c -2.0984030757515022e-15,17.13476144478957 13.890468656239362,31.02523010102894 31.025230101028924 31.02523010102894c 17.13476144478957,3.1476046136272535e-15 31.02523010102894,-13.89046865623936 31.025230101028946 -31.025230101028928Z" /></g></g></g><g fill="rgb(72,189,190)" fill-opacity="1.0" stroke-width="0.0"><g fill="rgb(72,189,190)" fill-opacity="1.0"><g fill="rgb(72,189,190)" fill-opacity="1.0"><path d="M 365.9711749281686,496.4380235373394 c 0.0,-1.5027167581634264 -1.2181926253091788,-2.7209093834726055 -2.720909383472605 -2.7209093834726055c -1.5027167581634264,-9.201486339549636e-17 -2.7209093834726055,1.2181926253091786 -2.7209093834726055 2.7209093834726046c -1.8402972679099273e-16,1.5027167581634264 1.2181926253091786,2.7209093834726055 2.720909383472604 2.7209093834726055c 1.5027167581634264,2.760445901864891e-16 2.7209093834726055,-1.2181926253091784 2.720909383472607 -2.7209093834726046Z" /></g></g></g><g fill="rgb(185,161,185)" fill-opacity="1.0" stroke-width="0.0"><g fill="rgb(185,161,185)" fill-opacity="1.0"><g fill="rgb(185,161,185)" fill-opacity="1.0"><path d="M 378.12365601785206,612.2162802804427 c 0.0,-8.38889821200237 -6.8005456655852745,-15.189443877587648 -15.189443877587644 -15.189443877587648c -8.38889821200237,-5.136718671850829e-16 -15.189443877587648,6.800545665585274 -15.189443877587648 15.189443877587642c -1.0273437343701657e-15,8.38889821200237 6.800545665585273,15.189443877587648 15.18944387758764 15.189443877587648c 8.38889821200237,1.5410156015552487e-15 15.189443877587648,-6.800545665585272 15.189443877587651 -15.189443877587642Z" /></g></g></g><g fill="rgb(173,210,116)" fill-opacity="1.0" stroke-width="0.0"><g fill="rgb(173,210,116)" fill-opacity="1.0"><g fill="rgb(173,210,116)" fill-opacity="1.0"><path d="M 419.29241727899415,578.8294972238698 c 0.0,-12.537311842100898 -10.163499371574696,-22.700811213675596 -22.700811213675593 -22.700811213675596c -12.537311842100898,-7.676889408670535e-16 -22.700811213675596,10.163499371574694 -22.700811213675596 22.70081121367559c -1.535377881734107e-15,12.537311842100898 10.163499371574694,22.700811213675596 22.700811213675586 22.700811213675596c 12.537311842100898,2.3030668226011603e-15 22.700811213675596,-10.163499371574693 22.7008112136756 -22.70081121367559Z" /></g></g></g><g fill="rgb(72,189,190)" fill-opacity="1.0" stroke-width="0.0"><g fill="rgb(72,189,190)" fill-opacity="1.0"><g fill="rgb(72,189,190)" fill-opacity="1.0"><path d="M 379.9994863823743,544.5650934442602 c 0.0,-6.218324515776319 -5.040948020141903,-11.259272535918223 -11.259272535918221 -11.259272535918223c -6.218324515776319,-3.807625607152492e-16 -11.259272535918223,5.040948020141902 -11.259272535918223 11.25927253591822c -7.615251214304984e-16,6.218324515776319 5.040948020141902,11.259272535918223 11.259272535918218 11.259272535918223c 6.218324515776319,1.1422876821457475e-15 11.259272535918223,-5.040948020141901 11.259272535918225 -11.25927253591822Z" /></g></g></g><g fill="rgb(235,86,92)" fill-opacity="1.0" stroke-width="0.0"><g fill="rgb(235,86,92)" fill-opacity="1.0"><g fill="rgb(235,86,92)" fill-opacity="1.0"><path d="M 332.23876260896316,432.3839221824579 c 0.0,-11.025503169849298 -8.937936293628992,-19.96343946347829 -19.963439463478288 -19.96343946347829c -11.025503169849298,-6.751173582972469e-16 -19.96343946347829,8.93793629362899 -19.96343946347829 19.963439463478284c -1.3502347165944938e-15,11.025503169849298 8.93793629362899,19.96343946347829 19.963439463478284 19.96343946347829c 11.025503169849298,2.0253520748917408e-15 19.96343946347829,-8.937936293628988 19.96343946347829 -19.963439463478284Z" /></g></g></g><g fill="rgb(241,237,226)" fill-opacity="1.0" stroke-width="0.0"><g fill="rgb(241,237,226)" fill-opacity="1.0"><g fill="rgb(241,237,226)" fill-opacity="1.0"><path d="M 431.203744350145,529.4657027258919 c 0.0,-0.8072639657420557 -0.6544167451401144,-1.4616807108821703 -1.46168071088217 -1.4616807108821703c -0.8072639657420557,-4.9430661585650357e-17 -1.4616807108821703,0.6544167451401143 -1.4616807108821703 1.4616807108821699c -9.886132317130071e-17,0.8072639657420557 0.6544167451401143,1.4616807108821703 1.4616807108821697 1.4616807108821703c 0.8072639657420557,1.4829198475695107e-16 1.4616807108821703,-0.6544167451401142 1.461680710882171 -1.4616807108821699Z" /></g></g></g><g fill="rgb(241,237,226)" fill-opacity="1.0" stroke-width="0.0"><g fill="rgb(241,237,226)" fill-opacity="1.0"><g fill="rgb(241,237,226)" fill-opacity="1.0"><path d="M 338.930088028321,593.4950537190967 c 0.0,-10.448041472921918 -8.469811095201576,-18.917852568123497 -18.917852568123493 -18.917852568123497c -10.448041472921918,-6.397580273586312e-16 -18.917852568123497,8.469811095201575 -18.917852568123497 18.91785256812349c -1.2795160547172624e-15,10.448041472921918 8.469811095201573,18.917852568123497 18.91785256812349 18.917852568123497c 10.448041472921918,1.9192740820758936e-15 18.917852568123497,-8.469811095201573 18.917852568123497 -18.91785256812349Z" /></g></g></g><g fill="rgb(72,189,190)" fill-opacity="1.0" stroke-width="0.0"><g fill="rgb(72,189,190)" fill-opacity="1.0"><g fill="rgb(72,189,190)" fill-opacity="1.0"><path d="M 340.99488318487386,568.7269455259008 c 0.0,-2.124099082845782 -1.7219225273771215,-3.8460216102229037 -3.846021610222903 -3.8460216102229037c -2.124099082845782,-1.3006355714394577e-16 -3.8460216102229037,1.7219225273771213 -3.8460216102229037 3.8460216102229023c -2.6012711428789154e-16,2.124099082845782 1.721922527377121,3.8460216102229037 3.846021610222902 3.8460216102229037c 2.124099082845782,3.901906714318373e-16 3.8460216102229037,-1.7219225273771208 3.8460216102229046 -3.8460216102229023Z" /></g></g></g><g fill="rgb(235,86,92)" fill-opacity="1.0" stroke-width="0.0"><g fill="rgb(235,86,92)" fill-opacity="1.0"><g fill="rgb(235,86,92)" fill-opacity="1.0"><path d="M 458.99418544812875,551.4856057986282 c 0.0,-9.909229810485023 -8.03301794037351,-17.942247750858535 -17.94224775085853 -17.942247750858535c -9.909229810485023,-6.067653284713008e-16 -17.942247750858535,8.03301794037351 -17.942247750858535 17.942247750858527c -1.2135306569426016e-15,9.909229810485023 8.033017940373508,17.942247750858535 17.942247750858527 17.942247750858535c 9.909229810485023,1.8202959854139023e-15 17.942247750858535,-8.033017940373508 17.94224775085854 -17.942247750858527Z" /></g></g></g><g fill="rgb(235,86,92)" fill-opacity="1.0" stroke-width="0.0"><g fill="rgb(235,86,92)" fill-opacity="1.0"><g fill="rgb(235,86,92)" fill-opacity="1.0"><path d="M 251.15336183063073,468.7093472729933 c 0.0,-14.606135286555608 -11.840612140438472,-26.446747426994083 -26.446747426994076 -26.446747426994083c -14.606135286555608,-8.943678413296767e-16 -26.446747426994083,11.840612140438472 -26.446747426994083 26.446747426994076c -1.7887356826593534e-15,14.606135286555608 11.84061214043847,26.446747426994083 26.446747426994072 26.446747426994083c 14.606135286555608,2.68310352398903e-15 26.446747426994083,-11.840612140438468 26.446747426994087 -26.446747426994076Z" /></g></g></g><g fill="rgb(168,145,120)" fill-opacity="1.0" stroke-width="0.0"><g fill="rgb(168,145,120)" fill-opacity="1.0"><g fill="rgb(168,145,120)" fill-opacity="1.0"><path d="M 373.24717593369843,525.0476081531195 c 0.0,-2.9130513967653617 -2.3614947457052553,-5.2745461424706175 -5.274546142470617 -5.2745461424706175c -2.9130513967653617,-1.783729534400213e-16 -5.2745461424706175,2.361494745705255 -5.2745461424706175 5.274546142470616c -3.567459068800426e-16,2.9130513967653617 2.361494745705255,5.2745461424706175 5.274546142470615 5.2745461424706175c 2.9130513967653617,5.35118860320064e-16 5.2745461424706175,-2.3614947457052544 5.27454614247062 -5.274546142470616Z" /></g></g></g><g fill="rgb(185,161,185)" fill-opacity="1.0" stroke-width="0.0"><g fill="rgb(185,161,185)" fill-opacity="1.0"><g fill="rgb(185,161,185)" fill-opacity="1.0"><path d="M 385.86760627788107,390.2282550012465 c 0.0,-9.381541596893452 -7.605242122497182,-16.986783719390637 -16.986783719390633 -16.986783719390637c -9.381541596893452,-5.744537443851658e-16 -16.986783719390637,7.605242122497181 -16.986783719390637 16.98678371939063c -1.1489074887703315e-15,9.381541596893452 7.60524212249718,16.986783719390637 16.98678371939063 16.986783719390637c 9.381541596893452,1.7233612331554973e-15 16.986783719390637,-7.605242122497179 16.986783719390644 -16.98678371939063Z" /></g></g></g><g fill="rgb(97,91,91)" fill-opacity="1.0" stroke-width="0.0"><g fill="rgb(97,91,91)" fill-opacity="1.0"><g fill="rgb(97,91,91)" fill-opacity="1.0"><path d="M 368.68757390319485,514.5827517665522 c 0.0,-1.8669441477572857 -1.5134572635242525,-3.3804014112815386 -3.3804014112815377 -3.3804014112815386c -1.8669441477572857,-1.1431735873689215e-16 -3.3804014112815386,1.5134572635242522 -3.3804014112815386 3.3804014112815373c -2.286347174737843e-16,1.8669441477572857 1.5134572635242522,3.3804014112815386 3.3804014112815373 3.3804014112815386c 1.8669441477572857,3.4295207621067647e-16 3.3804014112815386,-1.513457263524252 3.380401411281539 -3.3804014112815373Z" /></g></g></g><g fill="rgb(185,161,185)" fill-opacity="1.0" stroke-width="0.0"><g fill="rgb(185,161,185)" fill-opacity="1.0"><g fill="rgb(185,161,185)" fill-opacity="1.0"><path d="M 316.3320617687842,456.93476888804884 c 0.0,-1.3180433342774935 -1.0684852357786407,-2.3865285700561345 -2.386528570056134 -2.3865285700561345c -1.3180433342774935,-8.070687752302186e-17 -2.3865285700561345,1.0684852357786407 -2.3865285700561345 2.3865285700561336c -1.6141375504604372e-16,1.3180433342774935 1.0684852357786405,2.3865285700561345 2.3865285700561336 2.3865285700561345c 1.3180433342774935,2.4212063256906557e-16 2.3865285700561345,-1.0684852357786403 2.3865285700561345 -2.3865285700561336Z" /></g></g></g><g fill="rgb(241,237,226)" fill-opacity="1.0" stroke-width="0.0"><g fill="rgb(241,237,226)" fill-opacity="1.0"><g fill="rgb(241,237,226)" fill-opacity="1.0"><path d="M 289.1128609320152,583.5672256540697 c 0.0,-8.363148240688416 -6.779671189416578,-15.142819430104995 -15.142819430104991 -15.142819430104995c -8.363148240688416,-5.120951361876943e-16 -15.142819430104995,6.779671189416577 -15.142819430104995 15.14281943010499c -1.0241902723753885e-15,8.363148240688416 6.779671189416576,15.142819430104995 15.142819430104987 15.142819430104995c 8.363148240688416,1.5362854085630828e-15 15.142819430104995,-6.779671189416575 15.142819430104998 -15.14281943010499Z" /></g></g></g><g fill="rgb(235,86,92)" fill-opacity="1.0" stroke-width="0.0"><g fill="rgb(235,86,92)" fill-opacity="1.0"><g fill="rgb(235,86,92)" fill-opacity="1.0"><path d="M 425.8119557507643,640.9555566410257 c 0.0,-14.570352438828863 -11.811604410953539,-26.381956849782405 -26.381956849782398 -26.381956849782405c -14.570352438828863,-8.9217677383303e-16 -26.381956849782405,11.811604410953537 -26.381956849782405 26.381956849782398c -1.78435354766606e-15,14.570352438828863 11.811604410953535,26.381956849782405 26.381956849782394 26.381956849782405c 14.570352438828863,2.6765303214990898e-15 26.381956849782405,-11.811604410953535 26.38195684978241 -26.381956849782398Z" /></g></g></g><g fill="rgb(241,237,226)" fill-opacity="1.0" stroke-width="0.0"><g fill="rgb(241,237,226)" fill-opacity="1.0"><g fill="rgb(241,237,226)" fill-opacity="1.0"><path d="M 321.06544483584946,642.4699699911067 c 0.0,-8.335738996763512 -6.757451607028061,-15.093190603791575 -15.093190603791571 -15.093190603791575c -8.335738996763512,-5.104168040457102e-16 -15.093190603791575,6.75745160702806 -15.093190603791575 15.09319060379157c -1.0208336080914205e-15,8.335738996763512 6.7574516070280595,15.093190603791575 15.093190603791568 15.093190603791575c 8.335738996763512,1.5312504121371306e-15 15.093190603791575,-6.757451607028059 15.093190603791578 -15.09319060379157Z" /></g></g></g><g fill="rgb(72,189,190)" fill-opacity="1.0" stroke-width="0.0"><g fill="rgb(72,189,190)" fill-opacity="1.0"><g fill="rgb(72,189,190)" fill-opacity="1.0"><path d="M 291.9794474979744,409.2949021972257 c 0.0,-6.789110213858019 -5.503661252198278,-12.2927714660563 -12.292771466056296 -12.2927714660563c -6.789110213858019,-4.157131046229913e-16 -12.2927714660563,5.503661252198278 -12.2927714660563 12.292771466056296c -8.314262092459826e-16,6.789110213858019 5.5036612521982775,12.2927714660563 12.292771466056294 12.2927714660563c 6.789110213858019,1.247139313868974e-15 12.2927714660563,-5.503661252198277 12.292771466056301 -12.292771466056296Z" /></g></g></g><g fill="rgb(240,162,188)" fill-opacity="1.0" stroke-width="0.0"><g fill="rgb(240,162,188)" fill-opacity="1.0"><g fill="rgb(240,162,188)" fill-opacity="1.0"><path d="M 294.55548432057293,452.05217588572145 c 0.0,-6.951959558752807 -5.635676730104919,-12.587636288857727 -12.587636288857723 -12.587636288857727c -6.951959558752807,-4.2568475107142356e-16 -12.587636288857727,5.635676730104918 -12.587636288857727 12.587636288857723c -8.513695021428471e-16,6.951959558752807 5.635676730104917,12.587636288857727 12.587636288857722 12.587636288857727c 6.951959558752807,1.2770542532142707e-15 12.587636288857727,-5.635676730104916 12.587636288857729 -12.587636288857723Z" /></g></g></g><g fill="rgb(235,86,92)" fill-opacity="1.0" stroke-width="0.0"><g fill="rgb(235,86,92)" fill-opacity="1.0"><g fill="rgb(235,86,92)" fill-opacity="1.0"><path d="M 496.93673887248826,444.6673528953796 c 0.0,-9.305878281138524 -7.5439048859498605,-16.849783167088386 -16.849783167088383 -16.849783167088386c -9.305878281138524,-5.698207025125583e-16 -16.849783167088386,7.54390488594986 -16.849783167088386 16.84978316708838c -1.1396414050251166e-15,9.305878281138524 7.543904885949859,16.849783167088386 16.84978316708838 16.849783167088386c 9.305878281138524,1.709462107537675e-15 16.849783167088386,-7.543904885949858 16.849783167088386 -16.84978316708838Z" /></g></g></g><g fill="rgb(191,49,49)" fill-opacity="1.0" stroke-width="0.0"><g fill="rgb(191,49,49)" fill-opacity="1.0"><g fill="rgb(191,49,49)" fill-opacity="1.0"><path d="M 479.298965894567,613.6261184460735 c 0.0,-9.797051452653054 -7.942079413543469,-17.739130866196525 -17.739130866196522 -17.739130866196525c -9.797051452653054,-5.998963851286745e-16 -17.739130866196525,7.9420794135434685 -17.739130866196525 17.73913086619652c -1.199792770257349e-15,9.797051452653054 7.942079413543467,17.739130866196525 17.73913086619652 17.739130866196525c 9.797051452653054,1.7996891553860236e-15 17.739130866196525,-7.942079413543466 17.739130866196533 -17.73913086619652Z" /></g></g></g><g fill="rgb(245,180,86)" fill-opacity="1.0" stroke-width="0.0"><g fill="rgb(245,180,86)" fill-opacity="1.0"><g fill="rgb(245,180,86)" fill-opacity="1.0"><path d="M 376.06831589513035,495.6012482597071 c 0.0,-1.809277345495223 -1.4667090836964958,-3.275986429191719 -3.2759864291917182 -3.275986429191719c -1.809277345495223,-1.1078628549652723e-16 -3.275986429191719,1.4667090836964956 -3.275986429191719 3.2759864291917182c -2.2157257099305447e-16,1.809277345495223 1.4667090836964956,3.275986429191719 3.275986429191718 3.275986429191719c 1.809277345495223,3.323588564895817e-16 3.275986429191719,-1.4667090836964953 3.2759864291917196 -3.2759864291917182Z" /></g></g></g><g fill="rgb(240,162,188)" fill-opacity="1.0" stroke-width="0.0"><g fill="rgb(240,162,188)" fill-opacity="1.0"><g fill="rgb(240,162,188)" fill-opacity="1.0"><path d="M 346.8442819142787,385.1090400503703 c 0.0,-9.100263381112196 -7.377221075774027,-16.477484456886224 -16.47748445688622 -16.477484456886224c -9.100263381112196,-5.57230421053846e-16 -16.477484456886224,7.377221075774025 -16.477484456886224 16.477484456886216c -1.114460842107692e-15,9.100263381112196 7.377221075774024,16.477484456886224 16.477484456886216 16.477484456886224c 9.100263381112196,1.6716912631615379e-15 16.477484456886224,-7.377221075774023 16.47748445688623 -16.477484456886216Z" /></g></g></g><g fill="rgb(235,86,92)" fill-opacity="1.0" stroke-width="0.0"><g fill="rgb(235,86,92)" fill-opacity="1.0"><g fill="rgb(235,86,92)" fill-opacity="1.0"><path d="M 256.8842764114628,634.8066628322482 c 0.0,-9.342243054899184 -7.573384359693411,-16.915627414592596 -16.915627414592592 -16.915627414592596c -9.342243054899184,-5.720474027019437e-16 -16.915627414592596,7.57338435969341 -16.915627414592596 16.91562741459259c -1.1440948054038875e-15,9.342243054899184 7.573384359693408,16.915627414592596 16.91562741459259 16.915627414592596c 9.342243054899184,1.7161422081058313e-15 16.915627414592596,-7.573384359693407 16.915627414592596 -16.91562741459259Z" /></g></g></g><g fill="rgb(235,86,92)" fill-opacity="1.0" stroke-width="0.0"><g fill="rgb(235,86,92)" fill-opacity="1.0"><g fill="rgb(235,86,92)" fill-opacity="1.0"><path d="M 458.3688327490635,517.9215322054321 c 0.0,-5.3276692175292 -4.318929243068285,-9.646598460597486 -9.646598460597485 -9.646598460597486c -5.3276692175292,-3.2622565270815093e-16 -9.646598460597486,4.318929243068284 -9.646598460597486 9.646598460597483c -6.524513054163019e-16,5.3276692175292 4.318929243068284,9.646598460597486 9.646598460597483 9.646598460597486c 5.3276692175292,9.786769581244527e-16 9.646598460597486,-4.3189292430682835 9.646598460597486 -9.646598460597483Z" /></g></g></g><g fill="rgb(72,189,190)" fill-opacity="1.0" stroke-width="0.0"><g fill="rgb(72,189,190)" fill-opacity="1.0"><g fill="rgb(72,189,190)" fill-opacity="1.0"><path d="M 331.2630976680053,352.49587569372113 c 0.0,-3.592937423086771 -2.912651268593669,-6.50558869168044 -6.505588691680439 -6.50558869168044c -3.592937423086771,-2.2000396573599766e-16 -6.50558869168044,2.9126512685936685 -6.50558869168044 6.505588691680439c -4.400079314719953e-16,3.592937423086771 2.912651268593668,6.50558869168044 6.505588691680438 6.50558869168044c 3.592937423086771,6.60011897207993e-16 6.50558869168044,-2.9126512685936676 6.505588691680441 -6.505588691680439Z" /></g></g></g><g fill="rgb(185,161,185)" fill-opacity="1.0" stroke-width="0.0"><g fill="rgb(185,161,185)" fill-opacity="1.0"><g fill="rgb(185,161,185)" fill-opacity="1.0"><path d="M 424.56607333802646,424.4592515742996 c 0.0,-4.408310670613618 -3.5736418854984535,-7.9819525561120725 -7.981952556112071 -7.9819525561120725c -4.408310670613618,-2.6993117762070446e-16 -7.9819525561120725,3.573641885498453 -7.9819525561120725 7.98195255611207c -5.398623552414089e-16,4.408310670613618 3.5736418854984526,7.9819525561120725 7.981952556112069 7.9819525561120725c 4.408310670613618,8.097935328621134e-16 7.9819525561120725,-3.573641885498452 7.981952556112074 -7.98195255611207Z" /></g></g></g><g fill="rgb(240,162,188)" fill-opacity="1.0" stroke-width="0.0"><g fill="rgb(240,162,188)" fill-opacity="1.0"><g fill="rgb(240,162,188)" fill-opacity="1.0"><path d="M 277.86369506173276,664.3482281706315 c 0.0,-7.317136966223152 -5.931711509974938,-13.248848476198091 -13.248848476198088 -13.248848476198091c -7.317136966223152,-4.480454182303979e-16 -13.248848476198091,5.931711509974937 -13.248848476198091 13.248848476198088c -8.960908364607958e-16,7.317136966223152 5.931711509974937,13.248848476198091 13.248848476198086 13.248848476198091c 7.317136966223152,1.3441362546911936e-15 13.248848476198091,-5.931711509974936 13.248848476198093 -13.248848476198088Z" /></g></g></g><g fill="rgb(245,180,86)" fill-opacity="1.0" stroke-width="0.0"><g fill="rgb(245,180,86)" fill-opacity="1.0"><g fill="rgb(245,180,86)" fill-opacity="1.0"><path d="M 461.7291084979966,377.2731390098518 c 0.0,-6.021686777245193 -4.881541637245864,-10.903228414491059 -10.903228414491057 -10.903228414491059c -6.021686777245193,-3.6872197186106334e-16 -10.903228414491059,4.8815416372458635 -10.903228414491059 10.903228414491055c -7.374439437221267e-16,6.021686777245193 4.8815416372458635,10.903228414491059 10.903228414491053 10.903228414491059c 6.021686777245193,1.10616591558319e-15 10.903228414491059,-4.881541637245863 10.90322841449106 -10.903228414491055Z" /></g></g></g><g fill="rgb(72,189,190)" fill-opacity="1.0" stroke-width="0.0"><g fill="rgb(72,189,190)" fill-opacity="1.0"><g fill="rgb(72,189,190)" fill-opacity="1.0"><path d="M 482.2236528873837,506.42285531740885 c 0.0,-3.2068373595591644 -2.5996553247701795,-5.806492684329345 -5.806492684329344 -5.806492684329345c -3.2068373595591644,-1.9636215538851403e-16 -5.806492684329345,2.5996553247701795 -5.806492684329345 5.806492684329343c -3.9272431077702805e-16,3.2068373595591644 2.599655324770179,5.806492684329345 5.806492684329342 5.806492684329345c 3.2068373595591644,5.890864661655421e-16 5.806492684329345,-2.5996553247701786 5.806492684329346 -5.806492684329343Z" /></g></g></g><g fill="rgb(97,91,91)" fill-opacity="1.0" stroke-width="0.0"><g fill="rgb(97,91,91)" fill-opacity="1.0"><g fill="rgb(97,91,91)" fill-opacity="1.0"><path d="M 396.23401011192726,363.69237323030836 c 0.0,-3.673027611374378 -2.9775771943887785,-6.650604805763157 -6.650604805763155 -6.650604805763157c -3.673027611374378,-2.2490807537247403e-16 -6.650604805763157,2.977577194388778 -6.650604805763157 6.650604805763155c -4.498161507449481e-16,3.673027611374378 2.9775771943887777,6.650604805763157 6.650604805763154 6.650604805763157c 3.673027611374378,6.74724226117422e-16 6.650604805763157,-2.977577194388777 6.650604805763158 -6.650604805763155Z" /></g></g></g><g fill="rgb(235,86,92)" fill-opacity="1.0" stroke-width="0.0"><g fill="rgb(235,86,92)" fill-opacity="1.0"><g fill="rgb(235,86,92)" fill-opacity="1.0"><path d="M 433.48161775233757,577.6735326285421 c 0.0,-3.067682951880608 -2.486848388737562,-5.554531340618171 -5.55453134061817 -5.554531340618171c -3.067682951880608,-1.8784140539097453e-16 -5.554531340618171,2.486848388737562 -5.554531340618171 5.554531340618169c -3.7568281078194906e-16,3.067682951880608 2.4868483887375614,5.554531340618171 5.554531340618168 5.554531340618171c 3.067682951880608,5.635242161729236e-16 5.554531340618171,-2.486848388737561 5.5545313406181736 -5.554531340618169Z" /></g></g></g><g fill="rgb(72,189,190)" fill-opacity="1.0" stroke-width="0.0"><g fill="rgb(72,189,190)" fill-opacity="1.0"><g fill="rgb(72,189,190)" fill-opacity="1.0"><path d="M 307.6963870865759,352.9123372313436 c 0.0,-7.603974568547629 -6.164239329948211,-13.768213898495842 -13.768213898495839 -13.768213898495842c -7.603974568547629,-4.656091558084865e-16 -13.768213898495842,6.16423932994821 -13.768213898495842 13.768213898495837c -9.31218311616973e-16,7.603974568547629 6.1642393299482094,13.768213898495842 13.768213898495837 13.768213898495842c 7.603974568547629,1.3968274674254597e-15 13.768213898495842,-6.164239329948209 13.768213898495844 -13.768213898495837Z" /></g></g></g><g fill="rgb(185,161,185)" fill-opacity="1.0" stroke-width="0.0"><g fill="rgb(185,161,185)" fill-opacity="1.0"><g fill="rgb(185,161,185)" fill-opacity="1.0"><path d="M 484.6220254772827,577.3761672205354 c 0.0,-6.429954791549331 -5.212508255853863,-11.642463047403195 -11.642463047403194 -11.642463047403195c -6.429954791549331,-3.9372117770665375e-16 -11.642463047403195,5.212508255853862 -11.642463047403195 11.642463047403192c -7.874423554133075e-16,6.429954791549331 5.212508255853862,11.642463047403195 11.64246304740319 11.642463047403195c 6.429954791549331,1.1811635331199613e-15 11.642463047403195,-5.212508255853861 11.642463047403197 -11.642463047403192Z" /></g></g></g><g fill="rgb(209,95,105)" fill-opacity="1.0" stroke-width="0.0"><g fill="rgb(209,95,105)" fill-opacity="1.0"><g fill="rgb(209,95,105)" fill-opacity="1.0"><path d="M 214.08046011663777,557.3333365816861 c 0.0,-3.4375470257668335 -2.786682462409354,-6.224229488176188 -6.224229488176186 -6.224229488176188c -3.4375470257668335,-2.1048904810119284e-16 -6.224229488176188,2.7866824624093534 -6.224229488176188 6.224229488176186c -4.2097809620238567e-16,3.4375470257668335 2.786682462409353,6.224229488176188 6.224229488176185 6.224229488176188c 3.4375470257668335,6.314671443035785e-16 6.224229488176188,-2.7866824624093525 6.224229488176189 -6.224229488176186Z" /></g></g></g><g fill="rgb(173,210,116)" fill-opacity="1.0" stroke-width="0.0"><g fill="rgb(173,210,116)" fill-opacity="1.0"><g fill="rgb(173,210,116)" fill-opacity="1.0"><path d="M 231.603534716437,593.8245620167156 c 0.0,-3.4789737377944543 -2.820265447897938,-6.299239185692393 -6.299239185692391 -6.299239185692393c -3.4789737377944543,-2.130257026153841e-16 -6.299239185692393,2.8202654478979374 -6.299239185692393 6.299239185692391c -4.260514052307682e-16,3.4789737377944543 2.8202654478979374,6.299239185692393 6.29923918569239 6.299239185692393c 3.4789737377944543,6.390771078461522e-16 6.299239185692393,-2.820265447897937 6.299239185692394 -6.299239185692391Z" /></g></g></g><g fill="rgb(72,189,190)" fill-opacity="1.0" stroke-width="0.0"><g fill="rgb(72,189,190)" fill-opacity="1.0"><g fill="rgb(72,189,190)" fill-opacity="1.0"><path d="M 462.9304708686743,655.4489766712287 c 0.0,-4.2678871637463285 -3.459806141299491,-7.72769330504582 -7.727693305045818 -7.72769330504582c -4.2678871637463285,-2.613327177102008e-16 -7.72769330504582,3.4598061412994907 -7.72769330504582 7.727693305045817c -5.226654354204016e-16,4.2678871637463285 3.4598061412994903,7.72769330504582 7.7276933050458165 7.72769330504582c 4.2678871637463285,7.839981531306024e-16 7.72769330504582,-3.45980614129949 7.727693305045822 -7.727693305045817Z" /></g></g></g><g fill="rgb(97,91,91)" fill-opacity="1.0" stroke-width="0.0"><g fill="rgb(97,91,91)" fill-opacity="1.0"><g fill="rgb(97,91,91)" fill-opacity="1.0"><path d="M 437.2257907505768,382.4126645060379 c 0.0,-3.448737733849301 -2.7957543237458244,-6.244492057595126 -6.244492057595124 -6.244492057595126c -3.448737733849301,-2.1117428134286215e-16 -6.244492057595126,2.795754323745824 -6.244492057595126 6.244492057595124c -4.223485626857243e-16,3.448737733849301 2.795754323745824,6.244492057595126 6.2444920575951235 6.244492057595126c 3.448737733849301,6.335228440285864e-16 6.244492057595126,-2.7957543237458236 6.244492057595127 -6.244492057595124Z" /></g></g></g><g fill="rgb(72,189,190)" fill-opacity="1.0" stroke-width="0.0"><g fill="rgb(72,189,190)" fill-opacity="1.0"><g fill="rgb(72,189,190)" fill-opacity="1.0"><path d="M 251.5128755443444,729.9032131122206 c 0.0,-4.588012563470255 -3.7193190528307736,-8.30733161630103 -8.307331616301028 -8.30733161630103c -4.588012563470255,-2.809347450150845e-16 -8.30733161630103,3.719319052830773 -8.30733161630103 8.307331616301026c -5.61869490030169e-16,4.588012563470255 3.7193190528307727,8.30733161630103 8.307331616301026 8.30733161630103c 4.588012563470255,8.428042350452535e-16 8.30733161630103,-3.719319052830772 8.30733161630103 -8.307331616301026Z" /></g></g></g><g fill="rgb(209,95,105)" fill-opacity="1.0" stroke-width="0.0"><g fill="rgb(209,95,105)" fill-opacity="1.0"><g fill="rgb(209,95,105)" fill-opacity="1.0"><path d="M 388.66013193761324,486.21281598389294 c 0.0,-2.7885116862729413 -2.260535362604061,-5.049047048877003 -5.049047048877002 -5.049047048877003c -2.7885116862729413,-1.707470955489573e-16 -5.049047048877003,2.2605353626040605 -5.049047048877003 5.049047048877001c -3.414941910979146e-16,2.7885116862729413 2.26053536260406,5.049047048877003 5.049047048877 5.049047048877003c 2.7885116862729413,5.122412866468719e-16 5.049047048877003,-2.26053536260406 5.049047048877004 -5.049047048877001Z" /></g></g></g><g fill="rgb(168,145,120)" fill-opacity="1.0" stroke-width="0.0"><g fill="rgb(168,145,120)" fill-opacity="1.0"><g fill="rgb(168,145,120)" fill-opacity="1.0"><path d="M 267.8228557482618,562.6902480509052 c 0.0,-3.6333804942101127 -2.9454368555778205,-6.578817349787934 -6.578817349787932 -6.578817349787934c -3.6333804942101127,-2.2248038961594213e-16 -6.578817349787934,2.94543685557782 -6.578817349787934 6.578817349787932c -4.449607792318843e-16,3.6333804942101127 2.9454368555778196,6.578817349787934 6.578817349787931 6.578817349787934c 3.6333804942101127,6.674411688478264e-16 6.578817349787934,-2.945436855577819 6.5788173497879345 -6.578817349787932Z" /></g></g></g><g fill="rgb(72,189,190)" fill-opacity="1.0" stroke-width="0.0"><g fill="rgb(72,189,190)" fill-opacity="1.0"><g fill="rgb(72,189,190)" fill-opacity="1.0"><path d="M 171.70632679361472,652.2007946838771 c 0.0,-4.438206716321986 -3.597877419047936,-8.036084135369922 -8.03608413536992 -8.036084135369922c -4.438206716321986,-2.717617824549002e-16 -8.036084135369922,3.5978774190479355 -8.036084135369922 8.036084135369919c -5.435235649098004e-16,4.438206716321986 3.597877419047935,8.036084135369922 8.036084135369919 8.036084135369922c 4.438206716321986,8.152853473647007e-16 8.036084135369922,-3.5978774190479346 8.036084135369926 -8.036084135369919Z" /></g></g></g><g fill="rgb(209,95,105)" fill-opacity="1.0" stroke-width="0.0"><g fill="rgb(209,95,105)" fill-opacity="1.0"><g fill="rgb(209,95,105)" fill-opacity="1.0"><path d="M 191.7840855988607,573.3098158141851 c 0.0,-2.8881825631360813 -2.341334572763379,-5.229517135899461 -5.22951713589946 -5.229517135899461c -2.8881825631360813,-1.7685017656489e-16 -5.229517135899461,2.3413345727633788 -5.229517135899461 5.229517135899459c -3.5370035312978e-16,2.8881825631360813 2.3413345727633783,5.229517135899461 5.229517135899458 5.229517135899461c 2.8881825631360813,5.3055052969467e-16 5.229517135899461,-2.3413345727633783 5.229517135899462 -5.229517135899459Z" /></g></g></g><g fill="rgb(235,86,92)" fill-opacity="1.0" stroke-width="0.0"><g fill="rgb(235,86,92)" fill-opacity="1.0"><g fill="rgb(235,86,92)" fill-opacity="1.0"><path d="M 424.09181493829624,391.57352902920957 c 0.0,-2.89209753632653 -2.3445082856024615,-5.236605821928992 -5.2366058219289915 -5.236605821928992c -2.89209753632653,-1.7708989953421156e-16 -5.236605821928992,2.3445082856024615 -5.236605821928992 5.236605821928991c -3.541797990684231e-16,2.89209753632653 2.344508285602461,5.236605821928992 5.23660582192899 5.236605821928992c 2.89209753632653,5.312696986026347e-16 5.236605821928992,-2.344508285602461 5.236605821928993 -5.236605821928991Z" /></g></g></g><g fill="rgb(240,162,188)" fill-opacity="1.0" stroke-width="0.0"><g fill="rgb(240,162,188)" fill-opacity="1.0"><g fill="rgb(240,162,188)" fill-opacity="1.0"><path d="M 208.79133107443968,414.34114065456765 c 0.0,-1.6581498939941886 -1.3441960779020208,-3.0023459718962098 -3.002345971896209 -3.0023459718962098c -1.6581498939941886,-1.015323980093253e-16 -3.0023459718962098,1.3441960779020206 -3.0023459718962098 3.002345971896209c -2.030647960186506e-16,1.6581498939941886 1.3441960779020206,3.0023459718962098 3.0023459718962084 3.0023459718962098c 1.6581498939941886,3.045971940279759e-16 3.0023459718962098,-1.3441960779020203 3.00234597189621 -3.002345971896209Z" /></g></g></g><g fill="rgb(241,237,226)" fill-opacity="1.0" stroke-width="0.0"><g fill="rgb(241,237,226)" fill-opacity="1.0"><g fill="rgb(241,237,226)" fill-opacity="1.0"><path d="M 408.3383180429387,413.03572814912565 c 0.0,-3.2111530628776213 -2.6031538935636704,-5.814306956441293 -5.814306956441292 -5.814306956441293c -3.2111530628776213,-1.9662641600126492e-16 -5.814306956441293,2.6031538935636704 -5.814306956441293 5.814306956441291c -3.9325283200252983e-16,3.2111530628776213 2.60315389356367,5.814306956441293 5.81430695644129 5.814306956441293c 3.2111530628776213,5.898792480037947e-16 5.814306956441293,-2.6031538935636696 5.814306956441295 -5.814306956441291Z" /></g></g></g><g fill="rgb(173,210,116)" fill-opacity="1.0" stroke-width="0.0"><g fill="rgb(173,210,116)" fill-opacity="1.0"><g fill="rgb(173,210,116)" fill-opacity="1.0"><path d="M 355.6549185310413,346.42994614086956 c 0.0,-3.2740481154459995 -2.6541404076828528,-5.928188523128853 -5.928188523128852 -5.928188523128853c -3.2740481154459995,-2.0047762724176834e-16 -5.928188523128853,2.6541404076828523 -5.928188523128853 5.928188523128851c -4.009552544835367e-16,3.2740481154459995 2.654140407682852,5.928188523128853 5.92818852312885 5.928188523128853c 3.2740481154459995,6.01432881725305e-16 5.928188523128853,-2.654140407682852 5.928188523128855 -5.928188523128851Z" /></g></g></g><g fill="rgb(191,49,49)" fill-opacity="1.0" stroke-width="0.0"><g fill="rgb(191,49,49)" fill-opacity="1.0"><g fill="rgb(191,49,49)" fill-opacity="1.0"><path d="M 322.0884984472899,333.8306447277274 c 0.0,-4.1052210658526835 -3.327939214438276,-7.43316028029096 -7.433160280290958 -7.43316028029096c -4.1052210658526835,-2.513722919044387e-16 -7.43316028029096,3.3279392144382753 -7.43316028029096 7.4331602802909575c -5.027445838088774e-16,4.1052210658526835 3.327939214438275,7.43316028029096 7.433160280290957 7.43316028029096c 4.1052210658526835,7.541168757133161e-16 7.43316028029096,-3.3279392144382745 7.433160280290962 -7.4331602802909575Z" /></g></g></g><g fill="rgb(240,162,188)" fill-opacity="1.0" stroke-width="0.0"><g fill="rgb(240,162,188)" fill-opacity="1.0"><g fill="rgb(240,162,188)" fill-opacity="1.0"><path d="M 488.51548432101924,555.2835442900931 c 0.0,-2.4478252209648956 -1.9843544141143805,-4.432179635079277 -4.432179635079276 -4.432179635079277c -2.4478252209648956,-1.4988606608634112e-16 -4.432179635079277,1.9843544141143803 -4.432179635079277 4.432179635079275c -2.9977213217268223e-16,2.4478252209648956 1.98435441411438,4.432179635079277 4.432179635079275 4.432179635079277c 2.4478252209648956,4.496581982590233e-16 4.432179635079277,-1.9843544141143798 4.432179635079277 -4.432179635079275Z" /></g></g></g><g fill="rgb(185,161,185)" fill-opacity="1.0" stroke-width="0.0"><g fill="rgb(185,161,185)" fill-opacity="1.0"><g fill="rgb(185,161,185)" fill-opacity="1.0"><path d="M 436.75491858932253,602.7993481446399 c 0.0,-2.8690481542788655 -2.3258230695922832,-5.194871223871149 -5.194871223871148 -5.194871223871149c -2.8690481542788655,-1.756785319368617e-16 -5.194871223871149,2.325823069592283 -5.194871223871149 5.194871223871147c -3.513570638737234e-16,2.8690481542788655 2.325823069592283,5.194871223871149 5.1948712238711465 5.194871223871149c 2.8690481542788655,5.270355958105851e-16 5.194871223871149,-2.3258230695922824 5.19487122387115 -5.194871223871147Z" /></g></g></g><g fill="rgb(235,86,92)" fill-opacity="1.0" stroke-width="0.0"><g fill="rgb(235,86,92)" fill-opacity="1.0"><g fill="rgb(235,86,92)" fill-opacity="1.0"><path d="M 331.39419703952325,618.7288448356167 c 0.0,-1.6357797120130428 -1.3260614623344393,-2.9618411743474824 -2.961841174347482 -2.9618411743474824c -1.6357797120130428,-1.001626194213476e-16 -2.9618411743474824,1.3260614623344391 -2.9618411743474824 2.9618411743474815c -2.003252388426952e-16,1.6357797120130428 1.326061462334439,2.9618411743474824 2.961841174347481 2.9618411743474824c 1.6357797120130428,3.004878582640428e-16 2.9618411743474824,-1.3260614623344387 2.961841174347483 -2.9618411743474815Z" /></g></g></g><g fill="rgb(245,180,86)" fill-opacity="1.0" stroke-width="0.0"><g fill="rgb(245,180,86)" fill-opacity="1.0"><g fill="rgb(245,180,86)" fill-opacity="1.0"><path d="M 315.20312059091447,313.96285957159046 c 0.0,-1.847118598617608 -1.4973854804530522,-3.3445040790706604 -3.3445040790706595 -3.3445040790706604c -1.847118598617608,-1.131033939721299e-16 -3.3445040790706604,1.497385480453052 -3.3445040790706604 3.344504079070659c -2.262067879442598e-16,1.847118598617608 1.4973854804530518,3.3445040790706604 3.344504079070659 3.3445040790706604c 1.847118598617608,3.393101819163897e-16 3.3445040790706604,-1.4973854804530515 3.344504079070661 -3.344504079070659Z" /></g></g></g><g fill="rgb(209,95,105)" fill-opacity="1.0" stroke-width="0.0"><g fill="rgb(209,95,105)" fill-opacity="1.0"><g fill="rgb(209,95,105)" fill-opacity="1.0"><path d="M 363.33427001662517,722.5261406911018 c 0.0,-2.716541026277759 -2.202191615009259,-4.9187326412870185 -4.918732641287018 -4.9187326412870185c -2.716541026277759,-1.6634016362917617e-16 -4.9187326412870185,2.2021916150092586 -4.9187326412870185 4.918732641287017c -3.3268032725835234e-16,2.716541026277759 2.2021916150092586,4.9187326412870185 4.918732641287017 4.9187326412870185c 2.716541026277759,4.990204908875285e-16 4.9187326412870185,-2.202191615009258 4.91873264128702 -4.918732641287017Z" /></g></g></g><g fill="rgb(245,180,86)" fill-opacity="1.0" stroke-width="0.0"><g fill="rgb(245,180,86)" fill-opacity="1.0"><g fill="rgb(245,180,86)" fill-opacity="1.0"><path d="M 290.289500259072,619.0604552829441 c 0.0,-2.3975032479537455 -1.9435603948288618,-4.341063642782608 -4.341063642782607 -4.341063642782608c -2.3975032479537455,-1.4680473392759687e-16 -4.341063642782608,1.9435603948288616 -4.341063642782608 4.341063642782606c -2.9360946785519374e-16,2.3975032479537455 1.9435603948288613,4.341063642782608 4.341063642782606 4.341063642782608c 2.3975032479537455,4.404142017827906e-16 4.341063642782608,-1.9435603948288611 4.3410636427826095 -4.341063642782606Z" /></g></g></g><g fill="rgb(241,237,226)" fill-opacity="1.0" stroke-width="0.0"><g fill="rgb(241,237,226)" fill-opacity="1.0"><g fill="rgb(241,237,226)" fill-opacity="1.0"><path d="M 311.29788260186126,393.41459154136265 c 0.0,-1.4126577762489005 -1.1451853955600335,-2.5578431718089343 -2.557843171808934 -2.5578431718089343c -1.4126577762489005,-8.650034119869169e-17 -2.5578431718089343,1.1451853955600333 -2.5578431718089343 2.5578431718089334c -1.7300068239738337e-16,1.4126577762489005 1.1451853955600333,2.5578431718089343 2.557843171808933 2.5578431718089343c 1.4126577762489005,2.595010235960751e-16 2.5578431718089343,-1.145185395560033 2.5578431718089356 -2.5578431718089334Z" /></g></g></g><g fill="rgb(185,161,185)" fill-opacity="1.0" stroke-width="0.0"><g fill="rgb(185,161,185)" fill-opacity="1.0"><g fill="rgb(185,161,185)" fill-opacity="1.0"><path d="M 189.2174013802613,632.3267131123471 c 0.0,-0.9931173734397127 -0.8050807005501621,-1.798198073989875 -1.7981980739898746 -1.798198073989875c -0.9931173734397127,-6.081090062802854e-17 -1.798198073989875,0.805080700550162 -1.798198073989875 1.7981980739898744c -1.2162180125605708e-16,0.9931173734397127 0.8050807005501619,1.798198073989875 1.7981980739898742 1.798198073989875c 0.9931173734397127,1.8243270188408563e-16 1.798198073989875,-0.8050807005501618 1.7981980739898755 -1.7981980739898744Z" /></g></g></g><g fill="rgb(240,162,188)" fill-opacity="1.0" stroke-width="0.0"><g fill="rgb(240,162,188)" fill-opacity="1.0"><g fill="rgb(240,162,188)" fill-opacity="1.0"><path d="M 242.75486742534184,397.5774783072061 c 0.0,-1.968661522057226 -1.5959154876472346,-3.564577009704461 -3.5645770097044602 -3.564577009704461c -1.968661522057226,-1.2054575157959692e-16 -3.564577009704461,1.5959154876472343 -3.564577009704461 3.56457700970446c -2.4109150315919383e-16,1.968661522057226 1.5959154876472341,3.564577009704461 3.5645770097044593 3.564577009704461c 1.968661522057226,3.6163725473879075e-16 3.564577009704461,-1.5959154876472341 3.564577009704462 -3.56457700970446Z" /></g></g></g><g fill="rgb(245,180,86)" fill-opacity="1.0" stroke-width="0.0"><g fill="rgb(245,180,86)" fill-opacity="1.0"><g fill="rgb(245,180,86)" fill-opacity="1.0"><path d="M 377.871033508864,424.55502388863835 c 0.0,-1.7367474788164097 -1.4079120095154816,-3.1446594883318917 -3.144659488331891 -3.1446594883318917c -1.7367474788164097,-1.0634511204298758e-16 -3.1446594883318917,1.4079120095154813 -3.1446594883318917 3.144659488331891c -2.1269022408597516e-16,1.7367474788164097 1.4079120095154813,3.1446594883318917 3.1446594883318904 3.1446594883318917c 1.7367474788164097,3.1903533612896276e-16 3.1446594883318917,-1.4079120095154811 3.144659488331892 -3.144659488331891Z" /></g></g></g><g fill="rgb(168,145,120)" fill-opacity="1.0" stroke-width="0.0"><g fill="rgb(168,145,120)" fill-opacity="1.0"><g fill="rgb(168,145,120)" fill-opacity="1.0"><path d="M 213.7964574257805,347.72495565952795 c 0.0,-1.5640890354926678 -1.2679446861914205,-2.8320337216840885 -2.832033721684088 -2.8320337216840885c -1.5640890354926678,-9.577283154487832e-17 -2.8320337216840885,1.2679446861914203 -2.8320337216840885 2.8320337216840876c -1.9154566308975665e-16,1.5640890354926678 1.26794468619142,2.8320337216840885 2.832033721684087 2.8320337216840885c 1.5640890354926678,2.8731849463463496e-16 2.8320337216840885,-1.2679446861914199 2.83203372168409 -2.8320337216840876Z" /></g></g></g><g fill="rgb(245,180,86)" fill-opacity="1.0" stroke-width="0.0"><g fill="rgb(245,180,86)" fill-opacity="1.0"><g fill="rgb(245,180,86)" fill-opacity="1.0"><path d="M 364.21503205674446,702.7807400826146 c 0.0,-0.6857270604661295 -0.5558916166315442,-1.2416186770976738 -1.2416186770976736 -1.2416186770976738c -0.6857270604661295,-4.198867248442845e-17 -1.2416186770976738,0.5558916166315441 -1.2416186770976738 1.2416186770976734c -8.39773449688569e-17,0.6857270604661295 0.5558916166315441,1.2416186770976738 1.2416186770976734 1.2416186770976738c 0.6857270604661295,1.2596601745328534e-16 1.2416186770976738,-0.555891616631544 1.2416186770976743 -1.2416186770976734Z" /></g></g></g><g fill="rgb(240,162,188)" fill-opacity="1.0" stroke-width="0.0"><g fill="rgb(240,162,188)" fill-opacity="1.0"><g fill="rgb(240,162,188)" fill-opacity="1.0"><path d="M 531.3317457727721,417.9635284307295 c 0.0,-0.846841441594116 -0.6865006285129572,-1.5333420701070735 -1.533342070107073 -1.5333420701070735c -0.846841441594116,-5.1854083041678224e-17 -1.5333420701070735,0.6865006285129572 -1.5333420701070735 1.533342070107073c -1.0370816608335645e-16,0.846841441594116 0.6865006285129571,1.5333420701070735 1.5333420701070728 1.5333420701070735c 0.846841441594116,1.5556224912503465e-16 1.5333420701070735,-0.686500628512957 1.5333420701070737 -1.533342070107073Z" /></g></g></g><g fill="rgb(97,91,91)" fill-opacity="1.0" stroke-width="0.0"><g fill="rgb(97,91,91)" fill-opacity="1.0"><g fill="rgb(97,91,91)" fill-opacity="1.0"><path d="M 153.40675795415186,358.84946472693053 c 0.0,-2.295518417118584 -1.860885354345094,-4.156403771463679 -4.156403771463678 -4.156403771463679c -2.295518417118584,-1.4055996409540365e-16 -4.156403771463679,1.8608853543450938 -4.156403771463679 4.156403771463677c -2.811199281908073e-16,2.295518417118584 1.8608853543450936,4.156403771463679 4.156403771463677 4.156403771463679c 2.295518417118584,4.2167989228621095e-16 4.156403771463679,-1.8608853543450934 4.156403771463679 -4.156403771463677Z" /></g></g></g><g fill="rgb(209,95,105)" fill-opacity="1.0" stroke-width="0.0"><g fill="rgb(209,95,105)" fill-opacity="1.0"><g fill="rgb(209,95,105)" fill-opacity="1.0"><path d="M 175.90382692190434,489.944203222043 c 0.0,-1.937947313656539 -1.5710167021890524,-3.5089640158455917 -3.508964015845591 -3.5089640158455917c -1.937947313656539,-1.186650487292846e-16 -3.5089640158455917,1.5710167021890522 -3.5089640158455917 3.5089640158455904c -2.373300974585692e-16,1.937947313656539 1.571016702189052,3.5089640158455917 3.50896401584559 3.5089640158455917c 1.937947313656539,3.5599514618785384e-16 3.5089640158455917,-1.5710167021890518 3.5089640158455926 -3.5089640158455904Z" /></g></g></g><g fill="rgb(235,86,92)" fill-opacity="1.0" stroke-width="0.0"><g fill="rgb(235,86,92)" fill-opacity="1.0"><g fill="rgb(235,86,92)" fill-opacity="1.0"><path d="M 391.4446503726183,406.14132422315515 c 0.0,-1.3574680129510737 -1.1004452525645294,-2.4579132655156033 -2.457913265515603 -2.4579132655156033c -1.3574680129510737,-8.31209428502725e-17 -2.4579132655156033,1.1004452525645294 -2.4579132655156033 2.4579132655156024c -1.66241885700545e-16,1.3574680129510737 1.1004452525645292,2.4579132655156033 2.4579132655156024 2.4579132655156033c 1.3574680129510737,2.493628285508175e-16 2.4579132655156033,-1.100445252564529 2.4579132655156033 -2.4579132655156024Z" /></g></g></g><g fill="rgb(168,145,120)" fill-opacity="1.0" stroke-width="0.0"><g fill="rgb(168,145,120)" fill-opacity="1.0"><g fill="rgb(168,145,120)" fill-opacity="1.0"><path d="M 231.5759167992699,384.37781560213733 c 0.0,-1.7804103310273525 -1.4433077447892013,-3.2237180758165542 -3.2237180758165533 -3.2237180758165542c -1.7804103310273525,-1.0901869065307633e-16 -3.2237180758165542,1.443307744789201 -3.2237180758165542 3.2237180758165533c -2.1803738130615266e-16,1.7804103310273525 1.443307744789201,3.2237180758165542 3.223718075816553 3.2237180758165542c 1.7804103310273525,3.27056071959229e-16 3.2237180758165542,-1.4433077447892009 3.2237180758165547 -3.2237180758165533Z" /></g></g></g><g fill="rgb(240,162,188)" fill-opacity="1.0" stroke-width="0.0"><g fill="rgb(240,162,188)" fill-opacity="1.0"><g fill="rgb(240,162,188)" fill-opacity="1.0"><path d="M 583.0238242576987,596.6059549391337 c 0.0,-1.2363610804408989 -1.0022686858521042,-2.2386297662930033 -2.238629766293003 -2.2386297662930033c -1.2363610804408989,-7.57052819876155e-17 -2.2386297662930033,1.002268685852104 -2.2386297662930033 2.2386297662930024c -1.51410563975231e-16,1.2363610804408989 1.002268685852104,2.2386297662930033 2.2386297662930024 2.2386297662930033c 1.2363610804408989,2.2711584596284653e-16 2.2386297662930033,-1.0022686858521037 2.2386297662930033 -2.2386297662930024Z" /></g></g></g><g fill="rgb(97,91,91)" fill-opacity="1.0" stroke-width="0.0"><g fill="rgb(97,91,91)" fill-opacity="1.0"><g fill="rgb(97,91,91)" fill-opacity="1.0"><path d="M 510.25460784124385,424.75811265051715 c 0.0,-1.6164486944359289 -1.3103905763046972,-2.9268392707406266 -2.926839270740626 -2.9268392707406266c -1.6164486944359289,-9.897893598134392e-17 -2.9268392707406266,1.3103905763046972 -2.9268392707406266 2.9268392707406257c -1.9795787196268784e-16,1.6164486944359289 1.310390576304697,2.9268392707406266 2.926839270740625 2.9268392707406266c 1.6164486944359289,2.9693680794403174e-16 2.9268392707406266,-1.3103905763046968 2.926839270740628 -2.9268392707406257Z" /></g></g></g><g fill="rgb(241,237,226)" fill-opacity="1.0" stroke-width="0.0"><g fill="rgb(241,237,226)" fill-opacity="1.0"><g fill="rgb(241,237,226)" fill-opacity="1.0"><path d="M 246.6038315508441,267.4028460485847 c 0.0,-0.9550843742478924 -0.7742488628920192,-1.7293332371399117 -1.7293332371399113 -1.7293332371399117c -0.9550843742478924,-5.84820510919167e-17 -1.7293332371399117,0.7742488628920191 -1.7293332371399117 1.729333237139911c -1.169641021838334e-16,0.9550843742478924 0.774248862892019,1.7293332371399117 1.729333237139911 1.7293332371399117c 0.9550843742478924,1.754461532757501e-16 1.7293332371399117,-0.7742488628920189 1.729333237139912 -1.729333237139911Z" /></g></g></g><g fill="rgb(97,91,91)" fill-opacity="1.0" stroke-width="0.0"><g fill="rgb(97,91,91)" fill-opacity="1.0"><g fill="rgb(97,91,91)" fill-opacity="1.0"><path d="M 582.4288589969228,175.70158842239636 c 0.0,-1.0479404144597169 -0.8495235564009308,-1.8974639708606478 -1.8974639708606473 -1.8974639708606478c -1.0479404144597169,-6.416784371326214e-17 -1.8974639708606478,0.8495235564009307 -1.8974639708606478 1.897463970860647c -1.2833568742652428e-16,1.0479404144597169 0.8495235564009306,1.8974639708606478 1.8974639708606469 1.8974639708606478c 1.0479404144597169,1.9250353113978642e-16 1.8974639708606478,-0.8495235564009305 1.8974639708606482 -1.897463970860647Z" /></g></g></g><g fill="rgb(168,145,120)" fill-opacity="1.0" stroke-width="0.0"><g fill="rgb(168,145,120)" fill-opacity="1.0"><g fill="rgb(168,145,120)" fill-opacity="1.0"><path d="M 134.2241731227577,488.61034687511346 c 0.0,-1.2067918222764424 -0.9782980659491038,-2.1850898882255465 -2.185089888225546 -2.1850898882255465c -1.2067918222764424,-7.389468711940233e-17 -2.1850898882255465,0.9782980659491037 -2.1850898882255465 2.1850898882255456c -1.4778937423880466e-16,1.2067918222764424 0.9782980659491036,2.1850898882255465 2.1850898882255456 2.1850898882255465c 1.2067918222764424,2.21684061358207e-16 2.1850898882255465,-0.9782980659491035 2.1850898882255465 -2.1850898882255456Z" /></g></g></g><g fill="rgb(235,86,92)" fill-opacity="1.0" stroke-width="0.0"><g fill="rgb(235,86,92)" fill-opacity="1.0"><g fill="rgb(235,86,92)" fill-opacity="1.0"><path d="M 128.20397661261336,328.1288058708489 c 0.0,-0.6579788745333575 -0.5333972674567048,-1.1913761419900624 -1.1913761419900621 -1.1913761419900624c -0.6579788745333575,-4.0289586130192703e-17 -1.1913761419900624,0.5333972674567047 -1.1913761419900624 1.191376141990062c -8.057917226038541e-17,0.6579788745333575 0.5333972674567047,1.1913761419900624 1.191376141990062 1.1913761419900624c 0.6579788745333575,1.2086875839057812e-16 1.1913761419900624,-0.5333972674567046 1.1913761419900628 -1.191376141990062Z" /></g></g></g><g fill="rgb(245,180,86)" fill-opacity="1.0" stroke-width="0.0"><g fill="rgb(245,180,86)" fill-opacity="1.0"><g fill="rgb(245,180,86)" fill-opacity="1.0"><path d="M 503.92187977236694,595.3423423552489 c 0.0,-0.6333763415271041 -0.5134529738236367,-1.146829315350741 -1.1468293153507407 -1.146829315350741c -0.6333763415271041,-3.878311546534144e-17 -1.146829315350741,0.5134529738236366 -1.146829315350741 1.1468293153507405c -7.756623093068288e-17,0.6333763415271041 0.5134529738236366,1.146829315350741 1.1468293153507405 1.146829315350741c 0.6333763415271041,1.1634934639602432e-16 1.146829315350741,-0.5134529738236365 1.1468293153507414 -1.1468293153507405Z" /></g></g></g><g fill="rgb(97,91,91)" fill-opacity="1.0" stroke-width="0.0"><g fill="rgb(97,91,91)" fill-opacity="1.0"><g fill="rgb(97,91,91)" fill-opacity="1.0"><path d="M 260.1342458731735,432.0275734287524 c 0.0,-0.8732463153701816 -0.7079060080240871,-1.5811523233942688 -1.5811523233942684 -1.5811523233942688c -0.8732463153701816,-5.347091524926565e-17 -1.5811523233942688,0.707906008024087 -1.5811523233942688 1.5811523233942684c -1.069418304985313e-16,0.8732463153701816 0.7079060080240869,1.5811523233942688 1.5811523233942681 1.5811523233942688c 0.8732463153701816,1.6041274574779695e-16 1.5811523233942688,-0.7079060080240868 1.581152323394269 -1.5811523233942684Z" /></g></g></g><g fill="rgb(240,162,188)" fill-opacity="1.0" stroke-width="0.0"><g fill="rgb(240,162,188)" fill-opacity="1.0"><g fill="rgb(240,162,188)" fill-opacity="1.0"><path d="M 619.9813153318228,661.3729196978367 c 0.0,-0.738608854638064 -0.5987607809789898,-1.337369635617054 -1.3373696356170537 -1.337369635617054c -0.738608854638064,-4.522674848271989e-17 -1.337369635617054,0.5987607809789897 -1.337369635617054 1.3373696356170535c -9.045349696543978e-17,0.738608854638064 0.5987607809789895,1.337369635617054 1.3373696356170532 1.337369635617054c 0.738608854638064,1.3568024544815967e-16 1.337369635617054,-0.5987607809789895 1.3373696356170546 -1.3373696356170535Z" /></g></g></g><g fill="rgb(72,189,190)" fill-opacity="1.0" stroke-width="0.0"><g fill="rgb(72,189,190)" fill-opacity="1.0"><g fill="rgb(72,189,190)" fill-opacity="1.0"><path d="M 352.9931497518643,416.83730903569574 c 0.0,-0.9773183093652378 -0.7922730285535878,-1.7695913379188257 -1.7695913379188253 -1.7695913379188257c -0.9773183093652378,-5.984348696561205e-17 -1.7695913379188257,0.7922730285535877 -1.7695913379188257 1.769591337918825c -1.196869739312241e-16,0.9773183093652378 0.7922730285535876,1.7695913379188257 1.7695913379188248 1.7695913379188257c 0.9773183093652378,1.7953046089683616e-16 1.7695913379188257,-0.7922730285535875 1.7695913379188262 -1.769591337918825Z" /></g></g></g><g fill="rgb(209,95,105)" fill-opacity="1.0" stroke-width="0.0"><g fill="rgb(209,95,105)" fill-opacity="1.0"><g fill="rgb(209,95,105)" fill-opacity="1.0"><path d="M 166.32159632559507,524.5494969721543 c 0.0,-0.7504985692528269 -0.6083992990710064,-1.3588978683238335 -1.3588978683238333 -1.3588978683238335c -0.7504985692528269,-4.595478353000713e-17 -1.3588978683238335,0.6083992990710064 -1.3588978683238335 1.358897868323833c -9.190956706001426e-17,0.7504985692528269 0.6083992990710063,1.3588978683238335 1.3588978683238329 1.3588978683238335c 0.7504985692528269,1.378643505900214e-16 1.3588978683238335,-0.6083992990710062 1.3588978683238342 -1.358897868323833Z" /></g></g></g><g fill="rgb(173,210,116)" fill-opacity="1.0" stroke-width="0.0"><g fill="rgb(173,210,116)" fill-opacity="1.0"><g fill="rgb(173,210,116)" fill-opacity="1.0"><path d="M 2.255817380819873,673.4099664900214 c 0.0,-0.6229267689150362 -0.504981921494912,-1.1279086904099482 -1.127908690409948 -1.1279086904099482c -0.6229267689150362,-3.8143263682750095e-17 -1.1279086904099482,0.504981921494912 -1.1279086904099482 1.1279086904099478c -7.628652736550019e-17,0.6229267689150362 0.5049819214949118,1.1279086904099482 1.1279086904099478 1.1279086904099482c 0.6229267689150362,1.1442979104825028e-16 1.1279086904099482,-0.5049819214949118 1.1279086904099482 -1.1279086904099478Z" /></g></g></g><g fill="rgb(241,237,226)" fill-opacity="1.0" stroke-width="0.0"><g fill="rgb(241,237,226)" fill-opacity="1.0"><g fill="rgb(241,237,226)" fill-opacity="1.0"><path d="M 428.0109557909426,825.1152618735666 c 0.0,-0.9530785276267045 -0.7726228029255231,-1.7257013305522277 -1.7257013305522273 -1.7257013305522277c -0.9530785276267045,-5.83592284097058e-17 -1.7257013305522277,0.772622802925523 -1.7257013305522277 1.725701330552227c -1.167184568194116e-16,0.9530785276267045 0.7726228029255229,1.7257013305522277 1.725701330552227 1.7257013305522277c 0.9530785276267045,1.7507768522911738e-16 1.7257013305522277,-0.7726228029255228 1.725701330552228 -1.725701330552227Z" /></g></g></g><g fill="rgb(97,91,91)" fill-opacity="1.0" stroke-width="0.0"><g fill="rgb(97,91,91)" fill-opacity="1.0"><g fill="rgb(97,91,91)" fill-opacity="1.0"><path d="M 175.45181768670102,595.1429749874097 c 0.0,-0.6128099960394954 -0.49678065665776866,-1.109590652697264 -1.1095906526972639 -1.109590652697264c -0.6128099960394954,-3.752379000676351e-17 -1.109590652697264,0.4967806566577686 -1.109590652697264 1.1095906526972636c -7.504758001352702e-17,0.6128099960394954 0.49678065665776855,1.109590652697264 1.1095906526972636 1.109590652697264c 0.6128099960394954,1.125713700202905e-16 1.109590652697264,-0.49678065665776844 1.1095906526972645 -1.1095906526972636Z" /></g></g></g><g fill="rgb(185,161,185)" fill-opacity="1.0" stroke-width="0.0"><g fill="rgb(185,161,185)" fill-opacity="1.0"><g fill="rgb(185,161,185)" fill-opacity="1.0"><path d="M 526.5131103593208,433.57298570417595 c 0.0,-0.644902905833184 -0.5227971004240346,-1.1677000062572187 -1.1677000062572185 -1.1677000062572187c -0.644902905833184,-3.9488913969471784e-17 -1.1677000062572187,0.5227971004240345 -1.1677000062572187 1.1677000062572183c -7.897782793894357e-17,0.644902905833184 0.5227971004240345,1.1677000062572187 1.1677000062572183 1.1677000062572187c 0.644902905833184,1.1846674190841536e-16 1.1677000062572187,-0.5227971004240344 1.1677000062572191 -1.1677000062572183Z" /></g></g></g><g fill="rgb(185,161,185)" fill-opacity="1.0" stroke-width="0.0"><g fill="rgb(185,161,185)" fill-opacity="1.0"><g fill="rgb(185,161,185)" fill-opacity="1.0"><path d="M 213.9517268093491,238.99165538754056 c 0.0,-0.6175853050071326 -0.5006518094457753,-1.118237114452908 -1.1182371144529077 -1.118237114452908c -0.6175853050071326,-3.781619334887134e-17 -1.118237114452908,0.5006518094457751 -1.118237114452908 1.1182371144529075c -7.563238669774268e-17,0.6175853050071326 0.5006518094457751,1.118237114452908 1.1182371144529075 1.118237114452908c 0.6175853050071326,1.1344858004661402e-16 1.118237114452908,-0.500651809445775 1.118237114452908 -1.1182371144529075Z" /></g></g></g><g fill="rgb(168,145,120)" fill-opacity="1.0" stroke-width="0.0"><g fill="rgb(168,145,120)" fill-opacity="1.0"><g fill="rgb(168,145,120)" fill-opacity="1.0"><path d="M 641.708735663819,473.5041419121876 c 0.0,-0.7798053569312501 -0.6321571446047117,-1.411962501535962 -1.4119625015359618 -1.411962501535962c -0.7798053569312501,-4.774930671619073e-17 -1.411962501535962,0.6321571446047117 -1.411962501535962 1.4119625015359616c -9.549861343238147e-17,0.7798053569312501 0.6321571446047116,1.411962501535962 1.4119625015359614 1.411962501535962c 0.7798053569312501,1.432479201485722e-16 1.411962501535962,-0.6321571446047115 1.4119625015359627 -1.4119625015359616Z" /></g></g></g><g fill="rgb(245,180,86)" fill-opacity="1.0" stroke-width="0.0"><g fill="rgb(245,180,86)" fill-opacity="1.0"><g fill="rgb(245,180,86)" fill-opacity="1.0"><path d="M 406.69928503229033,670.9909353718961 c 0.0,-0.5205947012885622 -0.4220253899742504,-0.9426200912628127 -0.9426200912628124 -0.9426200912628127c -0.5205947012885622,-3.1877231729305506e-17 -0.9426200912628127,0.4220253899742503 -0.9426200912628127 0.9426200912628123c -6.375446345861101e-17,0.5205947012885622 0.42202538997425026,0.9426200912628127 0.9426200912628122 0.9426200912628127c 0.5205947012885622,9.563169518791652e-17 0.9426200912628127,-0.4220253899742502 0.9426200912628129 -0.9426200912628123Z" /></g></g></g><g fill="rgb(191,49,49)" fill-opacity="1.0" stroke-width="0.0"><g fill="rgb(191,49,49)" fill-opacity="1.0"><g fill="rgb(191,49,49)" fill-opacity="1.0"><path d="M 171.35114630915416,507.01412189242393 c 0.0,-1.0414797179705981 -0.8442861270752445,-1.885765845045843 -1.8857658450458425 -1.885765845045843c -1.0414797179705981,-6.377224014947906e-17 -1.885765845045843,0.8442861270752444 -1.885765845045843 1.8857658450458423c -1.2754448029895812e-16,1.0414797179705981 0.8442861270752444,1.885765845045843 1.885765845045842 1.885765845045843c 1.0414797179705981,1.9131672044843717e-16 1.885765845045843,-0.8442861270752443 1.8857658450458434 -1.8857658450458423Z" /></g></g></g><g fill="rgb(173,210,116)" fill-opacity="1.0" stroke-width="0.0"><g fill="rgb(173,210,116)" fill-opacity="1.0"><g fill="rgb(173,210,116)" fill-opacity="1.0"><path d="M 374.77607198035827,509.31257064834654 c 0.0,-0.34573305142555816 -0.28027201485860465,-0.6260050662841629 -0.6260050662841627 -0.6260050662841629c -0.34573305142555816,-2.1170043739387854e-17 -0.6260050662841629,0.2802720148586046 -0.6260050662841629 0.6260050662841626c -4.234008747877571e-17,0.34573305142555816 0.28027201485860453,0.6260050662841629 0.6260050662841625 0.6260050662841629c 0.34573305142555816,6.351013121816355e-17 0.6260050662841629,-0.28027201485860453 0.626005066284163 -0.6260050662841626Z" /></g></g></g><g fill="rgb(173,210,116)" fill-opacity="1.0" stroke-width="0.0"><g fill="rgb(173,210,116)" fill-opacity="1.0"><g fill="rgb(173,210,116)" fill-opacity="1.0"><path d="M 283.1358457969347,1051.083734016861 c 0.0,-0.7919785231588765 -0.6420254456299037,-1.4340039687887804 -1.4340039687887802 -1.4340039687887804c -0.7919785231588765,-4.84946981689983e-17 -1.4340039687887804,0.6420254456299036 -1.4340039687887804 1.43400396878878c -9.69893963379966e-17,0.7919785231588765 0.6420254456299036,1.4340039687887804 1.4340039687887798 1.4340039687887804c 0.7919785231588765,1.4548409450699492e-16 1.4340039687887804,-0.6420254456299035 1.4340039687887811 -1.43400396878878Z" /></g></g></g><g fill="rgb(240,162,188)" fill-opacity="1.0" stroke-width="0.0"><g fill="rgb(240,162,188)" fill-opacity="1.0"><g fill="rgb(240,162,188)" fill-opacity="1.0"><path d="M 308.5991194557136,402.9613660907543 c 0.0,-0.3513455334479233 -0.2848218304989663,-0.6361673639468897 -0.6361673639468896 -0.6361673639468897c -0.3513455334479233,-2.1513709146585927e-17 -0.6361673639468897,0.28482183049896626 -0.6361673639468897 0.6361673639468894c -4.3027418293171854e-17,0.3513455334479233 0.28482183049896626,0.6361673639468897 0.6361673639468893 0.6361673639468897c 0.3513455334479233,6.454112743975779e-17 0.6361673639468897,-0.2848218304989662 0.63616736394689 -0.6361673639468894Z" /></g></g></g><g fill="rgb(173,210,116)" fill-opacity="1.0" stroke-width="0.0"><g fill="rgb(173,210,116)" fill-opacity="1.0"><g fill="rgb(173,210,116)" fill-opacity="1.0"><path d="M 373.26687091157913,593.3420719283115 c 0.0,-0.37720039955968687 -0.3057813407024728,-0.6829817402621597 -0.6829817402621596 -0.6829817402621597c -0.37720039955968687,-2.309686309789366e-17 -0.6829817402621597,0.30578134070247276 -0.6829817402621597 0.6829817402621595c -4.619372619578732e-17,0.37720039955968687 0.30578134070247276,0.6829817402621597 0.6829817402621594 0.6829817402621597c 0.37720039955968687,6.929058929368098e-17 0.6829817402621597,-0.3057813407024727 0.6829817402621599 -0.6829817402621595Z" /></g></g></g><g fill="rgb(209,95,105)" fill-opacity="1.0" stroke-width="0.0"><g fill="rgb(209,95,105)" fill-opacity="1.0"><g fill="rgb(209,95,105)" fill-opacity="1.0"><path d="M 202.0735185106881,741.4681922794846 c 0.0,-0.9709086743566259 -0.7870769927364606,-1.7579856670930867 -1.7579856670930862 -1.7579856670930867c -0.9709086743566259,-5.94510100157621e-17 -1.7579856670930867,0.7870769927364605 -1.7579856670930867 1.757985667093086c -1.189020200315242e-16,0.9709086743566259 0.7870769927364604,1.7579856670930867 1.7579856670930858 1.7579856670930867c 0.9709086743566259,1.7835303004728627e-16 1.7579856670930867,-0.7870769927364603 1.7579856670930871 -1.757985667093086Z" /></g></g></g><g fill="rgb(72,189,190)" fill-opacity="1.0" stroke-width="0.0"><g fill="rgb(72,189,190)" fill-opacity="1.0"><g fill="rgb(72,189,190)" fill-opacity="1.0"><path d="M 707.8613887941289,0.95665825414045 c 0.0,-0.5283477645615354 -0.42831048957893864,-0.9566582541404741 -0.9566582541404739 -0.9566582541404741c -0.5283477645615354,-3.235196993534718e-17 -0.9566582541404741,0.4283104895789386 -0.9566582541404741 0.9566582541404738c -6.470393987069436e-17,0.5283477645615354 0.4283104895789385,0.9566582541404741 0.9566582541404737 0.9566582541404741c 0.5283477645615354,9.705590980604155e-17 0.9566582541404741,-0.42831048957893847 0.9566582541404743 -0.9566582541404738Z" /></g></g></g><g fill="rgb(240,162,188)" fill-opacity="1.0" stroke-width="0.0"><g fill="rgb(240,162,188)" fill-opacity="1.0"><g fill="rgb(240,162,188)" fill-opacity="1.0"><path d="M 800.0000000000001,345.7641559760789 c 0.0,-0.5567199529940795 -0.45131069272743435,-1.008030645721514 -1.0080306457215138 -1.008030645721514c -0.5567199529940795,-3.408926542278322e-17 -1.008030645721514,0.4513106927274343 -1.008030645721514 1.0080306457215136c -6.817853084556644e-17,0.5567199529940795 0.45131069272743424,1.008030645721514 1.0080306457215136 1.008030645721514c 0.5567199529940795,1.0226779626834967e-16 1.008030645721514,-0.4513106927274342 1.008030645721514 -1.0080306457215136Z" /></g></g></g><g fill="rgb(185,161,185)" fill-opacity="1.0" stroke-width="0.0"><g fill="rgb(185,161,185)" fill-opacity="1.0"><g fill="rgb(185,161,185)" fill-opacity="1.0"><path d="M 555.3890434077948,664.9371100465528 c 0.0,-0.5936352542061728 -0.4812364571493337,-1.0748717113555066 -1.0748717113555064 -1.0748717113555066c -0.5936352542061728,-3.634967569623074e-17 -1.0748717113555066,0.48123645714933366 -1.0748717113555066 1.0748717113555062c -7.269935139246148e-17,0.5936352542061728 0.4812364571493336,1.0748717113555066 1.0748717113555062 1.0748717113555066c 0.5936352542061728,1.0904902708869223e-16 1.0748717113555066,-0.4812364571493335 1.0748717113555066 -1.0748717113555062Z" /></g></g></g><g fill="rgb(168,145,120)" fill-opacity="1.0" stroke-width="0.0"><g fill="rgb(168,145,120)" fill-opacity="1.0"><g fill="rgb(168,145,120)" fill-opacity="1.0"><path d="M 405.14674472811623,339.94813149623667 c 0.0,-0.4241564507744739 -0.34384674124635417,-0.7680031920208281 -0.7680031920208279 -0.7680031920208281c -0.4241564507744739,-2.5972091988933066e-17 -0.7680031920208281,0.3438467412463541 -0.7680031920208281 0.7680031920208279c -5.194418397786613e-17,0.4241564507744739 0.34384674124635406,0.7680031920208281 0.7680031920208278 0.7680031920208281c 0.4241564507744739,7.791627596679919e-17 0.7680031920208281,-0.343846741246354 0.7680031920208282 -0.7680031920208279Z" /></g></g></g><g fill="rgb(245,180,86)" fill-opacity="1.0" stroke-width="0.0"><g fill="rgb(245,180,86)" fill-opacity="1.0"><g fill="rgb(245,180,86)" fill-opacity="1.0"><path d="M 263.4260680245207,214.45665514733565 c 0.0,-0.427846687163642 -0.3468382689115053,-0.7746849560751474 -0.7746849560751472 -0.7746849560751474c -0.427846687163642,-2.619805379803766e-17 -0.7746849560751474,0.34683826891150527 -0.7746849560751474 0.7746849560751472c -5.239610759607532e-17,0.427846687163642 0.34683826891150527,0.7746849560751474 0.7746849560751471 0.7746849560751474c 0.427846687163642,7.859416139411297e-17 0.7746849560751474,-0.3468382689115052 0.7746849560751475 -0.7746849560751472Z" /></g></g></g><g fill="rgb(245,180,86)" fill-opacity="1.0" stroke-width="0.0"><g fill="rgb(245,180,86)" fill-opacity="1.0"><g fill="rgb(245,180,86)" fill-opacity="1.0"><path d="M 436.10858060693994,707.1388086337201 c 0.0,-0.2792839932659441 -0.22640440995632458,-0.5056884032222687 -0.5056884032222686 -0.5056884032222687c -0.2792839932659441,-1.710121242031147e-17 -0.5056884032222687,0.22640440995632455 -0.5056884032222687 0.5056884032222685c -3.420242484062294e-17,0.2792839932659441 0.22640440995632452,0.5056884032222687 0.5056884032222685 0.5056884032222687c 0.2792839932659441,5.1303637260934403e-17 0.5056884032222687,-0.2264044099563245 0.5056884032222687 -0.5056884032222685Z" /></g></g></g></g></g></g></svg>