<?xml version="1.0" encoding="UTF-8"?>
<!DOCTYPE svg PUBLIC "-//W3C//DTD SVG 1.1//EN"
    "http://www.w3.org/Graphics/SVG/1.1/DTD/svg11.dtd">
<svg xmlns="http://www.w3.org/2000/svg" xmlns:xlink="http://www.w3.org/1999/xlink" version="1.1" width="799.9999999999999" height="1021.6323286229172" font-size="1" viewBox="0 0 800 1022" stroke="rgb(0,0,0)" stroke-opacity="1"><g><g fill="rgb(0,0,0)" fill-opacity="0.0"><g stroke="rgb(0,0,0)" stroke-opacity="1.0" stroke-width="3.6161988062568318" stroke-linecap="butt" stroke-linejoin="miter" font-size="1.0em" stroke-miterlimit="10.0"><g fill="rgb(209,95,105)" fill-opacity="1.0" stroke-width="0.0"><g fill="rgb(209,95,105)" fill-opacity="1.0"><g fill="rgb(209,95,105)" fill-opacity="1.0"><path d="M 231.751007878428,472.6471592981834 c 0.0,-12.760970357512036 -10.34481042209791,-23.105780779609947 -23.105780779609944 -23.105780779609947c -12.760970357512036,-7.813840751170685e-16 -23.105780779609947,10.344810422097908 -23.105780779609947 23.10578077960994c -1.562768150234137e-15,12.760970357512036 10.344810422097908,23.105780779609947 23.105780779609937 23.105780779609947c 12.760970357512036,2.3441522253512052e-15 23.105780779609947,-10.344810422097906 23.10578077960995 -23.10578077960994Z" /></g></g></g><g fill="rgb(185,161,185)" fill-opacity="1.0" stroke-width="0.0"><g fill="rgb(185,161,185)" fill-opacity="1.0"><g fill="rgb(185,161,185)" fill-opacity="1.0"><path d="M 291.26763349873823,541.5462893434368 c 0.0,-20.237245457533188 -16.405528878954254,-36.64277433648745 -36.64277433648744 -36.64277433648745c -20.237245457533188,-1.2391738936563666e-15 -36.64277433648745,16.405528878954254 -36.64277433648745 36.642774336487435c -2.4783477873127332e-15,20.237245457533188 16.40552887895425,36.64277433648745 36.642774336487435 36.64277433648745c 20.237245457533188,3.7175216809691e-15 36.64277433648745,-16.40552887895425 36.64277433648746 -36.642774336487435Z" /></g></g></g><g fill="rgb(240,162,188)" fill-opacity="1.0" stroke-width="0.0"><g fill="rgb(240,162,188)" fill-opacity="1.0"><g fill="rgb(240,162,188)" fill-opacity="1.0"><path d="M 210.03475439561169,514.4736785627539 c 0.0,-6.78749776496576 -5.502354104102293,-12.289851869068055 -12.289851869068052 -12.289851869068055c -6.78749776496576,-4.156143706042566e-16 -12.289851869068055,5.502354104102293 -12.289851869068055 12.289851869068052c -8.312287412085132e-16,6.78749776496576 5.5023541041022925,12.289851869068055 12.28985186906805 12.289851869068055c 6.78749776496576,1.2468431118127698e-15 12.289851869068055,-5.502354104102292 12.289851869068057 -12.289851869068052Z" /></g></g></g><g fill="rgb(97,91,91)" fill-opacity="1.0" stroke-width="0.0"><g fill="rgb(97,91,91)" fill-opacity="1.0"><g fill="rgb(97,91,91)" fill-opacity="1.0"><path d="M 273.2587183254412,476.16259687307183 c 0.0,-5.938800543218984 -4.814349068531995,-10.753149611750981 -10.75314961175098 -10.753149611750981c -5.938800543218984,-3.636466538013846e-16 -10.753149611750981,4.814349068531995 -10.753149611750981 10.753149611750977c -7.272933076027692e-16,5.938800543218984 4.814349068531994,10.753149611750981 10.753149611750976 10.753149611750981c 5.938800543218984,1.0909399614041536e-15 10.753149611750981,-4.814349068531993 10.753149611750986 -10.753149611750977Z" /></g></g></g><g fill="rgb(72,189,190)" fill-opacity="1.0" stroke-width="0.0"><g fill="rgb(72,189,190)" fill-opacity="1.0"><g fill="rgb(72,189,190)" fill-opacity="1.0"><path d="M 253.05701216294122,493.99903405319884 c 0.0,-1.3394776411922893 -1.0858611747041707,-2.42533881589646 -2.4253388158964597 -2.42533881589646c -1.3394776411922893,-8.20193502907792e-17 -2.42533881589646,1.0858611747041704 -2.42533881589646 2.4253388158964593c -1.640387005815584e-16,1.3394776411922893 1.0858611747041702,2.42533881589646 2.4253388158964593 2.42533881589646c 1.3394776411922893,2.460580508723376e-16 2.42533881589646,-1.0858611747041702 2.42533881589646 -2.4253388158964593Z" /></g></g></g><g fill="rgb(72,189,190)" fill-opacity="1.0" stroke-width="0.0"><g fill="rgb(72,189,190)" fill-opacity="1.0"><g fill="rgb(72,189,190)" fill-opacity="1.0"><path d="M 188.33960588854796,537.8208391875643 c 0.0,-1.8020899524293663 -1.4608825503990794,-3.262972502828446 -3.262972502828445 -3.262972502828446c -1.8020899524293663,-1.1034618460091146e-16 -3.262972502828446,1.4608825503990792 -3.262972502828446 3.262972502828445c -2.2069236920182293e-16,1.8020899524293663 1.460882550399079,3.262972502828446 3.2629725028284446 3.262972502828446c 1.8020899524293663,3.310385538027344e-16 3.262972502828446,-1.4608825503990788 3.2629725028284464 -3.262972502828445Z" /></g></g></g><g fill="rgb(173,210,116)" fill-opacity="1.0" stroke-width="0.0"><g fill="rgb(173,210,116)" fill-opacity="1.0"><g fill="rgb(173,210,116)" fill-opacity="1.0"><path d="M 317.6685911500996,489.68344660442466 c 0.0,-10.1220780372191 -8.20556552042079,-18.32764355763989 -18.327643557639888 -18.32764355763989c -10.1220780372191,-6.197985234500048e-16 -18.32764355763989,8.205565520420787 -18.32764355763989 18.327643557639885c -1.2395970469000096e-15,10.1220780372191 8.205565520420787,18.32764355763989 18.327643557639885 18.32764355763989c 10.1220780372191,1.8593955703500142e-15 18.32764355763989,-8.205565520420786 18.32764355763989 -18.327643557639885Z" /></g></g></g><g fill="rgb(241,237,226)" fill-opacity="1.0" stroke-width="0.0"><g fill="rgb(241,237,226)" fill-opacity="1.0"><g fill="rgb(241,237,226)" fill-opacity="1.0"><path d="M 334.3249903961188,541.3243749883904 c 0.0,-6.58237544503368 -5.336069608990278,-11.918445054023959 -11.918445054023957 -11.918445054023959c -6.58237544503368,-4.030542509773315e-16 -11.918445054023959,5.336069608990277 -11.918445054023959 11.918445054023955c -8.06108501954663e-16,6.58237544503368 5.336069608990276,11.918445054023959 11.918445054023953 11.918445054023959c 6.58237544503368,1.2091627529319944e-15 11.918445054023959,-5.336069608990276 11.918445054023964 -11.918445054023955Z" /></g></g></g><g fill="rgb(97,91,91)" fill-opacity="1.0" stroke-width="0.0"><g fill="rgb(97,91,91)" fill-opacity="1.0"><g fill="rgb(97,91,91)" fill-opacity="1.0"><path d="M 253.0906839398604,448.7154665502556 c 0.0,-5.533294690596828 -4.485621624387596,-10.018916314984425 -10.018916314984423 -10.018916314984425c -5.533294690596828,-3.388165815789225e-16 -10.018916314984425,4.485621624387595 -10.018916314984425 10.018916314984422c -6.77633163157845e-16,5.533294690596828 4.485621624387595,10.018916314984425 10.01891631498442 10.018916314984425c 5.533294690596828,1.0164497447367674e-15 10.018916314984425,-4.485621624387594 10.018916314984427 -10.018916314984422Z" /></g></g></g><g fill="rgb(72,189,190)" fill-opacity="1.0" stroke-width="0.0"><g fill="rgb(72,189,190)" fill-opacity="1.0"><g fill="rgb(72,189,190)" fill-opacity="1.0"><path d="M 216.53537969550231,506.9109416054504 c 0.0,-1.352275957874495 -1.09623626030426,-2.448512218178755 -2.4485122181787546 -2.448512218178755c -1.352275957874495,-8.280302116874606e-17 -2.448512218178755,1.0962362603042597 -2.448512218178755 2.448512218178754c -1.6560604233749213e-16,1.352275957874495 1.0962362603042597,2.448512218178755 2.448512218178754 2.448512218178755c 1.352275957874495,2.484090635062382e-16 2.448512218178755,-1.0962362603042595 2.448512218178756 -2.448512218178754Z" /></g></g></g><g fill="rgb(245,180,86)" fill-opacity="1.0" stroke-width="0.0"><g fill="rgb(245,180,86)" fill-opacity="1.0"><g fill="rgb(245,180,86)" fill-opacity="1.0"><path d="M 180.20973448029778,497.02287656716453 c 0.0,-12.495575517010316 -10.129665395107308,-22.625240912117626 -22.625240912117622 -22.625240912117626c -12.495575517010316,-7.651333280205358e-16 -22.625240912117626,10.129665395107306 -22.625240912117626 22.62524091211762c -1.5302666560410717e-15,12.495575517010316 10.129665395107304,22.625240912117626 22.625240912117615 22.625240912117626c 12.495575517010316,2.2953999840616075e-15 22.625240912117626,-10.129665395107303 22.625240912117636 -22.62524091211762Z" /></g></g></g><g fill="rgb(209,95,105)" fill-opacity="1.0" stroke-width="0.0"><g fill="rgb(209,95,105)" fill-opacity="1.0"><g fill="rgb(209,95,105)" fill-opacity="1.0"><path d="M 230.67735964191937,589.2262397581221 c 0.0,-6.579457381239655 -5.333704050893749,-11.913161432133405 -11.913161432133403 -11.913161432133405c -6.579457381239655,-4.0287557110307846e-16 -11.913161432133405,5.333704050893749 -11.913161432133405 11.913161432133402c -8.057511422061569e-16,6.579457381239655 5.333704050893748,11.913161432133405 11.9131614321334 11.913161432133405c 6.579457381239655,1.2086267133092355e-15 11.913161432133405,-5.333704050893747 11.913161432133407 -11.913161432133402Z" /></g></g></g><g fill="rgb(168,145,120)" fill-opacity="1.0" stroke-width="0.0"><g fill="rgb(168,145,120)" fill-opacity="1.0"><g fill="rgb(168,145,120)" fill-opacity="1.0"><path d="M 304.69771150496274,447.94211359692133 c 0.0,-9.220281694132689 -7.474515142023943,-16.694796836156634 -16.69479683615663 -16.694796836156634c -9.220281694132689,-5.645794231978266e-16 -16.694796836156634,7.474515142023942 -16.694796836156634 16.694796836156627c -1.1291588463956531e-15,9.220281694132689 7.474515142023941,16.694796836156634 16.694796836156627 16.694796836156634c 9.220281694132689,1.6937382695934798e-15 16.694796836156634,-7.47451514202394 16.69479683615664 -16.694796836156627Z" /></g></g></g><g fill="rgb(209,95,105)" fill-opacity="1.0" stroke-width="0.0"><g fill="rgb(209,95,105)" fill-opacity="1.0"><g fill="rgb(209,95,105)" fill-opacity="1.0"><path d="M 163.18342500167063,532.4593767283293 c 0.0,-3.92088822599016 -3.1785079228106605,-7.099396148800821 -7.099396148800819 -7.099396148800821c -3.92088822599016,-2.4008516078866966e-16 -7.099396148800821,3.17850792281066 -7.099396148800821 7.099396148800818c -4.801703215773393e-16,3.92088822599016 3.1785079228106596,7.099396148800821 7.0993961488008175 7.099396148800821c 3.92088822599016,7.20255482366009e-16 7.099396148800821,-3.178507922810659 7.099396148800823 -7.099396148800818Z" /></g></g></g><g fill="rgb(245,180,86)" fill-opacity="1.0" stroke-width="0.0"><g fill="rgb(245,180,86)" fill-opacity="1.0"><g fill="rgb(245,180,86)" fill-opacity="1.0"><path d="M 295.2333811008104,522.2460206897125 c 0.0,-1.0346319348955304 -0.8387349020712992,-1.87336683696683 -1.8733668369668295 -1.87336683696683c -1.0346319348955304,-6.335293436827221e-17 -1.87336683696683,0.8387349020712991 -1.87336683696683 1.8733668369668293c -1.2670586873654442e-16,1.0346319348955304 0.838734902071299,1.87336683696683 1.873366836966829 1.87336683696683c 1.0346319348955304,1.9005880310481662e-16 1.87336683696683,-0.838734902071299 1.8733668369668304 -1.8733668369668293Z" /></g></g></g><g fill="rgb(209,95,105)" fill-opacity="1.0" stroke-width="0.0"><g fill="rgb(209,95,105)" fill-opacity="1.0"><g fill="rgb(209,95,105)" fill-opacity="1.0"><path d="M 210.99621430780203,568.1675160273891 c 0.0,-10.416333755609436 -8.444106911638292,-18.86044066724773 -18.860440667247726 -18.86044066724773c -10.416333755609436,-6.378164896328811e-16 -18.86044066724773,8.444106911638292 -18.86044066724773 18.860440667247723c -1.2756329792657622e-15,10.416333755609436 8.44410691163829,18.86044066724773 18.860440667247723 18.86044066724773c 10.416333755609436,1.9134494688986433e-15 18.86044066724773,-8.444106911638288 18.860440667247737 -18.860440667247723Z" /></g></g></g><g fill="rgb(240,162,188)" fill-opacity="1.0" stroke-width="0.0"><g fill="rgb(240,162,188)" fill-opacity="1.0"><g fill="rgb(240,162,188)" fill-opacity="1.0"><path d="M 234.25392760020156,418.26542193409256 c 0.0,-9.306490289874127 -7.544401017056595,-16.850891306930723 -16.85089130693072 -16.850891306930723c -9.306490289874127,-5.698581772395136e-16 -16.850891306930723,7.544401017056594 -16.850891306930723 16.850891306930716c -1.1397163544790272e-15,9.306490289874127 7.544401017056593,16.850891306930723 16.850891306930716 16.850891306930723c 9.306490289874127,1.7095745317185408e-15 16.850891306930723,-7.544401017056592 16.850891306930723 -16.850891306930716Z" /></g></g></g><g fill="rgb(97,91,91)" fill-opacity="1.0" stroke-width="0.0"><g fill="rgb(97,91,91)" fill-opacity="1.0"><g fill="rgb(97,91,91)" fill-opacity="1.0"><path d="M 357.69940227931903,456.6106859812551 c 0.0,-9.772744893548026 -7.92237505416401,-17.695119947712037 -17.695119947712033 -17.695119947712037c -9.772744893548026,-5.984080376383615e-16 -17.695119947712037,7.922375054164009 -17.695119947712037 17.69511994771203c -1.196816075276723e-15,9.772744893548026 7.922375054164008,17.695119947712037 17.69511994771203 17.695119947712037c 9.772744893548026,1.7952241129150845e-15 17.695119947712037,-7.922375054164006 17.695119947712044 -17.69511994771203Z" /></g></g></g><g fill="rgb(168,145,120)" fill-opacity="1.0" stroke-width="0.0"><g fill="rgb(168,145,120)" fill-opacity="1.0"><g fill="rgb(168,145,120)" fill-opacity="1.0"><path d="M 335.85586229602137,515.319374276585 c 0.0,-6.083172698146937 -4.931385824446113,-11.01455852259305 -11.014558522593049 -11.01455852259305c -6.083172698146937,-3.7248689867231074e-16 -11.01455852259305,4.931385824446112 -11.01455852259305 11.014558522593047c -7.449737973446215e-16,6.083172698146937 4.931385824446111,11.01455852259305 11.014558522593045 11.01455852259305c 6.083172698146937,1.1174606960169321e-15 11.01455852259305,-4.931385824446111 11.014558522593052 -11.014558522593047Z" /></g></g></g><g fill="rgb(241,237,226)" fill-opacity="1.0" stroke-width="0.0"><g fill="rgb(241,237,226)" fill-opacity="1.0"><g fill="rgb(241,237,226)" fill-opacity="1.0"><path d="M 326.32375425372334,567.7461666052483 c 0.0,-6.507989222788905 -5.275767661287277,-11.783756884076183 -11.783756884076181 -11.783756884076183c -6.507989222788905,-3.9849940852869516e-16 -11.783756884076183,5.275767661287277 -11.783756884076183 11.78375688407618c -7.969988170573903e-16,6.507989222788905 5.275767661287276,11.783756884076183 11.783756884076178 11.783756884076183c 6.507989222788905,1.1954982255860855e-15 11.783756884076183,-5.275767661287275 11.783756884076189 -11.78375688407618Z" /></g></g></g><g fill="rgb(168,145,120)" fill-opacity="1.0" stroke-width="0.0"><g fill="rgb(168,145,120)" fill-opacity="1.0"><g fill="rgb(168,145,120)" fill-opacity="1.0"><path d="M 266.6312965800321,641.4638834245619 c 0.0,-14.594934020354179 -11.831531720055471,-26.426465740409654 -26.426465740409647 -26.426465740409654c -14.594934020354179,-8.936819615896778e-16 -26.426465740409654,11.83153172005547 -26.426465740409654 26.426465740409647c -1.7873639231793556e-15,14.594934020354179 11.831531720055468,26.426465740409654 26.426465740409643 26.426465740409654c 14.594934020354179,2.6810458847690334e-15 26.426465740409654,-11.831531720055468 26.426465740409657 -26.426465740409647Z" /></g></g></g><g fill="rgb(235,86,92)" fill-opacity="1.0" stroke-width="0.0"><g fill="rgb(235,86,92)" fill-opacity="1.0"><g fill="rgb(235,86,92)" fill-opacity="1.0"><path d="M 302.03765994198903,603.9672418350609 c 0.0,-11.608029979049807 -9.410167576841827,-21.018197555891636 -21.018197555891632 -21.018197555891636c -11.608029979049807,-7.107868379124931e-16 -21.018197555891636,9.410167576841825 -21.018197555891636 21.01819755589163c -1.4215736758249863e-15,11.608029979049807 9.410167576841825,21.018197555891636 21.018197555891625 21.018197555891636c 11.608029979049807,2.1323605137374795e-15 21.018197555891636,-9.410167576841824 21.01819755589164 -21.01819755589163Z" /></g></g></g><g fill="rgb(173,210,116)" fill-opacity="1.0" stroke-width="0.0"><g fill="rgb(173,210,116)" fill-opacity="1.0"><g fill="rgb(173,210,116)" fill-opacity="1.0"><path d="M 395.8915221791897,501.3876870861212 c 0.0,-11.813181243357086 -9.576475536006013,-21.3896567793631 -21.389656779363097 -21.3896567793631c -11.813181243357086,-7.233487298712402e-16 -21.3896567793631,9.576475536006011 -21.3896567793631 21.389656779363094c -1.4466974597424804e-15,11.813181243357086 9.576475536006011,21.3896567793631 21.38965677936309 21.3896567793631c 11.813181243357086,2.1700461896137206e-15 21.3896567793631,-9.57647553600601 21.38965677936311 -21.389656779363094Z" /></g></g></g><g fill="rgb(168,145,120)" fill-opacity="1.0" stroke-width="0.0"><g fill="rgb(168,145,120)" fill-opacity="1.0"><g fill="rgb(168,145,120)" fill-opacity="1.0"><path d="M 264.2716479095695,415.933053198456 c 0.0,-4.644243348797304 -3.7649031109233135,-8.409146459720619 -8.409146459720617 -8.409146459720619c -4.644243348797304,-2.8437788757830015e-16 -8.409146459720619,3.764903110923313 -8.409146459720619 8.409146459720615c -5.687557751566003e-16,4.644243348797304 3.7649031109233126,8.409146459720619 8.409146459720615 8.409146459720619c 4.644243348797304,8.531336627349004e-16 8.409146459720619,-3.764903110923312 8.409146459720619 -8.409146459720615Z" /></g></g></g><g fill="rgb(185,161,185)" fill-opacity="1.0" stroke-width="0.0"><g fill="rgb(185,161,185)" fill-opacity="1.0"><g fill="rgb(185,161,185)" fill-opacity="1.0"><path d="M 305.95346249677954,421.35254447032963 c 0.0,-2.744662912894442 -2.224988908444712,-4.969651821339155 -4.969651821339154 -4.969651821339155c -2.744662912894442,-1.6806213255073145e-16 -4.969651821339155,2.2249889084447116 -4.969651821339155 4.969651821339153c -3.361242651014629e-16,2.744662912894442 2.2249889084447116,4.969651821339155 4.969651821339153 4.969651821339155c 2.744662912894442,5.041863976521944e-16 4.969651821339155,-2.224988908444711 4.969651821339155 -4.969651821339153Z" /></g></g></g><g fill="rgb(240,162,188)" fill-opacity="1.0" stroke-width="0.0"><g fill="rgb(240,162,188)" fill-opacity="1.0"><g fill="rgb(240,162,188)" fill-opacity="1.0"><path d="M 133.38653685434704,552.0698886468508 c 0.0,-7.216251773118455 -5.849927902002644,-13.0661796751211 -13.066179675121097 -13.0661796751211c -7.216251773118455,-4.418679817895464e-16 -13.0661796751211,5.849927902002643 -13.0661796751211 13.066179675121097c -8.837359635790928e-16,7.216251773118455 5.8499279020026425,13.0661796751211 13.066179675121095 13.0661796751211c 7.216251773118455,1.3256039453686392e-15 13.0661796751211,-5.849927902002642 13.066179675121102 -13.066179675121097Z" /></g></g></g><g fill="rgb(241,237,226)" fill-opacity="1.0" stroke-width="0.0"><g fill="rgb(241,237,226)" fill-opacity="1.0"><g fill="rgb(241,237,226)" fill-opacity="1.0"><path d="M 162.2160667896777,440.89818324137957 c 0.0,-5.422692771495591 -4.395961053649809,-9.8186538251454 -9.818653825145399 -9.8186538251454c -5.422692771495591,-3.3204416726857824e-16 -9.8186538251454,4.395961053649808 -9.8186538251454 9.818653825145397c -6.640883345371565e-16,5.422692771495591 4.395961053649808,9.8186538251454 9.818653825145397 9.8186538251454c 5.422692771495591,9.961325018057346e-16 9.8186538251454,-4.395961053649807 9.818653825145404 -9.818653825145397Z" /></g></g></g><g fill="rgb(185,161,185)" fill-opacity="1.0" stroke-width="0.0"><g fill="rgb(185,161,185)" fill-opacity="1.0"><g fill="rgb(185,161,185)" fill-opacity="1.0"><path d="M 239.52408067788815,338.7168882609642 c 0.0,-6.052317230532915 -4.9063725257697826,-10.958689756302698 -10.958689756302697 -10.958689756302698c -6.052317230532915,-3.7059754618982534e-16 -10.958689756302698,4.906372525769782 -10.958689756302698 10.958689756302695c -7.411950923796507e-16,6.052317230532915 4.906372525769782,10.958689756302698 10.958689756302693 10.958689756302698c 6.052317230532915,1.111792638569476e-15 10.958689756302698,-4.906372525769781 10.9586897563027 -10.958689756302695Z" /></g></g></g><g fill="rgb(245,180,86)" fill-opacity="1.0" stroke-width="0.0"><g fill="rgb(245,180,86)" fill-opacity="1.0"><g fill="rgb(245,180,86)" fill-opacity="1.0"><path d="M 364.22725690154857,535.0480220337497 c 0.0,-4.615674396758808 -3.741743399356217,-8.357417796115026 -8.357417796115024 -8.357417796115026c -4.615674396758808,-2.8262854379485324e-16 -8.357417796115026,3.7417433993562166 -8.357417796115026 8.357417796115023c -5.652570875897065e-16,4.615674396758808 3.741743399356216,8.357417796115026 8.357417796115023 8.357417796115026c 4.615674396758808,8.478856313845597e-16 8.357417796115026,-3.7417433993562157 8.35741779611503 -8.357417796115023Z" /></g></g></g><g fill="rgb(97,91,91)" fill-opacity="1.0" stroke-width="0.0"><g fill="rgb(97,91,91)" fill-opacity="1.0"><g fill="rgb(97,91,91)" fill-opacity="1.0"><path d="M 138.8385053241572,591.028981815922 c 0.0,-6.989950423810074 -5.6664744112983065,-12.656424835108382 -12.656424835108378 -12.656424835108382c -6.989950423810074,-4.280110206358846e-16 -12.656424835108382,5.666474411298306 -12.656424835108382 12.656424835108378c -8.560220412717692e-16,6.989950423810074 5.666474411298305,12.656424835108382 12.656424835108377 12.656424835108382c 6.989950423810074,1.2840330619076537e-15 12.656424835108382,-5.666474411298305 12.656424835108384 -12.656424835108378Z" /></g></g></g><g fill="rgb(191,49,49)" fill-opacity="1.0" stroke-width="0.0"><g fill="rgb(191,49,49)" fill-opacity="1.0"><g fill="rgb(191,49,49)" fill-opacity="1.0"><path d="M 202.92200891879608,540.2165278422461 c 0.0,-1.8588532524910806 -1.5068982969778981,-3.365751549468979 -3.3657515494689783 -3.365751549468979c -1.8588532524910806,-1.1382193428739243e-16 -3.365751549468979,1.506898296977898 -3.365751549468979 3.365751549468978c -2.2764386857478485e-16,1.8588532524910806 1.506898296977898,3.365751549468979 3.365751549468978 3.365751549468979c 1.8588532524910806,3.4146580286217725e-16 3.365751549468979,-1.5068982969778977 3.3657515494689796 -3.365751549468978Z" /></g></g></g><g fill="rgb(209,95,105)" fill-opacity="1.0" stroke-width="0.0"><g fill="rgb(209,95,105)" fill-opacity="1.0"><g fill="rgb(209,95,105)" fill-opacity="1.0"><path d="M 249.33651479382496,468.00003029017984 c 0.0,-2.784692574481682 -2.2574393607833123,-5.042131935264995 -5.042131935264994 -5.042131935264995c -2.784692574481682,-1.7051324239741972e-16 -5.042131935264995,2.257439360783312 -5.042131935264995 5.042131935264993c -3.4102648479483945e-16,2.784692574481682 2.2574393607833114,5.042131935264995 5.042131935264992 5.042131935264995c 2.784692574481682,5.115397271922591e-16 5.042131935264995,-2.2574393607833114 5.042131935264996 -5.042131935264993Z" /></g></g></g><g fill="rgb(235,86,92)" fill-opacity="1.0" stroke-width="0.0"><g fill="rgb(235,86,92)" fill-opacity="1.0"><g fill="rgb(235,86,92)" fill-opacity="1.0"><path d="M 202.27310121490027,656.0679091189409 c 0.0,-4.816300709760862 -3.9043831607180133,-8.720683870478876 -8.720683870478874 -8.720683870478876c -4.816300709760862,-2.949133623969882e-16 -8.720683870478876,3.904383160718013 -8.720683870478876 8.720683870478872c -5.898267247939764e-16,4.816300709760862 3.9043831607180124,8.720683870478876 8.720683870478872 8.720683870478876c 4.816300709760862,8.847400871909647e-16 8.720683870478876,-3.904383160718012 8.72068387047888 -8.720683870478872Z" /></g></g></g><g fill="rgb(191,49,49)" fill-opacity="1.0" stroke-width="0.0"><g fill="rgb(191,49,49)" fill-opacity="1.0"><g fill="rgb(191,49,49)" fill-opacity="1.0"><path d="M 167.76411356975402,556.0583587058239 c 0.0,-3.938185936015182 -3.1925304873909424,-7.130716423406125 -7.130716423406123 -7.130716423406125c -3.938185936015182,-2.411443400494058e-16 -7.130716423406125,3.192530487390942 -7.130716423406125 7.130716423406122c -4.822886800988116e-16,3.938185936015182 3.1925304873909415,7.130716423406125 7.130716423406121 7.130716423406125c 3.938185936015182,7.234330201482174e-16 7.130716423406125,-3.192530487390941 7.130716423406127 -7.130716423406122Z" /></g></g></g><g fill="rgb(209,95,105)" fill-opacity="1.0" stroke-width="0.0"><g fill="rgb(209,95,105)" fill-opacity="1.0"><g fill="rgb(209,95,105)" fill-opacity="1.0"><path d="M 114.93983360165674,458.7124260958207 c 0.0,-6.678964899319984 -5.414370832594133,-12.093335731914118 -12.093335731914115 -12.093335731914118c -6.678964899319984,-4.089686492784871e-16 -12.093335731914118,5.414370832594132 -12.093335731914118 12.093335731914115c -8.179372985569742e-16,6.678964899319984 5.414370832594131,12.093335731914118 12.093335731914113 12.093335731914118c 6.678964899319984,1.2269059478354613e-15 12.093335731914118,-5.41437083259413 12.09333573191412 -12.093335731914115Z" /></g></g></g><g fill="rgb(173,210,116)" fill-opacity="1.0" stroke-width="0.0"><g fill="rgb(173,210,116)" fill-opacity="1.0"><g fill="rgb(173,210,116)" fill-opacity="1.0"><path d="M 199.24908410563836,396.63975135962096 c 0.0,-4.142796456220825 -3.3584000868488078,-7.501196543069634 -7.501196543069632 -7.501196543069634c -4.142796456220825,-2.536731209814916e-16 -7.501196543069634,3.3584000868488073 -7.501196543069634 7.501196543069631c -5.073462419629832e-16,4.142796456220825 3.358400086848807,7.501196543069634 7.50119654306963 7.501196543069634c 4.142796456220825,7.610193629444747e-16 7.501196543069634,-3.3584000868488064 7.501196543069636 -7.501196543069631Z" /></g></g></g><g fill="rgb(209,95,105)" fill-opacity="1.0" stroke-width="0.0"><g fill="rgb(209,95,105)" fill-opacity="1.0"><g fill="rgb(209,95,105)" fill-opacity="1.0"><path d="M 158.34012997760485,398.45054847359427 c 0.0,-3.510402474897563 -2.845743473316767,-6.356145948214331 -6.356145948214329 -6.356145948214331c -3.510402474897563,-2.1495015773011237e-16 -6.356145948214331,2.845743473316767 -6.356145948214331 6.356145948214329c -4.2990031546022474e-16,3.510402474897563 2.8457434733167664,6.356145948214331 6.356145948214328 6.356145948214331c 3.510402474897563,6.448504731903371e-16 6.356145948214331,-2.845743473316766 6.356145948214332 -6.356145948214329Z" /></g></g></g><g fill="rgb(235,86,92)" fill-opacity="1.0" stroke-width="0.0"><g fill="rgb(235,86,92)" fill-opacity="1.0"><g fill="rgb(235,86,92)" fill-opacity="1.0"><path d="M 406.5512470153222,586.4969951021209 c 0.0,-5.991504434850742 -4.857074014375661,-10.848578449226405 -10.848578449226403 -10.848578449226405c -5.991504434850742,-3.6687383641085666e-16 -10.848578449226405,4.857074014375661 -10.848578449226405 10.848578449226402c -7.337476728217133e-16,5.991504434850742 4.8570740143756606,10.848578449226405 10.8485784492264 10.848578449226405c 5.991504434850742,1.10062150923257e-15 10.848578449226405,-4.85707401437566 10.84857844922641 -10.848578449226402Z" /></g></g></g><g fill="rgb(209,95,105)" fill-opacity="1.0" stroke-width="0.0"><g fill="rgb(209,95,105)" fill-opacity="1.0"><g fill="rgb(209,95,105)" fill-opacity="1.0"><path d="M 264.76316260763167,458.12905643215095 c 0.0,-0.5653833035883634 -0.4583337260083853,-1.0237170295967488 -1.0237170295967486 -1.0237170295967488c -0.5653833035883634,-3.4619742651542275e-17 -1.0237170295967488,0.45833372600838523 -1.0237170295967488 1.0237170295967484c -6.923948530308455e-17,0.5653833035883634 0.4583337260083852,1.0237170295967488 1.0237170295967484 1.0237170295967488c 0.5653833035883634,1.0385922795462682e-16 1.0237170295967488,-0.4583337260083851 1.0237170295967488 -1.0237170295967484Z" /></g></g></g><g fill="rgb(235,86,92)" fill-opacity="1.0" stroke-width="0.0"><g fill="rgb(235,86,92)" fill-opacity="1.0"><g fill="rgb(235,86,92)" fill-opacity="1.0"><path d="M 202.33729388984412,631.1620247415043 c 0.0,-5.1933263611042015 -4.210022840001405,-9.403349201105607 -9.403349201105605 -9.403349201105607c -5.1933263611042015,-3.179995252526916e-16 -9.403349201105607,4.210022840001404 -9.403349201105607 9.403349201105604c -6.359990505053832e-16,5.1933263611042015 4.210022840001403,9.403349201105607 9.403349201105604 9.403349201105607c 5.1933263611042015,9.539985757580748e-16 9.403349201105607,-4.210022840001403 9.403349201105607 -9.403349201105604Z" /></g></g></g><g fill="rgb(168,145,120)" fill-opacity="1.0" stroke-width="0.0"><g fill="rgb(168,145,120)" fill-opacity="1.0"><g fill="rgb(168,145,120)" fill-opacity="1.0"><path d="M 260.1298364387638,432.8509171672136 c 0.0,-3.029319004154785 -2.455748264283994,-5.48506726843878 -5.485067268438779 -5.48506726843878c -3.029319004154785,-1.8549229110172025e-16 -5.48506726843878,2.4557482642839936 -5.48506726843878 5.485067268438778c -3.709845822034405e-16,3.029319004154785 2.455748264283993,5.48506726843878 5.485067268438777 5.48506726843878c 3.029319004154785,5.564768733051607e-16 5.48506726843878,-2.455748264283993 5.485067268438782 -5.485067268438778Z" /></g></g></g><g fill="rgb(191,49,49)" fill-opacity="1.0" stroke-width="0.0"><g fill="rgb(191,49,49)" fill-opacity="1.0"><g fill="rgb(191,49,49)" fill-opacity="1.0"><path d="M 341.4652482809239,645.2673966366912 c 0.0,-5.579034067359087 -4.5227007154107906,-10.10173478276988 -10.101734782769878 -10.10173478276988c -5.579034067359087,-3.4161731064626725e-16 -10.10173478276988,4.5227007154107906 -10.10173478276988 10.101734782769876c -6.832346212925345e-16,5.579034067359087 4.52270071541079,10.10173478276988 10.101734782769874 10.10173478276988c 5.579034067359087,1.0248519319388017e-15 10.10173478276988,-4.522700715410789 10.101734782769881 -10.101734782769876Z" /></g></g></g><g fill="rgb(240,162,188)" fill-opacity="1.0" stroke-width="0.0"><g fill="rgb(240,162,188)" fill-opacity="1.0"><g fill="rgb(240,162,188)" fill-opacity="1.0"><path d="M 366.9282159166377,567.89503783602 c 0.0,-7.421083024006069 -6.015976439033072,-13.437059463039143 -13.43705946303914 -13.437059463039143c -7.421083024006069,-4.544102785777897e-16 -13.437059463039143,6.015976439033071 -13.437059463039143 13.437059463039137c -9.088205571555793e-16,7.421083024006069 6.0159764390330706,13.437059463039143 13.437059463039137 13.437059463039143c 7.421083024006069,1.3632308357333688e-15 13.437059463039143,-6.0159764390330706 13.437059463039144 -13.437059463039137Z" /></g></g></g><g fill="rgb(72,189,190)" fill-opacity="1.0" stroke-width="0.0"><g fill="rgb(72,189,190)" fill-opacity="1.0"><g fill="rgb(72,189,190)" fill-opacity="1.0"><path d="M 190.6747875345782,603.5709783489419 c 0.0,-3.9568043540734346 -3.2076236973723136,-7.164428051445749 -7.164428051445747 -7.164428051445749c -3.9568043540734346,-2.4228438935341707e-16 -7.164428051445749,3.207623697372313 -7.164428051445749 7.164428051445746c -4.845687787068341e-16,3.9568043540734346 3.207623697372313,7.164428051445749 7.1644280514457455 7.164428051445749c 3.9568043540734346,7.268531680602513e-16 7.164428051445749,-3.2076236973723127 7.164428051445751 -7.164428051445746Z" /></g></g></g><g fill="rgb(241,237,226)" fill-opacity="1.0" stroke-width="0.0"><g fill="rgb(241,237,226)" fill-opacity="1.0"><g fill="rgb(241,237,226)" fill-opacity="1.0"><path d="M 158.33416233304678,362.9761292810225 c 0.0,-3.3111569798526284 -2.6842230860772847,-5.995380065929914 -5.995380065929913 -5.995380065929914c -3.3111569798526284,-2.0274988984254692e-16 -5.995380065929914,2.6842230860772847 -5.995380065929914 5.995380065929912c -4.0549977968509385e-16,3.3111569798526284 2.684223086077284,5.995380065929914 5.995380065929911 5.995380065929914c 3.3111569798526284,6.082496695276408e-16 5.995380065929914,-2.6842230860772838 5.995380065929915 -5.995380065929912Z" /></g></g></g><g fill="rgb(209,95,105)" fill-opacity="1.0" stroke-width="0.0"><g fill="rgb(209,95,105)" fill-opacity="1.0"><g fill="rgb(209,95,105)" fill-opacity="1.0"><path d="M 289.194338146628,360.5858318705957 c 0.0,-1.9410394585862891 -1.5735233809289717,-3.514562839515261 -3.51456283951526 -3.514562839515261c -1.9410394585862891,-1.188543879988205e-16 -3.514562839515261,1.5735233809289715 -3.514562839515261 3.5145628395152597c -2.37708775997641e-16,1.9410394585862891 1.5735233809289713,3.514562839515261 3.5145628395152593 3.514562839515261c 1.9410394585862891,3.5656316399646154e-16 3.514562839515261,-1.573523380928971 3.514562839515262 -3.5145628395152597Z" /></g></g></g><g fill="rgb(97,91,91)" fill-opacity="1.0" stroke-width="0.0"><g fill="rgb(97,91,91)" fill-opacity="1.0"><g fill="rgb(97,91,91)" fill-opacity="1.0"><path d="M 81.70479619260072,447.5461218178498 c 0.0,-3.176437732138601 -2.575011557583383,-5.751449289721984 -5.751449289721983 -5.751449289721984c -3.176437732138601,-1.9450071506772075e-16 -5.751449289721984,2.5750115575833825 -5.751449289721984 5.751449289721982c -3.890014301354415e-16,3.176437732138601 2.575011557583382,5.751449289721984 5.7514492897219816 5.751449289721984c 3.176437732138601,5.835021452031623e-16 5.751449289721984,-2.575011557583382 5.751449289721987 -5.751449289721982Z" /></g></g></g><g fill="rgb(209,95,105)" fill-opacity="1.0" stroke-width="0.0"><g fill="rgb(209,95,105)" fill-opacity="1.0"><g fill="rgb(209,95,105)" fill-opacity="1.0"><path d="M 123.53672041789599,495.43006771567167 c 0.0,-0.9925339212737095 -0.8046077191170445,-1.7971416403907543 -1.7971416403907539 -1.7971416403907543c -0.9925339212737095,-6.077517448665096e-17 -1.7971416403907543,0.8046077191170445 -1.7971416403907543 1.7971416403907536c -1.2155034897330193e-16,0.9925339212737095 0.8046077191170444,1.7971416403907543 1.7971416403907534 1.7971416403907543c 0.9925339212737095,1.8232552345995292e-16 1.7971416403907543,-0.8046077191170443 1.7971416403907547 -1.7971416403907536Z" /></g></g></g><g fill="rgb(72,189,190)" fill-opacity="1.0" stroke-width="0.0"><g fill="rgb(72,189,190)" fill-opacity="1.0"><g fill="rgb(72,189,190)" fill-opacity="1.0"><path d="M 351.1133762787624,598.1360289723036 c 0.0,-1.9067807082122143 -1.5457511764657623,-3.452531884677977 -3.4525318846779762 -3.452531884677977c -1.9067807082122143,-1.167566445494006e-16 -3.452531884677977,1.545751176465762 -3.452531884677977 3.452531884677976c -2.335132890988012e-16,1.9067807082122143 1.5457511764657619,3.452531884677977 3.452531884677976 3.452531884677977c 1.9067807082122143,3.502699336482017e-16 3.452531884677977,-1.5457511764657617 3.4525318846779776 -3.452531884677976Z" /></g></g></g><g fill="rgb(97,91,91)" fill-opacity="1.0" stroke-width="0.0"><g fill="rgb(97,91,91)" fill-opacity="1.0"><g fill="rgb(97,91,91)" fill-opacity="1.0"><path d="M 430.58936691135574,366.689877830634 c 0.0,-2.85038052430409 -2.3106899654702096,-5.1610704897743 -5.161070489774299 -5.1610704897743c -2.85038052430409,-1.745354692720479e-16 -5.1610704897743,2.310689965470209 -5.1610704897743 5.161070489774298c -3.490709385440958e-16,2.85038052430409 2.3106899654702087,5.1610704897743 5.161070489774297 5.1610704897743c 2.85038052430409,5.236064078161437e-16 5.1610704897743,-2.3106899654702087 5.1610704897743025 -5.161070489774298Z" /></g></g></g><g fill="rgb(72,189,190)" fill-opacity="1.0" stroke-width="0.0"><g fill="rgb(72,189,190)" fill-opacity="1.0"><g fill="rgb(72,189,190)" fill-opacity="1.0"><path d="M 309.8784202188307,524.3363611450699 c 0.0,-2.576447443640179 -2.0886233272430283,-4.665070770883208 -4.665070770883207 -4.665070770883208c -2.576447443640179,-1.577619057512663e-16 -4.665070770883208,2.088623327243028 -4.665070770883208 4.665070770883206c -3.155238115025326e-16,2.576447443640179 2.0886233272430275,4.665070770883208 4.665070770883206 4.665070770883208c 2.576447443640179,4.732857172537989e-16 4.665070770883208,-2.0886233272430275 4.66507077088321 -4.665070770883206Z" /></g></g></g><g fill="rgb(191,49,49)" fill-opacity="1.0" stroke-width="0.0"><g fill="rgb(191,49,49)" fill-opacity="1.0"><g fill="rgb(191,49,49)" fill-opacity="1.0"><path d="M 145.76935623649288,428.6087945322672 c 0.0,-1.2448892826240767 -1.0091821596988921,-2.254071442322969 -2.2540714423229686 -2.254071442322969c -1.2448892826240767,-7.622748376292102e-17 -2.254071442322969,1.009182159698892 -2.254071442322969 2.254071442322968c -1.5245496752584203e-16,1.2448892826240767 1.009182159698892,2.254071442322969 2.254071442322968 2.254071442322969c 1.2448892826240767,2.2868245128876305e-16 2.254071442322969,-1.0091821596988917 2.25407144232297 -2.254071442322968Z" /></g></g></g><g fill="rgb(235,86,92)" fill-opacity="1.0" stroke-width="0.0"><g fill="rgb(235,86,92)" fill-opacity="1.0"><g fill="rgb(235,86,92)" fill-opacity="1.0"><path d="M 37.384113673407136,388.86989049836563 c 0.0,-2.4077367532662293 -1.9518562900033896,-4.359593043269619 -4.359593043269618 -4.359593043269619c -2.4077367532662293,-1.474313554038464e-16 -4.359593043269619,1.9518562900033893 -4.359593043269619 4.3595930432696175c -2.948627108076928e-16,2.4077367532662293 1.9518562900033891,4.359593043269619 4.3595930432696175 4.359593043269619c 2.4077367532662293,4.422940662115392e-16 4.359593043269619,-1.951856290003389 4.359593043269621 -4.3595930432696175Z" /></g></g></g><g fill="rgb(209,95,105)" fill-opacity="1.0" stroke-width="0.0"><g fill="rgb(209,95,105)" fill-opacity="1.0"><g fill="rgb(209,95,105)" fill-opacity="1.0"><path d="M 75.61587855279708,504.47193876094656 c 0.0,-3.5995970395006056 -2.9180499543796956,-6.517646993880302 -6.5176469938803 -6.517646993880302c -3.5995970395006056,-2.2041174963223526e-16 -6.517646993880302,2.918049954379695 -6.517646993880302 6.5176469938803c -4.408234992644705e-16,3.5995970395006056 2.9180499543796947,6.517646993880302 6.517646993880299 6.517646993880302c 3.5995970395006056,6.612352488967058e-16 6.517646993880302,-2.9180499543796943 6.5176469938803026 -6.5176469938803Z" /></g></g></g><g fill="rgb(173,210,116)" fill-opacity="1.0" stroke-width="0.0"><g fill="rgb(173,210,116)" fill-opacity="1.0"><g fill="rgb(173,210,116)" fill-opacity="1.0"><path d="M 407.3104734554621,464.24497008451203 c 0.0,-1.786309836245436 -1.4480902387027088,-3.234400074948145 -3.234400074948144 -3.234400074948145c -1.786309836245436,-1.0937993116217027e-16 -3.234400074948145,1.4480902387027086 -3.234400074948145 3.234400074948144c -2.1875986232434055e-16,1.786309836245436 1.4480902387027084,3.234400074948145 3.2344000749481436 3.234400074948145c 1.786309836245436,3.2813979348651082e-16 3.234400074948145,-1.4480902387027081 3.2344000749481454 -3.234400074948144Z" /></g></g></g><g fill="rgb(168,145,120)" fill-opacity="1.0" stroke-width="0.0"><g fill="rgb(168,145,120)" fill-opacity="1.0"><g fill="rgb(168,145,120)" fill-opacity="1.0"><path d="M 256.63933689695784,365.8033907130142 c 0.0,-1.1489746357896002 -0.9314279756198545,-2.080402611409455 -2.0804026114094545 -2.080402611409455c -1.1489746357896002,-7.035440550106149e-17 -2.080402611409455,0.9314279756198544 -2.080402611409455 2.080402611409454c -1.4070881100212298e-16,1.1489746357896002 0.9314279756198542,2.080402611409455 2.080402611409454 2.080402611409455c 1.1489746357896002,2.1106321650318447e-16 2.080402611409455,-0.9314279756198541 2.080402611409456 -2.080402611409454Z" /></g></g></g><g fill="rgb(173,210,116)" fill-opacity="1.0" stroke-width="0.0"><g fill="rgb(173,210,116)" fill-opacity="1.0"><g fill="rgb(173,210,116)" fill-opacity="1.0"><path d="M 324.3210444604022,241.59368302389197 c 0.0,-2.076220168213666 -1.683108998216819,-3.759329166430485 -3.759329166430484 -3.759329166430485c -2.076220168213666,-1.2713181916640225e-16 -3.759329166430485,1.6831089982168188 -3.759329166430485 3.7593291664304838c -2.542636383328045e-16,2.076220168213666 1.6831089982168186,3.759329166430485 3.7593291664304833 3.759329166430485c 2.076220168213666,3.8139545749920673e-16 3.759329166430485,-1.6831089982168184 3.759329166430486 -3.7593291664304838Z" /></g></g></g><g fill="rgb(235,86,92)" fill-opacity="1.0" stroke-width="0.0"><g fill="rgb(235,86,92)" fill-opacity="1.0"><g fill="rgb(235,86,92)" fill-opacity="1.0"><path d="M 346.55085083322786,509.2909153105013 c 0.0,-2.41006486621841 -1.9537435984491274,-4.363808464667538 -4.363808464667537 -4.363808464667538c -2.41006486621841,-1.4757391120759349e-16 -4.363808464667538,1.9537435984491272 -4.363808464667538 4.363808464667536c -2.9514782241518697e-16,2.41006486621841 1.953743598449127,4.363808464667538 4.363808464667536 4.363808464667538c 2.41006486621841,4.4272173362278046e-16 4.363808464667538,-1.9537435984491267 4.363808464667538 -4.363808464667536Z" /></g></g></g><g fill="rgb(185,161,185)" fill-opacity="1.0" stroke-width="0.0"><g fill="rgb(185,161,185)" fill-opacity="1.0"><g fill="rgb(185,161,185)" fill-opacity="1.0"><path d="M 216.88460318034154,661.9463609252126 c 0.0,-2.600695584719312 -2.1082803294555794,-4.708975914174892 -4.708975914174891 -4.708975914174892c -2.600695584719312,-1.5924667616915798e-16 -4.708975914174892,2.108280329455579 -4.708975914174892 4.70897591417489c -3.1849335233831597e-16,2.600695584719312 2.108280329455579,4.708975914174892 4.70897591417489 4.708975914174892c 2.600695584719312,4.777400285074739e-16 4.708975914174892,-2.1082803294555785 4.708975914174892 -4.70897591417489Z" /></g></g></g><g fill="rgb(173,210,116)" fill-opacity="1.0" stroke-width="0.0"><g fill="rgb(173,210,116)" fill-opacity="1.0"><g fill="rgb(173,210,116)" fill-opacity="1.0"><path d="M 379.1427354399204,328.7196831341887 c 0.0,-2.9611162605807406 -2.400459016462404,-5.361575277043145 -5.361575277043144 -5.361575277043145c -2.9611162605807406,-1.8131607752116918e-16 -5.361575277043145,2.4004590164624036 -5.361575277043145 5.361575277043143c -3.6263215504233836e-16,2.9611162605807406 2.4004590164624036,5.361575277043145 5.361575277043142 5.361575277043145c 2.9611162605807406,5.439482325635076e-16 5.361575277043145,-2.400459016462403 5.361575277043146 -5.361575277043143Z" /></g></g></g><g fill="rgb(241,237,226)" fill-opacity="1.0" stroke-width="0.0"><g fill="rgb(241,237,226)" fill-opacity="1.0"><g fill="rgb(241,237,226)" fill-opacity="1.0"><path d="M 152.08391922369896,753.6989665533824 c 0.0,-1.2804779223641305 -1.0380324525039741,-2.318510374868105 -2.3185103748681044 -2.318510374868105c -1.2804779223641305,-7.840665945010427e-17 -2.318510374868105,1.0380324525039741 -2.318510374868105 2.318510374868104c -1.5681331890020853e-16,1.2804779223641305 1.038032452503974,2.318510374868105 2.318510374868104 2.318510374868105c 1.2804779223641305,2.352199783503128e-16 2.318510374868105,-1.0380324525039737 2.318510374868105 -2.318510374868104Z" /></g></g></g><g fill="rgb(235,86,92)" fill-opacity="1.0" stroke-width="0.0"><g fill="rgb(235,86,92)" fill-opacity="1.0"><g fill="rgb(235,86,92)" fill-opacity="1.0"><path d="M 213.78203175117721,328.1583426037398 c 0.0,-1.1455149979672792 -0.9286233850285157,-2.074138382995795 -2.0741383829957947 -2.074138382995795c -1.1455149979672792,-7.014256378179576e-17 -2.074138382995795,0.9286233850285156 -2.074138382995795 2.0741383829957942c -1.4028512756359153e-16,1.1455149979672792 0.9286233850285155,2.074138382995795 2.0741383829957942 2.074138382995795c 1.1455149979672792,2.1042769134538728e-16 2.074138382995795,-0.9286233850285154 2.074138382995795 -2.0741383829957942Z" /></g></g></g><g fill="rgb(72,189,190)" fill-opacity="1.0" stroke-width="0.0"><g fill="rgb(72,189,190)" fill-opacity="1.0"><g fill="rgb(72,189,190)" fill-opacity="1.0"><path d="M 64.02798962295444,435.9376817498361 c 0.0,-2.571756662947967 -2.084820698161298,-4.656577361109266 -4.656577361109265 -4.656577361109266c -2.571756662947967,-1.574746782732553e-16 -4.656577361109266,2.084820698161298 -4.656577361109266 4.656577361109264c -3.149493565465106e-16,2.571756662947967 2.0848206981612973,4.656577361109266 4.656577361109264 4.656577361109266c 2.571756662947967,4.724240348197659e-16 4.656577361109266,-2.0848206981612973 4.656577361109267 -4.656577361109264Z" /></g></g></g><g fill="rgb(168,145,120)" fill-opacity="1.0" stroke-width="0.0"><g fill="rgb(168,145,120)" fill-opacity="1.0"><g fill="rgb(168,145,120)" fill-opacity="1.0"><path d="M 187.81442635376132,447.03684894975396 c 0.0,-2.3506336364553095 -1.9055650675202864,-4.256198703975596 -4.2561987039755955 -4.256198703975596c -2.3506336364553095,-1.439347979426549e-16 -4.256198703975596,1.9055650675202862 -4.256198703975596 4.256198703975595c -2.878695958853098e-16,2.3506336364553095 1.905565067520286,4.256198703975596 4.256198703975595 4.256198703975596c 2.3506336364553095,4.318043938279647e-16 4.256198703975596,-1.9055650675202855 4.256198703975596 -4.256198703975595Z" /></g></g></g><g fill="rgb(235,86,92)" fill-opacity="1.0" stroke-width="0.0"><g fill="rgb(235,86,92)" fill-opacity="1.0"><g fill="rgb(235,86,92)" fill-opacity="1.0"><path d="M 247.13790193954748,432.2995984177537 c 0.0,-2.1911345008393948 -1.7762654708431558,-3.9673999716825508 -3.96739997168255 -3.9673999716825508c -2.1911345008393948,-1.341682926477149e-16 -3.9673999716825508,1.7762654708431556 -3.9673999716825508 3.9673999716825494c -2.683365852954298e-16,2.1911345008393948 1.7762654708431553,3.9673999716825508 3.967399971682549 3.9673999716825508c 2.1911345008393948,4.025048779431447e-16 3.9673999716825508,-1.7762654708431551 3.9673999716825517 -3.9673999716825494Z" /></g></g></g><g fill="rgb(245,180,86)" fill-opacity="1.0" stroke-width="0.0"><g fill="rgb(245,180,86)" fill-opacity="1.0"><g fill="rgb(245,180,86)" fill-opacity="1.0"><path d="M 167.86719488586857,640.0002768834088 c 0.0,-2.1712182953741337 -1.7601201962994852,-3.9313384916736194 -3.9313384916736185 -3.9313384916736194c -2.1712182953741337,-1.3294877678400526e-16 -3.9313384916736194,1.760120196299485 -3.9313384916736194 3.931338491673618c -2.658975535680105e-16,2.1712182953741337 1.7601201962994848,3.9313384916736194 3.9313384916736176 3.9313384916736194c 2.1712182953741337,3.988463303520158e-16 3.9313384916736194,-1.7601201962994846 3.9313384916736203 -3.931338491673618Z" /></g></g></g><g fill="rgb(241,237,226)" fill-opacity="1.0" stroke-width="0.0"><g fill="rgb(241,237,226)" fill-opacity="1.0"><g fill="rgb(241,237,226)" fill-opacity="1.0"><path d="M 342.64448696600374,360.2749938663817 c 0.0,-2.3003160104576135 -1.8647745721854412,-4.165090582643055 -4.165090582643054 -4.165090582643055c -2.3003160104576135,-1.4085373196171628e-16 -4.165090582643055,1.864774572185441 -4.165090582643055 4.165090582643053c -2.8170746392343256e-16,2.3003160104576135 1.8647745721854407,4.165090582643055 4.165090582643053 4.165090582643055c 2.3003160104576135,4.225611958851488e-16 4.165090582643055,-1.8647745721854405 4.165090582643057 -4.165090582643053Z" /></g></g></g><g fill="rgb(235,86,92)" fill-opacity="1.0" stroke-width="0.0"><g fill="rgb(235,86,92)" fill-opacity="1.0"><g fill="rgb(235,86,92)" fill-opacity="1.0"><path d="M 251.9119696400069,282.2506941186401 c 0.0,-0.8381120969900748 -0.67942409651672,-1.517536193506795 -1.5175361935067946 -1.517536193506795c -0.8381120969900748,-5.131956484527856e-17 -1.517536193506795,0.6794240965167199 -1.517536193506795 1.5175361935067946c -1.0263912969055712e-16,0.8381120969900748 0.6794240965167199,1.517536193506795 1.5175361935067944 1.517536193506795c 0.8381120969900748,1.5395869453583568e-16 1.517536193506795,-0.6794240965167198 1.5175361935067953 -1.5175361935067946Z" /></g></g></g><g fill="rgb(191,49,49)" fill-opacity="1.0" stroke-width="0.0"><g fill="rgb(191,49,49)" fill-opacity="1.0"><g fill="rgb(191,49,49)" fill-opacity="1.0"><path d="M 385.85462653263744,395.6391816008779 c 0.0,-1.3045440268222457 -1.057541884878061,-2.362085911700307 -2.3620859117003064 -2.362085911700307c -1.3045440268222457,-7.988028333973309e-17 -2.362085911700307,1.057541884878061 -2.362085911700307 2.362085911700306c -1.5976056667946618e-16,1.3045440268222457 1.0575418848780607,2.362085911700307 2.362085911700306 2.362085911700307c 1.3045440268222457,2.396408500191993e-16 2.362085911700307,-1.0575418848780604 2.3620859117003077 -2.362085911700306Z" /></g></g></g><g fill="rgb(245,180,86)" fill-opacity="1.0" stroke-width="0.0"><g fill="rgb(245,180,86)" fill-opacity="1.0"><g fill="rgb(245,180,86)" fill-opacity="1.0"><path d="M 84.9208682056188,593.1311657567512 c 0.0,-1.7335681386620867 -1.4053346450798316,-3.138902783741919 -3.138902783741918 -3.138902783741919c -1.7335681386620867,-1.0615043360581797e-16 -3.138902783741919,1.4053346450798314 -3.138902783741919 3.138902783741918c -2.1230086721163595e-16,1.7335681386620867 1.4053346450798314,3.138902783741919 3.1389027837419174 3.138902783741919c 1.7335681386620867,3.184513008174539e-16 3.138902783741919,-1.4053346450798312 3.1389027837419192 -3.138902783741918Z" /></g></g></g><g fill="rgb(240,162,188)" fill-opacity="1.0" stroke-width="0.0"><g fill="rgb(240,162,188)" fill-opacity="1.0"><g fill="rgb(240,162,188)" fill-opacity="1.0"><path d="M 528.4721259270523,662.0697768384485 c 0.0,-1.0108048749712573 -0.8194192535800798,-1.8302241285513374 -1.830224128551337 -1.8302241285513374c -1.0108048749712573,-6.189394773480454e-17 -1.8302241285513374,0.8194192535800797 -1.8302241285513374 1.8302241285513368c -1.237878954696091e-16,1.0108048749712573 0.8194192535800797,1.8302241285513374 1.8302241285513365 1.8302241285513374c 1.0108048749712573,1.8568184320441362e-16 1.8302241285513374,-0.8194192535800796 1.8302241285513379 -1.8302241285513368Z" /></g></g></g><g fill="rgb(191,49,49)" fill-opacity="1.0" stroke-width="0.0"><g fill="rgb(191,49,49)" fill-opacity="1.0"><g fill="rgb(191,49,49)" fill-opacity="1.0"><path d="M 427.56998534748436,617.7908022346974 c 0.0,-1.3125091521049355 -1.0639988947079742,-2.37650804681291 -2.3765080468129094 -2.37650804681291c -1.3125091521049355,-8.036800659884578e-17 -2.37650804681291,1.063998894707974 -2.37650804681291 2.376508046812909c -1.6073601319769156e-16,1.3125091521049355 1.063998894707974,2.37650804681291 2.376508046812909 2.37650804681291c 1.3125091521049355,2.4110401979653737e-16 2.37650804681291,-1.0639988947079737 2.37650804681291 -2.376508046812909Z" /></g></g></g><g fill="rgb(240,162,188)" fill-opacity="1.0" stroke-width="0.0"><g fill="rgb(240,162,188)" fill-opacity="1.0"><g fill="rgb(240,162,188)" fill-opacity="1.0"><path d="M 133.96931085797453,459.3877009539379 c 0.0,-1.3985544197907225 -1.133752366190975,-2.5323067859816977 -2.5323067859816972 -2.5323067859816977c -1.3985544197907225,-8.56367596815046e-17 -2.5323067859816977,1.1337523661909747 -2.5323067859816977 2.532306785981697c -1.712735193630092e-16,1.3985544197907225 1.1337523661909745,2.5323067859816977 2.5323067859816963 2.5323067859816977c 1.3985544197907225,2.569102790445138e-16 2.5323067859816977,-1.1337523661909745 2.532306785981699 -2.532306785981697Z" /></g></g></g><g fill="rgb(191,49,49)" fill-opacity="1.0" stroke-width="0.0"><g fill="rgb(191,49,49)" fill-opacity="1.0"><g fill="rgb(191,49,49)" fill-opacity="1.0"><path d="M 347.93482979555995,670.8836298772756 c 0.0,-1.3520284494858825 -1.0960356151114306,-2.4480640645973133 -2.448064064597313 -2.4480640645973133c -1.3520284494858825,-8.278786565095224e-17 -2.4480640645973133,1.0960356151114303 -2.4480640645973133 2.4480640645973124c -1.6557573130190448e-16,1.3520284494858825 1.09603561511143,2.4480640645973133 2.4480640645973124 2.4480640645973133c 1.3520284494858825,2.4836359695285673e-16 2.4480640645973133,-1.09603561511143 2.4480640645973133 -2.4480640645973124Z" /></g></g></g><g fill="rgb(240,162,188)" fill-opacity="1.0" stroke-width="0.0"><g fill="rgb(240,162,188)" fill-opacity="1.0"><g fill="rgb(240,162,188)" fill-opacity="1.0"><path d="M 421.076344284952,494.0281934527191 c 0.0,-1.416825601948361 -1.1485640858575064,-2.5653896878058675 -2.565389687805867 -2.5653896878058675c -1.416825601948361,-8.675554691880411e-17 -2.5653896878058675,1.1485640858575061 -2.5653896878058675 2.5653896878058666c -1.7351109383760821e-16,1.416825601948361 1.1485640858575061,2.5653896878058675 2.565389687805866 2.5653896878058675c 1.416825601948361,2.602666407564123e-16 2.5653896878058675,-1.148564085857506 2.565389687805868 -2.5653896878058666Z" /></g></g></g><g fill="rgb(185,161,185)" fill-opacity="1.0" stroke-width="0.0"><g fill="rgb(185,161,185)" fill-opacity="1.0"><g fill="rgb(185,161,185)" fill-opacity="1.0"><path d="M 170.9866047927975,661.9257680501466 c 0.0,-0.709481007931972 -0.5751479957646529,-1.284629003696625 -1.2846290036966248 -1.284629003696625c -0.709481007931972,-4.344318227098637e-17 -1.284629003696625,0.5751479957646528 -1.284629003696625 1.2846290036966246c -8.688636454197273e-17,0.709481007931972 0.5751479957646527,1.284629003696625 1.2846290036966244 1.284629003696625c 0.709481007931972,1.3032954681295912e-16 1.284629003696625,-0.5751479957646527 1.2846290036966257 -1.2846290036966246Z" /></g></g></g><g fill="rgb(97,91,91)" fill-opacity="1.0" stroke-width="0.0"><g fill="rgb(97,91,91)" fill-opacity="1.0"><g fill="rgb(97,91,91)" fill-opacity="1.0"><path d="M 218.99581524449033,366.54229729522694 c 0.0,-1.0604392767873072 -0.8596558862824676,-1.9200951630697751 -1.9200951630697747 -1.9200951630697751c -1.0604392767873072,-6.49331783003855e-17 -1.9200951630697751,0.8596558862824675 -1.9200951630697751 1.9200951630697745c -1.29866356600771e-16,1.0604392767873072 0.8596558862824674,1.9200951630697751 1.9200951630697742 1.9200951630697751c 1.0604392767873072,1.947995349011565e-16 1.9200951630697751,-0.8596558862824673 1.9200951630697756 -1.9200951630697745Z" /></g></g></g><g fill="rgb(235,86,92)" fill-opacity="1.0" stroke-width="0.0"><g fill="rgb(235,86,92)" fill-opacity="1.0"><g fill="rgb(235,86,92)" fill-opacity="1.0"><path d="M 146.93046756696415,608.3787819931405 c 0.0,-1.378971029134277 -1.1178768913573893,-2.4968479204916667 -2.4968479204916663 -2.4968479204916667c -1.378971029134277,-8.443762284731119e-17 -2.4968479204916667,1.1178768913573893 -2.4968479204916667 2.496847920491666c -1.6887524569462239e-16,1.378971029134277 1.117876891357389,2.4968479204916667 2.496847920491666 2.4968479204916667c 1.378971029134277,2.533128685419336e-16 2.4968479204916667,-1.117876891357389 2.4968479204916676 -2.496847920491666Z" /></g></g></g><g fill="rgb(245,180,86)" fill-opacity="1.0" stroke-width="0.0"><g fill="rgb(245,180,86)" fill-opacity="1.0"><g fill="rgb(245,180,86)" fill-opacity="1.0"><path d="M 370.23997136918894,542.5501288006616 c 0.0,-0.5350597469838388 -0.43375162640238635,-0.9688113733862254 -0.9688113733862251 -0.9688113733862254c -0.5350597469838388,-3.276296032481755e-17 -0.9688113733862254,0.4337516264023863 -0.9688113733862254 0.968811373386225c -6.55259206496351e-17,0.5350597469838388 0.43375162640238624,0.9688113733862254 0.9688113733862249 0.9688113733862254c 0.5350597469838388,9.828888097445264e-17 0.9688113733862254,-0.4337516264023862 0.9688113733862256 -0.968811373386225Z" /></g></g></g><g fill="rgb(168,145,120)" fill-opacity="1.0" stroke-width="0.0"><g fill="rgb(168,145,120)" fill-opacity="1.0"><g fill="rgb(168,145,120)" fill-opacity="1.0"><path d="M 37.32345653549072,420.2803401059987 c 0.0,-0.9964075896732012 -0.8077479478071946,-1.804155537480396 -1.8041555374803955 -1.804155537480396c -0.9964075896732012,-6.101236826697075e-17 -1.804155537480396,0.8077479478071945 -1.804155537480396 1.8041555374803953c -1.220247365339415e-16,0.9964075896732012 0.8077479478071944,1.804155537480396 1.804155537480395 1.804155537480396c 0.9964075896732012,1.8303710480091226e-16 1.804155537480396,-0.8077479478071943 1.8041555374803964 -1.8041555374803953Z" /></g></g></g><g fill="rgb(168,145,120)" fill-opacity="1.0" stroke-width="0.0"><g fill="rgb(168,145,120)" fill-opacity="1.0"><g fill="rgb(168,145,120)" fill-opacity="1.0"><path d="M 235.5520450061196,672.614951180685 c 0.0,-0.7352183642794553 -0.5960122454824621,-1.3312306097619175 -1.3312306097619173 -1.3312306097619175c -0.7352183642794553,-4.501914082445938e-17 -1.3312306097619175,0.596012245482462 -1.3312306097619175 1.331230609761917c -9.003828164891876e-17,0.7352183642794553 0.596012245482462,1.3312306097619175 1.3312306097619169 1.3312306097619175c 0.7352183642794553,1.3505742247337813e-16 1.3312306097619175,-0.5960122454824619 1.3312306097619182 -1.331230609761917Z" /></g></g></g><g fill="rgb(240,162,188)" fill-opacity="1.0" stroke-width="0.0"><g fill="rgb(240,162,188)" fill-opacity="1.0"><g fill="rgb(240,162,188)" fill-opacity="1.0"><path d="M 488.21272249112445,456.2676755289427 c 0.0,-0.8723111761011685 -0.7071479278636309,-1.5794591039647996 -1.5794591039647992 -1.5794591039647996c -0.8723111761011685,-5.341365448363796e-17 -1.5794591039647996,0.7071479278636308 -1.5794591039647996 1.5794591039647992c -1.0682730896727592e-16,0.8723111761011685 0.7071479278636307,1.5794591039647996 1.579459103964799 1.5794591039647996c 0.8723111761011685,1.6024096345091388e-16 1.5794591039647996,-0.7071479278636307 1.5794591039647998 -1.5794591039647992Z" /></g></g></g><g fill="rgb(235,86,92)" fill-opacity="1.0" stroke-width="0.0"><g fill="rgb(235,86,92)" fill-opacity="1.0"><g fill="rgb(235,86,92)" fill-opacity="1.0"><path d="M 39.10459692620508,492.8785637960422 c 0.0,-0.9234474867157625 -0.7486020982106439,-1.6720495849264065 -1.672049584926406 -1.6720495849264065c -0.9234474867157625,-5.654485043935632e-17 -1.6720495849264065,0.7486020982106438 -1.6720495849264065 1.6720495849264059c -1.1308970087871264e-16,0.9234474867157625 0.7486020982106437,1.6720495849264065 1.6720495849264059 1.6720495849264065c 0.9234474867157625,1.6963455131806896e-16 1.6720495849264065,-0.7486020982106436 1.6720495849264068 -1.6720495849264059Z" /></g></g></g><g fill="rgb(72,189,190)" fill-opacity="1.0" stroke-width="0.0"><g fill="rgb(72,189,190)" fill-opacity="1.0"><g fill="rgb(72,189,190)" fill-opacity="1.0"><path d="M 437.10402273977877,499.40313725350745 c 0.0,-0.6085209797245962 -0.4933037219551661,-1.1018247016797624 -1.1018247016797622 -1.1018247016797624c -0.6085209797245962,-3.7261163501686907e-17 -1.1018247016797624,0.49330372195516603 -1.1018247016797624 1.101824701679762c -7.452232700337381e-17,0.6085209797245962 0.493303721955166,1.1018247016797624 1.101824701679762 1.1018247016797624c 0.6085209797245962,1.1178349050506073e-16 1.1018247016797624,-0.4933037219551659 1.1018247016797629 -1.101824701679762Z" /></g></g></g><g fill="rgb(185,161,185)" fill-opacity="1.0" stroke-width="0.0"><g fill="rgb(185,161,185)" fill-opacity="1.0"><g fill="rgb(185,161,185)" fill-opacity="1.0"><path d="M 345.00480587470213,488.80562931869844 c 0.0,-0.6003280943786001 -0.48666207611320855,-1.0869901704918088 -1.0869901704918086 -1.0869901704918088c -0.6003280943786001,-3.675949396094914e-17 -1.0869901704918088,0.48666207611320844 -1.0869901704918088 1.0869901704918083c -7.351898792189828e-17,0.6003280943786001 0.4866620761132084,1.0869901704918088 1.0869901704918083 1.0869901704918088c 0.6003280943786001,1.1027848188284742e-16 1.0869901704918088,-0.48666207611320833 1.0869901704918092 -1.0869901704918083Z" /></g></g></g><g fill="rgb(241,237,226)" fill-opacity="1.0" stroke-width="0.0"><g fill="rgb(241,237,226)" fill-opacity="1.0"><g fill="rgb(241,237,226)" fill-opacity="1.0"><path d="M 390.1398313389488,680.3689509731003 c 0.0,-0.5415942868338565 -0.43904891759970366,-0.9806432044335602 -0.98064320443356 -0.9806432044335602c -0.5415942868338565,-3.316308549037879e-17 -0.9806432044335602,0.4390489175997036 -0.9806432044335602 0.9806432044335599c -6.632617098075758e-17,0.5415942868338565 0.43904891759970355,0.9806432044335602 0.9806432044335598 0.9806432044335602c 0.5415942868338565,9.948925647113636e-17 0.9806432044335602,-0.4390489175997035 0.9806432044335605 -0.9806432044335599Z" /></g></g></g><g fill="rgb(97,91,91)" fill-opacity="1.0" stroke-width="0.0"><g fill="rgb(97,91,91)" fill-opacity="1.0"><g fill="rgb(97,91,91)" fill-opacity="1.0"><path d="M 2.2966654595819245,445.8133122603971 c 0.0,-0.6342066543951197 -0.5141260753958533,-1.1483327297909731 -1.148332729790973 -1.1483327297909731c -0.6342066543951197,-3.883395746514675e-17 -1.1483327297909731,0.5141260753958532 -1.1483327297909731 1.1483327297909727c -7.76679149302935e-17,0.6342066543951197 0.5141260753958531,1.1483327297909731 1.1483327297909727 1.1483327297909731c 0.6342066543951197,1.1650187239544026e-16 1.1483327297909731,-0.5141260753958531 1.1483327297909731 -1.1483327297909727Z" /></g></g></g><g fill="rgb(240,162,188)" fill-opacity="1.0" stroke-width="0.0"><g fill="rgb(240,162,188)" fill-opacity="1.0"><g fill="rgb(240,162,188)" fill-opacity="1.0"><path d="M 489.32715528558623,334.33707245795676 c 0.0,-0.6185345200352592 -0.5014213002635323,-1.1199558202987916 -1.1199558202987914 -1.1199558202987916c -0.6185345200352592,-3.787431600616623e-17 -1.1199558202987916,0.5014213002635323 -1.1199558202987916 1.1199558202987911c -7.574863201233246e-17,0.6185345200352592 0.5014213002635322,1.1199558202987916 1.1199558202987911 1.1199558202987916c 0.6185345200352592,1.1362294801849867e-16 1.1199558202987916,-0.501421300263532 1.119955820298792 -1.1199558202987911Z" /></g></g></g><g fill="rgb(173,210,116)" fill-opacity="1.0" stroke-width="0.0"><g fill="rgb(173,210,116)" fill-opacity="1.0"><g fill="rgb(173,210,116)" fill-opacity="1.0"><path d="M 487.87760468729635,1020.576819156052 c 0.0,-0.5829417818516741 -0.472567685013513,-1.0555094668651872 -1.055509466865187 -1.0555094668651872c -0.5829417818516741,-3.569488936169536e-17 -1.0555094668651872,0.47256768501351293 -1.0555094668651872 1.0555094668651868c -7.138977872339073e-17,0.5829417818516741 0.4725676850135129,1.0555094668651872 1.0555094668651868 1.0555094668651872c 0.5829417818516741,1.070846680850861e-16 1.0555094668651872,-0.4725676850135128 1.0555094668651877 -1.0555094668651868Z" /></g></g></g><g fill="rgb(173,210,116)" fill-opacity="1.0" stroke-width="0.0"><g fill="rgb(173,210,116)" fill-opacity="1.0"><g fill="rgb(173,210,116)" fill-opacity="1.0"><path d="M 23.93639358319789,438.1058878634019 c 0.0,-0.8966740322501602 -0.7268979250144195,-1.62357195726458 -1.6235719572645795 -1.62357195726458c -0.8966740322501602,-5.490544917368546e-17 -1.62357195726458,0.7268979250144194 -1.62357195726458 1.6235719572645795c -1.0981089834737092e-16,0.8966740322501602 0.7268979250144194,1.62357195726458 1.6235719572645793 1.62357195726458c 0.8966740322501602,1.6471634752105638e-16 1.62357195726458,-0.7268979250144193 1.6235719572645801 -1.6235719572645795Z" /></g></g></g><g fill="rgb(245,180,86)" fill-opacity="1.0" stroke-width="0.0"><g fill="rgb(245,180,86)" fill-opacity="1.0"><g fill="rgb(245,180,86)" fill-opacity="1.0"><path d="M 587.9830559547047,0.8725164182858407 c 0.0,-0.4818775117962875 -0.39063890648961114,-0.8725164182858988 -0.8725164182858985 -0.8725164182858988c -0.4818775117962875,-2.950648762012072e-17 -0.8725164182858988,0.3906389064896111 -0.8725164182858988 0.8725164182858984c -5.901297524024144e-17,0.4818775117962875 0.390638906489611,0.8725164182858988 0.8725164182858984 0.8725164182858988c 0.4818775117962875,8.851946286036217e-17 0.8725164182858988,-0.39063890648961097 0.8725164182858989 -0.8725164182858984Z" /></g></g></g><g fill="rgb(235,86,92)" fill-opacity="1.0" stroke-width="0.0"><g fill="rgb(235,86,92)" fill-opacity="1.0"><g fill="rgb(235,86,92)" fill-opacity="1.0"><path d="M 498.31036361566544,509.7960993285971 c 0.0,-0.7012571875160424 -0.568481272093589,-1.2697384596096315 -1.2697384596096313 -1.2697384596096315c -0.7012571875160424,-4.293961850352982e-17 -1.2697384596096315,0.5684812720935889 -1.2697384596096315 1.269738459609631c -8.587923700705965e-17,0.7012571875160424 0.5684812720935889,1.2697384596096315 1.2697384596096308 1.2697384596096315c 0.7012571875160424,1.2881885551058948e-16 1.2697384596096315,-0.5684812720935888 1.2697384596096322 -1.269738459609631Z" /></g></g></g><g fill="rgb(185,161,185)" fill-opacity="1.0" stroke-width="0.0"><g fill="rgb(185,161,185)" fill-opacity="1.0"><g fill="rgb(185,161,185)" fill-opacity="1.0"><path d="M 346.7071030155088,496.3750034594936 c 0.0,-0.5370425212828465 -0.43535898255622046,-0.9724015038390671 -0.9724015038390669 -0.9724015038390671c -0.5370425212828465,-3.288437023475311e-17 -0.9724015038390671,0.4353589825562204 -0.9724015038390671 0.9724015038390668c -6.576874046950622e-17,0.5370425212828465 0.43535898255622035,0.9724015038390671 0.9724015038390666 0.9724015038390671c 0.5370425212828465,9.865311070425934e-17 0.9724015038390671,-0.4353589825562203 0.9724015038390673 -0.9724015038390668Z" /></g></g></g><g fill="rgb(168,145,120)" fill-opacity="1.0" stroke-width="0.0"><g fill="rgb(168,145,120)" fill-opacity="1.0"><g fill="rgb(168,145,120)" fill-opacity="1.0"><path d="M 600.6362928535926,673.4980925901571 c 0.0,-0.24008197397275846 -0.19462489426199486,-0.43470686823475335 -0.43470686823475324 -0.43470686823475335c -0.24008197397275846,-1.4700781047935838e-17 -0.43470686823475335,0.19462489426199484 -0.43470686823475335 0.4347068682347532c -2.9401562095871676e-17,0.24008197397275846 0.1946248942619948,0.43470686823475335 0.4347068682347532 0.43470686823475335c 0.24008197397275846,4.410234314380752e-17 0.43470686823475335,-0.19462489426199478 0.4347068682347534 -0.4347068682347532Z" /></g></g></g><g fill="rgb(97,91,91)" fill-opacity="1.0" stroke-width="0.0"><g fill="rgb(97,91,91)" fill-opacity="1.0"><g fill="rgb(97,91,91)" fill-opacity="1.0"><path d="M 800.0,66.32702182062928 c 0.0,-0.26924993967472854 -0.21827020234842187,-0.48752014202315047 -0.48752014202315036 -0.48752014202315047c -0.26924993967472854,-1.6486803839663712e-17 -0.48752014202315047,0.21827020234842184 -0.48752014202315047 0.4875201420231503c -3.2973607679327423e-17,0.26924993967472854 0.21827020234842182,0.48752014202315047 0.48752014202315025 0.48752014202315047c 0.26924993967472854,4.946041151899114e-17 0.48752014202315047,-0.2182702023484218 0.4875201420231506 -0.4875201420231503Z" /></g></g></g><g fill="rgb(209,95,105)" fill-opacity="1.0" stroke-width="0.0"><g fill="rgb(209,95,105)" fill-opacity="1.0"><g fill="rgb(209,95,105)" fill-opacity="1.0"><path d="M 744.3578307384033,437.97600621683034 c 0.0,-0.6132104414763472 -0.49710528182439545,-1.1103157233007428 -1.1103157233007426 -1.1103157233007428c -0.6132104414763472,-3.75483102178872e-17 -1.1103157233007428,0.4971052818243954 -1.1103157233007428 1.1103157233007424c -7.50966204357744e-17,0.6132104414763472 0.49710528182439534,1.1103157233007428 1.1103157233007424 1.1103157233007428c 0.6132104414763472,1.126449306536616e-16 1.1103157233007428,-0.4971052818243953 1.1103157233007432 -1.1103157233007424Z" /></g></g></g><g fill="rgb(245,180,86)" fill-opacity="1.0" stroke-width="0.0"><g fill="rgb(245,180,86)" fill-opacity="1.0"><g fill="rgb(245,180,86)" fill-opacity="1.0"><path d="M 221.9640418107158,732.6248177635093 c 0.0,-0.5364310184498003 -0.43486326156453947,-0.9712942800143399 -0.9712942800143397 -0.9712942800143399c -0.5364310184498003,-3.284692648539514e-17 -0.9712942800143399,0.4348632615645394 -0.9712942800143399 0.9712942800143396c -6.569385297079028e-17,0.5364310184498003 0.43486326156453936,0.9712942800143399 0.9712942800143395 0.9712942800143399c 0.5364310184498003,9.854077945618541e-17 0.9712942800143399,-0.4348632615645393 0.9712942800143402 -0.9712942800143396Z" /></g></g></g><g fill="rgb(241,237,226)" fill-opacity="1.0" stroke-width="0.0"><g fill="rgb(241,237,226)" fill-opacity="1.0"><g fill="rgb(241,237,226)" fill-opacity="1.0"><path d="M 645.164490031004,566.4312658084576 c 0.0,-0.5807097790137501 -0.47075828920950846,-1.0514680682232587 -1.0514680682232584 -1.0514680682232587c -0.5807097790137501,-3.555821860513779e-17 -1.0514680682232587,0.4707582892095084 -1.0514680682232587 1.0514680682232582c -7.111643721027558e-17,0.5807097790137501 0.47075828920950835,1.0514680682232587 1.0514680682232582 1.0514680682232587c 0.5807097790137501,1.0667465581541337e-16 1.0514680682232587,-0.4707582892095083 1.0514680682232587 -1.0514680682232582Z" /></g></g></g><g fill="rgb(240,162,188)" fill-opacity="1.0" stroke-width="0.0"><g fill="rgb(240,162,188)" fill-opacity="1.0"><g fill="rgb(240,162,188)" fill-opacity="1.0"><path d="M 650.1811307118206,166.52412865379506 c 0.0,-0.5273526826595422 -0.4275038163133338,-0.954856498972876 -0.9548564989728758 -0.954856498972876c -0.5273526826595422,-3.229103874203891e-17 -0.954856498972876,0.4275038163133338 -0.954856498972876 0.9548564989728757c -6.458207748407782e-17,0.5273526826595422 0.42750381631333373,0.954856498972876 0.9548564989728756 0.954856498972876c 0.5273526826595422,9.687311622611672e-17 0.954856498972876,-0.4275038163133337 0.9548564989728763 -0.9548564989728757Z" /></g></g></g><g fill="rgb(185,161,185)" fill-opacity="1.0" stroke-width="0.0"><g fill="rgb(185,161,185)" fill-opacity="1.0"><g fill="rgb(185,161,185)" fill-opacity="1.0"><path d="M 218.2774493661206,990.376752268918 c 0.0,-0.16185405170548164 -0.13120863335882577,-0.29306268506430744 -0.2930626850643074 -0.29306268506430744c -0.16185405170548164,-9.910702317507414e-18 -0.29306268506430744,0.13120863335882574 -0.29306268506430744 0.2930626850643073c -1.982140463501483e-17,0.16185405170548164 0.13120863335882574,0.29306268506430744 0.2930626850643073 0.29306268506430744c 0.16185405170548164,2.9732106952522243e-17 0.29306268506430744,-0.1312086333588257 0.29306268506430755 -0.2930626850643073Z" /></g></g></g></g></g></g></svg>