<?xml version="1.0" encoding="UTF-8"?>
<!DOCTYPE svg PUBLIC "-//W3C//DTD SVG 1.1//EN"
    "http://www.w3.org/Graphics/SVG/1.1/DTD/svg11.dtd">
<svg xmlns="http://www.w3.org/2000/svg" xmlns:xlink="http://www.w3.org/1999/xlink" version="1.1" width="800.0" height="762.2961949068698" font-size="1" viewBox="0 0 800 762" stroke="rgb(0,0,0)" stroke-opacity="1"><g><g fill="rgb(0,0,0)" fill-opacity="0.0"><g stroke="rgb(0,0,0)" stroke-opacity="1.0" stroke-width="3.1236823293683256" stroke-linecap="butt" stroke-linejoin="miter" font-size="1.0em" stroke-miterlimit="10.0"><g fill="rgb(240,162,188)" fill-opacity="1.0" stroke-width="0.0"><g fill="rgb(240,162,188)" fill-opacity="1.0"><g fill="rgb(240,162,188)" fill-opacity="1.0"><path d="M 507.3312739272632,342.17889670080285 c 0.0,-17.79387834626176 -14.424788476809795,-32.21866682307156 -32.21866682307155 -32.21866682307156c -17.79387834626176,-1.089560808058343e-15 -32.21866682307156,14.424788476809793 -32.21866682307156 32.218666823071544c -2.179121616116686e-15,17.79387834626176 14.424788476809791,32.21866682307156 32.218666823071544 32.21866682307156c 17.79387834626176,3.2686824241750294e-15 32.21866682307156,-14.42478847680979 32.21866682307157 -32.218666823071544Z" /></g></g></g><g fill="rgb(185,161,185)" fill-opacity="1.0" stroke-width="0.0"><g fill="rgb(185,161,185)" fill-opacity="1.0"><g fill="rgb(185,161,185)" fill-opacity="1.0"><path d="M 602.4583066334254,326.8655955921224 c 0.0,-23.773510468591645 -19.272238080277873,-43.045748548869526 -43.04574854886952 -43.045748548869526c -23.773510468591645,-1.4557076749928426e-15 -43.045748548869526,19.272238080277873 -43.045748548869526 43.04574854886951c -2.9114153499856853e-15,23.773510468591645 19.27223808027787,43.045748548869526 43.045748548869504 43.045748548869526c 23.773510468591645,4.367123024978528e-15 43.045748548869526,-19.272238080277866 43.04574854886955 -43.04574854886951Z" /></g></g></g><g fill="rgb(185,161,185)" fill-opacity="1.0" stroke-width="0.0"><g fill="rgb(185,161,185)" fill-opacity="1.0"><g fill="rgb(185,161,185)" fill-opacity="1.0"><path d="M 475.07771576887257,284.1828074863741 c 0.0,-11.82655096236084 -9.587313834710244,-21.413864797071085 -21.41386479707108 -21.413864797071085c -11.82655096236084,-7.241673890504125e-16 -21.413864797071085,9.587313834710242 -21.413864797071085 21.413864797071078c -1.448334778100825e-15,11.82655096236084 9.587313834710242,21.413864797071085 21.413864797071074 21.413864797071085c 11.82655096236084,2.1725021671512376e-15 21.413864797071085,-9.58731383471024 21.413864797071096 -21.413864797071078Z" /></g></g></g><g fill="rgb(209,95,105)" fill-opacity="1.0" stroke-width="0.0"><g fill="rgb(209,95,105)" fill-opacity="1.0"><g fill="rgb(209,95,105)" fill-opacity="1.0"><path d="M 439.90693833765175,326.48795803926384 c 0.0,-3.0637236463110407 -2.4836387374044073,-5.547362383715448 -5.5473623837154475 -5.547362383715448c -3.0637236463110407,-1.8759896784634366e-16 -5.547362383715448,2.483638737404407 -5.547362383715448 5.547362383715447c -3.751979356926873e-16,3.0637236463110407 2.483638737404407,5.547362383715448 5.547362383715446 5.547362383715448c 3.0637236463110407,5.627969035390309e-16 5.547362383715448,-2.4836387374044064 5.547362383715451 -5.547362383715447Z" /></g></g></g><g fill="rgb(97,91,91)" fill-opacity="1.0" stroke-width="0.0"><g fill="rgb(97,91,91)" fill-opacity="1.0"><g fill="rgb(97,91,91)" fill-opacity="1.0"><path d="M 424.35823745449255,366.2719345971281 c 0.0,-17.775928677142748 -14.410237394958385,-32.18616607210114 -32.18616607210113 -32.18616607210114c -17.775928677142748,-1.0884617078167255e-15 -32.18616607210114,14.410237394958383 -32.18616607210114 32.18616607210112c -2.176923415633451e-15,17.775928677142748 14.410237394958381,32.18616607210114 32.18616607210112 32.18616607210114c 17.775928677142748,3.2653851234501767e-15 32.18616607210114,-14.41023739495838 32.18616607210114 -32.18616607210112Z" /></g></g></g><g fill="rgb(97,91,91)" fill-opacity="1.0" stroke-width="0.0"><g fill="rgb(97,91,91)" fill-opacity="1.0"><g fill="rgb(97,91,91)" fill-opacity="1.0"><path d="M 502.10216139863894,401.91307843934584 c 0.0,-11.796681832997095 -9.563100121169319,-21.359781954166415 -21.35978195416641 -21.359781954166415c -11.796681832997095,-7.223384323669812e-16 -21.359781954166415,9.563100121169317 -21.359781954166415 21.359781954166408c -1.4446768647339624e-15,11.796681832997095 9.563100121169315,21.359781954166415 21.359781954166404 21.359781954166415c 11.796681832997095,2.1670152971009436e-15 21.359781954166415,-9.563100121169315 21.359781954166426 -21.359781954166408Z" /></g></g></g><g fill="rgb(97,91,91)" fill-opacity="1.0" stroke-width="0.0"><g fill="rgb(97,91,91)" fill-opacity="1.0"><g fill="rgb(97,91,91)" fill-opacity="1.0"><path d="M 505.98833560131,276.5446655595678 c 0.0,-1.5050003167374455 -1.2200438152950623,-2.725044132032508 -2.7250441320325076 -2.725044132032508c -1.5050003167374455,-9.215469103041325e-17 -2.725044132032508,1.2200438152950621 -2.725044132032508 2.725044132032507c -1.843093820608265e-16,1.5050003167374455 1.2200438152950621,2.725044132032508 2.7250441320325067 2.725044132032508c 1.5050003167374455,2.764640730912398e-16 2.725044132032508,-1.220043815295062 2.7250441320325094 -2.725044132032507Z" /></g></g></g><g fill="rgb(191,49,49)" fill-opacity="1.0" stroke-width="0.0"><g fill="rgb(191,49,49)" fill-opacity="1.0"><g fill="rgb(191,49,49)" fill-opacity="1.0"><path d="M 403.60872080611125,282.17015934006025 c 0.0,-11.266709329618635 -9.133472520541954,-20.400181850160592 -20.40018185016059 -20.400181850160592c -11.266709329618635,-6.898869758720542e-16 -20.400181850160592,9.133472520541954 -20.400181850160592 20.400181850160585c -1.3797739517441084e-15,11.266709329618635 9.133472520541952,20.400181850160592 20.400181850160582 20.400181850160592c 11.266709329618635,2.0696609276161625e-15 20.400181850160592,-9.13347252054195 20.400181850160603 -20.400181850160585Z" /></g></g></g><g fill="rgb(185,161,185)" fill-opacity="1.0" stroke-width="0.0"><g fill="rgb(185,161,185)" fill-opacity="1.0"><g fill="rgb(185,161,185)" fill-opacity="1.0"><path d="M 512.9866391268124,295.3356783016265 c 0.0,-8.156248485737988 -6.611945798527262,-14.76819428426525 -14.768194284265247 -14.76819428426525c -8.156248485737988,-4.994261800554737e-16 -14.76819428426525,6.611945798527261 -14.76819428426525 14.768194284265245c -9.988523601109474e-16,8.156248485737988 6.61194579852726,14.76819428426525 14.768194284265244 14.76819428426525c 8.156248485737988,1.4982785401664209e-15 14.76819428426525,-6.611945798527259 14.768194284265254 -14.768194284265245Z" /></g></g></g><g fill="rgb(173,210,116)" fill-opacity="1.0" stroke-width="0.0"><g fill="rgb(173,210,116)" fill-opacity="1.0"><g fill="rgb(173,210,116)" fill-opacity="1.0"><path d="M 451.8052143128099,375.82499675077804 c 0.0,-6.573821241826302 -5.329135057148745,-11.902956298975049 -11.902956298975047 -11.902956298975049c -6.573821241826302,-4.0253045709847293e-16 -11.902956298975049,5.329135057148745 -11.902956298975049 11.902956298975045c -8.050609141969459e-16,6.573821241826302 5.329135057148744,11.902956298975049 11.902956298975043 11.902956298975049c 6.573821241826302,1.2075913712954188e-15 11.902956298975049,-5.3291350571487435 11.902956298975054 -11.902956298975045Z" /></g></g></g><g fill="rgb(235,86,92)" fill-opacity="1.0" stroke-width="0.0"><g fill="rgb(235,86,92)" fill-opacity="1.0"><g fill="rgb(235,86,92)" fill-opacity="1.0"><path d="M 532.702961520989,243.72417928416849 c 0.0,-12.341539477927713 -10.00479451320432,-22.346333991132035 -22.34633399113203 -22.346333991132035c -12.341539477927713,-7.557013409097435e-16 -22.346333991132035,10.004794513204319 -22.346333991132035 22.346333991132028c -1.511402681819487e-15,12.341539477927713 10.004794513204319,22.346333991132035 22.346333991132024 22.346333991132035c 12.341539477927713,2.26710402272923e-15 22.346333991132035,-10.004794513204317 22.346333991132045 -22.346333991132028Z" /></g></g></g><g fill="rgb(191,49,49)" fill-opacity="1.0" stroke-width="0.0"><g fill="rgb(191,49,49)" fill-opacity="1.0"><g fill="rgb(191,49,49)" fill-opacity="1.0"><path d="M 456.5627568650165,423.2657947609583 c 0.0,-11.18311801763076 -9.065708373206562,-20.248826390837323 -20.24882639083732 -20.248826390837323c -11.18311801763076,-6.847684842389301e-16 -20.248826390837323,9.06570837320656 -20.248826390837323 20.248826390837316c -1.3695369684778603e-15,11.18311801763076 9.06570837320656,20.248826390837323 20.248826390837312 20.248826390837323c 11.18311801763076,2.0543054527167905e-15 20.248826390837323,-9.065708373206558 20.248826390837333 -20.248826390837316Z" /></g></g></g><g fill="rgb(173,210,116)" fill-opacity="1.0" stroke-width="0.0"><g fill="rgb(173,210,116)" fill-opacity="1.0"><g fill="rgb(173,210,116)" fill-opacity="1.0"><path d="M 421.2955267767062,231.60232293309508 c 0.0,-9.37404889251692 -7.599168085480205,-16.973216977997126 -16.973216977997122 -16.973216977997126c -9.37404889251692,-5.739949485635818e-16 -16.973216977997126,7.599168085480204 -16.973216977997126 16.97321697799712c -1.1479898971271636e-15,9.37404889251692 7.599168085480203,16.973216977997126 16.97321697799712 16.973216977997126c 9.37404889251692,1.7219848456907453e-15 16.973216977997126,-7.599168085480202 16.973216977997133 -16.97321697799712Z" /></g></g></g><g fill="rgb(245,180,86)" fill-opacity="1.0" stroke-width="0.0"><g fill="rgb(245,180,86)" fill-opacity="1.0"><g fill="rgb(245,180,86)" fill-opacity="1.0"><path d="M 421.08378426083476,307.30552568173584 c 0.0,-6.720694286733372 -5.448199184962936,-12.16889347169631 -12.168893471696306 -12.16889347169631c -6.720694286733372,-4.115238373147964e-16 -12.16889347169631,5.448199184962935 -12.16889347169631 12.168893471696306c -8.230476746295928e-16,6.720694286733372 5.4481991849629345,12.16889347169631 12.168893471696304 12.16889347169631c 6.720694286733372,1.234571511944389e-15 12.16889347169631,-5.4481991849629345 12.168893471696311 -12.168893471696306Z" /></g></g></g><g fill="rgb(191,49,49)" fill-opacity="1.0" stroke-width="0.0"><g fill="rgb(191,49,49)" fill-opacity="1.0"><g fill="rgb(191,49,49)" fill-opacity="1.0"><path d="M 428.32469367054273,258.38675745930965 c 0.0,-1.9782841009152137 -1.6037161290772157,-3.58200022999243 -3.582000229992429 -3.58200022999243c -1.9782841009152137,-1.211349645994958e-16 -3.58200022999243,1.6037161290772155 -3.58200022999243 3.5820002299924285c -2.422699291989916e-16,1.9782841009152137 1.6037161290772153,3.58200022999243 3.582000229992428 3.58200022999243c 1.9782841009152137,3.634048937984874e-16 3.58200022999243,-1.603716129077215 3.5820002299924307 -3.5820002299924285Z" /></g></g></g><g fill="rgb(191,49,49)" fill-opacity="1.0" stroke-width="0.0"><g fill="rgb(191,49,49)" fill-opacity="1.0"><g fill="rgb(191,49,49)" fill-opacity="1.0"><path d="M 532.4828003321469,374.912206686738 c 0.0,-6.706186149383908 -5.436438015847014,-12.142624165230924 -12.14262416523092 -12.142624165230924c -6.706186149383908,-4.1063547011646583e-16 -12.142624165230924,5.436438015847013 -12.142624165230924 12.14262416523092c -8.212709402329317e-16,6.706186149383908 5.436438015847013,12.142624165230924 12.142624165230918 12.142624165230924c 6.706186149383908,1.2319064103493975e-15 12.142624165230924,-5.4364380158470125 12.142624165230925 -12.14262416523092Z" /></g></g></g><g fill="rgb(191,49,49)" fill-opacity="1.0" stroke-width="0.0"><g fill="rgb(191,49,49)" fill-opacity="1.0"><g fill="rgb(191,49,49)" fill-opacity="1.0"><path d="M 455.7336529115228,218.81802358907962 c 0.0,-7.9760406901942416 -6.465858516035705,-14.441899206229948 -14.441899206229944 -14.441899206229948c -7.9760406901942416,-4.883916350557711e-16 -14.441899206229948,6.465858516035704 -14.441899206229948 14.441899206229943c -9.767832701115422e-16,7.9760406901942416 6.465858516035704,14.441899206229948 14.441899206229941 14.441899206229948c 7.9760406901942416,1.4651749051673135e-15 14.441899206229948,-6.465858516035703 14.441899206229952 -14.441899206229943Z" /></g></g></g><g fill="rgb(173,210,116)" fill-opacity="1.0" stroke-width="0.0"><g fill="rgb(173,210,116)" fill-opacity="1.0"><g fill="rgb(173,210,116)" fill-opacity="1.0"><path d="M 484.40022319309526,248.64702914450905 c 0.0,-7.660280134200283 -6.209884009472351,-13.870164143672636 -13.870164143672632 -13.870164143672636c -7.660280134200283,-4.690568773460217e-16 -13.870164143672636,6.20988400947235 -13.870164143672636 13.87016414367263c -9.381137546920434e-16,7.660280134200283 6.20988400947235,13.870164143672636 13.87016414367263 13.870164143672636c 7.660280134200283,1.407170632038065e-15 13.870164143672636,-6.209884009472349 13.870164143672637 -13.87016414367263Z" /></g></g></g><g fill="rgb(72,189,190)" fill-opacity="1.0" stroke-width="0.0"><g fill="rgb(72,189,190)" fill-opacity="1.0"><g fill="rgb(72,189,190)" fill-opacity="1.0"><path d="M 564.6588637279941,262.3462890158592 c 0.0,-7.922660110281609 -6.422585005954024,-14.345245116235635 -14.345245116235631 -14.345245116235635c -7.922660110281609,-4.851230172394395e-16 -14.345245116235635,6.422585005954023 -14.345245116235635 14.34524511623563c -9.70246034478879e-16,7.922660110281609 6.422585005954023,14.345245116235635 14.345245116235628 14.345245116235635c 7.922660110281609,1.4553690517183183e-15 14.345245116235635,-6.422585005954022 14.345245116235638 -14.34524511623563Z" /></g></g></g><g fill="rgb(72,189,190)" fill-opacity="1.0" stroke-width="0.0"><g fill="rgb(72,189,190)" fill-opacity="1.0"><g fill="rgb(72,189,190)" fill-opacity="1.0"><path d="M 538.3354736757457,422.98764859743625 c 0.0,-8.407029149793452 -6.815243694729521,-15.222272844522974 -15.222272844522971 -15.222272844522974c -8.407029149793452,-5.147820669316522e-16 -15.222272844522974,6.815243694729521 -15.222272844522974 15.22227284452297c -1.0295641338633044e-15,8.407029149793452 6.81524369472952,15.222272844522974 15.222272844522967 15.222272844522974c 8.407029149793452,1.5443462007949567e-15 15.222272844522974,-6.815243694729519 15.222272844522978 -15.22227284452297Z" /></g></g></g><g fill="rgb(72,189,190)" fill-opacity="1.0" stroke-width="0.0"><g fill="rgb(72,189,190)" fill-opacity="1.0"><g fill="rgb(72,189,190)" fill-opacity="1.0"><path d="M 446.81962775917185,252.57296122452513 c 0.0,-2.3177923814254724 -1.8789419700763337,-4.1967343515018065 -4.196734351501806 -4.1967343515018065c -2.3177923814254724,-1.419238510500413e-16 -4.1967343515018065,1.8789419700763335 -4.1967343515018065 4.196734351501805c -2.838477021000826e-16,2.3177923814254724 1.8789419700763332,4.1967343515018065 4.196734351501805 4.1967343515018065c 2.3177923814254724,4.2577155315012387e-16 4.1967343515018065,-1.878941970076333 4.196734351501808 -4.196734351501805Z" /></g></g></g><g fill="rgb(168,145,120)" fill-opacity="1.0" stroke-width="0.0"><g fill="rgb(168,145,120)" fill-opacity="1.0"><g fill="rgb(168,145,120)" fill-opacity="1.0"><path d="M 364.9987982227011,312.39515962242706 c 0.0,-10.684909093165574 -8.661830240917375,-19.34673933408295 -19.346739334082947 -19.34673933408295c -10.684909093165574,-6.542619860062834e-16 -19.34673933408295,8.661830240917373 -19.34673933408295 19.346739334082944c -1.3085239720125669e-15,10.684909093165574 8.661830240917373,19.34673933408295 19.346739334082944 19.34673933408295c 10.684909093165574,1.9627859580188504e-15 19.34673933408295,-8.661830240917372 19.34673933408295 -19.346739334082944Z" /></g></g></g><g fill="rgb(240,162,188)" fill-opacity="1.0" stroke-width="0.0"><g fill="rgb(240,162,188)" fill-opacity="1.0"><g fill="rgb(240,162,188)" fill-opacity="1.0"><path d="M 571.0881144488287,394.9030730116085 c 0.0,-2.271330942264876 -1.841277531825267,-4.112608474090144 -4.112608474090143 -4.112608474090144c -2.271330942264876,-1.390789084124511e-16 -4.112608474090144,1.8412775318252668 -4.112608474090144 4.112608474090142c -2.781578168249022e-16,2.271330942264876 1.8412775318252665,4.112608474090144 4.112608474090142 4.112608474090144c 2.271330942264876,4.1723672523735336e-16 4.112608474090144,-1.8412775318252663 4.112608474090144 -4.112608474090142Z" /></g></g></g><g fill="rgb(209,95,105)" fill-opacity="1.0" stroke-width="0.0"><g fill="rgb(209,95,105)" fill-opacity="1.0"><g fill="rgb(209,95,105)" fill-opacity="1.0"><path d="M 487.04093434365717,446.96540232846365 c 0.0,-8.652608094960602 -7.01432476460423,-15.666932859564833 -15.66693285956483 -15.666932859564833c -8.652608094960602,-5.298194403884989e-16 -15.666932859564833,7.014324764604229 -15.666932859564833 15.666932859564827c -1.0596388807769978e-15,8.652608094960602 7.014324764604228,15.666932859564833 15.666932859564826 15.666932859564833c 8.652608094960602,1.5894583211654965e-15 15.666932859564833,-7.014324764604227 15.666932859564836 -15.666932859564827Z" /></g></g></g><g fill="rgb(168,145,120)" fill-opacity="1.0" stroke-width="0.0"><g fill="rgb(168,145,120)" fill-opacity="1.0"><g fill="rgb(168,145,120)" fill-opacity="1.0"><path d="M 616.8472220817656,371.23132960730794 c 0.0,-5.5303359872529985 -4.483223121426641,-10.01355910867964 -10.013559108679638 -10.01355910867964c -5.5303359872529985,-3.386354132499401e-16 -10.01355910867964,4.48322312142664 -10.01355910867964 10.013559108679637c -6.772708264998802e-16,5.5303359872529985 4.48322312142664,10.01355910867964 10.013559108679635 10.01355910867964c 5.5303359872529985,1.0159062397498203e-15 10.01355910867964,-4.483223121426639 10.013559108679646 -10.013559108679637Z" /></g></g></g><g fill="rgb(72,189,190)" fill-opacity="1.0" stroke-width="0.0"><g fill="rgb(72,189,190)" fill-opacity="1.0"><g fill="rgb(72,189,190)" fill-opacity="1.0"><path d="M 430.40848045929744,315.3204478671593 c 0.0,-1.9723684325517226 -1.5989205323454756,-3.5712889648971986 -3.5712889648971977 -3.5712889648971986c -1.9723684325517226,-1.2077273438318745e-16 -3.5712889648971986,1.5989205323454754 -3.5712889648971986 3.5712889648971973c -2.415454687663749e-16,1.9723684325517226 1.5989205323454752,3.5712889648971986 3.571288964897197 3.5712889648971986c 1.9723684325517226,3.623182031495624e-16 3.5712889648971986,-1.598920532345475 3.5712889648971995 -3.5712889648971973Z" /></g></g></g><g fill="rgb(72,189,190)" fill-opacity="1.0" stroke-width="0.0"><g fill="rgb(72,189,190)" fill-opacity="1.0"><g fill="rgb(72,189,190)" fill-opacity="1.0"><path d="M 505.07906822487223,439.4082358801671 c 0.0,-3.68553235326373 -2.987714290596863,-6.673246643860594 -6.673246643860592 -6.673246643860594c -3.68553235326373,-2.2567376997892197e-16 -6.673246643860594,2.9877142905968626 -6.673246643860594 6.673246643860591c -4.513475399578439e-16,3.68553235326373 2.987714290596862,6.673246643860594 6.673246643860591 6.673246643860594c 3.68553235326373,6.770213099367659e-16 6.673246643860594,-2.987714290596862 6.673246643860595 -6.673246643860591Z" /></g></g></g><g fill="rgb(173,210,116)" fill-opacity="1.0" stroke-width="0.0"><g fill="rgb(173,210,116)" fill-opacity="1.0"><g fill="rgb(173,210,116)" fill-opacity="1.0"><path d="M 503.2219803706455,194.4353150502453 c 0.0,-8.8260801625179 -7.154951660689231,-15.981031823207132 -15.981031823207129 -15.981031823207132c -8.8260801625179,-5.404415410022749e-16 -15.981031823207132,7.15495166068923 -15.981031823207132 15.981031823207127c -1.0808830820045498e-15,8.8260801625179 7.154951660689229,15.981031823207132 15.981031823207125 15.981031823207132c 8.8260801625179,1.6213246230068246e-15 15.981031823207132,-7.154951660689228 15.981031823207136 -15.981031823207127Z" /></g></g></g><g fill="rgb(241,237,226)" fill-opacity="1.0" stroke-width="0.0"><g fill="rgb(241,237,226)" fill-opacity="1.0"><g fill="rgb(241,237,226)" fill-opacity="1.0"><path d="M 644.810073090571,304.2486781957072 c 0.0,-8.680063736271972 -7.036581959506031,-15.716645695778006 -15.716645695778002 -15.716645695778006c -8.680063736271972,-5.315006135510243e-16 -15.716645695778006,7.03658195950603 -15.716645695778006 15.716645695778c -1.0630012271020486e-15,8.680063736271972 7.036581959506029,15.716645695778006 15.716645695777999 15.716645695778006c 8.680063736271972,1.594501840653073e-15 15.716645695778006,-7.036581959506028 15.71664569577801 -15.716645695778Z" /></g></g></g><g fill="rgb(191,49,49)" fill-opacity="1.0" stroke-width="0.0"><g fill="rgb(191,49,49)" fill-opacity="1.0"><g fill="rgb(191,49,49)" fill-opacity="1.0"><path d="M 532.696891279562,199.80335281283556 c 0.0,-5.741314283658482 -4.654254823432524,-10.395569107091006 -10.395569107091005 -10.395569107091006c -5.741314283658482,-3.515541080190669e-16 -10.395569107091006,4.654254823432523 -10.395569107091006 10.395569107091003c -7.031082160381338e-16,5.741314283658482 4.654254823432523,10.395569107091006 10.395569107091001 10.395569107091006c 5.741314283658482,1.0546623240572006e-15 10.395569107091006,-4.654254823432522 10.395569107091012 -10.395569107091003Z" /></g></g></g><g fill="rgb(97,91,91)" fill-opacity="1.0" stroke-width="0.0"><g fill="rgb(97,91,91)" fill-opacity="1.0"><g fill="rgb(97,91,91)" fill-opacity="1.0"><path d="M 425.7612927113779,280.5222122039837 c 0.0,-5.170415887980301 -4.191450231923226,-9.361866119903528 -9.361866119903526 -9.361866119903528c -5.170415887980301,-3.1659666337378476e-16 -9.361866119903528,4.191450231923225 -9.361866119903528 9.361866119903524c -6.331933267475695e-16,5.170415887980301 4.191450231923225,9.361866119903528 9.361866119903524 9.361866119903528c 5.170415887980301,9.497899901213542e-16 9.361866119903528,-4.191450231923224 9.361866119903532 -9.361866119903524Z" /></g></g></g><g fill="rgb(185,161,185)" fill-opacity="1.0" stroke-width="0.0"><g fill="rgb(185,161,185)" fill-opacity="1.0"><g fill="rgb(185,161,185)" fill-opacity="1.0"><path d="M 409.4249807617427,415.2155419616357 c 0.0,-4.277447284382073 -3.4675561503362995,-7.745003434718373 -7.745003434718371 -7.745003434718373c -4.277447284382073,-2.619181062670022e-16 -7.745003434718373,3.467556150336299 -7.745003434718373 7.74500343471837c -5.238362125340044e-16,4.277447284382073 3.4675561503362986,7.745003434718373 7.745003434718369 7.745003434718373c 4.277447284382073,7.857543188010065e-16 7.745003434718373,-3.467556150336298 7.745003434718375 -7.74500343471837Z" /></g></g></g><g fill="rgb(245,180,86)" fill-opacity="1.0" stroke-width="0.0"><g fill="rgb(245,180,86)" fill-opacity="1.0"><g fill="rgb(245,180,86)" fill-opacity="1.0"><path d="M 476.69770005800393,546.9671625471202 c 0.0,-3.901302221939788 -3.1626303294027056,-7.063932551342495 -7.063932551342493 -7.063932551342495c -3.901302221939788,-2.388858639302509e-16 -7.063932551342495,3.162630329402705 -7.063932551342495 7.063932551342492c -4.777717278605018e-16,3.901302221939788 3.1626303294027047,7.063932551342495 7.063932551342491 7.063932551342495c 3.901302221939788,7.166575917907527e-16 7.063932551342495,-3.1626303294027047 7.063932551342496 -7.063932551342492Z" /></g></g></g><g fill="rgb(245,180,86)" fill-opacity="1.0" stroke-width="0.0"><g fill="rgb(245,180,86)" fill-opacity="1.0"><g fill="rgb(245,180,86)" fill-opacity="1.0"><path d="M 542.3616743510653,396.8092052976435 c 0.0,-5.456496236422602 -4.423364176334293,-9.879860412756896 -9.879860412756894 -9.879860412756896c -5.456496236422602,-3.3411403252472594e-16 -9.879860412756896,4.423364176334292 -9.879860412756896 9.879860412756893c -6.682280650494519e-16,5.456496236422602 4.4233641763342915,9.879860412756896 9.879860412756893 9.879860412756896c 5.456496236422602,1.0023420975741778e-15 9.879860412756896,-4.4233641763342915 9.879860412756896 -9.879860412756893Z" /></g></g></g><g fill="rgb(173,210,116)" fill-opacity="1.0" stroke-width="0.0"><g fill="rgb(173,210,116)" fill-opacity="1.0"><g fill="rgb(173,210,116)" fill-opacity="1.0"><path d="M 357.06449719290043,283.50911388923146 c 0.0,-3.3724692874748405 -2.7339265319065245,-6.106395819381365 -6.106395819381364 -6.106395819381365c -3.3724692874748405,-2.065041859064409e-16 -6.106395819381365,2.733926531906524 -6.106395819381365 6.106395819381364c -4.130083718128818e-16,3.3724692874748405 2.7339265319065236,6.106395819381365 6.106395819381363 6.106395819381365c 3.3724692874748405,6.195125577193227e-16 6.106395819381365,-2.733926531906523 6.106395819381366 -6.106395819381364Z" /></g></g></g><g fill="rgb(185,161,185)" fill-opacity="1.0" stroke-width="0.0"><g fill="rgb(185,161,185)" fill-opacity="1.0"><g fill="rgb(185,161,185)" fill-opacity="1.0"><path d="M 353.3332958346562,429.54379987339786 c 0.0,-3.9663755395350715 -3.215382676222781,-7.181758215757853 -7.181758215757851 -7.181758215757853c -3.9663755395350715,-2.4287045543539906e-16 -7.181758215757853,3.2153826762227804 -7.181758215757853 7.18175821575785c -4.857409108707981e-16,3.9663755395350715 3.21538267622278,7.181758215757853 7.181758215757849 7.181758215757853c 3.9663755395350715,7.286113663061971e-16 7.181758215757853,-3.2153826762227795 7.181758215757855 -7.18175821575785Z" /></g></g></g><g fill="rgb(185,161,185)" fill-opacity="1.0" stroke-width="0.0"><g fill="rgb(185,161,185)" fill-opacity="1.0"><g fill="rgb(185,161,185)" fill-opacity="1.0"><path d="M 522.3589810143027,283.232901319626 c 0.0,-2.5444712219405394 -2.062701477867128,-4.607172699807668 -4.607172699807667 -4.607172699807668c -2.5444712219405394,-1.558039268736018e-16 -4.607172699807668,2.062701477867128 -4.607172699807668 4.607172699807666c -3.116078537472036e-16,2.5444712219405394 2.0627014778671278,4.607172699807668 4.607172699807666 4.607172699807668c 2.5444712219405394,4.674117806208053e-16 4.607172699807668,-2.0627014778671278 4.60717269980767 -4.607172699807666Z" /></g></g></g><g fill="rgb(241,237,226)" fill-opacity="1.0" stroke-width="0.0"><g fill="rgb(241,237,226)" fill-opacity="1.0"><g fill="rgb(241,237,226)" fill-opacity="1.0"><path d="M 319.5066626353874,428.28100556106136 c 0.0,-4.272068538828024 -3.463195815541494,-7.7352643543695185 -7.735264354369517 -7.7352643543695185c -4.272068538828024,-2.6158875309069244e-16 -7.7352643543695185,3.4631958155414937 -7.7352643543695185 7.735264354369516c -5.231775061813849e-16,4.272068538828024 3.4631958155414932,7.7352643543695185 7.735264354369515 7.7352643543695185c 4.272068538828024,7.847662592720773e-16 7.7352643543695185,-3.463195815541493 7.73526435436952 -7.735264354369516Z" /></g></g></g><g fill="rgb(97,91,91)" fill-opacity="1.0" stroke-width="0.0"><g fill="rgb(97,91,91)" fill-opacity="1.0"><g fill="rgb(97,91,91)" fill-opacity="1.0"><path d="M 382.4437700885382,321.7762695713598 c 0.0,-3.664406726577579 -2.9705885864385113,-6.634995313016091 -6.6349953130160895 -6.634995313016091c -3.664406726577579,-2.2438019842386313e-16 -6.634995313016091,2.970588586438511 -6.634995313016091 6.6349953130160895c -4.487603968477263e-16,3.664406726577579 2.970588586438511,6.634995313016091 6.634995313016089 6.634995313016091c 3.664406726577579,6.731405952715893e-16 6.634995313016091,-2.9705885864385104 6.634995313016092 -6.6349953130160895Z" /></g></g></g><g fill="rgb(72,189,190)" fill-opacity="1.0" stroke-width="0.0"><g fill="rgb(72,189,190)" fill-opacity="1.0"><g fill="rgb(72,189,190)" fill-opacity="1.0"><path d="M 577.8825064920119,436.8886232259031 c 0.0,-3.1526619635098725 -2.5557374889026208,-5.708399452412494 -5.708399452412493 -5.708399452412494c -3.1526619635098725,-1.9304486912029874e-16 -5.708399452412494,2.5557374889026203 -5.708399452412494 5.708399452412492c -3.860897382405975e-16,3.1526619635098725 2.5557374889026203,5.708399452412494 5.7083994524124915 5.708399452412494c 3.1526619635098725,5.791346073608963e-16 5.708399452412494,-2.55573748890262 5.708399452412495 -5.708399452412492Z" /></g></g></g><g fill="rgb(72,189,190)" fill-opacity="1.0" stroke-width="0.0"><g fill="rgb(72,189,190)" fill-opacity="1.0"><g fill="rgb(72,189,190)" fill-opacity="1.0"><path d="M 485.28702511852396,492.53609814391535 c 0.0,-2.874382778619394 -2.330147637076557,-5.2045304156959515 -5.204530415695951 -5.2045304156959515c -2.874382778619394,-1.760051834680258e-16 -5.2045304156959515,2.3301476370765566 -5.2045304156959515 5.20453041569595c -3.520103669360516e-16,2.874382778619394 2.330147637076556,5.2045304156959515 5.204530415695949 5.2045304156959515c 2.874382778619394,5.280155504040774e-16 5.2045304156959515,-2.330147637076556 5.204530415695952 -5.20453041569595Z" /></g></g></g><g fill="rgb(72,189,190)" fill-opacity="1.0" stroke-width="0.0"><g fill="rgb(72,189,190)" fill-opacity="1.0"><g fill="rgb(72,189,190)" fill-opacity="1.0"><path d="M 319.8483681860685,287.98695413004754 c 0.0,-5.256421667044962 -4.261171691553841,-9.517593358598804 -9.517593358598802 -9.517593358598804c -5.256421667044962,-3.2186299847577033e-16 -9.517593358598804,4.261171691553841 -9.517593358598804 9.5175933585988c -6.4372599695154065e-16,5.256421667044962 4.26117169155384,9.517593358598804 9.5175933585988 9.517593358598804c 5.256421667044962,9.65588995427311e-16 9.517593358598804,-4.261171691553839 9.517593358598804 -9.5175933585988Z" /></g></g></g><g fill="rgb(240,162,188)" fill-opacity="1.0" stroke-width="0.0"><g fill="rgb(240,162,188)" fill-opacity="1.0"><g fill="rgb(240,162,188)" fill-opacity="1.0"><path d="M 554.0093442547336,224.56984252145054 c 0.0,-5.87872049656453 -4.765644567590556,-10.644365064155087 -10.644365064155085 -10.644365064155087c -5.87872049656453,-3.599678119599845e-16 -10.644365064155087,4.765644567590555 -10.644365064155087 10.644365064155084c -7.19935623919969e-16,5.87872049656453 4.765644567590555,10.644365064155087 10.644365064155082 10.644365064155087c 5.87872049656453,1.0799034358799535e-15 10.644365064155087,-4.765644567590554 10.644365064155089 -10.644365064155084Z" /></g></g></g><g fill="rgb(241,237,226)" fill-opacity="1.0" stroke-width="0.0"><g fill="rgb(241,237,226)" fill-opacity="1.0"><g fill="rgb(241,237,226)" fill-opacity="1.0"><path d="M 342.2701007783911,269.08206287677535 c 0.0,-3.573548589358297 -2.896933513312734,-6.470482102671031 -6.4704821026710295 -6.470482102671031c -3.573548589358297,-2.1881674207775887e-16 -6.470482102671031,2.8969335133127334 -6.470482102671031 6.4704821026710295c -4.3763348415551773e-16,3.573548589358297 2.896933513312733,6.470482102671031 6.470482102671029 6.470482102671031c 3.573548589358297,6.564502262332766e-16 6.470482102671031,-2.8969335133127325 6.470482102671032 -6.4704821026710295Z" /></g></g></g><g fill="rgb(173,210,116)" fill-opacity="1.0" stroke-width="0.0"><g fill="rgb(173,210,116)" fill-opacity="1.0"><g fill="rgb(173,210,116)" fill-opacity="1.0"><path d="M 401.1620460831776,179.39063766321058 c 0.0,-2.251332035964872 -1.8250652150086972,-4.07639725097357 -4.076397250973569 -4.07639725097357c -2.251332035964872,-1.3785432858311374e-16 -4.07639725097357,1.825065215008697 -4.07639725097357 4.076397250973568c -2.7570865716622747e-16,2.251332035964872 1.8250652150086968,4.07639725097357 4.076397250973568 4.07639725097357c 2.251332035964872,4.135629857493412e-16 4.07639725097357,-1.8250652150086966 4.07639725097357 -4.076397250973568Z" /></g></g></g><g fill="rgb(185,161,185)" fill-opacity="1.0" stroke-width="0.0"><g fill="rgb(185,161,185)" fill-opacity="1.0"><g fill="rgb(185,161,185)" fill-opacity="1.0"><path d="M 352.5256925744778,249.3723936262067 c 0.0,-3.2649175323646906 -2.646738607633709,-5.9116561399984 -5.911656139998399 -5.9116561399984c -3.2649175323646906,-1.9991854027452465e-16 -5.9116561399984,2.6467386076337087 -5.9116561399984 5.9116561399983985c -3.998370805490493e-16,3.2649175323646906 2.6467386076337083,5.9116561399984 5.911656139998398 5.9116561399984c 3.2649175323646906,5.997556208235739e-16 5.9116561399984,-2.646738607633708 5.911656139998401 -5.9116561399983985Z" /></g></g></g><g fill="rgb(191,49,49)" fill-opacity="1.0" stroke-width="0.0"><g fill="rgb(191,49,49)" fill-opacity="1.0"><g fill="rgb(191,49,49)" fill-opacity="1.0"><path d="M 540.0258746695076,453.59023915275844 c 0.0,-1.986339943772881 -1.6102466800320434,-3.596586623804925 -3.596586623804924 -3.596586623804925c -1.986339943772881,-1.216282427079996e-16 -3.596586623804925,1.6102466800320434 -3.596586623804925 3.5965866238049236c -2.432564854159992e-16,1.986339943772881 1.6102466800320432,3.596586623804925 3.596586623804923 3.596586623804925c 1.986339943772881,3.6488472812399885e-16 3.596586623804925,-1.610246680032043 3.5965866238049258 -3.5965866238049236Z" /></g></g></g><g fill="rgb(185,161,185)" fill-opacity="1.0" stroke-width="0.0"><g fill="rgb(185,161,185)" fill-opacity="1.0"><g fill="rgb(185,161,185)" fill-opacity="1.0"><path d="M 344.03266714929146,343.6756625049992 c 0.0,-3.369600438198055 -2.731600870058995,-6.101201308257051 -6.101201308257049 -6.101201308257051c -3.369600438198055,-2.0632851955223832e-16 -6.101201308257051,2.731600870058995 -6.101201308257051 6.101201308257049c -4.1265703910447664e-16,3.369600438198055 2.7316008700589944,6.101201308257051 6.101201308257048 6.101201308257051c 3.369600438198055,6.18985558656715e-16 6.101201308257051,-2.731600870058994 6.1012013082570515 -6.101201308257049Z" /></g></g></g><g fill="rgb(173,210,116)" fill-opacity="1.0" stroke-width="0.0"><g fill="rgb(173,210,116)" fill-opacity="1.0"><g fill="rgb(173,210,116)" fill-opacity="1.0"><path d="M 433.75539928186583,306.0700162327829 c 0.0,-2.0134610420417105 -1.6322326742135103,-3.6456937162552214 -3.6456937162552205 -3.6456937162552214c -2.0134610420417105,-1.2328893101721375e-16 -3.6456937162552214,1.6322326742135103 -3.6456937162552214 3.64569371625522c -2.465778620344275e-16,2.0134610420417105 1.63223267421351,3.6456937162552214 3.6456937162552197 3.6456937162552214c 2.0134610420417105,3.698667930516413e-16 3.6456937162552214,-1.6322326742135098 3.6456937162552223 -3.64569371625522Z" /></g></g></g><g fill="rgb(241,237,226)" fill-opacity="1.0" stroke-width="0.0"><g fill="rgb(241,237,226)" fill-opacity="1.0"><g fill="rgb(241,237,226)" fill-opacity="1.0"><path d="M 558.82039750012,474.6121460113904 c 0.0,-3.2576898302328647 -2.6408793973819495,-5.898569227614815 -5.898569227614814 -5.898569227614815c -3.2576898302328647,-1.9947597116047812e-16 -5.898569227614815,2.6408793973819495 -5.898569227614815 5.898569227614813c -3.9895194232095623e-16,3.2576898302328647 2.640879397381949,5.898569227614815 5.8985692276148125 5.898569227614815c 3.2576898302328647,5.984279134814343e-16 5.898569227614815,-2.6408793973819487 5.898569227614816 -5.898569227614813Z" /></g></g></g><g fill="rgb(168,145,120)" fill-opacity="1.0" stroke-width="0.0"><g fill="rgb(168,145,120)" fill-opacity="1.0"><g fill="rgb(168,145,120)" fill-opacity="1.0"><path d="M 585.8811847691513,528.0379496502788 c 0.0,-2.0140835934025927 -1.6327373518066646,-3.6468209452092575 -3.6468209452092566 -3.6468209452092575c -2.0140835934025927,-1.233270512937842e-16 -3.6468209452092575,1.6327373518066643 -3.6468209452092575 3.646820945209256c -2.466541025875684e-16,2.0140835934025927 1.6327373518066641,3.6468209452092575 3.6468209452092557 3.6468209452092575c 2.0140835934025927,3.699811538813526e-16 3.6468209452092575,-1.632737351806664 3.6468209452092584 -3.646820945209256Z" /></g></g></g><g fill="rgb(241,237,226)" fill-opacity="1.0" stroke-width="0.0"><g fill="rgb(241,237,226)" fill-opacity="1.0"><g fill="rgb(241,237,226)" fill-opacity="1.0"><path d="M 283.56335766444585,241.62533491110065 c 0.0,-1.8121677103154985 -1.4690521873382067,-3.2812198976537057 -3.281219897653705 -3.2812198976537057c -1.8121677103154985,-1.1096326929780317e-16 -3.2812198976537057,1.4690521873382065 -3.2812198976537057 3.281219897653705c -2.2192653859560633e-16,1.8121677103154985 1.4690521873382065,3.2812198976537057 3.2812198976537044 3.2812198976537057c 1.8121677103154985,3.328898078934095e-16 3.2812198976537057,-1.4690521873382063 3.281219897653706 -3.281219897653705Z" /></g></g></g><g fill="rgb(191,49,49)" fill-opacity="1.0" stroke-width="0.0"><g fill="rgb(191,49,49)" fill-opacity="1.0"><g fill="rgb(191,49,49)" fill-opacity="1.0"><path d="M 547.0593040555299,128.35106712054355 c 0.0,-3.893108209158463 -3.15598776959383,-7.049095978752294 -7.049095978752292 -7.049095978752294c -3.893108209158463,-2.383841253540098e-16 -7.049095978752294,3.15598776959383 -7.049095978752294 7.049095978752291c -4.767682507080196e-16,3.893108209158463 3.1559877695938297,7.049095978752294 7.04909597875229 7.049095978752294c 3.893108209158463,7.151523760620293e-16 7.049095978752294,-3.155987769593829 7.0490959787522955 -7.049095978752291Z" /></g></g></g><g fill="rgb(209,95,105)" fill-opacity="1.0" stroke-width="0.0"><g fill="rgb(209,95,105)" fill-opacity="1.0"><g fill="rgb(209,95,105)" fill-opacity="1.0"><path d="M 505.2521070366221,129.99578138794675 c 0.0,-3.2615099358558 -2.6439762048624558,-5.905486140718256 -5.9054861407182555 -5.905486140718256c -3.2615099358558,-1.9970988516665475e-16 -5.905486140718256,2.6439762048624553 -5.905486140718256 5.905486140718255c -3.994197703333095e-16,3.2615099358558 2.643976204862455,5.905486140718256 5.905486140718254 5.905486140718256c 3.2615099358558,5.991296554999643e-16 5.905486140718256,-2.6439762048624544 5.905486140718259 -5.905486140718255Z" /></g></g></g><g fill="rgb(185,161,185)" fill-opacity="1.0" stroke-width="0.0"><g fill="rgb(185,161,185)" fill-opacity="1.0"><g fill="rgb(185,161,185)" fill-opacity="1.0"><path d="M 418.40548327254845,115.01043388684414 c 0.0,-1.6512231135742133 -1.3385808128968824,-2.989803926471096 -2.9898039264710956 -2.989803926471096c -1.6512231135742133,-1.0110825503583933e-16 -2.989803926471096,1.3385808128968824 -2.989803926471096 2.989803926471095c -2.0221651007167866e-16,1.6512231135742133 1.3385808128968821,2.989803926471096 2.9898039264710947 2.989803926471096c 1.6512231135742133,3.03324765107518e-16 2.989803926471096,-1.338580812896882 2.9898039264710965 -2.989803926471095Z" /></g></g></g><g fill="rgb(241,237,226)" fill-opacity="1.0" stroke-width="0.0"><g fill="rgb(241,237,226)" fill-opacity="1.0"><g fill="rgb(241,237,226)" fill-opacity="1.0"><path d="M 405.0638656455124,460.0078764543201 c 0.0,-1.5844296008416499 -1.284433972391325,-2.868863573232975 -2.8688635732329746 -2.868863573232975c -1.5844296008416499,-9.701833195725225e-17 -2.868863573232975,1.2844339723913247 -2.868863573232975 2.868863573232974c -1.940366639145045e-16,1.5844296008416499 1.2844339723913245,2.868863573232975 2.8688635732329737 2.868863573232975c 1.5844296008416499,2.9105499587175673e-16 2.868863573232975,-1.2844339723913245 2.8688635732329764 -2.868863573232974Z" /></g></g></g><g fill="rgb(209,95,105)" fill-opacity="1.0" stroke-width="0.0"><g fill="rgb(209,95,105)" fill-opacity="1.0"><g fill="rgb(209,95,105)" fill-opacity="1.0"><path d="M 438.54747377592423,179.67934083744356 c 0.0,-2.4867317950489536 -2.015894424144727,-4.502626219193681 -4.50262621919368 -4.502626219193681c -2.4867317950489536,-1.5226840665723265e-16 -4.502626219193681,2.0158944241447267 -4.502626219193681 4.5026262191936794c -3.045368133144653e-16,2.4867317950489536 2.0158944241447267,4.502626219193681 4.5026262191936794 4.502626219193681c 2.4867317950489536,4.568052199716979e-16 4.502626219193681,-2.0158944241447263 4.502626219193683 -4.5026262191936794Z" /></g></g></g><g fill="rgb(235,86,92)" fill-opacity="1.0" stroke-width="0.0"><g fill="rgb(235,86,92)" fill-opacity="1.0"><g fill="rgb(235,86,92)" fill-opacity="1.0"><path d="M 517.3276901294711,460.439461708635 c 0.0,-1.7064895580926092 -1.3833831183038252,-3.0898726763964346 -3.0898726763964337 -3.0898726763964346c -1.7064895580926092,-1.0449234875482474e-16 -3.0898726763964346,1.383383118303825 -3.0898726763964346 3.0898726763964337c -2.0898469750964948e-16,1.7064895580926092 1.3833831183038248,3.0898726763964346 3.0898726763964333 3.0898726763964346c 1.7064895580926092,3.134770462644742e-16 3.0898726763964346,-1.3833831183038245 3.089872676396435 -3.0898726763964337Z" /></g></g></g><g fill="rgb(185,161,185)" fill-opacity="1.0" stroke-width="0.0"><g fill="rgb(185,161,185)" fill-opacity="1.0"><g fill="rgb(185,161,185)" fill-opacity="1.0"><path d="M 410.9268201298692,195.05120229677843 c 0.0,-1.2732388153967598 -1.0321639968062728,-2.305402812203033 -2.3054028122030323 -2.305402812203033c -1.2732388153967598,-7.796339199129047e-17 -2.305402812203033,1.0321639968062728 -2.305402812203033 2.305402812203032c -1.5592678398258093e-16,1.2732388153967598 1.0321639968062726,2.305402812203033 2.305402812203032 2.305402812203033c 1.2732388153967598,2.3389017597387143e-16 2.305402812203033,-1.0321639968062726 2.3054028122030337 -2.305402812203032Z" /></g></g></g><g fill="rgb(235,86,92)" fill-opacity="1.0" stroke-width="0.0"><g fill="rgb(235,86,92)" fill-opacity="1.0"><g fill="rgb(235,86,92)" fill-opacity="1.0"><path d="M 301.4887237862379,345.8962062285589 c 0.0,-1.6418907849063344 -1.3310154657358741,-2.972906250642209 -2.9729062506422084 -2.972906250642209c -1.6418907849063344,-1.005368147142539e-16 -2.972906250642209,1.331015465735874 -2.972906250642209 2.972906250642208c -2.010736294285078e-16,1.6418907849063344 1.3310154657358737,2.972906250642209 2.9729062506422075 2.972906250642209c 1.6418907849063344,3.0161044414276167e-16 2.972906250642209,-1.3310154657358735 2.9729062506422093 -2.972906250642208Z" /></g></g></g><g fill="rgb(173,210,116)" fill-opacity="1.0" stroke-width="0.0"><g fill="rgb(173,210,116)" fill-opacity="1.0"><g fill="rgb(173,210,116)" fill-opacity="1.0"><path d="M 710.567867636165,510.27619783196246 c 0.0,-2.1349727105058744 -1.7307373442439222,-3.865710054749797 -3.8657100547497962 -3.865710054749797c -2.1349727105058744,-1.307293748093984e-16 -3.865710054749797,1.730737344243922 -3.865710054749797 3.865710054749796c -2.614587496187968e-16,2.1349727105058744 1.7307373442439218,3.865710054749797 3.8657100547497953 3.865710054749797c 2.1349727105058744,3.9218812442819517e-16 3.865710054749797,-1.7307373442439216 3.865710054749798 -3.865710054749796Z" /></g></g></g><g fill="rgb(173,210,116)" fill-opacity="1.0" stroke-width="0.0"><g fill="rgb(173,210,116)" fill-opacity="1.0"><g fill="rgb(173,210,116)" fill-opacity="1.0"><path d="M 508.0884542421131,574.3064318306633 c 0.0,-2.215520844605517 -1.7960345084696823,-4.0115553530752 -4.011555353075199 -4.0115553530752c -2.215520844605517,-1.3566152553951934e-16 -4.0115553530752,1.796034508469682 -4.0115553530752 4.011555353075198c -2.713230510790387e-16,2.215520844605517 1.7960345084696818,4.0115553530752 4.011555353075198 4.0115553530752c 2.215520844605517,4.06984576618558e-16 4.0115553530752,-1.7960345084696816 4.0115553530752 -4.011555353075198Z" /></g></g></g><g fill="rgb(191,49,49)" fill-opacity="1.0" stroke-width="0.0"><g fill="rgb(191,49,49)" fill-opacity="1.0"><g fill="rgb(191,49,49)" fill-opacity="1.0"><path d="M 376.7989657544423,256.9558031334475 c 0.0,-1.5842192555023697 -1.284263453802451,-2.8684827093048213 -2.868482709304821 -2.8684827093048213c -1.5842192555023697,-9.700545201992901e-17 -2.8684827093048213,1.2842634538024509 -2.8684827093048213 2.8684827093048204c -1.9401090403985802e-16,1.5842192555023697 1.2842634538024509,2.8684827093048213 2.86848270930482 2.8684827093048213c 1.5842192555023697,2.91016356059787e-16 2.8684827093048213,-1.2842634538024507 2.8684827093048226 -2.8684827093048204Z" /></g></g></g><g fill="rgb(241,237,226)" fill-opacity="1.0" stroke-width="0.0"><g fill="rgb(241,237,226)" fill-opacity="1.0"><g fill="rgb(241,237,226)" fill-opacity="1.0"><path d="M 370.6851462072024,226.18487569570993 c 0.0,-1.2498136698666145 -1.0131741643068382,-2.262987834173453 -2.2629878341734524 -2.262987834173453c -1.2498136698666145,-7.652901551663781e-17 -2.262987834173453,1.013174164306838 -2.262987834173453 2.262987834173452c -1.5305803103327563e-16,1.2498136698666145 1.013174164306838,2.262987834173453 2.262987834173452 2.262987834173453c 1.2498136698666145,2.295870465499134e-16 2.262987834173453,-1.0131741643068377 2.2629878341734537 -2.262987834173452Z" /></g></g></g><g fill="rgb(168,145,120)" fill-opacity="1.0" stroke-width="0.0"><g fill="rgb(168,145,120)" fill-opacity="1.0"><g fill="rgb(168,145,120)" fill-opacity="1.0"><path d="M 255.2804450317656,293.8507941732733 c 0.0,-1.3527960081661248 -1.0966578443630068,-2.449453852529132 -2.4494538525291314 -2.449453852529132c -1.3527960081661248,-8.283486506499806e-17 -2.449453852529132,1.0966578443630066 -2.449453852529132 2.449453852529131c -1.6566973012999613e-16,1.3527960081661248 1.0966578443630064,2.449453852529132 2.449453852529131 2.449453852529132c 1.3527960081661248,2.485045951949942e-16 2.449453852529132,-1.0966578443630064 2.4494538525291327 -2.449453852529131Z" /></g></g></g><g fill="rgb(185,161,185)" fill-opacity="1.0" stroke-width="0.0"><g fill="rgb(185,161,185)" fill-opacity="1.0"><g fill="rgb(185,161,185)" fill-opacity="1.0"><path d="M 563.0188650543195,445.01808667202795 c 0.0,-1.7917182405067011 -1.4524746166302007,-3.2441928571369023 -3.2441928571369014 -3.2441928571369023c -1.7917182405067011,-1.0971110041052295e-16 -3.2441928571369023,1.4524746166302007 -3.2441928571369023 3.2441928571369014c -2.194222008210459e-16,1.7917182405067011 1.4524746166302005,3.2441928571369023 3.244192857136901 3.2441928571369023c 1.7917182405067011,3.2913330123156884e-16 3.2441928571369023,-1.4524746166302003 3.2441928571369028 -3.2441928571369014Z" /></g></g></g><g fill="rgb(173,210,116)" fill-opacity="1.0" stroke-width="0.0"><g fill="rgb(173,210,116)" fill-opacity="1.0"><g fill="rgb(173,210,116)" fill-opacity="1.0"><path d="M 550.0329930568165,447.2012225728322 c 0.0,-1.3346227955992667 -1.0819255447417664,-2.4165483403410333 -2.416548340341033 -2.4165483403410333c -1.3346227955992667,-8.17220767349867e-17 -2.4165483403410333,1.0819255447417662 -2.4165483403410333 2.4165483403410324c -1.634441534699734e-16,1.3346227955992667 1.0819255447417662,2.4165483403410333 2.4165483403410324 2.4165483403410333c 1.3346227955992667,2.451662302049601e-16 2.4165483403410333,-1.081925544741766 2.416548340341034 -2.4165483403410324Z" /></g></g></g><g fill="rgb(241,237,226)" fill-opacity="1.0" stroke-width="0.0"><g fill="rgb(241,237,226)" fill-opacity="1.0"><g fill="rgb(241,237,226)" fill-opacity="1.0"><path d="M 464.05321128821913,484.22169307173533 c 0.0,-1.9322480014654857 -1.5663964967892263,-3.4986444982547122 -3.4986444982547114 -3.4986444982547122c -1.9322480014654857,-1.1831606650767886e-16 -3.4986444982547122,1.566396496789226 -3.4986444982547122 3.498644498254711c -2.366321330153577e-16,1.9322480014654857 1.5663964967892259,3.4986444982547122 3.498644498254711 3.4986444982547122c 1.9322480014654857,3.5494819952303656e-16 3.4986444982547122,-1.5663964967892257 3.4986444982547127 -3.498644498254711Z" /></g></g></g><g fill="rgb(245,180,86)" fill-opacity="1.0" stroke-width="0.0"><g fill="rgb(245,180,86)" fill-opacity="1.0"><g fill="rgb(245,180,86)" fill-opacity="1.0"><path d="M 526.4253192681948,274.01425281264596 c 0.0,-1.2416488308349038 -1.0065552544948368,-2.248204085329741 -2.2482040853297405 -2.248204085329741c -1.2416488308349038,-7.602906331735092e-17 -2.248204085329741,1.0065552544948368 -2.248204085329741 2.24820408532974c -1.5205812663470184e-16,1.2416488308349038 1.0065552544948366,2.248204085329741 2.24820408532974 2.248204085329741c 1.2416488308349038,2.2808718995205273e-16 2.248204085329741,-1.0065552544948364 2.248204085329742 -2.24820408532974Z" /></g></g></g><g fill="rgb(72,189,190)" fill-opacity="1.0" stroke-width="0.0"><g fill="rgb(72,189,190)" fill-opacity="1.0"><g fill="rgb(72,189,190)" fill-opacity="1.0"><path d="M 360.94080361609576,464.958964702362 c 0.0,-1.262084864983406 -1.02312193344816,-2.2852067984315663 -2.285206798431566 -2.2852067984315663c -1.262084864983406,-7.728040950771238e-17 -2.2852067984315663,1.0231219334481598 -2.2852067984315663 2.2852067984315654c -1.5456081901542477e-16,1.262084864983406 1.0231219334481598,2.2852067984315663 2.2852067984315654 2.2852067984315663c 1.262084864983406,2.3184122852313712e-16 2.2852067984315663,-1.0231219334481596 2.2852067984315663 -2.2852067984315654Z" /></g></g></g><g fill="rgb(241,237,226)" fill-opacity="1.0" stroke-width="0.0"><g fill="rgb(241,237,226)" fill-opacity="1.0"><g fill="rgb(241,237,226)" fill-opacity="1.0"><path d="M 338.4774648816529,236.94463988721355 c 0.0,-0.9748625796829558 -0.7902822663075042,-1.7651448459904602 -1.7651448459904597 -1.7651448459904602c -0.9748625796829558,-5.969311689086316e-17 -1.7651448459904602,0.7902822663075042 -1.7651448459904602 1.7651448459904595c -1.1938623378172633e-16,0.9748625796829558 0.7902822663075041,1.7651448459904602 1.7651448459904593 1.7651448459904602c 0.9748625796829558,1.790793506725895e-16 1.7651448459904602,-0.790282266307504 1.7651448459904606 -1.7651448459904595Z" /></g></g></g><g fill="rgb(245,180,86)" fill-opacity="1.0" stroke-width="0.0"><g fill="rgb(245,180,86)" fill-opacity="1.0"><g fill="rgb(245,180,86)" fill-opacity="1.0"><path d="M 453.2778812466072,552.8352931195876 c 0.0,-1.120007610909086 -0.9079455622542665,-2.0279531731633527 -2.027953173163352 -2.0279531731633527c -1.120007610909086,-6.858068678602431e-17 -2.0279531731633527,0.9079455622542664 -2.0279531731633527 2.0279531731633518c -1.3716137357204863e-16,1.120007610909086 0.9079455622542663,2.0279531731633527 2.0279531731633518 2.0279531731633527c 1.120007610909086,2.0574206035807295e-16 2.0279531731633527,-0.9079455622542661 2.0279531731633527 -2.0279531731633518Z" /></g></g></g><g fill="rgb(241,237,226)" fill-opacity="1.0" stroke-width="0.0"><g fill="rgb(241,237,226)" fill-opacity="1.0"><g fill="rgb(241,237,226)" fill-opacity="1.0"><path d="M 648.4638749414786,346.27455534163295 c 0.0,-1.9113160466389607 -1.549427794693868,-3.460743841332829 -3.460743841332828 -3.460743841332829c -1.9113160466389607,-1.1703435393376883e-16 -3.460743841332829,1.549427794693868 -3.460743841332829 3.4607438413328278c -2.3406870786753765e-16,1.9113160466389607 1.5494277946938677,3.460743841332829 3.4607438413328278 3.460743841332829c 1.9113160466389607,3.5110306180130645e-16 3.460743841332829,-1.5494277946938675 3.4607438413328295 -3.4607438413328278Z" /></g></g></g><g fill="rgb(168,145,120)" fill-opacity="1.0" stroke-width="0.0"><g fill="rgb(168,145,120)" fill-opacity="1.0"><g fill="rgb(168,145,120)" fill-opacity="1.0"><path d="M 620.8902197951388,361.21834374307923 c 0.0,-1.4538761131813875 -1.178599459658202,-2.63247557283959 -2.6324755728395894 -2.63247557283959c -1.4538761131813875,-8.902423641821906e-17 -2.63247557283959,1.178599459658202 -2.63247557283959 2.632475572839589c -1.7804847283643812e-16,1.4538761131813875 1.1785994596582017,2.63247557283959 2.6324755728395886 2.63247557283959c 1.4538761131813875,2.6707270925465717e-16 2.63247557283959,-1.1785994596582017 2.6324755728395903 -2.632475572839589Z" /></g></g></g><g fill="rgb(245,180,86)" fill-opacity="1.0" stroke-width="0.0"><g fill="rgb(245,180,86)" fill-opacity="1.0"><g fill="rgb(245,180,86)" fill-opacity="1.0"><path d="M 630.8526157651453,342.9571274395138 c 0.0,-1.1503467844342825 -0.9325403218758601,-2.082887106310143 -2.0828871063101424 -2.082887106310143c -1.1503467844342825,-7.043842537334472e-17 -2.082887106310143,0.93254032187586 -2.082887106310143 2.082887106310142c -1.4087685074668945e-16,1.1503467844342825 0.9325403218758599,2.082887106310143 2.082887106310142 2.082887106310143c 1.1503467844342825,2.1131527612003414e-16 2.082887106310143,-0.9325403218758598 2.082887106310143 -2.082887106310142Z" /></g></g></g><g fill="rgb(240,162,188)" fill-opacity="1.0" stroke-width="0.0"><g fill="rgb(240,162,188)" fill-opacity="1.0"><g fill="rgb(240,162,188)" fill-opacity="1.0"><path d="M 360.55241950980553,197.67541646265997 c 0.0,-1.1594432081638124 -0.9399144302990228,-2.0993576384628354 -2.099357638462835 -2.0993576384628354c -1.1594432081638124,-7.099542068354756e-17 -2.0993576384628354,0.9399144302990227 -2.0993576384628354 2.0993576384628345c -1.4199084136709512e-16,1.1594432081638124 0.9399144302990226,2.0993576384628354 2.0993576384628345 2.0993576384628354c 1.1594432081638124,2.1298626205064266e-16 2.0993576384628354,-0.9399144302990224 2.0993576384628354 -2.0993576384628345Z" /></g></g></g><g fill="rgb(191,49,49)" fill-opacity="1.0" stroke-width="0.0"><g fill="rgb(191,49,49)" fill-opacity="1.0"><g fill="rgb(191,49,49)" fill-opacity="1.0"><path d="M 800.0,18.55882203714293 c 0.0,-1.318712040905905 -1.0690273296088992,-2.3877393705148044 -2.387739370514804 -2.3877393705148044c -1.318712040905905,-8.07478239946245e-17 -2.3877393705148044,1.069027329608899 -2.3877393705148044 2.3877393705148036c -1.61495647989249e-16,1.318712040905905 1.069027329608899,2.3877393705148044 2.3877393705148036 2.3877393705148044c 1.318712040905905,2.422434719838735e-16 2.3877393705148044,-1.0690273296088988 2.3877393705148053 -2.3877393705148036Z" /></g></g></g><g fill="rgb(240,162,188)" fill-opacity="1.0" stroke-width="0.0"><g fill="rgb(240,162,188)" fill-opacity="1.0"><g fill="rgb(240,162,188)" fill-opacity="1.0"><path d="M 452.87194950892183,92.63238480334405 c 0.0,-1.780688649762718 -1.4435333667030221,-3.2242220164657405 -3.2242220164657396 -3.2242220164657405c -1.780688649762718,-1.0903573276049673e-16 -3.2242220164657405,1.4435333667030221 -3.2242220164657405 3.2242220164657396c -2.1807146552099347e-16,1.780688649762718 1.443533366703022,3.2242220164657405 3.224222016465739 3.2242220164657405c 1.780688649762718,3.271071982814902e-16 3.2242220164657405,-1.4435333667030217 3.224222016465741 -3.2242220164657396Z" /></g></g></g><g fill="rgb(72,189,190)" fill-opacity="1.0" stroke-width="0.0"><g fill="rgb(72,189,190)" fill-opacity="1.0"><g fill="rgb(72,189,190)" fill-opacity="1.0"><path d="M 639.0819060730505,228.55563758991275 c 0.0,-0.558717700626459 -0.45293018716627176,-1.0116478877927308 -1.0116478877927306 -1.0116478877927308c -0.558717700626459,-3.421159218495811e-17 -1.0116478877927308,0.4529301871662717 -1.0116478877927308 1.0116478877927304c -6.842318436991621e-17,0.558717700626459 0.45293018716627165,1.0116478877927308 1.0116478877927304 1.0116478877927308c 0.558717700626459,1.0263477655487431e-16 1.0116478877927308,-0.4529301871662716 1.0116478877927313 -1.0116478877927304Z" /></g></g></g><g fill="rgb(241,237,226)" fill-opacity="1.0" stroke-width="0.0"><g fill="rgb(241,237,226)" fill-opacity="1.0"><g fill="rgb(241,237,226)" fill-opacity="1.0"><path d="M 671.7314062871161,667.6298469534865 c 0.0,-0.7789764195681141 -0.6314851580995172,-1.4104615776676315 -1.4104615776676312 -1.4104615776676315c -0.7789764195681141,-4.769854894176783e-17 -1.4104615776676315,0.6314851580995171 -1.4104615776676315 1.410461577667631c -9.539709788353565e-17,0.7789764195681141 0.6314851580995171,1.4104615776676315 1.4104615776676308 1.4104615776676315c 0.7789764195681141,1.4309564682530348e-16 1.4104615776676315,-0.631485158099517 1.4104615776676317 -1.410461577667631Z" /></g></g></g><g fill="rgb(168,145,120)" fill-opacity="1.0" stroke-width="0.0"><g fill="rgb(168,145,120)" fill-opacity="1.0"><g fill="rgb(168,145,120)" fill-opacity="1.0"><path d="M 566.4069646534776,451.06185892390647 c 0.0,-0.8671653499006823 -0.7029764115119956,-1.570141761412678 -1.5701417614126776 -1.570141761412678c -0.8671653499006823,-5.309856350436825e-17 -1.570141761412678,0.7029764115119955 -1.570141761412678 1.5701417614126776c -1.061971270087365e-16,0.8671653499006823 0.7029764115119954,1.570141761412678 1.5701417614126774 1.570141761412678c 0.8671653499006823,1.5929569051310477e-16 1.570141761412678,-0.7029764115119953 1.5701417614126782 -1.5701417614126776Z" /></g></g></g><g fill="rgb(185,161,185)" fill-opacity="1.0" stroke-width="0.0"><g fill="rgb(185,161,185)" fill-opacity="1.0"><g fill="rgb(185,161,185)" fill-opacity="1.0"><path d="M 356.1555600429505,265.5390815835359 c 0.0,-0.7921601792670934 -0.6421727070017956,-1.434332886268889 -1.4343328862688889 -1.434332886268889c -0.7921601792670934,-4.850582139757197e-17 -1.434332886268889,0.6421727070017955 -1.434332886268889 1.4343328862688887c -9.701164279514394e-17,0.7921601792670934 0.6421727070017954,1.434332886268889 1.4343328862688884 1.434332886268889c 0.7921601792670934,1.455174641927159e-16 1.434332886268889,-0.6421727070017954 1.4343328862688893 -1.4343328862688887Z" /></g></g></g><g fill="rgb(191,49,49)" fill-opacity="1.0" stroke-width="0.0"><g fill="rgb(191,49,49)" fill-opacity="1.0"><g fill="rgb(191,49,49)" fill-opacity="1.0"><path d="M 625.5911208388482,398.2725726610003 c 0.0,-0.516160635933014 -0.4184308697914387,-0.9345915057244527 -0.9345915057244525 -0.9345915057244527c -0.516160635933014,-3.160572353206139e-17 -0.9345915057244527,0.4184308697914386 -0.9345915057244527 0.9345915057244524c -6.321144706412278e-17,0.516160635933014 0.41843086979143856,0.9345915057244527 0.9345915057244523 0.9345915057244527c 0.516160635933014,9.481717059618417e-17 0.9345915057244527,-0.4184308697914385 0.9345915057244529 -0.9345915057244524Z" /></g></g></g><g fill="rgb(173,210,116)" fill-opacity="1.0" stroke-width="0.0"><g fill="rgb(173,210,116)" fill-opacity="1.0"><g fill="rgb(173,210,116)" fill-opacity="1.0"><path d="M 596.7539081703522,91.19922417165506 c 0.0,-0.8708142925006974 -0.7059344639469386,-1.5767487564476361 -1.5767487564476357 -1.5767487564476361c -0.8708142925006974,-5.33219967981373e-17 -1.5767487564476361,0.7059344639469385 -1.5767487564476361 1.5767487564476357c -1.066439935962746e-16,0.8708142925006974 0.7059344639469384,1.5767487564476361 1.5767487564476355 1.5767487564476361c 0.8708142925006974,1.599659903944119e-16 1.5767487564476361,-0.7059344639469383 1.5767487564476363 -1.5767487564476357Z" /></g></g></g><g fill="rgb(173,210,116)" fill-opacity="1.0" stroke-width="0.0"><g fill="rgb(173,210,116)" fill-opacity="1.0"><g fill="rgb(173,210,116)" fill-opacity="1.0"><path d="M 296.10552547628816,393.113371268276 c 0.0,-0.9667365227121612 -0.7836947955676673,-1.7504313182798286 -1.7504313182798281 -1.7504313182798286c -0.9667365227121612,-5.919553940791453e-17 -1.7504313182798286,0.7836947955676672 -1.7504313182798286 1.750431318279828c -1.1839107881582905e-16,0.9667365227121612 0.7836947955676671,1.7504313182798286 1.7504313182798277 1.7504313182798286c 0.9667365227121612,1.7758661822374358e-16 1.7504313182798286,-0.783694795567667 1.750431318279829 -1.750431318279828Z" /></g></g></g><g fill="rgb(235,86,92)" fill-opacity="1.0" stroke-width="0.0"><g fill="rgb(235,86,92)" fill-opacity="1.0"><g fill="rgb(235,86,92)" fill-opacity="1.0"><path d="M 686.1236145877424,261.59102234884506 c 0.0,-0.40001504649544534 -0.32427626630651074,-0.7242913128019561 -0.724291312801956 -0.7242913128019561c -0.40001504649544534,-2.4493857315071338e-17 -0.7242913128019561,0.3242762663065107 -0.7242913128019561 0.7242913128019559c -4.8987714630142676e-17,0.40001504649544534 0.3242762663065107,0.7242913128019561 0.7242913128019558 0.7242913128019561c 0.40001504649544534,7.348157194521401e-17 0.7242913128019561,-0.32427626630651063 0.7242913128019565 -0.7242913128019559Z" /></g></g></g><g fill="rgb(191,49,49)" fill-opacity="1.0" stroke-width="0.0"><g fill="rgb(191,49,49)" fill-opacity="1.0"><g fill="rgb(191,49,49)" fill-opacity="1.0"><path d="M 450.3701880529725,247.2575466701636 c 0.0,-0.7146212949326235 -0.5793150217075986,-1.2939363166402222 -1.293936316640222 -1.2939363166402222c -0.7146212949326235,-4.37579340720887e-17 -1.2939363166402222,0.5793150217075985 -1.2939363166402222 1.2939363166402218c -8.75158681441774e-17,0.7146212949326235 0.5793150217075985,1.2939363166402222 1.2939363166402216 1.2939363166402222c 0.7146212949326235,1.312738022162661e-16 1.2939363166402222,-0.5793150217075984 1.2939363166402225 -1.2939363166402218Z" /></g></g></g><g fill="rgb(235,86,92)" fill-opacity="1.0" stroke-width="0.0"><g fill="rgb(235,86,92)" fill-opacity="1.0"><g fill="rgb(235,86,92)" fill-opacity="1.0"><path d="M 410.1780979174754,174.84865492607256 c 0.0,-0.5420047110899103 -0.43938163219761894,-0.9813863432875294 -0.9813863432875292 -0.9813863432875294c -0.5420047110899103,-3.318821672795223e-17 -0.9813863432875294,0.4393816321976189 -0.9813863432875294 0.981386343287529c -6.637643345590446e-17,0.5420047110899103 0.43938163219761883,0.9813863432875294 0.9813863432875289 0.9813863432875294c 0.5420047110899103,9.956465018385669e-17 0.9813863432875294,-0.4393816321976188 0.9813863432875296 -0.981386343287529Z" /></g></g></g><g fill="rgb(168,145,120)" fill-opacity="1.0" stroke-width="0.0"><g fill="rgb(168,145,120)" fill-opacity="1.0"><g fill="rgb(168,145,120)" fill-opacity="1.0"><path d="M 717.7061732306676,271.38085693027983 c 0.0,-0.7589848274152038 -0.6152787705706868,-1.3742635979858908 -1.3742635979858906 -1.3742635979858908c -0.7589848274152038,-4.647441697477178e-17 -1.3742635979858908,0.6152787705706868 -1.3742635979858908 1.3742635979858904c -9.294883394954356e-17,0.7589848274152038 0.6152787705706867,1.3742635979858908 1.3742635979858902 1.3742635979858908c 0.7589848274152038,1.3942325092431534e-16 1.3742635979858908,-0.6152787705706866 1.374263597985891 -1.3742635979858904Z" /></g></g></g><g fill="rgb(209,95,105)" fill-opacity="1.0" stroke-width="0.0"><g fill="rgb(209,95,105)" fill-opacity="1.0"><g fill="rgb(209,95,105)" fill-opacity="1.0"><path d="M 210.3820628727332,641.3710407849637 c 0.0,-0.9914791614851459 -0.8037526673656612,-1.7952318288508073 -1.795231828850807 -1.7952318288508073c -0.9914791614851459,-6.071058907670429e-17 -1.7952318288508073,0.8037526673656611 -1.7952318288508073 1.7952318288508067c -1.2142117815340858e-16,0.9914791614851459 0.803752667365661,1.7952318288508073 1.7952318288508065 1.7952318288508073c 0.9914791614851459,1.8213176723011285e-16 1.7952318288508073,-0.8037526673656609 1.7952318288508078 -1.7952318288508067Z" /></g></g></g><g fill="rgb(185,161,185)" fill-opacity="1.0" stroke-width="0.0"><g fill="rgb(185,161,185)" fill-opacity="1.0"><g fill="rgb(185,161,185)" fill-opacity="1.0"><path d="M 498.56239673334017,1.1727130089437878 c 0.0,-0.6476715107678227 -0.5250414981759393,-1.172713008943762 -1.1727130089437618 -1.172713008943762c -0.6476715107678227,-3.965844212803723e-17 -1.172713008943762,0.5250414981759391 -1.172713008943762 1.1727130089437616c -7.931688425607445e-17,0.6476715107678227 0.5250414981759391,1.172713008943762 1.1727130089437616 1.172713008943762c 0.6476715107678227,1.1897532638411167e-16 1.172713008943762,-0.525041498175939 1.1727130089437625 -1.1727130089437616Z" /></g></g></g><g fill="rgb(235,86,92)" fill-opacity="1.0" stroke-width="0.0"><g fill="rgb(235,86,92)" fill-opacity="1.0"><g fill="rgb(235,86,92)" fill-opacity="1.0"><path d="M 177.51744448645067,412.56875567552424 c 0.0,-0.652176947968395 -0.5286938766708984,-1.1808708246392936 -1.1808708246392934 -1.1808708246392936c -0.652176947968395,-3.9934320590359245e-17 -1.1808708246392936,0.5286938766708984 -1.1808708246392936 1.1808708246392932c -7.986864118071849e-17,0.652176947968395 0.5286938766708983,1.1808708246392936 1.1808708246392932 1.1808708246392936c 0.652176947968395,1.1980296177107774e-16 1.1808708246392936,-0.5286938766708983 1.1808708246392936 -1.1808708246392932Z" /></g></g></g><g fill="rgb(185,161,185)" fill-opacity="1.0" stroke-width="0.0"><g fill="rgb(185,161,185)" fill-opacity="1.0"><g fill="rgb(185,161,185)" fill-opacity="1.0"><path d="M 2.5904276746023074,748.1709917281246 c 0.0,-0.715326850111245 -0.5798869871899001,-1.2952138373011453 -1.295213837301145 -1.2952138373011453c -0.715326850111245,-4.3801136866644733e-17 -1.2952138373011453,0.5798869871899001 -1.2952138373011453 1.2952138373011448c -8.760227373328947e-17,0.715326850111245 0.5798869871899,1.2952138373011453 1.2952138373011446 1.2952138373011453c 0.715326850111245,1.314034105999342e-16 1.2952138373011453,-0.5798869871898998 1.295213837301146 -1.2952138373011448Z" /></g></g></g><g fill="rgb(235,86,92)" fill-opacity="1.0" stroke-width="0.0"><g fill="rgb(235,86,92)" fill-opacity="1.0"><g fill="rgb(235,86,92)" fill-opacity="1.0"><path d="M 736.9988086615008,495.86741421272154 c 0.0,-0.3590367847963688 -0.29105682163829893,-0.6500936064346678 -0.6500936064346677 -0.6500936064346678c -0.3590367847963688,-2.198466246385151e-17 -0.6500936064346678,0.29105682163829893 -0.6500936064346678 0.6500936064346676c -4.396932492770302e-17,0.3590367847963688 0.2910568216382989,0.6500936064346678 0.6500936064346675 0.6500936064346678c 0.3590367847963688,6.595398739155453e-17 0.6500936064346678,-0.2910568216382988 0.6500936064346682 -0.6500936064346676Z" /></g></g></g><g fill="rgb(185,161,185)" fill-opacity="1.0" stroke-width="0.0"><g fill="rgb(185,161,185)" fill-opacity="1.0"><g fill="rgb(185,161,185)" fill-opacity="1.0"><path d="M 745.5940516678575,761.2669986193368 c 0.0,-0.5684094141868544 -0.4607868733459828,-1.0291962875328373 -1.029196287532837 -1.0291962875328373c -0.5684094141868544,-3.480503848445767e-17 -1.0291962875328373,0.46078687334598273 -1.0291962875328373 1.0291962875328369c -6.961007696891534e-17,0.5684094141868544 0.4607868733459827,1.0291962875328373 1.0291962875328369 1.0291962875328373c 0.5684094141868544,1.0441511545337301e-16 1.0291962875328373,-0.4607868733459826 1.0291962875328378 -1.0291962875328369Z" /></g></g></g><g fill="rgb(191,49,49)" fill-opacity="1.0" stroke-width="0.0"><g fill="rgb(191,49,49)" fill-opacity="1.0"><g fill="rgb(191,49,49)" fill-opacity="1.0"><path d="M 275.48595929760404,413.1232762398191 c 0.0,-0.6529535965559667 -0.5293234747483119,-1.1822770713042787 -1.1822770713042785 -1.1822770713042787c -0.6529535965559667,-3.998187660070084e-17 -1.1822770713042787,0.5293234747483118 -1.1822770713042787 1.1822770713042783c -7.996375320140168e-17,0.6529535965559667 0.5293234747483118,1.1822770713042787 1.1822770713042783 1.1822770713042787c 0.6529535965559667,1.1994562980210254e-16 1.1822770713042787,-0.5293234747483117 1.1822770713042787 -1.1822770713042783Z" /></g></g></g><g fill="rgb(241,237,226)" fill-opacity="1.0" stroke-width="0.0"><g fill="rgb(241,237,226)" fill-opacity="1.0"><g fill="rgb(241,237,226)" fill-opacity="1.0"><path d="M 440.00071759718554,103.85388735864234 c 0.0,-0.7301433829504996 -0.5918981602465516,-1.3220415431970514 -1.3220415431970511 -1.3220415431970514c -0.7301433829504996,-4.4708387842447475e-17 -1.3220415431970514,0.5918981602465515 -1.3220415431970514 1.322041543197051c -8.941677568489495e-17,0.7301433829504996 0.5918981602465514,1.3220415431970514 1.3220415431970507 1.3220415431970514c 0.7301433829504996,1.3412516352734241e-16 1.3220415431970514,-0.5918981602465514 1.322041543197052 -1.322041543197051Z" /></g></g></g><g fill="rgb(245,180,86)" fill-opacity="1.0" stroke-width="0.0"><g fill="rgb(245,180,86)" fill-opacity="1.0"><g fill="rgb(245,180,86)" fill-opacity="1.0"><path d="M 638.6617399957229,668.3057535849792 c 0.0,-0.37160442012059247 -0.30124490304910023,-0.6728493231696928 -0.6728493231696927 -0.6728493231696928c -0.37160442012059247,-2.2754208182484593e-17 -0.6728493231696928,0.30124490304910023 -0.6728493231696928 0.6728493231696926c -4.5508416364969187e-17,0.37160442012059247 0.3012449030491002,0.6728493231696928 0.6728493231696925 0.6728493231696928c 0.37160442012059247,6.826262454745378e-17 0.6728493231696928,-0.3012449030491001 0.6728493231696931 -0.6728493231696926Z" /></g></g></g><g fill="rgb(209,95,105)" fill-opacity="1.0" stroke-width="0.0"><g fill="rgb(209,95,105)" fill-opacity="1.0"><g fill="rgb(209,95,105)" fill-opacity="1.0"><path d="M 584.8331147650789,43.44762466226564 c 0.0,-0.5565867727097672 -0.451202728775276,-1.0077895014850433 -1.007789501485043 -1.0077895014850433c -0.5565867727097672,-3.4081110482338586e-17 -1.0077895014850433,0.45120272877527595 -1.0077895014850433 1.0077895014850429c -6.816222096467717e-17,0.5565867727097672 0.4512027287752759,1.0077895014850433 1.0077895014850429 1.0077895014850433c 0.5565867727097672,1.0224333144701577e-16 1.0077895014850433,-0.45120272877527584 1.0077895014850433 -1.0077895014850429Z" /></g></g></g><g fill="rgb(185,161,185)" fill-opacity="1.0" stroke-width="0.0"><g fill="rgb(185,161,185)" fill-opacity="1.0"><g fill="rgb(185,161,185)" fill-opacity="1.0"><path d="M 102.27016211084687,566.0120679070765 c 0.0,-0.2991713480632482 -0.24252629641255335,-0.5416976444758016 -0.5416976444758015 -0.5416976444758016c -0.2991713480632482,-1.8318961690112778e-17 -0.5416976444758016,0.24252629641255333 -0.5416976444758016 0.5416976444758014c -3.6637923380225555e-17,0.2991713480632482 0.2425262964125533,0.5416976444758016 0.5416976444758014 0.5416976444758016c 0.2991713480632482,5.4956885070338336e-17 0.5416976444758016,-0.24252629641255327 0.5416976444758016 -0.5416976444758014Z" /></g></g></g></g></g></g></svg>