<?xml version="1.0" encoding="UTF-8"?>
<!DOCTYPE svg PUBLIC "-//W3C//DTD SVG 1.1//EN"
    "http://www.w3.org/Graphics/SVG/1.1/DTD/svg11.dtd">
<svg xmlns="http://www.w3.org/2000/svg" xmlns:xlink="http://www.w3.org/1999/xlink" version="1.1" width="800.0" height="764.514598195009" font-size="1" viewBox="0 0 800 765" stroke="rgb(0,0,0)" stroke-opacity="1"><g><g fill="rgb(0,0,0)" fill-opacity="0.0"><g stroke="rgb(0,0,0)" stroke-opacity="1.0" stroke-width="3.128224233794009" stroke-linecap="butt" stroke-linejoin="miter" font-size="1.0em" stroke-miterlimit="10.0"><g fill="rgb(72,189,190)" fill-opacity="1.0" stroke-width="0.0"><g fill="rgb(72,189,190)" fill-opacity="1.0"><g fill="rgb(72,189,190)" fill-opacity="1.0"><path d="M 372.55804834144357,349.5096082791939 c 0.0,-17.76069548293821 -14.397888451127779,-32.158583934065994 -32.15858393406599 -32.158583934065994c -17.76069548293821,-1.0875289436905567e-15 -32.158583934065994,14.397888451127777 -32.158583934065994 32.15858393406598c -2.1750578873811134e-15,17.76069548293821 14.397888451127775,32.158583934065994 32.15858393406598 32.158583934065994c 17.76069548293821,3.26258683107167e-15 32.158583934065994,-14.397888451127773 32.158583934065994 -32.15858393406598Z" /></g></g></g><g fill="rgb(168,145,120)" fill-opacity="1.0" stroke-width="0.0"><g fill="rgb(168,145,120)" fill-opacity="1.0"><g fill="rgb(168,145,120)" fill-opacity="1.0"><path d="M 327.5886202181926,409.6839555007169 c 0.0,-21.059340942720834 -17.071968946195888,-38.131309888916725 -38.13130988891672 -38.131309888916725c -21.059340942720834,-1.2895127238827935e-15 -38.131309888916725,17.071968946195884 -38.131309888916725 38.13130988891671c -2.579025447765587e-15,21.059340942720834 17.071968946195884,38.131309888916725 38.13130988891671 38.131309888916725c 21.059340942720834,3.868538171648381e-15 38.131309888916725,-17.07196894619588 38.131309888916725 -38.13130988891671Z" /></g></g></g><g fill="rgb(240,162,188)" fill-opacity="1.0" stroke-width="0.0"><g fill="rgb(240,162,188)" fill-opacity="1.0"><g fill="rgb(240,162,188)" fill-opacity="1.0"><path d="M 427.4436092167522,372.8217397194649 c 0.0,-10.558631056525607 -8.5594616660428,-19.11809272256841 -19.118092722568406 -19.11809272256841c -10.558631056525607,-6.46529686337596e-16 -19.11809272256841,8.559461666042798 -19.11809272256841 19.118092722568402c -1.293059372675192e-15,10.558631056525607 8.559461666042798,19.11809272256841 19.118092722568402 19.11809272256841c 10.558631056525607,1.939589059012788e-15 19.11809272256841,-8.559461666042797 19.11809272256841 -19.118092722568402Z" /></g></g></g><g fill="rgb(168,145,120)" fill-opacity="1.0" stroke-width="0.0"><g fill="rgb(168,145,120)" fill-opacity="1.0"><g fill="rgb(168,145,120)" fill-opacity="1.0"><path d="M 292.305860973493,339.46585869041274 c 0.0,-14.148405790244356 -11.469549068330101,-25.61795485857446 -25.617954858574453 -25.61795485857446c -14.148405790244356,-8.663399932030314e-16 -25.61795485857446,11.469549068330101 -25.61795485857446 25.617954858574453c -1.7326799864060627e-15,14.148405790244356 11.4695490683301,25.61795485857446 25.61795485857445 25.61795485857446c 14.148405790244356,2.5990199796090944e-15 25.61795485857446,-11.469549068330098 25.617954858574464 -25.617954858574453Z" /></g></g></g><g fill="rgb(191,49,49)" fill-opacity="1.0" stroke-width="0.0"><g fill="rgb(191,49,49)" fill-opacity="1.0"><g fill="rgb(191,49,49)" fill-opacity="1.0"><path d="M 344.7143175229255,286.8376397066106 c 0.0,-12.161487668004757 -9.85883368204291,-22.02032135004767 -22.020321350047666 -22.02032135004767c -12.161487668004757,-7.446763472746017e-16 -22.02032135004767,9.858833682042908 -22.02032135004767 22.020321350047663c -1.4893526945492034e-15,12.161487668004757 9.858833682042908,22.02032135004767 22.02032135004766 22.02032135004767c 12.161487668004757,2.2340290418238053e-15 22.02032135004767,-9.858833682042906 22.020321350047674 -22.020321350047663Z" /></g></g></g><g fill="rgb(209,95,105)" fill-opacity="1.0" stroke-width="0.0"><g fill="rgb(209,95,105)" fill-opacity="1.0"><g fill="rgb(209,95,105)" fill-opacity="1.0"><path d="M 385.28635601688086,404.98460401205176 c 0.0,-11.511078022245668 -9.331572486884594,-20.842650509130266 -20.842650509130262 -20.842650509130266c -11.511078022245668,-7.048502427339302e-16 -20.842650509130266,9.331572486884594 -20.842650509130266 20.84265050913026c -1.4097004854678603e-15,11.511078022245668 9.331572486884593,20.842650509130266 20.842650509130255 20.842650509130266c 11.511078022245668,2.1145507282017903e-15 20.842650509130266,-9.33157248688459 20.842650509130277 -20.84265050913026Z" /></g></g></g><g fill="rgb(173,210,116)" fill-opacity="1.0" stroke-width="0.0"><g fill="rgb(173,210,116)" fill-opacity="1.0"><g fill="rgb(173,210,116)" fill-opacity="1.0"><path d="M 424.76951866824214,314.40109620754413 c 0.0,-14.083970557281651 -11.417313991307884,-25.50128454858954 -25.50128454858953 -25.50128454858954c -14.083970557281651,-8.623944731130269e-16 -25.50128454858954,11.417313991307882 -25.50128454858954 25.50128454858953c -1.7247889462260539e-15,14.083970557281651 11.41731399130788,25.50128454858954 25.501284548589528 25.50128454858954c 14.083970557281651,2.5871834193390806e-15 25.50128454858954,-11.41731399130788 25.501284548589542 -25.50128454858953Z" /></g></g></g><g fill="rgb(185,161,185)" fill-opacity="1.0" stroke-width="0.0"><g fill="rgb(185,161,185)" fill-opacity="1.0"><g fill="rgb(185,161,185)" fill-opacity="1.0"><path d="M 388.7090591134355,344.50375772018776 c 0.0,-2.421440429727753 -1.9629653147177037,-4.384405744445457 -4.3844057444454565 -4.384405744445457c -2.421440429727753,-1.482704635796042e-16 -4.384405744445457,1.9629653147177035 -4.384405744445457 4.384405744445456c -2.965409271592084e-16,2.421440429727753 1.9629653147177033,4.384405744445457 4.384405744445456 4.384405744445457c 2.421440429727753,4.448113907388127e-16 4.384405744445457,-1.962965314717703 4.384405744445459 -4.384405744445456Z" /></g></g></g><g fill="rgb(168,145,120)" fill-opacity="1.0" stroke-width="0.0"><g fill="rgb(168,145,120)" fill-opacity="1.0"><g fill="rgb(168,145,120)" fill-opacity="1.0"><path d="M 296.0564832475664,311.987388758058 c 0.0,-2.716391390101193 -2.2020703109206594,-4.918461701021853 -4.918461701021852 -4.918461701021853c -2.716391390101193,-1.6633100105594276e-16 -4.918461701021853,2.202070310920659 -4.918461701021853 4.918461701021851c -3.326620021118855e-16,2.716391390101193 2.202070310920659,4.918461701021853 4.918461701021851 4.918461701021853c 2.716391390101193,4.989930031678282e-16 4.918461701021853,-2.2020703109206585 4.9184617010218545 -4.918461701021851Z" /></g></g></g><g fill="rgb(209,95,105)" fill-opacity="1.0" stroke-width="0.0"><g fill="rgb(209,95,105)" fill-opacity="1.0"><g fill="rgb(209,95,105)" fill-opacity="1.0"><path d="M 352.40782329839345,311.5703479605662 c 0.0,-1.357171483974699 -1.1002048683336039,-2.457376352308303 -2.4573763523083025 -2.457376352308303c -1.357171483974699,-8.310278568718391e-17 -2.457376352308303,1.1002048683336036 -2.457376352308303 2.457376352308302c -1.6620557137436782e-16,1.357171483974699 1.1002048683336036,2.457376352308303 2.457376352308302 2.457376352308303c 1.357171483974699,2.4930835706155175e-16 2.457376352308303,-1.1002048683336034 2.457376352308303 -2.457376352308302Z" /></g></g></g><g fill="rgb(168,145,120)" fill-opacity="1.0" stroke-width="0.0"><g fill="rgb(168,145,120)" fill-opacity="1.0"><g fill="rgb(168,145,120)" fill-opacity="1.0"><path d="M 379.81521570874963,363.3064748335629 c 0.0,-0.6493028612118088 -0.5263639690070941,-1.175666830218903 -1.1756668302189028 -1.175666830218903c -0.6493028612118088,-3.975833353301299e-17 -1.175666830218903,0.526363969007094 -1.175666830218903 1.1756668302189026c -7.951666706602598e-17,0.6493028612118088 0.526363969007094,1.175666830218903 1.1756668302189026 1.175666830218903c 0.6493028612118088,1.1927500059903896e-16 1.175666830218903,-0.5263639690070939 1.1756668302189035 -1.1756668302189026Z" /></g></g></g><g fill="rgb(191,49,49)" fill-opacity="1.0" stroke-width="0.0"><g fill="rgb(191,49,49)" fill-opacity="1.0"><g fill="rgb(191,49,49)" fill-opacity="1.0"><path d="M 313.1779200761364,318.41955291601005 c 0.0,-1.8684053479110518 -1.5146418002919093,-3.3830471482029614 -3.3830471482029605 -3.3830471482029614c -1.8684053479110518,-1.144068314414533e-16 -3.3830471482029614,1.514641800291909 -3.3830471482029614 3.38304714820296c -2.288136628829066e-16,1.8684053479110518 1.5146418002919089,3.3830471482029614 3.38304714820296 3.3830471482029614c 1.8684053479110518,3.4322049432435996e-16 3.3830471482029614,-1.5146418002919086 3.383047148202962 -3.38304714820296Z" /></g></g></g><g fill="rgb(168,145,120)" fill-opacity="1.0" stroke-width="0.0"><g fill="rgb(168,145,120)" fill-opacity="1.0"><g fill="rgb(168,145,120)" fill-opacity="1.0"><path d="M 272.5393327035065,282.6773916369962 c 0.0,-7.856795637292869 -6.369191300966785,-14.225986938259656 -14.225986938259652 -14.225986938259656c -7.856795637292869,-4.810899814382801e-16 -14.225986938259656,6.369191300966784 -14.225986938259656 14.22598693825965c -9.621799628765602e-16,7.856795637292869 6.369191300966783,14.225986938259656 14.225986938259648 14.225986938259656c 7.856795637292869,1.44326994431484e-15 14.225986938259656,-6.369191300966782 14.225986938259659 -14.22598693825965Z" /></g></g></g><g fill="rgb(72,189,190)" fill-opacity="1.0" stroke-width="0.0"><g fill="rgb(72,189,190)" fill-opacity="1.0"><g fill="rgb(72,189,190)" fill-opacity="1.0"><path d="M 355.0287438506373,441.8524031335506 c 0.0,-4.298477763143555 -3.484604721861694,-7.78308248500525 -7.783082485005248 -7.78308248500525c -4.298477763143555,-2.632058516919914e-16 -7.78308248500525,3.4846047218616936 -7.78308248500525 7.783082485005247c -5.264117033839828e-16,4.298477763143555 3.4846047218616936,7.78308248500525 7.783082485005246 7.78308248500525c 4.298477763143555,7.896175550759743e-16 7.78308248500525,-3.484604721861693 7.783082485005251 -7.783082485005247Z" /></g></g></g><g fill="rgb(245,180,86)" fill-opacity="1.0" stroke-width="0.0"><g fill="rgb(245,180,86)" fill-opacity="1.0"><g fill="rgb(245,180,86)" fill-opacity="1.0"><path d="M 373.7832206950908,265.81809667657967 c 0.0,-7.878740900241086 -6.386981451598139,-14.265722351839226 -14.265722351839223 -14.265722351839226c -7.878740900241086,-4.824337412395791e-16 -14.265722351839226,6.386981451598139 -14.265722351839226 14.265722351839221c -9.648674824791582e-16,7.878740900241086 6.386981451598138,14.265722351839226 14.26572235183922 14.265722351839226c 7.878740900241086,1.447301223718737e-15 14.265722351839226,-6.386981451598137 14.26572235183923 -14.265722351839221Z" /></g></g></g><g fill="rgb(173,210,116)" fill-opacity="1.0" stroke-width="0.0"><g fill="rgb(173,210,116)" fill-opacity="1.0"><g fill="rgb(173,210,116)" fill-opacity="1.0"><path d="M 335.2878809983134,443.64087690646215 c 0.0,-1.2154934493692766 -0.9853521284629448,-2.200845577832222 -2.2008455778322213 -2.200845577832222c -1.2154934493692766,-7.442750810773301e-17 -2.200845577832222,0.9853521284629447 -2.200845577832222 2.200845577832221c -1.4885501621546601e-16,1.2154934493692766 0.9853521284629446,2.200845577832222 2.200845577832221 2.200845577832222c 1.2154934493692766,2.23282524323199e-16 2.200845577832222,-0.9853521284629445 2.200845577832222 -2.200845577832221Z" /></g></g></g><g fill="rgb(241,237,226)" fill-opacity="1.0" stroke-width="0.0"><g fill="rgb(241,237,226)" fill-opacity="1.0"><g fill="rgb(241,237,226)" fill-opacity="1.0"><path d="M 293.5440725076992,230.81508186852898 c 0.0,-11.654886582402177 -9.44815235896448,-21.10303894136666 -21.103038941366655 -21.10303894136666c -11.654886582402177,-7.136559773782131e-16 -21.10303894136666,9.448152358964478 -21.10303894136666 21.103038941366652c -1.4273119547564261e-15,11.654886582402177 9.448152358964476,21.10303894136666 21.10303894136665 21.10303894136666c 11.654886582402177,2.1409679321346392e-15 21.10303894136666,-9.448152358964476 21.103038941366663 -21.103038941366652Z" /></g></g></g><g fill="rgb(191,49,49)" fill-opacity="1.0" stroke-width="0.0"><g fill="rgb(191,49,49)" fill-opacity="1.0"><g fill="rgb(191,49,49)" fill-opacity="1.0"><path d="M 241.01148601111902,367.67734441117227 c 0.0,-6.464220582433615 -5.240286167778288,-11.704506750211905 -11.704506750211904 -11.704506750211905c -6.464220582433615,-3.9581935226298833e-16 -11.704506750211905,5.240286167778288 -11.704506750211905 11.704506750211902c -7.916387045259767e-16,6.464220582433615 5.2402861677782875,11.704506750211905 11.7045067502119 11.704506750211905c 6.464220582433615,1.1874580567889649e-15 11.704506750211905,-5.240286167778287 11.70450675021191 -11.704506750211902Z" /></g></g></g><g fill="rgb(168,145,120)" fill-opacity="1.0" stroke-width="0.0"><g fill="rgb(168,145,120)" fill-opacity="1.0"><g fill="rgb(168,145,120)" fill-opacity="1.0"><path d="M 461.6593116403901,332.27723199217576 c 0.0,-7.8328128031581725 -6.349749372527385,-14.18256217568556 -14.182562175685556 -14.18256217568556c -7.8328128031581725,-4.796214563854032e-16 -14.18256217568556,6.349749372527384 -14.18256217568556 14.182562175685554c -9.592429127708063e-16,7.8328128031581725 6.349749372527383,14.18256217568556 14.182562175685552 14.18256217568556c 7.8328128031581725,1.4388643691562094e-15 14.18256217568556,-6.349749372527382 14.182562175685563 -14.182562175685554Z" /></g></g></g><g fill="rgb(191,49,49)" fill-opacity="1.0" stroke-width="0.0"><g fill="rgb(191,49,49)" fill-opacity="1.0"><g fill="rgb(191,49,49)" fill-opacity="1.0"><path d="M 435.10562171575003,271.0152130055794 c 0.0,-7.297108095022409 -5.915474901806788,-13.212582996829198 -13.212582996829195 -13.212582996829198c -7.297108095022409,-4.468190035800717e-16 -13.212582996829198,5.915474901806787 -13.212582996829198 13.212582996829195c -8.936380071601434e-16,7.297108095022409 5.915474901806786,13.212582996829198 13.212582996829193 13.212582996829198c 7.297108095022409,1.3404570107402148e-15 13.212582996829198,-5.915474901806785 13.2125829968292 -13.212582996829195Z" /></g></g></g><g fill="rgb(209,95,105)" fill-opacity="1.0" stroke-width="0.0"><g fill="rgb(209,95,105)" fill-opacity="1.0"><g fill="rgb(209,95,105)" fill-opacity="1.0"><path d="M 404.87277358801856,416.8116811291174 c 0.0,-3.0617934406650194 -2.4820739965638334,-5.543867437228854 -5.543867437228853 -5.543867437228854c -3.0617934406650194,-1.8748077683803888e-16 -5.543867437228854,2.4820739965638334 -5.543867437228854 5.543867437228852c -3.7496155367607777e-16,3.0617934406650194 2.482073996563833,5.543867437228854 5.543867437228851 5.543867437228854c 3.0617934406650194,5.624423305141166e-16 5.543867437228854,-2.4820739965638325 5.5438674372288546 -5.543867437228852Z" /></g></g></g><g fill="rgb(168,145,120)" fill-opacity="1.0" stroke-width="0.0"><g fill="rgb(168,145,120)" fill-opacity="1.0"><g fill="rgb(168,145,120)" fill-opacity="1.0"><path d="M 379.2523983802724,453.34015550095677 c 0.0,-6.921369432603938 -5.61087853318631,-12.53224796579025 -12.532247965790246 -12.53224796579025c -6.921369432603938,-4.238116460677372e-16 -12.53224796579025,5.610878533186309 -12.53224796579025 12.532247965790246c -8.476232921354744e-16,6.921369432603938 5.610878533186309,12.53224796579025 12.532247965790244 12.53224796579025c 6.921369432603938,1.2714349382032116e-15 12.53224796579025,-5.610878533186308 12.532247965790251 -12.532247965790246Z" /></g></g></g><g fill="rgb(173,210,116)" fill-opacity="1.0" stroke-width="0.0"><g fill="rgb(173,210,116)" fill-opacity="1.0"><g fill="rgb(173,210,116)" fill-opacity="1.0"><path d="M 450.6172929049677,406.8943198191427 c 0.0,-8.49866990939957 -6.889533208653851,-15.388203118053422 -15.388203118053418 -15.388203118053422c -8.49866990939957,-5.203934450778055e-16 -15.388203118053422,6.88953320865385 -15.388203118053422 15.388203118053417c -1.040786890155611e-15,8.49866990939957 6.889533208653849,15.388203118053422 15.388203118053415 15.388203118053422c 8.49866990939957,1.5611803352334164e-15 15.388203118053422,-6.889533208653848 15.388203118053426 -15.388203118053417Z" /></g></g></g><g fill="rgb(241,237,226)" fill-opacity="1.0" stroke-width="0.0"><g fill="rgb(241,237,226)" fill-opacity="1.0"><g fill="rgb(241,237,226)" fill-opacity="1.0"><path d="M 365.71651001754975,298.0501921355047 c 0.0,-5.28187932950894 -4.281809204580003,-9.563688534088945 -9.563688534088943 -9.563688534088945c -5.28187932950894,-3.234218307182846e-16 -9.563688534088945,4.281809204580003 -9.563688534088945 9.563688534088941c -6.468436614365692e-16,5.28187932950894 4.281809204580002,9.563688534088945 9.563688534088941 9.563688534088945c 5.28187932950894,9.702654921548537e-16 9.563688534088945,-4.281809204580002 9.563688534088945 -9.563688534088941Z" /></g></g></g><g fill="rgb(185,161,185)" fill-opacity="1.0" stroke-width="0.0"><g fill="rgb(185,161,185)" fill-opacity="1.0"><g fill="rgb(185,161,185)" fill-opacity="1.0"><path d="M 396.4313055031061,244.58628605162767 c 0.0,-5.817874994360567 -4.716319542321862,-10.53419453668243 -10.534194536682428 -10.53419453668243c -5.817874994360567,-3.5624209948415465e-16 -10.53419453668243,4.716319542321861 -10.53419453668243 10.534194536682426c -7.124841989683093e-16,5.817874994360567 4.716319542321861,10.53419453668243 10.534194536682424 10.53419453668243c 5.817874994360567,1.068726298452464e-15 10.53419453668243,-4.71631954232186 10.534194536682431 -10.534194536682426Z" /></g></g></g><g fill="rgb(245,180,86)" fill-opacity="1.0" stroke-width="0.0"><g fill="rgb(245,180,86)" fill-opacity="1.0"><g fill="rgb(245,180,86)" fill-opacity="1.0"><path d="M 343.37505017069634,390.81248224544015 c 0.0,-2.570410266436014 -2.0837292281336346,-4.654139494569649 -4.654139494569648 -4.654139494569649c -2.570410266436014,-1.57392235264318e-16 -4.654139494569649,2.083729228133634 -4.654139494569649 4.654139494569647c -3.14784470528636e-16,2.570410266436014 2.0837292281336337,4.654139494569649 4.654139494569647 4.654139494569649c 2.570410266436014,4.72176705792954e-16 4.654139494569649,-2.0837292281336337 4.654139494569649 -4.654139494569647Z" /></g></g></g><g fill="rgb(97,91,91)" fill-opacity="1.0" stroke-width="0.0"><g fill="rgb(97,91,91)" fill-opacity="1.0"><g fill="rgb(97,91,91)" fill-opacity="1.0"><path d="M 292.33237950093934,287.3129868611487 c 0.0,-4.612289463368147 -3.73899936867228,-8.351288832040428 -8.351288832040426 -8.351288832040428c -4.612289463368147,-2.824212764027432e-16 -8.351288832040428,3.7389993686722796 -8.351288832040428 8.351288832040424c -5.648425528054864e-16,4.612289463368147 3.738999368672279,8.351288832040428 8.351288832040424 8.351288832040428c 4.612289463368147,8.472638292082297e-16 8.351288832040428,-3.7389993686722787 8.351288832040431 -8.351288832040424Z" /></g></g></g><g fill="rgb(235,86,92)" fill-opacity="1.0" stroke-width="0.0"><g fill="rgb(235,86,92)" fill-opacity="1.0"><g fill="rgb(235,86,92)" fill-opacity="1.0"><path d="M 339.12753740189186,247.89034910307373 c 0.0,-6.222793349421302 -5.0445707255922,-11.267364075013504 -11.267364075013502 -11.267364075013504c -6.222793349421302,-3.8103619785621174e-16 -11.267364075013504,5.044570725592199 -11.267364075013504 11.2673640750135c -7.620723957124235e-16,6.222793349421302 5.044570725592199,11.267364075013504 11.267364075013498 11.267364075013504c 6.222793349421302,1.1431085935686352e-15 11.267364075013504,-5.044570725592198 11.267364075013509 -11.2673640750135Z" /></g></g></g><g fill="rgb(240,162,188)" fill-opacity="1.0" stroke-width="0.0"><g fill="rgb(240,162,188)" fill-opacity="1.0"><g fill="rgb(240,162,188)" fill-opacity="1.0"><path d="M 245.0501195595173,420.8590645751185 c 0.0,-3.719673079554718 -3.0153908176366033,-6.735063897191322 -6.735063897191321 -6.735063897191322c -3.719673079554718,-2.2776428653756316e-16 -6.735063897191322,3.015390817636603 -6.735063897191322 6.73506389719132c -4.555285730751263e-16,3.719673079554718 3.0153908176366024,6.735063897191322 6.73506389719132 6.735063897191322c 3.719673079554718,6.832928596126896e-16 6.735063897191322,-3.0153908176366024 6.735063897191323 -6.73506389719132Z" /></g></g></g><g fill="rgb(235,86,92)" fill-opacity="1.0" stroke-width="0.0"><g fill="rgb(235,86,92)" fill-opacity="1.0"><g fill="rgb(235,86,92)" fill-opacity="1.0"><path d="M 200.04283928511464,418.9782087755829 c 0.0,-8.059893977005018 -6.533835035926032,-14.593729012931052 -14.593729012931048 -14.593729012931052c -8.059893977005018,-4.935261680203113e-16 -14.593729012931052,6.533835035926031 -14.593729012931052 14.593729012931046c -9.870523360406226e-16,8.059893977005018 6.53383503592603,14.593729012931052 14.593729012931044 14.593729012931052c 8.059893977005018,1.4805785040609338e-15 14.593729012931052,-6.533835035926029 14.593729012931055 -14.593729012931046Z" /></g></g></g><g fill="rgb(235,86,92)" fill-opacity="1.0" stroke-width="0.0"><g fill="rgb(235,86,92)" fill-opacity="1.0"><g fill="rgb(235,86,92)" fill-opacity="1.0"><path d="M 397.4192175234486,276.92419562319037 c 0.0,-4.498798455350475 -3.6469967286172094,-8.145795183967685 -8.145795183967683 -8.145795183967685c -4.498798455350475,-2.754719564177008e-16 -8.145795183967685,3.6469967286172085 -8.145795183967685 8.145795183967682c -5.509439128354016e-16,4.498798455350475 3.646996728617208,8.145795183967685 8.145795183967682 8.145795183967685c 4.498798455350475,8.264158692531024e-16 8.145795183967685,-3.6469967286172076 8.145795183967689 -8.145795183967682Z" /></g></g></g><g fill="rgb(245,180,86)" fill-opacity="1.0" stroke-width="0.0"><g fill="rgb(245,180,86)" fill-opacity="1.0"><g fill="rgb(245,180,86)" fill-opacity="1.0"><path d="M 269.47885009087497,471.68216523607674 c 0.0,-10.31676754829774 -8.363392552915528,-18.68016010121327 -18.680160101213268 -18.68016010121327c -10.31676754829774,-6.317198177785057e-16 -18.68016010121327,8.363392552915528 -18.68016010121327 18.680160101213264c -1.2634396355570115e-15,10.31676754829774 8.363392552915526,18.68016010121327 18.680160101213264 18.68016010121327c 10.31676754829774,1.8951594533355172e-15 18.68016010121327,-8.363392552915526 18.68016010121327 -18.680160101213264Z" /></g></g></g><g fill="rgb(235,86,92)" fill-opacity="1.0" stroke-width="0.0"><g fill="rgb(235,86,92)" fill-opacity="1.0"><g fill="rgb(235,86,92)" fill-opacity="1.0"><path d="M 401.97427535983553,436.20376801183863 c 0.0,-6.5308504093351845 -5.294300314699974,-11.82515072403516 -11.825150724035158 -11.82515072403516c -6.5308504093351845,-3.998992524751257e-16 -11.82515072403516,5.294300314699973 -11.82515072403516 11.825150724035156c -7.997985049502514e-16,6.5308504093351845 5.2943003146999725,11.82515072403516 11.825150724035154 11.82515072403516c 6.5308504093351845,1.1996977574253773e-15 11.82515072403516,-5.2943003146999725 11.825150724035161 -11.825150724035156Z" /></g></g></g><g fill="rgb(191,49,49)" fill-opacity="1.0" stroke-width="0.0"><g fill="rgb(191,49,49)" fill-opacity="1.0"><g fill="rgb(191,49,49)" fill-opacity="1.0"><path d="M 307.7972936053954,311.9522120250991 c 0.0,-1.7015999983335803 -1.3794193469496432,-3.0810193452832237 -3.081019345283223 -3.0810193452832237c -1.7015999983335803,-1.0419294956941803e-16 -3.0810193452832237,1.379419346949643 -3.0810193452832237 3.081019345283223c -2.0838589913883607e-16,1.7015999983335803 1.3794193469496427,3.0810193452832237 3.0810193452832224 3.0810193452832237c 1.7015999983335803,3.125788487082541e-16 3.0810193452832237,-1.3794193469496425 3.081019345283224 -3.081019345283223Z" /></g></g></g><g fill="rgb(241,237,226)" fill-opacity="1.0" stroke-width="0.0"><g fill="rgb(241,237,226)" fill-opacity="1.0"><g fill="rgb(241,237,226)" fill-opacity="1.0"><path d="M 456.1128612692356,432.7507596928274 c 0.0,-4.288283124308261 -3.476340334192242,-7.764623458500504 -7.764623458500502 -7.764623458500504c -4.288283124308261,-2.6258161010108614e-16 -7.764623458500504,3.4763403341922414 -7.764623458500504 7.764623458500501c -5.251632202021723e-16,4.288283124308261 3.476340334192241,7.764623458500504 7.7646234585005 7.764623458500504c 4.288283124308261,7.877448303032584e-16 7.764623458500504,-3.4763403341922405 7.764623458500505 -7.764623458500501Z" /></g></g></g><g fill="rgb(209,95,105)" fill-opacity="1.0" stroke-width="0.0"><g fill="rgb(209,95,105)" fill-opacity="1.0"><g fill="rgb(209,95,105)" fill-opacity="1.0"><path d="M 408.353940556985,500.6800035966302 c 0.0,-5.776301564618222 -4.682617618625455,-10.458919183243678 -10.458919183243676 -10.458919183243678c -5.776301564618222,-3.536964611009776e-16 -10.458919183243678,4.682617618625455 -10.458919183243678 10.458919183243674c -7.073929222019552e-16,5.776301564618222 4.6826176186254544,10.458919183243678 10.458919183243673 10.458919183243678c 5.776301564618222,1.061089383302933e-15 10.458919183243678,-4.682617618625454 10.45891918324368 -10.458919183243674Z" /></g></g></g><g fill="rgb(235,86,92)" fill-opacity="1.0" stroke-width="0.0"><g fill="rgb(235,86,92)" fill-opacity="1.0"><g fill="rgb(235,86,92)" fill-opacity="1.0"><path d="M 238.56628793625055,403.34688537411535 c 0.0,-4.56984656529949 -3.7045926016331094,-8.2744391669326 -8.274439166932599 -8.2744391669326c -4.56984656529949,-2.7982239843942733e-16 -8.2744391669326,3.7045926016331086 -8.2744391669326 8.274439166932597c -5.596447968788547e-16,4.56984656529949 3.704592601633108,8.2744391669326 8.274439166932597 8.2744391669326c 4.56984656529949,8.394671953182819e-16 8.2744391669326,-3.7045926016331077 8.2744391669326 -8.274439166932597Z" /></g></g></g><g fill="rgb(240,162,188)" fill-opacity="1.0" stroke-width="0.0"><g fill="rgb(240,162,188)" fill-opacity="1.0"><g fill="rgb(240,162,188)" fill-opacity="1.0"><path d="M 231.57034875995546,328.7851317568406 c 0.0,-2.50192383298806 -2.0282100042301288,-4.530133837218189 -4.530133837218188 -4.530133837218189c -2.50192383298806,-1.5319865068896523e-16 -4.530133837218189,2.0282100042301283 -4.530133837218189 4.530133837218187c -3.0639730137793046e-16,2.50192383298806 2.0282100042301283,4.530133837218189 4.530133837218187 4.530133837218189c 2.50192383298806,4.595959520668957e-16 4.530133837218189,-2.028210004230128 4.530133837218191 -4.530133837218187Z" /></g></g></g><g fill="rgb(241,237,226)" fill-opacity="1.0" stroke-width="0.0"><g fill="rgb(241,237,226)" fill-opacity="1.0"><g fill="rgb(241,237,226)" fill-opacity="1.0"><path d="M 216.56636885258015,378.6899537538891 c 0.0,-3.2945181300578796 -2.670734633244455,-5.965252763302336 -5.965252763302335 -5.965252763302336c -3.2945181300578796,-2.0173105413541528e-16 -5.965252763302336,2.670734633244455 -5.965252763302336 5.965252763302334c -4.0346210827083057e-16,3.2945181300578796 2.6707346332444546,5.965252763302336 5.965252763302333 5.965252763302336c 3.2945181300578796,6.051931624062459e-16 5.965252763302336,-2.670734633244454 5.9652527633023364 -5.965252763302334Z" /></g></g></g><g fill="rgb(245,180,86)" fill-opacity="1.0" stroke-width="0.0"><g fill="rgb(245,180,86)" fill-opacity="1.0"><g fill="rgb(245,180,86)" fill-opacity="1.0"><path d="M 322.70525189866714,481.1639730874038 c 0.0,-4.675695954135838 -3.790400485369972,-8.466096439505812 -8.46609643950581 -8.466096439505812c -4.675695954135838,-2.863038042009342e-16 -8.466096439505812,3.7904004853699718 -8.466096439505812 8.466096439505808c -5.726076084018684e-16,4.675695954135838 3.7904004853699713,8.466096439505812 8.466096439505808 8.466096439505812c 4.675695954135838,8.589114126028026e-16 8.466096439505812,-3.790400485369971 8.466096439505815 -8.466096439505808Z" /></g></g></g><g fill="rgb(97,91,91)" fill-opacity="1.0" stroke-width="0.0"><g fill="rgb(97,91,91)" fill-opacity="1.0"><g fill="rgb(97,91,91)" fill-opacity="1.0"><path d="M 238.65961533353115,435.21796833114325 c 0.0,-3.9397830975367314 -3.1938252426243614,-7.133608340161094 -7.133608340161092 -7.133608340161094c -3.9397830975367314,-2.4124213798666014e-16 -7.133608340161094,3.193825242624361 -7.133608340161094 7.133608340161091c -4.824842759733203e-16,3.9397830975367314 3.193825242624361,7.133608340161094 7.13360834016109 7.133608340161094c 3.9397830975367314,7.237264139599804e-16 7.133608340161094,-3.1938252426243605 7.1336083401610955 -7.133608340161091Z" /></g></g></g><g fill="rgb(235,86,92)" fill-opacity="1.0" stroke-width="0.0"><g fill="rgb(235,86,92)" fill-opacity="1.0"><g fill="rgb(235,86,92)" fill-opacity="1.0"><path d="M 340.582569739589,485.31866186656913 c 0.0,-2.6040573794601687 -2.1110056025576904,-4.71506298201786 -4.715062982017859 -4.71506298201786c -2.6040573794601687,-1.59452526727597e-16 -4.71506298201786,2.1110056025576904 -4.71506298201786 4.715062982017858c -3.18905053455194e-16,2.6040573794601687 2.11100560255769,4.71506298201786 4.715062982017858 4.71506298201786c 2.6040573794601687,4.78357580182791e-16 4.71506298201786,-2.1110056025576895 4.71506298201786 -4.715062982017858Z" /></g></g></g><g fill="rgb(245,180,86)" fill-opacity="1.0" stroke-width="0.0"><g fill="rgb(245,180,86)" fill-opacity="1.0"><g fill="rgb(245,180,86)" fill-opacity="1.0"><path d="M 423.2949761580657,344.4217428399901 c 0.0,-3.4155167477925836 -2.768823393482391,-6.1843401412749754 -6.184340141274974 -6.1843401412749754c -3.4155167477925836,-2.0914008263091826e-16 -6.1843401412749754,2.768823393482391 -6.1843401412749754 6.184340141274974c -4.1828016526183653e-16,3.4155167477925836 2.7688233934823905,6.1843401412749754 6.184340141274973 6.1843401412749754c 3.4155167477925836,6.274202478927547e-16 6.1843401412749754,-2.76882339348239 6.184340141274976 -6.184340141274974Z" /></g></g></g><g fill="rgb(185,161,185)" fill-opacity="1.0" stroke-width="0.0"><g fill="rgb(185,161,185)" fill-opacity="1.0"><g fill="rgb(185,161,185)" fill-opacity="1.0"><path d="M 250.7007263236668,308.80446947840096 c 0.0,-2.69425644406897 -2.1841263917678404,-4.878382835836811 -4.87838283583681 -4.878382835836811c -2.69425644406897,-1.6497562651555966e-16 -4.878382835836811,2.18412639176784 -4.878382835836811 4.878382835836809c -3.2995125303111933e-16,2.69425644406897 2.18412639176784,4.878382835836811 4.878382835836809 4.878382835836811c 2.69425644406897,4.94926879546679e-16 4.878382835836811,-2.1841263917678395 4.878382835836811 -4.878382835836809Z" /></g></g></g><g fill="rgb(97,91,91)" fill-opacity="1.0" stroke-width="0.0"><g fill="rgb(97,91,91)" fill-opacity="1.0"><g fill="rgb(97,91,91)" fill-opacity="1.0"><path d="M 149.82489152816194,469.8157670596046 c 0.0,-3.094072079299616 -2.508241003304174,-5.602313082603791 -5.60231308260379 -5.602313082603791c -3.094072079299616,-1.894572734122735e-16 -5.602313082603791,2.508241003304174 -5.602313082603791 5.602313082603789c -3.78914546824547e-16,3.094072079299616 2.5082410033041738,5.602313082603791 5.602313082603788 5.602313082603791c 3.094072079299616,5.683718202368206e-16 5.602313082603791,-2.5082410033041733 5.602313082603794 -5.602313082603789Z" /></g></g></g><g fill="rgb(241,237,226)" fill-opacity="1.0" stroke-width="0.0"><g fill="rgb(241,237,226)" fill-opacity="1.0"><g fill="rgb(241,237,226)" fill-opacity="1.0"><path d="M 344.37091782139845,226.1015385706276 c 0.0,-2.1362694974991734 -1.7317885978106715,-3.8680580953098453 -3.8680580953098445 -3.8680580953098453c -2.1362694974991734,-1.3080878011142436e-16 -3.8680580953098453,1.7317885978106713 -3.8680580953098453 3.868058095309844c -2.616175602228487e-16,2.1362694974991734 1.731788597810671,3.8680580953098453 3.8680580953098436 3.8680580953098453c 2.1362694974991734,3.9242634033427307e-16 3.8680580953098453,-1.7317885978106708 3.8680580953098462 -3.868058095309844Z" /></g></g></g><g fill="rgb(168,145,120)" fill-opacity="1.0" stroke-width="0.0"><g fill="rgb(168,145,120)" fill-opacity="1.0"><g fill="rgb(168,145,120)" fill-opacity="1.0"><path d="M 195.38790009268547,370.6991635162851 c 0.0,-2.8572698386655726 -2.3162748582339345,-5.173544696899508 -5.173544696899507 -5.173544696899508c -2.8572698386655726,-1.7495731811110338e-16 -5.173544696899508,2.316274858233934 -5.173544696899508 5.173544696899506c -3.4991463622220676e-16,2.8572698386655726 2.3162748582339336,5.173544696899508 5.173544696899505 5.173544696899508c 2.8572698386655726,5.248719543333102e-16 5.173544696899508,-2.3162748582339336 5.1735446968995085 -5.173544696899506Z" /></g></g></g><g fill="rgb(209,95,105)" fill-opacity="1.0" stroke-width="0.0"><g fill="rgb(209,95,105)" fill-opacity="1.0"><g fill="rgb(209,95,105)" fill-opacity="1.0"><path d="M 339.30550477223255,472.6748515249285 c 0.0,-2.8550865652865696 -2.3145049654614693,-5.16959153074804 -5.169591530748039 -5.16959153074804c -2.8550865652865696,-1.748236311733404e-16 -5.16959153074804,2.3145049654614693 -5.16959153074804 5.169591530748038c -3.496472623466808e-16,2.8550865652865696 2.314504965461469,5.16959153074804 5.169591530748037 5.16959153074804c 2.8550865652865696,5.244708935200213e-16 5.16959153074804,-2.3145049654614684 5.1695915307480425 -5.169591530748038Z" /></g></g></g><g fill="rgb(185,161,185)" fill-opacity="1.0" stroke-width="0.0"><g fill="rgb(185,161,185)" fill-opacity="1.0"><g fill="rgb(185,161,185)" fill-opacity="1.0"><path d="M 424.4216775413111,203.88468879657128 c 0.0,-3.7283405895171953 -3.022417222751688,-6.750757812268884 -6.7507578122688825 -6.750757812268884c -3.7283405895171953,-2.2829501845416946e-16 -6.750757812268884,3.0224172227516877 -6.750757812268884 6.750757812268882c -4.565900369083389e-16,3.7283405895171953 3.0224172227516877,6.750757812268884 6.750757812268882 6.750757812268884c 3.7283405895171953,6.848850553625084e-16 6.750757812268884,-3.0224172227516872 6.750757812268885 -6.750757812268882Z" /></g></g></g><g fill="rgb(235,86,92)" fill-opacity="1.0" stroke-width="0.0"><g fill="rgb(235,86,92)" fill-opacity="1.0"><g fill="rgb(235,86,92)" fill-opacity="1.0"><path d="M 292.04623996655374,260.87630828189117 c 0.0,-2.471063805178971 -2.0031930087852823,-4.474256813964254 -4.474256813964253 -4.474256813964254c -2.471063805178971,-1.5130901897506526e-16 -4.474256813964254,2.0031930087852823 -4.474256813964254 4.474256813964252c -3.026180379501305e-16,2.471063805178971 2.003193008785282,4.474256813964254 4.474256813964252 4.474256813964254c 2.471063805178971,4.539270569251958e-16 4.474256813964254,-2.003193008785282 4.474256813964254 -4.474256813964252Z" /></g></g></g><g fill="rgb(241,237,226)" fill-opacity="1.0" stroke-width="0.0"><g fill="rgb(241,237,226)" fill-opacity="1.0"><g fill="rgb(241,237,226)" fill-opacity="1.0"><path d="M 284.6585748670751,488.8004147607437 c 0.0,-2.596801199652402 -2.1051233065882613,-4.701924506240664 -4.701924506240663 -4.701924506240664c -2.596801199652402,-1.5900821385881604e-16 -4.701924506240664,2.105123306588261 -4.701924506240664 4.701924506240662c -3.1801642771763207e-16,2.596801199652402 2.1051233065882604,4.701924506240664 4.701924506240662 4.701924506240664c 2.596801199652402,4.770246415764482e-16 4.701924506240664,-2.1051233065882604 4.701924506240665 -4.701924506240662Z" /></g></g></g><g fill="rgb(240,162,188)" fill-opacity="1.0" stroke-width="0.0"><g fill="rgb(240,162,188)" fill-opacity="1.0"><g fill="rgb(240,162,188)" fill-opacity="1.0"><path d="M 319.27008513376336,199.4107510175781 c 0.0,-2.314915296828879 -1.876609632183034,-4.191524929011913 -4.191524929011912 -4.191524929011913c -2.314915296828879,-1.4174768042793656e-16 -4.191524929011913,1.8766096321830337 -4.191524929011913 4.191524929011911c -2.8349536085587313e-16,2.314915296828879 1.8766096321830334,4.191524929011913 4.191524929011911 4.191524929011913c 2.314915296828879,4.2524304128380967e-16 4.191524929011913,-1.8766096321830332 4.191524929011913 -4.191524929011911Z" /></g></g></g><g fill="rgb(245,180,86)" fill-opacity="1.0" stroke-width="0.0"><g fill="rgb(245,180,86)" fill-opacity="1.0"><g fill="rgb(245,180,86)" fill-opacity="1.0"><path d="M 338.1694774586518,449.8957582152382 c 0.0,-1.0834568235900008 -0.8783152947274893,-1.9617721183174903 -1.9617721183174899 -1.9617721183174903c -1.0834568235900008,-6.634259655119265e-17 -1.9617721183174903,0.8783152947274891 -1.9617721183174903 1.9617721183174897c -1.326851931023853e-16,1.0834568235900008 0.878315294727489,1.9617721183174903 1.9617721183174894 1.9617721183174903c 1.0834568235900008,1.9902778965357795e-16 1.9617721183174903,-0.8783152947274889 1.9617721183174908 -1.9617721183174897Z" /></g></g></g><g fill="rgb(209,95,105)" fill-opacity="1.0" stroke-width="0.0"><g fill="rgb(209,95,105)" fill-opacity="1.0"><g fill="rgb(209,95,105)" fill-opacity="1.0"><path d="M 278.81550326302795,163.59222681595062 c 0.0,-2.510821985637186 -2.035423382185192,-4.546245367822379 -4.546245367822378 -4.546245367822379c -2.510821985637186,-1.5374350539696908e-16 -4.546245367822379,2.035423382185192 -4.546245367822379 4.546245367822377c -3.0748701079393815e-16,2.510821985637186 2.0354233821851917,4.546245367822379 4.546245367822377 4.546245367822379c 2.510821985637186,4.612305161909072e-16 4.546245367822379,-2.0354233821851913 4.546245367822379 -4.546245367822377Z" /></g></g></g><g fill="rgb(209,95,105)" fill-opacity="1.0" stroke-width="0.0"><g fill="rgb(209,95,105)" fill-opacity="1.0"><g fill="rgb(209,95,105)" fill-opacity="1.0"><path d="M 99.1291340953067,313.6377488596978 c 0.0,-3.0013244298155803 -2.4330541778412713,-5.4343786076568525 -5.434378607656852 -5.4343786076568525c -3.0013244298155803,-1.8377811780882028e-16 -5.4343786076568525,2.4330541778412713 -5.4343786076568525 5.434378607656851c -3.6755623561764056e-16,3.0013244298155803 2.433054177841271,5.4343786076568525 5.43437860765685 5.4343786076568525c 3.0013244298155803,5.513343534264609e-16 5.4343786076568525,-2.4330541778412704 5.434378607656853 -5.434378607656851Z" /></g></g></g><g fill="rgb(185,161,185)" fill-opacity="1.0" stroke-width="0.0"><g fill="rgb(185,161,185)" fill-opacity="1.0"><g fill="rgb(185,161,185)" fill-opacity="1.0"><path d="M 442.7634102618799,371.63871486343794 c 0.0,-2.083683214586542 -1.6891589926714554,-3.7728422072579977 -3.772842207257997 -3.7728422072579977c -2.083683214586542,-1.275887989590238e-16 -3.7728422072579977,1.6891589926714552 -3.7728422072579977 3.7728422072579963c -2.551775979180476e-16,2.083683214586542 1.689158992671455,3.7728422072579977 3.772842207257996 3.7728422072579977c 2.083683214586542,3.8276639687707136e-16 3.7728422072579977,-1.6891589926714548 3.7728422072579986 -3.7728422072579963Z" /></g></g></g><g fill="rgb(97,91,91)" fill-opacity="1.0" stroke-width="0.0"><g fill="rgb(97,91,91)" fill-opacity="1.0"><g fill="rgb(97,91,91)" fill-opacity="1.0"><path d="M 107.90059315143833,385.07871241628027 c 0.0,-2.143633101987969 -1.7377579786904773,-3.881391080678447 -3.881391080678446 -3.881391080678447c -2.143633101987969,-1.312596708447939e-16 -3.881391080678447,1.737757978690477 -3.881391080678447 3.8813910806784455c -2.625193416895878e-16,2.143633101987969 1.7377579786904769,3.881391080678447 3.881391080678445 3.881391080678447c 2.143633101987969,3.937790125343817e-16 3.881391080678447,-1.7377579786904767 3.8813910806784477 -3.8813910806784455Z" /></g></g></g><g fill="rgb(72,189,190)" fill-opacity="1.0" stroke-width="0.0"><g fill="rgb(72,189,190)" fill-opacity="1.0"><g fill="rgb(72,189,190)" fill-opacity="1.0"><path d="M 182.19287733066852,269.35887245811375 c 0.0,-1.2231460199319646 -0.9915557626298507,-2.2147017825618156 -2.214701782561815 -2.2147017825618156c -1.2231460199319646,-7.489609290997526e-17 -2.2147017825618156,0.9915557626298506 -2.2147017825618156 2.2147017825618147c -1.4979218581995052e-16,1.2231460199319646 0.9915557626298505,2.2147017825618156 2.2147017825618147 2.2147017825618156c 1.2231460199319646,2.246882787299258e-16 2.2147017825618156,-0.9915557626298503 2.2147017825618156 -2.2147017825618147Z" /></g></g></g><g fill="rgb(245,180,86)" fill-opacity="1.0" stroke-width="0.0"><g fill="rgb(245,180,86)" fill-opacity="1.0"><g fill="rgb(245,180,86)" fill-opacity="1.0"><path d="M 489.9887630372975,275.0114523054273 c 0.0,-2.046514747636573 -1.659027996869001,-3.705542744505574 -3.705542744505573 -3.705542744505574c -2.046514747636573,-1.253128867550491e-16 -3.705542744505574,1.6590279968690007 -3.705542744505574 3.7055427445055726c -2.506257735100982e-16,2.046514747636573 1.6590279968690005,3.705542744505574 3.705542744505572 3.705542744505574c 2.046514747636573,3.759386602651473e-16 3.705542744505574,-1.6590279968690003 3.705542744505575 -3.7055427445055726Z" /></g></g></g><g fill="rgb(168,145,120)" fill-opacity="1.0" stroke-width="0.0"><g fill="rgb(168,145,120)" fill-opacity="1.0"><g fill="rgb(168,145,120)" fill-opacity="1.0"><path d="M 359.75214287166807,527.0014810413747 c 0.0,-2.0133650790152697 -1.6321548808100115,-3.6455199598252817 -3.6455199598252808 -3.6455199598252817c -2.0133650790152697,-1.232830549765554e-16 -3.6455199598252817,1.6321548808100113 -3.6455199598252817 3.6455199598252803c -2.465661099531108e-16,2.0133650790152697 1.632154880810011,3.6455199598252817 3.64551995982528 3.6455199598252817c 2.0133650790152697,3.698491649296662e-16 3.6455199598252817,-1.6321548808100108 3.6455199598252825 -3.6455199598252803Z" /></g></g></g><g fill="rgb(240,162,188)" fill-opacity="1.0" stroke-width="0.0"><g fill="rgb(240,162,188)" fill-opacity="1.0"><g fill="rgb(240,162,188)" fill-opacity="1.0"><path d="M 361.3025054297431,148.31693186025817 c 0.0,-1.520314739605787 -1.232458607968221,-2.752773347574008 -2.7527733475740077 -2.752773347574008c -1.520314739605787,-9.309242897773843e-17 -2.752773347574008,1.2324586079682207 -2.752773347574008 2.7527733475740073c -1.8618485795547686e-16,1.520314739605787 1.2324586079682207,2.752773347574008 2.752773347574007 2.752773347574008c 1.520314739605787,2.792772869332153e-16 2.752773347574008,-1.2324586079682205 2.7527733475740095 -2.7527733475740073Z" /></g></g></g><g fill="rgb(241,237,226)" fill-opacity="1.0" stroke-width="0.0"><g fill="rgb(241,237,226)" fill-opacity="1.0"><g fill="rgb(241,237,226)" fill-opacity="1.0"><path d="M 353.37147199368076,245.50077328709662 c 0.0,-2.6759956527369226 -2.169323095529768,-4.845318748266691 -4.84531874826669 -4.845318748266691c -2.6759956527369226,-1.6385747553282523e-16 -4.845318748266691,2.1693230955297675 -4.845318748266691 4.845318748266689c -3.2771495106565045e-16,2.6759956527369226 2.169323095529767,4.845318748266691 4.845318748266689 4.845318748266691c 2.6759956527369226,4.915724265984756e-16 4.845318748266691,-2.169323095529767 4.845318748266691 -4.845318748266689Z" /></g></g></g><g fill="rgb(185,161,185)" fill-opacity="1.0" stroke-width="0.0"><g fill="rgb(185,161,185)" fill-opacity="1.0"><g fill="rgb(185,161,185)" fill-opacity="1.0"><path d="M 444.0625815772296,147.49048825195058 c 0.0,-2.477395335893889 -2.008325728562267,-4.485721064456157 -4.485721064456156 -4.485721064456157c -2.477395335893889,-1.5169671341625164e-16 -4.485721064456157,2.008325728562267 -4.485721064456157 4.485721064456155c -3.033934268325033e-16,2.477395335893889 2.0083257285622667,4.485721064456157 4.485721064456155 4.485721064456157c 2.477395335893889,4.55090140248755e-16 4.485721064456157,-2.0083257285622667 4.485721064456157 -4.485721064456155Z" /></g></g></g><g fill="rgb(173,210,116)" fill-opacity="1.0" stroke-width="0.0"><g fill="rgb(173,210,116)" fill-opacity="1.0"><g fill="rgb(173,210,116)" fill-opacity="1.0"><path d="M 468.0327760849709,469.4172202002594 c 0.0,-0.6168181615056973 -0.5000299167631219,-1.1168480782688195 -1.1168480782688193 -1.1168480782688195c -0.6168181615056973,-3.776921935719537e-17 -1.1168480782688195,0.5000299167631219 -1.1168480782688195 1.116848078268819c -7.553843871439075e-17,0.6168181615056973 0.5000299167631218,1.1168480782688195 1.116848078268819 1.1168480782688195c 0.6168181615056973,1.1330765807158612e-16 1.1168480782688195,-0.5000299167631218 1.11684807826882 -1.116848078268819Z" /></g></g></g><g fill="rgb(191,49,49)" fill-opacity="1.0" stroke-width="0.0"><g fill="rgb(191,49,49)" fill-opacity="1.0"><g fill="rgb(191,49,49)" fill-opacity="1.0"><path d="M 255.15313866070892,537.7612466876703 c 0.0,-0.6646113853028154 -0.5387739797764051,-1.2033853650792206 -1.2033853650792203 -1.2033853650792206c -0.6646113853028154,-4.069571028439905e-17 -1.2033853650792206,0.538773979776405 -1.2033853650792206 1.2033853650792201c -8.13914205687981e-17,0.6646113853028154 0.538773979776405,1.2033853650792206 1.2033853650792201 1.2033853650792206c 0.6646113853028154,1.2208713085319717e-16 1.2033853650792206,-0.5387739797764048 1.203385365079221 -1.2033853650792201Z" /></g></g></g><g fill="rgb(168,145,120)" fill-opacity="1.0" stroke-width="0.0"><g fill="rgb(168,145,120)" fill-opacity="1.0"><g fill="rgb(168,145,120)" fill-opacity="1.0"><path d="M 241.25723261137853,227.9665630625786 c 0.0,-0.45250193873792366 -0.3668252993879872,-0.8193272381259109 -0.8193272381259107 -0.8193272381259109c -0.45250193873792366,-2.7707752544168494e-17 -0.8193272381259109,0.36682529938798714 -0.8193272381259109 0.8193272381259107c -5.541550508833699e-17,0.45250193873792366 0.3668252993879871,0.8193272381259109 0.8193272381259106 0.8193272381259109c 0.45250193873792366,8.312325763250548e-17 0.8193272381259109,-0.366825299387987 0.819327238125911 -0.8193272381259107Z" /></g></g></g><g fill="rgb(235,86,92)" fill-opacity="1.0" stroke-width="0.0"><g fill="rgb(235,86,92)" fill-opacity="1.0"><g fill="rgb(235,86,92)" fill-opacity="1.0"><path d="M 407.4130500706076,402.7166679623051 c 0.0,-1.455647246064493 -1.180035246545465,-2.6356824926099582 -2.635682492609958 -2.6356824926099582c -1.455647246064493,-8.913268702902704e-17 -2.6356824926099582,1.1800352465454649 -2.6356824926099582 2.6356824926099574c -1.7826537405805408e-16,1.455647246064493 1.1800352465454647,2.6356824926099582 2.635682492609957 2.6356824926099582c 1.455647246064493,2.673980610870811e-16 2.6356824926099582,-1.1800352465454647 2.6356824926099596 -2.6356824926099574Z" /></g></g></g><g fill="rgb(168,145,120)" fill-opacity="1.0" stroke-width="0.0"><g fill="rgb(168,145,120)" fill-opacity="1.0"><g fill="rgb(168,145,120)" fill-opacity="1.0"><path d="M 115.26229361560041,200.3534778335255 c 0.0,-1.0312864998421092 -0.8360228911162145,-1.867309390958324 -1.8673093909583236 -1.867309390958324c -1.0312864998421092,-6.314808555177582e-17 -1.867309390958324,0.8360228911162144 -1.867309390958324 1.8673093909583234c -1.2629617110355165e-16,1.0312864998421092 0.8360228911162143,1.867309390958324 1.8673093909583232 1.867309390958324c 1.0312864998421092,1.8944425665532748e-16 1.867309390958324,-0.8360228911162142 1.8673093909583245 -1.8673093909583234Z" /></g></g></g><g fill="rgb(168,145,120)" fill-opacity="1.0" stroke-width="0.0"><g fill="rgb(168,145,120)" fill-opacity="1.0"><g fill="rgb(168,145,120)" fill-opacity="1.0"><path d="M 198.62591104329633,277.87801073724756 c 0.0,-0.5528966569064622 -0.44821129886428135,-1.0011079557707436 -1.0011079557707434 -1.0011079557707436c -0.5528966569064622,-3.3855156056988564e-17 -1.0011079557707436,0.4482112988642813 -1.0011079557707436 1.0011079557707432c -6.771031211397713e-17,0.5528966569064622 0.44821129886428124,1.0011079557707436 1.0011079557707432 1.0011079557707436c 0.5528966569064622,1.0156546817096569e-16 1.0011079557707436,-0.4482112988642812 1.001107955770744 -1.0011079557707432Z" /></g></g></g><g fill="rgb(168,145,120)" fill-opacity="1.0" stroke-width="0.0"><g fill="rgb(168,145,120)" fill-opacity="1.0"><g fill="rgb(168,145,120)" fill-opacity="1.0"><path d="M 195.53550940382195,247.1666529045299 c 0.0,-1.7622572848309432 -1.4285917932412933,-3.1908490780722367 -3.190849078072236 -3.1908490780722367c -1.7622572848309432,-1.07907137157116e-16 -3.1908490780722367,1.428591793241293 -3.1908490780722367 3.190849078072236c -2.15814274314232e-16,1.7622572848309432 1.4285917932412928,3.1908490780722367 3.1908490780722354 3.1908490780722367c 1.7622572848309432,3.23721411471348e-16 3.1908490780722367,-1.4285917932412926 3.190849078072237 -3.190849078072236Z" /></g></g></g><g fill="rgb(245,180,86)" fill-opacity="1.0" stroke-width="0.0"><g fill="rgb(245,180,86)" fill-opacity="1.0"><g fill="rgb(245,180,86)" fill-opacity="1.0"><path d="M 250.5183150520383,217.77824317148796 c 0.0,-0.9503405632359364 -0.770403244242176,-1.7207438074781125 -1.720743807478112 -1.7207438074781125c -0.9503405632359364,-5.819157644333911e-17 -1.7207438074781125,0.7704032442421759 -1.7207438074781125 1.7207438074781118c -1.1638315288667822e-16,0.9503405632359364 0.7704032442421758,1.7207438074781125 1.7207438074781118 1.7207438074781125c 0.9503405632359364,1.7457472933001733e-16 1.7207438074781125,-0.7704032442421757 1.7207438074781127 -1.7207438074781118Z" /></g></g></g><g fill="rgb(191,49,49)" fill-opacity="1.0" stroke-width="0.0"><g fill="rgb(191,49,49)" fill-opacity="1.0"><g fill="rgb(191,49,49)" fill-opacity="1.0"><path d="M 192.68745637386064,256.18555410775105 c 0.0,-1.3626418653488985 -1.1046394886381137,-2.4672813539870124 -2.467281353987012 -2.4672813539870124c -1.3626418653488985,-8.343774993918536e-17 -2.4672813539870124,1.1046394886381135 -2.4672813539870124 2.4672813539870115c -1.6687549987837072e-16,1.3626418653488985 1.1046394886381135,2.4672813539870124 2.4672813539870115 2.4672813539870124c 1.3626418653488985,2.5031324981755607e-16 2.4672813539870124,-1.1046394886381132 2.4672813539870124 -2.4672813539870115Z" /></g></g></g><g fill="rgb(97,91,91)" fill-opacity="1.0" stroke-width="0.0"><g fill="rgb(97,91,91)" fill-opacity="1.0"><g fill="rgb(97,91,91)" fill-opacity="1.0"><path d="M 181.33698687973293,463.83861651546647 c 0.0,-1.268405200983449 -1.028245578115661,-2.29665077909911 -2.2966507790991098 -2.29665077909911c -1.268405200983449,-7.766741847031179e-17 -2.29665077909911,1.0282455781156608 -2.29665077909911 2.2966507790991093c -1.5533483694062358e-16,1.268405200983449 1.0282455781156608,2.29665077909911 2.2966507790991093 2.29665077909911c 1.268405200983449,2.3300225541093537e-16 2.29665077909911,-1.0282455781156605 2.296650779099111 -2.2966507790991093Z" /></g></g></g><g fill="rgb(209,95,105)" fill-opacity="1.0" stroke-width="0.0"><g fill="rgb(209,95,105)" fill-opacity="1.0"><g fill="rgb(209,95,105)" fill-opacity="1.0"><path d="M 266.5489451376904,570.6823134532556 c 0.0,-0.9171033106965425 -0.7434591273891016,-1.6605624380856443 -1.6605624380856439 -1.6605624380856443c -0.9171033106965425,-5.615638169659807e-17 -1.6605624380856443,0.7434591273891015 -1.6605624380856443 1.6605624380856439c -1.1231276339319613e-16,0.9171033106965425 0.7434591273891015,1.6605624380856443 1.6605624380856436 1.6605624380856443c 0.9171033106965425,1.684691450897942e-16 1.6605624380856443,-0.7434591273891014 1.6605624380856445 -1.6605624380856439Z" /></g></g></g><g fill="rgb(241,237,226)" fill-opacity="1.0" stroke-width="0.0"><g fill="rgb(241,237,226)" fill-opacity="1.0"><g fill="rgb(241,237,226)" fill-opacity="1.0"><path d="M 212.41172209101273,357.1995252658695 c 0.0,-1.068204288036427 -0.8659506716355513,-1.9341549596719785 -1.934154959671978 -1.9341549596719785c -1.068204288036427,-6.540864810896438e-17 -1.9341549596719785,0.8659506716355512 -1.9341549596719785 1.9341549596719778c -1.3081729621792875e-16,1.068204288036427 0.8659506716355511,1.9341549596719785 1.9341549596719776 1.9341549596719785c 1.068204288036427,1.9622594432689314e-16 1.9341549596719785,-0.865950671635551 1.934154959671979 -1.9341549596719778Z" /></g></g></g><g fill="rgb(97,91,91)" fill-opacity="1.0" stroke-width="0.0"><g fill="rgb(97,91,91)" fill-opacity="1.0"><g fill="rgb(97,91,91)" fill-opacity="1.0"><path d="M 131.90696649204185,503.90670076582 c 0.0,-1.4188460566424732 -1.150201988006909,-2.5690480446493824 -2.569048044649382 -2.5690480446493824c -1.4188460566424732,-8.687926408750246e-17 -2.5690480446493824,1.1502019880069088 -2.5690480446493824 2.5690480446493815c -1.7375852817500491e-16,1.4188460566424732 1.1502019880069085,2.5690480446493824 2.569048044649381 2.5690480446493824c 1.4188460566424732,2.6063779226250734e-16 2.5690480446493824,-1.1502019880069085 2.5690480446493837 -2.5690480446493815Z" /></g></g></g><g fill="rgb(245,180,86)" fill-opacity="1.0" stroke-width="0.0"><g fill="rgb(245,180,86)" fill-opacity="1.0"><g fill="rgb(245,180,86)" fill-opacity="1.0"><path d="M 545.9728369987666,173.23163343971325 c 0.0,-1.4766163978488218 -1.1970341027330262,-2.6736505005818483 -2.673650500581848 -2.6736505005818483c -1.4766163978488218,-9.04166772597027e-17 -2.6736505005818483,1.197034102733026 -2.6736505005818483 2.6736505005818474c -1.808333545194054e-16,1.4766163978488218 1.197034102733026,2.6736505005818483 2.673650500581847 2.6736505005818483c 1.4766163978488218,2.712500317791081e-16 2.6736505005818483,-1.1970341027330258 2.6736505005818496 -2.6736505005818474Z" /></g></g></g><g fill="rgb(241,237,226)" fill-opacity="1.0" stroke-width="0.0"><g fill="rgb(241,237,226)" fill-opacity="1.0"><g fill="rgb(241,237,226)" fill-opacity="1.0"><path d="M 196.21035948681197,671.341600366613 c 0.0,-1.2004071464497144 -0.9731222635466501,-2.1735294099963647 -2.1735294099963642 -2.1735294099963647c -1.2004071464497144,-7.350373847866253e-17 -2.1735294099963647,0.97312226354665 -2.1735294099963647 2.173529409996364c -1.4700747695732506e-16,1.2004071464497144 0.9731222635466499,2.1735294099963647 2.173529409996364 2.1735294099963647c 1.2004071464497144,2.205112154359876e-16 2.1735294099963647,-0.9731222635466498 2.1735294099963647 -2.173529409996364Z" /></g></g></g><g fill="rgb(168,145,120)" fill-opacity="1.0" stroke-width="0.0"><g fill="rgb(168,145,120)" fill-opacity="1.0"><g fill="rgb(168,145,120)" fill-opacity="1.0"><path d="M 454.5140664639973,395.754958804504 c 0.0,-0.47878302538303963 -0.3881303296022772,-0.866913354985317 -0.8669133549853167 -0.866913354985317c -0.47878302538303963,-2.931700497607127e-17 -0.866913354985317,0.3881303296022772 -0.866913354985317 0.8669133549853166c -5.863400995214254e-17,0.47878302538303963 0.38813032960227717,0.866913354985317 0.8669133549853166 0.866913354985317c 0.47878302538303963,8.795101492821381e-17 0.866913354985317,-0.3881303296022771 0.8669133549853171 -0.8669133549853166Z" /></g></g></g><g fill="rgb(185,161,185)" fill-opacity="1.0" stroke-width="0.0"><g fill="rgb(185,161,185)" fill-opacity="1.0"><g fill="rgb(185,161,185)" fill-opacity="1.0"><path d="M 386.43453322229817,387.75728983926393 c 0.0,-0.3469830751979191 -0.2812853593446356,-0.6282684345425548 -0.6282684345425547 -0.6282684345425548c -0.3469830751979191,-2.124658561997185e-17 -0.6282684345425548,0.28128535934463555 -0.6282684345425548 0.6282684345425545c -4.24931712399437e-17,0.3469830751979191 0.28128535934463555,0.6282684345425548 0.6282684345425544 0.6282684345425548c 0.3469830751979191,6.373975685991555e-17 0.6282684345425548,-0.2812853593446355 0.6282684345425549 -0.6282684345425545Z" /></g></g></g><g fill="rgb(191,49,49)" fill-opacity="1.0" stroke-width="0.0"><g fill="rgb(191,49,49)" fill-opacity="1.0"><g fill="rgb(191,49,49)" fill-opacity="1.0"><path d="M 280.31986179705393,503.60510178072417 c 0.0,-0.46663110054365525 -0.37827924812452646,-0.8449103486681818 -0.8449103486681816 -0.8449103486681818c -0.46663110054365525,-2.8572914183169705e-17 -0.8449103486681818,0.3782792481245264 -0.8449103486681818 0.8449103486681815c -5.714582836633941e-17,0.46663110054365525 0.37827924812452635,0.8449103486681818 0.8449103486681815 0.8449103486681818c 0.46663110054365525,8.571874254950913e-17 0.8449103486681818,-0.37827924812452635 0.8449103486681819 -0.8449103486681815Z" /></g></g></g><g fill="rgb(245,180,86)" fill-opacity="1.0" stroke-width="0.0"><g fill="rgb(245,180,86)" fill-opacity="1.0"><g fill="rgb(245,180,86)" fill-opacity="1.0"><path d="M 98.71797723991774,439.11534574666194 c 0.0,-0.7598933470030717 -0.6160152712158531,-1.3759086182189249 -1.3759086182189246 -1.3759086182189249c -0.7598933470030717,-4.653004775503403e-17 -1.3759086182189249,0.616015271215853 -1.3759086182189249 1.3759086182189244c -9.306009551006805e-17,0.7598933470030717 0.616015271215853,1.3759086182189249 1.3759086182189242 1.3759086182189249c 0.7598933470030717,1.3959014326510208e-16 1.3759086182189249,-0.6160152712158529 1.3759086182189255 -1.3759086182189244Z" /></g></g></g><g fill="rgb(191,49,49)" fill-opacity="1.0" stroke-width="0.0"><g fill="rgb(191,49,49)" fill-opacity="1.0"><g fill="rgb(191,49,49)" fill-opacity="1.0"><path d="M 539.9431122515512,241.1064835514922 c 0.0,-0.4540151966522544 -0.36805203730876573,-0.8220672339610202 -0.82206723396102 -0.8220672339610202c -0.4540151966522544,-2.780041286722197e-17 -0.8220672339610202,0.3680520373087657 -0.8220672339610202 0.82206723396102c -5.560082573444394e-17,0.4540151966522544 0.3680520373087656,0.8220672339610202 0.8220672339610199 0.8220672339610202c 0.4540151966522544,8.340123860166592e-17 0.8220672339610202,-0.36805203730876557 0.8220672339610203 -0.82206723396102Z" /></g></g></g><g fill="rgb(72,189,190)" fill-opacity="1.0" stroke-width="0.0"><g fill="rgb(72,189,190)" fill-opacity="1.0"><g fill="rgb(72,189,190)" fill-opacity="1.0"><path d="M 424.4749545407185,1.1664889293272722 c 0.0,-0.6442340465138893 -0.5222548828133586,-1.166488929327248 -1.1664889293272478 -1.166488929327248c -0.6442340465138893,-3.944795814824908e-17 -1.166488929327248,0.5222548828133585 -1.166488929327248 1.1664889293272476c -7.889591629649815e-17,0.6442340465138893 0.5222548828133585,1.166488929327248 1.1664889293272476 1.166488929327248c 0.6442340465138893,1.1834387444474722e-16 1.166488929327248,-0.5222548828133584 1.166488929327248 -1.1664889293272476Z" /></g></g></g><g fill="rgb(235,86,92)" fill-opacity="1.0" stroke-width="0.0"><g fill="rgb(235,86,92)" fill-opacity="1.0"><g fill="rgb(235,86,92)" fill-opacity="1.0"><path d="M 723.0383770303918,202.1119647095557 c 0.0,-0.9877821611284662 -0.8007556564214452,-1.7885378175499116 -1.7885378175499111 -1.7885378175499116c -0.9877821611284662,-6.048421309404156e-17 -1.7885378175499116,0.8007556564214451 -1.7885378175499116 1.788537817549911c -1.2096842618808313e-16,0.9877821611284662 0.800755656421445,1.7885378175499116 1.7885378175499107 1.7885378175499116c 0.9877821611284662,1.8145263928212468e-16 1.7885378175499116,-0.8007556564214449 1.788537817549912 -1.788537817549911Z" /></g></g></g><g fill="rgb(209,95,105)" fill-opacity="1.0" stroke-width="0.0"><g fill="rgb(209,95,105)" fill-opacity="1.0"><g fill="rgb(209,95,105)" fill-opacity="1.0"><path d="M 470.13659572970056,405.6845106171343 c 0.0,-0.6449453645038022 -0.5228315199772515,-1.1677768844810539 -1.1677768844810537 -1.1677768844810539c -0.6449453645038022,-3.949151381322522e-17 -1.1677768844810539,0.5228315199772514 -1.1677768844810539 1.1677768844810534c -7.898302762645043e-17,0.6449453645038022 0.5228315199772514,1.1677768844810539 1.1677768844810534 1.1677768844810539c 0.6449453645038022,1.1847454143967566e-16 1.1677768844810539,-0.5228315199772513 1.1677768844810539 -1.1677768844810534Z" /></g></g></g><g fill="rgb(241,237,226)" fill-opacity="1.0" stroke-width="0.0"><g fill="rgb(241,237,226)" fill-opacity="1.0"><g fill="rgb(241,237,226)" fill-opacity="1.0"><path d="M 265.4996083562703,664.2146802234794 c 0.0,-0.4648587419427568 -0.3768424675966666,-0.8417012095394235 -0.8417012095394233 -0.8417012095394235c -0.4648587419427568,-2.8464388518793124e-17 -0.8417012095394235,0.3768424675966666 -0.8417012095394235 0.8417012095394232c -5.692877703758625e-17,0.4648587419427568 0.37684246759666656,0.8417012095394235 0.8417012095394232 0.8417012095394235c 0.4648587419427568,8.539316555637938e-17 0.8417012095394235,-0.3768424675966665 0.8417012095394236 -0.8417012095394232Z" /></g></g></g><g fill="rgb(168,145,120)" fill-opacity="1.0" stroke-width="0.0"><g fill="rgb(168,145,120)" fill-opacity="1.0"><g fill="rgb(168,145,120)" fill-opacity="1.0"><path d="M 283.4403096844975,763.958535434828 c 0.0,-0.3071049823967267 -0.24895777778416933,-0.5560627601808961 -0.556062760180896 -0.5560627601808961c -0.3071049823967267,-1.8804756684717778e-17 -0.5560627601808961,0.2489577777841693 -0.5560627601808961 0.5560627601808958c -3.7609513369435556e-17,0.3071049823967267 0.24895777778416928,0.5560627601808961 0.5560627601808958 0.5560627601808961c 0.3071049823967267,5.641427005415334e-17 0.5560627601808961,-0.24895777778416922 0.5560627601808963 -0.5560627601808958Z" /></g></g></g><g fill="rgb(168,145,120)" fill-opacity="1.0" stroke-width="0.0"><g fill="rgb(168,145,120)" fill-opacity="1.0"><g fill="rgb(168,145,120)" fill-opacity="1.0"><path d="M 471.3045308229054,307.5428328348903 c 0.0,-0.6641647817210679 -0.5384119360401082,-1.2025767177611761 -1.202576717761176 -1.2025767177611761c -0.6641647817210679,-4.066836370205531e-17 -1.2025767177611761,0.5384119360401081 -1.2025767177611761 1.2025767177611757c -8.133672740411062e-17,0.6641647817210679 0.538411936040108,1.2025767177611761 1.2025767177611757 1.2025767177611761c 0.6641647817210679,1.2200509110616594e-16 1.2025767177611761,-0.538411936040108 1.2025767177611761 -1.2025767177611757Z" /></g></g></g><g fill="rgb(168,145,120)" fill-opacity="1.0" stroke-width="0.0"><g fill="rgb(168,145,120)" fill-opacity="1.0"><g fill="rgb(168,145,120)" fill-opacity="1.0"><path d="M 483.32555737289755,55.66666010034646 c 0.0,-0.4492542842795513 -0.36419255526688155,-0.8134468395464329 -0.8134468395464327 -0.8134468395464329c -0.4492542842795513,-2.7508891062309377e-17 -0.8134468395464329,0.3641925552668815 -0.8134468395464329 0.8134468395464327c -5.5017782124618754e-17,0.4492542842795513 0.36419255526688143,0.8134468395464329 0.8134468395464326 0.8134468395464329c 0.4492542842795513,8.252667318692813e-17 0.8134468395464329,-0.36419255526688143 0.813446839546433 -0.8134468395464327Z" /></g></g></g><g fill="rgb(235,86,92)" fill-opacity="1.0" stroke-width="0.0"><g fill="rgb(235,86,92)" fill-opacity="1.0"><g fill="rgb(235,86,92)" fill-opacity="1.0"><path d="M 311.07763690362486,519.4207517254965 c 0.0,-0.5424433116548252 -0.43973718820691554,-0.9821804998617408 -0.9821804998617406 -0.9821804998617408c -0.5424433116548252,-3.321507326684859e-17 -0.9821804998617408,0.4397371882069155 -0.9821804998617408 0.9821804998617405c -6.643014653369718e-17,0.5424433116548252 0.43973718820691543,0.9821804998617408 0.9821804998617404 0.9821804998617408c 0.5424433116548252,9.964521980054578e-17 0.9821804998617408,-0.4397371882069154 0.982180499861741 -0.9821804998617405Z" /></g></g></g><g fill="rgb(173,210,116)" fill-opacity="1.0" stroke-width="0.0"><g fill="rgb(173,210,116)" fill-opacity="1.0"><g fill="rgb(173,210,116)" fill-opacity="1.0"><path d="M 182.9985906431919,523.8958845001919 c 0.0,-0.7348012707047167 -0.5956741243335163,-1.330475395038233 -1.3304753950382329 -1.330475395038233c -0.7348012707047167,-4.499360120889695e-17 -1.330475395038233,0.5956741243335162 -1.330475395038233 1.3304753950382326c -8.99872024177939e-17,0.7348012707047167 0.5956741243335162,1.330475395038233 1.3304753950382324 1.330475395038233c 0.7348012707047167,1.3498080362669086e-16 1.330475395038233,-0.5956741243335161 1.3304753950382338 -1.3304753950382326Z" /></g></g></g><g fill="rgb(97,91,91)" fill-opacity="1.0" stroke-width="0.0"><g fill="rgb(97,91,91)" fill-opacity="1.0"><g fill="rgb(97,91,91)" fill-opacity="1.0"><path d="M 800.0,272.67252433318606 c 0.0,-0.40654832798022394 -0.3295725373972473,-0.7361208653774713 -0.7361208653774712 -0.7361208653774713c -0.40654832798022394,-2.4893905427984477e-17 -0.7361208653774713,0.3295725373972473 -0.7361208653774713 0.7361208653774711c -4.9787810855968955e-17,0.40654832798022394 0.32957253739724723,0.7361208653774713 0.736120865377471 0.7361208653774713c 0.40654832798022394,7.468171628395344e-17 0.7361208653774713,-0.3295725373972472 0.7361208653774717 -0.7361208653774711Z" /></g></g></g><g fill="rgb(173,210,116)" fill-opacity="1.0" stroke-width="0.0"><g fill="rgb(173,210,116)" fill-opacity="1.0"><g fill="rgb(173,210,116)" fill-opacity="1.0"><path d="M 357.11729564712647,221.9943595102833 c 0.0,-0.36916643618760664 -0.2992685265751895,-0.6684349627627962 -0.6684349627627961 -0.6684349627627962c -0.36916643618760664,-2.2604924721489404e-17 -0.6684349627627962,0.2992685265751895 -0.6684349627627962 0.668434962762796c -4.520984944297881e-17,0.36916643618760664 0.29926852657518943,0.6684349627627962 0.6684349627627959 0.6684349627627962c 0.36916643618760664,6.781477416446821e-17 0.6684349627627962,-0.2992685265751894 0.6684349627627963 -0.668434962762796Z" /></g></g></g><g fill="rgb(209,95,105)" fill-opacity="1.0" stroke-width="0.0"><g fill="rgb(209,95,105)" fill-opacity="1.0"><g fill="rgb(209,95,105)" fill-opacity="1.0"><path d="M 341.606283664502,573.5498943799225 c 0.0,-0.6000826004979588 -0.4864630640017569,-1.0865456644997158 -1.0865456644997156 -1.0865456644997158c -0.6000826004979588,-3.674446179619225e-17 -1.0865456644997158,0.4864630640017568 -1.0865456644997158 1.0865456644997153c -7.34889235923845e-17,0.6000826004979588 0.48646306400175676,1.0865456644997158 1.0865456644997153 1.0865456644997158c 0.6000826004979588,1.1023338538857676e-16 1.0865456644997158,-0.4864630640017567 1.0865456644997162 -1.0865456644997153Z" /></g></g></g><g fill="rgb(185,161,185)" fill-opacity="1.0" stroke-width="0.0"><g fill="rgb(185,161,185)" fill-opacity="1.0"><g fill="rgb(185,161,185)" fill-opacity="1.0"><path d="M 708.677638412517,646.289726069482 c 0.0,-0.5344477288436422 -0.4332554876717221,-0.9677032165153644 -0.9677032165153642 -0.9677032165153644c -0.5344477288436422,-3.2725485021996946e-17 -0.9677032165153644,0.43325548767172206 -0.9677032165153644 0.9677032165153641c -6.545097004399389e-17,0.5344477288436422 0.433255487671722,0.9677032165153644 0.967703216515364 0.9677032165153644c 0.5344477288436422,9.817645506599084e-17 0.9677032165153644,-0.43325548767172195 0.9677032165153646 -0.9677032165153641Z" /></g></g></g><g fill="rgb(240,162,188)" fill-opacity="1.0" stroke-width="0.0"><g fill="rgb(240,162,188)" fill-opacity="1.0"><g fill="rgb(240,162,188)" fill-opacity="1.0"><path d="M 523.1059341992528,317.8120359489392 c 0.0,-0.30957398801631186 -0.2509593023038676,-0.5605332903201795 -0.5605332903201794 -0.5605332903201795c -0.30957398801631186,-1.8955939676172868e-17 -0.5605332903201795,0.25095930230386754 -0.5605332903201795 0.5605332903201793c -3.7911879352345736e-17,0.30957398801631186 0.25095930230386754,0.5605332903201795 0.5605332903201793 0.5605332903201795c 0.30957398801631186,5.686781902851861e-17 0.5605332903201795,-0.2509593023038675 0.5605332903201795 -0.5605332903201793Z" /></g></g></g><g fill="rgb(72,189,190)" fill-opacity="1.0" stroke-width="0.0"><g fill="rgb(72,189,190)" fill-opacity="1.0"><g fill="rgb(72,189,190)" fill-opacity="1.0"><path d="M 466.91930619665976,41.43336276310265 c 0.0,-0.40945882098109276 -0.33193195815329557,-0.7413907791343884 -0.7413907791343883 -0.7413907791343884c -0.40945882098109276,-2.5072121724857216e-17 -0.7413907791343884,0.33193195815329557 -0.7413907791343884 0.7413907791343882c -5.014424344971443e-17,0.40945882098109276 0.3319319581532955,0.7413907791343884 0.7413907791343881 0.7413907791343884c 0.40945882098109276,7.521636517457166e-17 0.7413907791343884,-0.33193195815329546 0.7413907791343886 -0.7413907791343882Z" /></g></g></g><g fill="rgb(191,49,49)" fill-opacity="1.0" stroke-width="0.0"><g fill="rgb(191,49,49)" fill-opacity="1.0"><g fill="rgb(191,49,49)" fill-opacity="1.0"><path d="M 1.7274579823906322,697.4316011522379 c 0.0,-0.47702434982390085 -0.3867046413714008,-0.8637289911953018 -0.8637289911953016 -0.8637289911953018c -0.47702434982390085,-2.9209317156359374e-17 -0.8637289911953018,0.3867046413714008 -0.8637289911953018 0.8637289911953014c -5.841863431271875e-17,0.47702434982390085 0.38670464137140076,0.8637289911953018 0.8637289911953014 0.8637289911953018c 0.47702434982390085,8.762795146907812e-17 0.8637289911953018,-0.3867046413714007 0.8637289911953019 -0.8637289911953014Z" /></g></g></g><g fill="rgb(173,210,116)" fill-opacity="1.0" stroke-width="0.0"><g fill="rgb(173,210,116)" fill-opacity="1.0"><g fill="rgb(173,210,116)" fill-opacity="1.0"><path d="M 707.9986410515927,633.6327118238792 c 0.0,-0.3442531452260807 -0.2790723138447182,-0.623325459070799 -0.6233254590707988 -0.623325459070799c -0.3442531452260807,-2.1079425619876432e-17 -0.623325459070799,0.27907231384471815 -0.623325459070799 0.6233254590707987c -4.2158851239752864e-17,0.3442531452260807 0.27907231384471815,0.623325459070799 0.6233254590707987 0.623325459070799c 0.3442531452260807,6.32382768596293e-17 0.623325459070799,-0.2790723138447181 0.623325459070799 -0.6233254590707987Z" /></g></g></g></g></g></g></svg>