<?xml version="1.0" encoding="UTF-8"?>
<!DOCTYPE svg PUBLIC "-//W3C//DTD SVG 1.1//EN"
    "http://www.w3.org/Graphics/SVG/1.1/DTD/svg11.dtd">
<svg xmlns="http://www.w3.org/2000/svg" xmlns:xlink="http://www.w3.org/1999/xlink" version="1.1" width="800.0" height="862.7009057199585" font-size="1" viewBox="0 0 800 863" stroke="rgb(0,0,0)" stroke-opacity="1"><g><g fill="rgb(0,0,0)" fill-opacity="0.0"><g stroke="rgb(0,0,0)" stroke-opacity="1.0" stroke-width="3.3230365019384713" stroke-linecap="butt" stroke-linejoin="miter" font-size="1.0em" stroke-miterlimit="10.0"><g fill="rgb(209,95,105)" fill-opacity="1.0" stroke-width="0.0"><g fill="rgb(209,95,105)" fill-opacity="1.0"><g fill="rgb(209,95,105)" fill-opacity="1.0"><path d="M 383.48494178478524,403.82075322531307 c 0.0,-21.963094547000477 -17.804605998287855,-39.767700545288335 -39.76770054528833 -39.767700545288335c -21.963094547000477,-1.344851671817741e-15 -39.767700545288335,17.80460599828785 -39.767700545288335 39.76770054528832c -2.689703343635482e-15,21.963094547000477 17.80460599828785,39.767700545288335 39.76770054528832 39.767700545288335c 21.963094547000477,4.0345550154532234e-15 39.767700545288335,-17.804605998287848 39.76770054528835 -39.76770054528832Z" /></g></g></g><g fill="rgb(241,237,226)" fill-opacity="1.0" stroke-width="0.0"><g fill="rgb(241,237,226)" fill-opacity="1.0"><g fill="rgb(241,237,226)" fill-opacity="1.0"><path d="M 293.41182508106624,412.79219157082713 c 0.0,-15.669893849531398 -12.702958839832682,-28.372852689364084 -28.372852689364077 -28.372852689364084c -15.669893849531398,-9.595042672903712e-16 -28.372852689364084,12.70295883983268 -28.372852689364084 28.372852689364073c -1.9190085345807424e-15,15.669893849531398 12.702958839832679,28.372852689364084 28.37285268936407 28.372852689364084c 15.669893849531398,2.8785128018711136e-15 28.372852689364084,-12.702958839832677 28.37285268936409 -28.372852689364073Z" /></g></g></g><g fill="rgb(245,180,86)" fill-opacity="1.0" stroke-width="0.0"><g fill="rgb(245,180,86)" fill-opacity="1.0"><g fill="rgb(245,180,86)" fill-opacity="1.0"><path d="M 386.68086836677276,499.710831428597 c 0.0,-16.611318752807442 -13.466134513640242,-30.077453266447687 -30.07745326644768 -30.077453266447687c -16.611318752807442,-1.017149917012102e-15 -30.077453266447687,13.46613451364024 -30.077453266447687 30.077453266447677c -2.034299834024204e-15,16.611318752807442 13.466134513640238,30.077453266447687 30.077453266447673 30.077453266447687c 16.611318752807442,3.0514497510363056e-15 30.077453266447687,-13.466134513640236 30.077453266447694 -30.077453266447677Z" /></g></g></g><g fill="rgb(235,86,92)" fill-opacity="1.0" stroke-width="0.0"><g fill="rgb(235,86,92)" fill-opacity="1.0"><g fill="rgb(235,86,92)" fill-opacity="1.0"><path d="M 416.6507949662699,466.5630600433464 c 0.0,-9.849218582515789 -7.984369227999254,-17.833587810515045 -17.83358781051504 -17.833587810515045c -9.849218582515789,-6.030907005590296e-16 -17.833587810515045,7.984369227999252 -17.833587810515045 17.833587810515038c -1.2061814011180592e-15,9.849218582515789 7.9843692279992515,17.833587810515045 17.833587810515038 17.833587810515045c 9.849218582515789,1.8092721016770886e-15 17.833587810515045,-7.984369227999251 17.833587810515045 -17.833587810515038Z" /></g></g></g><g fill="rgb(168,145,120)" fill-opacity="1.0" stroke-width="0.0"><g fill="rgb(168,145,120)" fill-opacity="1.0"><g fill="rgb(168,145,120)" fill-opacity="1.0"><path d="M 305.5042314561952,479.320733921088 c 0.0,-11.317339365109605 -9.174516273810282,-20.49185563891989 -20.491855638919887 -20.49185563891989c -11.317339365109605,-6.929871714172908e-16 -20.49185563891989,9.174516273810282 -20.49185563891989 20.491855638919883c -1.3859743428345817e-15,11.317339365109605 9.17451627381028,20.49185563891989 20.49185563891988 20.49185563891989c 11.317339365109605,2.0789615142518726e-15 20.49185563891989,-9.174516273810278 20.491855638919894 -20.491855638919883Z" /></g></g></g><g fill="rgb(173,210,116)" fill-opacity="1.0" stroke-width="0.0"><g fill="rgb(173,210,116)" fill-opacity="1.0"><g fill="rgb(173,210,116)" fill-opacity="1.0"><path d="M 426.1776012353304,375.96863825225546 c 0.0,-10.375724827419205 -8.411186870935806,-18.786911698355013 -18.78691169835501 -18.786911698355013c -10.375724827419205,-6.353299099366326e-16 -18.786911698355013,8.411186870935804 -18.786911698355013 18.786911698355006c -1.2706598198732652e-15,10.375724827419205 8.411186870935804,18.786911698355013 18.786911698355006 18.786911698355013c 10.375724827419205,1.905989729809898e-15 18.786911698355013,-8.411186870935802 18.78691169835502 -18.786911698355006Z" /></g></g></g><g fill="rgb(97,91,91)" fill-opacity="1.0" stroke-width="0.0"><g fill="rgb(97,91,91)" fill-opacity="1.0"><g fill="rgb(97,91,91)" fill-opacity="1.0"><path d="M 290.2967208848196,345.9566398362339 c 0.0,-10.527694928710346 -8.534382979353879,-19.06207790806423 -19.062077908064225 -19.06207790806423c -10.527694928710346,-6.446353948422474e-16 -19.06207790806423,8.534382979353879 -19.06207790806423 19.06207790806422c -1.2892707896844949e-15,10.527694928710346 8.534382979353877,19.06207790806423 19.06207790806422 19.06207790806423c 10.527694928710346,1.9339061845267424e-15 19.06207790806423,-8.534382979353877 19.06207790806423 -19.06207790806422Z" /></g></g></g><g fill="rgb(185,161,185)" fill-opacity="1.0" stroke-width="0.0"><g fill="rgb(185,161,185)" fill-opacity="1.0"><g fill="rgb(185,161,185)" fill-opacity="1.0"><path d="M 455.87064980207293,508.5094798902633 c 0.0,-14.86595829871456 -12.051240308107598,-26.91719860682216 -26.917198606822154 -26.91719860682216c -14.86595829871456,-9.102774123389408e-16 -26.91719860682216,12.051240308107598 -26.91719860682216 26.91719860682215c -1.8205548246778816e-15,14.86595829871456 12.051240308107596,26.91719860682216 26.91719860682215 26.91719860682216c 14.86595829871456,2.7308322370168225e-15 26.91719860682216,-12.051240308107595 26.917198606822165 -26.91719860682215Z" /></g></g></g><g fill="rgb(191,49,49)" fill-opacity="1.0" stroke-width="0.0"><g fill="rgb(191,49,49)" fill-opacity="1.0"><g fill="rgb(191,49,49)" fill-opacity="1.0"><path d="M 327.68575470170697,524.1902837588087 c 0.0,-7.446498457769346 -6.03657971893347,-13.483078176702817 -13.483078176702813 -13.483078176702817c -7.446498457769346,-4.559665250581466e-16 -13.483078176702817,6.036579718933469 -13.483078176702817 13.483078176702811c -9.119330501162931e-16,7.446498457769346 6.036579718933468,13.483078176702817 13.483078176702811 13.483078176702817c 7.446498457769346,1.3678995751744397e-15 13.483078176702817,-6.036579718933467 13.483078176702818 -13.483078176702811Z" /></g></g></g><g fill="rgb(173,210,116)" fill-opacity="1.0" stroke-width="0.0"><g fill="rgb(173,210,116)" fill-opacity="1.0"><g fill="rgb(173,210,116)" fill-opacity="1.0"><path d="M 479.3982053743987,426.47785144563835 c 0.0,-17.480030522309125 -14.170364545931628,-31.65039506824076 -31.65039506824075 -31.65039506824076c -17.480030522309125,-1.0703431714071953e-15 -31.65039506824076,14.170364545931626 -31.65039506824076 31.650395068240748c -2.1406863428143906e-15,17.480030522309125 14.170364545931625,31.65039506824076 31.650395068240744 31.65039506824076c 17.480030522309125,3.211029514221586e-15 31.65039506824076,-14.170364545931623 31.650395068240766 -31.650395068240748Z" /></g></g></g><g fill="rgb(235,86,92)" fill-opacity="1.0" stroke-width="0.0"><g fill="rgb(235,86,92)" fill-opacity="1.0"><g fill="rgb(235,86,92)" fill-opacity="1.0"><path d="M 288.2465082250937,536.9172882576172 c 0.0,-13.070025536982149 -10.595349146976595,-23.665374683958746 -23.665374683958742 -23.665374683958746c -13.070025536982149,-8.003082469319677e-16 -23.665374683958746,10.595349146976593 -23.665374683958746 23.66537468395874c -1.6006164938639354e-15,13.070025536982149 10.595349146976591,23.665374683958746 23.665374683958735 23.665374683958746c 13.070025536982149,2.400924740795903e-15 23.665374683958746,-10.59534914697659 23.665374683958756 -23.66537468395874Z" /></g></g></g><g fill="rgb(235,86,92)" fill-opacity="1.0" stroke-width="0.0"><g fill="rgb(235,86,92)" fill-opacity="1.0"><g fill="rgb(235,86,92)" fill-opacity="1.0"><path d="M 389.6289417545657,570.3332117827042 c 0.0,-18.278366666405724 -14.817543861643015,-33.09591052804874 -33.095910528048734 -33.09591052804874c -18.278366666405724,-1.1192271615827723e-15 -33.09591052804874,14.817543861643014 -33.09591052804874 33.09591052804873c -2.2384543231655445e-15,18.278366666405724 14.817543861643012,33.09591052804874 33.09591052804873 33.09591052804874c 18.278366666405724,3.3576814847483166e-15 33.09591052804874,-14.81754386164301 33.09591052804874 -33.09591052804873Z" /></g></g></g><g fill="rgb(241,237,226)" fill-opacity="1.0" stroke-width="0.0"><g fill="rgb(241,237,226)" fill-opacity="1.0"><g fill="rgb(241,237,226)" fill-opacity="1.0"><path d="M 234.6805484634606,479.70908304898217 c 0.0,-15.380138352486258 -12.468065598823921,-27.848203951310182 -27.848203951310175 -27.848203951310182c -15.380138352486258,-9.41761860190787e-16 -27.848203951310182,12.46806559882392 -27.848203951310182 27.848203951310172c -1.883523720381574e-15,15.380138352486258 12.468065598823918,27.848203951310182 27.848203951310172 27.848203951310182c 15.380138352486258,2.8252855805723614e-15 27.848203951310182,-12.468065598823918 27.848203951310186 -27.848203951310172Z" /></g></g></g><g fill="rgb(97,91,91)" fill-opacity="1.0" stroke-width="0.0"><g fill="rgb(97,91,91)" fill-opacity="1.0"><g fill="rgb(97,91,91)" fill-opacity="1.0"><path d="M 385.60395748798777,318.7360254447384 c 0.0,-17.57780508840572 -14.24962649247919,-31.827431580884916 -31.82743158088491 -31.827431580884916c -17.57780508840572,-1.0763301368776062e-15 -31.827431580884916,14.249626492479189 -31.827431580884916 31.827431580884905c -2.1526602737552123e-15,17.57780508840572 14.249626492479187,31.827431580884916 31.8274315808849 31.827431580884916c 17.57780508840572,3.2289904106328187e-15 31.827431580884916,-14.249626492479186 31.827431580884923 -31.827431580884905Z" /></g></g></g><g fill="rgb(245,180,86)" fill-opacity="1.0" stroke-width="0.0"><g fill="rgb(245,180,86)" fill-opacity="1.0"><g fill="rgb(245,180,86)" fill-opacity="1.0"><path d="M 302.50788722593165,445.2549297468708 c 0.0,-1.2663326646956423 -1.0265654554925676,-2.29289812018821 -2.2928981201882097 -2.29289812018821c -1.2663326646956423,-7.754051222376283e-17 -2.29289812018821,1.0265654554925676 -2.29289812018821 2.2928981201882093c -1.5508102444752566e-16,1.2663326646956423 1.0265654554925674,2.29289812018821 2.2928981201882093 2.29289812018821c 1.2663326646956423,2.326215366712885e-16 2.29289812018821,-1.0265654554925674 2.29289812018821 -2.2928981201882093Z" /></g></g></g><g fill="rgb(168,145,120)" fill-opacity="1.0" stroke-width="0.0"><g fill="rgb(168,145,120)" fill-opacity="1.0"><g fill="rgb(168,145,120)" fill-opacity="1.0"><path d="M 335.5958700059034,460.1988495750057 c 0.0,-5.463230742603517 -4.4288235722717655,-9.892054314875283 -9.892054314875281 -9.892054314875283c -5.463230742603517,-3.345264020966407e-16 -9.892054314875283,4.428823572271765 -9.892054314875283 9.89205431487528c -6.690528041932814e-16,5.463230742603517 4.428823572271765,9.892054314875283 9.89205431487528 9.892054314875283c 5.463230742603517,1.003579206289922e-15 9.892054314875283,-4.428823572271764 9.892054314875283 -9.89205431487528Z" /></g></g></g><g fill="rgb(97,91,91)" fill-opacity="1.0" stroke-width="0.0"><g fill="rgb(97,91,91)" fill-opacity="1.0"><g fill="rgb(97,91,91)" fill-opacity="1.0"><path d="M 266.2974351177739,453.4559873386479 c 0.0,-3.82131246190731 -3.09778581679415,-6.919098278701461 -6.919098278701459 -6.919098278701461c -3.82131246190731,-2.3398790375083394e-16 -6.919098278701461,3.0977858167941497 -6.919098278701461 6.919098278701458c -4.679758075016679e-16,3.82131246190731 3.0977858167941497,6.919098278701461 6.919098278701458 6.919098278701461c 3.82131246190731,7.019637112525019e-16 6.919098278701461,-3.097785816794149 6.919098278701462 -6.919098278701458Z" /></g></g></g><g fill="rgb(72,189,190)" fill-opacity="1.0" stroke-width="0.0"><g fill="rgb(72,189,190)" fill-opacity="1.0"><g fill="rgb(72,189,190)" fill-opacity="1.0"><path d="M 291.935901567493,512.7167564432884 c 0.0,-2.986852946067943e-2 -2.4213227223405027e-2,-5.4081756684084464e-2 -5.408175668408445e-2 -5.4081756684084464e-2c -2.986852946067943e-2,-1.828919949962974e-18 -5.4081756684084464e-2,2.4213227223405024e-2 -5.4081756684084464e-2 5.4081756684084444e-2c -3.657839899925948e-18,2.986852946067943e-2 2.421322722340502e-2,5.4081756684084464e-2 5.4081756684084444e-2 5.4081756684084464e-2c 2.986852946067943e-2,5.486759849888923e-18 5.4081756684084464e-2,-2.421322722340502e-2 5.408175668408447e-2 -5.4081756684084444e-2Z" /></g></g></g><g fill="rgb(235,86,92)" fill-opacity="1.0" stroke-width="0.0"><g fill="rgb(235,86,92)" fill-opacity="1.0"><g fill="rgb(235,86,92)" fill-opacity="1.0"><path d="M 501.4185184665059,490.0780040763207 c 0.0,-11.21061009129057 -9.087995102362207,-20.29860519365278 -20.298605193652776 -20.29860519365278c -11.21061009129057,-6.864518882394007e-16 -20.29860519365278,9.087995102362205 -20.29860519365278 20.298605193652772c -1.3729037764788014e-15,11.21061009129057 9.087995102362205,20.29860519365278 20.29860519365277 20.29860519365278c 11.21061009129057,2.059355664718202e-15 20.29860519365278,-9.087995102362203 20.298605193652783 -20.298605193652772Z" /></g></g></g><g fill="rgb(245,180,86)" fill-opacity="1.0" stroke-width="0.0"><g fill="rgb(245,180,86)" fill-opacity="1.0"><g fill="rgb(245,180,86)" fill-opacity="1.0"><path d="M 313.80454944191376,502.4123892199104 c 0.0,-3.967595419690909 -3.2163715844794627,-7.1839670041703725 -7.183967004170371 -7.1839670041703725c -3.967595419690909,-2.4294515155180854e-16 -7.1839670041703725,3.2163715844794623 -7.1839670041703725 7.18396700417037c -4.858903031036171e-16,3.967595419690909 3.216371584479462,7.1839670041703725 7.183967004170369 7.1839670041703725c 3.967595419690909,7.288354546554256e-16 7.1839670041703725,-3.216371584479462 7.183967004170374 -7.18396700417037Z" /></g></g></g><g fill="rgb(235,86,92)" fill-opacity="1.0" stroke-width="0.0"><g fill="rgb(235,86,92)" fill-opacity="1.0"><g fill="rgb(235,86,92)" fill-opacity="1.0"><path d="M 410.84957572927175,411.0030071039775 c 0.0,-3.0083879279444914 -2.438780274447821,-5.447168202392313 -5.447168202392312 -5.447168202392313c -3.0083879279444914,-1.84210632327538e-16 -5.447168202392313,2.438780274447821 -5.447168202392313 5.447168202392311c -3.68421264655076e-16,3.0083879279444914 2.4387802744478204,5.447168202392313 5.4471682023923105 5.447168202392313c 3.0083879279444914,5.52631896982614e-16 5.447168202392313,-2.43878027444782 5.447168202392314 -5.447168202392311Z" /></g></g></g><g fill="rgb(185,161,185)" fill-opacity="1.0" stroke-width="0.0"><g fill="rgb(185,161,185)" fill-opacity="1.0"><g fill="rgb(185,161,185)" fill-opacity="1.0"><path d="M 425.6090233347442,312.9855928356351 c 0.0,-5.213004201449795 -4.225974881436219,-9.438979082886016 -9.438979082886014 -9.438979082886016c -5.213004201449795,-3.192044454623598e-16 -9.438979082886016,4.225974881436219 -9.438979082886016 9.438979082886013c -6.384088909247196e-16,5.213004201449795 4.225974881436218,9.438979082886016 9.438979082886013 9.438979082886016c 5.213004201449795,9.576133363870794e-16 9.438979082886016,-4.225974881436218 9.438979082886016 -9.438979082886013Z" /></g></g></g><g fill="rgb(245,180,86)" fill-opacity="1.0" stroke-width="0.0"><g fill="rgb(245,180,86)" fill-opacity="1.0"><g fill="rgb(245,180,86)" fill-opacity="1.0"><path d="M 235.92228873678027,444.4353218489659 c 0.0,-1.8449864371052833 -1.4956570220352088,-3.3406434591404923 -3.3406434591404914 -3.3406434591404923c -1.8449864371052833,-1.1297283673356323e-16 -3.3406434591404923,1.4956570220352086 -3.3406434591404923 3.340643459140491c -2.2594567346712645e-16,1.8449864371052833 1.4956570220352083,3.3406434591404923 3.340643459140491 3.3406434591404923c 1.8449864371052833,3.389185102006897e-16 3.3406434591404923,-1.4956570220352081 3.3406434591404928 -3.340643459140491Z" /></g></g></g><g fill="rgb(72,189,190)" fill-opacity="1.0" stroke-width="0.0"><g fill="rgb(72,189,190)" fill-opacity="1.0"><g fill="rgb(72,189,190)" fill-opacity="1.0"><path d="M 194.90039567854907,528.8636000340941 c 0.0,-5.8074377797839025 -4.70785850816024,-10.515296287944144 -10.515296287944143 -10.515296287944144c -5.8074377797839025,-3.556030044129884e-16 -10.515296287944144,4.70785850816024 -10.515296287944144 10.51529628794414c -7.112060088259768e-16,5.8074377797839025 4.707858508160239,10.515296287944144 10.515296287944139 10.515296287944144c 5.8074377797839025,1.0668090132389651e-15 10.515296287944144,-4.707858508160238 10.515296287944146 -10.51529628794414Z" /></g></g></g><g fill="rgb(168,145,120)" fill-opacity="1.0" stroke-width="0.0"><g fill="rgb(168,145,120)" fill-opacity="1.0"><g fill="rgb(168,145,120)" fill-opacity="1.0"><path d="M 451.98741198293123,597.8377164303195 c 0.0,-7.249195804083592 -5.876634315803962,-13.125830119887555 -13.125830119887551 -13.125830119887555c -7.249195804083592,-4.438852218931697e-16 -13.125830119887555,5.876634315803961 -13.125830119887555 13.125830119887551c -8.877704437863394e-16,7.249195804083592 5.87663431580396,13.125830119887555 13.12583011988755 13.125830119887555c 7.249195804083592,1.331655665679509e-15 13.125830119887555,-5.876634315803959 13.125830119887556 -13.125830119887551Z" /></g></g></g><g fill="rgb(245,180,86)" fill-opacity="1.0" stroke-width="0.0"><g fill="rgb(245,180,86)" fill-opacity="1.0"><g fill="rgb(245,180,86)" fill-opacity="1.0"><path d="M 290.8211309821609,367.4089754709879 c 0.0,-2.2240244232761803 -1.8029280210155856,-4.026952444291767 -4.026952444291766 -4.026952444291767c -2.2240244232761803,-1.3618221955953564e-16 -4.026952444291767,1.8029280210155854 -4.026952444291767 4.026952444291765c -2.723644391190713e-16,2.2240244232761803 1.8029280210155851,4.026952444291767 4.026952444291765 4.026952444291767c 2.2240244232761803,4.0854665867860687e-16 4.026952444291767,-1.802928021015585 4.026952444291767 -4.026952444291765Z" /></g></g></g><g fill="rgb(245,180,86)" fill-opacity="1.0" stroke-width="0.0"><g fill="rgb(245,180,86)" fill-opacity="1.0"><g fill="rgb(245,180,86)" fill-opacity="1.0"><path d="M 285.2452127175631,308.3056601163029 c 0.0,-8.326400885226528 -6.74988157192539,-15.076282457151919 -15.076282457151915 -15.076282457151919c -8.326400885226528,-5.098450096255178e-16 -15.076282457151919,6.749881571925389 -15.076282457151919 15.076282457151914c -1.0196900192510355e-15,8.326400885226528 6.749881571925388,15.076282457151919 15.076282457151912 15.076282457151919c 8.326400885226528,1.5295350288765533e-15 15.076282457151919,-6.749881571925387 15.076282457151923 -15.076282457151914Z" /></g></g></g><g fill="rgb(235,86,92)" fill-opacity="1.0" stroke-width="0.0"><g fill="rgb(235,86,92)" fill-opacity="1.0"><g fill="rgb(235,86,92)" fill-opacity="1.0"><path d="M 168.0919903325466,452.5713110861802 c 0.0,-11.747610341582483 -9.523319817509657,-21.270930159092142 -21.27093015909214 -21.270930159092142c -11.747610341582483,-7.193336701224666e-16 -21.270930159092142,9.523319817509655 -21.270930159092142 21.270930159092135c -1.4386673402449333e-15,11.747610341582483 9.523319817509654,21.270930159092142 21.27093015909213 21.270930159092142c 11.747610341582483,2.1580010103674e-15 21.270930159092142,-9.523319817509654 21.270930159092146 -21.270930159092135Z" /></g></g></g><g fill="rgb(235,86,92)" fill-opacity="1.0" stroke-width="0.0"><g fill="rgb(235,86,92)" fill-opacity="1.0"><g fill="rgb(235,86,92)" fill-opacity="1.0"><path d="M 321.57052073173116,281.5172250702036 c 0.0,-7.071368504128264 -5.7324768062750335,-12.803845310403299 -12.803845310403295 -12.803845310403299c -7.071368504128264,-4.3299644020860424e-16 -12.803845310403299,5.732476806275033 -12.803845310403299 12.803845310403295c -8.659928804172085e-16,7.071368504128264 5.732476806275032,12.803845310403299 12.803845310403293 12.803845310403299c 7.071368504128264,1.2989893206258128e-15 12.803845310403299,-5.732476806275031 12.8038453104033 -12.803845310403295Z" /></g></g></g><g fill="rgb(245,180,86)" fill-opacity="1.0" stroke-width="0.0"><g fill="rgb(245,180,86)" fill-opacity="1.0"><g fill="rgb(245,180,86)" fill-opacity="1.0"><path d="M 390.88951011514473,285.29195247696583 c 0.0,-4.199650860568808 -3.404489688043983,-7.604140548612793 -7.604140548612791 -7.604140548612793c -4.199650860568808,-2.571544491966009e-16 -7.604140548612793,3.4044896880439826 -7.604140548612793 7.60414054861279c -5.143088983932018e-16,4.199650860568808 3.404489688043982,7.604140548612793 7.604140548612789 7.604140548612793c 4.199650860568808,7.714633475898028e-16 7.604140548612793,-3.4044896880439817 7.604140548612794 -7.60414054861279Z" /></g></g></g><g fill="rgb(97,91,91)" fill-opacity="1.0" stroke-width="0.0"><g fill="rgb(97,91,91)" fill-opacity="1.0"><g fill="rgb(97,91,91)" fill-opacity="1.0"><path d="M 322.0436316368373,591.4743316271388 c 0.0,-4.26779132323805 -3.459728447216587,-7.727519770454638 -7.727519770454636 -7.727519770454638c -4.26779132323805,-2.6132684917161625e-16 -7.727519770454638,3.4597284472165866 -7.727519770454638 7.727519770454635c -5.226536983432325e-16,4.26779132323805 3.459728447216586,7.727519770454638 7.727519770454634 7.727519770454638c 4.26779132323805,7.839805475148487e-16 7.727519770454638,-3.4597284472165857 7.72751977045464 -7.727519770454635Z" /></g></g></g><g fill="rgb(245,180,86)" fill-opacity="1.0" stroke-width="0.0"><g fill="rgb(245,180,86)" fill-opacity="1.0"><g fill="rgb(245,180,86)" fill-opacity="1.0"><path d="M 225.03229011682686,409.2887691028143 c 0.0,-12.519827538012196 -10.1493255426187,-22.6691530806309 -22.669153080630895 -22.6691530806309c -12.519827538012196,-7.6661833601517615e-16 -22.6691530806309,10.149325542618698 -22.6691530806309 22.669153080630892c -1.5332366720303523e-15,12.519827538012196 10.149325542618698,22.6691530806309 22.66915308063089 22.6691530806309c 12.519827538012196,2.2998550080455285e-15 22.6691530806309,-10.149325542618696 22.66915308063091 -22.669153080630892Z" /></g></g></g><g fill="rgb(97,91,91)" fill-opacity="1.0" stroke-width="0.0"><g fill="rgb(97,91,91)" fill-opacity="1.0"><g fill="rgb(97,91,91)" fill-opacity="1.0"><path d="M 414.75344134528774,549.6034436824328 c 0.0,-5.232951378938577 -4.2421452637657975,-9.475096642704376 -9.475096642704374 -9.475096642704376c -5.232951378938577,-3.204258578155428e-16 -9.475096642704376,4.2421452637657975 -9.475096642704376 9.475096642704372c -6.408517156310856e-16,5.232951378938577 4.242145263765797,9.475096642704376 9.475096642704372 9.475096642704376c 5.232951378938577,9.612775734466285e-16 9.475096642704376,-4.242145263765796 9.47509664270438 -9.475096642704372Z" /></g></g></g><g fill="rgb(245,180,86)" fill-opacity="1.0" stroke-width="0.0"><g fill="rgb(245,180,86)" fill-opacity="1.0"><g fill="rgb(245,180,86)" fill-opacity="1.0"><path d="M 235.50891597009704,341.00399256060473 c 0.0,-4.778688060952626 -3.8738920843740345,-8.652580145326661 -8.65258014532666 -8.652580145326661c -4.778688060952626,-2.9261025189846525e-16 -8.652580145326661,3.873892084374034 -8.652580145326661 8.652580145326658c -5.852205037969305e-16,4.778688060952626 3.8738920843740337,8.652580145326661 8.652580145326658 8.652580145326661c 4.778688060952626,8.778307556953957e-16 8.652580145326661,-3.873892084374033 8.652580145326661 -8.652580145326658Z" /></g></g></g><g fill="rgb(235,86,92)" fill-opacity="1.0" stroke-width="0.0"><g fill="rgb(235,86,92)" fill-opacity="1.0"><g fill="rgb(235,86,92)" fill-opacity="1.0"><path d="M 375.2579518149769,271.5313760059727 c 0.0,-4.845843825980418 -3.9283325883874696,-8.774176414367888 -8.774176414367886 -8.774176414367888c -4.845843825980418,-2.967223565327441e-16 -8.774176414367888,3.928332588387469 -8.774176414367888 8.774176414367885c -5.934447130654882e-16,4.845843825980418 3.9283325883874687,8.774176414367888 8.774176414367885 8.774176414367888c 4.845843825980418,8.901670695982323e-16 8.774176414367888,-3.9283325883874682 8.774176414367888 -8.774176414367885Z" /></g></g></g><g fill="rgb(191,49,49)" fill-opacity="1.0" stroke-width="0.0"><g fill="rgb(191,49,49)" fill-opacity="1.0"><g fill="rgb(191,49,49)" fill-opacity="1.0"><path d="M 514.6807105890483,551.2860101189473 c 0.0,-8.598168049657621 -6.970192388127215,-15.568360437784838 -15.568360437784834 -15.568360437784838c -8.598168049657621,-5.264859490272123e-16 -15.568360437784838,6.970192388127214 -15.568360437784838 15.568360437784833c -1.0529718980544245e-15,8.598168049657621 6.970192388127213,15.568360437784838 15.56836043778483 15.568360437784838c 8.598168049657621,1.579457847081637e-15 15.568360437784838,-6.970192388127212 15.568360437784841 -15.568360437784833Z" /></g></g></g><g fill="rgb(235,86,92)" fill-opacity="1.0" stroke-width="0.0"><g fill="rgb(235,86,92)" fill-opacity="1.0"><g fill="rgb(235,86,92)" fill-opacity="1.0"><path d="M 475.04835012113523,322.58004468192564 c 0.0,-8.701062714555311 -7.053604994848404,-15.754667709403718 -15.754667709403714 -15.754667709403718c -8.701062714555311,-5.327864301280272e-16 -15.754667709403718,7.053604994848403 -15.754667709403718 15.754667709403712c -1.0655728602560543e-15,8.701062714555311 7.053604994848402,15.754667709403718 15.75466770940371 15.754667709403718c 8.701062714555311,1.5983592903840813e-15 15.754667709403718,-7.053604994848401 15.754667709403721 -15.754667709403712Z" /></g></g></g><g fill="rgb(185,161,185)" fill-opacity="1.0" stroke-width="0.0"><g fill="rgb(185,161,185)" fill-opacity="1.0"><g fill="rgb(185,161,185)" fill-opacity="1.0"><path d="M 168.3749107992945,406.83679145626155 c 0.0,-5.076627483725029 -4.115419708018692,-9.192047191743722 -9.19204719174372 -9.192047191743722c -5.076627483725029,-3.1085377992036693e-16 -9.192047191743722,4.115419708018692 -9.192047191743722 9.192047191743718c -6.217075598407339e-16,5.076627483725029 4.115419708018691,9.192047191743722 9.192047191743718 9.192047191743722c 5.076627483725029,9.325613397611008e-16 9.192047191743722,-4.11541970801869 9.192047191743725 -9.192047191743718Z" /></g></g></g><g fill="rgb(97,91,91)" fill-opacity="1.0" stroke-width="0.0"><g fill="rgb(97,91,91)" fill-opacity="1.0"><g fill="rgb(97,91,91)" fill-opacity="1.0"><path d="M 263.30869002424595,500.35745776224525 c 0.0,-5.881289820943202 -4.767727416532728,-10.649017237475931 -10.64901723747593 -10.649017237475931c -5.881289820943202,-3.601251377038001e-16 -10.649017237475931,4.767727416532727 -10.649017237475931 10.649017237475928c -7.202502754076002e-16,5.881289820943202 4.767727416532727,10.649017237475931 10.649017237475926 10.649017237475931c 5.881289820943202,1.0803754131114004e-15 10.649017237475931,-4.767727416532726 10.649017237475936 -10.649017237475928Z" /></g></g></g><g fill="rgb(185,161,185)" fill-opacity="1.0" stroke-width="0.0"><g fill="rgb(185,161,185)" fill-opacity="1.0"><g fill="rgb(185,161,185)" fill-opacity="1.0"><path d="M 334.9654294046828,649.4463812224458 c 0.0,-5.022538635233858 -4.071572032809467,-9.094110668043326 -9.094110668043324 -9.094110668043326c -5.022538635233858,-3.0754179316165303e-16 -9.094110668043326,4.071572032809466 -9.094110668043326 9.094110668043323c -6.150835863233061e-16,5.022538635233858 4.071572032809466,9.094110668043326 9.094110668043323 9.094110668043326c 5.022538635233858,9.22625379484959e-16 9.094110668043326,-4.071572032809465 9.094110668043326 -9.094110668043323Z" /></g></g></g><g fill="rgb(240,162,188)" fill-opacity="1.0" stroke-width="0.0"><g fill="rgb(240,162,188)" fill-opacity="1.0"><g fill="rgb(240,162,188)" fill-opacity="1.0"><path d="M 370.63663595874004,621.671797980049 c 0.0,-2.734419346097301 -2.2166848568253035,-4.951104202922605 -4.951104202922604 -4.951104202922605c -2.734419346097301,-1.674348949862329e-16 -4.951104202922605,2.216684856825303 -4.951104202922605 4.951104202922603c -3.348697899724658e-16,2.734419346097301 2.216684856825303,4.951104202922605 4.951104202922603 4.951104202922605c 2.734419346097301,5.023046849586987e-16 4.951104202922605,-2.2166848568253026 4.951104202922605 -4.951104202922603Z" /></g></g></g><g fill="rgb(168,145,120)" fill-opacity="1.0" stroke-width="0.0"><g fill="rgb(168,145,120)" fill-opacity="1.0"><g fill="rgb(168,145,120)" fill-opacity="1.0"><path d="M 312.4534776647681,363.07945381526883 c 0.0,-5.113279971916387 -4.145132420392056,-9.258412392308443 -9.258412392308442 -9.258412392308443c -5.113279971916387,-3.1309809753758355e-16 -9.258412392308443,4.145132420392056 -9.258412392308443 9.25841239230844c -6.261961950751671e-16,5.113279971916387 4.145132420392055,9.258412392308443 9.25841239230844 9.258412392308443c 5.113279971916387,9.392942926127506e-16 9.258412392308443,-4.145132420392054 9.258412392308447 -9.25841239230844Z" /></g></g></g><g fill="rgb(240,162,188)" fill-opacity="1.0" stroke-width="0.0"><g fill="rgb(240,162,188)" fill-opacity="1.0"><g fill="rgb(240,162,188)" fill-opacity="1.0"><path d="M 110.01797183263386,486.2913430816572 c 0.0,-3.5164397068770774 -2.8506376168303547,-6.3670773237074325 -6.367077323707431 -6.3670773237074325c -3.5164397068770774,-2.1531983157108347e-16 -6.3670773237074325,2.850637616830354 -6.3670773237074325 6.367077323707431c -4.3063966314216694e-16,3.5164397068770774 2.8506376168303538,6.3670773237074325 6.36707732370743 6.3670773237074325c 3.5164397068770774,6.459594947132504e-16 6.3670773237074325,-2.8506376168303533 6.367077323707433 -6.367077323707431Z" /></g></g></g><g fill="rgb(241,237,226)" fill-opacity="1.0" stroke-width="0.0"><g fill="rgb(241,237,226)" fill-opacity="1.0"><g fill="rgb(241,237,226)" fill-opacity="1.0"><path d="M 475.19155003970667,373.59956304215154 c 0.0,-4.063068575743996 -3.29376786956582,-7.356836445309817 -7.356836445309815 -7.356836445309817c -4.063068575743996,-2.48791196300054e-16 -7.356836445309817,3.2937678695658197 -7.356836445309817 7.356836445309814c -4.97582392600108e-16,4.063068575743996 3.2937678695658192,7.356836445309817 7.356836445309813 7.356836445309817c 4.063068575743996,7.463735889001619e-16 7.356836445309817,-3.293767869565819 7.356836445309819 -7.356836445309814Z" /></g></g></g><g fill="rgb(168,145,120)" fill-opacity="1.0" stroke-width="0.0"><g fill="rgb(168,145,120)" fill-opacity="1.0"><g fill="rgb(168,145,120)" fill-opacity="1.0"><path d="M 382.53010929236615,363.35310491261 c 0.0,-1.455020086833851 -1.1795268335358196,-2.634546920369671 -2.6345469203696705 -2.634546920369671c -1.455020086833851,-8.909428460180898e-17 -2.634546920369671,1.1795268335358196 -2.634546920369671 2.63454692036967c -1.7818856920361795e-16,1.455020086833851 1.1795268335358193,2.634546920369671 2.6345469203696696 2.634546920369671c 1.455020086833851,2.6728285380542695e-16 2.634546920369671,-1.179526833535819 2.6345469203696714 -2.63454692036967Z" /></g></g></g><g fill="rgb(241,237,226)" fill-opacity="1.0" stroke-width="0.0"><g fill="rgb(241,237,226)" fill-opacity="1.0"><g fill="rgb(241,237,226)" fill-opacity="1.0"><path d="M 235.61399027586856,385.9852258424784 c 0.0,-3.729059436491548 -3.0229999633634006,-6.752059399854949 -6.752059399854947 -6.752059399854949c -3.729059436491548,-2.2833903513648034e-16 -6.752059399854949,3.0229999633634 -6.752059399854949 6.7520593998549465c -4.566780702729607e-16,3.729059436491548 3.0229999633633997,6.752059399854949 6.7520593998549465 6.752059399854949c 3.729059436491548,6.850171054094411e-16 6.752059399854949,-3.0229999633633993 6.75205939985495 -6.7520593998549465Z" /></g></g></g><g fill="rgb(245,180,86)" fill-opacity="1.0" stroke-width="0.0"><g fill="rgb(245,180,86)" fill-opacity="1.0"><g fill="rgb(245,180,86)" fill-opacity="1.0"><path d="M 227.6101965734334,322.22037389432285 c 0.0,-2.4341014643906917 -1.9732291112524718,-4.407330575643164 -4.407330575643163 -4.407330575643164c -2.4341014643906917,-1.4904572835829729e-16 -4.407330575643164,1.9732291112524716 -4.407330575643164 4.407330575643162c -2.9809145671659457e-16,2.4341014643906917 1.9732291112524714,4.407330575643164 4.407330575643162 4.407330575643164c 2.4341014643906917,4.471371850748919e-16 4.407330575643164,-1.9732291112524711 4.407330575643164 -4.407330575643162Z" /></g></g></g><g fill="rgb(241,237,226)" fill-opacity="1.0" stroke-width="0.0"><g fill="rgb(241,237,226)" fill-opacity="1.0"><g fill="rgb(241,237,226)" fill-opacity="1.0"><path d="M 304.6625889339153,635.6830166118551 c 0.0,-3.132115053337091 -2.539080927172409,-5.6711959805095 -5.671195980509499 -5.6711959805095c -3.132115053337091,-1.9178673373152547e-16 -5.6711959805095,2.5390809271724084 -5.6711959805095 5.6711959805094985c -3.8357346746305094e-16,3.132115053337091 2.5390809271724084,5.6711959805095 5.671195980509498 5.6711959805095c 3.132115053337091,5.753602011945764e-16 5.6711959805095,-2.539080927172408 5.671195980509503 -5.6711959805094985Z" /></g></g></g><g fill="rgb(235,86,92)" fill-opacity="1.0" stroke-width="0.0"><g fill="rgb(235,86,92)" fill-opacity="1.0"><g fill="rgb(235,86,92)" fill-opacity="1.0"><path d="M 308.4552085984421,551.1257074141531 c 0.0,-3.937690156886512 -3.19212857899733,-7.129818735883843 -7.129818735883841 -7.129818735883843c -3.937690156886512,-2.4111398233325532e-16 -7.129818735883843,3.1921285789973295 -7.129818735883843 7.12981873588384c -4.8222796466651065e-16,3.937690156886512 3.192128578997329,7.129818735883843 7.129818735883839 7.129818735883843c 3.937690156886512,7.233419469997659e-16 7.129818735883843,-3.1921285789973286 7.129818735883845 -7.12981873588384Z" /></g></g></g><g fill="rgb(240,162,188)" fill-opacity="1.0" stroke-width="0.0"><g fill="rgb(240,162,188)" fill-opacity="1.0"><g fill="rgb(240,162,188)" fill-opacity="1.0"><path d="M 166.46729846220583,517.531748284744 c 0.0,-1.8938903849672961 -1.5353015048097394,-3.429191889777036 -3.429191889777035 -3.429191889777036c -1.8938903849672961,-1.1596733989430738e-16 -3.429191889777036,1.5353015048097391 -3.429191889777036 3.4291918897770346c -2.3193467978861476e-16,1.8938903849672961 1.5353015048097391,3.429191889777036 3.4291918897770346 3.429191889777036c 1.8938903849672961,3.4790201968292217e-16 3.429191889777036,-1.535301504809739 3.4291918897770364 -3.4291918897770346Z" /></g></g></g><g fill="rgb(240,162,188)" fill-opacity="1.0" stroke-width="0.0"><g fill="rgb(240,162,188)" fill-opacity="1.0"><g fill="rgb(240,162,188)" fill-opacity="1.0"><path d="M 356.4066812016561,630.9789292025828 c 0.0,-3.2820362082095293 -2.660616036334729,-5.942652244544259 -5.9426522445442584 -5.942652244544259c -3.2820362082095293,-2.0096675685347581e-16 -5.942652244544259,2.660616036334729 -5.942652244544259 5.942652244544258c -4.0193351370695163e-16,3.2820362082095293 2.6606160363347287,5.942652244544259 5.942652244544257 5.942652244544259c 3.2820362082095293,6.029002705604274e-16 5.942652244544259,-2.660616036334728 5.942652244544262 -5.942652244544258Z" /></g></g></g><g fill="rgb(97,91,91)" fill-opacity="1.0" stroke-width="0.0"><g fill="rgb(97,91,91)" fill-opacity="1.0"><g fill="rgb(97,91,91)" fill-opacity="1.0"><path d="M 211.1639298829543,300.8809035557073 c 0.0,-4.9076002251184265 -3.9783960415211914,-8.88599626663962 -8.885996266639618 -8.88599626663962c -4.9076002251184265,-3.0050384535930553e-16 -8.88599626663962,3.978396041521191 -8.88599626663962 8.885996266639616c -6.010076907186111e-16,4.9076002251184265 3.9783960415211905,8.88599626663962 8.885996266639616 8.88599626663962c 4.9076002251184265,9.015115360779167e-16 8.88599626663962,-3.97839604152119 8.885996266639623 -8.885996266639616Z" /></g></g></g><g fill="rgb(245,180,86)" fill-opacity="1.0" stroke-width="0.0"><g fill="rgb(245,180,86)" fill-opacity="1.0"><g fill="rgb(245,180,86)" fill-opacity="1.0"><path d="M 189.3880199286093,593.7813542755702 c 0.0,-3.6179243389152904 -2.9329071660714643,-6.550831504986755 -6.550831504986753 -6.550831504986755c -3.6179243389152904,-2.215339730604957e-16 -6.550831504986755,2.932907166071464 -6.550831504986755 6.550831504986753c -4.430679461209914e-16,3.6179243389152904 2.9329071660714634,6.550831504986755 6.5508315049867525 6.550831504986755c 3.6179243389152904,6.646019191814871e-16 6.550831504986755,-2.932907166071463 6.550831504986756 -6.550831504986753Z" /></g></g></g><g fill="rgb(191,49,49)" fill-opacity="1.0" stroke-width="0.0"><g fill="rgb(191,49,49)" fill-opacity="1.0"><g fill="rgb(191,49,49)" fill-opacity="1.0"><path d="M 621.2836809146157,240.78036555935546 c 0.0,-4.438835431975417 -3.5983870937875473,-8.037222525762965 -8.037222525762964 -8.037222525762965c -4.438835431975417,-2.7180028018552766e-16 -8.037222525762965,3.598387093787547 -8.037222525762965 8.037222525762962c -5.436005603710553e-16,4.438835431975417 3.5983870937875464,8.037222525762965 8.037222525762962 8.037222525762965c 4.438835431975417,8.15400840556583e-16 8.037222525762965,-3.598387093787546 8.037222525762965 -8.037222525762962Z" /></g></g></g><g fill="rgb(191,49,49)" fill-opacity="1.0" stroke-width="0.0"><g fill="rgb(191,49,49)" fill-opacity="1.0"><g fill="rgb(191,49,49)" fill-opacity="1.0"><path d="M 551.9190606478993,510.8790495782344 c 0.0,-2.2757514801338816 -1.8448610858135142,-4.120612565947396 -4.120612565947395 -4.120612565947396c -2.2757514801338816,-1.3934958829004046e-16 -4.120612565947396,1.8448610858135137 -4.120612565947396 4.120612565947394c -2.786991765800809e-16,2.2757514801338816 1.8448610858135135,4.120612565947396 4.120612565947394 4.120612565947396c 2.2757514801338816,4.180487648701214e-16 4.120612565947396,-1.8448610858135133 4.120612565947396 -4.120612565947394Z" /></g></g></g><g fill="rgb(168,145,120)" fill-opacity="1.0" stroke-width="0.0"><g fill="rgb(168,145,120)" fill-opacity="1.0"><g fill="rgb(168,145,120)" fill-opacity="1.0"><path d="M 324.37330087630914,215.08578597153436 c 0.0,-1.949294369570165 -1.5802153084851878,-3.529509678055353 -3.5295096780553523 -3.529509678055353c -1.949294369570165,-1.1935985551450303e-16 -3.529509678055353,1.5802153084851875 -3.529509678055353 3.529509678055352c -2.3871971102900606e-16,1.949294369570165 1.5802153084851873,3.529509678055353 3.5295096780553514 3.529509678055353c 1.949294369570165,3.5807956654350903e-16 3.529509678055353,-1.580215308485187 3.529509678055354 -3.529509678055352Z" /></g></g></g><g fill="rgb(191,49,49)" fill-opacity="1.0" stroke-width="0.0"><g fill="rgb(191,49,49)" fill-opacity="1.0"><g fill="rgb(191,49,49)" fill-opacity="1.0"><path d="M 209.97433990588817,375.1732265505812 c 0.0,-1.6324361102975706 -1.3233509375934114,-2.9557870478909822 -2.955787047890982 -2.9557870478909822c -1.6324361102975706,-9.995788286442377e-17 -2.9557870478909822,1.3233509375934112 -2.9557870478909822 2.9557870478909813c -1.9991576572884755e-16,1.6324361102975706 1.323350937593411,2.9557870478909822 2.955787047890981 2.9557870478909822c 1.6324361102975706,2.998736485932713e-16 2.9557870478909822,-1.3233509375934107 2.9557870478909827 -2.9557870478909813Z" /></g></g></g><g fill="rgb(240,162,188)" fill-opacity="1.0" stroke-width="0.0"><g fill="rgb(240,162,188)" fill-opacity="1.0"><g fill="rgb(240,162,188)" fill-opacity="1.0"><path d="M 409.5352073980701,573.0528004788728 c 0.0,-3.208639940409158 -2.6011166052716823,-5.809756545680841 -5.80975654568084 -5.809756545680841c -3.208639940409158,-1.9647253163192146e-16 -5.809756545680841,2.601116605271682 -5.809756545680841 5.809756545680839c -3.9294506326384293e-16,3.208639940409158 2.601116605271682,5.809756545680841 5.809756545680838 5.809756545680841c 3.208639940409158,5.894175948957644e-16 5.809756545680841,-2.6011166052716814 5.809756545680844 -5.809756545680839Z" /></g></g></g><g fill="rgb(235,86,92)" fill-opacity="1.0" stroke-width="0.0"><g fill="rgb(235,86,92)" fill-opacity="1.0"><g fill="rgb(235,86,92)" fill-opacity="1.0"><path d="M 41.75162709030878,263.9841139790942 c 0.0,-1.073251071165286 -0.8700418977137275,-1.9432929688790137 -1.9432929688790133 -1.9432929688790137c -1.073251071165286,-6.571767444920178e-17 -1.9432929688790137,0.8700418977137274 -1.9432929688790137 1.943292968879013c -1.3143534889840357e-16,1.073251071165286 0.8700418977137273,1.9432929688790137 1.9432929688790128 1.9432929688790137c 1.073251071165286,1.9715302334760534e-16 1.9432929688790137,-0.8700418977137272 1.9432929688790141 -1.943292968879013Z" /></g></g></g><g fill="rgb(241,237,226)" fill-opacity="1.0" stroke-width="0.0"><g fill="rgb(241,237,226)" fill-opacity="1.0"><g fill="rgb(241,237,226)" fill-opacity="1.0"><path d="M 146.0472454448334,683.0274647425915 c 0.0,-1.4935494430726208 -1.2107610480829067,-2.704310491155528 -2.7043104911555274 -2.704310491155528c -1.4935494430726208,-9.145352724135985e-17 -2.704310491155528,1.2107610480829065 -2.704310491155528 2.704310491155527c -1.829070544827197e-16,1.4935494430726208 1.2107610480829063,2.704310491155528 2.7043104911555265 2.704310491155528c 1.4935494430726208,2.7436058172407955e-16 2.704310491155528,-1.2107610480829063 2.7043104911555282 -2.704310491155527Z" /></g></g></g><g fill="rgb(191,49,49)" fill-opacity="1.0" stroke-width="0.0"><g fill="rgb(191,49,49)" fill-opacity="1.0"><g fill="rgb(191,49,49)" fill-opacity="1.0"><path d="M 328.5845299565113,258.4085265903765 c 0.0,-2.9133247090778642 -2.361716309111458,-5.275041018189323 -5.275041018189322 -5.275041018189323c -2.9133247090778642,-1.78389688992455e-16 -5.275041018189323,2.3617163091114577 -5.275041018189323 5.275041018189321c -3.5677937798491e-16,2.9133247090778642 2.3617163091114577,5.275041018189323 5.27504101818932 5.275041018189323c 2.9133247090778642,5.35169066977365e-16 5.275041018189323,-2.3617163091114572 5.275041018189324 -5.275041018189321Z" /></g></g></g><g fill="rgb(168,145,120)" fill-opacity="1.0" stroke-width="0.0"><g fill="rgb(168,145,120)" fill-opacity="1.0"><g fill="rgb(168,145,120)" fill-opacity="1.0"><path d="M 181.19923264005948,679.7353563479231 c 0.0,-1.7270376471628226 -1.4000406357192314,-3.1270782828820542 -3.1270782828820534 -3.1270782828820542c -1.7270376471628226,-1.0575055633024632e-16 -3.1270782828820542,1.4000406357192312 -3.1270782828820542 3.1270782828820534c -2.1150111266049265e-16,1.7270376471628226 1.400040635719231,3.1270782828820542 3.127078282882053 3.1270782828820542c 1.7270376471628226,3.1725166899073897e-16 3.1270782828820542,-1.400040635719231 3.1270782828820547 -3.1270782828820534Z" /></g></g></g><g fill="rgb(97,91,91)" fill-opacity="1.0" stroke-width="0.0"><g fill="rgb(97,91,91)" fill-opacity="1.0"><g fill="rgb(97,91,91)" fill-opacity="1.0"><path d="M 519.737137729005,360.85968630121056 c 0.0,-2.9468472955678946 -2.38889173483397,-5.335739030401865 -5.335739030401864 -5.335739030401865c -2.9468472955678946,-1.8044235540466282e-16 -5.335739030401865,2.3888917348339698 -5.335739030401865 5.3357390304018635c -3.6088471080932563e-16,2.9468472955678946 2.3888917348339693,5.335739030401865 5.335739030401863 5.335739030401865c 2.9468472955678946,5.413270662139884e-16 5.335739030401865,-2.3888917348339693 5.335739030401866 -5.3357390304018635Z" /></g></g></g><g fill="rgb(168,145,120)" fill-opacity="1.0" stroke-width="0.0"><g fill="rgb(168,145,120)" fill-opacity="1.0"><g fill="rgb(168,145,120)" fill-opacity="1.0"><path d="M 144.2723078885175,394.5851795249349 c 0.0,-2.2929276570124744 -1.8587851283124348,-4.15171278532491 -4.151712785324909 -4.15171278532491c -2.2929276570124744,-1.4040132579183834e-16 -4.15171278532491,1.8587851283124346 -4.15171278532491 4.151712785324908c -2.808026515836767e-16,2.2929276570124744 1.8587851283124344,4.15171278532491 4.151712785324908 4.15171278532491c 2.2929276570124744,4.2120397737551503e-16 4.15171278532491,-1.8587851283124341 4.15171278532491 -4.151712785324908Z" /></g></g></g><g fill="rgb(168,145,120)" fill-opacity="1.0" stroke-width="0.0"><g fill="rgb(168,145,120)" fill-opacity="1.0"><g fill="rgb(168,145,120)" fill-opacity="1.0"><path d="M 396.4729194520604,621.5841104402436 c 0.0,-2.104471583086274 -1.7060112950504707,-3.8104828781367455 -3.8104828781367446 -3.8104828781367455c -2.104471583086274,-1.2886171940615845e-16 -3.8104828781367455,1.7060112950504704 -3.8104828781367455 3.810482878136744c -2.577234388123169e-16,2.104471583086274 1.7060112950504704,3.8104828781367455 3.8104828781367437 3.8104828781367455c 2.104471583086274,3.8658515821847535e-16 3.8104828781367455,-1.7060112950504702 3.8104828781367464 -3.810482878136744Z" /></g></g></g><g fill="rgb(97,91,91)" fill-opacity="1.0" stroke-width="0.0"><g fill="rgb(97,91,91)" fill-opacity="1.0"><g fill="rgb(97,91,91)" fill-opacity="1.0"><path d="M 701.6957819862255,576.4077280172153 c 0.0,-1.150639908111048 -0.9327779455660197,-2.083417853677068 -2.0834178536770676 -2.083417853677068c -1.150639908111048,-7.045637402196998e-17 -2.083417853677068,0.9327779455660196 -2.083417853677068 2.083417853677067c -1.4091274804393996e-16,1.150639908111048 0.9327779455660195,2.083417853677068 2.083417853677067 2.083417853677068c 1.150639908111048,2.1136912206590994e-16 2.083417853677068,-0.9327779455660192 2.083417853677068 -2.083417853677067Z" /></g></g></g><g fill="rgb(191,49,49)" fill-opacity="1.0" stroke-width="0.0"><g fill="rgb(191,49,49)" fill-opacity="1.0"><g fill="rgb(191,49,49)" fill-opacity="1.0"><path d="M 513.4328480863519,528.8642122680475 c 0.0,-1.3340536630876165 -1.0814641716821065,-2.4155178347697235 -2.415517834769723 -2.4155178347697235c -1.3340536630876165,-8.168722741955255e-17 -2.4155178347697235,1.0814641716821065 -2.4155178347697235 2.4155178347697226c -1.633744548391051e-16,1.3340536630876165 1.0814641716821063,2.4155178347697235 2.4155178347697226 2.4155178347697235c 1.3340536630876165,2.450616822586577e-16 2.4155178347697235,-1.0814641716821063 2.4155178347697235 -2.4155178347697226Z" /></g></g></g><g fill="rgb(209,95,105)" fill-opacity="1.0" stroke-width="0.0"><g fill="rgb(209,95,105)" fill-opacity="1.0"><g fill="rgb(209,95,105)" fill-opacity="1.0"><path d="M 260.74907251655213,647.6700675614782 c 0.0,-1.896708445681214 -1.53758599439217,-3.4342944400733844 -3.4342944400733835 -3.4342944400733844c -1.896708445681214,-1.161398963459625e-16 -3.4342944400733844,1.53758599439217 -3.4342944400733844 3.434294440073383c -2.32279792691925e-16,1.896708445681214 1.5375859943921697,3.4342944400733844 3.434294440073383 3.4342944400733844c 1.896708445681214,3.484196890378875e-16 3.4342944400733844,-1.5375859943921695 3.434294440073385 -3.434294440073383Z" /></g></g></g><g fill="rgb(168,145,120)" fill-opacity="1.0" stroke-width="0.0"><g fill="rgb(168,145,120)" fill-opacity="1.0"><g fill="rgb(168,145,120)" fill-opacity="1.0"><path d="M 254.36958854890887,657.8803567641233 c 0.0,-1.035239511164918 -0.8392274399542102,-1.8744669511191285 -1.874466951119128 -1.8744669511191285c -1.035239511164918,-6.339013768494937e-17 -1.8744669511191285,0.8392274399542102 -1.8744669511191285 1.8744669511191279c -1.2678027536989874e-16,1.035239511164918 0.8392274399542101,1.8744669511191285 1.8744669511191276 1.8744669511191285c 1.035239511164918,1.9017041305484812e-16 1.8744669511191285,-0.83922743995421 1.874466951119129 -1.8744669511191279Z" /></g></g></g><g fill="rgb(97,91,91)" fill-opacity="1.0" stroke-width="0.0"><g fill="rgb(97,91,91)" fill-opacity="1.0"><g fill="rgb(97,91,91)" fill-opacity="1.0"><path d="M 203.16823721494757,539.3610923276277 c 0.0,-2.479075982585696 -2.009688161898149,-4.488764144483845 -4.488764144483844 -4.488764144483845c -2.479075982585696,-1.517996233458326e-16 -4.488764144483845,2.0096881618981484 -4.488764144483845 4.488764144483843c -3.035992466916652e-16,2.479075982585696 2.009688161898148,4.488764144483845 4.488764144483843 4.488764144483845c 2.479075982585696,4.553988700374978e-16 4.488764144483845,-2.009688161898148 4.488764144483847 -4.488764144483843Z" /></g></g></g><g fill="rgb(245,180,86)" fill-opacity="1.0" stroke-width="0.0"><g fill="rgb(245,180,86)" fill-opacity="1.0"><g fill="rgb(245,180,86)" fill-opacity="1.0"><path d="M 508.07869903523545,244.34598380857904 c 0.0,-1.4289698388254284 -1.1584089350104048,-2.5873787738358334 -2.587378773835833 -2.5873787738358334c -1.4289698388254284,-8.74991669597835e-17 -2.5873787738358334,1.1584089350104045 -2.5873787738358334 2.5873787738358325c -1.74998333919567e-16,1.4289698388254284 1.1584089350104045,2.5873787738358334 2.587378773835832 2.5873787738358334c 1.4289698388254284,2.624975008793505e-16 2.5873787738358334,-1.1584089350104043 2.587378773835834 -2.5873787738358325Z" /></g></g></g><g fill="rgb(245,180,86)" fill-opacity="1.0" stroke-width="0.0"><g fill="rgb(245,180,86)" fill-opacity="1.0"><g fill="rgb(245,180,86)" fill-opacity="1.0"><path d="M 59.530025561325516,482.5202000623931 c 0.0,-1.2331613142529103 -0.9996747628444941,-2.2328360770974047 -2.2328360770974043 -2.2328360770974047c -1.2331613142529103,-7.55093528166085e-17 -2.2328360770974047,0.999674762844494 -2.2328360770974047 2.232836077097404c -1.51018705633217e-16,1.2331613142529103 0.9996747628444939,2.2328360770974047 2.232836077097404 2.2328360770974047c 1.2331613142529103,2.265280584498255e-16 2.2328360770974047,-0.9996747628444937 2.2328360770974056 -2.232836077097404Z" /></g></g></g><g fill="rgb(245,180,86)" fill-opacity="1.0" stroke-width="0.0"><g fill="rgb(245,180,86)" fill-opacity="1.0"><g fill="rgb(245,180,86)" fill-opacity="1.0"><path d="M 111.58482131017942,421.9272728488007 c 0.0,-2.025490476694043 -1.641984457775184,-3.6674749344692272 -3.6674749344692263 -3.6674749344692272c -2.025490476694043,-1.240255214493403e-16 -3.6674749344692272,1.6419844577751839 -3.6674749344692272 3.667474934469226c -2.480510428986806e-16,2.025490476694043 1.6419844577751836,3.6674749344692272 3.6674749344692255 3.6674749344692272c 2.025490476694043,3.720765643480209e-16 3.6674749344692272,-1.6419844577751834 3.667474934469228 -3.667474934469226Z" /></g></g></g><g fill="rgb(173,210,116)" fill-opacity="1.0" stroke-width="0.0"><g fill="rgb(173,210,116)" fill-opacity="1.0"><g fill="rgb(173,210,116)" fill-opacity="1.0"><path d="M 151.06711464164513,248.08001000290793 c 0.0,-1.100258703389379 -0.8919359094918768,-1.992194612881256 -1.9921946128812555 -1.992194612881256c -1.100258703389379,-6.737141496699099e-17 -1.992194612881256,0.8919359094918767 -1.992194612881256 1.9921946128812553c -1.3474282993398199e-16,1.100258703389379 0.8919359094918766,1.992194612881256 1.992194612881255 1.992194612881256c 1.100258703389379,2.0211424490097298e-16 1.992194612881256,-0.8919359094918765 1.9921946128812564 -1.9921946128812553Z" /></g></g></g><g fill="rgb(191,49,49)" fill-opacity="1.0" stroke-width="0.0"><g fill="rgb(191,49,49)" fill-opacity="1.0"><g fill="rgb(191,49,49)" fill-opacity="1.0"><path d="M 654.3031546283732,458.71834210122177 c 0.0,-0.9564605488322776 -0.7753644728169959,-1.7318250216492737 -1.7318250216492732 -1.7318250216492737c -0.9564605488322776,-5.856631748190847e-17 -1.7318250216492737,0.7753644728169958 -1.7318250216492737 1.731825021649273c -1.1713263496381693e-16,0.9564605488322776 0.7753644728169957,1.7318250216492737 1.731825021649273 1.7318250216492737c 0.9564605488322776,1.756989524457254e-16 1.7318250216492737,-0.7753644728169956 1.7318250216492739 -1.731825021649273Z" /></g></g></g><g fill="rgb(191,49,49)" fill-opacity="1.0" stroke-width="0.0"><g fill="rgb(191,49,49)" fill-opacity="1.0"><g fill="rgb(191,49,49)" fill-opacity="1.0"><path d="M 353.1905351112893,649.5994303650848 c 0.0,-1.2597406769887103 -1.0212215936056956,-2.280962270594406 -2.2809622705944057 -2.280962270594406c -1.2597406769887103,-7.713686939149718e-17 -2.280962270594406,1.0212215936056956 -2.280962270594406 2.2809622705944053c -1.5427373878299436e-16,1.2597406769887103 1.0212215936056954,2.280962270594406 2.2809622705944053 2.280962270594406c 1.2597406769887103,2.3141060817449154e-16 2.280962270594406,-1.0212215936056954 2.280962270594407 -2.2809622705944053Z" /></g></g></g><g fill="rgb(209,95,105)" fill-opacity="1.0" stroke-width="0.0"><g fill="rgb(209,95,105)" fill-opacity="1.0"><g fill="rgb(209,95,105)" fill-opacity="1.0"><path d="M 172.2849614132386,683.7961223016108 c 0.0,-1.8130497921227062 -1.4697672559275616,-3.2828170480502683 -3.2828170480502674 -3.2828170480502683c -1.8130497921227062,-1.1101728123089231e-16 -3.2828170480502683,1.4697672559275614 -3.2828170480502683 3.2828170480502674c -2.2203456246178462e-16,1.8130497921227062 1.4697672559275612,3.2828170480502683 3.282817048050267 3.2828170480502683c 1.8130497921227062,3.3305184369267695e-16 3.2828170480502683,-1.4697672559275612 3.2828170480502687 -3.2828170480502674Z" /></g></g></g><g fill="rgb(168,145,120)" fill-opacity="1.0" stroke-width="0.0"><g fill="rgb(168,145,120)" fill-opacity="1.0"><g fill="rgb(168,145,120)" fill-opacity="1.0"><path d="M 7.919714911975239,539.0295414627116 c 0.0,-1.6280110347898376 -1.3197637051221738,-2.9477747399120116 -2.947774739912011 -2.9477747399120116c -1.6280110347898376,-9.968692513659724e-17 -2.9477747399120116,1.3197637051221736 -2.9477747399120116 2.9477747399120107c -1.9937385027319448e-16,1.6280110347898376 1.3197637051221733,2.9477747399120116 2.9477747399120102 2.9477747399120116c 1.6280110347898376,2.9906077540979172e-16 2.9477747399120116,-1.3197637051221731 2.947774739912013 -2.9477747399120107Z" /></g></g></g><g fill="rgb(241,237,226)" fill-opacity="1.0" stroke-width="0.0"><g fill="rgb(241,237,226)" fill-opacity="1.0"><g fill="rgb(241,237,226)" fill-opacity="1.0"><path d="M 524.8894985571587,419.8800760596525 c 0.0,-1.3813250227112674 -1.119785180194881,-2.501110202906149 -2.5011102029061485 -2.501110202906149c -1.3813250227112674,-8.458176338227493e-17 -2.501110202906149,1.119785180194881 -2.501110202906149 2.501110202906148c -1.6916352676454986e-16,1.3813250227112674 1.1197851801948808,2.501110202906149 2.5011102029061476 2.501110202906149c 1.3813250227112674,2.537452901468248e-16 2.501110202906149,-1.1197851801948808 2.5011102029061494 -2.501110202906148Z" /></g></g></g><g fill="rgb(245,180,86)" fill-opacity="1.0" stroke-width="0.0"><g fill="rgb(245,180,86)" fill-opacity="1.0"><g fill="rgb(245,180,86)" fill-opacity="1.0"><path d="M 368.78907870761174,179.99091067001365 c 0.0,-0.5363123874831591 -0.4347670921647437,-0.971079479647903 -0.9710794796479028 -0.971079479647903c -0.5363123874831591,-3.2839662433716295e-17 -0.971079479647903,0.43476709216474363 -0.971079479647903 0.9710794796479026c -6.567932486743259e-17,0.5363123874831591 0.4347670921647436,0.971079479647903 0.9710794796479025 0.971079479647903c 0.5363123874831591,9.851898730114888e-17 0.971079479647903,-0.4347670921647435 0.9710794796479032 -0.9710794796479026Z" /></g></g></g><g fill="rgb(72,189,190)" fill-opacity="1.0" stroke-width="0.0"><g fill="rgb(72,189,190)" fill-opacity="1.0"><g fill="rgb(72,189,190)" fill-opacity="1.0"><path d="M 789.0541501101457,388.2219184611327 c 0.0,-1.293867850721958 -1.0488871341266504,-2.3427549848486087 -2.3427549848486082 -2.3427549848486087c -1.293867850721958,-7.922655609531557e-17 -2.3427549848486087,1.0488871341266501 -2.3427549848486087 2.342754984848608c -1.5845311219063113e-16,1.293867850721958 1.04888713412665,2.3427549848486087 2.342754984848608 2.3427549848486087c 1.293867850721958,2.376796682859467e-16 2.3427549848486087,-1.04888713412665 2.3427549848486087 -2.342754984848608Z" /></g></g></g><g fill="rgb(241,237,226)" fill-opacity="1.0" stroke-width="0.0"><g fill="rgb(241,237,226)" fill-opacity="1.0"><g fill="rgb(241,237,226)" fill-opacity="1.0"><path d="M 463.62984426247556,183.29747801027008 c 0.0,-1.0624358049013687 -0.8612743921063759,-1.9237101970077448 -1.9237101970077444 -1.9237101970077448c -1.0624358049013687,-6.505543038860015e-17 -1.9237101970077448,0.8612743921063758 -1.9237101970077448 1.9237101970077441c -1.301108607772003e-16,1.0624358049013687 0.8612743921063757,1.9237101970077448 1.923710197007744 1.9237101970077448c 1.0624358049013687,1.9516629116580044e-16 1.9237101970077448,-0.8612743921063756 1.9237101970077453 -1.9237101970077441Z" /></g></g></g><g fill="rgb(245,180,86)" fill-opacity="1.0" stroke-width="0.0"><g fill="rgb(245,180,86)" fill-opacity="1.0"><g fill="rgb(245,180,86)" fill-opacity="1.0"><path d="M 148.1487052934959,590.2694507108395 c 0.0,-0.9442007466586263 -0.7654259394809172,-1.7096266861395437 -1.7096266861395433 -1.7096266861395437c -0.9442007466586263,-5.781562110740138e-17 -1.7096266861395437,0.7654259394809171 -1.7096266861395437 1.709626686139543c -1.1563124221480276e-16,0.9442007466586263 0.765425939480917,1.7096266861395437 1.709626686139543 1.7096266861395437c 0.9442007466586263,1.7344686332220414e-16 1.7096266861395437,-0.7654259394809169 1.709626686139544 -1.709626686139543Z" /></g></g></g><g fill="rgb(241,237,226)" fill-opacity="1.0" stroke-width="0.0"><g fill="rgb(241,237,226)" fill-opacity="1.0"><g fill="rgb(241,237,226)" fill-opacity="1.0"><path d="M 422.8617827491388,667.1512674585301 c 0.0,-0.9826118721463079 -0.7965643090670174,-1.7791761812133253 -1.7791761812133249 -1.7791761812133253c -0.9826118721463079,-6.016762420140821e-17 -1.7791761812133253,0.7965643090670173 -1.7791761812133253 1.7791761812133247c -1.2033524840281642e-16,0.9826118721463079 0.7965643090670171,1.7791761812133253 1.7791761812133244 1.7791761812133253c 0.9826118721463079,1.8050287260422462e-16 1.7791761812133253,-0.796564309067017 1.7791761812133258 -1.7791761812133247Z" /></g></g></g><g fill="rgb(191,49,49)" fill-opacity="1.0" stroke-width="0.0"><g fill="rgb(191,49,49)" fill-opacity="1.0"><g fill="rgb(191,49,49)" fill-opacity="1.0"><path d="M 528.873984561746,260.07894013486913 c 0.0,-1.0617655273782305 -0.8607310248143284,-1.922496552192559 -1.9224965521925585 -1.922496552192559c -1.0617655273782305,-6.501438772743757e-17 -1.922496552192559,0.8607310248143283 -1.922496552192559 1.9224965521925583c -1.3002877545487513e-16,1.0617655273782305 0.8607310248143282,1.922496552192559 1.922496552192558 1.922496552192559c 1.0617655273782305,1.9504316318231267e-16 1.922496552192559,-0.8607310248143281 1.9224965521925594 -1.9224965521925583Z" /></g></g></g><g fill="rgb(209,95,105)" fill-opacity="1.0" stroke-width="0.0"><g fill="rgb(209,95,105)" fill-opacity="1.0"><g fill="rgb(209,95,105)" fill-opacity="1.0"><path d="M 506.1191314977734,678.6834528660072 c 0.0,-0.8805398308451193 -0.7138185705318789,-1.5943584013769985 -1.594358401376998 -1.5943584013769985c -0.8805398308451193,-5.3917514268311364e-17 -1.5943584013769985,0.7138185705318788 -1.5943584013769985 1.594358401376998c -1.0783502853662273e-16,0.8805398308451193 0.7138185705318787,1.5943584013769985 1.5943584013769978 1.5943584013769985c 0.8805398308451193,1.6175254280493409e-16 1.5943584013769985,-0.7138185705318787 1.5943584013769987 -1.594358401376998Z" /></g></g></g><g fill="rgb(97,91,91)" fill-opacity="1.0" stroke-width="0.0"><g fill="rgb(97,91,91)" fill-opacity="1.0"><g fill="rgb(97,91,91)" fill-opacity="1.0"><path d="M 449.70224110626566,681.2453827195736 c 0.0,-1.4734392255879083 -1.19445849572222,-2.6678977213101285 -2.667897721310128 -2.6678977213101285c -1.4734392255879083,-9.022213156771933e-17 -2.6678977213101285,1.1944584957222197 -2.6678977213101285 2.6678977213101276c -1.8044426313543865e-16,1.4734392255879083 1.1944584957222197,2.6678977213101285 2.667897721310127 2.6678977213101285c 1.4734392255879083,2.70666394703158e-16 2.6678977213101285,-1.1944584957222195 2.667897721310129 -2.6678977213101276Z" /></g></g></g><g fill="rgb(235,86,92)" fill-opacity="1.0" stroke-width="0.0"><g fill="rgb(235,86,92)" fill-opacity="1.0"><g fill="rgb(235,86,92)" fill-opacity="1.0"><path d="M 618.9880959923038,468.20562405968485 c 0.0,-0.8676276247163365 -0.7033511592934633,-1.5709787840098 -1.5709787840097995 -1.5709787840098c -0.8676276247163365,-5.312686967303412e-17 -1.5709787840098,0.7033511592934633 -1.5709787840098 1.5709787840097995c -1.0625373934606824e-16,0.8676276247163365 0.7033511592934631,1.5709787840098 1.5709787840097993 1.5709787840098c 0.8676276247163365,1.5938060901910237e-16 1.5709787840098,-0.703351159293463 1.5709787840098002 -1.5709787840097995Z" /></g></g></g><g fill="rgb(72,189,190)" fill-opacity="1.0" stroke-width="0.0"><g fill="rgb(72,189,190)" fill-opacity="1.0"><g fill="rgb(72,189,190)" fill-opacity="1.0"><path d="M 232.12949417310537,715.3079707151828 c 0.0,-1.2661870567655056 -1.0264474169429108,-2.2926344737084166 -2.292634473708416 -2.2926344737084166c -1.2661870567655056,-7.753159630948422e-17 -2.2926344737084166,1.0264474169429105 -2.2926344737084166 2.2926344737084157c -1.5506319261896845e-16,1.2661870567655056 1.0264474169429103,2.2926344737084166 2.2926344737084157 2.2926344737084166c 1.2661870567655056,2.325947889284527e-16 2.2926344737084166,-1.0264474169429103 2.2926344737084166 -2.2926344737084157Z" /></g></g></g><g fill="rgb(191,49,49)" fill-opacity="1.0" stroke-width="0.0"><g fill="rgb(191,49,49)" fill-opacity="1.0"><g fill="rgb(191,49,49)" fill-opacity="1.0"><path d="M 178.43684093156782,146.92374043505276 c 0.0,-0.4919963322105955 -0.3988418311848832,-0.8908381633954788 -0.8908381633954786 -0.8908381633954788c -0.4919963322105955,-3.012608667169718e-17 -0.8908381633954788,0.39884183118488314 -0.8908381633954788 0.8908381633954785c -6.025217334339436e-17,0.4919963322105955 0.3988418311848831,0.8908381633954788 0.8908381633954784 0.8908381633954788c 0.4919963322105955,9.037826001509154e-17 0.8908381633954788,-0.39884183118488303 0.890838163395479 -0.8908381633954785Z" /></g></g></g><g fill="rgb(240,162,188)" fill-opacity="1.0" stroke-width="0.0"><g fill="rgb(240,162,188)" fill-opacity="1.0"><g fill="rgb(240,162,188)" fill-opacity="1.0"><path d="M 95.65927469767502,684.4369290375175 c 0.0,-0.7620257448234132 -0.6177439211991942,-1.3797696660226075 -1.3797696660226073 -1.3797696660226075c -0.7620257448234132,-4.6660619463293536e-17 -1.3797696660226075,0.6177439211991941 -1.3797696660226075 1.379769666022607c -9.332123892658707e-17,0.7620257448234132 0.617743921199194,1.3797696660226075 1.3797696660226069 1.3797696660226075c 0.7620257448234132,1.399818583898806e-16 1.3797696660226075,-0.617743921199194 1.3797696660226078 -1.379769666022607Z" /></g></g></g><g fill="rgb(191,49,49)" fill-opacity="1.0" stroke-width="0.0"><g fill="rgb(191,49,49)" fill-opacity="1.0"><g fill="rgb(191,49,49)" fill-opacity="1.0"><path d="M 2.065858175160675,382.2014627790985 c 0.0,-0.5704709827272615 -0.4624581048530851,-1.0329290875803467 -1.0329290875803465 -1.0329290875803467c -0.5704709827272615,-3.493127315016929e-17 -1.0329290875803467,0.46245810485308503 -1.0329290875803467 1.0329290875803463c -6.986254630033858e-17,0.5704709827272615 0.462458104853085,1.0329290875803467 1.0329290875803463 1.0329290875803467c 0.5704709827272615,1.0479381945050788e-16 1.0329290875803467,-0.4624581048530849 1.0329290875803472 -1.0329290875803463Z" /></g></g></g><g fill="rgb(191,49,49)" fill-opacity="1.0" stroke-width="0.0"><g fill="rgb(191,49,49)" fill-opacity="1.0"><g fill="rgb(191,49,49)" fill-opacity="1.0"><path d="M 584.9466234717152,98.06221815248949 c 0.0,-0.4181983801428738 -0.3390167706846649,-0.7572151508275388 -0.7572151508275385 -0.7572151508275388c -0.4181983801428738,-2.5607265382528918e-17 -0.7572151508275388,0.33901677068466485 -0.7572151508275388 0.7572151508275385c -5.1214530765057837e-17,0.4181983801428738 0.3390167706846648,0.7572151508275388 0.7572151508275384 0.7572151508275388c 0.4181983801428738,7.682179614758676e-17 0.7572151508275388,-0.3390167706846648 0.7572151508275389 -0.7572151508275385Z" /></g></g></g><g fill="rgb(173,210,116)" fill-opacity="1.0" stroke-width="0.0"><g fill="rgb(173,210,116)" fill-opacity="1.0"><g fill="rgb(173,210,116)" fill-opacity="1.0"><path d="M 733.6979004341848,45.94243487953548 c 0.0,-0.3288801908303757 -0.26661007199353265,-0.5954902628239084 -0.5954902628239083 -0.5954902628239084c -0.3288801908303757,-2.0138103650169512e-17 -0.5954902628239084,0.2666100719935326 -0.5954902628239084 0.5954902628239082c -4.0276207300339025e-17,0.3288801908303757 0.26661007199353254,0.5954902628239084 0.5954902628239082 0.5954902628239084c 0.3288801908303757,6.041431095050854e-17 0.5954902628239084,-0.26661007199353254 0.5954902628239084 -0.5954902628239082Z" /></g></g></g><g fill="rgb(185,161,185)" fill-opacity="1.0" stroke-width="0.0"><g fill="rgb(185,161,185)" fill-opacity="1.0"><g fill="rgb(185,161,185)" fill-opacity="1.0"><path d="M 737.0595176592224,1.1723552979449323 c 0.0,-0.6474739524383438 -0.5248813455066275,-1.1723552979449714 -1.1723552979449712 -1.1723552979449714c -0.6474739524383438,-3.964634516924517e-17 -1.1723552979449714,0.5248813455066274 -1.1723552979449714 1.172355297944971c -7.929269033849034e-17,0.6474739524383438 0.5248813455066272,1.1723552979449714 1.172355297944971 1.1723552979449714c 0.6474739524383438,1.189390355077355e-16 1.1723552979449714,-0.5248813455066272 1.1723552979449718 -1.172355297944971Z" /></g></g></g><g fill="rgb(235,86,92)" fill-opacity="1.0" stroke-width="0.0"><g fill="rgb(235,86,92)" fill-opacity="1.0"><g fill="rgb(235,86,92)" fill-opacity="1.0"><path d="M 800.0000000000001,72.8878880115767 c 0.0,-0.44947075372527284 -0.36436803842493526,-0.8138387921502082 -0.8138387921502079 -0.8138387921502082c -0.44947075372527284,-2.752214599300018e-17 -0.8138387921502082,0.3643680384249352 -0.8138387921502082 0.8138387921502079c -5.504429198600036e-17,0.44947075372527284 0.36436803842493515,0.8138387921502082 0.8138387921502078 0.8138387921502082c 0.44947075372527284,8.256643797900055e-17 0.8138387921502082,-0.3643680384249351 0.8138387921502083 -0.8138387921502079Z" /></g></g></g><g fill="rgb(241,237,226)" fill-opacity="1.0" stroke-width="0.0"><g fill="rgb(241,237,226)" fill-opacity="1.0"><g fill="rgb(241,237,226)" fill-opacity="1.0"><path d="M 385.1532768674786,861.9481219406874 c 0.0,-0.41575100121142855 -0.3370327780596892,-0.7527837792711178 -0.7527837792711176 -0.7527837792711178c -0.41575100121142855,-2.5457406643794166e-17 -0.7527837792711178,0.3370327780596892 -0.7527837792711178 0.7527837792711176c -5.091481328758833e-17,0.41575100121142855 0.3370327780596891,0.7527837792711178 0.7527837792711175 0.7527837792711178c 0.41575100121142855,7.63722199313825e-17 0.7527837792711178,-0.33703277805968906 0.752783779271118 -0.7527837792711176Z" /></g></g></g><g fill="rgb(245,180,86)" fill-opacity="1.0" stroke-width="0.0"><g fill="rgb(245,180,86)" fill-opacity="1.0"><g fill="rgb(245,180,86)" fill-opacity="1.0"><path d="M 482.47677844365745,555.9390640888643 c 0.0,-0.43777147369700653 -0.3548838980675207,-0.7926553717645273 -0.792655371764527 -0.7926553717645273c -0.43777147369700653,-2.6805771701052936e-17 -0.7926553717645273,0.35488389806752063 -0.7926553717645273 0.792655371764527c -5.361154340210587e-17,0.43777147369700653 0.3548838980675206,0.7926553717645273 0.7926553717645269 0.7926553717645273c 0.43777147369700653,8.041731510315881e-17 0.7926553717645273,-0.3548838980675205 0.7926553717645274 -0.792655371764527Z" /></g></g></g><g fill="rgb(168,145,120)" fill-opacity="1.0" stroke-width="0.0"><g fill="rgb(168,145,120)" fill-opacity="1.0"><g fill="rgb(168,145,120)" fill-opacity="1.0"><path d="M 59.225812114026795,775.5445979236655 c 0.0,-0.5667969974839367 -0.4594797513446149,-1.0262767488285518 -1.0262767488285516 -1.0262767488285518c -0.5667969974839367,-3.470630643675168e-17 -1.0262767488285518,0.45947975134461483 -1.0262767488285518 1.0262767488285514c -6.941261287350335e-17,0.5667969974839367 0.4594797513446148,1.0262767488285518 1.0262767488285514 1.0262767488285518c 0.5667969974839367,1.0411891931025503e-16 1.0262767488285518,-0.4594797513446147 1.0262767488285522 -1.0262767488285514Z" /></g></g></g><g fill="rgb(209,95,105)" fill-opacity="1.0" stroke-width="0.0"><g fill="rgb(209,95,105)" fill-opacity="1.0"><g fill="rgb(209,95,105)" fill-opacity="1.0"><path d="M 400.7629264049222,527.6103890830041 c 0.0,-0.6436689960776082 -0.5217968189296187,-1.165465815007227 -1.1654658150072268 -1.165465815007227c -0.6436689960776082,-3.941335878784165e-17 -1.165465815007227,0.5217968189296186 -1.165465815007227 1.1654658150072266c -7.88267175756833e-17,0.6436689960776082 0.5217968189296186,1.165465815007227 1.1654658150072266 1.165465815007227c 0.6436689960776082,1.1824007636352496e-16 1.165465815007227,-0.5217968189296185 1.165465815007227 -1.1654658150072266Z" /></g></g></g></g></g></g></svg>