<?xml version="1.0" encoding="UTF-8"?>
<!DOCTYPE svg PUBLIC "-//W3C//DTD SVG 1.1//EN"
    "http://www.w3.org/Graphics/SVG/1.1/DTD/svg11.dtd">
<svg xmlns="http://www.w3.org/2000/svg" xmlns:xlink="http://www.w3.org/1999/xlink" version="1.1" width="800.0" height="859.0615112727007" font-size="1" viewBox="0 0 800 859" stroke="rgb(0,0,0)" stroke-opacity="1"><g><g fill="rgb(0,0,0)" fill-opacity="0.0"><g stroke="rgb(0,0,0)" stroke-opacity="1.0" stroke-width="3.3160198045685085" stroke-linecap="butt" stroke-linejoin="miter" font-size="1.0em" stroke-miterlimit="10.0"><g fill="rgb(245,180,86)" fill-opacity="1.0" stroke-width="0.0"><g fill="rgb(245,180,86)" fill-opacity="1.0"><g fill="rgb(245,180,86)" fill-opacity="1.0"><path d="M 476.01867711221115,306.66550558998887 c 0.0,-17.932550750076725 -14.537204671507553,-32.46975542158428 -32.469755421584274 -32.46975542158428c -17.932550750076725,-1.0980520438314463e-15 -32.46975542158428,14.537204671507551 -32.46975542158428 32.46975542158427c -2.1961040876628927e-15,17.932550750076725 14.53720467150755,32.46975542158428 32.46975542158427 32.46975542158428c 17.932550750076725,3.294156131494339e-15 32.46975542158428,-14.537204671507547 32.469755421584296 -32.46975542158427Z" /></g></g></g><g fill="rgb(241,237,226)" fill-opacity="1.0" stroke-width="0.0"><g fill="rgb(241,237,226)" fill-opacity="1.0"><g fill="rgb(241,237,226)" fill-opacity="1.0"><path d="M 548.5820556560567,326.5094611732191 c 0.0,-15.005581576474775 -12.164427338441158,-27.170008914915936 -27.17000891491593 -27.170008914915936c -15.005581576474775,-9.188268723487164e-16 -27.170008914915936,12.164427338441156 -27.170008914915936 27.170008914915925c -1.8376537446974327e-15,15.005581576474775 12.164427338441154,27.170008914915936 27.170008914915925 27.170008914915936c 15.005581576474775,2.756480617046149e-15 27.170008914915936,-12.164427338441152 27.17000891491594 -27.170008914915925Z" /></g></g></g><g fill="rgb(168,145,120)" fill-opacity="1.0" stroke-width="0.0"><g fill="rgb(168,145,120)" fill-opacity="1.0"><g fill="rgb(168,145,120)" fill-opacity="1.0"><path d="M 485.5711214263969,357.6514675107177 c 0.0,-8.113308937604813 -6.577136417061475,-14.69044535466629 -14.690445354666286 -14.69044535466629c -8.113308937604813,-4.967968910465673e-16 -14.69044535466629,6.577136417061474 -14.69044535466629 14.690445354666284c -9.935937820931347e-16,8.113308937604813 6.577136417061473,14.69044535466629 14.690445354666283 14.69044535466629c 8.113308937604813,1.4903906731397021e-15 14.69044535466629,-6.577136417061472 14.690445354666293 -14.690445354666284Z" /></g></g></g><g fill="rgb(241,237,226)" fill-opacity="1.0" stroke-width="0.0"><g fill="rgb(241,237,226)" fill-opacity="1.0"><g fill="rgb(241,237,226)" fill-opacity="1.0"><path d="M 460.5951414116676,388.58042634395576 c 0.0,-6.755174785141289 -5.476151151725352,-12.231325936866643 -12.23132593686664 -12.231325936866643c -6.755174785141289,-4.1363515891520945e-16 -12.231325936866643,5.476151151725352 -12.231325936866643 12.23132593686664c -8.272703178304189e-16,6.755174785141289 5.476151151725351,12.231325936866643 12.231325936866638 12.231325936866643c 6.755174785141289,1.2409054767456284e-15 12.231325936866643,-5.47615115172535 12.231325936866645 -12.23132593686664Z" /></g></g></g><g fill="rgb(235,86,92)" fill-opacity="1.0" stroke-width="0.0"><g fill="rgb(235,86,92)" fill-opacity="1.0"><g fill="rgb(235,86,92)" fill-opacity="1.0"><path d="M 534.3550691707352,399.7181002037937 c 0.0,-15.610485713191615 -12.654799029822355,-28.26528474301397 -28.265284743013964 -28.26528474301397c -15.610485713191615,-9.5586656808978e-16 -28.26528474301397,12.654799029822353 -28.26528474301397 28.26528474301396c -1.91173313617956e-15,15.610485713191615 12.654799029822351,28.26528474301397 28.265284743013957 28.26528474301397c 15.610485713191615,2.8675997042693396e-15 28.26528474301397,-12.65479902982235 28.26528474301398 -28.26528474301396Z" /></g></g></g><g fill="rgb(168,145,120)" fill-opacity="1.0" stroke-width="0.0"><g fill="rgb(168,145,120)" fill-opacity="1.0"><g fill="rgb(168,145,120)" fill-opacity="1.0"><path d="M 482.09839428448544,330.2563880535355 c 0.0,-0.21850051294054898 -0.17712966335436442,-0.3956301762949134 -0.3956301762949133 -0.3956301762949134c -0.21850051294054898,-1.3379297689234906e-17 -0.3956301762949134,0.1771296633543644 -0.3956301762949134 0.3956301762949133c -2.6758595378469812e-17,0.21850051294054898 0.17712966335436436,0.3956301762949134 0.39563017629491326 0.3956301762949134c 0.21850051294054898,4.013789306770472e-17 0.3956301762949134,-0.17712966335436434 0.3956301762949135 -0.3956301762949133Z" /></g></g></g><g fill="rgb(72,189,190)" fill-opacity="1.0" stroke-width="0.0"><g fill="rgb(72,189,190)" fill-opacity="1.0"><g fill="rgb(72,189,190)" fill-opacity="1.0"><path d="M 501.5443338623609,284.97391657147296 c 0.0,-6.269066624915983 -5.082082627053533,-11.351149251969519 -11.351149251969517 -11.351149251969519c -6.269066624915983,-3.83869618792243e-16 -11.351149251969519,5.082082627053532 -11.351149251969519 11.351149251969515c -7.67739237584486e-16,6.269066624915983 5.082082627053532,11.351149251969519 11.351149251969513 11.351149251969519c 6.269066624915983,1.151608856376729e-15 11.351149251969519,-5.0820826270535315 11.35114925196952 -11.351149251969515Z" /></g></g></g><g fill="rgb(241,237,226)" fill-opacity="1.0" stroke-width="0.0"><g fill="rgb(241,237,226)" fill-opacity="1.0"><g fill="rgb(241,237,226)" fill-opacity="1.0"><path d="M 600.8131474517229,340.97790525253123 c 0.0,-12.339377598499585 -10.003041963655747,-22.342419562155335 -22.34241956215533 -22.342419562155335c -12.339377598499585,-7.555689639736536e-16 -22.342419562155335,10.003041963655747 -22.342419562155335 22.342419562155328c -1.5111379279473071e-15,12.339377598499585 10.003041963655745,22.342419562155335 22.342419562155325 22.342419562155335c 12.339377598499585,2.2667068919209606e-15 22.342419562155335,-10.003041963655743 22.342419562155346 -22.342419562155328Z" /></g></g></g><g fill="rgb(209,95,105)" fill-opacity="1.0" stroke-width="0.0"><g fill="rgb(209,95,105)" fill-opacity="1.0"><g fill="rgb(209,95,105)" fill-opacity="1.0"><path d="M 558.0178107342437,267.99756588026037 c 0.0,-10.589950520762658 -8.58485110830126,-19.17480162906392 -19.174801629063918 -19.17480162906392c -10.589950520762658,-6.484474504190418e-16 -19.17480162906392,8.58485110830126 -19.17480162906392 19.174801629063914c -1.2968949008380836e-15,10.589950520762658 8.584851108301258,19.17480162906392 19.174801629063914 19.17480162906392c 10.589950520762658,1.9453423512571253e-15 19.17480162906392,-8.584851108301258 19.17480162906393 -19.174801629063914Z" /></g></g></g><g fill="rgb(97,91,91)" fill-opacity="1.0" stroke-width="0.0"><g fill="rgb(97,91,91)" fill-opacity="1.0"><g fill="rgb(97,91,91)" fill-opacity="1.0"><path d="M 548.6012698922244,364.8413294529632 c 0.0,-5.126340895281698 -4.155720390770982,-9.28206128605268 -9.282061286052679 -9.28206128605268c -5.126340895281698,-3.138978484372454e-16 -9.28206128605268,4.155720390770981 -9.28206128605268 9.282061286052677c -6.277956968744908e-16,5.126340895281698 4.1557203907709805,9.28206128605268 9.282061286052677 9.28206128605268c 5.126340895281698,9.416935453117362e-16 9.28206128605268,-4.1557203907709805 9.282061286052684 -9.282061286052677Z" /></g></g></g><g fill="rgb(168,145,120)" fill-opacity="1.0" stroke-width="0.0"><g fill="rgb(168,145,120)" fill-opacity="1.0"><g fill="rgb(168,145,120)" fill-opacity="1.0"><path d="M 438.7799329829951,358.5218998674548 c 0.0,-7.291091774548704 -5.910597710418092,-13.201689484966797 -13.201689484966794 -13.201689484966797c -7.291091774548704,-4.464506101995333e-16 -13.201689484966797,5.910597710418091 -13.201689484966797 13.201689484966794c -8.929012203990665e-16,7.291091774548704 5.910597710418091,13.201689484966797 13.201689484966792 13.201689484966797c 7.291091774548704,1.3393518305986e-15 13.201689484966797,-5.91059771041809 13.2016894849668 -13.201689484966794Z" /></g></g></g><g fill="rgb(245,180,86)" fill-opacity="1.0" stroke-width="0.0"><g fill="rgb(245,180,86)" fill-opacity="1.0"><g fill="rgb(245,180,86)" fill-opacity="1.0"><path d="M 437.73271750334686,414.63724380590133 c 0.0,-12.704341680488845 -10.298903809054625,-23.003245489543474 -23.00324548954347 -23.003245489543474c -12.704341680488845,-7.779165687142485e-16 -23.003245489543474,10.298903809054625 -23.003245489543474 23.003245489543467c -1.555833137428497e-15,12.704341680488845 10.298903809054623,23.003245489543474 23.003245489543463 23.003245489543474c 12.704341680488845,2.3337497061427456e-15 23.003245489543474,-10.298903809054622 23.003245489543485 -23.003245489543467Z" /></g></g></g><g fill="rgb(240,162,188)" fill-opacity="1.0" stroke-width="0.0"><g fill="rgb(240,162,188)" fill-opacity="1.0"><g fill="rgb(240,162,188)" fill-opacity="1.0"><path d="M 476.7675897828057,330.7046686947249 c 0.0,-0.22929904019812336 -0.18588359931595874,-0.41518263951408213 -0.415182639514082 -0.41518263951408213c -0.22929904019812336,-1.4040516781309602e-17 -0.41518263951408213,0.18588359931595871 -0.41518263951408213 0.415182639514082c -2.8081033562619204e-17,0.22929904019812336 0.1858835993159587,0.41518263951408213 0.41518263951408196 0.41518263951408213c 0.22929904019812336,4.21215503439288e-17 0.41518263951408213,-0.18588359931595866 0.4151826395140822 -0.415182639514082Z" /></g></g></g><g fill="rgb(168,145,120)" fill-opacity="1.0" stroke-width="0.0"><g fill="rgb(168,145,120)" fill-opacity="1.0"><g fill="rgb(168,145,120)" fill-opacity="1.0"><path d="M 471.07718073186,338.07978175466195 c 0.0,-1.6419158253748063 -1.331035765046347,-2.9729515904211534 -2.972951590421153 -2.9729515904211534c -1.6419158253748063,-1.0053834800073205e-16 -2.9729515904211534,1.3310357650463467 -2.9729515904211534 2.9729515904211525c -2.010766960014641e-16,1.6419158253748063 1.3310357650463465,2.9729515904211534 2.972951590421152 2.9729515904211534c 1.6419158253748063,3.0161504400219613e-16 2.9729515904211534,-1.3310357650463465 2.972951590421154 -2.9729515904211525Z" /></g></g></g><g fill="rgb(241,237,226)" fill-opacity="1.0" stroke-width="0.0"><g fill="rgb(241,237,226)" fill-opacity="1.0"><g fill="rgb(241,237,226)" fill-opacity="1.0"><path d="M 470.6300825817764,250.15947784811877 c 0.0,-5.143406520630994 -4.169554813548173,-9.312961334179167 -9.312961334179166 -9.312961334179167c -5.143406520630994,-3.1494281661021857e-16 -9.312961334179167,4.169554813548172 -9.312961334179167 9.312961334179164c -6.298856332204371e-16,5.143406520630994 4.169554813548172,9.312961334179167 9.312961334179164 9.312961334179167c 5.143406520630994,9.448284498306557e-16 9.312961334179167,-4.169554813548171 9.312961334179171 -9.312961334179164Z" /></g></g></g><g fill="rgb(245,180,86)" fill-opacity="1.0" stroke-width="0.0"><g fill="rgb(245,180,86)" fill-opacity="1.0"><g fill="rgb(245,180,86)" fill-opacity="1.0"><path d="M 475.2275995668577,427.8822781668476 c 0.0,-8.602766663051659 -6.973920300851174,-15.576686963902834 -15.57668696390283 -15.576686963902834c -8.602766663051659,-5.267675328858885e-16 -15.576686963902834,6.973920300851173 -15.576686963902834 15.576686963902828c -1.053535065771777e-15,8.602766663051659 6.973920300851172,15.576686963902834 15.576686963902826 15.576686963902834c 8.602766663051659,1.5803025986576654e-15 15.576686963902834,-6.973920300851171 15.576686963902837 -15.576686963902828Z" /></g></g></g><g fill="rgb(72,189,190)" fill-opacity="1.0" stroke-width="0.0"><g fill="rgb(72,189,190)" fill-opacity="1.0"><g fill="rgb(72,189,190)" fill-opacity="1.0"><path d="M 513.3007516870698,361.8811144070821 c 0.0,-1.9184064506928942 -1.5551757028622182,-3.4735821535551126 -3.4735821535551117 -3.4735821535551126c -1.9184064506928942,-1.1746851596523436e-16 -3.4735821535551126,1.555175702862218 -3.4735821535551126 3.4735821535551112c -2.349370319304687e-16,1.9184064506928942 1.5551757028622177,3.4735821535551126 3.4735821535551112 3.4735821535551126c 1.9184064506928942,3.524055478957031e-16 3.4735821535551126,-1.5551757028622175 3.473582153555113 -3.4735821535551112Z" /></g></g></g><g fill="rgb(173,210,116)" fill-opacity="1.0" stroke-width="0.0"><g fill="rgb(173,210,116)" fill-opacity="1.0"><g fill="rgb(173,210,116)" fill-opacity="1.0"><path d="M 486.088899016975,302.5560246916093 c 0.0,-0.27490976641788817 -0.22285839846827565,-0.4977681648861639 -0.49776816488616377 -0.4977681648861639c -0.27490976641788817,-1.6833368274900663e-17 -0.4977681648861639,0.22285839846827563 -0.4977681648861639 0.4977681648861637c -3.3666736549801326e-17,0.27490976641788817 0.2228583984682756,0.4977681648861639 0.49776816488616366 0.4977681648861639c 0.27490976641788817,5.0500104824701986e-17 0.4977681648861639,-0.22285839846827557 0.497768164886164 -0.4977681648861637Z" /></g></g></g><g fill="rgb(241,237,226)" fill-opacity="1.0" stroke-width="0.0"><g fill="rgb(241,237,226)" fill-opacity="1.0"><g fill="rgb(241,237,226)" fill-opacity="1.0"><path d="M 405.46546722009595,371.9554463098941 c 0.0,-10.018696801405303 -8.121758470037165,-18.14045527144247 -18.140455271442466 -18.14045527144247c -10.018696801405303,-6.134682484734414e-16 -18.14045527144247,8.121758470037165 -18.14045527144247 18.140455271442463c -1.2269364969468829e-15,10.018696801405303 8.121758470037163,18.14045527144247 18.140455271442463 18.14045527144247c 10.018696801405303,1.8404047454203244e-15 18.14045527144247,-8.121758470037163 18.140455271442477 -18.140455271442463Z" /></g></g></g><g fill="rgb(72,189,190)" fill-opacity="1.0" stroke-width="0.0"><g fill="rgb(72,189,190)" fill-opacity="1.0"><g fill="rgb(72,189,190)" fill-opacity="1.0"><path d="M 497.69505938327904,222.19324704746165 c 0.0,-6.219344711299 -5.041775052019568,-11.261119763318568 -11.261119763318566 -11.261119763318568c -6.219344711299,-3.8082502967431693e-16 -11.261119763318568,5.041775052019567 -11.261119763318568 11.261119763318565c -7.616500593486339e-16,6.219344711299 5.041775052019566,11.261119763318568 11.261119763318563 11.261119763318568c 6.219344711299,1.1424750890229509e-15 11.261119763318568,-5.041775052019566 11.261119763318574 -11.261119763318565Z" /></g></g></g><g fill="rgb(72,189,190)" fill-opacity="1.0" stroke-width="0.0"><g fill="rgb(72,189,190)" fill-opacity="1.0"><g fill="rgb(72,189,190)" fill-opacity="1.0"><path d="M 511.21405753121667,254.85608850275128 c 0.0,-7.962498594526844 -6.454880478435713,-14.417379072962559 -14.417379072962555 -14.417379072962559c -7.962498594526844,-4.875624208501299e-16 -14.417379072962559,6.4548804784357126 -14.417379072962559 14.417379072962554c -9.751248417002598e-16,7.962498594526844 6.454880478435712,14.417379072962559 14.417379072962552 14.417379072962559c 7.962498594526844,1.4626872625503897e-15 14.417379072962559,-6.454880478435712 14.417379072962563 -14.417379072962554Z" /></g></g></g><g fill="rgb(168,145,120)" fill-opacity="1.0" stroke-width="0.0"><g fill="rgb(168,145,120)" fill-opacity="1.0"><g fill="rgb(168,145,120)" fill-opacity="1.0"><path d="M 470.7562946970727,381.50251404301247 c 0.0,-2.636514715745269 -2.1373174723660853,-4.773832188111355 -4.773832188111354 -4.773832188111355c -2.636514715745269,-1.6143996537711685e-16 -4.773832188111355,2.137317472366085 -4.773832188111355 4.773832188111353c -3.228799307542337e-16,2.636514715745269 2.137317472366085,4.773832188111355 4.773832188111353 4.773832188111355c 2.636514715745269,4.843198961313506e-16 4.773832188111355,-2.1373174723660844 4.773832188111356 -4.773832188111353Z" /></g></g></g><g fill="rgb(97,91,91)" fill-opacity="1.0" stroke-width="0.0"><g fill="rgb(97,91,91)" fill-opacity="1.0"><g fill="rgb(97,91,91)" fill-opacity="1.0"><path d="M 573.80325644925,427.3145902010801 c 0.0,-7.292857502100971 -5.912029115418929,-13.204886617519902 -13.204886617519898 -13.204886617519902c -7.292857502100971,-4.465587298292858e-16 -13.204886617519902,5.912029115418928 -13.204886617519902 13.204886617519898c -8.931174596585716e-16,7.292857502100971 5.912029115418927,13.204886617519902 13.204886617519897 13.204886617519902c 7.292857502100971,1.3396761894878575e-15 13.204886617519902,-5.912029115418927 13.204886617519904 -13.204886617519898Z" /></g></g></g><g fill="rgb(240,162,188)" fill-opacity="1.0" stroke-width="0.0"><g fill="rgb(240,162,188)" fill-opacity="1.0"><g fill="rgb(240,162,188)" fill-opacity="1.0"><path d="M 560.5877276619086,399.7671171950891 c 0.0,-3.128087576902735 -2.535816012434295,-5.663903589337031 -5.66390358933703 -5.663903589337031c -3.128087576902735,-1.9154012192532674e-16 -5.663903589337031,2.535816012434295 -5.663903589337031 5.663903589337029c -3.830802438506535e-16,3.128087576902735 2.5358160124342946,5.663903589337031 5.663903589337028 5.663903589337031c 3.128087576902735,5.746203657759802e-16 5.663903589337031,-2.535816012434294 5.663903589337032 -5.663903589337029Z" /></g></g></g><g fill="rgb(209,95,105)" fill-opacity="1.0" stroke-width="0.0"><g fill="rgb(209,95,105)" fill-opacity="1.0"><g fill="rgb(209,95,105)" fill-opacity="1.0"><path d="M 563.3104712537075,296.0115203737075 c 0.0,-3.712830987139526 -3.00984420582397,-6.7226751929634965 -6.722675192963495 -6.7226751929634965c -3.712830987139526,-2.273453292087764e-16 -6.7226751929634965,3.0098442058239696 -6.7226751929634965 6.722675192963494c -4.546906584175528e-16,3.712830987139526 3.009844205823969,6.7226751929634965 6.722675192963494 6.7226751929634965c 3.712830987139526,6.820359876263291e-16 6.7226751929634965,-3.0098442058239687 6.722675192963497 -6.722675192963494Z" /></g></g></g><g fill="rgb(173,210,116)" fill-opacity="1.0" stroke-width="0.0"><g fill="rgb(173,210,116)" fill-opacity="1.0"><g fill="rgb(173,210,116)" fill-opacity="1.0"><path d="M 455.09975372672926,206.66701874032492 c 0.0,-7.134733801124716 -5.783844528823057,-12.918578329947774 -12.91857832994777 -12.918578329947774c -7.134733801124716,-4.368764456157906e-16 -12.918578329947774,5.783844528823056 -12.918578329947774 12.91857832994777c -8.737528912315812e-16,7.134733801124716 5.783844528823056,12.918578329947774 12.918578329947769 12.918578329947774c 7.134733801124716,1.3106293368473717e-15 12.918578329947774,-5.783844528823055 12.918578329947776 -12.91857832994777Z" /></g></g></g><g fill="rgb(235,86,92)" fill-opacity="1.0" stroke-width="0.0"><g fill="rgb(235,86,92)" fill-opacity="1.0"><g fill="rgb(235,86,92)" fill-opacity="1.0"><path d="M 390.3969869592013,333.4743134894436 c 0.0,-6.619805551153276 -5.366412705246927,-11.986218256400205 -11.986218256400203 -11.986218256400205c -6.619805551153276,-4.05346183959887e-16 -11.986218256400205,5.366412705246926 -11.986218256400205 11.986218256400202c -8.10692367919774e-16,6.619805551153276 5.366412705246926,11.986218256400205 11.9862182564002 11.986218256400205c 6.619805551153276,1.216038551879661e-15 11.986218256400205,-5.366412705246925 11.986218256400207 -11.986218256400202Z" /></g></g></g><g fill="rgb(241,237,226)" fill-opacity="1.0" stroke-width="0.0"><g fill="rgb(241,237,226)" fill-opacity="1.0"><g fill="rgb(241,237,226)" fill-opacity="1.0"><path d="M 602.188487977405,300.8436964948913 c 0.0,-6.009211954262813 -4.871428795104046,-10.88064074936686 -10.880640749366858 -10.88064074936686c -6.009211954262813,-3.6795810925929823e-16 -10.88064074936686,4.871428795104045 -10.88064074936686 10.880640749366856c -7.359162185185965e-16,6.009211954262813 4.871428795104044,10.88064074936686 10.880640749366854 10.88064074936686c 6.009211954262813,1.1038743277778947e-15 10.88064074936686,-4.871428795104044 10.880640749366862 -10.880640749366856Z" /></g></g></g><g fill="rgb(191,49,49)" fill-opacity="1.0" stroke-width="0.0"><g fill="rgb(191,49,49)" fill-opacity="1.0"><g fill="rgb(191,49,49)" fill-opacity="1.0"><path d="M 392.8893663957282,303.8796295036112 c 0.0,-5.210948362213285 -4.2243082944475985,-9.435256656660885 -9.435256656660883 -9.435256656660885c -5.210948362213285,-3.190785616153321e-16 -9.435256656660885,4.224308294447598 -9.435256656660885 9.435256656660881c -6.381571232306642e-16,5.210948362213285 4.224308294447598,9.435256656660885 9.435256656660881 9.435256656660885c 5.210948362213285,9.572356848459963e-16 9.435256656660885,-4.224308294447597 9.435256656660885 -9.435256656660881Z" /></g></g></g><g fill="rgb(245,180,86)" fill-opacity="1.0" stroke-width="0.0"><g fill="rgb(245,180,86)" fill-opacity="1.0"><g fill="rgb(245,180,86)" fill-opacity="1.0"><path d="M 434.1391485290735,246.74402810680044 c 0.0,-7.269386041868941 -5.893001737435308,-13.16238777930425 -13.162387779304247 -13.16238777930425c -7.269386041868941,-4.451215173970623e-16 -13.16238777930425,5.893001737435307 -13.16238777930425 13.162387779304247c -8.902430347941246e-16,7.269386041868941 5.8930017374353065,13.16238777930425 13.162387779304245 13.16238777930425c 7.269386041868941,1.3353645521911868e-15 13.16238777930425,-5.893001737435306 13.162387779304252 -13.162387779304247Z" /></g></g></g><g fill="rgb(97,91,91)" fill-opacity="1.0" stroke-width="0.0"><g fill="rgb(97,91,91)" fill-opacity="1.0"><g fill="rgb(97,91,91)" fill-opacity="1.0"><path d="M 405.4359154779445,257.7575621442486 c 0.0,-4.749469855824569 -3.8502060491858265,-8.599675905010397 -8.599675905010395 -8.599675905010397c -4.749469855824569,-2.9082115282911997e-16 -8.599675905010397,3.850206049185826 -8.599675905010397 8.599675905010393c -5.816423056582399e-16,4.749469855824569 3.8502060491858257,8.599675905010397 8.599675905010393 8.599675905010397c 4.749469855824569,8.7246345848736e-16 8.599675905010397,-3.850206049185825 8.5996759050104 -8.599675905010393Z" /></g></g></g><g fill="rgb(72,189,190)" fill-opacity="1.0" stroke-width="0.0"><g fill="rgb(72,189,190)" fill-opacity="1.0"><g fill="rgb(72,189,190)" fill-opacity="1.0"><path d="M 564.7202500760615,377.3422692265576 c 0.0,-5.02331709976922 -4.072203103003428,-9.095520202772649 -9.095520202772647 -9.095520202772649c -5.02331709976922,-3.07589460366727e-16 -9.095520202772649,4.072203103003427 -9.095520202772649 9.095520202772645c -6.15178920733454e-16,5.02331709976922 4.072203103003427,9.095520202772649 9.095520202772645 9.095520202772649c 5.02331709976922,9.227683811001812e-16 9.095520202772649,-4.072203103003426 9.095520202772649 -9.095520202772645Z" /></g></g></g><g fill="rgb(97,91,91)" fill-opacity="1.0" stroke-width="0.0"><g fill="rgb(97,91,91)" fill-opacity="1.0"><g fill="rgb(97,91,91)" fill-opacity="1.0"><path d="M 374.7800203711128,397.87952397003886 c 0.0,-5.505201756534673 -4.462847801634969,-9.968049558169643 -9.968049558169641 -9.968049558169643c -5.505201756534673,-3.370963854900286e-16 -9.968049558169643,4.462847801634969 -9.968049558169643 9.96804955816964c -6.741927709800572e-16,5.505201756534673 4.462847801634968,9.968049558169643 9.96804955816964 9.968049558169643c 5.505201756534673,1.011289156470086e-15 9.968049558169643,-4.462847801634967 9.968049558169646 -9.96804955816964Z" /></g></g></g><g fill="rgb(185,161,185)" fill-opacity="1.0" stroke-width="0.0"><g fill="rgb(185,161,185)" fill-opacity="1.0"><g fill="rgb(185,161,185)" fill-opacity="1.0"><path d="M 408.71904234021486,281.75425077288514 c 0.0,-6.496907776620269 -5.266784374232642,-11.763692150852911 -11.76369215085291 -11.763692150852911c -6.496907776620269,-3.9782086564967795e-16 -11.763692150852911,5.266784374232641 -11.763692150852911 11.763692150852908c -7.956417312993559e-16,6.496907776620269 5.26678437423264,11.763692150852911 11.763692150852906 11.763692150852911c 6.496907776620269,1.193462596949034e-15 11.763692150852911,-5.266784374232639 11.763692150852917 -11.763692150852908Z" /></g></g></g><g fill="rgb(240,162,188)" fill-opacity="1.0" stroke-width="0.0"><g fill="rgb(240,162,188)" fill-opacity="1.0"><g fill="rgb(240,162,188)" fill-opacity="1.0"><path d="M 524.2454961622444,229.58229266438923 c 0.0,-6.061498312843959 -4.913815263533178,-10.975313576377138 -10.975313576377136 -10.975313576377138c -6.061498312843959,-3.7115972534307176e-16 -10.975313576377138,4.913815263533177 -10.975313576377138 10.975313576377134c -7.423194506861435e-16,6.061498312843959 4.913815263533177,10.975313576377138 10.975313576377133 10.975313576377138c 6.061498312843959,1.1134791760292152e-15 10.975313576377138,-4.913815263533176 10.97531357637714 -10.975313576377134Z" /></g></g></g><g fill="rgb(191,49,49)" fill-opacity="1.0" stroke-width="0.0"><g fill="rgb(191,49,49)" fill-opacity="1.0"><g fill="rgb(191,49,49)" fill-opacity="1.0"><path d="M 412.62723040884254,328.42766766403054 c 0.0,-3.345349349142 -2.7119414780389657,-6.0572908271809665 -6.057290827180965 -6.0572908271809665c -3.345349349142,-2.0484356862282159e-16 -6.0572908271809665,2.7119414780389652 -6.0572908271809665 6.057290827180965c -4.0968713724564317e-16,3.345349349142 2.7119414780389652,6.0572908271809665 6.057290827180964 6.0572908271809665c 3.345349349142,6.145307058684647e-16 6.0572908271809665,-2.711941478038965 6.057290827180967 -6.057290827180965Z" /></g></g></g><g fill="rgb(191,49,49)" fill-opacity="1.0" stroke-width="0.0"><g fill="rgb(191,49,49)" fill-opacity="1.0"><g fill="rgb(191,49,49)" fill-opacity="1.0"><path d="M 376.3893823696241,226.56006824139104 c 0.0,-4.754274734910598 -3.8541011732910877,-8.608375908201687 -8.608375908201685 -8.608375908201687c -4.754274734910598,-2.9111536681876973e-16 -8.608375908201687,3.8541011732910873 -8.608375908201687 8.608375908201683c -5.822307336375395e-16,4.754274734910598 3.854101173291087,8.608375908201687 8.608375908201683 8.608375908201687c 4.754274734910598,8.733461004563092e-16 8.608375908201687,-3.8541011732910864 8.60837590820169 -8.608375908201683Z" /></g></g></g><g fill="rgb(245,180,86)" fill-opacity="1.0" stroke-width="0.0"><g fill="rgb(245,180,86)" fill-opacity="1.0"><g fill="rgb(245,180,86)" fill-opacity="1.0"><path d="M 497.9331396719052,467.6336539198858 c 0.0,-3.8372728823285094 -3.110724293954478,-6.947997176282988 -6.947997176282986 -6.947997176282988c -3.8372728823285094,-2.3496519763992734e-16 -6.947997176282988,3.1107242939544775 -6.947997176282988 6.9479971762829855c -4.699303952798547e-16,3.8372728823285094 3.110724293954477,6.947997176282988 6.9479971762829855 6.947997176282988c 3.8372728823285094,7.048955929197821e-16 6.947997176282988,-3.110724293954477 6.947997176282989 -6.9479971762829855Z" /></g></g></g><g fill="rgb(191,49,49)" fill-opacity="1.0" stroke-width="0.0"><g fill="rgb(191,49,49)" fill-opacity="1.0"><g fill="rgb(191,49,49)" fill-opacity="1.0"><path d="M 577.0056751195642,388.7696622205242 c 0.0,-3.51516949528854 -2.8496079068857942,-6.364777402174335 -6.364777402174333 -6.364777402174335c -3.51516949528854,-2.1524205354327636e-16 -6.364777402174335,2.849607906885794 -6.364777402174335 6.364777402174333c -4.304841070865527e-16,3.51516949528854 2.8496079068857934,6.364777402174335 6.364777402174332 6.364777402174335c 3.51516949528854,6.457261606298292e-16 6.364777402174335,-2.849607906885793 6.364777402174336 -6.364777402174333Z" /></g></g></g><g fill="rgb(235,86,92)" fill-opacity="1.0" stroke-width="0.0"><g fill="rgb(235,86,92)" fill-opacity="1.0"><g fill="rgb(235,86,92)" fill-opacity="1.0"><path d="M 370.77094681085265,299.87903823619075 c 0.0,-4.331946035127078 -3.511736116977031,-7.84368215210411 -7.843682152104108 -7.84368215210411c -4.331946035127078,-2.6525519229987217e-16 -7.84368215210411,3.5117361169770307 -7.84368215210411 7.843682152104107c -5.305103845997443e-16,4.331946035127078 3.5117361169770303,7.84368215210411 7.8436821521041065 7.84368215210411c 4.331946035127078,7.957655768996165e-16 7.84368215210411,-3.51173611697703 7.843682152104112 -7.843682152104107Z" /></g></g></g><g fill="rgb(173,210,116)" fill-opacity="1.0" stroke-width="0.0"><g fill="rgb(173,210,116)" fill-opacity="1.0"><g fill="rgb(173,210,116)" fill-opacity="1.0"><path d="M 491.2726464698236,316.42901471330543 c 0.0,-2.343317342143331 -1.899634039116546,-4.242951381259878 -4.242951381259877 -4.242951381259878c -2.343317342143331,-1.4348680412211567e-16 -4.242951381259878,1.8996340391165458 -4.242951381259878 4.242951381259876c -2.8697360824423134e-16,2.343317342143331 1.8996340391165456,4.242951381259878 4.242951381259876 4.242951381259878c 2.343317342143331,4.30460412366347e-16 4.242951381259878,-1.8996340391165454 4.242951381259878 -4.242951381259876Z" /></g></g></g><g fill="rgb(241,237,226)" fill-opacity="1.0" stroke-width="0.0"><g fill="rgb(241,237,226)" fill-opacity="1.0"><g fill="rgb(241,237,226)" fill-opacity="1.0"><path d="M 599.7196501593079,411.4963643265509 c 0.0,-3.190227430110394 -2.5861903165099887,-5.776417746620384 -5.776417746620383 -5.776417746620384c -3.190227430110394,-1.9534509054183903e-16 -5.776417746620384,2.5861903165099887 -5.776417746620384 5.776417746620382c -3.9069018108367806e-16,3.190227430110394 2.586190316509988,5.776417746620384 5.776417746620381 5.776417746620384c 3.190227430110394,5.860352716255171e-16 5.776417746620384,-2.5861903165099878 5.776417746620386 -5.776417746620382Z" /></g></g></g><g fill="rgb(241,237,226)" fill-opacity="1.0" stroke-width="0.0"><g fill="rgb(241,237,226)" fill-opacity="1.0"><g fill="rgb(241,237,226)" fill-opacity="1.0"><path d="M 587.3614830158323,414.3882312155957 c 0.0,-1.6283409271186056 -1.3200311356940817,-2.9483720628126875 -2.948372062812687 -2.9483720628126875c -1.6283409271186056,-9.970712521582169e-17 -2.9483720628126875,1.3200311356940815 -2.9483720628126875 2.9483720628126866c -1.9941425043164338e-16,1.6283409271186056 1.3200311356940813,2.9483720628126875 2.948372062812686 2.9483720628126875c 1.6283409271186056,2.9912137564746505e-16 2.9483720628126875,-1.320031135694081 2.948372062812689 -2.9483720628126866Z" /></g></g></g><g fill="rgb(173,210,116)" fill-opacity="1.0" stroke-width="0.0"><g fill="rgb(173,210,116)" fill-opacity="1.0"><g fill="rgb(173,210,116)" fill-opacity="1.0"><path d="M 465.5221723452125,473.8608977571354 c 0.0,-3.49781610633442 -2.835540205615285,-6.333356311949706 -6.3333563119497045 -6.333356311949706c -3.49781610633442,-2.141794649314253e-16 -6.333356311949706,2.835540205615285 -6.333356311949706 6.3333563119497045c -4.283589298628506e-16,3.49781610633442 2.8355402056152847,6.333356311949706 6.333356311949704 6.333356311949706c 3.49781610633442,6.425383947942758e-16 6.333356311949706,-2.8355402056152843 6.333356311949707 -6.3333563119497045Z" /></g></g></g><g fill="rgb(173,210,116)" fill-opacity="1.0" stroke-width="0.0"><g fill="rgb(173,210,116)" fill-opacity="1.0"><g fill="rgb(173,210,116)" fill-opacity="1.0"><path d="M 358.1166229510401,260.0126474978485 c 0.0,-2.0557281201888324 -1.6664969110448873,-3.7222250312337204 -3.7222250312337195 -3.7222250312337204c -2.0557281201888324,-1.2587704311532297e-16 -3.7222250312337204,1.666496911044887 -3.7222250312337204 3.722225031233719c -2.5175408623064594e-16,2.0557281201888324 1.6664969110448868,3.7222250312337204 3.7222250312337186 3.7222250312337204c 2.0557281201888324,3.7763112934596886e-16 3.7222250312337204,-1.6664969110448868 3.7222250312337213 -3.722225031233719Z" /></g></g></g><g fill="rgb(191,49,49)" fill-opacity="1.0" stroke-width="0.0"><g fill="rgb(191,49,49)" fill-opacity="1.0"><g fill="rgb(191,49,49)" fill-opacity="1.0"><path d="M 463.92838705506927,399.7801520912285 c 0.0,-0.526616667395573 -0.426907158053012,-0.953523825448585 -0.9535238254485848 -0.953523825448585c -0.526616667395573,-3.2245970805181733e-17 -0.953523825448585,0.42690715805301194 -0.953523825448585 0.9535238254485847c -6.449194161036347e-17,0.526616667395573 0.4269071580530119,0.953523825448585 0.9535238254485846 0.953523825448585c 0.526616667395573,9.67379124155452e-17 0.953523825448585,-0.4269071580530118 0.9535238254485853 -0.9535238254485847Z" /></g></g></g><g fill="rgb(72,189,190)" fill-opacity="1.0" stroke-width="0.0"><g fill="rgb(72,189,190)" fill-opacity="1.0"><g fill="rgb(72,189,190)" fill-opacity="1.0"><path d="M 591.4039334416818,248.13551738560597 c 0.0,-0.4973367844207266 -0.40317112309092995,-0.9005079075116567 -0.9005079075116564 -0.9005079075116567c -0.4973367844207266,-3.0453095056954e-17 -0.9005079075116567,0.4031711230909299 -0.9005079075116567 0.9005079075116563c -6.0906190113908e-17,0.4973367844207266 0.4031711230909299,0.9005079075116567 0.9005079075116562 0.9005079075116567c 0.4973367844207266,9.135928517086201e-17 0.9005079075116567,-0.40317112309092984 0.9005079075116569 -0.9005079075116563Z" /></g></g></g><g fill="rgb(235,86,92)" fill-opacity="1.0" stroke-width="0.0"><g fill="rgb(235,86,92)" fill-opacity="1.0"><g fill="rgb(235,86,92)" fill-opacity="1.0"><path d="M 622.1023896957327,251.63023843539028 c 0.0,-3.6367747062858986 -2.9481884081222343,-6.584963114408134 -6.584963114408132 -6.584963114408134c -3.6367747062858986,-2.226882251636541e-16 -6.584963114408134,2.948188408122234 -6.584963114408134 6.584963114408132c -4.453764503273082e-16,3.6367747062858986 2.948188408122234,6.584963114408134 6.584963114408131 6.584963114408134c 3.6367747062858986,6.680646754909622e-16 6.584963114408134,-2.9481884081222334 6.584963114408135 -6.584963114408132Z" /></g></g></g><g fill="rgb(72,189,190)" fill-opacity="1.0" stroke-width="0.0"><g fill="rgb(72,189,190)" fill-opacity="1.0"><g fill="rgb(72,189,190)" fill-opacity="1.0"><path d="M 572.3441065343361,249.82808487298564 c 0.0,-2.7162915697698717 -2.201989390553724,-4.918280960323596 -4.918280960323595 -4.918280960323596c -2.7162915697698717,-1.6632488882348063e-16 -4.918280960323596,2.2019893905537233 -4.918280960323596 4.918280960323594c -3.3264977764696127e-16,2.7162915697698717 2.201989390553723,4.918280960323596 4.918280960323594 4.918280960323596c 2.7162915697698717,4.989746664704419e-16 4.918280960323596,-2.201989390553723 4.918280960323598 -4.918280960323594Z" /></g></g></g><g fill="rgb(185,161,185)" fill-opacity="1.0" stroke-width="0.0"><g fill="rgb(185,161,185)" fill-opacity="1.0"><g fill="rgb(185,161,185)" fill-opacity="1.0"><path d="M 362.3283236532674,334.99829815820556 c 0.0,-2.4415850291182957 -1.9792957391200767,-4.420880768238373 -4.420880768238372 -4.420880768238373c -2.4415850291182957,-1.495039645377909e-16 -4.420880768238373,1.9792957391200763 -4.420880768238373 4.420880768238371c -2.990079290755818e-16,2.4415850291182957 1.979295739120076,4.420880768238373 4.420880768238371 4.420880768238373c 2.4415850291182957,4.485118936133727e-16 4.420880768238373,-1.9792957391200758 4.420880768238375 -4.420880768238371Z" /></g></g></g><g fill="rgb(185,161,185)" fill-opacity="1.0" stroke-width="0.0"><g fill="rgb(185,161,185)" fill-opacity="1.0"><g fill="rgb(185,161,185)" fill-opacity="1.0"><path d="M 587.8942957536256,395.7894747255135 c 0.0,-1.309729816718797 -1.0617457982064133,-2.3714756149252105 -2.37147561492521 -2.3714756149252105c -1.309729816718797,-8.019782138962621e-17 -2.3714756149252105,1.0617457982064131 -2.3714756149252105 2.3714756149252096c -1.6039564277925242e-16,1.309729816718797 1.0617457982064131,2.3714756149252105 2.3714756149252096 2.3714756149252105c 1.309729816718797,2.4059346416887863e-16 2.3714756149252105,-1.061745798206413 2.3714756149252114 -2.3714756149252096Z" /></g></g></g><g fill="rgb(168,145,120)" fill-opacity="1.0" stroke-width="0.0"><g fill="rgb(168,145,120)" fill-opacity="1.0"><g fill="rgb(168,145,120)" fill-opacity="1.0"><path d="M 500.9149885641098,299.0008632221264 c 0.0,-1.3959450800663005 -1.131637078401743,-2.527582158468044 -2.5275821584680433 -2.527582158468044c -1.3959450800663005,-8.547698370443453e-17 -2.527582158468044,1.1316370784017429 -2.527582158468044 2.527582158468043c -1.7095396740886906e-16,1.3959450800663005 1.1316370784017427,2.527582158468044 2.5275821584680425 2.527582158468044c 1.3959450800663005,2.564309511133036e-16 2.527582158468044,-1.1316370784017427 2.527582158468045 -2.527582158468043Z" /></g></g></g><g fill="rgb(241,237,226)" fill-opacity="1.0" stroke-width="0.0"><g fill="rgb(241,237,226)" fill-opacity="1.0"><g fill="rgb(241,237,226)" fill-opacity="1.0"><path d="M 458.61122802719416,455.6894507200805 c 0.0,-3.07330116372255 -2.4914028493144458,-5.564704013036996 -5.564704013036995 -5.564704013036996c -3.07330116372255,-1.881854216484328e-16 -5.564704013036996,2.4914028493144453 -5.564704013036996 5.5647040130369945c -3.763708432968656e-16,3.07330116372255 2.4914028493144453,5.564704013036996 5.564704013036994 5.564704013036996c 3.07330116372255,5.645562649452984e-16 5.564704013036996,-2.491402849314445 5.564704013036999 -5.5647040130369945Z" /></g></g></g><g fill="rgb(168,145,120)" fill-opacity="1.0" stroke-width="0.0"><g fill="rgb(168,145,120)" fill-opacity="1.0"><g fill="rgb(168,145,120)" fill-opacity="1.0"><path d="M 417.14365498638824,280.4229247168688 c 0.0,-1.7257975962978194 -1.3990353758719922,-3.124832972169812 -3.124832972169811 -3.124832972169812c -1.7257975962978194,-1.0567462511411602e-16 -3.124832972169812,1.399035375871992 -3.124832972169812 3.124832972169811c -2.1134925022823204e-16,1.7257975962978194 1.3990353758719918,3.124832972169812 3.1248329721698105 3.124832972169812c 1.7257975962978194,3.1702387534234805e-16 3.124832972169812,-1.3990353758719916 3.1248329721698123 -3.124832972169811Z" /></g></g></g><g fill="rgb(245,180,86)" fill-opacity="1.0" stroke-width="0.0"><g fill="rgb(245,180,86)" fill-opacity="1.0"><g fill="rgb(245,180,86)" fill-opacity="1.0"><path d="M 513.8364604088116,273.2535021939012 c 0.0,-2.672599406961722 -2.166569894346237,-4.83916930130796 -4.839169301307959 -4.83916930130796c -2.672599406961722,-1.6364951545693937e-16 -4.83916930130796,2.166569894346237 -4.83916930130796 4.839169301307958c -3.2729903091387873e-16,2.672599406961722 2.1665698943462366,4.83916930130796 4.839169301307958 4.83916930130796c 2.672599406961722,4.909485463708181e-16 4.83916930130796,-2.1665698943462366 4.839169301307962 -4.839169301307958Z" /></g></g></g><g fill="rgb(209,95,105)" fill-opacity="1.0" stroke-width="0.0"><g fill="rgb(209,95,105)" fill-opacity="1.0"><g fill="rgb(209,95,105)" fill-opacity="1.0"><path d="M 661.0116858142146,320.83092306537196 c 0.0,-2.056101275514411 -1.6667994132052213,-3.7229006887196325 -3.7229006887196316 -3.7229006887196325c -2.056101275514411,-1.2589989228907568e-16 -3.7229006887196325,1.666799413205221 -3.7229006887196325 3.722900688719631c -2.5179978457815136e-16,2.056101275514411 1.6667994132052208,3.7229006887196325 3.7229006887196308 3.7229006887196325c 2.056101275514411,3.77699676867227e-16 3.7229006887196325,-1.6667994132052206 3.7229006887196334 -3.722900688719631Z" /></g></g></g><g fill="rgb(168,145,120)" fill-opacity="1.0" stroke-width="0.0"><g fill="rgb(168,145,120)" fill-opacity="1.0"><g fill="rgb(168,145,120)" fill-opacity="1.0"><path d="M 556.971911966273,242.2959456033907 c 0.0,-3.4178645459507044 -2.7707266599405576,-6.188591205891263 -6.188591205891261 -6.188591205891263c -3.4178645459507044,-2.0928384380588758e-16 -6.188591205891263,2.7707266599405576 -6.188591205891263 6.188591205891261c -4.1856768761177517e-16,3.4178645459507044 2.770726659940557,6.188591205891263 6.18859120589126 6.188591205891263c 3.4178645459507044,6.278515314176628e-16 6.188591205891263,-2.7707266599405567 6.188591205891264 -6.188591205891261Z" /></g></g></g><g fill="rgb(235,86,92)" fill-opacity="1.0" stroke-width="0.0"><g fill="rgb(235,86,92)" fill-opacity="1.0"><g fill="rgb(235,86,92)" fill-opacity="1.0"><path d="M 467.99024881065344,82.83519710803122 c 0.0,-2.435431963478436 -1.9743076938714954,-4.409739657349932 -4.409739657349931 -4.409739657349932c -2.435431963478436,-1.49127197930751e-16 -4.409739657349932,1.9743076938714952 -4.409739657349932 4.40973965734993c -2.98254395861502e-16,2.435431963478436 1.974307693871495,4.409739657349932 4.40973965734993 4.409739657349932c 2.435431963478436,4.473815937922531e-16 4.409739657349932,-1.9743076938714947 4.409739657349932 -4.40973965734993Z" /></g></g></g><g fill="rgb(97,91,91)" fill-opacity="1.0" stroke-width="0.0"><g fill="rgb(97,91,91)" fill-opacity="1.0"><g fill="rgb(97,91,91)" fill-opacity="1.0"><path d="M 242.27689987511383,482.9353181426558 c 0.0,-1.5065414068739302 -1.2212931156898335,-2.727834522563764 -2.7278345225637635 -2.727834522563764c -1.5065414068739302,-9.224905558555544e-17 -2.727834522563764,1.2212931156898332 -2.727834522563764 2.727834522563763c -1.8449811117111089e-16,1.5065414068739302 1.221293115689833,2.727834522563764 2.7278345225637626 2.727834522563764c 1.5065414068739302,2.7674716675666636e-16 2.727834522563764,-1.221293115689833 2.7278345225637644 -2.727834522563763Z" /></g></g></g><g fill="rgb(235,86,92)" fill-opacity="1.0" stroke-width="0.0"><g fill="rgb(235,86,92)" fill-opacity="1.0"><g fill="rgb(235,86,92)" fill-opacity="1.0"><path d="M 584.9525671085074,448.8205800743063 c 0.0,-2.557169874148564 -2.0729957694474574,-4.630165643596022 -4.630165643596021 -4.630165643596022c -2.557169874148564,-1.5658149506260393e-16 -4.630165643596022,2.0729957694474574 -4.630165643596022 4.63016564359602c -3.1316299012520785e-16,2.557169874148564 2.072995769447457,4.630165643596022 4.63016564359602 4.630165643596022c 2.557169874148564,4.697444851878117e-16 4.630165643596022,-2.072995769447457 4.630165643596022 -4.63016564359602Z" /></g></g></g><g fill="rgb(191,49,49)" fill-opacity="1.0" stroke-width="0.0"><g fill="rgb(191,49,49)" fill-opacity="1.0"><g fill="rgb(191,49,49)" fill-opacity="1.0"><path d="M 378.5169142220233,412.7739471444946 c 0.0,-1.1733603473716296 -0.9511965007599157,-2.1245568481315456 -2.124556848131545 -2.1245568481315456c -1.1733603473716296,-7.184759968275463e-17 -2.1245568481315456,0.9511965007599156 -2.1245568481315456 2.1245568481315447c -1.4369519936550926e-16,1.1733603473716296 0.9511965007599154,2.1245568481315456 2.1245568481315447 2.1245568481315456c 1.1733603473716296,2.155427990482639e-16 2.1245568481315456,-0.9511965007599152 2.1245568481315464 -2.1245568481315447Z" /></g></g></g><g fill="rgb(240,162,188)" fill-opacity="1.0" stroke-width="0.0"><g fill="rgb(240,162,188)" fill-opacity="1.0"><g fill="rgb(240,162,188)" fill-opacity="1.0"><path d="M 538.2086960746024,224.33453102079255 c 0.0,-0.7228972385912201 -0.5860239996155167,-1.308921238206737 -1.3089212382067368 -1.308921238206737c -0.7228972385912201,-4.4264689467659913e-17 -1.308921238206737,0.5860239996155167 -1.308921238206737 1.3089212382067366c -8.852937893531983e-17,0.7228972385912201 0.5860239996155165,1.308921238206737 1.3089212382067363 1.308921238206737c 0.7228972385912201,1.3279406840297973e-16 1.308921238206737,-0.5860239996155164 1.3089212382067372 -1.3089212382067366Z" /></g></g></g><g fill="rgb(241,237,226)" fill-opacity="1.0" stroke-width="0.0"><g fill="rgb(241,237,226)" fill-opacity="1.0"><g fill="rgb(241,237,226)" fill-opacity="1.0"><path d="M 399.0002436992977,333.1759882993084 c 0.0,-0.8965730113786599 -0.7268160314173757,-1.6233890427960358 -1.6233890427960354 -1.6233890427960358c -0.8965730113786599,-5.489926342933896e-17 -1.6233890427960358,0.7268160314173756 -1.6233890427960358 1.6233890427960354c -1.0979852685867792e-16,0.8965730113786599 0.7268160314173756,1.6233890427960358 1.6233890427960351 1.6233890427960358c 0.8965730113786599,1.6469779028801689e-16 1.6233890427960358,-0.7268160314173755 1.623389042796036 -1.6233890427960354Z" /></g></g></g><g fill="rgb(240,162,188)" fill-opacity="1.0" stroke-width="0.0"><g fill="rgb(240,162,188)" fill-opacity="1.0"><g fill="rgb(240,162,188)" fill-opacity="1.0"><path d="M 485.24886480021075,446.5521202593158 c 0.0,-1.6026042365520992 -1.2991674256983934,-2.9017716622504928 -2.9017716622504923 -2.9017716622504928c -1.6026042365520992,-9.813120742967578e-17 -2.9017716622504928,1.2991674256983932 -2.9017716622504928 2.901771662250492c -1.9626241485935157e-16,1.6026042365520992 1.299167425698393,2.9017716622504928 2.9017716622504914 2.9017716622504928c 1.6026042365520992,2.9439362228902736e-16 2.9017716622504928,-1.299167425698393 2.901771662250494 -2.901771662250492Z" /></g></g></g><g fill="rgb(209,95,105)" fill-opacity="1.0" stroke-width="0.0"><g fill="rgb(209,95,105)" fill-opacity="1.0"><g fill="rgb(209,95,105)" fill-opacity="1.0"><path d="M 449.8292723407517,228.3937282707846 c 0.0,-1.2736596389650727 -1.0325051417124504,-2.3061647806775234 -2.306164780677523 -2.3061647806775234c -1.2736596389650727,-7.798916000308748e-17 -2.3061647806775234,1.0325051417124504 -2.3061647806775234 2.3061647806775225c -1.5597832000617496e-16,1.2736596389650727 1.0325051417124502,2.3061647806775234 2.3061647806775225 2.3061647806775234c 1.2736596389650727,2.3396748000926245e-16 2.3061647806775234,-1.03250514171245 2.3061647806775243 -2.3061647806775225Z" /></g></g></g><g fill="rgb(240,162,188)" fill-opacity="1.0" stroke-width="0.0"><g fill="rgb(240,162,188)" fill-opacity="1.0"><g fill="rgb(240,162,188)" fill-opacity="1.0"><path d="M 664.1517747577511,369.9710128026654 c 0.0,-1.221007032560547 -0.9898217707599025,-2.21082880332045 -2.2108288033204495 -2.21082880332045c -1.221007032560547,-7.476511770808411e-17 -2.21082880332045,0.9898217707599024 -2.21082880332045 2.210828803320449c -1.4953023541616822e-16,1.221007032560547 0.9898217707599023,2.21082880332045 2.210828803320449 2.21082880332045c 1.221007032560547,2.242953531242523e-16 2.21082880332045,-0.9898217707599022 2.21082880332045 -2.210828803320449Z" /></g></g></g><g fill="rgb(97,91,91)" fill-opacity="1.0" stroke-width="0.0"><g fill="rgb(97,91,91)" fill-opacity="1.0"><g fill="rgb(97,91,91)" fill-opacity="1.0"><path d="M 419.62907465170474,380.4528964327604 c 0.0,-0.6559658307067242 -0.531765373002406,-1.1877312037091303 -1.18773120370913 -1.1877312037091303c -0.6559658307067242,-4.016632274625122e-17 -1.1877312037091303,0.5317653730024059 -1.1877312037091303 1.1877312037091299c -8.033264549250244e-17,0.6559658307067242 0.5317653730024059,1.1877312037091303 1.1877312037091299 1.1877312037091303c 0.6559658307067242,1.2049896823875364e-16 1.1877312037091303,-0.5317653730024058 1.1877312037091308 -1.1877312037091299Z" /></g></g></g><g fill="rgb(97,91,91)" fill-opacity="1.0" stroke-width="0.0"><g fill="rgb(97,91,91)" fill-opacity="1.0"><g fill="rgb(97,91,91)" fill-opacity="1.0"><path d="M 339.6649479094443,256.2483087921911 c 0.0,-1.2350147419289175 -1.0011772628427076,-2.2361920047716253 -2.236192004771625 -2.2361920047716253c -1.2350147419289175,-7.562284253015216e-17 -2.2361920047716253,1.0011772628427074 -2.2361920047716253 2.2361920047716244c -1.5124568506030433e-16,1.2350147419289175 1.0011772628427071,2.2361920047716253 2.2361920047716244 2.2361920047716253c 1.2350147419289175,2.268685275904565e-16 2.2361920047716253,-1.0011772628427071 2.2361920047716253 -2.2361920047716244Z" /></g></g></g><g fill="rgb(168,145,120)" fill-opacity="1.0" stroke-width="0.0"><g fill="rgb(168,145,120)" fill-opacity="1.0"><g fill="rgb(168,145,120)" fill-opacity="1.0"><path d="M 368.9944541637543,584.5883761223661 c 0.0,-1.5858914443329413 -1.2856190306870905,-2.871510475020032 -2.8715104750200315 -2.871510475020032c -1.5858914443329413,-9.710784405487547e-17 -2.871510475020032,1.2856190306870903 -2.871510475020032 2.871510475020031c -1.9421568810975094e-16,1.5858914443329413 1.28561903068709,2.871510475020032 2.8715104750200307 2.871510475020032c 1.5858914443329413,2.913235321646264e-16 2.871510475020032,-1.28561903068709 2.8715104750200333 -2.871510475020031Z" /></g></g></g><g fill="rgb(235,86,92)" fill-opacity="1.0" stroke-width="0.0"><g fill="rgb(235,86,92)" fill-opacity="1.0"><g fill="rgb(235,86,92)" fill-opacity="1.0"><path d="M 426.8471196057615,379.35535088983687 c 0.0,-1.2617059140781381 -1.0228147330421995,-2.284520647120338 -2.2845206471203374 -2.284520647120338c -1.2617059140781381,-7.725720545705386e-17 -2.284520647120338,1.0228147330421993 -2.284520647120338 2.284520647120337c -1.5451441091410772e-16,1.2617059140781381 1.0228147330421993,2.284520647120338 2.284520647120337 2.284520647120338c 1.2617059140781381,2.317716163711616e-16 2.284520647120338,-1.022814733042199 2.284520647120338 -2.284520647120337Z" /></g></g></g><g fill="rgb(235,86,92)" fill-opacity="1.0" stroke-width="0.0"><g fill="rgb(235,86,92)" fill-opacity="1.0"><g fill="rgb(235,86,92)" fill-opacity="1.0"><path d="M 335.34326669635044,339.00416810361446 c 0.0,-0.8896466670200749 -0.721201119909839,-1.610847786929914 -1.6108477869299136 -1.610847786929914c -0.8896466670200749,-5.4475147156912287e-17 -1.610847786929914,0.7212011199098389 -1.610847786929914 1.6108477869299136c -1.0895029431382457e-16,0.8896466670200749 0.7212011199098388,1.610847786929914 1.6108477869299134 1.610847786929914c 0.8896466670200749,1.6342544147073687e-16 1.610847786929914,-0.7212011199098387 1.6108477869299143 -1.6108477869299136Z" /></g></g></g><g fill="rgb(245,180,86)" fill-opacity="1.0" stroke-width="0.0"><g fill="rgb(245,180,86)" fill-opacity="1.0"><g fill="rgb(245,180,86)" fill-opacity="1.0"><path d="M 473.54151293710294,147.0106218034625 c 0.0,-0.993806295877841 -0.8056391825321981,-1.7994454784100393 -1.7994454784100389 -1.7994454784100393c -0.993806295877841,-6.085308496096427e-17 -1.7994454784100393,0.805639182532198 -1.7994454784100393 1.7994454784100387c -1.2170616992192854e-16,0.993806295877841 0.8056391825321979,1.7994454784100393 1.7994454784100384 1.7994454784100393c 0.993806295877841,1.825592548828928e-16 1.7994454784100393,-0.8056391825321978 1.7994454784100398 -1.7994454784100387Z" /></g></g></g><g fill="rgb(191,49,49)" fill-opacity="1.0" stroke-width="0.0"><g fill="rgb(191,49,49)" fill-opacity="1.0"><g fill="rgb(191,49,49)" fill-opacity="1.0"><path d="M 641.3584523608715,313.6607780222095 c 0.0,-0.8549849488186425 -0.6931022454784821,-1.5480871942971248 -1.5480871942971244 -1.5480871942971248c -0.8549849488186425,-5.235272904449571e-17 -1.5480871942971248,0.6931022454784821 -1.5480871942971248 1.5480871942971244c -1.0470545808899142e-16,0.8549849488186425 0.693102245478482,1.5480871942971248 1.5480871942971242 1.5480871942971248c 0.8549849488186425,1.5705818713348713e-16 1.5480871942971248,-0.6931022454784819 1.548087194297125 -1.5480871942971244Z" /></g></g></g><g fill="rgb(185,161,185)" fill-opacity="1.0" stroke-width="0.0"><g fill="rgb(185,161,185)" fill-opacity="1.0"><g fill="rgb(185,161,185)" fill-opacity="1.0"><path d="M 199.6230366159207,344.2011940229469 c 0.0,-0.21120330703646692 -0.17121410916264854,-0.3824174161991155 -0.3824174161991154 -0.3824174161991155c -0.21120330703646692,-1.2932472696577244e-17 -0.3824174161991155,0.1712141091626485 -0.3824174161991155 0.3824174161991154c -2.5864945393154488e-17,0.21120330703646692 0.1712141091626485,0.3824174161991155 0.38241741619911535 0.3824174161991155c 0.21120330703646692,3.879741808973173e-17 0.3824174161991155,-0.17121410916264848 0.38241741619911557 -0.3824174161991154Z" /></g></g></g><g fill="rgb(245,180,86)" fill-opacity="1.0" stroke-width="0.0"><g fill="rgb(245,180,86)" fill-opacity="1.0"><g fill="rgb(245,180,86)" fill-opacity="1.0"><path d="M 421.4326961457289,207.90659933264396 c 0.0,-1.0216368822105981 -0.8282003304294442,-1.8498372126400426 -1.8498372126400422 -1.8498372126400426c -1.0216368822105981,-6.255721688450452e-17 -1.8498372126400426,0.8282003304294441 -1.8498372126400426 1.849837212640042c -1.2511443376900905e-16,1.0216368822105981 0.828200330429444,1.8498372126400426 1.8498372126400418 1.8498372126400426c 1.0216368822105981,1.876716506535136e-16 1.8498372126400426,-0.8282003304294439 1.849837212640043 -1.849837212640042Z" /></g></g></g><g fill="rgb(245,180,86)" fill-opacity="1.0" stroke-width="0.0"><g fill="rgb(245,180,86)" fill-opacity="1.0"><g fill="rgb(245,180,86)" fill-opacity="1.0"><path d="M 289.17142377336717,265.4594336183476 c 0.0,-0.9163614549732106 -0.7428577345009896,-1.6592191894742003 -1.6592191894741999 -1.6592191894742003c -0.9163614549732106,-5.61109561347477e-17 -1.6592191894742003,0.7428577345009895 -1.6592191894742003 1.6592191894741999c -1.122219122694954e-16,0.9163614549732106 0.7428577345009894,1.6592191894742003 1.6592191894741997 1.6592191894742003c 0.9163614549732106,1.6833286840424307e-16 1.6592191894742003,-0.7428577345009892 1.6592191894742006 -1.6592191894741999Z" /></g></g></g><g fill="rgb(168,145,120)" fill-opacity="1.0" stroke-width="0.0"><g fill="rgb(168,145,120)" fill-opacity="1.0"><g fill="rgb(168,145,120)" fill-opacity="1.0"><path d="M 408.65584963086565,444.51810892818924 c 0.0,-1.3380105287034023 -1.084671845041909,-2.4226823737453116 -2.422682373745311 -2.4226823737453116c -1.3380105287034023,-8.192951556010396e-17 -2.4226823737453116,1.0846718450419088 -2.4226823737453116 2.4226823737453107c -1.6385903112020792e-16,1.3380105287034023 1.0846718450419088,2.4226823737453116 2.4226823737453107 2.4226823737453116c 1.3380105287034023,2.457885466803119e-16 2.4226823737453116,-1.0846718450419086 2.4226823737453116 -2.4226823737453107Z" /></g></g></g><g fill="rgb(72,189,190)" fill-opacity="1.0" stroke-width="0.0"><g fill="rgb(72,189,190)" fill-opacity="1.0"><g fill="rgb(72,189,190)" fill-opacity="1.0"><path d="M 478.970011755007,433.3029911945217 c 0.0,-0.5718256904903395 -0.4635563124810133,-1.035382002971353 -1.0353820029713527 -1.035382002971353c -0.5718256904903395,-3.501422507646097e-17 -1.035382002971353,0.46355631248101326 -1.035382002971353 1.0353820029713525c -7.002845015292194e-17,0.5718256904903395 0.4635563124810132,1.035382002971353 1.0353820029713525 1.035382002971353c 0.5718256904903395,1.050426752293829e-16 1.035382002971353,-0.46355631248101314 1.035382002971353 -1.0353820029713525Z" /></g></g></g><g fill="rgb(241,237,226)" fill-opacity="1.0" stroke-width="0.0"><g fill="rgb(241,237,226)" fill-opacity="1.0"><g fill="rgb(241,237,226)" fill-opacity="1.0"><path d="M 301.00240109301757,293.143747750045 c 0.0,-1.639471951282856 -1.3290546136551582,-2.9685265649380144 -2.968526564938014 -2.9685265649380144c -1.639471951282856,-1.0038870387152075e-16 -2.9685265649380144,1.329054613655158 -2.9685265649380144 2.9685265649380135c -2.007774077430415e-16,1.639471951282856 1.3290546136551578,2.9685265649380144 2.968526564938013 2.9685265649380144c 1.639471951282856,3.0116611161456224e-16 2.9685265649380144,-1.3290546136551575 2.9685265649380157 -2.9685265649380135Z" /></g></g></g><g fill="rgb(241,237,226)" fill-opacity="1.0" stroke-width="0.0"><g fill="rgb(241,237,226)" fill-opacity="1.0"><g fill="rgb(241,237,226)" fill-opacity="1.0"><path d="M 360.3957402557185,351.8674162787472 c 0.0,-0.10247031438835587 -8.306860266439682e-2,-0.18553891705275272 -0.1855389170527527 -0.18553891705275272c -0.10247031438835587,-6.274497126166149e-18 -0.18553891705275272,8.306860266439682e-2 -0.18553891705275272 0.18553891705275266c -1.2548994252332298e-17,0.10247031438835587 8.30686026643968e-2,0.18553891705275272 0.18553891705275263 0.18553891705275272c 0.10247031438835587,1.8823491378498447e-17 0.18553891705275272,-8.306860266439679e-2 0.1855389170527528 -0.18553891705275266Z" /></g></g></g><g fill="rgb(241,237,226)" fill-opacity="1.0" stroke-width="0.0"><g fill="rgb(241,237,226)" fill-opacity="1.0"><g fill="rgb(241,237,226)" fill-opacity="1.0"><path d="M 244.9486188676016,276.8194197643079 c 0.0,-1.114577603460132 -0.9035436714829318,-2.018121274943064 -2.0181212749430637 -2.018121274943064c -1.114577603460132,-6.824819472393893e-17 -2.018121274943064,0.9035436714829317 -2.018121274943064 2.0181212749430633c -1.3649638944787786e-16,1.114577603460132 0.9035436714829316,2.018121274943064 2.0181212749430633 2.018121274943064c 1.114577603460132,2.047445841718168e-16 2.018121274943064,-0.9035436714829315 2.018121274943064 -2.0181212749430633Z" /></g></g></g><g fill="rgb(185,161,185)" fill-opacity="1.0" stroke-width="0.0"><g fill="rgb(185,161,185)" fill-opacity="1.0"><g fill="rgb(185,161,185)" fill-opacity="1.0"><path d="M 573.2309057009765,146.2077374367443 c 0.0,-0.9984834778943157 -0.8094307877091189,-1.8079142656034348 -1.8079142656034344 -1.8079142656034348c -0.9984834778943157,-6.113947976023953e-17 -1.8079142656034348,0.8094307877091188 -1.8079142656034348 1.8079142656034342c -1.2227895952047907e-16,0.9984834778943157 0.8094307877091188,1.8079142656034348 1.807914265603434 1.8079142656034348c 0.9984834778943157,1.834184392807186e-16 1.8079142656034348,-0.8094307877091187 1.8079142656034353 -1.8079142656034342Z" /></g></g></g><g fill="rgb(191,49,49)" fill-opacity="1.0" stroke-width="0.0"><g fill="rgb(191,49,49)" fill-opacity="1.0"><g fill="rgb(191,49,49)" fill-opacity="1.0"><path d="M 590.492563863354,171.5643350873178 c 0.0,-0.8079464397265869 -0.6549699996176497,-1.4629164393442367 -1.4629164393442364 -1.4629164393442367c -0.8079464397265869,-4.9472451064683226e-17 -1.4629164393442367,0.6549699996176496 -1.4629164393442367 1.4629164393442362c -9.894490212936645e-17,0.8079464397265869 0.6549699996176495,1.4629164393442367 1.462916439344236 1.4629164393442367c 0.8079464397265869,1.4841735319404967e-16 1.4629164393442367,-0.6549699996176493 1.4629164393442369 -1.4629164393442362Z" /></g></g></g><g fill="rgb(191,49,49)" fill-opacity="1.0" stroke-width="0.0"><g fill="rgb(191,49,49)" fill-opacity="1.0"><g fill="rgb(191,49,49)" fill-opacity="1.0"><path d="M 230.477478454024,1.5751617832559646 c 0.0,-0.869937831408529 -0.7052239518474029,-1.5751617832559321 -1.5751617832559317 -1.5751617832559321c -0.869937831408529,-5.3268329034582237e-17 -1.5751617832559321,0.7052239518474029 -1.5751617832559321 1.5751617832559317c -1.0653665806916447e-16,0.869937831408529 0.7052239518474028,1.5751617832559321 1.5751617832559315 1.5751617832559321c 0.869937831408529,1.598049871037467e-16 1.5751617832559321,-0.7052239518474027 1.5751617832559324 -1.5751617832559317Z" /></g></g></g><g fill="rgb(241,237,226)" fill-opacity="1.0" stroke-width="0.0"><g fill="rgb(241,237,226)" fill-opacity="1.0"><g fill="rgb(241,237,226)" fill-opacity="1.0"><path d="M 639.1823806938561,282.30371826996236 c 0.0,-0.5109217677669563 -0.41418392802401055,-0.9251056957909669 -0.9251056957909667 -0.9251056957909669c -0.5109217677669563,-3.128493537552552e-17 -0.9251056957909669,0.4141839280240105 -0.9251056957909669 0.9251056957909666c -6.256987075105103e-17,0.5109217677669563 0.41418392802401044,0.9251056957909669 0.9251056957909665 0.9251056957909669c 0.5109217677669563,9.385480612657654e-17 0.9251056957909669,-0.4141839280240104 0.9251056957909671 -0.9251056957909666Z" /></g></g></g><g fill="rgb(241,237,226)" fill-opacity="1.0" stroke-width="0.0"><g fill="rgb(241,237,226)" fill-opacity="1.0"><g fill="rgb(241,237,226)" fill-opacity="1.0"><path d="M 737.0034066816506,564.614057422337 c 0.0,-0.5446872240085312 -0.44155623858102966,-0.986243462589561 -0.9862434625895607 -0.986243462589561c -0.5446872240085312,-3.3352473270925253e-17 -0.986243462589561,0.4415562385810296 -0.986243462589561 0.9862434625895606c -6.670494654185051e-17,0.5446872240085312 0.44155623858102955,0.986243462589561 0.9862434625895605 0.986243462589561c 0.5446872240085312,1.0005741981277576e-16 0.986243462589561,-0.4415562385810295 0.9862434625895612 -0.9862434625895606Z" /></g></g></g><g fill="rgb(241,237,226)" fill-opacity="1.0" stroke-width="0.0"><g fill="rgb(241,237,226)" fill-opacity="1.0"><g fill="rgb(241,237,226)" fill-opacity="1.0"><path d="M 494.24556542874217,567.3023502310363 c 0.0,-0.6532757887657412 -0.5295846631404338,-1.1828604519061752 -1.182860451906175 -1.1828604519061752c -0.6532757887657412,-4.000160518362137e-17 -1.1828604519061752,0.5295846631404337 -1.1828604519061752 1.1828604519061747c -8.000321036724274e-17,0.6532757887657412 0.5295846631404336,1.1828604519061752 1.1828604519061747 1.1828604519061752c 0.6532757887657412,1.200048155508641e-16 1.1828604519061752,-0.5295846631404336 1.1828604519061752 -1.1828604519061747Z" /></g></g></g><g fill="rgb(209,95,105)" fill-opacity="1.0" stroke-width="0.0"><g fill="rgb(209,95,105)" fill-opacity="1.0"><g fill="rgb(209,95,105)" fill-opacity="1.0"><path d="M 541.0336280978219,172.84041644112136 c 0.0,-0.6411649368611282 -0.5197668778550402,-1.1609318147161685 -1.1609318147161682 -1.1609318147161685c -0.6411649368611282,-3.926002938262477e-17 -1.1609318147161685,0.5197668778550402 -1.1609318147161685 1.160931814716168c -7.852005876524954e-17,0.6411649368611282 0.51976687785504,1.1609318147161685 1.160931814716168 1.1609318147161685c 0.6411649368611282,1.177800881478743e-16 1.1609318147161685,-0.5197668778550399 1.160931814716169 -1.160931814716168Z" /></g></g></g><g fill="rgb(245,180,86)" fill-opacity="1.0" stroke-width="0.0"><g fill="rgb(245,180,86)" fill-opacity="1.0"><g fill="rgb(245,180,86)" fill-opacity="1.0"><path d="M 586.2568006952208,493.86396900181944 c 0.0,-0.4254153421861541 -0.344867274374399,-0.7702826165605532 -0.770282616560553 -0.7702826165605532c -0.4254153421861541,-2.604917685582248e-17 -0.7702826165605532,0.34486727437439896 -0.7702826165605532 0.770282616560553c -5.209835371164496e-17,0.4254153421861541 0.3448672743743989,0.7702826165605532 0.7702826165605529 0.7702826165605532c 0.4254153421861541,7.814753056746744e-17 0.7702826165605532,-0.34486727437439885 0.7702826165605533 -0.770282616560553Z" /></g></g></g><g fill="rgb(209,95,105)" fill-opacity="1.0" stroke-width="0.0"><g fill="rgb(209,95,105)" fill-opacity="1.0"><g fill="rgb(209,95,105)" fill-opacity="1.0"><path d="M 579.5538482662333,265.1280331691042 c 0.0,-0.25310356161716013 -0.20518097673865152,-0.4582845383558117 -0.45828453835581157 -0.4582845383558117c -0.25310356161716013,-1.54981233293625e-17 -0.4582845383558117,0.2051809767386515 -0.4582845383558117 0.4582845383558115c -3.0996246658725e-17,0.25310356161716013 0.20518097673865146,0.4582845383558117 0.45828453835581145 0.4582845383558117c 0.25310356161716013,4.6494369988087504e-17 0.4582845383558117,-0.20518097673865143 0.4582845383558118 -0.4582845383558115Z" /></g></g></g><g fill="rgb(173,210,116)" fill-opacity="1.0" stroke-width="0.0"><g fill="rgb(173,210,116)" fill-opacity="1.0"><g fill="rgb(173,210,116)" fill-opacity="1.0"><path d="M 335.6233335166573,341.9680631729029 c 0.0,-0.35651054170599245 -0.28900889698069687,-0.6455194386866894 -0.6455194386866893 -0.6455194386866894c -0.35651054170599245,-2.182997468812663e-17 -0.6455194386866894,0.2890088969806968 -0.6455194386866894 0.6455194386866892c -4.365994937625326e-17,0.35651054170599245 0.28900889698069676,0.6455194386866894 0.645519438686689 0.6455194386866894c 0.35651054170599245,6.548992406437989e-17 0.6455194386866894,-0.28900889698069676 0.6455194386866897 -0.6455194386866892Z" /></g></g></g><g fill="rgb(168,145,120)" fill-opacity="1.0" stroke-width="0.0"><g fill="rgb(168,145,120)" fill-opacity="1.0"><g fill="rgb(168,145,120)" fill-opacity="1.0"><path d="M 480.3241018906358,430.22658339046177 c 0.0,-0.8191172672886853 -0.6640257446080631,-1.4831430118967486 -1.4831430118967484 -1.4831430118967486c -0.8191172672886853,-5.0156466975570767e-17 -1.4831430118967486,0.6640257446080631 -1.4831430118967486 1.4831430118967481c -1.0031293395114153e-16,0.8191172672886853 0.664025744608063,1.4831430118967486 1.483143011896748 1.4831430118967486c 0.8191172672886853,1.5046940092671232e-16 1.4831430118967486,-0.6640257446080629 1.4831430118967492 -1.4831430118967481Z" /></g></g></g><g fill="rgb(191,49,49)" fill-opacity="1.0" stroke-width="0.0"><g fill="rgb(191,49,49)" fill-opacity="1.0"><g fill="rgb(191,49,49)" fill-opacity="1.0"><path d="M 414.87947868627884,540.6486730423326 c 0.0,-0.37040214760437734 -0.3002702686045791,-0.6706724162089566 -0.6706724162089565 -0.6706724162089566c -0.37040214760437734,-2.2680590223050308e-17 -0.6706724162089566,0.3002702686045791 -0.6706724162089566 0.6706724162089563c -4.5361180446100616e-17,0.37040214760437734 0.30027026860457906,0.6706724162089566 0.6706724162089562 0.6706724162089566c 0.37040214760437734,6.804177066915092e-17 0.6706724162089566,-0.300270268604579 0.6706724162089569 -0.6706724162089563Z" /></g></g></g><g fill="rgb(97,91,91)" fill-opacity="1.0" stroke-width="0.0"><g fill="rgb(97,91,91)" fill-opacity="1.0"><g fill="rgb(97,91,91)" fill-opacity="1.0"><path d="M 786.3199239870495,333.0610315187707 c 0.0,-0.40495124951330824 -0.32827784949291156,-0.7332290990062199 -0.7332290990062198 -0.7332290990062199c -0.40495124951330824,-2.4796112576359706e-17 -0.7332290990062199,0.32827784949291156 -0.7332290990062199 0.7332290990062197c -4.959222515271941e-17,0.40495124951330824 0.3282778494929115,0.7332290990062199 0.7332290990062196 0.7332290990062199c 0.40495124951330824,7.438833772907912e-17 0.7332290990062199,-0.32827784949291144 0.73322909900622 -0.7332290990062197Z" /></g></g></g><g fill="rgb(72,189,190)" fill-opacity="1.0" stroke-width="0.0"><g fill="rgb(72,189,190)" fill-opacity="1.0"><g fill="rgb(72,189,190)" fill-opacity="1.0"><path d="M 800.0,107.73198494427598 c 0.0,-0.28267668305595306 -0.2291547284442889,-0.511831411500242 -0.5118314115002419 -0.511831411500242c -0.28267668305595306,-1.730895475490319e-17 -0.511831411500242,0.22915472844428889 -0.511831411500242 0.5118314115002418c -3.461790950980638e-17,0.28267668305595306 0.22915472844428886,0.511831411500242 0.5118314115002418 0.511831411500242c 0.28267668305595306,5.1926864264709564e-17 0.511831411500242,-0.22915472844428883 0.5118314115002423 -0.5118314115002418Z" /></g></g></g><g fill="rgb(173,210,116)" fill-opacity="1.0" stroke-width="0.0"><g fill="rgb(173,210,116)" fill-opacity="1.0"><g fill="rgb(173,210,116)" fill-opacity="1.0"><path d="M 1.172345298036797,328.431504072527 c 0.0,-0.3237342148207743 -0.26243843419761437,-0.5861726490183887 -0.5861726490183886 -0.5861726490183887c -0.3237342148207743,-1.9823003497737144e-17 -0.5861726490183887,0.2624384341976143 -0.5861726490183887 0.5861726490183885c -3.964600699547429e-17,0.3237342148207743 0.26243843419761426,0.5861726490183887 0.5861726490183885 0.5861726490183887c 0.3237342148207743,5.946901049321143e-17 0.5861726490183887,-0.26243843419761426 0.586172649018389 -0.5861726490183885Z" /></g></g></g><g fill="rgb(209,95,105)" fill-opacity="1.0" stroke-width="0.0"><g fill="rgb(209,95,105)" fill-opacity="1.0"><g fill="rgb(209,95,105)" fill-opacity="1.0"><path d="M 765.5070829051472,90.68562491850199 c 0.0,-0.31658333753599466 -0.2566415027895585,-0.5732248403255532 -0.5732248403255531 -0.5732248403255532c -0.31658333753599466,-1.93851385488421e-17 -0.5732248403255532,0.25664150278955844 -0.5732248403255532 0.573224840325553c -3.87702770976842e-17,0.31658333753599466 0.2566415027895584,0.5732248403255532 0.573224840325553 0.5732248403255532c 0.31658333753599466,5.815541564652629e-17 0.5732248403255532,-0.2566415027895584 0.5732248403255532 -0.573224840325553Z" /></g></g></g><g fill="rgb(168,145,120)" fill-opacity="1.0" stroke-width="0.0"><g fill="rgb(168,145,120)" fill-opacity="1.0"><g fill="rgb(168,145,120)" fill-opacity="1.0"><path d="M 451.94427904082085,70.97006121056808 c 0.0,-0.47251591620865435 -0.3830498338024072,-0.8555657500110616 -0.8555657500110614 -0.8555657500110616c -0.47251591620865435,-2.8933255216555374e-17 -0.8555657500110616,0.38304983380240715 -0.8555657500110616 0.8555657500110613c -5.786651043311075e-17,0.47251591620865435 0.3830498338024071,0.8555657500110616 0.8555657500110613 0.8555657500110616c 0.47251591620865435,8.679976564966612e-17 0.8555657500110616,-0.38304983380240704 0.8555657500110617 -0.8555657500110613Z" /></g></g></g><g fill="rgb(241,237,226)" fill-opacity="1.0" stroke-width="0.0"><g fill="rgb(241,237,226)" fill-opacity="1.0"><g fill="rgb(241,237,226)" fill-opacity="1.0"><path d="M 358.7897612748487,665.3543140962995 c 0.0,-0.4471760267132765 -0.36250779463120253,-0.8096838213444791 -0.8096838213444789 -0.8096838213444791c -0.4471760267132765,-2.7381634488492268e-17 -0.8096838213444791,0.3625077946312025 -0.8096838213444791 0.8096838213444789c -5.4763268976984536e-17,0.4471760267132765 0.3625077946312024,0.8096838213444791 0.8096838213444788 0.8096838213444791c 0.4471760267132765,8.214490346547681e-17 0.8096838213444791,-0.3625077946312024 0.8096838213444792 -0.8096838213444789Z" /></g></g></g><g fill="rgb(245,180,86)" fill-opacity="1.0" stroke-width="0.0"><g fill="rgb(245,180,86)" fill-opacity="1.0"><g fill="rgb(245,180,86)" fill-opacity="1.0"><path d="M 287.1614152492077,858.1894628396349 c 0.0,-0.4816190506961009 -0.39042938236973546,-0.8720484330658365 -0.8720484330658362 -0.8720484330658365c -0.4816190506961009,-2.949066144216834e-17 -0.8720484330658365,0.3904293823697354 -0.8720484330658365 0.8720484330658361c -5.898132288433668e-17,0.4816190506961009 0.39042938236973534,0.8720484330658365 0.8720484330658361 0.8720484330658365c 0.4816190506961009,8.847198432650502e-17 0.8720484330658365,-0.3904293823697353 0.8720484330658366 -0.8720484330658361Z" /></g></g></g></g></g></g></svg>